<svg xmlns="http://www.w3.org/2000/svg" width="16" height="16" viewBox="0 0 16 16" fill="none">
  <path d="M10.3333 7.99893V8.87393C10.3333 9.26071 10.487 9.63164 10.7605 9.90513C11.034 10.1786 11.4049 10.3323 11.7917 10.3323C12.1784 10.3323 12.5494 10.1786 12.8229 9.90513C13.0964 9.63164 13.25 9.26071 13.25 8.87393V7.99893C13.2514 6.87083 12.8895 5.77226 12.2177 4.86596C11.546 3.95967 10.6002 3.29386 9.52039 2.96716C8.44063 2.64046 7.28435 2.67026 6.22284 3.05213C5.16133 3.434 4.25106 4.14764 3.62687 5.08733C3.00268 6.02702 2.69778 7.14277 2.75732 8.26931C2.81687 9.39584 3.2377 10.4732 3.95747 11.3419C4.67725 12.2105 5.65768 12.8242 6.75353 13.0921C7.84938 13.3599 9.00236 13.2676 10.0417 12.8289M5.66667 7.99675C5.66667 8.61558 5.9125 9.20908 6.35008 9.64666C6.78767 10.0842 7.38116 10.3301 8 10.3301C8.61884 10.3301 9.21233 10.0842 9.64992 9.64666C10.0875 9.20908 10.3333 8.61558 10.3333 7.99675C10.3333 7.37791 10.0875 6.78441 9.64992 6.34683C9.21233 5.90924 8.61884 5.66341 8 5.66341C7.38116 5.66341 6.78767 5.90924 6.35008 6.34683C5.9125 6.78441 5.66667 7.37791 5.66667 7.99675Z" stroke="currentColor" stroke-width="1.5" stroke-linecap="round" stroke-linejoin="round"/>
</svg>