<svg width="20" height="20" viewBox="0 0 20 20" fill="none" xmlns="http://www.w3.org/2000/svg">
<g clip-path="url(#clip0_7589_1078)">
<path d="M10 14.998C12.7614 14.998 15 12.7595 15 9.99805C15 7.23662 12.7614 4.99805 10 4.99805C7.23858 4.99805 5 7.23662 5 9.99805C5 12.7595 7.23858 14.998 10 14.998Z" fill="white"/>
<path d="M9.9993 5.00002H18.6581C17.7807 3.47976 16.5185 2.21731 14.9984 1.3396C13.4783 0.461898 11.7539 -0.000122446 9.99864 2.43416e-08C8.24335 0.000122495 6.51903 0.462383 4.99906 1.3403C3.47909 2.21822 2.21705 3.48085 1.33984 5.00123L5.66926 12.5L5.67314 12.499C5.23272 11.7395 5.0003 10.8774 4.99932 9.99946C4.99833 9.12153 5.22881 8.25885 5.66751 7.49839C6.10622 6.73794 6.73766 6.10657 7.49816 5.66795C8.25867 5.22932 9.12137 4.99894 9.9993 5.00002Z" fill="url(#paint0_linear_7589_1078)"/>
<path d="M9.99935 13.9587C12.1855 13.9587 13.9577 12.1865 13.9577 10.0003C13.9577 7.8142 12.1855 6.04199 9.99935 6.04199C7.81322 6.04199 6.04102 7.8142 6.04102 10.0003C6.04102 12.1865 7.81322 13.9587 9.99935 13.9587Z" fill="#1A73E8"/>
<path d="M14.3293 12.5009L9.99984 19.9997C11.7551 19.9999 13.4795 19.538 14.9997 18.6604C16.5198 17.7828 17.7821 16.5205 18.6597 15.0003C19.5372 13.4801 19.999 11.7557 19.9987 10.0004C19.9984 8.24511 19.536 6.52085 18.6579 5.00098H9.99909L9.99805 5.00485C10.876 5.00316 11.7388 5.23295 12.4997 5.67105C13.2605 6.10916 13.8923 6.7401 14.3316 7.50026C14.7708 8.26043 15.0018 9.12295 15.0014 10.0009C15.001 10.8788 14.7692 11.7411 14.3293 12.5009Z" fill="url(#paint1_linear_7589_1078)"/>
<path d="M5.66955 12.5017L1.34013 5.00293C0.462268 6.52293 6.54213e-05 8.24727 6.94442e-09 10.0026C-6.54074e-05 11.7578 0.462009 13.4822 1.33976 15.0023C2.21751 16.5223 3.48 17.7845 5.00028 18.6619C6.52057 19.5393 8.24505 20.0009 10.0003 20.0004L14.3298 12.5016L14.327 12.4988C13.8895 13.26 13.259 13.8923 12.4992 14.3321C11.7394 14.772 10.877 15.0037 9.9991 15.004C9.12117 15.0043 8.25867 14.7731 7.49856 14.3338C6.73844 13.8945 6.10758 13.2626 5.66955 12.5017Z" fill="url(#paint2_linear_7589_1078)"/>
</g>
<defs>
<linearGradient id="paint0_linear_7589_1078" x1="1.33984" y1="6.25002" x2="18.6581" y2="6.25002" gradientUnits="userSpaceOnUse">
<stop stop-color="#D93025"/>
<stop offset="1" stop-color="#EA4335"/>
</linearGradient>
<linearGradient id="paint1_linear_7589_1078" x1="8.63367" y1="19.866" x2="17.2928" y2="4.86789" gradientUnits="userSpaceOnUse">
<stop stop-color="#FCC934"/>
<stop offset="1" stop-color="#FBBC04"/>
</linearGradient>
<linearGradient id="paint2_linear_7589_1078" x1="11.0818" y1="19.3761" x2="2.42267" y2="4.37793" gradientUnits="userSpaceOnUse">
<stop stop-color="#1E8E3E"/>
<stop offset="1" stop-color="#34A853"/>
</linearGradient>
<clipPath id="clip0_7589_1078">
<rect width="20" height="20" fill="white"/>
</clipPath>
</defs>
</svg>
