<svg width="32" height="32" viewBox="0 0 32 32" fill="none" xmlns="http://www.w3.org/2000/svg">
<rect width="32" height="32" rx="4" fill="#605070"/>
<path d="M18 17H20C20.3956 17 20.7822 17.1173 21.1111 17.3371C21.44 17.5568 21.6964 17.8692 21.8478 18.2346C21.9991 18.6001 22.0387 19.0022 21.9616 19.3902C21.8844 19.7781 21.6939 20.1345 21.4142 20.4142C21.1345 20.6939 20.7781 20.8844 20.3902 20.9616C20.0022 21.0387 19.6001 20.9991 19.2346 20.8478C18.8692 20.6964 18.5568 20.44 18.3371 20.1111C18.1173 19.7822 18 19.3956 18 19V14C18 12.9391 18.4214 11.9217 19.1716 11.1716C19.9217 10.4214 20.9391 10 22 10M10 17H12C12.3956 17 12.7822 17.1173 13.1111 17.3371C13.44 17.5568 13.6964 17.8692 13.8478 18.2346C13.9991 18.6001 14.0387 19.0022 13.9616 19.3902C13.8844 19.7781 13.6939 20.1345 13.4142 20.4142C13.1345 20.6939 12.7781 20.8844 12.3902 20.9616C12.0022 21.0387 11.6001 20.9991 11.2346 20.8478C10.8692 20.6964 10.5568 20.44 10.3371 20.1111C10.1173 19.7822 10 19.3956 10 19V14C10 12.9391 10.4214 11.9217 11.1716 11.1716C11.9217 10.4214 12.9391 10 14 10" stroke="white" stroke-width="2" stroke-linecap="round" stroke-linejoin="round"/>
<circle cx="12" cy="19" r="2" fill="white"/>
<circle cx="20" cy="19" r="2" fill="white"/>
</svg>
