<svg width="30" height="30" viewBox="0 0 30 30" fill="none" xmlns="http://www.w3.org/2000/svg">
<path d="M11.7059 11.7059H19.2353M11.7059 15.4706H17.3529M12.6471 20.1765H9.82353C9.07468 20.1765 8.35651 19.879 7.82699 19.3495C7.29748 18.82 7 18.1018 7 17.3529V9.82353C7 9.07468 7.29748 8.35651 7.82699 7.82699C8.35651 7.29748 9.07468 7 9.82353 7H21.1176C21.8665 7 22.5847 7.29748 23.1142 7.82699C23.6437 8.35651 23.9412 9.07468 23.9412 9.82353V17.3529C23.9412 18.1018 23.6437 18.82 23.1142 19.3495C22.5847 19.879 21.8665 20.1765 21.1176 20.1765H18.2941L15.4706 23L12.6471 20.1765Z" stroke="#292929" stroke-width="1.5" stroke-linecap="round" stroke-linejoin="round"/>
</svg>
