<svg width="30" height="30" viewBox="0 0 30 30" fill="none" xmlns="http://www.w3.org/2000/svg">
<path d="M6.89844 23.1008V10.6695C6.89844 9.90869 7.21846 9.17901 7.7881 8.64102C8.35774 8.10302 9.13034 7.80078 9.93594 7.80078H20.0609C20.8665 7.80078 21.6391 8.10302 22.2088 8.64102C22.7784 9.17901 23.0984 9.90869 23.0984 10.6695V16.407C23.0984 17.1679 22.7784 17.8975 22.2088 18.4355C21.6391 18.9735 20.8665 19.2758 20.0609 19.2758H10.9484L6.89844 23.1008Z" stroke="#292929" stroke-width="1.5" stroke-linecap="round" stroke-linejoin="round"/>
<path d="M18.1484 14.1016L18.3216 13.3328C18.4685 12.6808 18.9777 12.1716 19.6297 12.0247L20.3984 11.8516L19.6297 11.6784C18.9777 11.5315 18.4685 11.0223 18.3216 10.3703L18.1484 9.60156L17.9753 10.3703C17.8284 11.0223 17.3192 11.5315 16.6672 11.6784L15.8984 11.8516L16.6672 12.0247C17.3192 12.1716 17.8284 12.6808 17.9753 13.3328L18.1484 14.1016Z" fill="#292929"/>
<path d="M12.7492 17.6992L13.0609 16.3155C13.3253 15.1419 14.2418 14.2253 15.4155 13.9609L16.7992 13.6492L15.4155 13.3375C14.2418 13.0731 13.3253 12.1566 13.0609 10.9829L12.7492 9.59922L12.4375 10.9829C12.1731 12.1566 11.2566 13.0731 10.0829 13.3375L8.69922 13.6492L10.0829 13.9609C11.2566 14.2253 12.1731 15.1418 12.4375 16.3155L12.7492 17.6992Z" fill="#292929"/>
</svg>
