<svg width="32" height="32" viewBox="0 0 32 32" fill="none" xmlns="http://www.w3.org/2000/svg">
<g clip-path="url(#clip0_212_1220)">
<path d="M20.5011 16.8768V9.87895C20.5011 9.64695 20.5932 9.42446 20.7573 9.26042C20.9213 9.09637 21.1438 9.00421 21.3758 9.00421H23.1253C23.3573 9.00421 23.5798 9.09637 23.7438 9.26042C23.9078 9.42446 24 9.64695 24 9.87895V16.0021C24 16.2341 23.9078 16.4566 23.7438 16.6206C23.5798 16.7847 23.3573 16.8768 23.1253 16.8768H20.5011ZM20.5011 16.8768C19.5731 16.8768 18.6831 17.2455 18.0269 17.9017C17.3707 18.5578 17.0021 19.4478 17.0021 20.3758V21.2505C17.0021 21.7145 16.8178 22.1595 16.4897 22.4876C16.1616 22.8157 15.7166 23 15.2526 23C14.7886 23 14.3437 22.8157 14.0156 22.4876C13.6875 22.1595 13.5032 21.7145 13.5032 21.2505V16.8768H10.8789C10.415 16.8768 9.96998 16.6925 9.64189 16.3644C9.3138 16.0363 9.12948 15.5914 9.12948 15.1274L10.0042 10.7537C10.13 10.2171 10.3687 9.75627 10.6842 9.44074C10.9997 9.1252 11.3751 8.972 11.7537 9.00421H17.8768C18.5728 9.00421 19.2403 9.28069 19.7324 9.77283C20.2246 10.265 20.5011 10.9324 20.5011 11.6284" stroke="#737678" stroke-width="1.5" stroke-linecap="round" stroke-linejoin="round"/>
</g>
<defs>
<clipPath id="clip0_212_1220">
<rect width="32" height="32" fill="white" transform="matrix(-1 0 0 1 32 0)"/>
</clipPath>
</defs>
</svg>
