<svg width="20" height="20" viewBox="0 0 20 20" fill="none" xmlns="http://www.w3.org/2000/svg">
<g clip-path="url(#clip0_7589_1128)">
<path d="M18.0547 14.8828C17.7865 15.0222 17.5099 15.1448 17.2266 15.25C16.3293 15.584 15.3792 15.7533 14.4219 15.75C10.7266 15.75 7.50781 13.2109 7.50781 9.94531C7.51261 9.50803 7.63385 9.07993 7.85905 8.70506C8.08424 8.33019 8.40526 8.0221 8.78906 7.8125C5.44531 7.95312 4.58594 11.4375 4.58594 13.4766C4.58594 19.2578 9.90625 19.8359 11.0547 19.8359C11.6719 19.8359 12.6016 19.6562 13.1641 19.4766L13.2656 19.4453C15.4183 18.7014 17.2534 17.2465 18.4688 15.3203C18.5041 15.2618 18.5192 15.1933 18.5119 15.1253C18.5046 15.0574 18.4752 14.9937 18.4282 14.944C18.3812 14.8944 18.3192 14.8615 18.2517 14.8505C18.1843 14.8394 18.1151 14.8508 18.0547 14.8828Z" fill="url(#paint0_linear_7589_1128)"/>
<path opacity="0.35" d="M18.0547 14.8828C17.7865 15.0222 17.5099 15.1448 17.2266 15.25C16.3293 15.584 15.3792 15.7533 14.4219 15.75C10.7266 15.75 7.50781 13.2109 7.50781 9.94531C7.51261 9.50803 7.63385 9.07993 7.85905 8.70506C8.08424 8.33019 8.40526 8.0221 8.78906 7.8125C5.44531 7.95312 4.58594 11.4375 4.58594 13.4766C4.58594 19.2578 9.90625 19.8359 11.0547 19.8359C11.6719 19.8359 12.6016 19.6562 13.1641 19.4766L13.2656 19.4453C15.4183 18.7014 17.2534 17.2465 18.4688 15.3203C18.5041 15.2618 18.5192 15.1933 18.5119 15.1253C18.5046 15.0574 18.4752 14.9937 18.4282 14.944C18.3812 14.8944 18.3192 14.8615 18.2517 14.8505C18.1843 14.8394 18.1151 14.8508 18.0547 14.8828Z" fill="url(#paint1_radial_7589_1128)"/>
<path d="M8.25786 18.8516C7.56246 18.4197 6.95967 17.854 6.48442 17.1875C5.94172 16.4447 5.56815 15.5921 5.38993 14.6896C5.21172 13.787 5.23317 12.8565 5.45278 11.9631C5.6724 11.0698 6.08486 10.2353 6.66121 9.51826C7.23757 8.80124 7.96386 8.21903 8.78911 7.8125C9.03911 7.69531 9.45317 7.49219 10.0079 7.5C10.3982 7.50302 10.7825 7.59627 11.1308 7.77245C11.4791 7.94864 11.782 8.20299 12.0157 8.51562C12.33 8.93835 12.5023 9.4498 12.5079 9.97656C12.5079 9.96094 14.4219 3.75781 6.25786 3.75781C2.82817 3.75781 0.00786119 7.00781 0.00786119 9.86719C-0.00578059 11.3776 0.317141 12.8721 0.953174 14.2422C1.99479 16.4602 3.81453 18.2185 6.06695 19.1834C8.31937 20.1483 10.8477 20.2527 13.1719 19.4766C12.3576 19.7337 11.4972 19.811 10.6501 19.7031C9.80304 19.5952 8.98948 19.3047 8.26567 18.8516H8.25786Z" fill="url(#paint2_linear_7589_1128)"/>
<path opacity="0.41" d="M8.25786 18.8516C7.56246 18.4197 6.95967 17.854 6.48442 17.1875C5.94172 16.4447 5.56815 15.5921 5.38993 14.6896C5.21172 13.787 5.23317 12.8565 5.45278 11.9631C5.6724 11.0698 6.08486 10.2353 6.66121 9.51826C7.23757 8.80124 7.96386 8.21903 8.78911 7.8125C9.03911 7.69531 9.45317 7.49219 10.0079 7.5C10.3982 7.50302 10.7825 7.59627 11.1308 7.77245C11.4791 7.94864 11.782 8.20299 12.0157 8.51562C12.33 8.93835 12.5023 9.4498 12.5079 9.97656C12.5079 9.96094 14.4219 3.75781 6.25786 3.75781C2.82817 3.75781 0.00786119 7.00781 0.00786119 9.86719C-0.00578059 11.3776 0.317141 12.8721 0.953174 14.2422C1.99479 16.4602 3.81453 18.2185 6.06695 19.1834C8.31937 20.1483 10.8477 20.2527 13.1719 19.4766C12.3576 19.7337 11.4972 19.811 10.6501 19.7031C9.80304 19.5952 8.98948 19.3047 8.26567 18.8516H8.25786Z" fill="url(#paint3_radial_7589_1128)"/>
<path d="M11.9062 11.625C11.8359 11.7031 11.6406 11.8203 11.6406 12.0625C11.6406 12.2656 11.7734 12.4688 12.0156 12.6328C13.1328 13.4141 15.25 13.3047 15.2578 13.3047C16.0907 13.3041 16.9081 13.0802 17.625 12.6562C18.3467 12.2341 18.9456 11.6307 19.3622 10.9057C19.7788 10.1808 19.9986 9.35955 20 8.52344C20.0234 6.77344 19.375 5.60937 19.1172 5.09375C17.4531 1.85937 13.8828 4.89564e-08 10 4.89564e-08C7.37202 -0.00025981 4.84956 1.03398 2.97819 2.87904C1.10682 4.7241 0.0369559 7.23166 0 9.85938C0.0390625 7.00781 2.875 4.70312 6.25 4.70312C6.52344 4.70312 8.08594 4.72656 9.53125 5.48438C10.5466 5.98895 11.3875 6.78627 11.9453 7.77344C12.4219 8.60156 12.5078 9.65625 12.5078 10.0781C12.5078 10.5 12.2969 11.1172 11.8984 11.6328L11.9062 11.625Z" fill="url(#paint4_radial_7589_1128)"/>
<path d="M11.9062 11.625C11.8359 11.7031 11.6406 11.8203 11.6406 12.0625C11.6406 12.2656 11.7734 12.4688 12.0156 12.6328C13.1328 13.4141 15.25 13.3047 15.2578 13.3047C16.0907 13.3041 16.9081 13.0802 17.625 12.6562C18.3467 12.2341 18.9456 11.6307 19.3622 10.9057C19.7788 10.1808 19.9986 9.35955 20 8.52344C20.0234 6.77344 19.375 5.60937 19.1172 5.09375C17.4531 1.85937 13.8828 4.89564e-08 10 4.89564e-08C7.37202 -0.00025981 4.84956 1.03398 2.97819 2.87904C1.10682 4.7241 0.0369559 7.23166 0 9.85938C0.0390625 7.00781 2.875 4.70312 6.25 4.70312C6.52344 4.70312 8.08594 4.72656 9.53125 5.48438C10.5466 5.98895 11.3875 6.78627 11.9453 7.77344C12.4219 8.60156 12.5078 9.65625 12.5078 10.0781C12.5078 10.5 12.2969 11.1172 11.8984 11.6328L11.9062 11.625Z" fill="url(#paint5_radial_7589_1128)"/>
</g>
<defs>
<linearGradient id="paint0_linear_7589_1128" x1="4.58594" y1="13.8281" x2="18.5234" y2="13.8281" gradientUnits="userSpaceOnUse">
<stop stop-color="#0C59A4"/>
<stop offset="1" stop-color="#114A8B"/>
</linearGradient>
<radialGradient id="paint1_radial_7589_1128" cx="0" cy="0" r="1" gradientUnits="userSpaceOnUse" gradientTransform="translate(12.2813 13.9332) scale(7.45313 7.08047)">
<stop offset="0.7" stop-opacity="0"/>
<stop offset="0.9" stop-opacity="0.5"/>
<stop offset="1"/>
</radialGradient>
<linearGradient id="paint2_linear_7589_1128" x1="11.9297" y1="7.78125" x2="3.23442" y2="17.2578" gradientUnits="userSpaceOnUse">
<stop stop-color="#1B9DE2"/>
<stop offset="0.2" stop-color="#1595DF"/>
<stop offset="0.7" stop-color="#0680D7"/>
<stop offset="1" stop-color="#0078D4"/>
</linearGradient>
<radialGradient id="paint3_radial_7589_1128" cx="0" cy="0" r="1" gradientTransform="matrix(1.67812 -11.0756 -8.95 -1.3425 5.51216 15.542)" gradientUnits="userSpaceOnUse">
<stop offset="0.8" stop-opacity="0"/>
<stop offset="0.9" stop-opacity="0.5"/>
<stop offset="1"/>
</radialGradient>
<radialGradient id="paint4_radial_7589_1128" cx="0" cy="0" r="1" gradientTransform="matrix(-0.6325 15.8125 33.6806 1.265 2.02266 3.69656)" gradientUnits="userSpaceOnUse">
<stop stop-color="#35C1F1"/>
<stop offset="0.1" stop-color="#34C1ED"/>
<stop offset="0.2" stop-color="#2FC2DF"/>
<stop offset="0.3" stop-color="#2BC3D2"/>
<stop offset="0.7" stop-color="#36C752"/>
</radialGradient>
<radialGradient id="paint5_radial_7589_1128" cx="0" cy="0" r="1" gradientTransform="matrix(2.12844 7.2975 5.92922 -1.74836 18.7547 6.03906)" gradientUnits="userSpaceOnUse">
<stop stop-color="#66EB6E"/>
<stop offset="1" stop-color="#66EB6E" stop-opacity="0"/>
</radialGradient>
<clipPath id="clip0_7589_1128">
<rect width="20" height="20" fill="white"/>
</clipPath>
</defs>
</svg>
