<svg xmlns="http://www.w3.org/2000/svg" width="32" height="32" viewBox="0 0 32 32" fill="none">
<rect width="32" height="32" rx="4" fill="white"/>
<path d="M11.5714 12.1429H10.7143C10.2596 12.1429 9.82359 12.3235 9.5021 12.645C9.18061 12.9665 9 13.4025 9 13.8571V20.7143C9 21.1689 9.18061 21.605 9.5021 21.9265C9.82359 22.248 10.2596 22.4286 10.7143 22.4286H19.2857C19.7404 22.4286 20.1764 22.248 20.4979 21.9265C20.8194 21.605 21 21.1689 21 20.7143V13.8571C21 13.4025 20.8194 12.9665 20.4979 12.645C20.1764 12.3235 19.7404 12.1429 19.2857 12.1429H18.4286M15 16.4286V7M15 7L12.4286 9.57143M15 7L17.5714 9.57143" stroke="#737678" stroke-width="1.5" stroke-linecap="round" stroke-linejoin="round" transform="scale(1.1) translate(-1, 0)"/>
</svg>