<svg width="30" height="30" viewBox="0 0 30 30" fill="none" xmlns="http://www.w3.org/2000/svg">
<path d="M9.07692 12.4615C9.07692 10.5923 10.5923 9.07693 12.4615 9.07693H17.5385H22.6154C24.4847 9.07693 26 10.5923 26 12.4615V22.6154C26 24.4847 24.4847 26 22.6154 26H12.4615C10.5923 26 9.07692 24.4847 9.07692 22.6154V12.4615Z" fill="#292929"/>
<path d="M20.9231 9.07693V7.38461C20.9231 5.51534 19.4077 4 17.5385 4H7.38462C5.51534 4 4 5.51534 4 7.38461V17.5385C4 19.4077 5.51534 20.9231 7.38462 20.9231H9.07692M12.4615 26H22.6154C24.4847 26 26 24.4847 26 22.6154V12.4615C26 10.5923 24.4847 9.07693 22.6154 9.07693H17.5385H12.4615C10.5923 9.07693 9.07692 10.5923 9.07692 12.4615V22.6154C9.07692 24.4847 10.5923 26 12.4615 26Z" stroke="#292929" stroke-width="2" stroke-miterlimit="16" stroke-linecap="round"/>
<path d="M13.8984 17.4444L16.3429 19.8889L21.2318 15" stroke="white" stroke-width="2" stroke-linecap="round" stroke-linejoin="round"/>
</svg>
