<svg width="30" height="30" viewBox="0 0 30 30" fill="none" xmlns="http://www.w3.org/2000/svg">
<path d="M9.07692 12.4615C9.07692 10.5923 10.5923 9.07693 12.4615 9.07693H22.6154C24.4847 9.07693 26 10.5923 26 12.4615V22.6154C26 24.4847 24.4847 26 22.6154 26H12.4615C10.5923 26 9.07692 24.4847 9.07692 22.6154V12.4615Z" fill="#292929"/>
<path d="M20.9231 9.07693V7.38461C20.9231 5.51534 19.4077 4 17.5385 4H7.38462C5.51534 4 4 5.51534 4 7.38461V17.5385C4 19.4077 5.51534 20.9231 7.38462 20.9231H9.07692M12.4615 26H22.6154C24.4847 26 26 24.4847 26 22.6154V12.4615C26 10.5923 24.4847 9.07693 22.6154 9.07693H12.4615C10.5923 9.07693 9.07692 10.5923 9.07692 12.4615V22.6154C9.07692 24.4847 10.5923 26 12.4615 26Z" stroke="#292929" stroke-width="2" stroke-miterlimit="16" stroke-linecap="round"/>
<path d="M12 21.6667C12 22.0203 12.1405 22.3594 12.3905 22.6095C12.6406 22.8595 12.9797 23 13.3333 23C14.6667 23 14.6667 20.3333 15.3333 17C16 13.6667 16 11 17.3333 11C17.687 11 18.0261 11.1405 18.2761 11.3905C18.5262 11.6406 18.6667 11.9797 18.6667 12.3333M13 16H18M19 19L21 21M23 23L21 21M19 23L21 21M23 19L21 21" stroke="white" stroke-width="1.5" stroke-linecap="round" stroke-linejoin="round"/>
</svg>
