<svg width="32" height="32" viewBox="0 0 32 32" fill="none" xmlns="http://www.w3.org/2000/svg">
<rect width="32" height="32" rx="4" fill="#605070"/>
<path d="M11.5556 22.9998H8V19.3465L17.3333 9.75662C17.8048 9.27217 18.4443 9 19.1111 9C19.7779 9 20.4174 9.27217 20.8889 9.75662C21.3604 10.2411 21.6253 10.8981 21.6253 11.5833C21.6253 12.2684 21.3604 12.9255 20.8889 13.4099L11.5556 22.9998ZM11.5556 22.9998L24 23V19.3467H15.1111L11.5556 22.9998ZM16.4444 10.6701L20 14.3234M9.33333 17.9767L12.8889 21.63" stroke="white" stroke-width="1.5" stroke-linecap="round" stroke-linejoin="round"/>
<path d="M15 20H24V23H12L15 20Z" fill="white"/>
</svg>
