<svg width="128" height="128" viewBox="8 8 112 112" fill="none" xmlns="http://www.w3.org/2000/svg">
    <circle cx="64" cy="64" r="56" fill="#323DD6" />
    <path
        d="M37.6399 47.1264L44.083 57.0873C44.4914 57.7187 45.0904 58.2036 45.793 58.4717L55.7297 62.2634C56.1885 62.4384 56.1536 63.0987 55.679 63.2245L49.9392 64.7459C49.7705 64.7906 49.6968 64.9887 49.7952 65.1328L65.7578 88.5135C65.9028 88.726 66.1195 88.8791 66.3682 88.945L76.4609 91.6187"
        stroke="white" stroke-width="4.12786" stroke-linecap="round" />
    <path
        d="M76.4897 91.5003L79.3604 82.6726C79.441 82.425 79.4285 82.1565 79.3255 81.9174L65.1673 49.064C65.0957 48.8979 64.8779 48.8585 64.7527 48.9891L60.6662 53.2527C60.4993 53.4269 60.2065 53.2905 60.2324 53.0506L61.2678 43.4728C61.3958 42.289 61.0796 41.0999 60.3804 40.1361L59.7796 39.3079C56.4259 34.6849 51.6057 31.3337 46.104 29.8003L39.8597 28.0599C39.6946 28.0138 39.5227 28.1066 39.4706 28.2699L37.9016 33.1839C36.9206 36.1746 34.412 42.8718 38.0889 47.7768"
        stroke="white" stroke-width="4.12786" />
    <path
        d="M64.2082 71.2713C64.0081 70.9033 64.1441 70.4428 64.512 70.2426L65.7118 69.59C66.0856 69.3867 66.5534 69.5306 66.7483 69.9088L84.5163 104.387L82.2222 104.387L64.2082 71.2713Z"
        fill="white" />
</svg>