<svg width="32" height="32" viewBox="0 0 32 32" fill="none" xmlns="http://www.w3.org/2000/svg">
<g clip-path="url(#clip0_212_1252)">
<path d="M12.4989 15.1232V22.1211C12.4989 22.353 12.4068 22.5755 12.2427 22.7396C12.0787 22.9036 11.8562 22.9958 11.6242 22.9958H9.87474C9.64274 22.9958 9.42025 22.9036 9.2562 22.7396C9.09216 22.5755 9 22.353 9 22.1211V15.9979C9 15.7659 9.09216 15.5434 9.2562 15.3794C9.42025 15.2153 9.64274 15.1232 9.87474 15.1232H12.4989C13.4269 15.1232 14.3169 14.7545 14.9731 14.0983C15.6293 13.4422 15.9979 12.5522 15.9979 11.6242V10.7495C15.9979 10.2855 16.1822 9.8405 16.5103 9.51241C16.8384 9.18432 17.2834 9 17.7474 9C18.2114 9 18.6563 9.18432 18.9844 9.51241C19.3125 9.8405 19.4968 10.2855 19.4968 10.7495V15.1232H22.121C22.585 15.1232 23.03 15.3075 23.3581 15.6356C23.6862 15.9637 23.8705 16.4086 23.8705 16.8726L22.9958 21.2463C22.87 21.7829 22.6313 22.2437 22.3158 22.5593C22.0003 22.8748 21.6249 23.028 21.2463 22.9958H15.1232C14.4272 22.9958 13.7597 22.7193 13.2676 22.2272C12.7754 21.735 12.4989 21.0676 12.4989 20.3716" fill="#FFD464"/>
<path d="M12.4989 15.1232V22.1211C12.4989 22.353 12.4068 22.5755 12.2427 22.7396C12.0787 22.9036 11.8562 22.9958 11.6242 22.9958H9.87474C9.64274 22.9958 9.42025 22.9036 9.2562 22.7396C9.09216 22.5755 9 22.353 9 22.1211V15.9979C9 15.7659 9.09216 15.5434 9.2562 15.3794C9.42025 15.2153 9.64274 15.1232 9.87474 15.1232H12.4989ZM12.4989 15.1232C13.4269 15.1232 14.3169 14.7545 14.9731 14.0983C15.6293 13.4422 15.9979 12.5522 15.9979 11.6242V10.7495C15.9979 10.2855 16.1822 9.8405 16.5103 9.51241C16.8384 9.18432 17.2834 9 17.7474 9C18.2114 9 18.6563 9.18432 18.9844 9.51241C19.3125 9.8405 19.4968 10.2855 19.4968 10.7495V15.1232H22.1211C22.585 15.1232 23.03 15.3075 23.3581 15.6356C23.6862 15.9637 23.8705 16.4086 23.8705 16.8726L22.9958 21.2463C22.87 21.7829 22.6313 22.2437 22.3158 22.5593C22.0003 22.8748 21.6249 23.028 21.2463 22.9958H15.1232C14.4272 22.9958 13.7597 22.7193 13.2676 22.2272C12.7754 21.735 12.4989 21.0676 12.4989 20.3716" stroke="#605070" stroke-width="1.5" stroke-linecap="round" stroke-linejoin="round"/>
</g>
<defs>
<clipPath id="clip0_212_1252">
<rect width="32" height="32" fill="white" transform="matrix(-1 0 0 1 32 0)"/>
</clipPath>
</defs>
</svg>
