<svg width="20" height="20" viewBox="0 0 20 20" fill="none" xmlns="http://www.w3.org/2000/svg">
<path d="M6 9V5.5C6 4.57174 6.42143 3.6815 7.17157 3.02513C7.92172 2.36875 8.93913 2 10 2C11.0609 2 12.0783 2.36875 12.8284 3.02513C13.5786 3.6815 14 4.57174 14 5.5V9" stroke="#A1A1AA" stroke-width="1.5" stroke-linecap="round" stroke-linejoin="round"/>
<mask id="path-2-inside-1_4943_7317" fill="white">
<path fill-rule="evenodd" clip-rule="evenodd" d="M5.41016 7.64746C4.30559 7.64746 3.41016 8.54289 3.41016 9.64746V16.0002C3.41016 17.1048 4.30559 18.0002 5.41016 18.0002H14.5864C15.691 18.0002 16.5864 17.1048 16.5864 16.0002V9.64746C16.5864 8.54289 15.691 7.64746 14.5864 7.64746H5.41016ZM11.8791 11.4123C11.8791 12.1087 11.5009 12.7168 10.9388 13.0423V15.1774C10.9388 15.6972 10.5174 16.1186 9.99759 16.1186C9.4778 16.1186 9.05643 15.6972 9.05643 15.1774V13.0433C8.49337 12.7179 8.11448 12.1094 8.11448 11.4123C8.11448 10.3727 8.95723 9.52998 9.9968 9.52998C11.0364 9.52998 11.8791 10.3727 11.8791 11.4123Z"/>
</mask>
<path fill-rule="evenodd" clip-rule="evenodd" d="M5.41016 7.64746C4.30559 7.64746 3.41016 8.54289 3.41016 9.64746V16.0002C3.41016 17.1048 4.30559 18.0002 5.41016 18.0002H14.5864C15.691 18.0002 16.5864 17.1048 16.5864 16.0002V9.64746C16.5864 8.54289 15.691 7.64746 14.5864 7.64746H5.41016ZM11.8791 11.4123C11.8791 12.1087 11.5009 12.7168 10.9388 13.0423V15.1774C10.9388 15.6972 10.5174 16.1186 9.99759 16.1186C9.4778 16.1186 9.05643 15.6972 9.05643 15.1774V13.0433C8.49337 12.7179 8.11448 12.1094 8.11448 11.4123C8.11448 10.3727 8.95723 9.52998 9.9968 9.52998C11.0364 9.52998 11.8791 10.3727 11.8791 11.4123Z" fill="#A1A1AA"/>
<path d="M10.9388 13.0423L10.4376 12.177L9.93875 12.4659V13.0423H10.9388ZM9.05643 13.0433H10.0564V12.4661L9.55674 12.1774L9.05643 13.0433ZM4.41016 9.64746C4.41016 9.09518 4.85787 8.64746 5.41016 8.64746V6.64746C3.7533 6.64746 2.41016 7.9906 2.41016 9.64746H4.41016ZM4.41016 16.0002V9.64746H2.41016V16.0002H4.41016ZM5.41016 17.0002C4.85787 17.0002 4.41016 16.5525 4.41016 16.0002H2.41016C2.41016 17.6571 3.75331 19.0002 5.41016 19.0002V17.0002ZM14.5864 17.0002H5.41016V19.0002H14.5864V17.0002ZM15.5864 16.0002C15.5864 16.5525 15.1387 17.0002 14.5864 17.0002V19.0002C16.2433 19.0002 17.5864 17.6571 17.5864 16.0002H15.5864ZM15.5864 9.64746V16.0002H17.5864V9.64746H15.5864ZM14.5864 8.64746C15.1387 8.64746 15.5864 9.09518 15.5864 9.64746H17.5864C17.5864 7.99061 16.2433 6.64746 14.5864 6.64746V8.64746ZM5.41016 8.64746H14.5864V6.64746H5.41016V8.64746ZM11.4399 13.9077C12.2982 13.4107 12.8791 12.4799 12.8791 11.4123H10.8791C10.8791 11.7375 10.7037 12.0229 10.4376 12.177L11.4399 13.9077ZM11.9388 15.1774V13.0423H9.93875V15.1774H11.9388ZM9.99759 17.1186C11.0697 17.1186 11.9388 16.2495 11.9388 15.1774H9.93875C9.93875 15.1449 9.9651 15.1186 9.99759 15.1186V17.1186ZM8.05643 15.1774C8.05643 16.2495 8.92552 17.1186 9.99759 17.1186V15.1186C10.0301 15.1186 10.0564 15.1449 10.0564 15.1774H8.05643ZM8.05643 13.0433V15.1774H10.0564V13.0433H8.05643ZM7.11448 11.4123C7.11448 12.4809 7.69654 13.4124 8.55612 13.9091L9.55674 12.1774C9.2902 12.0234 9.11448 11.7378 9.11448 11.4123H7.11448ZM9.9968 8.52998C8.40494 8.52998 7.11448 9.82044 7.11448 11.4123H9.11448C9.11448 10.925 9.50951 10.53 9.9968 10.53V8.52998ZM12.8791 11.4123C12.8791 9.82044 11.5887 8.52998 9.9968 8.52998V10.53C10.4841 10.53 10.8791 10.925 10.8791 11.4123H12.8791Z" fill="#A1A1AA" mask="url(#path-2-inside-1_4943_7317)"/>
</svg>
