<svg width="92" height="91" viewBox="0 0 92 91" fill="none" xmlns="http://www.w3.org/2000/svg">
<path d="M30.8333 18.9583H23.25C21.2387 18.9583 19.3099 19.7573 17.8877 21.1794C16.4656 22.6016 15.6666 24.5304 15.6666 26.5417V72.0417C15.6666 74.0529 16.4656 75.9817 17.8877 77.4039C19.3099 78.826 21.2387 79.625 23.25 79.625H44.8511M30.8333 18.9583C30.8333 16.9471 31.6323 15.0183 33.0544 13.5961C34.4766 12.174 36.4054 11.375 38.4166 11.375H46C48.0112 11.375 49.94 12.174 51.3622 13.5961C52.7843 15.0183 53.5833 16.9471 53.5833 18.9583M30.8333 18.9583C30.8333 20.9696 31.6323 22.8984 33.0544 24.3206C34.4766 25.7427 36.4054 26.5417 38.4166 26.5417H46C48.0112 26.5417 49.94 25.7427 51.3622 24.3206C52.7843 22.8984 53.5833 20.9696 53.5833 18.9583M68.75 45.5V26.5417C68.75 24.5304 67.951 22.6016 66.5289 21.1794C65.1067 19.7573 63.1779 18.9583 61.1666 18.9583H53.5833M27.8333 41.7083H57M27.8333 52.875H46.2083M70.6458 73.9375L80.125 83.4167M27.8336 63.875H42.2086M53.5833 66.3542C53.5833 68.8682 54.582 71.2793 56.3597 73.0569C58.1374 74.8346 60.5484 75.8333 63.0625 75.8333C65.5765 75.8333 67.9876 74.8346 69.7652 73.0569C71.5429 71.2793 72.5416 68.8682 72.5416 66.3542C72.5416 63.8401 71.5429 61.4291 69.7652 59.6514C67.9876 57.8737 65.5765 56.875 63.0625 56.875C60.5484 56.875 58.1374 57.8737 56.3597 59.6514C54.582 61.4291 53.5833 63.8401 53.5833 66.3542Z" stroke="#AAACAF" stroke-width="5" stroke-linecap="round" stroke-linejoin="round"/>
</svg>
