<svg xmlns="http://www.w3.org/2000/svg" width="16" height="16" viewBox="0 0 16 16" fill="none">
  <path d="M8.73012 8.56313H9.36508C9.49066 8.56313 9.61343 8.6053 9.71785 8.68432C9.82226 8.76334 9.90365 8.87566 9.95171 9.00707C9.99977 9.13847 10.0123 9.28307 9.98784 9.42257C9.96334 9.56207 9.90287 9.69021 9.81407 9.79079C9.72526 9.89136 9.61213 9.95985 9.48896 9.9876C9.36579 10.0154 9.23812 10.0011 9.12209 9.94668C9.00607 9.89225 8.9069 9.80007 8.83713 9.68181C8.76736 9.56355 8.73012 9.42451 8.73012 9.28227V7.4844C8.73012 7.10294 8.86392 6.73711 9.10207 6.46738C9.34023 6.19764 9.66324 6.04611 10 6.04611M5.50024 8.52483H6.1352C6.26079 8.52483 6.38355 8.56701 6.48797 8.64603C6.59239 8.72505 6.67377 8.83736 6.72183 8.96877C6.76989 9.10018 6.78246 9.24477 6.75796 9.38427C6.73346 9.52378 6.67299 9.65192 6.58419 9.75249C6.49539 9.85306 6.38225 9.92156 6.25908 9.94931C6.13591 9.97705 6.00824 9.96281 5.89222 9.90838C5.77619 9.85395 5.67702 9.76178 5.60725 9.64351C5.53748 9.52525 5.50024 9.38621 5.50024 9.24398V7.44611C5.50024 7.06465 5.63404 6.69881 5.8722 6.42908C6.11035 6.15935 6.43336 6.00781 6.77016 6.00781" stroke="#0d79cc" stroke-width="1.5" stroke-linecap="round" stroke-linejoin="round"/>
  <circle cx="5.5" cy="9.5" r="0.5" fill="#0d79cc"/>
  <circle cx="9.5" cy="9.5" r="0.5" fill="#0d79cc"/>
  <rect x="2.75" y="2.75" width="10.5" height="10.5" rx="2.25" stroke="#0d79cc" stroke-width="1.5"/>
</svg>