<svg xmlns="http://www.w3.org/2000/svg" width="16" height="16" viewBox="0 0 16 16" fill="none">
  <path d="M6.44697 6.01901L3.40794 6.45962L3.35412 6.47058C3.27263 6.49221 3.19835 6.53508 3.13886 6.59481C3.07936 6.65453 3.03678 6.72898 3.01547 6.81055C2.99416 6.89212 2.99488 6.97788 3.01755 7.05908C3.04022 7.14028 3.08404 7.214 3.14453 7.27273L5.34616 9.41577L4.82695 12.4429L4.82076 12.4953C4.81577 12.5796 4.83327 12.6636 4.87147 12.7389C4.90966 12.8142 4.96718 12.878 5.03813 12.9238C5.10908 12.9695 5.19091 12.9956 5.27526 12.9993C5.3596 13.003 5.44341 12.9843 5.51812 12.9449L8.23609 11.5159L10.9479 12.9449L10.9955 12.9669C11.0741 12.9978 11.1596 13.0073 11.2431 12.9944C11.3266 12.9814 11.4052 12.9465 11.4707 12.8932C11.5363 12.8398 11.5864 12.77 11.6161 12.6909C11.6458 12.6118 11.6539 12.5262 11.6395 12.4429L11.1198 9.41577L13.3224 7.27225L13.3596 7.23176C13.4126 7.16639 13.4474 7.08812 13.4604 7.00493C13.4734 6.92173 13.4641 6.83658 13.4334 6.75816C13.4028 6.67973 13.3519 6.61083 13.286 6.55847C13.22 6.50611 13.1414 6.47217 13.0581 6.4601L10.019 6.01901L8.66051 3.26578C8.6212 3.18601 8.56035 3.11884 8.48483 3.07187C8.40932 3.02489 8.32217 3 8.23324 3C8.14431 3 8.05715 3.02489 7.98164 3.07187C7.90613 3.11884 7.84527 3.18601 7.80596 3.26578L6.44697 6.01901Z" stroke="#0d79cc" stroke-linecap="round" stroke-linejoin="round"/>
</svg>