<svg xmlns="http://www.w3.org/2000/svg" width="16" height="16" viewBox="0 0 16 16" fill="none">
  <path d="M11 2.80394C11.905 3.32645 12.6578 4.07625 13.1839 4.97912C13.71 5.88198 13.9912 6.9066 13.9997 7.95154C14.0081 8.99648 13.7435 10.0255 13.232 10.9368C12.7205 11.848 11.9799 12.6099 11.0835 13.1469C10.1871 13.684 9.16602 13.9776 8.12126 13.9988C7.0765 14.0199 6.04433 13.7678 5.12693 13.2675C4.20953 12.7671 3.43872 12.0358 2.8908 11.146C2.34288 10.2562 2.03685 9.23876 2.003 8.19433L2 7.99993L2.003 7.80553C2.0366 6.76933 2.33813 5.75951 2.87818 4.87453C3.41824 3.98955 4.17839 3.25961 5.08453 2.75586C5.99068 2.25212 7.01189 1.99177 8.0486 2.0002C9.08532 2.00862 10.1022 2.28553 11 2.80394ZM10.2242 6.37573C10.1209 6.27243 9.98342 6.21037 9.83761 6.2012C9.69179 6.19203 9.54764 6.23638 9.4322 6.32593L9.3758 6.37573L7.4 8.35093L6.6242 7.57573L6.5678 7.52593C6.45235 7.43645 6.30822 7.39215 6.16244 7.40135C6.01666 7.41054 5.87924 7.4726 5.77596 7.57589C5.67267 7.67918 5.61061 7.8166 5.60141 7.96238C5.59221 8.10816 5.63651 8.25228 5.726 8.36773L5.7758 8.42413L6.9758 9.62413L7.0322 9.67393C7.13742 9.75557 7.26682 9.79988 7.4 9.79988C7.53318 9.79988 7.66257 9.75557 7.7678 9.67393L7.8242 9.62413L10.2242 7.22413L10.274 7.16773C10.3635 7.05229 10.4079 6.90814 10.3987 6.76233C10.3896 6.61651 10.3275 6.47905 10.2242 6.37573Z" fill="#0d79cc"/>
</svg>