<svg width="36" height="18" viewBox="0 0 36 18" fill="none" xmlns="http://www.w3.org/2000/svg">
<rect x="0.5" width="35" height="18" rx="3" fill="#737678"/>
<path d="M8.80859 4.51562V13H7.28516V4.51562H8.80859ZM10.3906 4.51562H12.2656L14.7852 10.6797H14.8906L17.4102 4.51562H19.2852V13H17.8203V7.16406H17.7383L15.3828 12.9766H14.293L11.9375 7.14062H11.8672V13H10.3906V4.51562ZM26.5391 7.22266C26.2695 6.32031 25.5664 5.76953 24.5352 5.76953C23.1641 5.76953 22.1797 6.83594 22.1797 8.74609C22.1797 10.6797 23.1523 11.7461 24.5703 11.7461C25.8477 11.7461 26.668 10.9727 26.6914 9.76562H24.7227V8.55859H28.168V9.57812C28.168 11.7578 26.668 13.1172 24.5703 13.1172C22.2266 13.1172 20.6445 11.4531 20.6445 8.75781C20.6445 6.03906 22.2969 4.39844 24.5234 4.39844C26.3984 4.39844 27.8398 5.55859 28.0977 7.22266H26.5391Z" fill="white"/>
</svg>
