<svg width="36" height="18" viewBox="0 0 36 18" fill="none" xmlns="http://www.w3.org/2000/svg">
<rect x="0.5" width="35" height="18" rx="3" fill="#737678"/>
<path d="M12.6406 4.51562H14.1758V10.0586C14.1758 11.875 12.793 13.1289 10.7305 13.1289C8.65625 13.1289 7.28516 11.875 7.28516 10.0586V4.51562H8.80859V9.92969C8.80859 10.9961 9.55859 11.7695 10.7305 11.7695C11.9023 11.7695 12.6406 10.9961 12.6406 9.92969V4.51562ZM15.7461 13V4.51562H18.9336C20.8789 4.51562 21.9219 5.60547 21.9219 7.22266C21.9219 8.37695 21.3945 9.23242 20.3984 9.63672L22.2266 13H20.5273L18.8633 9.89453H17.2695V13H15.7461ZM17.2695 8.61719H18.6992C19.8477 8.61719 20.3633 8.125 20.3633 7.22266C20.3633 6.32031 19.8477 5.79297 18.6992 5.79297H17.2695V8.61719ZM23.2344 13V4.51562H24.7578V11.7109H28.5078V13H23.2344Z" fill="white"/>
</svg>
