<svg width="30" height="30" viewBox="0 0 30 30" fill="none" xmlns="http://www.w3.org/2000/svg">
    <path
        d="M14.1765 10.625V9.75C14.1765 9.28587 14.3624 8.84075 14.6933 8.51256C15.0243 8.18437 15.4731 8 15.9412 8H20.2353C20.7033 8 21.1522 8.18437 21.4831 8.51256C21.8141 8.84075 22 9.28587 22 9.75V20.25C22 20.7141 21.8141 21.1592 21.4831 21.4874C21.1522 21.8156 20.7033 22 20.2353 22H15.9412C15.4731 22 15.0243 21.8156 14.6933 21.4874C14.3624 21.1592 14.1765 20.7141 14.1765 20.25V19.375M17.5882 15H8M8 15L10.6471 12.375M8 15L10.6471 17.625"
        stroke="#292929" stroke-width="1.5" stroke-linecap="round" stroke-linejoin="round" />
</svg>