<svg width="49" height="50" viewBox="0 0 49 50" fill="none" xmlns="http://www.w3.org/2000/svg">
<path d="M28.9991 0.859375L43.1413 15.0015C50.9517 22.812 50.9517 35.4753 43.1413 43.2858C35.3308 51.0963 22.6675 51.0963 14.857 43.2858L0.714844 29.1436L28.9991 0.859375Z" fill="white"/>
<path d="M24.7148 23.3594C24.7148 24.1878 24.0433 24.8594 23.2148 24.8594C22.3864 24.8594 21.7148 24.1878 21.7148 23.3594C21.7148 22.5309 22.3864 21.8594 23.2148 21.8594C24.0433 21.8594 24.7148 22.5309 24.7148 23.3594Z" fill="#A1A1AA"/>
<path d="M24.7148 28.3594C24.7148 29.1878 24.0433 29.8594 23.2148 29.8594C22.3864 29.8594 21.7148 29.1878 21.7148 28.3594C21.7148 27.5309 22.3864 26.8594 23.2148 26.8594C24.0433 26.8594 24.7148 27.5309 24.7148 28.3594Z" fill="#A1A1AA"/>
<path d="M24.7148 33.3594C24.7148 34.1878 24.0433 34.8594 23.2148 34.8594C22.3864 34.8594 21.7148 34.1878 21.7148 33.3594C21.7148 32.5309 22.3864 31.8594 23.2148 31.8594C24.0433 31.8594 24.7148 32.5309 24.7148 33.3594Z" fill="#A1A1AA"/>
<path d="M29.7148 23.3594C29.7148 24.1878 29.0433 24.8594 28.2148 24.8594C27.3864 24.8594 26.7148 24.1878 26.7148 23.3594C26.7148 22.5309 27.3864 21.8594 28.2148 21.8594C29.0433 21.8594 29.7148 22.5309 29.7148 23.3594Z" fill="#A1A1AA"/>
<path d="M29.7148 28.3594C29.7148 29.1878 29.0433 29.8594 28.2148 29.8594C27.3864 29.8594 26.7148 29.1878 26.7148 28.3594C26.7148 27.5309 27.3864 26.8594 28.2148 26.8594C29.0433 26.8594 29.7148 27.5309 29.7148 28.3594Z" fill="#A1A1AA"/>
<path d="M29.7148 33.3594C29.7148 34.1878 29.0433 34.8594 28.2148 34.8594C27.3864 34.8594 26.7148 34.1878 26.7148 33.3594C26.7148 32.5309 27.3864 31.8594 28.2148 31.8594C29.0433 31.8594 29.7148 32.5309 29.7148 33.3594Z" fill="#A1A1AA"/>
<path d="M34.7148 23.3594C34.7148 24.1878 34.0433 24.8594 33.2148 24.8594C32.3864 24.8594 31.7148 24.1878 31.7148 23.3594C31.7148 22.5309 32.3864 21.8594 33.2148 21.8594C34.0433 21.8594 34.7148 22.5309 34.7148 23.3594Z" fill="#A1A1AA"/>
<path d="M34.7148 28.3594C34.7148 29.1878 34.0433 29.8594 33.2148 29.8594C32.3864 29.8594 31.7148 29.1878 31.7148 28.3594C31.7148 27.5309 32.3864 26.8594 33.2148 26.8594C34.0433 26.8594 34.7148 27.5309 34.7148 28.3594Z" fill="#A1A1AA"/>
<path d="M34.7148 33.3594C34.7148 34.1878 34.0433 34.8594 33.2148 34.8594C32.3864 34.8594 31.7148 34.1878 31.7148 33.3594C31.7148 32.5309 32.3864 31.8594 33.2148 31.8594C34.0433 31.8594 34.7148 32.5309 34.7148 33.3594Z" fill="#A1A1AA"/>
</svg>
