<svg width="14" height="14" viewBox="0 0 14 14" fill="none" xmlns="http://www.w3.org/2000/svg">
<path d="M10.5 8.75C10.997 8.75 11.2566 8.17483 10.9568 7.80325L10.9124 7.75425L7.41243 4.25425C7.31198 4.15381 7.17834 4.09348 7.03658 4.08457C6.89481 4.07565 6.75467 4.11877 6.64243 4.20583L6.5876 4.25425L3.0876 7.75425L3.03918 7.80908L3.00768 7.854L2.97618 7.91L2.96626 7.931L2.95051 7.97008L2.93185 8.03308L2.92601 8.064L2.92018 8.099L2.91785 8.13225V8.20108L2.92076 8.23492L2.92601 8.26992L2.93185 8.30025L2.95051 8.36325L2.96626 8.40233L3.0071 8.47933L3.04501 8.53183L3.0876 8.57908L3.14243 8.6275L3.18735 8.659L3.24335 8.6905L3.26435 8.70042L3.30343 8.71617L3.36643 8.73483L3.39735 8.74067L3.43235 8.7465L3.4656 8.74883L10.5 8.75Z" fill="#515354"/>
</svg>
