<svg width="24" height="24" viewBox="0 0 24 24" fill="none" xmlns="http://www.w3.org/2000/svg">
<path d="M6 8H18M10.5 11V15.5M13.5 11V15.5M6.75 8L7.5 17C7.5 17.3978 7.65804 17.7794 7.93934 18.0607C8.22064 18.342 8.60218 18.5 9 18.5H15C15.3978 18.5 15.7794 18.342 16.0607 18.0607C16.342 17.7794 16.5 17.3978 16.5 17L17.25 8M9.75 8V5.75C9.75 5.55109 9.82902 5.36032 9.96967 5.21967C10.1103 5.07902 10.3011 5 10.5 5H13.5C13.6989 5 13.8897 5.07902 14.0303 5.21967C14.171 5.36032 14.25 5.55109 14.25 5.75V8" stroke="#737678" stroke-width="1.5" stroke-linecap="round" stroke-linejoin="round"/>
</svg>
