<svg width="30" height="30" viewBox="0 0 30 30" fill="none" xmlns="http://www.w3.org/2000/svg">
<g clip-path="url(#clip0_10499_1650)">
<path d="M11.0644 9.17578H18.9413C19.5808 9.17582 20.1404 9.60572 20.3053 10.2236L21.661 15.3082C21.6926 15.4268 21.7088 15.549 21.7088 15.6717V19.4112C21.7088 20.191 21.0768 20.823 20.297 20.823H9.70866C8.92895 20.823 8.29688 20.191 8.29688 19.4112V15.6717C8.29688 15.549 8.31305 15.4268 8.34467 15.3082L9.70039 10.2236C9.86526 9.60572 10.4249 9.17582 11.0644 9.17578Z" stroke="#292929" stroke-width="1.5"/>
<path d="M21.6459 15.8828H18.5282C17.6458 17.6475 15.587 17.6475 14.9987 17.6475C14.4105 17.6475 12.3516 17.6475 11.4693 15.8828H8.35156" stroke="#292929" stroke-width="1.5"/>
</g>
<defs>
<clipPath id="clip0_10499_1650">
<rect width="15" height="15" fill="white" transform="translate(7.5 7.5)"/>
</clipPath>
</defs>
</svg>
