<svg width="6" height="10" viewBox="0 0 6 10" fill="none" xmlns="http://www.w3.org/2000/svg">
<path d="M-4.05838e-07 0.715518C-4.3244e-07 0.106934 0.739513 -0.210931 1.21727 0.156219L1.28027 0.210506L5.78035 4.49631C5.90949 4.61931 5.98706 4.78296 5.99852 4.95655C6.00998 5.13014 5.95454 5.30175 5.8426 5.43919L5.78035 5.50633L1.28027 9.79214L1.20977 9.85143L1.15202 9.89L1.08002 9.92857L1.05302 9.94071L1.00277 9.96L0.921766 9.98286L0.882015 9.99L0.837015 9.99714L0.794264 10L0.705762 10L0.662262 9.99643L0.617261 9.99L0.57826 9.98286L0.497259 9.96L0.447008 9.94071L0.348006 9.89071L0.280505 9.84428L0.219754 9.79214L0.157503 9.72499L0.117002 9.66999L0.0765015 9.60142L0.0637511 9.57571L0.0435004 9.52785L0.0195003 9.4507L0.012 9.41284L0.00449973 9.36999L0.00149989 9.32927L-4.05838e-07 0.715518Z" fill="#71717A"/>
</svg>
