<svg width="30" height="30" viewBox="0 0 30 30" fill="none" xmlns="http://www.w3.org/2000/svg">
<path d="M7.53342 12.3333H22.4668M7.53342 17.6667H22.4668M14.5557 7C13.0582 9.39966 12.2643 12.1714 12.2643 15C12.2643 17.8286 13.0582 20.6003 14.5557 23M15.4444 7C16.9419 9.39966 17.7358 12.1714 17.7358 15C17.7358 17.8286 16.9419 20.6003 15.4444 23M7 15C7 16.0506 7.20693 17.0909 7.60896 18.0615C8.011 19.0321 8.60028 19.914 9.34315 20.6569C10.086 21.3997 10.9679 21.989 11.9385 22.391C12.9091 22.7931 13.9494 23 15 23C16.0506 23 17.0909 22.7931 18.0615 22.391C19.0321 21.989 19.914 21.3997 20.6569 20.6569C21.3997 19.914 21.989 19.0321 22.391 18.0615C22.7931 17.0909 23 16.0506 23 15C23 12.8783 22.1571 10.8434 20.6569 9.34315C19.1566 7.84285 17.1217 7 15 7C12.8783 7 10.8434 7.84285 9.34315 9.34315C7.84285 10.8434 7 12.8783 7 15Z" stroke="#292929" stroke-width="1.5" stroke-linecap="round" stroke-linejoin="round"/>
</svg>
