<svg width="32" height="32" viewBox="0 0 32 32" fill="none" xmlns="http://www.w3.org/2000/svg">
<rect width="32" height="32" rx="4" fill="#605070"/>
<path d="M8.53342 13.3333H23.4668M8.53342 18.6667H23.4668M15.5557 8C14.0582 10.3997 13.2643 13.1714 13.2643 16C13.2643 18.8286 14.0582 21.6003 15.5557 24M16.4444 8C17.9419 10.3997 18.7358 13.1714 18.7358 16C18.7358 18.8286 17.9419 21.6003 16.4444 24M8 16C8 17.0506 8.20693 18.0909 8.60896 19.0615C9.011 20.0321 9.60028 20.914 10.3431 21.6569C11.086 22.3997 11.9679 22.989 12.9385 23.391C13.9091 23.7931 14.9494 24 16 24C17.0506 24 18.0909 23.7931 19.0615 23.391C20.0321 22.989 20.914 22.3997 21.6569 21.6569C22.3997 20.914 22.989 20.0321 23.391 19.0615C23.7931 18.0909 24 17.0506 24 16C24 13.8783 23.1571 11.8434 21.6569 10.3431C20.1566 8.84285 18.1217 8 16 8C13.8783 8 11.8434 8.84285 10.3431 10.3431C8.84285 11.8434 8 13.8783 8 16Z" stroke="white" stroke-width="1.5" stroke-linecap="round" stroke-linejoin="round"/>
</svg>
