<svg width="32" height="32" viewBox="0 0 32 32" fill="none" xmlns="http://www.w3.org/2000/svg">
<rect width="32" height="32" fill="#605070"/>
<path d="M13.5556 24.9998H10V21.3465L19.3333 11.7566C19.8048 11.2722 20.4443 11 21.1111 11C21.7779 11 22.4174 11.2722 22.8889 11.7566C23.3604 12.2411 23.6253 12.8981 23.6253 13.5833C23.6253 14.2684 23.3604 14.9255 22.8889 15.4099L13.5556 24.9998ZM13.5556 24.9998L26 25V21.3467H17.1111L13.5556 24.9998ZM18.4444 12.6701L22 16.3234M11.3333 19.9767L14.8889 23.63" stroke="white" stroke-width="1.5" stroke-linecap="round" stroke-linejoin="round"/>
<path d="M17 22H26V25H14L17 22Z" fill="white"/>
<path d="M14.5 11L14.6924 10.1459C14.8556 9.4214 15.4214 8.8556 16.1459 8.6924L17 8.5L16.1459 8.3076C15.4214 8.1444 14.8556 7.57865 14.6924 6.85415L14.5 6L14.3076 6.85415C14.1444 7.57865 13.5786 8.1444 12.8541 8.3076L12 8.5L12.8541 8.6924C13.5786 8.8556 14.1444 9.42135 14.3076 10.1459L14.5 11Z" fill="white"/>
<path d="M9.5 18L9.84633 16.4625C10.1401 15.1585 11.1585 14.1401 12.4625 13.8463L14 13.5L12.4625 13.1537C11.1585 12.8599 10.1401 11.8416 9.84633 10.5375L9.5 9L9.15367 10.5375C8.85991 11.8416 7.84153 12.8599 6.53744 13.1537L5 13.5L6.53744 13.8463C7.84153 14.1401 8.85991 15.1584 9.15367 16.4625L9.5 18Z" fill="white"/>
</svg>
