<svg width="70" height="55" viewBox="0 0 70 55" fill="none" xmlns="http://www.w3.org/2000/svg">
<rect width="70" height="8" transform="translate(0 18)" fill="#D4D4D8"/>
<rect width="70" height="8" transform="translate(0 32)" fill="#D4D4D8"/>
<rect width="64" height="8" transform="translate(0 46)" fill="#D4D4D8"/>
<rect x="3.5" y="17.5" width="27" height="9" fill="#9292FF"/>
<rect x="3.5" y="17.5" width="27" height="9" stroke="white"/>
<rect x="23.5" y="45.5" width="27" height="9" fill="#77FF77"/>
<rect x="23.5" y="45.5" width="27" height="9" stroke="white"/>
<rect x="40.5" y="31.5" width="23" height="9" fill="#FF7A7A"/>
<rect x="40.5" y="31.5" width="23" height="9" stroke="white"/>
<rect x="9" width="52" height="52" rx="26" fill="white" fill-opacity="0.7"/>
<path d="M49.5907 29.0605V28.5121C49.5907 28.0957 49.6787 27.7132 49.8548 27.3645C50.0342 27.0124 50.2932 26.7314 50.6317 26.5215C50.9737 26.3082 51.3901 26.2016 51.8809 26.2016C52.3786 26.2016 52.7967 26.3065 53.1352 26.5164C53.4772 26.7263 53.7345 27.0073 53.9071 27.3594C54.0832 27.7081 54.1712 28.0923 54.1712 28.5121V29.0605C54.1712 29.477 54.0832 29.8612 53.9071 30.2133C53.7311 30.562 53.4721 30.8413 53.1302 31.0512C52.7882 31.2645 52.3718 31.3711 51.8809 31.3711C51.3833 31.3711 50.9652 31.2645 50.6266 31.0512C50.2881 30.8413 50.0308 30.562 49.8548 30.2133C49.6787 29.8612 49.5907 29.477 49.5907 29.0605ZM51.0684 28.5121V29.0605C51.0684 29.3009 51.126 29.5277 51.2411 29.741C51.3596 29.9543 51.5729 30.0609 51.8809 30.0609C52.189 30.0609 52.3989 29.956 52.5106 29.7461C52.6257 29.5362 52.6833 29.3077 52.6833 29.0605V28.5121C52.6833 28.265 52.6291 28.0348 52.5208 27.8215C52.4125 27.6082 52.1992 27.5016 51.8809 27.5016C51.5763 27.5016 51.3647 27.6082 51.2462 27.8215C51.1277 28.0348 51.0684 28.265 51.0684 28.5121ZM44.2536 23.109V22.5605C44.2536 22.1408 44.3433 21.7565 44.5227 21.4078C44.7022 21.0557 44.9612 20.7747 45.2997 20.5648C45.6416 20.3549 46.0546 20.25 46.5388 20.25C47.0398 20.25 47.4596 20.3549 47.7981 20.5648C48.1367 20.7747 48.394 21.0557 48.57 21.4078C48.746 21.7565 48.8341 22.1408 48.8341 22.5605V23.109C48.8341 23.5288 48.7444 23.913 48.5649 24.2617C48.3889 24.6104 48.1299 24.8897 47.788 25.0996C47.4494 25.3061 47.033 25.4094 46.5388 25.4094C46.0445 25.4094 45.6264 25.3044 45.2845 25.0945C44.9459 24.8813 44.6886 24.602 44.5126 24.2566C44.3399 23.9079 44.2536 23.5254 44.2536 23.109ZM45.7415 22.5605V23.109C45.7415 23.3561 45.799 23.5846 45.9141 23.7945C46.0326 24.0044 46.2408 24.1094 46.5388 24.1094C46.8502 24.1094 47.0618 24.0044 47.1735 23.7945C47.2886 23.5846 47.3462 23.3561 47.3462 23.109V22.5605C47.3462 22.3134 47.292 22.0832 47.1837 21.8699C47.0753 21.6566 46.8604 21.55 46.5388 21.55C46.2375 21.55 46.0293 21.6583 45.9141 21.875C45.799 22.0917 45.7415 22.3202 45.7415 22.5605ZM44.9239 31.0105L52.0739 20.6105H53.4044L46.2544 31.0105H44.9239Z" fill="#403050"/>
<path d="M38.1307 31.2395C37.2573 31.2361 36.5057 31.0211 35.876 30.5945C35.2497 30.168 34.7673 29.5501 34.4287 28.741C34.0936 27.9319 33.9277 26.9586 33.9311 25.8211C33.9311 24.687 34.0987 23.7204 34.4338 22.9215C34.7724 22.1225 35.2548 21.5148 35.8811 21.0984C36.5108 20.6786 37.2606 20.4688 38.1307 20.4688C39.0007 20.4688 39.7489 20.6786 40.3752 21.0984C41.0049 21.5182 41.489 22.1276 41.8276 22.9266C42.1661 23.7221 42.3337 24.687 42.3303 25.8211C42.3303 26.962 42.161 27.937 41.8225 28.7461C41.4873 29.5552 41.0066 30.173 40.3803 30.5996C39.754 31.0262 39.0041 31.2395 38.1307 31.2395ZM38.1307 29.4164C38.7265 29.4164 39.2022 29.1168 39.5576 28.5176C39.9131 27.9184 40.0892 27.0195 40.0858 25.8211C40.0858 25.0323 40.0045 24.3755 39.842 23.8508C39.6829 23.326 39.4561 22.9316 39.1615 22.6676C38.8704 22.4035 38.5268 22.2715 38.1307 22.2715C37.5382 22.2715 37.0643 22.5677 36.7088 23.1602C36.3533 23.7526 36.1739 24.6396 36.1705 25.8211C36.1705 26.6201 36.2501 27.287 36.4092 27.8219C36.5717 28.3534 36.8002 28.7529 37.0948 29.0203C37.3893 29.2844 37.7346 29.4164 38.1307 29.4164Z" fill="#403050"/>
<path d="M28.2855 31.2395C27.412 31.2361 26.6605 31.0211 26.0308 30.5945C25.4045 30.168 24.9221 29.5501 24.5835 28.741C24.2484 27.9319 24.0825 26.9586 24.0859 25.8211C24.0859 24.687 24.2534 23.7204 24.5886 22.9215C24.9271 22.1225 25.4096 21.5148 26.0359 21.0984C26.6656 20.6786 27.4154 20.4688 28.2855 20.4688C29.1555 20.4688 29.9037 20.6786 30.53 21.0984C31.1597 21.5182 31.6438 22.1276 31.9824 22.9266C32.3209 23.7221 32.4885 24.687 32.4851 25.8211C32.4851 26.962 32.3158 27.937 31.9773 28.7461C31.6421 29.5552 31.1614 30.173 30.5351 30.5996C29.9088 31.0262 29.1589 31.2395 28.2855 31.2395ZM28.2855 29.4164C28.8813 29.4164 29.357 29.1168 29.7124 28.5176C30.0679 27.9184 30.2439 27.0195 30.2406 25.8211C30.2406 25.0323 30.1593 24.3755 29.9968 23.8508C29.8377 23.326 29.6109 22.9316 29.3163 22.6676C29.0252 22.4035 28.6816 22.2715 28.2855 22.2715C27.693 22.2715 27.2191 22.5677 26.8636 23.1602C26.5081 23.7526 26.3287 24.6396 26.3253 25.8211C26.3253 26.6201 26.4049 27.287 26.564 27.8219C26.7265 28.3534 26.955 28.7529 27.2495 29.0203C27.5441 29.2844 27.8894 29.4164 28.2855 29.4164Z" fill="#403050"/>
<path d="M21.7359 20.6094V31.0094H19.5371V22.6965H19.4762L17.0945 24.1895V22.2395L19.6692 20.6094H21.7359Z" fill="#403050"/>
<path d="M61 26C61 40.3594 49.3594 52 35 52C20.6406 52 9 40.3594 9 26C9 11.6406 20.6406 0 35 0C49.3594 0 61 11.6406 61 26ZM12.9906 26C12.9906 38.1555 22.8445 48.0094 35 48.0094C47.1555 48.0094 57.0094 38.1555 57.0094 26C57.0094 13.8445 47.1555 3.9906 35 3.9906C22.8445 3.9906 12.9906 13.8445 12.9906 26Z" fill="url(#paint0_angular_2272_3135)"/>
<defs>
<radialGradient id="paint0_angular_2272_3135" cx="0" cy="0" r="1" gradientUnits="userSpaceOnUse" gradientTransform="translate(35 26) rotate(90) scale(26)">
<stop stop-color="#3996DA"/>
<stop offset="1" stop-color="#093A7A"/>
</radialGradient>
</defs>
</svg>
