<svg width="32" height="32" viewBox="0 0 32 32" fill="none" xmlns="http://www.w3.org/2000/svg">
<rect width="32" height="32" rx="5" fill="white"/>
<rect width="32" height="3.65714" transform="translate(0 11.4258)" fill="#D4D4D8"/>
<rect width="32" height="3.65714" transform="translate(0 17.8242)" fill="#D4D4D8"/>
<rect width="29.2571" height="3.65714" transform="translate(0 24.2227)" fill="#D4D4D8"/>
<rect x="1.59955" y="11.1972" width="12.3429" height="4.11429" fill="#9292FF"/>
<rect x="1.59955" y="11.1972" width="12.3429" height="4.11429" stroke="white" stroke-width="0.457143"/>
<rect x="10.7441" y="23.9941" width="12.3429" height="4.11429" fill="#77FF77"/>
<rect x="10.7441" y="23.9941" width="12.3429" height="4.11429" stroke="white" stroke-width="0.457143"/>
<rect x="18.5136" y="17.5956" width="10.5143" height="4.11429" fill="#FF7A7A"/>
<rect x="18.5136" y="17.5956" width="10.5143" height="4.11429" stroke="white" stroke-width="0.457143"/>
<rect x="4.11328" y="3.19531" width="23.7714" height="23.7714" rx="11.8857" fill="white" fill-opacity="0.7"/>
<path d="M22.6742 16.473V16.2223C22.6742 16.0319 22.7144 15.857 22.7949 15.6976C22.8769 15.5367 22.9953 15.4082 23.1501 15.3123C23.3064 15.2148 23.4968 15.166 23.7212 15.166C23.9487 15.166 24.1398 15.214 24.2946 15.31C24.4509 15.4059 24.5685 15.5344 24.6474 15.6953C24.7279 15.8547 24.7681 16.0304 24.7681 16.2223V16.473C24.7681 16.6633 24.7279 16.839 24.6474 17C24.5669 17.1594 24.4485 17.287 24.2922 17.383C24.1359 17.4805 23.9456 17.5292 23.7212 17.5292C23.4937 17.5292 23.3025 17.4805 23.1478 17.383C22.993 17.287 22.8754 17.1594 22.7949 17C22.7144 16.839 22.6742 16.6633 22.6742 16.473ZM23.3497 16.2223V16.473C23.3497 16.5829 23.376 16.6866 23.4287 16.7841C23.4828 16.8816 23.5803 16.9303 23.7212 16.9303C23.862 16.9303 23.9579 16.8823 24.009 16.7864C24.0616 16.6904 24.0879 16.586 24.0879 16.473V16.2223C24.0879 16.1093 24.0632 16.0041 24.0137 15.9066C23.9641 15.8091 23.8666 15.7603 23.7212 15.7603C23.5819 15.7603 23.4851 15.8091 23.431 15.9066C23.3768 16.0041 23.3497 16.1093 23.3497 16.2223ZM20.2344 13.7523V13.5016C20.2344 13.3097 20.2754 13.134 20.3574 12.9746C20.4394 12.8136 20.5578 12.6852 20.7126 12.5892C20.8689 12.4933 21.0577 12.4453 21.279 12.4453C21.5081 12.4453 21.7 12.4933 21.8547 12.5892C22.0095 12.6852 22.1271 12.8136 22.2076 12.9746C22.2881 13.134 22.3283 13.3097 22.3283 13.5016V13.7523C22.3283 13.9442 22.2873 14.1198 22.2053 14.2792C22.1248 14.4386 22.0064 14.5663 21.8501 14.6623C21.6953 14.7567 21.505 14.8039 21.279 14.8039C21.0531 14.8039 20.8619 14.7559 20.7056 14.66C20.5509 14.5625 20.4332 14.4348 20.3528 14.2769C20.2738 14.1175 20.2344 13.9426 20.2344 13.7523ZM20.9146 13.5016V13.7523C20.9146 13.8653 20.9409 13.9697 20.9935 14.0657C21.0476 14.1616 21.1428 14.2096 21.279 14.2096C21.4214 14.2096 21.5181 14.1616 21.5692 14.0657C21.6218 13.9697 21.6481 13.8653 21.6481 13.7523V13.5016C21.6481 13.3886 21.6234 13.2833 21.5738 13.1858C21.5243 13.0883 21.426 13.0396 21.279 13.0396C21.1413 13.0396 21.0461 13.0891 20.9935 13.1882C20.9409 13.2872 20.9146 13.3917 20.9146 13.5016ZM20.5408 17.3644L23.8094 12.6101H24.4176L21.149 17.3644H20.5408Z" fill="#403050"/>
<path d="M17.4316 17.4706C17.0323 17.4691 16.6887 17.3708 16.4008 17.1758C16.1145 16.9808 15.894 16.6984 15.7392 16.3285C15.586 15.9586 15.5102 15.5137 15.5117 14.9937C15.5117 14.4752 15.5883 14.0334 15.7416 13.6681C15.8963 13.3029 16.1169 13.0251 16.4032 12.8347C16.691 12.6428 17.0338 12.5469 17.4316 12.5469C17.8293 12.5469 18.1713 12.6428 18.4576 12.8347C18.7455 13.0266 18.9668 13.3052 19.1216 13.6704C19.2763 14.0341 19.3529 14.4752 19.3514 14.9937C19.3514 15.5152 19.274 15.9609 19.1192 16.3308C18.966 16.7007 18.7463 16.9831 18.46 17.1781C18.1736 17.3731 17.8308 17.4706 17.4316 17.4706ZM17.4316 16.6372C17.7039 16.6372 17.9214 16.5003 18.0839 16.2263C18.2464 15.9524 18.3269 15.5415 18.3253 14.9937C18.3253 14.6331 18.2882 14.3328 18.2139 14.0929C18.1411 13.8531 18.0375 13.6728 17.9028 13.5521C17.7697 13.4313 17.6126 13.371 17.4316 13.371C17.1607 13.371 16.9441 13.5064 16.7816 13.7772C16.6191 14.0481 16.537 14.4535 16.5355 14.9937C16.5355 15.3589 16.5719 15.6638 16.6446 15.9083C16.7189 16.1513 16.8233 16.3339 16.958 16.4562C17.0926 16.5769 17.2505 16.6372 17.4316 16.6372Z" fill="#403050"/>
<path d="M12.9316 17.4706C12.5323 17.4691 12.1887 17.3708 11.9008 17.1758C11.6145 16.9808 11.394 16.6984 11.2392 16.3285C11.086 15.9586 11.0102 15.5137 11.0117 14.9937C11.0117 14.4752 11.0883 14.0334 11.2416 13.6681C11.3963 13.3029 11.6169 13.0251 11.9032 12.8347C12.191 12.6428 12.5338 12.5469 12.9316 12.5469C13.3293 12.5469 13.6713 12.6428 13.9576 12.8347C14.2455 13.0266 14.4668 13.3052 14.6216 13.6704C14.7763 14.0341 14.8529 14.4752 14.8514 14.9937C14.8514 15.5152 14.774 15.9609 14.6192 16.3308C14.466 16.7007 14.2463 16.9831 13.96 17.1781C13.6736 17.3731 13.3308 17.4706 12.9316 17.4706ZM12.9316 16.6372C13.2039 16.6372 13.4214 16.5003 13.5839 16.2263C13.7464 15.9524 13.8269 15.5415 13.8253 14.9937C13.8253 14.6331 13.7882 14.3328 13.7139 14.0929C13.6411 13.8531 13.5375 13.6728 13.4028 13.5521C13.2697 13.4313 13.1126 13.371 12.9316 13.371C12.6607 13.371 12.4441 13.5064 12.2816 13.7772C12.1191 14.0481 12.037 14.4535 12.0355 14.9937C12.0355 15.3589 12.0719 15.6638 12.1446 15.9083C12.2189 16.1513 12.3233 16.3339 12.458 16.4562C12.5926 16.5769 12.7505 16.6372 12.9316 16.6372Z" fill="#403050"/>
<path d="M9.93819 12.6094V17.3637H8.93301V13.5635H8.90516L7.81641 14.246V13.3546L8.99337 12.6094H9.93819Z" fill="#403050"/>
<path d="M27.8847 15.0771C27.8847 21.6414 22.5633 26.9628 15.999 26.9628C9.4347 26.9628 4.11328 21.6414 4.11328 15.0771C4.11328 8.51282 9.4347 3.19141 15.999 3.19141C22.5633 3.19141 27.8847 8.51282 27.8847 15.0771ZM5.93756 15.0771C5.93756 20.6339 10.4422 25.1386 15.999 25.1386C21.5558 25.1386 26.0604 20.6339 26.0604 15.0771C26.0604 9.52034 21.5558 5.01568 15.999 5.01568C10.4422 5.01568 5.93756 9.52034 5.93756 15.0771Z" fill="url(#paint0_angular_3475_6227)"/>
<defs>
<radialGradient id="paint0_angular_3475_6227" cx="0" cy="0" r="1" gradientUnits="userSpaceOnUse" gradientTransform="translate(15.999 15.0771) rotate(90) scale(11.8857)">
<stop stop-color="#3996DA"/>
<stop offset="1" stop-color="#093A7A"/>
</radialGradient>
</defs>
</svg>
