<svg width="16" height="16" viewBox="0 0 16 16" fill="none" xmlns="http://www.w3.org/2000/svg">
<path d="M13.9894 8.35666C14.0618 7.1412 13.7626 5.93249 13.1317 4.89108C12.5008 3.84967 11.568 3.02486 10.4572 2.52621C9.34633 2.02757 8.11009 1.87869 6.91263 2.09936C5.71518 2.32002 4.61321 2.89979 3.75309 3.76164C2.89298 4.62349 2.31543 5.72663 2.09718 6.92452C1.87893 8.12242 2.03029 9.35836 2.53117 10.4682C3.03206 11.578 3.85874 12.5092 4.90142 13.138C5.9441 13.7668 7.15342 14.0635 8.36873 13.9887M8 4.66667V8L10 10M12.6667 10.6667V14.6667M12.6667 14.6667L14.6667 12.6667M12.6667 14.6667L10.6667 12.6667" stroke="#292929" stroke-width="1.5" stroke-linecap="round" stroke-linejoin="round"/>
</svg>
