<svg width="16" height="16" viewBox="0 0 16 16" fill="none" xmlns="http://www.w3.org/2000/svg">
<g clip-path="url(#clip0_983_2155)">
<path d="M9.05331 9.19461C9.23331 9.64794 9.33331 10.1479 9.33331 10.6679C9.33331 11.8479 8.81998 12.9146 7.99998 13.6413M7.99998 13.6413C7.27019 14.304 6.31912 14.6702 5.33331 14.6679C3.12665 14.6679 1.33331 12.8746 1.33331 10.6679C1.33331 8.82794 2.58665 7.26794 4.27998 6.80794M7.99998 13.6413C8.72977 14.304 9.68084 14.6702 10.6666 14.6679C12.8733 14.6679 14.6666 12.8746 14.6666 10.6679C14.6666 8.82794 13.4133 7.26794 11.72 6.80794M3.99998 5.33398C3.99998 6.39485 4.42141 7.41227 5.17155 8.16241C5.9217 8.91256 6.93911 9.33398 7.99998 9.33398C9.06085 9.33398 10.0783 8.91256 10.8284 8.16241C11.5786 7.41227 12 6.39485 12 5.33398C12 4.27312 11.5786 3.2557 10.8284 2.50556C10.0783 1.75541 9.06085 1.33398 7.99998 1.33398C6.93911 1.33398 5.9217 1.75541 5.17155 2.50556C4.42141 3.2557 3.99998 4.27312 3.99998 5.33398Z" stroke="#292929" stroke-width="1.5" stroke-linecap="round" stroke-linejoin="round"/>
</g>
<defs>
<clipPath id="clip0_983_2155">
<rect width="16" height="16" fill="white"/>
</clipPath>
</defs>
</svg>
