<svg width="30" height="30" viewBox="0 0 30 30" fill="none" xmlns="http://www.w3.org/2000/svg">
<path d="M9.375 14.0625C8.87772 14.0625 8.40081 13.865 8.04917 13.5133C7.69754 13.1617 7.5 12.6848 7.5 12.1875C7.5 11.6902 7.69754 11.2133 8.04917 10.8617C8.40081 10.51 8.87772 10.3125 9.375 10.3125M9.375 14.0625C9.87228 14.0625 10.3492 13.865 10.7008 13.5133C11.0525 13.1617 11.25 12.6848 11.25 12.1875C11.25 11.6902 11.0525 11.2133 10.7008 10.8617C10.3492 10.51 9.87228 10.3125 9.375 10.3125M9.375 14.0625V22.5M9.375 10.3125V7.5M15 19.6875C14.5027 19.6875 14.0258 19.49 13.6742 19.1383C13.3225 18.7867 13.125 18.3098 13.125 17.8125C13.125 17.3152 13.3225 16.8383 13.6742 16.4867C14.0258 16.135 14.5027 15.9375 15 15.9375M15 19.6875C15.4973 19.6875 15.9742 19.49 16.3258 19.1383C16.6775 18.7867 16.875 18.3098 16.875 17.8125C16.875 17.3152 16.6775 16.8383 16.3258 16.4867C15.9742 16.135 15.4973 15.9375 15 15.9375M15 19.6875V22.5M15 15.9375V7.5M20.625 14.0625C20.1277 14.0625 19.6508 13.865 19.2992 13.5133C18.9475 13.1617 18.75 12.6848 18.75 12.1875C18.75 11.6902 18.9475 11.2133 19.2992 10.8617C19.6508 10.51 20.1277 10.3125 20.625 10.3125M20.625 14.0625C21.1223 14.0625 21.5992 13.865 21.9508 13.5133C22.3025 13.1617 22.5 12.6848 22.5 12.1875C22.5 11.6902 22.3025 11.2133 21.9508 10.8617C21.5992 10.51 21.1223 10.3125 20.625 10.3125M20.625 14.0625V22.5M20.625 10.3125V7.5" stroke="white" stroke-width="1.5" stroke-linecap="round" stroke-linejoin="round"/>
</svg>
