<svg width="18" height="18" viewBox="0 0 18 18" fill="none" xmlns="http://www.w3.org/2000/svg">
<path d="M5.11763 5.82351H4.41176C4.03733 5.82351 3.67825 5.97225 3.41349 6.23701C3.14874 6.50176 3 6.86085 3 7.23527V13.5882C3 13.9626 3.14874 14.3217 3.41349 14.5864C3.67825 14.8512 4.03733 14.9999 4.41176 14.9999H10.7647C11.1391 14.9999 11.4982 14.8512 11.7629 14.5864C12.0277 14.3217 12.1764 13.9626 12.1764 13.5882V12.8823M11.4705 4.41176L13.5882 6.52939M14.5658 5.53065C14.8438 5.25264 15 4.87558 15 4.48242C15 4.08926 14.8438 3.7122 14.5658 3.43419C14.2878 3.15618 13.9107 3 13.5176 3C13.1244 3 12.7474 3.15618 12.4694 3.43419L6.52939 9.35298V11.4706H8.64702L14.5658 5.53065Z" stroke="#737678" stroke-width="1.5" stroke-linecap="round" stroke-linejoin="round"/>
</svg>
