<svg width="30" height="30" viewBox="0 0 30 30" fill="none" xmlns="http://www.w3.org/2000/svg">
<path d="M17 7V11C17 11.2652 17.1054 11.5196 17.2929 11.7071C17.4804 11.8946 17.7348 12 18 12H22M17 7H10C9.46957 7 8.96086 7.21071 8.58579 7.58579C8.21071 7.96086 8 8.46957 8 9V21C8 21.5304 8.21071 22.0391 8.58579 22.4142C8.96086 22.7893 9.46957 23 10 23H20C20.5304 23 21.0391 22.7893 21.4142 22.4142C21.7893 22.0391 22 21.5304 22 21V12M17 7L22 12M15 20V14M15 20L12.5 17.5M15 20L17.5 17.5" stroke="#292929" stroke-width="1.5" stroke-linecap="round" stroke-linejoin="round"/>
</svg>
