<?xml version="1.0" encoding="utf-8" standalone="yes"?> <svg width="100" height="100" viewBox="-1 -1 39 39" xmlns="http://www.w3.org/2000/svg" xmlns:xlink="http://www.w3.org/1999/xlink" shape-rendering="crispEdges" id="qr code"><rect id="qr background" fill-opacity="1" fill="rgb(255, 255, 255)" x="-1" y="-1" width="39" height="39"></rect><path fill-opacity="1" fill="rgb(0, 0, 0)" id="qr dark pixels" fill-rule="evenodd" d="M 9 0 L 10 0 L 10 2 L 11 2 L 11 1 L 13 1 L 13 2 L 12 2 L 12 4 L 11 4 L 11 3 L 10 3 L 10 4 L 8 4 L 8 3 L 9 3 L 9 2 L 8 2 L 8 1 L 9 1 z M 14 0 L 15 0 L 15 1 L 16 1 L 16 3 L 15 3 L 15 2 L 14 2 z M 16 0 L 22 0 L 22 1 L 16 1 z M 23 0 L 24 0 L 24 1 L 23 1 z M 26 0 L 27 0 L 27 1 L 26 1 z M 28 0 L 29 0 L 29 1 L 28 1 z M 24 1 L 25 1 L 25 2 L 24 2 z M 27 1 L 28 1 L 28 3 L 29 3 L 29 7 L 28 7 L 28 6 L 27 6 L 27 5 L 28 5 L 28 4 L 27 4 L 27 5 L 26 5 L 26 4 L 25 4 L 25 5 L 23 5 L 23 4 L 22 4 L 22 3 L 21 3 L 21 7 L 22 7 L 22 5 L 23 5 L 23 8 L 26 8 L 26 10 L 28 10 L 28 9 L 29 9 L 29 10 L 31 10 L 31 11 L 33 11 L 33 8 L 34 8 L 34 9 L 35 9 L 35 8 L 36 8 L 36 10 L 35 10 L 35 11 L 34 11 L 34 12 L 35 12 L 35 13 L 36 13 L 36 14 L 37 14 L 37 17 L 36 17 L 36 15 L 34 15 L 34 13 L 32 13 L 32 12 L 31 12 L 31 13 L 30 13 L 30 12 L 28 12 L 28 11 L 27 11 L 27 13 L 24 13 L 24 14 L 23 14 L 23 13 L 22 13 L 22 12 L 23 12 L 23 11 L 24 11 L 24 12 L 26 12 L 26 11 L 25 11 L 25 9 L 24 9 L 24 10 L 19 10 L 19 9 L 20 9 L 20 5 L 19 5 L 19 4 L 20 4 L 20 2 L 24 2 L 24 3 L 27 3 zM 21 8 L 22 8 L 22 9 L 21 9 z M 13 3 L 15 3 L 15 4 L 13 4 z M 16 3 L 17 3 L 17 4 L 18 4 L 18 6 L 17 6 L 17 8 L 16 8 L 16 9 L 14 9 L 14 10 L 16 10 L 16 9 L 17 9 L 17 10 L 19 10 L 19 11 L 17 11 L 17 12 L 18 12 L 18 13 L 20 13 L 20 14 L 18 14 L 18 15 L 17 15 L 17 16 L 16 16 L 16 17 L 14 17 L 14 18 L 13 18 L 13 17 L 12 17 L 12 15 L 13 15 L 13 16 L 14 16 L 14 15 L 15 15 L 15 14 L 14 14 L 14 13 L 13 13 L 13 12 L 15 12 L 15 13 L 16 13 L 16 11 L 12 11 L 12 13 L 11 13 L 11 11 L 10 11 L 10 10 L 13 10 L 13 9 L 12 9 L 12 6 L 13 6 L 13 8 L 14 8 L 14 5 L 16 5 zM 15 6 L 16 6 L 16 7 L 15 7 z M 10 4 L 11 4 L 11 7 L 10 7 z M 12 4 L 13 4 L 13 5 L 12 5 z M 8 5 L 9 5 L 9 7 L 8 7 z M 25 5 L 26 5 L 26 6 L 25 6 z M 18 6 L 19 6 L 19 7 L 18 7 z M 24 6 L 25 6 L 25 7 L 24 7 z M 26 6 L 27 6 L 27 7 L 28 7 L 28 9 L 27 9 L 27 8 L 26 8 z M 0 8 L 5 8 L 5 10 L 2 10 L 2 11 L 3 11 L 3 12 L 1 12 L 1 9 L 0 9 z M 6 8 L 11 8 L 11 9 L 9 9 L 9 10 L 8 10 L 8 9 L 6 9 z M 17 8 L 18 8 L 18 9 L 17 9 z M 29 8 L 30 8 L 30 9 L 29 9 z M 31 8 L 32 8 L 32 10 L 31 10 z M 5 10 L 7 10 L 7 11 L 6 11 L 6 12 L 7 12 L 7 13 L 5 13 L 5 14 L 4 14 L 4 15 L 6 15 L 6 16 L 7 16 L 7 17 L 6 17 L 6 18 L 7 18 L 7 17 L 8 17 L 8 16 L 9 16 L 9 15 L 10 15 L 10 13 L 11 13 L 11 16 L 10 16 L 10 18 L 9 18 L 9 19 L 8 19 L 8 20 L 7 20 L 7 19 L 5 19 L 5 16 L 2 16 L 2 15 L 3 15 L 3 14 L 1 14 L 1 13 L 4 13 L 4 11 L 5 11 z M 36 10 L 37 10 L 37 11 L 36 11 z M 8 11 L 9 11 L 9 12 L 8 12 z M 19 11 L 22 11 L 22 12 L 19 12 z M 35 11 L 36 11 L 36 12 L 35 12 z M 0 12 L 1 12 L 1 13 L 0 13 z M 36 12 L 37 12 L 37 13 L 36 13 z M 12 13 L 13 13 L 13 14 L 12 14 z M 21 13 L 22 13 L 22 14 L 21 14 z M 31 13 L 32 13 L 32 14 L 33 14 L 33 15 L 32 15 L 32 16 L 31 16 z M 0 14 L 1 14 L 1 15 L 0 15 z M 6 14 L 8 14 L 8 15 L 6 15 z M 13 14 L 14 14 L 14 15 L 13 15 z M 26 14 L 30 14 L 30 15 L 29 15 L 29 16 L 28 16 L 28 17 L 24 17 L 24 16 L 23 16 L 23 17 L 22 17 L 22 16 L 21 16 L 21 17 L 22 17 L 22 19 L 23 19 L 23 20 L 21 20 L 21 18 L 19 18 L 19 17 L 20 17 L 20 15 L 25 15 L 25 16 L 27 16 L 27 15 L 26 15 z M 33 15 L 34 15 L 34 16 L 35 16 L 35 17 L 36 17 L 36 18 L 37 18 L 37 21 L 36 21 L 36 22 L 37 22 L 37 25 L 36 25 L 36 26 L 37 26 L 37 28 L 36 28 L 36 27 L 35 27 L 35 26 L 34 26 L 34 25 L 32 25 L 32 24 L 31 24 L 31 21 L 32 21 L 32 22 L 33 22 L 33 21 L 34 21 L 34 23 L 33 23 L 33 24 L 36 24 L 36 23 L 35 23 L 35 21 L 34 21 L 34 20 L 36 20 L 36 19 L 34 19 L 34 17 L 32 17 L 32 16 L 33 16 z M 0 16 L 1 16 L 1 17 L 2 17 L 2 18 L 3 18 L 3 17 L 4 17 L 4 19 L 3 19 L 3 20 L 2 20 L 2 19 L 1 19 L 1 18 L 0 18 z M 17 16 L 18 16 L 18 17 L 17 17 z M 29 16 L 31 16 L 31 17 L 29 17 z M 16 17 L 17 17 L 17 20 L 15 20 L 15 21 L 14 21 L 14 22 L 16 22 L 16 21 L 17 21 L 17 22 L 19 22 L 19 23 L 20 23 L 20 22 L 19 22 L 19 20 L 20 20 L 20 21 L 21 21 L 21 23 L 22 23 L 22 24 L 18 24 L 18 23 L 17 23 L 17 24 L 16 24 L 16 23 L 15 23 L 15 25 L 14 25 L 14 26 L 16 26 L 16 27 L 12 27 L 12 29 L 11 29 L 11 27 L 10 27 L 10 24 L 11 24 L 11 26 L 13 26 L 13 25 L 12 25 L 12 23 L 13 23 L 13 24 L 14 24 L 14 23 L 13 23 L 13 22 L 12 22 L 12 21 L 13 21 L 13 20 L 14 20 L 14 19 L 15 19 L 15 18 L 16 18 z M 23 17 L 24 17 L 24 18 L 23 18 z M 28 17 L 29 17 L 29 18 L 28 18 z M 31 17 L 32 17 L 32 18 L 33 18 L 33 21 L 32 21 L 32 20 L 31 20 L 31 19 L 30 19 L 30 18 L 31 18 z M 10 18 L 13 18 L 13 19 L 12 19 L 12 21 L 11 21 L 11 22 L 10 22 L 10 24 L 7 24 L 7 23 L 6 23 L 6 24 L 7 24 L 7 25 L 5 25 L 5 24 L 4 24 L 4 25 L 5 25 L 5 26 L 3 26 L 3 27 L 5 27 L 5 26 L 8 26 L 8 27 L 10 27 L 10 28 L 9 28 L 9 29 L 10 29 L 10 30 L 11 30 L 11 34 L 9 34 L 9 36 L 10 36 L 10 37 L 8 37 L 8 32 L 9 32 L 9 31 L 8 31 L 8 29 L 5 29 L 5 28 L 2 28 L 2 26 L 1 26 L 1 29 L 0 29 L 0 25 L 2 25 L 2 21 L 3 21 L 3 22 L 5 22 L 5 21 L 6 21 L 6 22 L 8 22 L 8 21 L 10 21 L 10 20 L 9 20 L 9 19 L 10 19 zM 6 27 L 7 27 L 7 28 L 6 28 z M 26 18 L 28 18 L 28 19 L 27 19 L 27 20 L 29 20 L 29 19 L 30 19 L 30 20 L 31 20 L 31 21 L 29 21 L 29 22 L 30 22 L 30 24 L 31 24 L 31 25 L 29 25 L 29 24 L 28 24 L 28 23 L 26 23 L 26 21 L 25 21 L 25 20 L 26 20 zM 27 21 L 28 21 L 28 22 L 27 22 z M 4 19 L 5 19 L 5 20 L 4 20 z M 0 20 L 2 20 L 2 21 L 0 21 z M 6 20 L 7 20 L 7 21 L 6 21 z M 17 20 L 18 20 L 18 21 L 17 21 z M 23 20 L 24 20 L 24 21 L 25 21 L 25 23 L 24 23 L 24 22 L 23 22 z M 0 22 L 1 22 L 1 24 L 0 24 z M 22 22 L 23 22 L 23 23 L 22 23 z M 17 24 L 18 24 L 18 25 L 17 25 z M 22 24 L 23 24 L 23 25 L 22 25 z M 24 24 L 27 24 L 27 25 L 24 25 z M 8 25 L 9 25 L 9 26 L 8 26 z M 16 25 L 17 25 L 17 26 L 16 26 z M 18 25 L 21 25 L 21 26 L 23 26 L 23 28 L 24 28 L 24 27 L 25 27 L 25 28 L 26 28 L 26 27 L 27 27 L 27 26 L 28 26 L 28 27 L 29 27 L 29 26 L 30 26 L 30 27 L 31 27 L 31 25 L 32 25 L 32 26 L 34 26 L 34 27 L 32 27 L 32 28 L 35 28 L 35 29 L 34 29 L 34 30 L 33 30 L 33 33 L 34 33 L 34 32 L 35 32 L 35 30 L 37 30 L 37 32 L 36 32 L 36 33 L 37 33 L 37 37 L 31 37 L 31 36 L 32 36 L 32 35 L 34 35 L 34 36 L 36 36 L 36 35 L 35 35 L 35 34 L 32 34 L 32 33 L 31 33 L 31 34 L 30 34 L 30 33 L 29 33 L 29 34 L 28 34 L 28 33 L 26 33 L 26 34 L 23 34 L 23 33 L 22 33 L 22 32 L 20 32 L 20 31 L 22 31 L 22 30 L 23 30 L 23 31 L 24 31 L 24 33 L 25 33 L 25 32 L 26 32 L 26 31 L 27 31 L 27 32 L 28 32 L 28 29 L 26 29 L 26 30 L 25 30 L 25 29 L 24 29 L 24 30 L 23 30 L 23 29 L 22 29 L 22 28 L 21 28 L 21 27 L 20 27 L 20 26 L 19 26 L 19 27 L 17 27 L 17 26 L 18 26 zM 29 29 L 32 29 L 32 32 L 29 32 z M 23 25 L 24 25 L 24 26 L 23 26 z M 28 25 L 29 25 L 29 26 L 28 26 z M 15 28 L 18 28 L 18 29 L 17 29 L 17 30 L 16 30 L 16 29 L 15 29 z M 19 28 L 20 28 L 20 29 L 21 29 L 21 30 L 18 30 L 18 29 L 19 29 z M 12 29 L 14 29 L 14 30 L 16 30 L 16 32 L 15 32 L 15 31 L 14 31 L 14 32 L 13 32 L 13 33 L 12 33 L 12 31 L 13 31 L 13 30 L 12 30 z M 30 30 L 31 30 L 31 31 L 30 31 z M 14 32 L 15 32 L 15 33 L 14 33 z M 17 32 L 20 32 L 20 33 L 21 33 L 21 34 L 19 34 L 19 33 L 18 33 L 18 34 L 17 34 L 17 35 L 15 35 L 15 34 L 16 34 L 16 33 L 17 33 z M 11 34 L 13 34 L 13 35 L 12 35 L 12 37 L 11 37 z M 22 34 L 23 34 L 23 35 L 25 35 L 25 36 L 23 36 L 23 37 L 22 37 L 22 36 L 20 36 L 20 37 L 19 37 L 19 35 L 22 35 z M 26 34 L 28 34 L 28 35 L 26 35 z M 31 34 L 32 34 L 32 35 L 31 35 z M 14 35 L 15 35 L 15 36 L 14 36 z M 28 35 L 30 35 L 30 37 L 29 37 L 29 36 L 28 36 z M 15 36 L 16 36 L 16 37 L 15 37 z M 17 36 L 18 36 L 18 37 L 17 37 z M 25 36 L 27 36 L 27 37 L 25 37 z"></path><path id="qr squares" d="M0,0h7h0v0v7v0h0h-7h0v0v-7v0h0zM1,1h5h0v0v5v0h0h-5h0v0v-5v0h0zM2,2h3h0v0v3v0h0h-3h0v0v-3v0h0z M30,0h7h0v0v7v0h0h-7h0v0v-7v0h0zM31,1h5h0v0v5v0h0h-5h0v0v-5v0h0zM32,2h3h0v0v3v0h0h-3h0v0v-3v0h0z M0,30h7h0v0v7v0h0h-7h0v0v-7v0h0zM1,31h5h0v0v5v0h0h-5h0v0v-5v0h0zM2,32h3h0v0v3v0h0h-3h0v0v-3v0h0z" fill-rule="evenodd" fill-opacity="1" fill="rgb(0, 0, 0)"></path></svg>