<svg width="480" height="200" viewBox="0 0 480 200" fill="none" xmlns="http://www.w3.org/2000/svg">
<mask id="path-1-inside-1_641_360" fill="white">
<path fill-rule="evenodd" clip-rule="evenodd" d="M32 0C14.3269 0 0 14.3269 0 32V108C0 125.673 14.3269 140 32 140H399.212L448.951 187.705C452.564 191.17 458.462 187.765 457.267 182.904L446.726 140H448C465.673 140 480 125.673 480 108V32C480 14.3269 465.673 0 448 0H32Z"/>
</mask>
<path fill-rule="evenodd" clip-rule="evenodd" d="M32 0C14.3269 0 0 14.3269 0 32V108C0 125.673 14.3269 140 32 140H399.212L448.951 187.705C452.564 191.17 458.462 187.765 457.267 182.904L446.726 140H448C465.673 140 480 125.673 480 108V32C480 14.3269 465.673 0 448 0H32Z" fill="#F6EEFF"/>
<path d="M399.212 140L403.365 135.67L401.624 134H399.212V140ZM448.951 187.705L453.104 183.375L453.104 183.375L448.951 187.705ZM457.267 182.904L451.441 184.335L451.441 184.335L457.267 182.904ZM446.726 140V134H439.073L440.899 141.432L446.726 140ZM6 32C6 17.6406 17.6406 6 32 6V-6C11.0132 -6 -6 11.0132 -6 32H6ZM6 108V32H-6V108H6ZM32 134C17.6406 134 6 122.359 6 108H-6C-6 128.987 11.0132 146 32 146V134ZM399.212 134H32V146H399.212V134ZM395.058 144.33L444.798 192.036L453.104 183.375L403.365 135.67L395.058 144.33ZM444.798 192.036C452.746 199.659 465.722 192.167 463.094 181.472L451.441 184.335C451.413 184.221 451.406 183.948 451.54 183.661C451.651 183.421 451.802 183.294 451.912 183.231C452.022 183.167 452.207 183.101 452.47 183.124C452.786 183.152 453.019 183.294 453.104 183.375L444.798 192.036ZM463.094 181.472L452.553 138.568L440.899 141.432L451.441 184.335L463.094 181.472ZM448 134H446.726V146H448V134ZM474 108C474 122.359 462.359 134 448 134V146C468.987 146 486 128.987 486 108H474ZM474 32V108H486V32H474ZM448 6C462.359 6 474 17.6406 474 32H486C486 11.0132 468.987 -6 448 -6V6ZM32 6H448V-6H32V6Z" fill="#605070" mask="url(#path-1-inside-1_641_360)"/>
<rect x="30" y="30" width="80" height="80" rx="15" fill="#605070"/>
<path d="M51.4712 63.3915H88.53M51.4712 76.6268H88.53M68.8978 50.1562C65.1817 56.1113 63.2115 62.9898 63.2115 70.0092C63.2115 77.0286 65.1817 83.9071 68.8978 89.8621M71.1033 50.1562C74.8195 56.1113 76.7897 62.9898 76.7897 70.0092C76.7897 77.0286 74.8195 83.9071 71.1033 89.8621M50.1475 70.0092C50.1475 72.6163 50.661 75.1979 51.6587 77.6066C52.6564 80.0153 54.1187 82.2038 55.9623 84.0473C57.8058 85.8909 59.9943 87.3532 62.403 88.3509C64.8117 89.3486 67.3933 89.8621 70.0004 89.8621C72.6075 89.8621 75.1891 89.3486 77.5978 88.3509C80.0065 87.3532 82.195 85.8909 84.0386 84.0473C85.8821 82.2038 87.3444 80.0153 88.3421 77.6066C89.3398 75.1979 89.8533 72.6163 89.8533 70.0092C89.8533 64.7439 87.7617 59.6942 84.0386 55.971C80.3154 52.2479 75.2657 50.1562 70.0004 50.1562C64.7351 50.1562 59.6854 52.2479 55.9623 55.971C52.2391 59.6942 50.1475 64.7439 50.1475 70.0092Z" stroke="white" stroke-width="3.6" stroke-linecap="round" stroke-linejoin="round"/>
<path d="M138.391 32.9375V50H134.676V32.9375H138.391ZM142.574 32.9375V35.9609H130.586V32.9375H142.574ZM144.449 32.9375H150.109C151.25 32.9375 152.23 33.1328 153.051 33.5234C153.871 33.9141 154.5 34.4922 154.938 35.2578C155.383 36.0234 155.605 36.9688 155.605 38.0938C155.605 39.0469 155.48 39.8516 155.23 40.5078C154.98 41.1562 154.629 41.6953 154.176 42.125C153.723 42.5547 153.188 42.9023 152.57 43.168L151.387 43.8594H146.875L146.863 40.8477H150.016C150.438 40.8477 150.785 40.75 151.059 40.5547C151.332 40.3594 151.535 40.082 151.668 39.7227C151.809 39.3555 151.879 38.9219 151.879 38.4219C151.879 37.9062 151.812 37.4648 151.68 37.0977C151.555 36.7305 151.363 36.4492 151.105 36.2539C150.855 36.0586 150.523 35.9609 150.109 35.9609H148.176V50H144.449V32.9375ZM152.113 50L149.031 42.418L152.945 42.4062L156.098 49.8242V50H152.113ZM164.207 36.2539L160.785 50H156.812L162.121 32.9375H164.594L164.207 36.2539ZM166.902 50L163.469 36.2539L163.023 32.9375H165.543L170.875 50H166.902ZM167.031 43.6367V46.6484H159.473V43.6367H167.031ZM184.434 32.9375V50H180.789L175.961 39.3828V50H172.328V32.9375H175.973L180.812 43.6133V32.9375H184.434ZM194.172 45.4883C194.172 45.1992 194.145 44.9414 194.09 44.7148C194.035 44.4805 193.93 44.2656 193.773 44.0703C193.617 43.8672 193.383 43.6641 193.07 43.4609C192.758 43.2578 192.348 43.0469 191.84 42.8281C191.215 42.5703 190.605 42.2891 190.012 41.9844C189.426 41.6719 188.898 41.3125 188.43 40.9062C187.961 40.4922 187.586 40.0078 187.305 39.4531C187.023 38.8906 186.883 38.2344 186.883 37.4844C186.883 36.7578 187.02 36.1016 187.293 35.5156C187.566 34.9219 187.949 34.418 188.441 34.0039C188.934 33.582 189.516 33.2617 190.188 33.043C190.859 32.8164 191.598 32.7031 192.402 32.7031C193.488 32.7031 194.438 32.9258 195.25 33.3711C196.062 33.8086 196.695 34.4258 197.148 35.2227C197.602 36.0117 197.828 36.9336 197.828 37.9883H194.125C194.125 37.5273 194.062 37.125 193.938 36.7812C193.812 36.4297 193.617 36.1562 193.352 35.9609C193.094 35.7578 192.754 35.6562 192.332 35.6562C191.941 35.6562 191.617 35.7383 191.359 35.9023C191.102 36.0664 190.91 36.2891 190.785 36.5703C190.66 36.8516 190.598 37.1641 190.598 37.5078C190.598 37.7812 190.66 38.0234 190.785 38.2344C190.918 38.4453 191.094 38.6406 191.312 38.8203C191.539 39 191.805 39.1719 192.109 39.3359C192.422 39.5 192.758 39.6562 193.117 39.8047C193.883 40.1094 194.562 40.4414 195.156 40.8008C195.758 41.1602 196.258 41.5664 196.656 42.0195C197.062 42.4648 197.367 42.9727 197.57 43.543C197.781 44.1055 197.887 44.7461 197.887 45.4648C197.887 46.1992 197.762 46.8633 197.512 47.457C197.262 48.043 196.902 48.543 196.434 48.957C195.973 49.3711 195.41 49.6875 194.746 49.9062C194.082 50.125 193.34 50.2344 192.52 50.2344C191.746 50.2344 191 50.125 190.281 49.9062C189.562 49.6797 188.922 49.3359 188.359 48.875C187.805 48.4141 187.363 47.8242 187.035 47.1055C186.707 46.3867 186.543 45.5312 186.543 44.5391H190.27C190.27 45.0469 190.312 45.4805 190.398 45.8398C190.492 46.1914 190.633 46.4727 190.82 46.6836C191.016 46.8945 191.254 47.0508 191.535 47.1523C191.824 47.2461 192.168 47.293 192.566 47.293C192.973 47.293 193.293 47.2109 193.527 47.0469C193.762 46.8828 193.926 46.668 194.02 46.4023C194.121 46.1289 194.172 45.8242 194.172 45.4883ZM209.688 46.9883V50H202.551V46.9883H209.688ZM203.781 32.9375V50H200.055V32.9375H203.781ZM218.09 36.2539L214.668 50H210.695L216.004 32.9375H218.477L218.09 36.2539ZM220.785 50L217.352 36.2539L216.906 32.9375H219.426L224.758 50H220.785ZM220.914 43.6367V46.6484H213.355V43.6367H220.914ZM231.93 32.9375V50H228.215V32.9375H231.93ZM236.113 32.9375V35.9609H224.125V32.9375H236.113ZM241.867 32.9375V50H238.152V32.9375H241.867ZM256.785 40.168V42.8867C256.785 44.0977 256.637 45.1641 256.34 46.0859C256.043 47 255.617 47.7656 255.062 48.3828C254.516 49 253.859 49.4648 253.094 49.7773C252.336 50.082 251.496 50.2344 250.574 50.2344C249.645 50.2344 248.797 50.082 248.031 49.7773C247.266 49.4648 246.605 49 246.051 48.3828C245.496 47.7656 245.066 47 244.762 46.0859C244.465 45.1641 244.316 44.0977 244.316 42.8867V40.168C244.316 38.9414 244.465 37.8633 244.762 36.9336C245.066 35.9961 245.492 35.2188 246.039 34.6016C246.594 33.9766 247.25 33.5039 248.008 33.1836C248.773 32.8633 249.621 32.7031 250.551 32.7031C251.48 32.7031 252.324 32.8633 253.082 33.1836C253.848 33.5039 254.504 33.9766 255.051 34.6016C255.605 35.2188 256.031 35.9961 256.328 36.9336C256.633 37.8633 256.785 38.9414 256.785 40.168ZM253.047 42.8867V40.1445C253.047 39.3555 252.992 38.6836 252.883 38.1289C252.781 37.5742 252.625 37.1211 252.414 36.7695C252.203 36.418 251.941 36.1602 251.629 35.9961C251.324 35.832 250.965 35.75 250.551 35.75C250.129 35.75 249.762 35.832 249.449 35.9961C249.137 36.1602 248.875 36.418 248.664 36.7695C248.461 37.1211 248.309 37.5742 248.207 38.1289C248.113 38.6836 248.066 39.3555 248.066 40.1445V42.8867C248.066 43.6523 248.117 44.3086 248.219 44.8555C248.32 45.4023 248.477 45.8477 248.688 46.1914C248.898 46.5352 249.16 46.7891 249.473 46.9531C249.785 47.1172 250.152 47.1992 250.574 47.1992C250.98 47.1992 251.336 47.1172 251.641 46.9531C251.953 46.7891 252.211 46.5352 252.414 46.1914C252.625 45.8477 252.781 45.4023 252.883 44.8555C252.992 44.3086 253.047 43.6523 253.047 42.8867ZM271.176 32.9375V50H267.531L262.703 39.3828V50H259.07V32.9375H262.715L267.555 43.6133V32.9375H271.176Z" fill="#605070"/>
<path d="M137.752 62.6934C141.127 62.7109 143.57 64.3633 143.57 66.877C143.57 69.2412 141.522 70.7969 138.578 71.043V74.1367H144.994V75.5254H130.58V74.1367H136.926V71.043C133.999 70.7969 131.951 69.2412 131.951 66.877C131.951 64.3633 134.395 62.7109 137.752 62.6934ZM137.752 64.0645C135.326 64.0469 133.568 65.1719 133.568 66.877C133.568 68.6523 135.326 69.7422 137.752 69.7598C140.195 69.7422 141.953 68.6523 141.953 66.877C141.953 65.1719 140.195 64.0469 137.752 64.0645ZM160.533 70.3926V71.7461H146.119V70.3926H160.533ZM159.057 75.8066V77.1602H148V72.8711H149.67V75.8066H159.057ZM158.723 62.2188V66.2617H149.617V67.8086H159.039V69.0918H147.965V65.0488H157.053V63.5371H147.93V62.2188H158.723ZM166.633 63.8359C166.633 64.6709 167.45 65.8047 168.883 66.4199C170.28 65.8223 171.062 64.7324 171.062 63.8359V63.6777H169.182V62.3066H175.088V63.6777H172.75V63.9062C172.75 65.0488 173.752 66.332 175.65 66.8242L174.912 68.0371C173.374 67.6064 172.346 66.666 171.854 65.5586C171.326 66.5518 170.342 67.4395 168.865 67.8438C167.38 67.4043 166.396 66.499 165.877 65.5059C165.367 66.6133 164.356 67.5889 162.818 68.0371L162.098 66.8242C163.943 66.2969 164.98 64.9258 164.98 63.9062V63.6777H162.625V62.3066H168.549V63.6777H166.633V63.8359ZM176.09 69.4609V70.8145H161.693V69.4609H168.039V67.9492H169.691V69.4609H176.09ZM174.279 72.3438V77.4941H172.592V73.6797H163.258V72.3438H174.279ZM187.076 64.2578C187.076 66.332 188.518 68.248 190.873 69.0215L189.977 70.3398C188.254 69.7334 186.962 68.5029 186.285 66.9473C185.591 68.7139 184.255 70.0938 182.418 70.7793L181.521 69.4434C183.982 68.5645 185.406 66.4727 185.424 64.1172V62.5703H187.076V64.2578ZM194.02 61.7441V65.6992H196.305V67.1055H194.02V71.2539H192.35V61.7441H194.02ZM188.939 71.623C192.174 71.623 194.16 72.6953 194.16 74.541C194.16 76.4043 192.174 77.4766 188.939 77.459C185.67 77.4766 183.648 76.4043 183.648 74.541C183.648 72.6953 185.67 71.623 188.939 71.623ZM188.939 72.9414C186.654 72.9414 185.301 73.5391 185.318 74.541C185.301 75.5781 186.654 76.1406 188.939 76.1582C191.207 76.1406 192.525 75.5781 192.525 74.541C192.525 73.5391 191.207 72.9414 188.939 72.9414ZM209.576 61.7266V66.2969H211.879V67.6855H209.576V73.1348H207.906V61.7266H209.576ZM204.936 63.0801V64.4336H199.557V69.0215C202.624 69.0303 204.355 68.9336 206.324 68.5293L206.518 69.8828C204.391 70.3047 202.527 70.4102 199.152 70.4102H197.904V63.0801H204.936ZM210.244 75.8066V77.1602H199.592V71.957H201.262V75.8066H210.244ZM217.891 62.8691C220.387 62.8516 222.162 64.3984 222.18 66.6133C222.162 68.8281 220.387 70.375 217.891 70.375C215.412 70.375 213.584 68.8281 213.602 66.6133C213.584 64.3984 215.412 62.8516 217.891 62.8691ZM217.891 64.3105C216.361 64.3105 215.236 65.2246 215.254 66.6133C215.236 68.002 216.361 68.916 217.891 68.916C219.42 68.916 220.545 68.002 220.545 66.6133C220.545 65.2246 219.42 64.3105 217.891 64.3105ZM225.783 61.7441V77.5293H224.113V61.7441H225.783ZM212.846 72.748C215.711 72.748 219.684 72.7129 223.129 72.2207L223.252 73.4336C219.684 74.1191 215.869 74.1367 213.057 74.1367L212.846 72.748ZM232.797 68.125L234.203 63.2734H235.697L234.766 68.125H232.797ZM250.568 61.7441V77.4941H248.969V61.7441H250.568ZM247.457 62.0957V76.6855H245.875V69.1445H243.906V67.6504H245.875V62.0957H247.457ZM244.328 63.6777V65.0488H243.115V72.0801C243.651 72.0449 244.17 71.9834 244.645 71.9219L244.768 73.1348C242.271 73.627 239.002 73.6973 236.963 73.6973L236.77 72.291L238.316 72.2734V65.0488H237.104V63.6777H244.328ZM239.828 72.2559C240.399 72.2383 240.988 72.2207 241.568 72.1855V65.0488H239.828V72.2559ZM265.545 61.7441V77.5293H263.875V61.7441H265.545ZM257.125 62.9219C259.463 62.9219 261.186 65.0664 261.186 68.4414C261.186 71.834 259.463 73.9785 257.125 73.9785C254.752 73.9785 253.047 71.834 253.047 68.4414C253.047 65.0664 254.752 62.9219 257.125 62.9219ZM257.125 64.416C255.666 64.416 254.664 65.9629 254.664 68.4414C254.664 70.9375 255.666 72.4844 257.125 72.4844C258.566 72.4844 259.568 70.9375 259.568 68.4414C259.568 65.9629 258.566 64.416 257.125 64.416ZM273.859 66.3848C273.859 69.0215 275.582 71.7461 278.008 72.7832L277.094 74.084C275.239 73.2666 273.763 71.5352 273.033 69.4258C272.304 71.6758 270.818 73.5918 268.99 74.4883L268.023 73.1699C270.396 72.0625 272.154 69.0918 272.172 66.3848V64.7148H268.568V63.3262H277.445V64.7148H273.859V66.3848ZM281.102 61.7441V77.4941H279.432V61.7441H281.102ZM301.141 61.7617V73.3984H299.471V67.457H296.025V70.7793H288.766V62.7988H290.436V65.4707H294.373V62.7988H296.025V66.1035H299.471V61.7617H301.141ZM301.492 75.8066V77.1602H290.857V72.2559H292.545V75.8066H301.492ZM290.436 69.4258H294.373V66.7539H290.436V69.4258ZM316.697 71.8516V77.4941H315.027V73.1699H306.027V71.8516H316.697ZM316.697 61.7441V71.0254H315.027V68.8633H311.143C310.413 69.7246 309.262 70.2432 307.926 70.2344C305.553 70.252 303.795 68.6699 303.795 66.4199C303.795 64.2051 305.553 62.6055 307.926 62.623C309.262 62.6143 310.404 63.1328 311.143 63.9941H315.027V61.7441H316.697ZM307.926 64.0293C306.449 64.0293 305.395 65.0137 305.395 66.4199C305.395 67.8613 306.449 68.8281 307.926 68.8281C309.35 68.8281 310.422 67.8613 310.422 66.4199C310.422 65.0137 309.35 64.0293 307.926 64.0293ZM311.881 67.4922H315.027V65.3652H311.881C311.969 65.6992 312.021 66.0508 312.021 66.4199C312.021 66.7979 311.969 67.1582 311.881 67.4922ZM322.111 63.291L320.705 68.1426H319.211L320.143 63.291H322.111ZM356.898 62.0078C360.449 62.0078 362.523 62.957 362.523 64.7148C362.523 66.4727 360.449 67.4395 356.898 67.4395C353.348 67.4395 351.273 66.4727 351.273 64.7148C351.273 62.957 353.348 62.0078 356.898 62.0078ZM356.898 63.2383C354.385 63.2383 352.996 63.7832 353.014 64.7148C352.996 65.6816 354.385 66.1914 356.898 66.1914C359.412 66.1914 360.801 65.6816 360.801 64.7148C360.801 63.7832 359.412 63.2383 356.898 63.2383ZM364.088 68.4062V69.7422H349.727V68.4062H364.088ZM362.277 70.9551V74.6465H353.102V76.0527H362.717V77.3359H351.467V73.4336H360.625V72.2031H351.449V70.9551H362.277ZM382.264 62.4473V63.6953C382.264 64.917 382.264 66.2969 381.912 68.0723H384.021V69.4258H369.695V68.0723H380.242C380.374 67.4219 380.462 66.833 380.523 66.2793L371.295 66.666L371.084 65.3652L380.594 65.1016C380.611 64.6357 380.611 64.2051 380.611 63.7832H371.488V62.4473H382.264ZM382.369 70.7441V74.5586H373.035V75.9824H382.932V77.3008H371.365V73.3105H380.717V72.0273H371.33V70.7441H382.369ZM398.295 61.7617V71.377H396.625V61.7617H398.295ZM398.295 72.1855V77.4941H396.625V73.5566H387.625V72.1855H398.295ZM393.268 62.6758V67.1758H387.695V69.1973C390.446 69.1885 392.477 69.0918 394.867 68.7402L395.078 70.0938C392.512 70.498 390.35 70.5684 387.379 70.5684H386.061V65.875H391.615V64.0293H386.025V62.6758H393.268ZM413.061 61.7441V68.125H415.592V69.5137H413.061V77.4941H411.408V61.7441H413.061ZM410.037 64.2051V65.5762H400.703V64.2051H404.588V61.9551H406.258V64.2051H410.037ZM405.432 66.7363C407.682 66.7363 409.334 68.248 409.352 70.3926C409.334 72.5547 407.682 74.0488 405.432 74.0664C403.164 74.0488 401.512 72.5547 401.512 70.3926C401.512 68.248 403.164 66.7363 405.432 66.7363ZM405.432 68.1074C404.096 68.1074 403.094 69.0391 403.111 70.3926C403.094 71.7637 404.096 72.6777 405.432 72.6602C406.768 72.6777 407.752 71.7637 407.752 70.3926C407.752 69.0391 406.768 68.1074 405.432 68.1074ZM424.381 63.0801V64.416H427.809V61.7617H429.479V73.2402H427.809V69.1621H424.381V70.5332H417.068V63.0801H424.381ZM418.721 64.4336V69.2148H422.746V64.4336H418.721ZM429.83 75.8066V77.1602H419.195V72.1855H420.883V75.8066H429.83ZM424.381 67.791H427.809V65.7871H424.381V67.791ZM144.203 83.7441V99.4941H142.604V83.7441H144.203ZM141.092 84.0957V98.6855H139.51V91.1445H137.541V89.6504H139.51V84.0957H141.092ZM137.963 85.6777V87.0488H136.75V94.0801C137.286 94.0449 137.805 93.9834 138.279 93.9219L138.402 95.1348C135.906 95.627 132.637 95.6973 130.598 95.6973L130.404 94.291L131.951 94.2734V87.0488H130.738V85.6777H137.963ZM133.463 94.2559C134.034 94.2383 134.623 94.2207 135.203 94.1855V87.0488H133.463V94.2559ZM159.18 83.7441V99.5293H157.51V83.7441H159.18ZM150.76 84.9219C153.098 84.9219 154.82 87.0664 154.82 90.4414C154.82 93.834 153.098 95.9785 150.76 95.9785C148.387 95.9785 146.682 93.834 146.682 90.4414C146.682 87.0664 148.387 84.9219 150.76 84.9219ZM150.76 86.416C149.301 86.416 148.299 87.9629 148.299 90.4414C148.299 92.9375 149.301 94.4844 150.76 94.4844C152.201 94.4844 153.203 92.9375 153.203 90.4414C153.203 87.9629 152.201 86.416 150.76 86.416ZM167.494 88.3848C167.494 91.0215 169.217 93.7461 171.643 94.7832L170.729 96.084C168.874 95.2666 167.397 93.5352 166.668 91.4258C165.938 93.6758 164.453 95.5918 162.625 96.4883L161.658 95.1699C164.031 94.0625 165.789 91.0918 165.807 88.3848V86.7148H162.203V85.3262H171.08V86.7148H167.494V88.3848ZM174.736 83.7441V99.4941H173.066V83.7441H174.736ZM194.775 83.7617V95.293H193.105V89.3691H190.1V88.0156H193.105V83.7617H194.775ZM195.197 97.8066V99.1602H184.545V94.2559H186.215V97.8066H195.197ZM187.287 86.9434C187.287 88.9121 188.711 90.8809 191.084 91.6719L190.223 93.0078C188.456 92.3838 187.146 91.1182 186.461 89.5625C185.775 91.2939 184.396 92.6914 182.523 93.3594L181.662 92.0059C184.088 91.1797 185.582 89.1055 185.582 86.9434V86.3281H182.172V84.957H190.662V86.3281H187.287V86.9434ZM201.912 88.5781C201.912 91.0566 203.055 93.5879 205.234 94.748L204.303 95.9785C202.782 95.1699 201.719 93.6582 201.156 91.8652C200.585 93.79 199.53 95.4424 198.01 96.3477L197.025 95.082C199.205 93.8164 200.33 91.127 200.348 88.5781V87.9453H197.5V86.5742H200.348V84.3066H201.912V86.5742H204.707V87.9453H201.912V88.5781ZM210.719 83.7441V99.4941H209.119V83.7441H210.719ZM207.52 84.0781V98.7031H205.938V91.2676H203.67V89.8789H205.938V84.0781H207.52ZM227.154 90.9688V92.252H212.74V90.9688H227.154ZM225.379 93.3594V96.8223H216.133V98.123H225.871V99.3008H214.463V95.7148H223.727V94.5547H214.445V93.3594H225.379ZM225.344 84.1484V87.5586H216.238V88.7539H225.607V89.9316H214.586V86.4512H223.674V85.3262H214.551V84.1484H225.344ZM245.787 84.4473V85.7832H241.006C241.138 87.3828 243.405 88.7275 246.332 89.0352L245.717 90.3359C243.001 90.0371 240.751 88.8682 239.898 87.1719C239.02 88.8682 236.778 90.0371 234.062 90.3359L233.465 89.0352C236.356 88.71 238.624 87.3652 238.773 85.7832H234.027V84.4473H245.787ZM247.105 91.2676V92.6211H232.709V91.2676H247.105ZM245.312 94.0801V99.4941H243.625V95.4336H234.309V94.0801H245.312ZM254.049 87.752C254.031 90.6348 255.771 93.5176 258.215 94.6074L257.213 95.9258C255.402 95.0645 253.97 93.2979 253.24 91.1445C252.502 93.4473 251.052 95.3545 249.162 96.2773L248.143 94.8711C250.621 93.7637 252.361 90.7578 252.361 87.752V85.0625H254.049V87.752ZM261.309 83.7441V99.5293H259.639V83.7441H261.309ZM281.348 83.7617V95.3984H279.678V89.457H276.232V92.7793H268.973V84.7988H270.643V87.4707H274.58V84.7988H276.232V88.1035H279.678V83.7617H281.348ZM281.699 97.8066V99.1602H271.064V94.2559H272.752V97.8066H281.699ZM270.643 91.4258H274.58V88.7539H270.643V91.4258ZM296.904 93.8516V99.4941H295.234V95.1699H286.234V93.8516H296.904ZM296.904 83.7441V93.0254H295.234V90.8633H291.35C290.62 91.7246 289.469 92.2432 288.133 92.2344C285.76 92.252 284.002 90.6699 284.002 88.4199C284.002 86.2051 285.76 84.6055 288.133 84.623C289.469 84.6143 290.611 85.1328 291.35 85.9941H295.234V83.7441H296.904ZM288.133 86.0293C286.656 86.0293 285.602 87.0137 285.602 88.4199C285.602 89.8613 286.656 90.8281 288.133 90.8281C289.557 90.8281 290.629 89.8613 290.629 88.4199C290.629 87.0137 289.557 86.0293 288.133 86.0293ZM292.088 89.4922H295.234V87.3652H292.088C292.176 87.6992 292.229 88.0508 292.229 88.4199C292.229 88.7979 292.176 89.1582 292.088 89.4922ZM311.705 83.6914V87.3828H314.008V88.7539H311.705V92.3574H310.035V83.6914H311.705ZM311.705 93.0957V96.752H303.197V98.0703H312.25V99.3359H301.562V95.5742H310.053V94.3438H301.527V93.0957H311.705ZM308.734 85.0801V86.3984H299.348V85.0801H303.215V83.6035H304.885V85.0801H308.734ZM304.041 86.9961C306.344 86.9961 307.855 87.9805 307.855 89.5801C307.855 91.1797 306.344 92.1465 304.041 92.1465C301.721 92.1465 300.209 91.1797 300.209 89.5801C300.209 87.9805 301.721 86.9961 304.041 86.9961ZM304.041 88.1914C302.688 88.1914 301.809 88.7363 301.826 89.5801C301.809 90.4238 302.688 90.9336 304.041 90.9336C305.395 90.9336 306.273 90.4238 306.291 89.5801C306.273 88.7363 305.395 88.1914 304.041 88.1914ZM327.35 85.1328C327.332 87.2246 329.898 89.1934 332.992 89.5977L332.342 90.9688C329.767 90.5557 327.499 89.2197 326.488 87.3652C325.451 89.2285 323.192 90.5557 320.635 90.9688L319.967 89.5977C323.061 89.1934 325.592 87.2422 325.609 85.1328V84.2715H327.35V85.1328ZM333.643 92.5156V93.8867H327.244V99.4941H325.609V93.8867H319.281V92.5156H333.643ZM344.699 94.1504C344.699 95.5039 345.367 96.9365 346.791 97.7891C348.241 96.8662 348.953 95.3545 348.953 94.1504V93.3945H350.588V94.1504C350.588 95.7852 351.66 97.3672 353.717 98.0352L352.891 99.2656C351.335 98.7295 350.28 97.6836 349.727 96.3828C349.226 97.6572 348.285 98.8086 346.844 99.4062C345.332 98.835 344.374 97.7188 343.891 96.4355C343.319 97.6748 342.282 98.7207 340.797 99.2656L339.953 98.0352C341.975 97.3145 343.064 95.6797 343.082 94.1504V93.3945H344.699V94.1504ZM352.293 83.7617V92.7266H350.623V83.7617H352.293ZM343.75 84.623C346.158 84.623 347.934 86.1523 347.934 88.3496C347.934 90.5293 346.158 92.041 343.75 92.041C341.342 92.041 339.549 90.5293 339.549 88.3496C339.549 86.1523 341.342 84.623 343.75 84.623ZM343.75 86.0469C342.256 86.0293 341.184 86.9609 341.184 88.3496C341.184 89.7207 342.256 90.6523 343.75 90.6523C345.227 90.6523 346.299 89.7207 346.299 88.3496C346.299 86.9609 345.227 86.0293 343.75 86.0469ZM358.217 93.1836V94.8535H365.617V93.1836H367.287V99.3008H356.564V93.1836H358.217ZM358.217 97.9648H365.617V96.1543H358.217V97.9648ZM369.15 90.8105V92.1992H354.789V90.8105H369.15ZM362.822 84.5879C362.822 86.3984 365.336 88.1562 368.359 88.5254L367.762 89.8438C365.204 89.4834 362.98 88.2793 361.979 86.6094C360.95 88.2881 358.718 89.4834 356.195 89.8438L355.562 88.5254C358.621 88.1387 361.117 86.4512 361.117 84.5879V83.9199H362.822V84.5879ZM383.424 83.7441V99.4941H381.754V83.7441H383.424ZM372.965 85.2734V94.0449C375.259 94.0273 377.676 93.8428 380.207 93.3242L380.436 94.7305C377.641 95.293 375.109 95.4863 372.631 95.4863H371.312V85.2734H372.965ZM398.172 83.7441V89.8438H400.703V91.2148H398.172V99.5293H396.502V83.7441H398.172ZM393.936 85.2559V86.6094H388.24V94.2207C390.886 94.2119 392.872 94.0977 395.113 93.6934L395.324 95.0996C392.863 95.5391 390.771 95.627 387.836 95.6094H386.57V85.2559H393.936ZM403.252 98.123C402.566 98.123 401.986 97.5605 402.004 96.875C401.986 96.1895 402.566 95.627 403.252 95.627C403.92 95.627 404.5 96.1895 404.5 96.875C404.5 97.5605 403.92 98.123 403.252 98.123Z" fill="#605070"/>
<path d="M334.224 60V63.4015C334.224 63.627 334.135 63.8433 333.977 64.0028C333.818 64.1623 333.603 64.2519 333.379 64.2519H330M334.224 60H340.138C340.586 60 341.016 60.1792 341.333 60.4981C341.65 60.8171 341.828 61.2497 341.828 61.7008V64.2519M334.224 60L330 64.2519M330 64.2519V73.606C330 74.0571 330.178 74.4897 330.495 74.8086C330.812 75.1276 331.242 75.3068 331.69 75.3068H333.379" stroke="#605070" stroke-width="1.5" stroke-linecap="round" stroke-linejoin="round"/>
<path d="M334.497 69.5125H343.588M334.497 72.7594H343.588M338.772 66.2656C337.86 67.7265 337.377 69.414 337.377 71.136C337.377 72.858 337.86 74.5454 338.772 76.0063M339.313 66.2656C340.224 67.7265 340.708 69.414 340.708 71.136C340.708 72.858 340.224 74.5454 339.313 76.0063M334.172 71.136C334.172 71.7755 334.298 72.4089 334.543 72.9998C334.787 73.5907 335.146 74.1276 335.598 74.5798C336.051 75.0321 336.588 75.3908 337.178 75.6356C337.769 75.8803 338.403 76.0063 339.042 76.0063C339.682 76.0063 340.315 75.8803 340.906 75.6356C341.497 75.3908 342.034 75.0321 342.486 74.5798C342.938 74.1276 343.297 73.5907 343.542 72.9998C343.787 72.4089 343.913 71.7755 343.913 71.136C343.913 69.8443 343.399 68.6055 342.486 67.6921C341.573 66.7787 340.334 66.2656 339.042 66.2656C337.751 66.2656 336.512 66.7787 335.598 67.6921C334.685 68.6055 334.172 69.8443 334.172 71.136Z" stroke="#605070" stroke-width="1.5" stroke-linecap="round" stroke-linejoin="round"/>
</svg>
