<svg width="480" height="200" viewBox="0 0 480 200" fill="none" xmlns="http://www.w3.org/2000/svg">
<mask id="path-1-inside-1_641_376" fill="white">
<path fill-rule="evenodd" clip-rule="evenodd" d="M32 0C14.3269 0 0 14.3269 0 32V108C0 125.673 14.3269 140 32 140H399.212L448.951 187.705C452.564 191.17 458.462 187.765 457.267 182.904L446.726 140H448C465.673 140 480 125.673 480 108V32C480 14.3269 465.673 0 448 0H32Z"/>
</mask>
<path fill-rule="evenodd" clip-rule="evenodd" d="M32 0C14.3269 0 0 14.3269 0 32V108C0 125.673 14.3269 140 32 140H399.212L448.951 187.705C452.564 191.17 458.462 187.765 457.267 182.904L446.726 140H448C465.673 140 480 125.673 480 108V32C480 14.3269 465.673 0 448 0H32Z" fill="#F6EEFF"/>
<path d="M399.212 140L403.365 135.67L401.624 134H399.212V140ZM448.951 187.705L453.104 183.375L453.104 183.375L448.951 187.705ZM457.267 182.904L451.441 184.335L451.441 184.335L457.267 182.904ZM446.726 140V134H439.073L440.899 141.432L446.726 140ZM6 32C6 17.6406 17.6406 6 32 6V-6C11.0132 -6 -6 11.0132 -6 32H6ZM6 108V32H-6V108H6ZM32 134C17.6406 134 6 122.359 6 108H-6C-6 128.987 11.0132 146 32 146V134ZM399.212 134H32V146H399.212V134ZM395.058 144.33L444.798 192.036L453.104 183.375L403.365 135.67L395.058 144.33ZM444.798 192.036C452.746 199.659 465.722 192.167 463.094 181.472L451.441 184.335C451.413 184.221 451.406 183.948 451.54 183.661C451.651 183.421 451.802 183.294 451.912 183.231C452.022 183.167 452.207 183.101 452.47 183.124C452.786 183.152 453.019 183.294 453.104 183.375L444.798 192.036ZM463.094 181.472L452.553 138.568L440.899 141.432L451.441 184.335L463.094 181.472ZM448 134H446.726V146H448V134ZM474 108C474 122.359 462.359 134 448 134V146C468.987 146 486 128.987 486 108H474ZM474 32V108H486V32H474ZM448 6C462.359 6 474 17.6406 474 32H486C486 11.0132 468.987 -6 448 -6V6ZM32 6H448V-6H32V6Z" fill="#605070" mask="url(#path-1-inside-1_641_376)"/>
<rect x="30" y="30" width="80" height="80" rx="15" fill="#605070"/>
<path d="M51.4712 63.3915H88.53M51.4712 76.6268H88.53M68.8978 50.1562C65.1817 56.1113 63.2115 62.9898 63.2115 70.0092C63.2115 77.0286 65.1817 83.9071 68.8978 89.8621M71.1033 50.1562C74.8195 56.1113 76.7897 62.9898 76.7897 70.0092C76.7897 77.0286 74.8195 83.9071 71.1033 89.8621M50.1475 70.0092C50.1475 72.6163 50.661 75.1979 51.6587 77.6066C52.6564 80.0153 54.1187 82.2038 55.9623 84.0473C57.8058 85.8909 59.9943 87.3532 62.403 88.3509C64.8117 89.3486 67.3933 89.8621 70.0004 89.8621C72.6075 89.8621 75.1891 89.3486 77.5978 88.3509C80.0065 87.3532 82.195 85.8909 84.0386 84.0473C85.8821 82.2038 87.3444 80.0153 88.3421 77.6066C89.3398 75.1979 89.8533 72.6163 89.8533 70.0092C89.8533 64.7439 87.7617 59.6942 84.0386 55.971C80.3154 52.2479 75.2657 50.1562 70.0004 50.1562C64.7351 50.1562 59.6854 52.2479 55.9623 55.971C52.2391 59.6942 50.1475 64.7439 50.1475 70.0092Z" stroke="white" stroke-width="3.6" stroke-linecap="round" stroke-linejoin="round"/>
<path d="M138.391 32.9375V50H134.676V32.9375H138.391ZM142.574 32.9375V35.9609H130.586V32.9375H142.574ZM144.449 32.9375H150.109C151.25 32.9375 152.23 33.1328 153.051 33.5234C153.871 33.9141 154.5 34.4922 154.938 35.2578C155.383 36.0234 155.605 36.9688 155.605 38.0938C155.605 39.0469 155.48 39.8516 155.23 40.5078C154.98 41.1562 154.629 41.6953 154.176 42.125C153.723 42.5547 153.188 42.9023 152.57 43.168L151.387 43.8594H146.875L146.863 40.8477H150.016C150.438 40.8477 150.785 40.75 151.059 40.5547C151.332 40.3594 151.535 40.082 151.668 39.7227C151.809 39.3555 151.879 38.9219 151.879 38.4219C151.879 37.9062 151.812 37.4648 151.68 37.0977C151.555 36.7305 151.363 36.4492 151.105 36.2539C150.855 36.0586 150.523 35.9609 150.109 35.9609H148.176V50H144.449V32.9375ZM152.113 50L149.031 42.418L152.945 42.4062L156.098 49.8242V50H152.113ZM164.207 36.2539L160.785 50H156.812L162.121 32.9375H164.594L164.207 36.2539ZM166.902 50L163.469 36.2539L163.023 32.9375H165.543L170.875 50H166.902ZM167.031 43.6367V46.6484H159.473V43.6367H167.031ZM184.434 32.9375V50H180.789L175.961 39.3828V50H172.328V32.9375H175.973L180.812 43.6133V32.9375H184.434ZM194.172 45.4883C194.172 45.1992 194.145 44.9414 194.09 44.7148C194.035 44.4805 193.93 44.2656 193.773 44.0703C193.617 43.8672 193.383 43.6641 193.07 43.4609C192.758 43.2578 192.348 43.0469 191.84 42.8281C191.215 42.5703 190.605 42.2891 190.012 41.9844C189.426 41.6719 188.898 41.3125 188.43 40.9062C187.961 40.4922 187.586 40.0078 187.305 39.4531C187.023 38.8906 186.883 38.2344 186.883 37.4844C186.883 36.7578 187.02 36.1016 187.293 35.5156C187.566 34.9219 187.949 34.418 188.441 34.0039C188.934 33.582 189.516 33.2617 190.188 33.043C190.859 32.8164 191.598 32.7031 192.402 32.7031C193.488 32.7031 194.438 32.9258 195.25 33.3711C196.062 33.8086 196.695 34.4258 197.148 35.2227C197.602 36.0117 197.828 36.9336 197.828 37.9883H194.125C194.125 37.5273 194.062 37.125 193.938 36.7812C193.812 36.4297 193.617 36.1562 193.352 35.9609C193.094 35.7578 192.754 35.6562 192.332 35.6562C191.941 35.6562 191.617 35.7383 191.359 35.9023C191.102 36.0664 190.91 36.2891 190.785 36.5703C190.66 36.8516 190.598 37.1641 190.598 37.5078C190.598 37.7812 190.66 38.0234 190.785 38.2344C190.918 38.4453 191.094 38.6406 191.312 38.8203C191.539 39 191.805 39.1719 192.109 39.3359C192.422 39.5 192.758 39.6562 193.117 39.8047C193.883 40.1094 194.562 40.4414 195.156 40.8008C195.758 41.1602 196.258 41.5664 196.656 42.0195C197.062 42.4648 197.367 42.9727 197.57 43.543C197.781 44.1055 197.887 44.7461 197.887 45.4648C197.887 46.1992 197.762 46.8633 197.512 47.457C197.262 48.043 196.902 48.543 196.434 48.957C195.973 49.3711 195.41 49.6875 194.746 49.9062C194.082 50.125 193.34 50.2344 192.52 50.2344C191.746 50.2344 191 50.125 190.281 49.9062C189.562 49.6797 188.922 49.3359 188.359 48.875C187.805 48.4141 187.363 47.8242 187.035 47.1055C186.707 46.3867 186.543 45.5312 186.543 44.5391H190.27C190.27 45.0469 190.312 45.4805 190.398 45.8398C190.492 46.1914 190.633 46.4727 190.82 46.6836C191.016 46.8945 191.254 47.0508 191.535 47.1523C191.824 47.2461 192.168 47.293 192.566 47.293C192.973 47.293 193.293 47.2109 193.527 47.0469C193.762 46.8828 193.926 46.668 194.02 46.4023C194.121 46.1289 194.172 45.8242 194.172 45.4883ZM209.688 46.9883V50H202.551V46.9883H209.688ZM203.781 32.9375V50H200.055V32.9375H203.781ZM218.09 36.2539L214.668 50H210.695L216.004 32.9375H218.477L218.09 36.2539ZM220.785 50L217.352 36.2539L216.906 32.9375H219.426L224.758 50H220.785ZM220.914 43.6367V46.6484H213.355V43.6367H220.914ZM231.93 32.9375V50H228.215V32.9375H231.93ZM236.113 32.9375V35.9609H224.125V32.9375H236.113ZM241.867 32.9375V50H238.152V32.9375H241.867ZM256.785 40.168V42.8867C256.785 44.0977 256.637 45.1641 256.34 46.0859C256.043 47 255.617 47.7656 255.062 48.3828C254.516 49 253.859 49.4648 253.094 49.7773C252.336 50.082 251.496 50.2344 250.574 50.2344C249.645 50.2344 248.797 50.082 248.031 49.7773C247.266 49.4648 246.605 49 246.051 48.3828C245.496 47.7656 245.066 47 244.762 46.0859C244.465 45.1641 244.316 44.0977 244.316 42.8867V40.168C244.316 38.9414 244.465 37.8633 244.762 36.9336C245.066 35.9961 245.492 35.2188 246.039 34.6016C246.594 33.9766 247.25 33.5039 248.008 33.1836C248.773 32.8633 249.621 32.7031 250.551 32.7031C251.48 32.7031 252.324 32.8633 253.082 33.1836C253.848 33.5039 254.504 33.9766 255.051 34.6016C255.605 35.2188 256.031 35.9961 256.328 36.9336C256.633 37.8633 256.785 38.9414 256.785 40.168ZM253.047 42.8867V40.1445C253.047 39.3555 252.992 38.6836 252.883 38.1289C252.781 37.5742 252.625 37.1211 252.414 36.7695C252.203 36.418 251.941 36.1602 251.629 35.9961C251.324 35.832 250.965 35.75 250.551 35.75C250.129 35.75 249.762 35.832 249.449 35.9961C249.137 36.1602 248.875 36.418 248.664 36.7695C248.461 37.1211 248.309 37.5742 248.207 38.1289C248.113 38.6836 248.066 39.3555 248.066 40.1445V42.8867C248.066 43.6523 248.117 44.3086 248.219 44.8555C248.32 45.4023 248.477 45.8477 248.688 46.1914C248.898 46.5352 249.16 46.7891 249.473 46.9531C249.785 47.1172 250.152 47.1992 250.574 47.1992C250.98 47.1992 251.336 47.1172 251.641 46.9531C251.953 46.7891 252.211 46.5352 252.414 46.1914C252.625 45.8477 252.781 45.4023 252.883 44.8555C252.992 44.3086 253.047 43.6523 253.047 42.8867ZM271.176 32.9375V50H267.531L262.703 39.3828V50H259.07V32.9375H262.715L267.555 43.6133V32.9375H271.176Z" fill="#605070"/>
<path d="M131.17 64.246H146.902V65.56H131.17V64.246ZM135.634 75.136H144.706V76.45H135.634V75.136ZM134.824 69.052H145.588V77.368H144.184V70.366H136.174V77.458H134.824V69.052ZM137.416 60.88L138.82 61.15C138.532 62.374 138.178 63.586 137.758 64.786C137.35 65.986 136.852 67.144 136.264 68.26C135.676 69.376 134.986 70.414 134.194 71.374C133.414 72.322 132.508 73.162 131.476 73.894C131.404 73.786 131.314 73.666 131.206 73.534C131.098 73.402 130.99 73.276 130.882 73.156C130.774 73.024 130.666 72.91 130.558 72.814C131.542 72.142 132.406 71.362 133.15 70.474C133.894 69.574 134.542 68.602 135.094 67.558C135.646 66.502 136.108 65.41 136.48 64.282C136.864 63.154 137.176 62.02 137.416 60.88ZM156.46 66.712H163.858V68.062H156.46V66.712ZM148.918 75.226H165.1V76.576H148.918V75.226ZM155.686 61.15H157.108V75.946H155.686V61.15ZM175.967 74.6816C178.445 74.4004 180.238 72.291 180.238 69.5664C180.238 66.833 178.322 64.9873 175.475 64.7852C174.552 72.291 173.066 75.7012 170.641 75.7012C168.619 75.7012 167.055 73.3984 167.055 70.5156C167.055 66.332 170.377 63.2734 174.947 63.2734C178.99 63.2734 181.838 65.6992 181.838 69.5664C181.838 73.0645 179.588 75.7715 176.406 76.1406L175.967 74.6816ZM168.566 70.5156C168.566 72.3262 169.533 74.0664 170.553 74.0664C171.933 74.0664 173.163 70.6562 173.857 64.8379C170.825 65.3037 168.566 67.6328 168.566 70.5156ZM184.756 69.6367V61.1992H188.869V62.8164H186.549V69.6367H184.756ZM202.545 67.3691C201.209 67.3691 200.119 66.2617 200.119 64.9258C200.119 63.5898 201.209 62.5 202.545 62.5C203.881 62.5 204.971 63.5898 204.971 64.9258C204.971 66.2617 203.881 67.3691 202.545 67.3691ZM202.545 66.1035C203.178 66.1035 203.74 65.5762 203.74 64.9258C203.74 64.293 203.178 63.748 202.545 63.748C201.912 63.748 201.367 64.293 201.367 64.9258C201.367 65.5762 201.912 66.1035 202.545 66.1035ZM204.461 75.5254C202.053 73.0117 200.225 71.0781 198.361 68.9688C197.025 67.4746 196.656 67.1582 196.199 67.1582C195.742 67.1582 195.443 67.5098 194.23 69.2676C193.422 70.4277 192.49 71.7637 191.137 73.5742L189.871 72.502C191.225 70.709 192.244 69.3027 193.105 68.125C194.617 65.9453 195.109 65.4883 196.199 65.4883C197.254 65.4883 197.729 65.8223 199.434 67.7207C201.561 70.041 203.494 72.0801 205.621 74.2422L204.461 75.5254ZM208.082 70.4453V68.8281H221.16V70.4453H208.082ZM225.238 74.7344C232.27 74.5586 235.873 71.7988 236.857 65.8047L238.457 66.0508C237.332 72.8184 233.219 76.0703 225.467 76.3164L225.238 74.7344ZM230.283 69.584C228.156 69.0918 226.469 68.7754 224.553 68.5293L224.869 67.0879C226.82 67.334 228.525 67.6328 230.617 68.1426L230.283 69.584ZM231.268 65.541C229.105 65.0488 227.33 64.7324 225.309 64.4863L225.625 63.0449C227.664 63.291 229.457 63.5898 231.602 64.0996L231.268 65.541ZM236.137 65.2422C235.539 63.9941 234.994 63.0977 234.291 62.2012L235.381 61.498C236.137 62.4648 236.699 63.4492 237.279 64.6445L236.137 65.2422ZM238.703 64.9961C238.141 63.748 237.631 62.8164 236.998 61.8848L238.105 61.2695C238.791 62.2715 239.318 63.2559 239.846 64.4863L238.703 64.9961ZM249.812 73.293C249.812 72.0449 249.742 71.043 249.602 70.252C247.123 71.3154 245.646 72.5195 245.646 73.5918C245.646 74.6465 247.035 75.2441 249.531 75.2441C250.938 75.2441 252.695 75.0508 254.576 74.6992L254.805 76.1055C253.135 76.4043 251.008 76.6152 249.514 76.6152C246.051 76.6152 243.994 75.5605 243.994 73.7324C243.994 72.0098 245.901 70.2871 249.162 68.916C248.731 68.1162 248.081 67.7734 247.158 67.7734C245.471 67.7734 244.152 68.8984 242.289 71.9395L240.936 71.1484C242.412 68.8193 243.44 67.0352 244.311 65.084H240.953V63.748H244.855C245.075 63.1768 245.295 62.5791 245.506 61.9375L247.141 62.2188C246.956 62.7461 246.763 63.2559 246.578 63.748H254.348V65.084H246.016C245.699 65.8047 245.356 66.499 244.996 67.1934C245.822 66.7363 246.719 66.5078 247.615 66.5078C249.074 66.5078 250.067 67.0703 250.674 68.3184C251.887 67.9053 253.231 67.5273 254.699 67.2109L254.928 68.5645C253.539 68.8809 252.256 69.25 251.131 69.6543C251.342 70.6123 251.447 71.8252 251.447 73.293H249.812ZM257.691 65.2H265.503V66.262H257.691V65.2ZM258.933 72.778H264.531V73.75H258.933V72.778ZM258.933 75.316H264.495V76.396H258.933V75.316ZM261.291 62.194H262.443V69.916H261.291V62.194ZM261.363 70.852H262.353V75.892H261.363V70.852ZM264.693 61.006L265.431 61.942C264.795 62.086 264.057 62.218 263.217 62.338C262.389 62.458 261.531 62.56 260.643 62.644C259.767 62.716 258.927 62.77 258.123 62.806C258.099 62.662 258.057 62.506 257.997 62.338C257.937 62.158 257.871 62.002 257.799 61.87C258.591 61.81 259.413 61.738 260.265 61.654C261.129 61.57 261.945 61.474 262.713 61.366C263.493 61.258 264.153 61.138 264.693 61.006ZM262.317 66.064C262.473 66.16 262.713 66.322 263.037 66.55C263.373 66.766 263.727 67.006 264.099 67.27C264.471 67.534 264.813 67.78 265.125 68.008C265.437 68.236 265.653 68.404 265.773 68.512L265.089 69.574C264.933 69.406 264.705 69.19 264.405 68.926C264.117 68.65 263.799 68.368 263.451 68.08C263.103 67.78 262.773 67.504 262.461 67.252C262.161 67 261.909 66.808 261.705 66.676L262.317 66.064ZM258.609 63.22L259.527 62.986C259.671 63.286 259.815 63.622 259.959 63.994C260.103 64.354 260.211 64.654 260.283 64.894L259.329 65.2C259.257 64.948 259.149 64.636 259.005 64.264C258.873 63.88 258.741 63.532 258.609 63.22ZM264.045 62.734L265.089 63.076C264.885 63.532 264.675 63.994 264.459 64.462C264.243 64.918 264.039 65.314 263.847 65.65L262.965 65.344C263.097 65.104 263.229 64.834 263.361 64.534C263.493 64.222 263.619 63.91 263.739 63.598C263.871 63.274 263.973 62.986 264.045 62.734ZM261.147 65.776L261.957 66.226C261.657 66.754 261.291 67.294 260.859 67.846C260.427 68.398 259.965 68.914 259.473 69.394C258.981 69.874 258.501 70.27 258.033 70.582C257.973 70.414 257.889 70.216 257.781 69.988C257.673 69.748 257.565 69.556 257.457 69.412C257.889 69.148 258.339 68.818 258.807 68.422C259.275 68.026 259.713 67.6 260.121 67.144C260.541 66.676 260.883 66.22 261.147 65.776ZM258.321 70.24H265.269V77.206H264.171V71.302H259.383V77.422H258.321V70.24ZM266.025 61.726H269.121V62.878H266.025V61.726ZM268.455 61.726H269.571V75.892C269.571 76.216 269.529 76.474 269.445 76.666C269.373 76.87 269.235 77.026 269.031 77.134C268.827 77.23 268.557 77.29 268.221 77.314C267.897 77.338 267.489 77.35 266.997 77.35C266.985 77.194 266.943 76.996 266.871 76.756C266.799 76.528 266.721 76.336 266.637 76.18C266.985 76.192 267.303 76.198 267.591 76.198C267.879 76.198 268.077 76.192 268.185 76.18C268.281 76.18 268.347 76.162 268.383 76.126C268.431 76.09 268.455 76.012 268.455 75.892V61.726ZM270.003 61.744H272.847V62.896H270.003V61.744ZM272.415 61.744H273.585V75.874C273.585 76.222 273.543 76.492 273.459 76.684C273.375 76.888 273.225 77.044 273.009 77.152C272.793 77.248 272.517 77.308 272.181 77.332C271.845 77.368 271.431 77.386 270.939 77.386C270.915 77.218 270.861 77.008 270.777 76.756C270.693 76.516 270.609 76.318 270.525 76.162C270.885 76.174 271.215 76.18 271.515 76.18C271.827 76.18 272.031 76.18 272.127 76.18C272.235 76.18 272.307 76.156 272.343 76.108C272.391 76.06 272.415 75.976 272.415 75.856V61.744ZM265.989 64.93L266.889 64.66C267.057 65.032 267.225 65.44 267.393 65.884C267.561 66.316 267.711 66.736 267.843 67.144C267.975 67.54 268.071 67.888 268.131 68.188L267.177 68.53C267.117 68.23 267.021 67.87 266.889 67.45C266.769 67.03 266.631 66.598 266.475 66.154C266.319 65.71 266.157 65.302 265.989 64.93ZM270.021 64.876L270.921 64.66C271.101 65.032 271.269 65.434 271.425 65.866C271.593 66.286 271.743 66.694 271.875 67.09C272.007 67.486 272.103 67.834 272.163 68.134L271.191 68.422C271.131 68.122 271.041 67.768 270.921 67.36C270.801 66.952 270.657 66.532 270.489 66.1C270.333 65.656 270.177 65.248 270.021 64.876ZM269.805 72.22C270.177 71.86 270.621 71.404 271.137 70.852C271.653 70.3 272.181 69.724 272.721 69.124L273.279 70.024C272.811 70.552 272.331 71.086 271.839 71.626C271.359 72.166 270.897 72.676 270.453 73.156L269.805 72.22ZM265.683 72.418C266.055 72.022 266.523 71.524 267.087 70.924C267.663 70.312 268.239 69.682 268.815 69.034L269.355 69.934C268.863 70.522 268.347 71.116 267.807 71.716C267.279 72.316 266.781 72.862 266.313 73.354L265.683 72.418ZM284.115 61.69H291.333V68.872H284.115V67.612H289.983V62.968H284.115V61.69ZM283.395 61.69H284.709V68.242C284.709 68.95 284.679 69.712 284.619 70.528C284.571 71.332 284.463 72.148 284.295 72.976C284.139 73.804 283.905 74.602 283.593 75.37C283.293 76.138 282.885 76.834 282.369 77.458C282.297 77.374 282.195 77.272 282.063 77.152C281.943 77.032 281.811 76.918 281.667 76.81C281.535 76.714 281.421 76.636 281.325 76.576C281.805 75.988 282.183 75.352 282.459 74.668C282.735 73.972 282.939 73.258 283.071 72.526C283.203 71.782 283.287 71.044 283.323 70.312C283.371 69.58 283.395 68.89 283.395 68.242V61.69ZM288.255 68.314C288.423 69.514 288.657 70.588 288.957 71.536C289.257 72.484 289.671 73.348 290.199 74.128C290.739 74.896 291.435 75.628 292.287 76.324C292.119 76.468 291.945 76.642 291.765 76.846C291.597 77.062 291.465 77.272 291.369 77.476C290.409 76.672 289.641 75.826 289.065 74.938C288.489 74.05 288.039 73.078 287.715 72.022C287.403 70.966 287.157 69.784 286.977 68.476L288.255 68.314ZM276.339 66.334H281.613V67.396H276.339V66.334ZM276.411 61.51H281.541V62.59H276.411V61.51ZM276.339 68.728H281.613V69.808H276.339V68.728ZM275.493 63.868H282.207V65.002H275.493V63.868ZM276.951 71.158H281.631V76.414H276.951V75.298H280.443V72.292H276.951V71.158ZM276.321 71.158H277.509V77.242H276.321V71.158ZM297.361 69.6367V78.0742H293.248V76.457H295.568V69.6367H297.361ZM336.771 75.1387C340.34 74.2773 341.588 72.5371 341.588 68.2656V65.9277H343.223V68.2656C343.223 73.1348 341.482 75.6133 337.475 76.5098L336.771 75.1387ZM336.068 64.8906V63.4492H350.131V64.8906C349.516 67.8789 347.652 70.1113 344.822 71.1836L343.943 69.8301C346.448 68.8281 347.881 67.2373 348.355 64.8906H336.068ZM352.486 69.1797C357.162 68.5117 362.875 65.5586 365.775 62.2539L366.9 63.3613C365.547 64.8818 363.622 66.3408 361.469 67.5625V76.8789H359.711V68.4766C357.408 69.5928 354.965 70.3926 352.732 70.709L352.486 69.1797ZM381.262 76.5098V75.332H369.941V73.8555H381.262V64.8906H369.941V63.4141H382.967V76.5098H381.262ZM387.502 74.6113C394.27 73.9785 397.943 70.9023 399.139 64.9609L400.686 65.2949C399.49 71.9395 395.201 75.5605 387.766 76.2109L387.502 74.6113ZM392.494 67.3516C390.684 66.209 388.855 65.2598 386.992 64.5039L387.748 63.0449C389.664 63.8008 391.475 64.75 393.32 65.9102L392.494 67.3516ZM411.777 73.293C411.777 72.0449 411.707 71.043 411.566 70.252C409.088 71.3154 407.611 72.5195 407.611 73.5918C407.611 74.6465 409 75.2441 411.496 75.2441C412.902 75.2441 414.66 75.0508 416.541 74.6992L416.77 76.1055C415.1 76.4043 412.973 76.6152 411.479 76.6152C408.016 76.6152 405.959 75.5605 405.959 73.7324C405.959 72.0098 407.866 70.2871 411.127 68.916C410.696 68.1162 410.046 67.7734 409.123 67.7734C407.436 67.7734 406.117 68.8984 404.254 71.9395L402.9 71.1484C404.377 68.8193 405.405 67.0352 406.275 65.084H402.918V63.748H406.82C407.04 63.1768 407.26 62.5791 407.471 61.9375L409.105 62.2188C408.921 62.7461 408.728 63.2559 408.543 63.748H416.312V65.084H407.98C407.664 65.8047 407.321 66.499 406.961 67.1934C407.787 66.7363 408.684 66.5078 409.58 66.5078C411.039 66.5078 412.032 67.0703 412.639 68.3184C413.852 67.9053 415.196 67.5273 416.664 67.2109L416.893 68.5645C415.504 68.8809 414.221 69.25 413.096 69.6543C413.307 70.6123 413.412 71.8252 413.412 73.293H411.777ZM132.918 96.8574C138.798 96.2861 142.99 92.5156 143.395 87.5762H136.381C135.221 89.2988 133.656 90.8633 131.775 92.1816L130.703 91.0391C133.252 89.2109 135.396 86.5742 136.363 84.0078L138.016 84.3066C137.805 84.9131 137.55 85.5107 137.26 86.0996H145.117V86.7852C145.117 92.9727 140.318 97.7012 133.393 98.3516L132.918 96.8574ZM150.549 96.8926C157.07 96.7168 159.303 94.9238 159.303 89.8965V84.7285H161.061V89.8613C161.061 95.873 158.16 98.2812 150.725 98.4395L150.549 96.8926ZM149.67 92.4629V84.7285H151.428V92.4629H149.67ZM168.285 96.6816C174.244 96.0488 176.266 93.8164 176.318 87.9102L177.865 87.9629C177.812 94.6426 175.246 97.4902 168.549 98.1582L168.285 96.6816ZM167.793 93.2012C167.424 91.5488 167.002 89.9668 166.527 88.6133L168.021 88.2266C168.461 89.5098 168.883 91.0742 169.27 92.8848L167.793 93.2012ZM171.643 92.9199C171.309 91.2324 170.887 89.5625 170.377 88.1387L171.871 87.7695C172.346 89.2637 172.803 90.9512 173.137 92.6035L171.643 92.9199ZM183.543 96.8574C189.423 96.2861 193.615 92.5156 194.02 87.5762H187.006C185.846 89.2988 184.281 90.8633 182.4 92.1816L181.328 91.0391C183.877 89.2109 186.021 86.5742 186.988 84.0078L188.641 84.3066C188.43 84.9131 188.175 85.5107 187.885 86.0996H195.742V86.7852C195.742 92.9727 190.943 97.7012 184.018 98.3516L183.543 96.8574ZM201.947 97.2266C204.575 97.0771 206.623 95.9082 207.186 94.291C206.553 94.7568 205.674 95.0469 204.707 95.0469C202.58 95.0469 201.191 93.7109 201.191 91.6543C201.191 89.5801 202.668 88.2441 204.883 88.2441C205.683 88.2441 206.359 88.4287 206.939 88.7891V87.3301H198.52V85.9941H206.939V83.9023H208.609V85.9941H213.355V87.3301H208.609V90.916C208.855 91.4609 208.961 92.041 208.961 92.7441C208.961 96.1719 206.377 98.4746 202.193 98.6855L201.947 97.2266ZM204.971 93.7109C206.166 93.7109 207.168 93.0254 207.168 91.6543C207.168 90.3887 206.324 89.5801 205.023 89.5801C203.705 89.5801 202.861 90.3711 202.861 91.6543C202.861 92.8848 203.688 93.7109 204.971 93.7109ZM222.391 98.668C219.104 98.668 217.223 97.6133 217.223 95.6973C217.223 94.0977 218.646 93.1309 221.02 93.1309C223.27 93.1309 224.43 93.9746 224.43 95.627C224.43 96.1279 224.333 96.6641 224.113 97.2617C226.618 96.9189 227.857 95.7939 227.857 93.9043C227.857 91.9004 226.434 90.9688 223.375 90.9688C221.705 90.9688 220.281 91.3027 219.086 92.0234L216.801 93.377L216.133 92.1289L225.572 86.6621H217.1V85.2383H228.455V86.6621L222.971 89.7734C223.428 89.7295 223.85 89.7031 224.219 89.7031C227.611 89.7031 229.545 91.1797 229.545 93.8164C229.545 96.9453 226.979 98.668 222.391 98.668ZM218.805 95.6797C218.805 96.7695 220.053 97.3848 222.215 97.3848H222.496C222.795 96.6729 222.918 96.1895 222.918 95.7852C222.918 94.8711 222.25 94.3965 220.896 94.3965C219.561 94.3965 218.805 94.8711 218.805 95.6797ZM239.705 98.5273C235.539 98.5273 233.359 97.2266 233.359 94.7656C233.359 93.0781 234.344 91.6543 236.488 90.3711C235.926 88.4023 235.53 86.5303 235.275 84.5879L236.963 84.3594C237.2 86.1436 237.543 87.8486 238.035 89.5625C239.74 88.7803 241.973 88.0332 244.75 87.3125L245.154 88.7891C238.141 90.6348 235.064 92.4277 235.064 94.6426C235.064 96.2246 236.629 97.0332 239.793 97.0332C241.305 97.0332 242.992 96.8398 245.365 96.4531L245.576 97.9297C243.502 98.2988 241.463 98.5273 239.705 98.5273ZM252.801 98.9844C251.746 97.6133 250.604 96.418 249.197 95.3984L250.322 94.2559C251.711 95.3281 252.977 96.5938 254.049 98.0176L252.801 98.9844ZM278.236 89.3691C276.9 89.3691 275.811 88.2617 275.811 86.9258C275.811 85.5898 276.9 84.5 278.236 84.5C279.572 84.5 280.662 85.5898 280.662 86.9258C280.662 88.2617 279.572 89.3691 278.236 89.3691ZM278.236 88.1035C278.869 88.1035 279.432 87.5762 279.432 86.9258C279.432 86.293 278.869 85.748 278.236 85.748C277.604 85.748 277.059 86.293 277.059 86.9258C277.059 87.5762 277.604 88.1035 278.236 88.1035ZM280.152 97.5254C277.744 95.0117 275.916 93.0781 274.053 90.9688C272.717 89.4746 272.348 89.1582 271.891 89.1582C271.434 89.1582 271.135 89.5098 269.922 91.2676C269.113 92.4277 268.182 93.7637 266.828 95.5742L265.562 94.502C266.916 92.709 267.936 91.3027 268.797 90.125C270.309 87.9453 270.801 87.4883 271.891 87.4883C272.945 87.4883 273.42 87.8223 275.125 89.7207C277.252 92.041 279.186 94.0801 281.312 96.2422L280.152 97.5254ZM283.773 92.4453V90.8281H296.852V92.4453H283.773ZM300.93 96.7344C307.961 96.5586 311.564 93.7988 312.549 87.8047L314.148 88.0508C313.023 94.8184 308.91 98.0703 301.158 98.3164L300.93 96.7344ZM305.975 91.584C303.848 91.0918 302.16 90.7754 300.244 90.5293L300.561 89.0879C302.512 89.334 304.217 89.6328 306.309 90.1426L305.975 91.584ZM306.959 87.541C304.797 87.0488 303.021 86.7324 301 86.4863L301.316 85.0449C303.355 85.291 305.148 85.5898 307.293 86.0996L306.959 87.541ZM311.828 87.2422C311.23 85.9941 310.686 85.0977 309.982 84.2012L311.072 83.498C311.828 84.4648 312.391 85.4492 312.971 86.6445L311.828 87.2422ZM314.395 86.9961C313.832 85.748 313.322 84.8164 312.689 83.8848L313.797 83.2695C314.482 84.2715 315.01 85.2559 315.537 86.4863L314.395 86.9961ZM324.553 84.194C324.193 84.734 323.743 85.304 323.203 85.904C322.675 86.492 322.087 87.08 321.439 87.668C320.791 88.256 320.101 88.82 319.369 89.36C318.649 89.9 317.911 90.392 317.155 90.836C317.059 90.68 316.927 90.5 316.759 90.296C316.603 90.08 316.447 89.906 316.291 89.774C317.335 89.198 318.337 88.52 319.297 87.74C320.269 86.96 321.145 86.144 321.925 85.292C322.705 84.44 323.329 83.624 323.797 82.844H325.165C325.633 83.516 326.173 84.176 326.785 84.824C327.397 85.472 328.051 86.09 328.747 86.678C329.443 87.266 330.151 87.806 330.871 88.298C331.603 88.79 332.317 89.21 333.013 89.558C332.845 89.726 332.683 89.918 332.527 90.134C332.371 90.338 332.233 90.542 332.113 90.746C331.429 90.338 330.721 89.876 329.989 89.36C329.269 88.844 328.573 88.298 327.901 87.722C327.229 87.134 326.605 86.54 326.029 85.94C325.453 85.34 324.961 84.758 324.553 84.194ZM318.469 93.536H330.745V94.742H318.469V93.536ZM319.279 89.522H330.061V90.728H319.279V89.522ZM316.993 97.712H332.347V98.936H316.993V97.712ZM323.869 90.026H325.273V98.396H323.869V90.026ZM338.143 82.952L339.403 83.312C339.067 84.332 338.665 85.34 338.197 86.336C337.729 87.32 337.219 88.25 336.667 89.126C336.127 90.002 335.557 90.782 334.957 91.466C334.921 91.358 334.855 91.22 334.759 91.052C334.663 90.884 334.561 90.716 334.453 90.548C334.357 90.368 334.261 90.23 334.165 90.134C334.705 89.546 335.221 88.868 335.713 88.1C336.205 87.32 336.655 86.492 337.063 85.616C337.483 84.74 337.843 83.852 338.143 82.952ZM336.505 87.578L337.765 86.3L337.801 86.318V99.404H336.505V87.578ZM344.083 82.934H345.397V99.332H344.083V82.934ZM338.989 86.516H350.797V87.812H338.989V86.516ZM341.113 94.85H348.295V96.092H341.113V94.85ZM346.045 87.182C346.393 88.25 346.831 89.312 347.359 90.368C347.887 91.412 348.475 92.378 349.123 93.266C349.771 94.142 350.443 94.862 351.139 95.426C350.983 95.546 350.803 95.708 350.599 95.912C350.407 96.116 350.245 96.308 350.113 96.488C349.417 95.84 348.745 95.042 348.097 94.094C347.461 93.134 346.879 92.09 346.351 90.962C345.823 89.822 345.379 88.664 345.019 87.488L346.045 87.182ZM343.507 87.11L344.515 87.398C344.143 88.61 343.681 89.792 343.129 90.944C342.589 92.084 341.989 93.14 341.329 94.112C340.669 95.072 339.979 95.882 339.259 96.542C339.187 96.434 339.091 96.314 338.971 96.182C338.863 96.05 338.749 95.924 338.629 95.804C338.509 95.684 338.395 95.588 338.287 95.516C338.995 94.952 339.679 94.22 340.339 93.32C340.999 92.42 341.605 91.436 342.157 90.368C342.709 89.288 343.159 88.202 343.507 87.11ZM361.504 95.293C361.504 94.0449 361.434 93.043 361.293 92.252C358.814 93.3154 357.338 94.5195 357.338 95.5918C357.338 96.6465 358.727 97.2441 361.223 97.2441C362.629 97.2441 364.387 97.0508 366.268 96.6992L366.496 98.1055C364.826 98.4043 362.699 98.6152 361.205 98.6152C357.742 98.6152 355.686 97.5605 355.686 95.7324C355.686 94.0098 357.593 92.2871 360.854 90.916C360.423 90.1162 359.772 89.7734 358.85 89.7734C357.162 89.7734 355.844 90.8984 353.98 93.9395L352.627 93.1484C354.104 90.8193 355.132 89.0352 356.002 87.084H352.645V85.748H356.547C356.767 85.1768 356.986 84.5791 357.197 83.9375L358.832 84.2188C358.647 84.7461 358.454 85.2559 358.27 85.748H366.039V87.084H357.707C357.391 87.8047 357.048 88.499 356.688 89.1934C357.514 88.7363 358.41 88.5078 359.307 88.5078C360.766 88.5078 361.759 89.0703 362.365 90.3184C363.578 89.9053 364.923 89.5273 366.391 89.2109L366.619 90.5645C365.23 90.8809 363.947 91.25 362.822 91.6543C363.033 92.6123 363.139 93.8252 363.139 95.293H361.504ZM371.128 87.398H376.402V88.604H371.128V87.398ZM370.462 83.852H371.758V97.28L370.462 97.55V83.852ZM369.202 97.136C369.766 96.992 370.414 96.824 371.146 96.632C371.89 96.428 372.676 96.212 373.504 95.984C374.344 95.744 375.184 95.504 376.024 95.264L376.186 96.542C375.43 96.782 374.662 97.022 373.882 97.262C373.102 97.49 372.352 97.712 371.632 97.928C370.912 98.144 370.252 98.342 369.652 98.522L369.202 97.136ZM373.756 93.482L374.854 92.942C375.262 93.458 375.664 94.016 376.06 94.616C376.456 95.204 376.81 95.786 377.122 96.362C377.446 96.938 377.686 97.454 377.842 97.91L376.654 98.522C376.498 98.066 376.264 97.55 375.952 96.974C375.652 96.386 375.31 95.786 374.926 95.174C374.554 94.562 374.164 93.998 373.756 93.482ZM371.074 83.852H377.176V92.096H371.074V90.836H375.898V85.112H371.074V83.852ZM383.692 83.87H385.078V94.85C385.078 95.234 385.03 95.546 384.934 95.786C384.85 96.026 384.67 96.212 384.394 96.344C384.13 96.464 383.776 96.542 383.332 96.578C382.9 96.614 382.372 96.632 381.748 96.632C381.736 96.488 381.7 96.326 381.64 96.146C381.592 95.966 381.532 95.786 381.46 95.606C381.4 95.426 381.334 95.27 381.262 95.138C381.742 95.162 382.174 95.174 382.558 95.174C382.954 95.174 383.224 95.168 383.368 95.156C383.5 95.156 383.584 95.132 383.62 95.084C383.668 95.036 383.692 94.946 383.692 94.814V83.87ZM378.526 83.87H384.466V85.22H379.894V99.44H378.526V83.87ZM396.076 86.786H397.39V98.36H396.076V86.786ZM391.09 93.896H402.538V95.102H391.09V93.896ZM389.92 97.784H403.654V98.972H389.92V97.784ZM392.836 87.092L394.096 87.2C393.892 88.52 393.544 89.678 393.052 90.674C392.572 91.67 391.93 92.498 391.126 93.158C391.066 93.074 390.97 92.984 390.838 92.888C390.718 92.792 390.592 92.696 390.46 92.6C390.328 92.492 390.214 92.408 390.118 92.348C390.898 91.784 391.504 91.052 391.936 90.152C392.368 89.252 392.668 88.232 392.836 87.092ZM392.386 89.936L393.178 89.162C393.478 89.414 393.796 89.702 394.132 90.026C394.468 90.338 394.78 90.65 395.068 90.962C395.368 91.262 395.608 91.526 395.788 91.754L394.978 92.654C394.798 92.402 394.564 92.12 394.276 91.808C393.988 91.496 393.676 91.172 393.34 90.836C393.016 90.5 392.698 90.2 392.386 89.936ZM400.09 87.092L401.314 87.236C401.11 88.484 400.756 89.588 400.252 90.548C399.748 91.496 399.1 92.288 398.308 92.924C398.248 92.84 398.158 92.75 398.038 92.654C397.918 92.546 397.792 92.438 397.66 92.33C397.54 92.222 397.432 92.144 397.336 92.096C398.092 91.544 398.692 90.848 399.136 90.008C399.592 89.156 399.91 88.184 400.09 87.092ZM399.496 89.9L400.324 89.108C400.708 89.408 401.11 89.744 401.53 90.116C401.95 90.476 402.352 90.83 402.736 91.178C403.12 91.526 403.432 91.838 403.672 92.114L402.826 93.032C402.598 92.756 402.292 92.438 401.908 92.078C401.536 91.706 401.134 91.328 400.702 90.944C400.282 90.56 399.88 90.212 399.496 89.9ZM395.338 82.88H396.724V85.652H395.338V82.88ZM389.236 84.788H403.582V86.048H389.236V84.788ZM388.516 84.788H389.848V89.792C389.848 90.488 389.824 91.25 389.776 92.078C389.74 92.894 389.662 93.734 389.542 94.598C389.434 95.462 389.266 96.308 389.038 97.136C388.81 97.952 388.51 98.702 388.138 99.386C388.054 99.302 387.94 99.212 387.796 99.116C387.664 99.02 387.526 98.924 387.382 98.828C387.238 98.744 387.106 98.678 386.986 98.63C387.346 97.982 387.628 97.286 387.832 96.542C388.036 95.786 388.186 95.012 388.282 94.22C388.378 93.428 388.438 92.654 388.462 91.898C388.498 91.142 388.516 90.44 388.516 89.792V84.788ZM415.645 97.7891C412.551 97.7891 410.389 96.4707 410.389 94.5898C410.389 93.4473 411.18 92.2871 412.691 91.1094L413.852 92.041C412.586 92.9902 412.006 93.7461 412.006 94.4668C412.006 95.5742 413.43 96.2949 415.645 96.2949C416.805 96.2949 418.246 96.1191 419.652 95.8379L419.898 97.2793C418.475 97.5957 416.963 97.7891 415.645 97.7891ZM411.162 87.4531V85.959H419.793V87.4531H411.162ZM407.225 98.5801C406.645 96.2949 406.381 94.1504 406.381 91.6367C406.381 89.1406 406.645 86.9961 407.225 84.6934L408.877 84.9043C408.314 87.1191 408.068 89.2461 408.068 91.6367C408.068 94.0273 408.314 96.1719 408.877 98.334L407.225 98.5801ZM130.882 109.2H138.694V110.262H130.882V109.2ZM132.124 116.778H137.722V117.75H132.124V116.778ZM132.124 119.316H137.686V120.396H132.124V119.316ZM134.482 106.194H135.634V113.916H134.482V106.194ZM134.554 114.852H135.544V119.892H134.554V114.852ZM137.884 105.006L138.622 105.942C137.986 106.086 137.248 106.218 136.408 106.338C135.58 106.458 134.722 106.56 133.834 106.644C132.958 106.716 132.118 106.77 131.314 106.806C131.29 106.662 131.248 106.506 131.188 106.338C131.128 106.158 131.062 106.002 130.99 105.87C131.782 105.81 132.604 105.738 133.456 105.654C134.32 105.57 135.136 105.474 135.904 105.366C136.684 105.258 137.344 105.138 137.884 105.006ZM135.508 110.064C135.664 110.16 135.904 110.322 136.228 110.55C136.564 110.766 136.918 111.006 137.29 111.27C137.662 111.534 138.004 111.78 138.316 112.008C138.628 112.236 138.844 112.404 138.964 112.512L138.28 113.574C138.124 113.406 137.896 113.19 137.596 112.926C137.308 112.65 136.99 112.368 136.642 112.08C136.294 111.78 135.964 111.504 135.652 111.252C135.352 111 135.1 110.808 134.896 110.676L135.508 110.064ZM131.8 107.22L132.718 106.986C132.862 107.286 133.006 107.622 133.15 107.994C133.294 108.354 133.402 108.654 133.474 108.894L132.52 109.2C132.448 108.948 132.34 108.636 132.196 108.264C132.064 107.88 131.932 107.532 131.8 107.22ZM137.236 106.734L138.28 107.076C138.076 107.532 137.866 107.994 137.65 108.462C137.434 108.918 137.23 109.314 137.038 109.65L136.156 109.344C136.288 109.104 136.42 108.834 136.552 108.534C136.684 108.222 136.81 107.91 136.93 107.598C137.062 107.274 137.164 106.986 137.236 106.734ZM134.338 109.776L135.148 110.226C134.848 110.754 134.482 111.294 134.05 111.846C133.618 112.398 133.156 112.914 132.664 113.394C132.172 113.874 131.692 114.27 131.224 114.582C131.164 114.414 131.08 114.216 130.972 113.988C130.864 113.748 130.756 113.556 130.648 113.412C131.08 113.148 131.53 112.818 131.998 112.422C132.466 112.026 132.904 111.6 133.312 111.144C133.732 110.676 134.074 110.22 134.338 109.776ZM131.512 114.24H138.46V121.206H137.362V115.302H132.574V121.422H131.512V114.24ZM139.216 105.726H142.312V106.878H139.216V105.726ZM141.646 105.726H142.762V119.892C142.762 120.216 142.72 120.474 142.636 120.666C142.564 120.87 142.426 121.026 142.222 121.134C142.018 121.23 141.748 121.29 141.412 121.314C141.088 121.338 140.68 121.35 140.188 121.35C140.176 121.194 140.134 120.996 140.062 120.756C139.99 120.528 139.912 120.336 139.828 120.18C140.176 120.192 140.494 120.198 140.782 120.198C141.07 120.198 141.268 120.192 141.376 120.18C141.472 120.18 141.538 120.162 141.574 120.126C141.622 120.09 141.646 120.012 141.646 119.892V105.726ZM143.194 105.744H146.038V106.896H143.194V105.744ZM145.606 105.744H146.776V119.874C146.776 120.222 146.734 120.492 146.65 120.684C146.566 120.888 146.416 121.044 146.2 121.152C145.984 121.248 145.708 121.308 145.372 121.332C145.036 121.368 144.622 121.386 144.13 121.386C144.106 121.218 144.052 121.008 143.968 120.756C143.884 120.516 143.8 120.318 143.716 120.162C144.076 120.174 144.406 120.18 144.706 120.18C145.018 120.18 145.222 120.18 145.318 120.18C145.426 120.18 145.498 120.156 145.534 120.108C145.582 120.06 145.606 119.976 145.606 119.856V105.744ZM139.18 108.93L140.08 108.66C140.248 109.032 140.416 109.44 140.584 109.884C140.752 110.316 140.902 110.736 141.034 111.144C141.166 111.54 141.262 111.888 141.322 112.188L140.368 112.53C140.308 112.23 140.212 111.87 140.08 111.45C139.96 111.03 139.822 110.598 139.666 110.154C139.51 109.71 139.348 109.302 139.18 108.93ZM143.212 108.876L144.112 108.66C144.292 109.032 144.46 109.434 144.616 109.866C144.784 110.286 144.934 110.694 145.066 111.09C145.198 111.486 145.294 111.834 145.354 112.134L144.382 112.422C144.322 112.122 144.232 111.768 144.112 111.36C143.992 110.952 143.848 110.532 143.68 110.1C143.524 109.656 143.368 109.248 143.212 108.876ZM142.996 116.22C143.368 115.86 143.812 115.404 144.328 114.852C144.844 114.3 145.372 113.724 145.912 113.124L146.47 114.024C146.002 114.552 145.522 115.086 145.03 115.626C144.55 116.166 144.088 116.676 143.644 117.156L142.996 116.22ZM138.874 116.418C139.246 116.022 139.714 115.524 140.278 114.924C140.854 114.312 141.43 113.682 142.006 113.034L142.546 113.934C142.054 114.522 141.538 115.116 140.998 115.716C140.47 116.316 139.972 116.862 139.504 117.354L138.874 116.418ZM157.306 105.69H164.524V112.872H157.306V111.612H163.174V106.968H157.306V105.69ZM156.586 105.69H157.9V112.242C157.9 112.95 157.87 113.712 157.81 114.528C157.762 115.332 157.654 116.148 157.486 116.976C157.33 117.804 157.096 118.602 156.784 119.37C156.484 120.138 156.076 120.834 155.56 121.458C155.488 121.374 155.386 121.272 155.254 121.152C155.134 121.032 155.002 120.918 154.858 120.81C154.726 120.714 154.612 120.636 154.516 120.576C154.996 119.988 155.374 119.352 155.65 118.668C155.926 117.972 156.13 117.258 156.262 116.526C156.394 115.782 156.478 115.044 156.514 114.312C156.562 113.58 156.586 112.89 156.586 112.242V105.69ZM161.446 112.314C161.614 113.514 161.848 114.588 162.148 115.536C162.448 116.484 162.862 117.348 163.39 118.128C163.93 118.896 164.626 119.628 165.478 120.324C165.31 120.468 165.136 120.642 164.956 120.846C164.788 121.062 164.656 121.272 164.56 121.476C163.6 120.672 162.832 119.826 162.256 118.938C161.68 118.05 161.23 117.078 160.906 116.022C160.594 114.966 160.348 113.784 160.168 112.476L161.446 112.314ZM149.53 110.334H154.804V111.396H149.53V110.334ZM149.602 105.51H154.732V106.59H149.602V105.51ZM149.53 112.728H154.804V113.808H149.53V112.728ZM148.684 107.868H155.398V109.002H148.684V107.868ZM150.142 115.158H154.822V120.414H150.142V119.298H153.634V116.292H150.142V115.158ZM149.512 115.158H150.7V121.242H149.512V115.158ZM170.447 119.227C173.075 119.077 175.123 117.908 175.686 116.291C175.053 116.757 174.174 117.047 173.207 117.047C171.08 117.047 169.691 115.711 169.691 113.654C169.691 111.58 171.168 110.244 173.383 110.244C174.183 110.244 174.859 110.429 175.439 110.789V109.33H167.02V107.994H175.439V105.902H177.109V107.994H181.855V109.33H177.109V112.916C177.355 113.461 177.461 114.041 177.461 114.744C177.461 118.172 174.877 120.475 170.693 120.686L170.447 119.227ZM173.471 115.711C174.666 115.711 175.668 115.025 175.668 113.654C175.668 112.389 174.824 111.58 173.523 111.58C172.205 111.58 171.361 112.371 171.361 113.654C171.361 114.885 172.188 115.711 173.471 115.711ZM190.891 120.668C187.604 120.668 185.723 119.613 185.723 117.697C185.723 116.098 187.146 115.131 189.52 115.131C191.77 115.131 192.93 115.975 192.93 117.627C192.93 118.128 192.833 118.664 192.613 119.262C195.118 118.919 196.357 117.794 196.357 115.904C196.357 113.9 194.934 112.969 191.875 112.969C190.205 112.969 188.781 113.303 187.586 114.023L185.301 115.377L184.633 114.129L194.072 108.662H185.6V107.238H196.955V108.662L191.471 111.773C191.928 111.729 192.35 111.703 192.719 111.703C196.111 111.703 198.045 113.18 198.045 115.816C198.045 118.945 195.479 120.668 190.891 120.668ZM187.305 117.68C187.305 118.77 188.553 119.385 190.715 119.385H190.996C191.295 118.673 191.418 118.189 191.418 117.785C191.418 116.871 190.75 116.396 189.396 116.396C188.061 116.396 187.305 116.871 187.305 117.68ZM208.363 120.246C204.461 120.246 201.895 118.857 201.895 116.748C201.895 115.588 202.65 114.234 204.232 112.582L205.656 113.32C204.303 114.691 203.6 115.799 203.6 116.59C203.6 117.891 205.498 118.77 208.363 118.77C210.121 118.77 212.494 118.453 213.936 118.014L214.27 119.49C212.846 119.93 210.297 120.246 208.363 120.246ZM202.738 108.979V107.484H213.812V108.979H202.738ZM225.08 120.527C220.914 120.527 218.734 119.227 218.734 116.766C218.734 115.078 219.719 113.654 221.863 112.371C221.301 110.402 220.905 108.53 220.65 106.588L222.338 106.359C222.575 108.144 222.918 109.849 223.41 111.562C225.115 110.78 227.348 110.033 230.125 109.312L230.529 110.789C223.516 112.635 220.439 114.428 220.439 116.643C220.439 118.225 222.004 119.033 225.168 119.033C226.68 119.033 228.367 118.84 230.74 118.453L230.951 119.93C228.877 120.299 226.838 120.527 225.08 120.527ZM234.537 120.035C236.075 116.3 236.989 113.681 237.736 110.332H234.291V108.891H238.053C238.22 108.012 238.396 107.08 238.562 106.061L240.18 106.254C240.021 107.186 239.863 108.056 239.705 108.891H241.27C245.014 108.891 245.418 109.365 245.418 113.654C245.418 117.943 244.416 120.158 242.395 120.158C241.551 120.158 239.846 119.754 238.545 119.279L238.932 117.873C240.039 118.295 241.41 118.629 241.955 118.629C243.133 118.629 243.783 116.924 243.783 113.461C243.783 110.684 243.537 110.332 241.428 110.332H239.406C238.615 113.812 237.64 116.713 236.049 120.545L234.537 120.035ZM248.301 117.855C247.984 115.816 247.299 113.232 246.508 111.053L248.037 110.578C248.828 112.811 249.531 115.43 249.883 117.592L248.301 117.855ZM246.455 110.051C245.875 108.82 245.33 107.924 244.662 106.992L245.77 106.342C246.508 107.291 247.035 108.275 247.615 109.488L246.455 110.051ZM248.775 109.137C248.213 107.889 247.686 106.975 247.035 106.061L248.125 105.445C248.863 106.43 249.391 107.414 249.936 108.609L248.775 109.137ZM261.326 120.439C257.336 120.439 254.752 118.154 254.752 114.621C254.752 112.143 256.053 110.095 258.145 108.979L250.938 109.154V107.678L265.07 107.344V108.803L262.943 108.855C259.182 108.961 256.51 111.193 256.51 114.463C256.51 117.188 258.355 118.893 261.344 118.893C261.941 118.893 262.926 118.84 263.506 118.734L263.699 120.246C263.031 120.369 262.029 120.439 261.326 120.439ZM263.383 115.324C262.855 114.182 262.293 113.18 261.537 112.072L262.715 111.404C263.488 112.529 264.051 113.531 264.596 114.744L263.383 115.324ZM265.949 114.357C265.457 113.197 264.912 112.178 264.156 111.088L265.352 110.455C266.09 111.58 266.652 112.6 267.162 113.812L265.949 114.357ZM276.496 120.51C272.418 120.51 269.852 119.297 269.852 117.311C269.834 116.186 270.678 115.078 272.137 114.428L273.244 115.342C272.137 115.869 271.574 116.502 271.609 117.188C271.645 118.383 273.385 119.068 276.373 119.068C278.043 119.068 279.959 118.857 281.471 118.488L281.717 119.93C280.135 120.299 278.254 120.51 276.496 120.51ZM269.043 113.338V111.984L276.584 111.773C276.391 111.018 276.241 110.235 276.127 109.436L269.219 109.629V108.24L275.934 108.064C275.863 107.396 275.802 106.711 275.758 106.008L277.41 105.902C277.445 106.632 277.507 107.344 277.586 108.012L282.156 107.906V109.277L277.779 109.4C277.902 110.191 278.069 110.974 278.271 111.738L282.332 111.633V113.004L278.641 113.092C279.001 114.261 279.44 115.421 279.977 116.643L278.307 117.029C277.753 115.729 277.296 114.445 276.936 113.127L269.043 113.338ZM290.26 120.51C287.676 120.51 286.234 119.473 286.234 117.609C286.234 115.729 287.658 114.727 290.26 114.727C291.147 114.727 292 114.841 292.861 115.096V112.793H286.094V111.404H292.861V109.33H285.918V107.924H292.861V106.096H294.426V107.924H299.207V109.33H294.426V111.404H299.031V112.793H294.426V115.711C295.858 116.405 297.379 117.504 299.172 119.086L298.135 120.141C296.702 118.901 295.489 117.987 294.408 117.328C294.188 119.473 292.835 120.51 290.26 120.51ZM287.869 117.574C287.869 118.576 288.678 119.104 290.225 119.104C292.053 119.104 292.861 118.365 292.861 116.73V116.572C291.965 116.238 291.13 116.08 290.26 116.08C288.66 116.08 287.869 116.572 287.869 117.574ZM305.447 119.227C308.075 119.077 310.123 117.908 310.686 116.291C310.053 116.757 309.174 117.047 308.207 117.047C306.08 117.047 304.691 115.711 304.691 113.654C304.691 111.58 306.168 110.244 308.383 110.244C309.183 110.244 309.859 110.429 310.439 110.789V109.33H302.02V107.994H310.439V105.902H312.109V107.994H316.855V109.33H312.109V112.916C312.355 113.461 312.461 114.041 312.461 114.744C312.461 118.172 309.877 120.475 305.693 120.686L305.447 119.227ZM308.471 115.711C309.666 115.711 310.668 115.025 310.668 113.654C310.668 112.389 309.824 111.58 308.523 111.58C307.205 111.58 306.361 112.371 306.361 113.654C306.361 114.885 307.188 115.711 308.471 115.711ZM321.654 121.107C319.949 121.107 318.824 119.982 318.824 118.295C318.824 116.607 319.949 115.465 321.654 115.465C323.342 115.465 324.467 116.607 324.467 118.295C324.467 119.982 323.342 121.107 321.654 121.107ZM321.654 119.824C322.568 119.824 323.166 119.209 323.166 118.295C323.166 117.381 322.568 116.766 321.654 116.766C320.74 116.766 320.107 117.381 320.107 118.295C320.107 119.209 320.74 119.824 321.654 119.824Z" fill="#605070"/>
<path d="M314.224 62V65.4015C314.224 65.627 314.135 65.8433 313.977 66.0028C313.818 66.1623 313.604 66.2519 313.379 66.2519H310M314.224 62H320.138C320.586 62 321.016 62.1792 321.333 62.4981C321.65 62.8171 321.828 63.2497 321.828 63.7008V66.2519M314.224 62L310 66.2519M310 66.2519V75.606C310 76.0571 310.178 76.4897 310.495 76.8086C310.812 77.1276 311.242 77.3068 311.69 77.3068H313.379" stroke="#605070" stroke-width="1.5" stroke-linecap="round" stroke-linejoin="round"/>
<path d="M314.497 71.5125H323.588M314.497 74.7594H323.588M318.772 68.2656C317.86 69.7265 317.377 71.414 317.377 73.136C317.377 74.858 317.86 76.5454 318.772 78.0063M319.313 68.2656C320.224 69.7265 320.708 71.414 320.708 73.136C320.708 74.858 320.224 76.5454 319.313 78.0063M314.172 73.136C314.172 73.7755 314.298 74.4089 314.543 74.9998C314.787 75.5907 315.146 76.1276 315.598 76.5798C316.051 77.0321 316.588 77.3908 317.178 77.6356C317.769 77.8803 318.403 78.0063 319.042 78.0063C319.682 78.0063 320.315 77.8803 320.906 77.6356C321.497 77.3908 322.034 77.0321 322.486 76.5798C322.938 76.1276 323.297 75.5907 323.542 74.9998C323.787 74.4089 323.913 73.7755 323.913 73.136C323.913 71.8443 323.399 70.6055 322.486 69.6921C321.573 68.7787 320.334 68.2656 319.042 68.2656C317.751 68.2656 316.512 68.7787 315.598 69.6921C314.685 70.6055 314.172 71.8443 314.172 73.136Z" stroke="#605070" stroke-width="1.5" stroke-linecap="round" stroke-linejoin="round"/>
</svg>
