<svg width="480" height="200" viewBox="0 0 480 200" fill="none" xmlns="http://www.w3.org/2000/svg">
<mask id="path-1-inside-1_641_392" fill="white">
<path fill-rule="evenodd" clip-rule="evenodd" d="M32 0C14.3269 0 0 14.3269 0 32V123C0 140.673 14.3269 155 32 155H43.6706L34.3576 192.904C33.1631 197.765 39.0614 201.17 42.6741 197.705L87.2003 155H448C465.673 155 480 140.673 480 123V32C480 14.3269 465.673 0 448 0H32Z"/>
</mask>
<path fill-rule="evenodd" clip-rule="evenodd" d="M32 0C14.3269 0 0 14.3269 0 32V123C0 140.673 14.3269 155 32 155H43.6706L34.3576 192.904C33.1631 197.765 39.0614 201.17 42.6741 197.705L87.2003 155H448C465.673 155 480 140.673 480 123V32C480 14.3269 465.673 0 448 0H32Z" fill="#F6EEFF"/>
<path d="M43.6706 155L49.4973 156.432L51.3233 149H43.6706V155ZM34.3576 192.904L40.1843 194.335L40.1843 194.335L34.3576 192.904ZM42.6741 197.705L38.521 193.375L38.521 193.375L42.6741 197.705ZM87.2003 155V149H84.788L83.0471 150.67L87.2003 155ZM6 32C6 17.6406 17.6406 6 32 6V-6C11.0132 -6 -6 11.0132 -6 32H6ZM6 123V32H-6V123H6ZM32 149C17.6406 149 6 137.359 6 123H-6C-6 143.987 11.0132 161 32 161V149ZM43.6706 149H32V161H43.6706V149ZM40.1843 194.335L49.4973 156.432L37.8439 153.568L28.5309 191.472L40.1843 194.335ZM38.521 193.375C38.6057 193.294 38.8393 193.152 39.1547 193.124C39.4178 193.101 39.6029 193.167 39.7132 193.231C39.8234 193.294 39.9736 193.421 40.085 193.661C40.2186 193.948 40.2123 194.221 40.1843 194.335L28.5309 191.472C25.9031 202.167 38.8793 209.659 46.8273 202.036L38.521 193.375ZM83.0471 150.67L38.521 193.375L46.8273 202.036L91.3535 159.33L83.0471 150.67ZM448 149H87.2003V161H448V149ZM474 123C474 137.359 462.359 149 448 149V161C468.987 161 486 143.987 486 123H474ZM474 32V123H486V32H474ZM448 6C462.359 6 474 17.6406 474 32H486C486 11.0132 468.987 -6 448 -6V6ZM32 6H448V-6H32V6Z" fill="#605070" mask="url(#path-1-inside-1_641_392)"/>
<rect x="30" y="30" width="80" height="80" rx="15" fill="#605070"/>
<path d="M60.3077 65.8462C60.3077 62.7873 62.7873 60.3077 65.8462 60.3077H82.4615C85.5203 60.3077 88 62.7873 88 65.8462V82.4615C88 85.5204 85.5203 88 82.4615 88H65.8462C62.7873 88 60.3077 85.5204 60.3077 82.4615V65.8462Z" fill="white"/>
<path d="M79.6923 60.3077V57.5385C79.6923 54.4796 77.2127 52 74.1538 52H57.5385C54.4797 52 52 54.4796 52 57.5385V74.1538C52 77.2127 54.4797 79.6923 57.5385 79.6923H60.3077M65.8462 88H82.4615C85.5203 88 88 85.5204 88 82.4615V65.8462C88 62.7873 85.5203 60.3077 82.4615 60.3077H65.8462C62.7873 60.3077 60.3077 62.7873 60.3077 65.8462V82.4615C60.3077 85.5204 62.7873 88 65.8462 88Z" stroke="white" stroke-width="3.27273" stroke-miterlimit="16" stroke-linecap="round"/>
<path d="M65.0869 80.8979C65.0869 81.4766 65.3168 82.0315 65.726 82.4407C66.1351 82.8499 66.6901 83.0797 67.2687 83.0797C69.4506 83.0797 69.4506 78.7161 70.5415 73.2615C71.6324 67.807 71.6324 63.4434 73.8142 63.4434C74.3928 63.4434 74.9478 63.6732 75.357 64.0824C75.7661 64.4916 75.996 65.0465 75.996 65.6252M66.7233 71.6252H74.9051M76.5415 76.5343L79.8142 79.807M83.0869 83.0797L79.8142 79.807M76.5415 83.0797L79.8142 79.807M83.0869 76.5343L79.8142 79.807" stroke="#605070" stroke-width="2.45455" stroke-linecap="round" stroke-linejoin="round"/>
<path d="M140.898 46.9883V50H133.762V46.9883H140.898ZM134.992 32.9375V50H131.266V32.9375H134.992ZM149.301 36.2539L145.879 50H141.906L147.215 32.9375H149.688L149.301 36.2539ZM151.996 50L148.562 36.2539L148.117 32.9375H150.637L155.969 50H151.996ZM152.125 43.6367V46.6484H144.566V43.6367H152.125ZM163.141 32.9375V50H159.426V32.9375H163.141ZM167.324 32.9375V35.9609H155.336V32.9375H167.324ZM179.125 46.9883V50H171.684V46.9883H179.125ZM172.914 32.9375V50H169.188V32.9375H172.914ZM178.141 39.7812V42.6875H171.684V39.7812H178.141ZM179.125 32.9375V35.9609H171.684V32.9375H179.125ZM184.281 32.9375L186.473 38.6094L188.582 32.9375H192.754L188.781 41.3867L192.836 50H188.559L186.379 44.2109L184.188 50H179.945L184.047 41.3516L180.039 32.9375H184.281ZM203.664 32.9375V50H199.938V32.9375H203.664ZM208.949 40.1094V43.1094H202.691V40.1094H208.949ZM209.523 32.9375V35.9609H202.691V32.9375H209.523ZM218.945 32.9375H222.672V44.5977C222.672 45.918 222.43 46.9961 221.945 47.832C221.469 48.6602 220.805 49.2695 219.953 49.6602C219.102 50.043 218.113 50.2344 216.988 50.2344C215.855 50.2344 214.859 50.043 214 49.6602C213.141 49.2695 212.469 48.6602 211.984 47.832C211.508 46.9961 211.27 45.918 211.27 44.5977V32.9375H215.008V44.5977C215.008 45.3242 215.082 45.8789 215.23 46.2617C215.379 46.6367 215.598 46.8906 215.887 47.0234C216.184 47.1562 216.551 47.2227 216.988 47.2227C217.434 47.2227 217.797 47.1562 218.078 47.0234C218.367 46.8906 218.582 46.6367 218.723 46.2617C218.871 45.8789 218.945 45.3242 218.945 44.5977V32.9375ZM237.238 32.9375V50H233.594L228.766 39.3828V50H225.133V32.9375H228.777L233.617 43.6133V32.9375H237.238ZM247.832 44.2695H251.535C251.512 45.5508 251.258 46.6367 250.773 47.5273C250.289 48.418 249.602 49.0938 248.711 49.5547C247.82 50.0078 246.766 50.2344 245.547 50.2344C244.578 50.2344 243.719 50.0703 242.969 49.7422C242.219 49.4062 241.582 48.9219 241.059 48.2891C240.543 47.6562 240.152 46.8789 239.887 45.957C239.629 45.0352 239.5 43.9805 239.5 42.793V40.1445C239.5 38.9648 239.641 37.9102 239.922 36.9805C240.203 36.0508 240.602 35.2695 241.117 34.6367C241.641 33.9961 242.277 33.5117 243.027 33.1836C243.777 32.8555 244.617 32.6914 245.547 32.6914C246.82 32.6914 247.891 32.9297 248.758 33.4062C249.625 33.8828 250.293 34.5742 250.762 35.4805C251.23 36.3867 251.496 37.4844 251.559 38.7734H247.844C247.852 37.9922 247.781 37.3828 247.633 36.9453C247.492 36.5 247.254 36.1875 246.918 36.0078C246.582 35.8203 246.125 35.7266 245.547 35.7266C245.133 35.7266 244.777 35.8047 244.48 35.9609C244.184 36.1094 243.945 36.3555 243.766 36.6992C243.586 37.043 243.453 37.4961 243.367 38.0586C243.281 38.6211 243.238 39.3086 243.238 40.1211V42.793C243.238 43.6055 243.273 44.293 243.344 44.8555C243.414 45.4102 243.535 45.8633 243.707 46.2148C243.879 46.5586 244.113 46.8086 244.41 46.9648C244.707 47.1211 245.086 47.1992 245.547 47.1992C246.062 47.1992 246.488 47.1211 246.824 46.9648C247.16 46.8008 247.41 46.5078 247.574 46.0859C247.746 45.6641 247.832 45.0586 247.832 44.2695ZM260.266 32.9375V50H256.551V32.9375H260.266ZM264.449 32.9375V35.9609H252.461V32.9375H264.449ZM270.203 32.9375V50H266.488V32.9375H270.203ZM285.121 40.168V42.8867C285.121 44.0977 284.973 45.1641 284.676 46.0859C284.379 47 283.953 47.7656 283.398 48.3828C282.852 49 282.195 49.4648 281.43 49.7773C280.672 50.082 279.832 50.2344 278.91 50.2344C277.98 50.2344 277.133 50.082 276.367 49.7773C275.602 49.4648 274.941 49 274.387 48.3828C273.832 47.7656 273.402 47 273.098 46.0859C272.801 45.1641 272.652 44.0977 272.652 42.8867V40.168C272.652 38.9414 272.801 37.8633 273.098 36.9336C273.402 35.9961 273.828 35.2188 274.375 34.6016C274.93 33.9766 275.586 33.5039 276.344 33.1836C277.109 32.8633 277.957 32.7031 278.887 32.7031C279.816 32.7031 280.66 32.8633 281.418 33.1836C282.184 33.5039 282.84 33.9766 283.387 34.6016C283.941 35.2188 284.367 35.9961 284.664 36.9336C284.969 37.8633 285.121 38.9414 285.121 40.168ZM281.383 42.8867V40.1445C281.383 39.3555 281.328 38.6836 281.219 38.1289C281.117 37.5742 280.961 37.1211 280.75 36.7695C280.539 36.418 280.277 36.1602 279.965 35.9961C279.66 35.832 279.301 35.75 278.887 35.75C278.465 35.75 278.098 35.832 277.785 35.9961C277.473 36.1602 277.211 36.418 277 36.7695C276.797 37.1211 276.645 37.5742 276.543 38.1289C276.449 38.6836 276.402 39.3555 276.402 40.1445V42.8867C276.402 43.6523 276.453 44.3086 276.555 44.8555C276.656 45.4023 276.812 45.8477 277.023 46.1914C277.234 46.5352 277.496 46.7891 277.809 46.9531C278.121 47.1172 278.488 47.1992 278.91 47.1992C279.316 47.1992 279.672 47.1172 279.977 46.9531C280.289 46.7891 280.547 46.5352 280.75 46.1914C280.961 45.8477 281.117 45.4023 281.219 44.8555C281.328 44.3086 281.383 43.6523 281.383 42.8867ZM299.512 32.9375V50H295.867L291.039 39.3828V50H287.406V32.9375H291.051L295.891 43.6133V32.9375H299.512ZM309.25 45.4883C309.25 45.1992 309.223 44.9414 309.168 44.7148C309.113 44.4805 309.008 44.2656 308.852 44.0703C308.695 43.8672 308.461 43.6641 308.148 43.4609C307.836 43.2578 307.426 43.0469 306.918 42.8281C306.293 42.5703 305.684 42.2891 305.09 41.9844C304.504 41.6719 303.977 41.3125 303.508 40.9062C303.039 40.4922 302.664 40.0078 302.383 39.4531C302.102 38.8906 301.961 38.2344 301.961 37.4844C301.961 36.7578 302.098 36.1016 302.371 35.5156C302.645 34.9219 303.027 34.418 303.52 34.0039C304.012 33.582 304.594 33.2617 305.266 33.043C305.938 32.8164 306.676 32.7031 307.48 32.7031C308.566 32.7031 309.516 32.9258 310.328 33.3711C311.141 33.8086 311.773 34.4258 312.227 35.2227C312.68 36.0117 312.906 36.9336 312.906 37.9883H309.203C309.203 37.5273 309.141 37.125 309.016 36.7812C308.891 36.4297 308.695 36.1562 308.43 35.9609C308.172 35.7578 307.832 35.6562 307.41 35.6562C307.02 35.6562 306.695 35.7383 306.438 35.9023C306.18 36.0664 305.988 36.2891 305.863 36.5703C305.738 36.8516 305.676 37.1641 305.676 37.5078C305.676 37.7812 305.738 38.0234 305.863 38.2344C305.996 38.4453 306.172 38.6406 306.391 38.8203C306.617 39 306.883 39.1719 307.188 39.3359C307.5 39.5 307.836 39.6562 308.195 39.8047C308.961 40.1094 309.641 40.4414 310.234 40.8008C310.836 41.1602 311.336 41.5664 311.734 42.0195C312.141 42.4648 312.445 42.9727 312.648 43.543C312.859 44.1055 312.965 44.7461 312.965 45.4648C312.965 46.1992 312.84 46.8633 312.59 47.457C312.34 48.043 311.98 48.543 311.512 48.957C311.051 49.3711 310.488 49.6875 309.824 49.9062C309.16 50.125 308.418 50.2344 307.598 50.2344C306.824 50.2344 306.078 50.125 305.359 49.9062C304.641 49.6797 304 49.3359 303.438 48.875C302.883 48.4141 302.441 47.8242 302.113 47.1055C301.785 46.3867 301.621 45.5312 301.621 44.5391H305.348C305.348 45.0469 305.391 45.4805 305.477 45.8398C305.57 46.1914 305.711 46.4727 305.898 46.6836C306.094 46.8945 306.332 47.0508 306.613 47.1523C306.902 47.2461 307.246 47.293 307.645 47.293C308.051 47.293 308.371 47.2109 308.605 47.0469C308.84 46.8828 309.004 46.668 309.098 46.4023C309.199 46.1289 309.25 45.8242 309.25 45.4883Z" fill="#605070"/>
<path d="M134.113 62.0078V63.3965H141.408V62.0078H143.078V67.2461H132.461V62.0078H134.113ZM134.113 65.9805H141.408V64.627H134.113V65.9805ZM144.941 68.4414V69.7598H130.58V68.4414H144.941ZM143.131 71.0254V74.6816H133.955V76.0527H143.57V77.3359H132.32V73.4863H141.479V72.2734H132.303V71.0254H143.131ZM160.533 70.3398V71.6934H146.119V70.3398H152.5V68.8457H147.965V64.8379H157.053V63.4316H147.93V62.1133H158.723V66.0684H149.617V67.5449H159.039V68.8457H154.152V70.3398H160.533ZM158.811 72.8008V77.3711H157.123V74.1367H147.736V72.8008H158.811ZM173.383 71.5527C176.635 71.5527 178.604 72.6426 178.604 74.5059C178.604 76.3867 176.635 77.4766 173.383 77.4941C170.096 77.4766 168.092 76.3867 168.092 74.5059C168.092 72.6426 170.096 71.5527 173.383 71.5527ZM173.383 72.8711C171.098 72.8711 169.744 73.4512 169.762 74.5059C169.744 75.5605 171.098 76.1582 173.383 76.1582C175.65 76.1582 176.969 75.5605 176.969 74.5059C176.969 73.4512 175.65 72.8711 173.383 72.8711ZM178.463 61.7441V65.5938H180.748V67.0176H178.463V71.1484H176.793V61.7441H178.463ZM168.338 62.7285V64.9961H172.469V62.7285H174.121V70.041H166.703V62.7285H168.338ZM168.338 68.7051H172.469V66.3145H168.338V68.7051ZM194.775 61.7441V71.1133H193.105V67.123H190.17V65.752H193.105V61.7441H194.775ZM189.502 71.5527C192.807 71.5527 194.828 72.6426 194.828 74.5234C194.828 76.4043 192.807 77.4766 189.502 77.4941C186.197 77.4766 184.158 76.4043 184.176 74.5234C184.158 72.6426 186.197 71.5527 189.502 71.5527ZM189.502 72.8535C187.199 72.8535 185.828 73.4512 185.828 74.5234C185.828 75.5781 187.199 76.1934 189.502 76.1758C191.805 76.1934 193.176 75.5781 193.176 74.5234C193.176 73.4512 191.805 72.8535 189.502 72.8535ZM187.287 64.5215C187.287 66.5254 188.711 68.459 191.084 69.2676L190.223 70.5859C188.456 69.9707 187.155 68.7139 186.479 67.1582C185.784 68.9248 184.404 70.3398 182.523 71.0254L181.645 69.6895C184.088 68.8457 185.582 66.7188 185.582 64.5391V64.1875H182.172V62.834H190.662V64.1875H187.287V64.5215ZM202.932 64.0117C202.914 66.1914 204.408 68.1777 206.834 68.9863L205.99 70.3047C204.171 69.6631 202.8 68.3799 202.088 66.7363C201.385 68.5029 200.005 69.9004 198.133 70.5684L197.289 69.2676C199.75 68.3887 201.227 66.2617 201.227 64.0117V62.5H202.932V64.0117ZM210.262 71.957V77.4941H208.592V73.3105H199.592V71.957H210.262ZM210.262 61.7441V71.2012H208.592V61.7441H210.262ZM222.32 62.4648C224.693 62.4648 226.416 63.7832 226.416 65.7344C226.416 67.668 224.693 69.0039 222.32 68.9863C219.947 69.0039 218.26 67.668 218.26 65.7344C218.26 63.7832 219.947 62.4648 222.32 62.4648ZM222.32 63.8184C220.896 63.8184 219.859 64.5742 219.877 65.7344C219.859 66.877 220.896 67.6328 222.32 67.6152C223.779 67.6328 224.816 66.877 224.816 65.7344C224.816 64.5742 223.779 63.8184 222.32 63.8184ZM230.248 61.7617V77.4941H228.596V61.7617H230.248ZM217.135 70.2168C220.035 70.2168 224.061 70.1465 227.506 69.6367L227.629 70.8848C226.196 71.1572 224.702 71.3242 223.252 71.4297V77.002H221.582V71.5176C220.053 71.5879 218.611 71.5967 217.363 71.6055L217.135 70.2168ZM246.262 61.7441V77.4941H244.662V61.7441H246.262ZM243.062 62.043V76.7207H241.463V69.127H239.688C239.547 72.2031 238.229 74.1191 236.277 74.1016C234.221 74.1191 232.885 71.957 232.885 68.5469C232.885 65.1367 234.221 62.9922 236.277 63.0098C238.193 62.9922 239.494 64.8115 239.688 67.7734H241.463V62.043H243.062ZM236.277 64.5742C235.135 64.5742 234.432 66.0332 234.432 68.5469C234.432 71.0605 235.135 72.5195 236.277 72.5195C237.438 72.5195 238.158 71.0605 238.158 68.5469C238.158 66.0332 237.438 64.5742 236.277 64.5742ZM260.623 63.3086V73.5391H253.258V63.3086H260.623ZM254.893 64.627V72.1855H258.971V64.627H254.893ZM264.93 61.7441V67.9141H267.461V69.3203H264.93V77.4941H263.26V61.7441H264.93ZM282.613 70.6914V72.0801H276.18V77.4941H274.545V72.0801H268.199V70.6914H282.613ZM275.371 62.3418C278.693 62.3418 280.979 63.6953 280.979 65.8398C280.979 67.9668 278.693 69.3027 275.371 69.3027C272.031 69.3027 269.764 67.9668 269.764 65.8398C269.764 63.6953 272.031 62.3418 275.371 62.3418ZM275.371 63.6777C273.033 63.6953 271.469 64.5039 271.486 65.8398C271.469 67.1582 273.033 67.9668 275.371 67.9668C277.709 67.9668 279.273 67.1582 279.273 65.8398C279.273 64.5039 277.709 63.6953 275.371 63.6777ZM291.771 63.9766C291.771 66.543 294.514 68.9688 297.537 69.5137L296.764 70.9023C294.25 70.3574 291.93 68.7051 290.91 66.4902C289.873 68.6875 287.562 70.3398 285.039 70.9023L284.301 69.5137C287.289 68.9512 290.014 66.543 290.014 63.9766V62.7812H291.771V63.9766ZM298.188 74.0312V75.4199H283.773V74.0312H298.188ZM313.727 68.9688V70.252H299.312V68.9688H313.727ZM311.951 71.3594V74.8223H302.705V76.123H312.443V77.3008H301.035V73.7148H310.299V72.5547H301.018V71.3594H311.951ZM311.916 62.1484V65.5586H302.811V66.7539H312.18V67.9316H301.158V64.4512H310.246V63.3262H301.123V62.1484H311.916ZM326.453 61.9199C330.004 61.9199 332.078 62.8867 332.078 64.627C332.078 66.2529 330.312 67.2021 327.244 67.334V68.4414H333.643V69.7773H319.281V68.4414H325.609V67.334C322.577 67.1846 320.828 66.2441 320.828 64.627C320.828 62.8867 322.902 61.9199 326.453 61.9199ZM326.453 63.168C323.939 63.1855 322.551 63.6953 322.568 64.627C322.551 65.6113 323.939 66.1035 326.453 66.1035C328.967 66.1035 330.355 65.6113 330.355 64.627C330.355 63.6953 328.967 63.1855 326.453 63.168ZM331.832 70.9551V74.6465H322.656V76.0527H332.271V77.3359H321.021V73.4512H330.18V72.2207H321.004V70.9551H331.832ZM347.916 61.7441V77.5293H346.246V61.7441H347.916ZM343.1 63.168V68.916H337.439V72.3613C339.988 72.3525 342.221 72.2383 344.857 71.7988L345.016 73.1699C342.221 73.6445 339.848 73.75 337.07 73.75H335.734V67.5801H341.395V64.5215H335.717V63.168H343.1ZM363.139 63.2559V64.8027C363.139 66.7539 363.139 68.9336 362.541 72.1504L360.854 71.9746C361.469 68.9336 361.469 66.7012 361.469 64.8027V64.6094H351.906V63.2559H363.139ZM364.756 73.9785V75.3672H350.395V73.9785H355.861V68.4238H357.514V73.9785H364.756ZM399.49 62.0078C403.041 62.0078 405.115 62.957 405.115 64.7148C405.115 66.4727 403.041 67.4395 399.49 67.4395C395.939 67.4395 393.865 66.4727 393.865 64.7148C393.865 62.957 395.939 62.0078 399.49 62.0078ZM399.49 63.2383C396.977 63.2383 395.588 63.7832 395.605 64.7148C395.588 65.6816 396.977 66.1914 399.49 66.1914C402.004 66.1914 403.393 65.6816 403.393 64.7148C403.393 63.7832 402.004 63.2383 399.49 63.2383ZM406.68 68.4062V69.7422H392.318V68.4062H406.68ZM404.869 70.9551V74.6465H395.693V76.0527H405.309V77.3359H394.059V73.4336H403.217V72.2031H394.041V70.9551H404.869ZM424.855 62.4473V63.6953C424.855 64.917 424.855 66.2969 424.504 68.0723H426.613V69.4258H412.287V68.0723H422.834C422.966 67.4219 423.054 66.833 423.115 66.2793L413.887 66.666L413.676 65.3652L423.186 65.1016C423.203 64.6357 423.203 64.2051 423.203 63.7832H414.08V62.4473H424.855ZM424.961 70.7441V74.5586H415.627V75.9824H425.523V77.3008H413.957V73.3105H423.309V72.0273H413.922V70.7441H424.961ZM440.887 61.7617V71.377H439.217V61.7617H440.887ZM440.887 72.1855V77.4941H439.217V73.5566H430.217V72.1855H440.887ZM435.859 62.6758V67.1758H430.287V69.1973C433.038 69.1885 435.068 69.0918 437.459 68.7402L437.67 70.0938C435.104 70.498 432.941 70.5684 429.971 70.5684H428.652V65.875H434.207V64.0293H428.617V62.6758H435.859ZM142.85 83.7441V90.125H145.381V91.5137H142.85V99.4941H141.197V83.7441H142.85ZM139.826 86.2051V87.5762H130.492V86.2051H134.377V83.9551H136.047V86.2051H139.826ZM135.221 88.7363C137.471 88.7363 139.123 90.248 139.141 92.3926C139.123 94.5547 137.471 96.0488 135.221 96.0664C132.953 96.0488 131.301 94.5547 131.301 92.3926C131.301 90.248 132.953 88.7363 135.221 88.7363ZM135.221 90.1074C133.885 90.1074 132.883 91.0391 132.9 92.3926C132.883 93.7637 133.885 94.6777 135.221 94.6602C136.557 94.6777 137.541 93.7637 137.541 92.3926C137.541 91.0391 136.557 90.1074 135.221 90.1074ZM154.17 85.0801V86.416H157.598V83.7617H159.268V95.2402H157.598V91.1621H154.17V92.5332H146.857V85.0801H154.17ZM148.51 86.4336V91.2148H152.535V86.4336H148.51ZM159.619 97.8066V99.1602H148.984V94.1855H150.672V97.8066H159.619ZM154.17 89.791H157.598V87.7871H154.17V89.791ZM166.809 98V85.2734H168.742V96.3301H174.49V98H166.809ZM175.879 95.3105C175.879 93.1309 177.725 92.5684 179.447 92.4453C180.08 92.4014 181.513 92.3223 181.961 92.3047L181.943 91.5488C181.943 90.4766 181.293 89.8438 180.01 89.8438C178.902 89.8438 178.234 90.3535 178.041 91.0566H176.178C176.354 89.4746 177.83 88.332 180.08 88.332C181.592 88.332 183.824 88.8945 183.824 91.6543V98H181.996V96.6992H181.926C181.557 97.4199 180.678 98.2109 179.096 98.2109C177.285 98.2109 175.879 97.1738 175.879 95.3105ZM177.707 95.3281C177.707 96.2422 178.463 96.7168 179.518 96.7168C181.047 96.7168 181.961 95.6973 181.961 94.5547V93.6758L179.711 93.834C178.48 93.9219 177.707 94.3789 177.707 95.3281ZM184.809 86.9434V85.2734H194.67V86.9434H190.715V98H188.781V86.9434H184.809ZM199.205 98.1934C196.393 98.1934 194.67 96.2598 194.67 93.2891C194.67 90.3535 196.428 88.332 199.082 88.332C201.262 88.332 203.318 89.6855 203.318 93.1309V93.7988H196.533C196.586 95.6094 197.649 96.6465 199.223 96.6465C200.295 96.6465 200.98 96.1895 201.297 95.6094H203.195C202.773 97.1562 201.297 98.1934 199.205 98.1934ZM196.551 92.3926H201.473C201.473 90.9336 200.541 89.8789 199.1 89.8789C197.597 89.8789 196.621 91.0391 196.551 92.3926ZM206.693 85.2734L209.717 90.2305H209.822L212.863 85.2734H215.096L211.123 91.6367L215.131 98H212.863L209.822 93.0957H209.717L206.658 98H204.408L208.469 91.6367L204.426 85.2734H206.693ZM229.352 85.3965V86.7324H220.492V85.3965H224.184V83.6035H225.836V85.3965H229.352ZM224.992 87.4531C227.119 87.4531 228.613 88.6309 228.631 90.3887C228.613 92.1465 227.119 93.3066 224.992 93.3066C222.848 93.3066 221.371 92.1465 221.371 90.3887C221.371 88.6309 222.848 87.4531 224.992 87.4531ZM224.992 88.7188C223.744 88.7188 222.936 89.3691 222.936 90.3887C222.936 91.4082 223.744 92.041 224.992 92.041C226.223 92.041 227.066 91.4082 227.084 90.3887C227.066 89.3691 226.223 88.7188 224.992 88.7188ZM233.605 83.7441V93.8867H231.936V91.8652H229.387V90.5117H231.936V88.7715H229.404V87.418H231.936V83.7441H233.605ZM228.367 94.0449C231.672 94.0449 233.693 95.0293 233.693 96.752C233.693 98.457 231.672 99.4766 228.367 99.459C225.045 99.4766 223.023 98.457 223.023 96.752C223.023 95.0293 225.045 94.0449 228.367 94.0449ZM228.367 95.3281C226.1 95.3281 224.764 95.8203 224.764 96.752C224.764 97.666 226.1 98.1934 228.367 98.1758C230.582 98.1934 231.918 97.666 231.918 96.752C231.918 95.8203 230.582 95.3281 228.367 95.3281ZM241.762 86.0117C241.744 88.1914 243.238 90.1777 245.664 90.9863L244.82 92.3047C243.001 91.6631 241.63 90.3799 240.918 88.7363C240.215 90.5029 238.835 91.9004 236.963 92.5684L236.119 91.2676C238.58 90.3887 240.057 88.2617 240.057 86.0117V84.5H241.762V86.0117ZM249.092 93.957V99.4941H247.422V95.3105H238.422V93.957H249.092ZM249.092 83.7441V93.2012H247.422V83.7441H249.092ZM258.76 84.6934C262.064 84.6934 264.578 86.4336 264.578 89.0879C264.578 91.7422 262.064 93.5 258.76 93.4824C255.455 93.5 252.959 91.7422 252.959 89.0879C252.959 86.4336 255.455 84.6934 258.76 84.6934ZM258.76 86.0469C256.352 86.0293 254.541 87.2598 254.559 89.0879C254.541 90.9336 256.352 92.1113 258.76 92.1113C261.168 92.1113 262.961 90.9336 262.961 89.0879C262.961 87.2598 261.168 86.0293 258.76 86.0469ZM266.002 96.0664V97.4551H251.588V96.0664H266.002ZM281.559 96.207V97.6133H267.145V96.207H273.49V93.4473H268.902V88.4375H278.148V86.2227H268.867V84.8516H279.801V89.7734H270.555V92.0762H280.17V93.4473H275.143V96.207H281.559ZM299.471 83.7441V87.8223H301.756V89.2461H299.471V93.2363H297.801V83.7441H299.471ZM299.471 94.0625V99.3008H289.416V94.0625H299.471ZM291.051 95.3809V97.9473H297.818V95.3809H291.051ZM296.5 85.3438V86.6797H287.113V85.3438H290.98V83.6211H292.65V85.3438H296.5ZM291.807 87.3652C294.074 87.3652 295.621 88.4902 295.621 90.1777C295.621 91.8828 294.074 92.9902 291.807 93.0078C289.504 92.9902 287.975 91.8828 287.975 90.1777C287.975 88.4902 289.504 87.3652 291.807 87.3652ZM291.807 88.6484C290.471 88.6309 289.574 89.2285 289.592 90.1777C289.574 91.1621 290.471 91.7422 291.807 91.7422C293.143 91.7422 294.039 91.1621 294.057 90.1777C294.039 89.2285 293.143 88.6309 291.807 88.6484ZM310.721 85.1328C310.703 87.2246 313.27 89.1934 316.363 89.5977L315.713 90.9688C313.138 90.5557 310.87 89.2197 309.859 87.3652C308.822 89.2285 306.563 90.5557 304.006 90.9688L303.338 89.5977C306.432 89.1934 308.963 87.2422 308.98 85.1328V84.2715H310.721V85.1328ZM317.014 92.5156V93.8867H310.615V99.4941H308.98V93.8867H302.652V92.5156H317.014ZM332.605 90.9688V92.252H318.191V90.9688H332.605ZM330.83 93.3594V96.8223H321.584V98.123H331.322V99.3008H319.914V95.7148H329.178V94.5547H319.896V93.3594H330.83ZM330.795 84.1484V87.5586H321.689V88.7539H331.059V89.9316H320.037V86.4512H329.125V85.3262H320.002V84.1484H330.795ZM352.521 91.7773V93.1309H338.16V91.7773H344.506V90.0723H340.041V84.1133H341.693V85.8184H348.988V84.1133H350.658V90.0723H346.158V91.7773H352.521ZM350.764 94.5371V99.4941H349.076V95.873H339.76V94.5371H350.764ZM341.693 88.7363H348.988V87.0664H341.693V88.7363ZM359.184 87.752C359.166 90.5469 360.783 93.3945 363.139 94.5371L362.102 95.873C360.388 94.9854 359.061 93.2188 358.375 91.1094C357.663 93.3594 356.283 95.2402 354.49 96.1719L353.453 94.8184C355.879 93.6582 357.514 90.6348 357.514 87.752V85.0625H359.184V87.752ZM365.986 83.7441V90.0195H368.518V91.4434H365.986V99.4941H364.316V83.7441H365.986ZM381.543 83.7441V90.125H384.074V91.5137H381.543V99.4941H379.891V83.7441H381.543ZM378.52 86.2051V87.5762H369.186V86.2051H373.07V83.9551H374.74V86.2051H378.52ZM373.914 88.7363C376.164 88.7363 377.816 90.248 377.834 92.3926C377.816 94.5547 376.164 96.0488 373.914 96.0664C371.646 96.0488 369.994 94.5547 369.994 92.3926C369.994 90.248 371.646 88.7363 373.914 88.7363ZM373.914 90.1074C372.578 90.1074 371.576 91.0391 371.594 92.3926C371.576 93.7637 372.578 94.6777 373.914 94.6602C375.25 94.6777 376.234 93.7637 376.234 92.3926C376.234 91.0391 375.25 90.1074 373.914 90.1074ZM397.943 83.7441V99.4941H396.291V91.3555H392.758V89.9844H396.291V83.7441H397.943ZM392.811 85.4316C392.793 90.002 391.018 93.9219 385.674 96.5762L384.795 95.2578C388.97 93.2188 390.824 90.3799 391.123 86.7676H385.498V85.4316H392.811ZM415.1 89.9316V91.3027H412.656V99.4766H410.986V83.7441H412.656V89.9316H415.1ZM402.637 85.2734V94.1328C404.834 94.1328 407.128 93.9482 409.633 93.4297L409.826 94.8359C407.137 95.3809 404.641 95.5215 402.285 95.5215H400.984V85.2734H402.637ZM418.773 96.7871L417.367 101.639H415.873L416.805 96.7871H418.773ZM137.752 106.008C141.303 106.008 143.377 106.957 143.377 108.715C143.377 110.473 141.303 111.439 137.752 111.439C134.201 111.439 132.127 110.473 132.127 108.715C132.127 106.957 134.201 106.008 137.752 106.008ZM137.752 107.238C135.238 107.238 133.85 107.783 133.867 108.715C133.85 109.682 135.238 110.191 137.752 110.191C140.266 110.191 141.654 109.682 141.654 108.715C141.654 107.783 140.266 107.238 137.752 107.238ZM144.941 112.406V113.742H130.58V112.406H144.941ZM143.131 114.955V118.646H133.955V120.053H143.57V121.336H132.32V117.434H141.479V116.203H132.303V114.955H143.131ZM163.117 106.447V107.695C163.117 108.917 163.117 110.297 162.766 112.072H164.875V113.426H150.549V112.072H161.096C161.228 111.422 161.315 110.833 161.377 110.279L152.148 110.666L151.938 109.365L161.447 109.102C161.465 108.636 161.465 108.205 161.465 107.783H152.342V106.447H163.117ZM163.223 114.744V118.559H153.889V119.982H163.785V121.301H152.219V117.311H161.57V116.027H152.184V114.744H163.223ZM179.148 105.762V115.377H177.479V105.762H179.148ZM179.148 116.186V121.494H177.479V117.557H168.479V116.186H179.148ZM174.121 106.676V111.176H168.549V113.197C171.3 113.188 173.33 113.092 175.721 112.74L175.932 114.094C173.365 114.498 171.203 114.568 168.232 114.568H166.914V109.875H172.469V108.029H166.879V106.676H174.121ZM193.914 105.744V112.125H196.445V113.514H193.914V121.494H192.262V105.744H193.914ZM190.891 108.205V109.576H181.557V108.205H185.441V105.955H187.111V108.205H190.891ZM186.285 110.736C188.535 110.736 190.188 112.248 190.205 114.393C190.188 116.555 188.535 118.049 186.285 118.066C184.018 118.049 182.365 116.555 182.365 114.393C182.365 112.248 184.018 110.736 186.285 110.736ZM186.285 112.107C184.949 112.107 183.947 113.039 183.965 114.393C183.947 115.764 184.949 116.678 186.285 116.66C187.621 116.678 188.605 115.764 188.605 114.393C188.605 113.039 187.621 112.107 186.285 112.107ZM205.234 107.08V108.416H208.662V105.762H210.332V117.24H208.662V113.162H205.234V114.533H197.922V107.08H205.234ZM199.574 108.434V113.215H203.6V108.434H199.574ZM210.684 119.807V121.16H200.049V116.186H201.736V119.807H210.684ZM205.234 111.791H208.662V109.787H205.234V111.791ZM230.283 105.744V113.848H228.613V109.805H225.291V108.451H228.613V105.744H230.283ZM230.283 114.586V118.506H221.652V119.965H230.828V121.301H220.018V117.24H228.631V115.904H219.982V114.586H230.283ZM222.689 107.625C222.689 109.629 224.131 111.492 226.504 112.248L225.625 113.549C223.894 112.951 222.584 111.765 221.898 110.262C221.204 111.949 219.851 113.276 217.996 113.918L217.1 112.582C219.561 111.791 221.02 109.84 221.037 107.625V106.254H222.689V107.625ZM245.84 105.744V115.043H244.17V112.705H240.742V113.988H233.43V106.922H240.742V108.223H244.17V105.744H245.84ZM235.082 108.258V112.652H239.107V108.258H235.082ZM240.566 115.482C243.871 115.482 245.893 116.572 245.893 118.488C245.893 120.387 243.871 121.477 240.566 121.459C237.262 121.477 235.223 120.387 235.24 118.488C235.223 116.572 237.262 115.482 240.566 115.482ZM240.566 116.766C238.264 116.783 236.893 117.381 236.893 118.488C236.893 119.543 238.264 120.176 240.566 120.176C242.869 120.176 244.24 119.543 244.24 118.488C244.24 117.381 242.869 116.783 240.566 116.766ZM240.742 111.352H244.17V109.559H240.742V111.352ZM255.438 106.008C258.988 106.008 261.062 106.957 261.062 108.715C261.062 110.473 258.988 111.439 255.438 111.439C251.887 111.439 249.812 110.473 249.812 108.715C249.812 106.957 251.887 106.008 255.438 106.008ZM255.438 107.238C252.924 107.238 251.535 107.783 251.553 108.715C251.535 109.682 252.924 110.191 255.438 110.191C257.951 110.191 259.34 109.682 259.34 108.715C259.34 107.783 257.951 107.238 255.438 107.238ZM262.627 112.406V113.742H248.266V112.406H262.627ZM260.816 114.955V118.646H251.641V120.053H261.256V121.336H250.006V117.434H259.164V116.203H249.988V114.955H260.816ZM271.75 105.99V107.361H279.045V105.99H280.715V111.211H276.18V112.582H282.578V113.918H268.217V112.582H274.545V111.211H270.098V105.99H271.75ZM271.75 109.945H279.045V108.592H271.75V109.945ZM280.768 115.061V118.734H271.592V120.053H281.207V121.336H269.957V117.539H279.115V116.309H269.939V115.061H280.768ZM296.236 107.133C296.219 109.225 298.785 111.193 301.879 111.598L301.229 112.969C298.653 112.556 296.386 111.22 295.375 109.365C294.338 111.229 292.079 112.556 289.521 112.969L288.854 111.598C291.947 111.193 294.479 109.242 294.496 107.133V106.271H296.236V107.133ZM302.529 114.516V115.887H296.131V121.494H294.496V115.887H288.168V114.516H302.529ZM313.586 116.15C313.586 117.504 314.254 118.937 315.678 119.789C317.128 118.866 317.84 117.354 317.84 116.15V115.395H319.475V116.15C319.475 117.785 320.547 119.367 322.604 120.035L321.777 121.266C320.222 120.729 319.167 119.684 318.613 118.383C318.112 119.657 317.172 120.809 315.73 121.406C314.219 120.835 313.261 119.719 312.777 118.436C312.206 119.675 311.169 120.721 309.684 121.266L308.84 120.035C310.861 119.314 311.951 117.68 311.969 116.15V115.395H313.586V116.15ZM321.18 105.762V114.727H319.51V105.762H321.18ZM312.637 106.623C315.045 106.623 316.82 108.152 316.82 110.35C316.82 112.529 315.045 114.041 312.637 114.041C310.229 114.041 308.436 112.529 308.436 110.35C308.436 108.152 310.229 106.623 312.637 106.623ZM312.637 108.047C311.143 108.029 310.07 108.961 310.07 110.35C310.07 111.721 311.143 112.652 312.637 112.652C314.113 112.652 315.186 111.721 315.186 110.35C315.186 108.961 314.113 108.029 312.637 108.047ZM327.104 115.184V116.854H334.504V115.184H336.174V121.301H325.451V115.184H327.104ZM327.104 119.965H334.504V118.154H327.104V119.965ZM338.037 112.811V114.199H323.676V112.811H338.037ZM331.709 106.588C331.709 108.398 334.223 110.156 337.246 110.525L336.648 111.844C334.091 111.483 331.867 110.279 330.865 108.609C329.837 110.288 327.604 111.483 325.082 111.844L324.449 110.525C327.508 110.139 330.004 108.451 330.004 106.588V105.92H331.709V106.588ZM352.311 105.744V121.494H350.641V105.744H352.311ZM341.852 107.273V116.045C344.146 116.027 346.562 115.843 349.094 115.324L349.322 116.73C346.527 117.293 343.996 117.486 341.518 117.486H340.199V107.273H341.852ZM367.059 105.744V111.844H369.59V113.215H367.059V121.529H365.389V105.744H367.059ZM362.822 107.256V108.609H357.127V116.221C359.772 116.212 361.759 116.098 364 115.693L364.211 117.1C361.75 117.539 359.658 117.627 356.723 117.609H355.457V107.256H362.822ZM372.139 120.123C371.453 120.123 370.873 119.561 370.891 118.875C370.873 118.189 371.453 117.627 372.139 117.627C372.807 117.627 373.387 118.189 373.387 118.875C373.387 119.561 372.807 120.123 372.139 120.123Z" fill="#605070"/>
<path d="M426 88V86C426 85.4696 426.211 84.9609 426.586 84.5858C426.961 84.2107 427.47 84 428 84H430M426 96V98C426 98.5304 426.211 99.0391 426.586 99.4142C426.961 99.7893 427.47 100 428 100H430M438 84H440C440.53 84 441.039 84.2107 441.414 84.5858C441.789 84.9609 442 85.4696 442 86V88" stroke="#605070" stroke-width="2" stroke-linecap="round" stroke-linejoin="round"/>
<path d="M440.667 98.6745L437.333 95.3411M430 92.0078C430 92.5331 430.103 93.0532 430.304 93.5385C430.506 94.0239 430.8 94.4648 431.172 94.8362C431.543 95.2077 431.984 95.5023 432.469 95.7033C432.955 95.9044 433.475 96.0078 434 96.0078C434.525 96.0078 435.045 95.9044 435.531 95.7033C436.016 95.5023 436.457 95.2077 436.828 94.8362C437.2 94.4648 437.495 94.0239 437.696 93.5385C437.897 93.0532 438 92.5331 438 92.0078C438 90.9469 437.579 89.9295 436.828 89.1794C436.078 88.4292 435.061 88.0078 434 88.0078C432.939 88.0078 431.922 88.4292 431.172 89.1794C430.421 89.9295 430 90.9469 430 92.0078Z" stroke="#605070" stroke-width="2" stroke-linecap="round" stroke-linejoin="round"/>
<path d="M375.692 68.1538C375.692 66.7944 376.794 65.6923 378.154 65.6923H385.538C386.898 65.6923 388 66.7944 388 68.1538V75.5385C388 76.8979 386.898 78 385.538 78H378.154C376.794 78 375.692 76.8979 375.692 75.5385V68.1538Z" fill="#605070"/>
<path d="M384.308 65.6923V64.4615C384.308 63.1021 383.206 62 381.846 62H374.462C373.102 62 372 63.1021 372 64.4615V71.8462C372 73.2056 373.102 74.3077 374.462 74.3077H375.692M378.154 78H385.538C386.898 78 388 76.8979 388 75.5385V68.1538C388 66.7944 386.898 65.6923 385.538 65.6923H378.154C376.794 65.6923 375.692 66.7944 375.692 68.1538V75.5385C375.692 76.8979 376.794 78 378.154 78Z" stroke="#605070" stroke-width="1.45455" stroke-miterlimit="16" stroke-linecap="round"/>
<path d="M377.817 74.8425C377.817 75.0997 377.919 75.3464 378.101 75.5282C378.283 75.7101 378.529 75.8122 378.786 75.8122C379.756 75.8122 379.756 73.8728 380.241 71.4486C380.726 69.0244 380.726 67.085 381.696 67.085C381.953 67.085 382.199 67.1871 382.381 67.369C382.563 67.5508 382.665 67.7975 382.665 68.0547M378.544 70.7213H382.18M382.908 72.9031L384.362 74.3577M385.817 75.8122L384.362 74.3577M382.908 75.8122L384.362 74.3577M385.817 72.9031L384.362 74.3577" stroke="white" stroke-width="1.09091" stroke-linecap="round" stroke-linejoin="round"/>
</svg>
