<svg width="480" height="200" viewBox="0 0 480 200" fill="none" xmlns="http://www.w3.org/2000/svg">
<mask id="path-1-inside-1_636_296" fill="white">
<path fill-rule="evenodd" clip-rule="evenodd" d="M32 0C14.3269 0 0 14.3269 0 32V123C0 140.673 14.3269 155 32 155H404.425L448.951 197.705C452.564 201.17 458.462 197.765 457.267 192.904L447.954 155H448C465.673 155 480 140.673 480 123V32C480 14.3269 465.673 0 448 0H32Z"/>
</mask>
<path fill-rule="evenodd" clip-rule="evenodd" d="M32 0C14.3269 0 0 14.3269 0 32V123C0 140.673 14.3269 155 32 155H404.425L448.951 197.705C452.564 201.17 458.462 197.765 457.267 192.904L447.954 155H448C465.673 155 480 140.673 480 123V32C480 14.3269 465.673 0 448 0H32Z" fill="#F6EEFF"/>
<path d="M404.425 155L408.578 150.67L406.837 149H404.425V155ZM448.951 197.705L453.104 193.375L453.104 193.375L448.951 197.705ZM457.267 192.904L451.441 194.335L451.441 194.335L457.267 192.904ZM447.954 155V149H440.302L442.128 156.432L447.954 155ZM6 32C6 17.6406 17.6406 6 32 6V-6C11.0132 -6 -6 11.0132 -6 32H6ZM6 123V32H-6V123H6ZM32 149C17.6406 149 6 137.359 6 123H-6C-6 143.987 11.0132 161 32 161V149ZM404.425 149H32V161H404.425V149ZM400.272 159.33L444.798 202.036L453.104 193.375L408.578 150.67L400.272 159.33ZM444.798 202.036C452.746 209.659 465.722 202.167 463.094 191.472L451.441 194.335C451.413 194.221 451.406 193.948 451.54 193.661C451.651 193.421 451.802 193.294 451.912 193.231C452.022 193.167 452.207 193.101 452.47 193.124C452.786 193.152 453.019 193.294 453.104 193.375L444.798 202.036ZM463.094 191.472L453.781 153.568L442.128 156.432L451.441 194.335L463.094 191.472ZM448 149H447.954V161H448V149ZM474 123C474 137.359 462.359 149 448 149V161C468.987 161 486 143.987 486 123H474ZM474 32V123H486V32H474ZM448 6C462.359 6 474 17.6406 474 32H486C486 11.0132 468.987 -6 448 -6V6ZM32 6H448V-6H32V6Z" fill="#605070" mask="url(#path-1-inside-1_636_296)"/>
<rect x="30" y="30" width="80" height="80" rx="15" fill="#605070"/>
<path d="M49.5459 59.7898V54.6761C49.5459 53.3199 50.0847 52.0192 51.0436 51.0602C52.0026 50.1013 53.3033 49.5625 54.6595 49.5625H59.7732M49.5459 80.2443V85.358C49.5459 86.7142 50.0847 88.0148 51.0436 88.9738C52.0026 89.9328 53.3033 90.4716 54.6595 90.4716H59.7732M80.2277 49.5625H85.3413C86.6976 49.5625 87.9982 50.1013 88.9572 51.0602C89.9162 52.0192 90.455 53.3199 90.455 54.6761V59.7898" stroke="white" stroke-width="3.6" stroke-linecap="round" stroke-linejoin="round"/>
<path d="M87.0452 87.0696L78.5225 78.5469M59.7725 70.0242C59.7725 71.3672 60.037 72.6971 60.551 73.938C61.0649 75.1788 61.8183 76.3062 62.768 77.2559C63.7176 78.2056 64.8451 78.959 66.0859 79.4729C67.3268 79.9869 68.6567 80.2514 69.9997 80.2514C71.3428 80.2514 72.6727 79.9869 73.9135 79.4729C75.1544 78.959 76.2818 78.2056 77.2315 77.2559C78.1812 76.3062 78.9345 75.1788 79.4485 73.938C79.9625 72.6971 80.227 71.3672 80.227 70.0242C80.227 67.3117 79.1495 64.7104 77.2315 62.7924C75.3135 60.8744 72.7122 59.7969 69.9997 59.7969C67.2873 59.7969 64.6859 60.8744 62.768 62.7924C60.85 64.7104 59.7725 67.3117 59.7725 70.0242Z" stroke="white" stroke-width="3.6" stroke-linecap="round" stroke-linejoin="round"/>
<path d="M138.391 32.9375V50H134.676V32.9375H138.391ZM142.574 32.9375V35.9609H130.586V32.9375H142.574ZM154.375 46.9883V50H146.934V46.9883H154.375ZM148.164 32.9375V50H144.438V32.9375H148.164ZM153.391 39.7812V42.6875H146.934V39.7812H153.391ZM154.375 32.9375V35.9609H146.934V32.9375H154.375ZM159.531 32.9375L161.723 38.6094L163.832 32.9375H168.004L164.031 41.3867L168.086 50H163.809L161.629 44.2109L159.438 50H155.195L159.297 41.3516L155.289 32.9375H159.531ZM176.781 32.9375V50H173.066V32.9375H176.781ZM180.965 32.9375V35.9609H168.977V32.9375H180.965ZM197.594 46.9883V50H190.152V46.9883H197.594ZM191.383 32.9375V50H187.656V32.9375H191.383ZM196.609 39.7812V42.6875H190.152V39.7812H196.609ZM197.594 32.9375V35.9609H190.152V32.9375H197.594ZM202.75 32.9375L204.941 38.6094L207.051 32.9375H211.223L207.25 41.3867L211.305 50H207.027L204.848 44.2109L202.656 50H198.414L202.516 41.3516L198.508 32.9375H202.75ZM218.77 44.1055H215.312V41.082H218.77C219.215 41.082 219.574 40.9805 219.848 40.7773C220.121 40.5664 220.32 40.2812 220.445 39.9219C220.57 39.5547 220.633 39.1406 220.633 38.6797C220.633 38.1953 220.57 37.7461 220.445 37.332C220.32 36.918 220.121 36.5859 219.848 36.3359C219.574 36.0859 219.215 35.9609 218.77 35.9609H216.602V50H212.875V32.9375H218.77C219.934 32.9375 220.934 33.1836 221.77 33.6758C222.613 34.168 223.262 34.8438 223.715 35.7031C224.168 36.5625 224.395 37.5469 224.395 38.6562C224.395 39.7578 224.168 40.7148 223.715 41.5273C223.262 42.3398 222.613 42.9727 221.77 43.4258C220.934 43.8789 219.934 44.1055 218.77 44.1055ZM236.242 46.9883V50H229.105V46.9883H236.242ZM230.336 32.9375V50H226.609V32.9375H230.336ZM244.645 36.2539L241.223 50H237.25L242.559 32.9375H245.031L244.645 36.2539ZM247.34 50L243.906 36.2539L243.461 32.9375H245.98L251.312 50H247.34ZM247.469 43.6367V46.6484H239.91V43.6367H247.469ZM264.871 32.9375V50H261.227L256.398 39.3828V50H252.766V32.9375H256.41L261.25 43.6133V32.9375H264.871ZM273.941 36.2539L270.52 50H266.547L271.855 32.9375H274.328L273.941 36.2539ZM276.637 50L273.203 36.2539L272.758 32.9375H275.277L280.609 50H276.637ZM276.766 43.6367V46.6484H269.207V43.6367H276.766ZM287.781 32.9375V50H284.066V32.9375H287.781ZM291.965 32.9375V35.9609H279.977V32.9375H291.965ZM297.719 32.9375V50H294.004V32.9375H297.719ZM312.637 40.168V42.8867C312.637 44.0977 312.488 45.1641 312.191 46.0859C311.895 47 311.469 47.7656 310.914 48.3828C310.367 49 309.711 49.4648 308.945 49.7773C308.188 50.082 307.348 50.2344 306.426 50.2344C305.496 50.2344 304.648 50.082 303.883 49.7773C303.117 49.4648 302.457 49 301.902 48.3828C301.348 47.7656 300.918 47 300.613 46.0859C300.316 45.1641 300.168 44.0977 300.168 42.8867V40.168C300.168 38.9414 300.316 37.8633 300.613 36.9336C300.918 35.9961 301.344 35.2188 301.891 34.6016C302.445 33.9766 303.102 33.5039 303.859 33.1836C304.625 32.8633 305.473 32.7031 306.402 32.7031C307.332 32.7031 308.176 32.8633 308.934 33.1836C309.699 33.5039 310.355 33.9766 310.902 34.6016C311.457 35.2188 311.883 35.9961 312.18 36.9336C312.484 37.8633 312.637 38.9414 312.637 40.168ZM308.898 42.8867V40.1445C308.898 39.3555 308.844 38.6836 308.734 38.1289C308.633 37.5742 308.477 37.1211 308.266 36.7695C308.055 36.418 307.793 36.1602 307.48 35.9961C307.176 35.832 306.816 35.75 306.402 35.75C305.98 35.75 305.613 35.832 305.301 35.9961C304.988 36.1602 304.727 36.418 304.516 36.7695C304.312 37.1211 304.16 37.5742 304.059 38.1289C303.965 38.6836 303.918 39.3555 303.918 40.1445V42.8867C303.918 43.6523 303.969 44.3086 304.07 44.8555C304.172 45.4023 304.328 45.8477 304.539 46.1914C304.75 46.5352 305.012 46.7891 305.324 46.9531C305.637 47.1172 306.004 47.1992 306.426 47.1992C306.832 47.1992 307.188 47.1172 307.492 46.9531C307.805 46.7891 308.062 46.5352 308.266 46.1914C308.477 45.8477 308.633 45.4023 308.734 44.8555C308.844 44.3086 308.898 43.6523 308.898 42.8867ZM327.027 32.9375V50H323.383L318.555 39.3828V50H314.922V32.9375H318.566L323.406 43.6133V32.9375H327.027Z" fill="#605070"/>
<path d="M138.227 66.6309C138.104 65.4531 137.066 64.7676 135.607 64.7676C134.043 64.7676 133.059 65.5586 133.059 66.6484C133.059 67.8613 134.377 68.3184 135.379 68.5645L136.609 68.8984C138.244 69.2852 140.266 70.1816 140.283 72.4844C140.266 74.6289 138.561 76.2109 135.555 76.2109C132.707 76.2109 130.914 74.7871 130.791 72.4668H132.725C132.848 73.8555 134.061 74.5234 135.555 74.5234C137.172 74.5234 138.35 73.6973 138.367 72.4492C138.35 71.3418 137.312 70.8848 135.959 70.5332L134.447 70.1289C132.408 69.5664 131.125 68.5293 131.125 66.7539C131.125 64.5566 133.094 63.0977 135.66 63.0977C138.244 63.0977 140.055 64.5742 140.107 66.6309H138.227ZM146.312 76.1934C143.5 76.1934 141.777 74.2598 141.777 71.2891C141.777 68.3535 143.535 66.332 146.189 66.332C148.369 66.332 150.426 67.6855 150.426 71.1309V71.7988H143.641C143.693 73.6094 144.757 74.6465 146.33 74.6465C147.402 74.6465 148.088 74.1895 148.404 73.6094H150.303C149.881 75.1562 148.404 76.1934 146.312 76.1934ZM143.658 70.3926H148.58C148.58 68.9336 147.648 67.8789 146.207 67.8789C144.704 67.8789 143.729 69.0391 143.658 70.3926ZM154.17 63.2734V76H152.289V63.2734H154.17ZM160.568 76.1934C157.756 76.1934 156.033 74.2598 156.033 71.2891C156.033 68.3535 157.791 66.332 160.445 66.332C162.625 66.332 164.682 67.6855 164.682 71.1309V71.7988H157.896C157.949 73.6094 159.013 74.6465 160.586 74.6465C161.658 74.6465 162.344 74.1895 162.66 73.6094H164.559C164.137 75.1562 162.66 76.1934 160.568 76.1934ZM157.914 70.3926H162.836C162.836 68.9336 161.904 67.8789 160.463 67.8789C158.96 67.8789 157.984 69.0391 157.914 70.3926ZM170.588 76.1934C167.811 76.1934 166.123 74.1367 166.123 71.2715C166.123 68.3535 167.863 66.332 170.553 66.332C172.732 66.332 174.314 67.6152 174.508 69.5488H172.68C172.486 68.6523 171.766 67.8965 170.588 67.8965C169.041 67.8965 168.004 69.1797 168.004 71.2188C168.004 73.3105 169.023 74.5938 170.588 74.5938C171.643 74.5938 172.451 74.0137 172.68 72.9766H174.508C174.297 74.8223 172.838 76.1934 170.588 76.1934ZM180.748 66.4551V67.9492H178.797V73.1875C178.797 74.2598 179.342 74.4531 179.939 74.4707C180.203 74.4707 180.625 74.4355 180.889 74.418V76.0527C180.625 76.0879 180.221 76.123 179.711 76.123C178.234 76.123 176.916 75.3145 176.934 73.5742V67.9492H175.527V66.4551H176.934V64.1699H178.797V66.4551H180.748ZM191.436 66.4551V67.9492H189.484V73.1875C189.484 74.2598 190.029 74.4531 190.627 74.4707C190.891 74.4707 191.312 74.4355 191.576 74.418V76.0527C191.312 76.0879 190.908 76.123 190.398 76.123C188.922 76.123 187.604 75.3145 187.621 73.5742V67.9492H186.215V66.4551H187.621V64.1699H189.484V66.4551H191.436ZM197.271 76.1934C194.459 76.1934 192.736 74.2598 192.736 71.2891C192.736 68.3535 194.494 66.332 197.148 66.332C199.328 66.332 201.385 67.6855 201.385 71.1309V71.7988H194.6C194.652 73.6094 195.716 74.6465 197.289 74.6465C198.361 74.6465 199.047 74.1895 199.363 73.6094H201.262C200.84 75.1562 199.363 76.1934 197.271 76.1934ZM194.617 70.3926H199.539C199.539 68.9336 198.607 67.8789 197.166 67.8789C195.663 67.8789 194.688 69.0391 194.617 70.3926ZM204.514 66.4551L206.605 70.1641L208.715 66.4551H210.771L207.801 71.2188L210.789 76H208.75L206.605 72.4316L204.479 76H202.422L205.375 71.2188L202.439 66.4551H204.514ZM216.941 66.4551V67.9492H214.99V73.1875C214.99 74.2598 215.535 74.4531 216.133 74.4707C216.396 74.4707 216.818 74.4355 217.082 74.418V76.0527C216.818 76.0879 216.414 76.123 215.904 76.123C214.428 76.123 213.109 75.3145 213.127 73.5742V67.9492H211.721V66.4551H213.127V64.1699H214.99V66.4551H216.941ZM227.629 66.4551V67.9492H225.678V73.1875C225.678 74.2598 226.223 74.4531 226.82 74.4707C227.084 74.4707 227.506 74.4355 227.77 74.418V76.0527C227.506 76.0879 227.102 76.123 226.592 76.123C225.115 76.123 223.797 75.3145 223.814 73.5742V67.9492H222.408V66.4551H223.814V64.1699H225.678V66.4551H227.629ZM233.395 76.1934C230.688 76.1934 228.93 74.2246 228.93 71.2715C228.93 68.3008 230.688 66.332 233.395 66.332C236.084 66.332 237.842 68.3008 237.842 71.2715C237.842 74.2246 236.084 76.1934 233.395 76.1934ZM233.395 74.6289C235.117 74.6289 235.943 73.0996 235.943 71.2715C235.943 69.4434 235.117 67.8789 233.395 67.8789C231.637 67.8789 230.811 69.4434 230.811 71.2715C230.811 73.0996 231.637 74.6289 233.395 74.6289ZM250.146 72.0273V66.4551H252.01V76H250.182V74.3477H250.076C249.637 75.3672 248.652 76.123 247.229 76.123C245.383 76.123 244.082 74.8926 244.082 72.5195V66.4551H245.963V72.291C245.963 73.5918 246.754 74.418 247.896 74.418C248.934 74.418 250.146 73.6621 250.146 72.0273ZM259.656 69.0566C259.48 68.3008 258.883 67.8086 257.846 67.8086C256.773 67.8086 256 68.3711 256.018 69.0918C256 69.6543 256.457 70.0586 257.512 70.3047L259.023 70.6562C260.781 71.043 261.625 71.8867 261.643 73.2402C261.625 74.9629 260.184 76.1934 257.74 76.1934C255.455 76.1934 254.084 75.1738 253.855 73.3984H255.771C255.93 74.2598 256.598 74.6816 257.723 74.6816C258.936 74.6816 259.709 74.1895 259.727 73.3809C259.709 72.7656 259.252 72.3613 258.25 72.1328L256.756 71.8164C255.033 71.4297 254.137 70.5156 254.137 69.1973C254.137 67.4922 255.613 66.332 257.828 66.332C259.955 66.332 261.273 67.4219 261.467 69.0566H259.656ZM267.584 76.1934C264.771 76.1934 263.049 74.2598 263.049 71.2891C263.049 68.3535 264.807 66.332 267.461 66.332C269.641 66.332 271.697 67.6855 271.697 71.1309V71.7988H264.912C264.965 73.6094 266.028 74.6465 267.602 74.6465C268.674 74.6465 269.359 74.1895 269.676 73.6094H271.574C271.152 75.1562 269.676 76.1934 267.584 76.1934ZM264.93 70.3926H269.852C269.852 68.9336 268.92 67.8789 267.479 67.8789C265.976 67.8789 265 69.0391 264.93 70.3926ZM282.42 66.4551V67.9492H280.469V73.1875C280.469 74.2598 281.014 74.4531 281.611 74.4707C281.875 74.4707 282.297 74.4355 282.561 74.418V76.0527C282.297 76.0879 281.893 76.123 281.383 76.123C279.906 76.123 278.588 75.3145 278.605 73.5742V67.9492H277.199V66.4551H278.605V64.1699H280.469V66.4551H282.42ZM288.186 76.1934C285.479 76.1934 283.721 74.2246 283.721 71.2715C283.721 68.3008 285.479 66.332 288.186 66.332C290.875 66.332 292.633 68.3008 292.633 71.2715C292.633 74.2246 290.875 76.1934 288.186 76.1934ZM288.186 74.6289C289.908 74.6289 290.734 73.0996 290.734 71.2715C290.734 69.4434 289.908 67.8789 288.186 67.8789C286.428 67.8789 285.602 69.4434 285.602 71.2715C285.602 73.0996 286.428 74.6289 288.186 74.6289ZM298.521 76.1934C295.814 76.1934 294.057 74.2246 294.057 71.2715C294.057 68.3008 295.814 66.332 298.521 66.332C301.211 66.332 302.969 68.3008 302.969 71.2715C302.969 74.2246 301.211 76.1934 298.521 76.1934ZM298.521 74.6289C300.244 74.6289 301.07 73.0996 301.07 71.2715C301.07 69.4434 300.244 67.8789 298.521 67.8789C296.764 67.8789 295.938 69.4434 295.938 71.2715C295.938 73.0996 296.764 74.6289 298.521 74.6289ZM306.695 63.2734V76H304.814V63.2734H306.695ZM309.139 76V63.2734H311.002V68.002H311.107C311.459 67.4043 312.092 66.332 313.85 66.332C316.152 66.332 317.875 68.1426 317.875 71.2539C317.875 74.3301 316.188 76.1934 313.867 76.1934C312.127 76.1934 311.459 75.1387 311.107 74.5059H310.967V76H309.139ZM310.967 71.2188C310.967 73.2227 311.863 74.5938 313.445 74.5938C315.098 74.5938 315.959 73.1348 315.959 71.2188C315.959 69.3379 315.115 67.9316 313.445 67.9316C311.846 67.9316 310.967 69.2324 310.967 71.2188ZM319.299 73.3105C319.299 71.1309 321.145 70.5684 322.867 70.4453C323.5 70.4014 324.933 70.3223 325.381 70.3047L325.363 69.5488C325.363 68.4766 324.713 67.8438 323.43 67.8438C322.322 67.8438 321.654 68.3535 321.461 69.0566H319.598C319.773 67.4746 321.25 66.332 323.5 66.332C325.012 66.332 327.244 66.8945 327.244 69.6543V76H325.416V74.6992H325.346C324.977 75.4199 324.098 76.2109 322.516 76.2109C320.705 76.2109 319.299 75.1738 319.299 73.3105ZM321.127 73.3281C321.127 74.2422 321.883 74.7168 322.938 74.7168C324.467 74.7168 325.381 73.6973 325.381 72.5547V71.6758L323.131 71.834C321.9 71.9219 321.127 72.3789 321.127 73.3281ZM329.512 76V66.4551H331.322V67.9668H331.428C331.779 66.9473 332.729 66.3145 333.854 66.3145C334.082 66.3145 334.451 66.332 334.645 66.3496V68.1426C334.486 68.1074 334.047 68.0371 333.66 68.0371C332.359 68.0371 331.393 68.9336 331.393 70.1816V76H329.512ZM346.07 69.8125V71.4297H340.428V69.8125H346.07ZM356.846 76.1934C354.033 76.1934 352.311 74.2598 352.311 71.2891C352.311 68.3535 354.068 66.332 356.723 66.332C358.902 66.332 360.959 67.6855 360.959 71.1309V71.7988H354.174C354.227 73.6094 355.29 74.6465 356.863 74.6465C357.936 74.6465 358.621 74.1895 358.938 73.6094H360.836C360.414 75.1562 358.938 76.1934 356.846 76.1934ZM354.191 70.3926H359.113C359.113 68.9336 358.182 67.8789 356.74 67.8789C355.237 67.8789 354.262 69.0391 354.191 70.3926ZM364.088 66.4551L366.18 70.1641L368.289 66.4551H370.346L367.375 71.2188L370.363 76H368.324L366.18 72.4316L364.053 76H361.996L364.949 71.2188L362.014 66.4551H364.088ZM372.051 79.5859V66.4551H373.879V68.002H374.037C374.371 67.4043 375.021 66.332 376.779 66.332C379.082 66.332 380.787 68.1426 380.787 71.2539C380.787 74.3301 379.117 76.1934 376.797 76.1934C375.057 76.1934 374.371 75.1387 374.037 74.5059H373.932V79.5859H372.051ZM373.896 71.2188C373.896 73.2227 374.775 74.5938 376.375 74.5938C378.027 74.5938 378.889 73.1348 378.889 71.2188C378.889 69.3379 378.045 67.9316 376.375 67.9316C374.758 67.9316 373.896 69.2324 373.896 71.2188ZM384.531 63.2734V76H382.65V63.2734H384.531ZM386.377 73.3105C386.377 71.1309 388.223 70.5684 389.945 70.4453C390.578 70.4014 392.011 70.3223 392.459 70.3047L392.441 69.5488C392.441 68.4766 391.791 67.8438 390.508 67.8438C389.4 67.8438 388.732 68.3535 388.539 69.0566H386.676C386.852 67.4746 388.328 66.332 390.578 66.332C392.09 66.332 394.322 66.8945 394.322 69.6543V76H392.494V74.6992H392.424C392.055 75.4199 391.176 76.2109 389.594 76.2109C387.783 76.2109 386.377 75.1738 386.377 73.3105ZM388.205 73.3281C388.205 74.2422 388.961 74.7168 390.016 74.7168C391.545 74.7168 392.459 73.6973 392.459 72.5547V71.6758L390.209 71.834C388.979 71.9219 388.205 72.3789 388.205 73.3281ZM396.59 76V66.4551H398.471V76H396.59ZM397.539 64.9785C396.889 64.9785 396.344 64.4863 396.344 63.8711C396.344 63.2559 396.889 62.7637 397.539 62.7637C398.172 62.7637 398.717 63.2559 398.717 63.8711C398.717 64.4863 398.172 64.9785 397.539 64.9785ZM402.637 70.3398V76H400.756V66.4551H402.566V68.0195H402.672C403.129 67 404.061 66.332 405.484 66.332C407.453 66.332 408.736 67.5625 408.736 69.9355V76H406.873V70.1641C406.873 68.7754 406.117 67.9492 404.852 67.9492C403.568 67.9492 402.637 68.8105 402.637 70.3398ZM413.289 74.7871L411.883 79.6387H410.389L411.32 74.7871H413.289ZM133.023 92.3398V98H131.143V85.2734H132.988V90.0195H133.111C133.568 88.9824 134.447 88.332 135.941 88.332C137.91 88.332 139.211 89.5449 139.211 91.9355V98H137.33V92.1641C137.33 90.7578 136.574 89.9492 135.309 89.9492C133.99 89.9492 133.023 90.8105 133.023 92.3398ZM141.479 98V88.4551H143.359V98H141.479ZM142.428 86.9785C141.777 86.9785 141.232 86.4863 141.232 85.8711C141.232 85.2559 141.777 84.7637 142.428 84.7637C143.061 84.7637 143.605 85.2559 143.605 85.8711C143.605 86.4863 143.061 86.9785 142.428 86.9785ZM149.652 101.779C147.244 101.779 145.662 100.707 145.486 98.9316H147.402C147.578 99.8281 148.422 100.268 149.67 100.268C151.164 100.268 152.113 99.6348 152.113 98.1406V96.2598H151.99C151.656 96.875 150.971 97.8594 149.213 97.8594C146.963 97.8594 145.223 96.1719 145.223 93.1309C145.223 90.0898 146.928 88.332 149.23 88.332C151.006 88.332 151.656 89.4043 152.008 90.002H152.131V88.4551H153.959V98.2109C153.959 100.654 152.113 101.779 149.652 101.779ZM149.635 96.3125C151.234 96.3125 152.131 95.1348 152.131 93.166C152.131 91.2324 151.252 89.9316 149.635 89.9316C147.965 89.9316 147.139 91.3379 147.139 93.166C147.139 95.0293 148 96.3125 149.635 96.3125ZM158.125 92.3398V98H156.244V85.2734H158.09V90.0195H158.213C158.67 88.9824 159.549 88.332 161.043 88.332C163.012 88.332 164.312 89.5449 164.312 91.9355V98H162.432V92.1641C162.432 90.7578 161.676 89.9492 160.41 89.9492C159.092 89.9492 158.125 90.8105 158.125 92.3398ZM168.461 85.2734V98H166.58V85.2734H168.461ZM170.746 98V88.4551H172.627V98H170.746ZM171.695 86.9785C171.045 86.9785 170.5 86.4863 170.5 85.8711C170.5 85.2559 171.045 84.7637 171.695 84.7637C172.328 84.7637 172.873 85.2559 172.873 85.8711C172.873 86.4863 172.328 86.9785 171.695 86.9785ZM178.92 101.779C176.512 101.779 174.93 100.707 174.754 98.9316H176.67C176.846 99.8281 177.689 100.268 178.938 100.268C180.432 100.268 181.381 99.6348 181.381 98.1406V96.2598H181.258C180.924 96.875 180.238 97.8594 178.48 97.8594C176.23 97.8594 174.49 96.1719 174.49 93.1309C174.49 90.0898 176.195 88.332 178.498 88.332C180.273 88.332 180.924 89.4043 181.275 90.002H181.398V88.4551H183.227V98.2109C183.227 100.654 181.381 101.779 178.92 101.779ZM178.902 96.3125C180.502 96.3125 181.398 95.1348 181.398 93.166C181.398 91.2324 180.52 89.9316 178.902 89.9316C177.232 89.9316 176.406 91.3379 176.406 93.166C176.406 95.0293 177.268 96.3125 178.902 96.3125ZM187.393 92.3398V98H185.512V85.2734H187.357V90.0195H187.48C187.938 88.9824 188.816 88.332 190.311 88.332C192.279 88.332 193.58 89.5449 193.58 91.9355V98H191.699V92.1641C191.699 90.7578 190.943 89.9492 189.678 89.9492C188.359 89.9492 187.393 90.8105 187.393 92.3398ZM200.312 88.4551V89.9492H198.361V95.1875C198.361 96.2598 198.906 96.4531 199.504 96.4707C199.768 96.4707 200.189 96.4355 200.453 96.418V98.0527C200.189 98.0879 199.785 98.123 199.275 98.123C197.799 98.123 196.48 97.3145 196.498 95.5742V89.9492H195.092V88.4551H196.498V86.1699H198.361V88.4551H200.312ZM204.408 96.7871L203.002 101.639H201.508L202.439 96.7871H204.408ZM215.605 88.4551V89.9492H213.654V95.1875C213.654 96.2598 214.199 96.4531 214.797 96.4707C215.061 96.4707 215.482 96.4355 215.746 96.418V98.0527C215.482 98.0879 215.078 98.123 214.568 98.123C213.092 98.123 211.773 97.3145 211.791 95.5742V89.9492H210.385V88.4551H211.791V86.1699H213.654V88.4551H215.605ZM217.434 98V88.4551H219.244V89.9668H219.35C219.701 88.9473 220.65 88.3145 221.775 88.3145C222.004 88.3145 222.373 88.332 222.566 88.3496V90.1426C222.408 90.1074 221.969 90.0371 221.582 90.0371C220.281 90.0371 219.314 90.9336 219.314 92.1816V98H217.434ZM223.428 95.3105C223.428 93.1309 225.273 92.5684 226.996 92.4453C227.629 92.4014 229.062 92.3223 229.51 92.3047L229.492 91.5488C229.492 90.4766 228.842 89.8438 227.559 89.8438C226.451 89.8438 225.783 90.3535 225.59 91.0566H223.727C223.902 89.4746 225.379 88.332 227.629 88.332C229.141 88.332 231.373 88.8945 231.373 91.6543V98H229.545V96.6992H229.475C229.105 97.4199 228.227 98.2109 226.645 98.2109C224.834 98.2109 223.428 97.1738 223.428 95.3105ZM225.256 95.3281C225.256 96.2422 226.012 96.7168 227.066 96.7168C228.596 96.7168 229.51 95.6973 229.51 94.5547V93.6758L227.26 93.834C226.029 93.9219 225.256 94.3789 225.256 95.3281ZM235.521 92.3398V98H233.641V88.4551H235.451V90.0195H235.557C236.014 89 236.945 88.332 238.369 88.332C240.338 88.332 241.621 89.5625 241.621 91.9355V98H239.758V92.1641C239.758 90.7754 239.002 89.9492 237.736 89.9492C236.453 89.9492 235.521 90.8105 235.521 92.3398ZM249.268 91.0566C249.092 90.3008 248.494 89.8086 247.457 89.8086C246.385 89.8086 245.611 90.3711 245.629 91.0918C245.611 91.6543 246.068 92.0586 247.123 92.3047L248.635 92.6562C250.393 93.043 251.236 93.8867 251.254 95.2402C251.236 96.9629 249.795 98.1934 247.352 98.1934C245.066 98.1934 243.695 97.1738 243.467 95.3984H245.383C245.541 96.2598 246.209 96.6816 247.334 96.6816C248.547 96.6816 249.32 96.1895 249.338 95.3809C249.32 94.7656 248.863 94.3613 247.861 94.1328L246.367 93.8164C244.645 93.4297 243.748 92.5156 243.748 91.1973C243.748 89.4922 245.225 88.332 247.439 88.332C249.566 88.332 250.885 89.4219 251.078 91.0566H249.268ZM254.963 85.2734V98H253.082V85.2734H254.963ZM256.809 95.3105C256.809 93.1309 258.654 92.5684 260.377 92.4453C261.01 92.4014 262.442 92.3223 262.891 92.3047L262.873 91.5488C262.873 90.4766 262.223 89.8438 260.939 89.8438C259.832 89.8438 259.164 90.3535 258.971 91.0566H257.107C257.283 89.4746 258.76 88.332 261.01 88.332C262.521 88.332 264.754 88.8945 264.754 91.6543V98H262.926V96.6992H262.855C262.486 97.4199 261.607 98.2109 260.025 98.2109C258.215 98.2109 256.809 97.1738 256.809 95.3105ZM258.637 95.3281C258.637 96.2422 259.393 96.7168 260.447 96.7168C261.977 96.7168 262.891 95.6973 262.891 94.5547V93.6758L260.641 93.834C259.41 93.9219 258.637 94.3789 258.637 95.3281ZM271.486 88.4551V89.9492H269.535V95.1875C269.535 96.2598 270.08 96.4531 270.678 96.4707C270.941 96.4707 271.363 96.4355 271.627 96.418V98.0527C271.363 98.0879 270.959 98.123 270.449 98.123C268.973 98.123 267.654 97.3145 267.672 95.5742V89.9492H266.266V88.4551H267.672V86.1699H269.535V88.4551H271.486ZM277.322 98.1934C274.51 98.1934 272.787 96.2598 272.787 93.2891C272.787 90.3535 274.545 88.332 277.199 88.332C279.379 88.332 281.436 89.6855 281.436 93.1309V93.7988H274.65C274.703 95.6094 275.767 96.6465 277.34 96.6465C278.412 96.6465 279.098 96.1895 279.414 95.6094H281.312C280.891 97.1562 279.414 98.1934 277.322 98.1934ZM274.668 92.3926H279.59C279.59 90.9336 278.658 89.8789 277.217 89.8789C275.714 89.8789 274.738 91.0391 274.668 92.3926ZM285.566 96.7871L284.16 101.639H282.666L283.598 96.7871H285.566ZM296.342 98.1934C293.564 98.1934 291.877 96.1367 291.877 93.2715C291.877 90.3535 293.617 88.332 296.307 88.332C298.486 88.332 300.068 89.6152 300.262 91.5488H298.434C298.24 90.6523 297.52 89.8965 296.342 89.8965C294.795 89.8965 293.758 91.1797 293.758 93.2188C293.758 95.3105 294.777 96.5938 296.342 96.5938C297.396 96.5938 298.205 96.0137 298.434 94.9766H300.262C300.051 96.8223 298.592 98.1934 296.342 98.1934ZM306.08 98.1934C303.373 98.1934 301.615 96.2246 301.615 93.2715C301.615 90.3008 303.373 88.332 306.08 88.332C308.77 88.332 310.527 90.3008 310.527 93.2715C310.527 96.2246 308.77 98.1934 306.08 98.1934ZM306.08 96.6289C307.803 96.6289 308.629 95.0996 308.629 93.2715C308.629 91.4434 307.803 89.8789 306.08 89.8789C304.322 89.8789 303.496 91.4434 303.496 93.2715C303.496 95.0996 304.322 96.6289 306.08 96.6289ZM312.373 98V88.4551H314.184V90.0195H314.289C314.693 88.9473 315.625 88.332 316.891 88.332C318.156 88.332 319.053 88.9648 319.457 90.0195H319.562C320.02 88.9824 321.039 88.332 322.428 88.332C324.15 88.332 325.381 89.4219 325.381 91.6016V98H323.5V91.7773C323.5 90.4941 322.691 89.9492 321.707 89.9492C320.494 89.9492 319.809 90.7754 319.809 91.918V98H317.945V91.6719C317.945 90.6348 317.225 89.9492 316.205 89.9492C315.15 89.9492 314.254 90.8281 314.254 92.1113V98H312.373ZM327.648 98V88.4551H329.459V90.0195H329.564C329.969 88.9473 330.9 88.332 332.166 88.332C333.432 88.332 334.328 88.9648 334.732 90.0195H334.838C335.295 88.9824 336.314 88.332 337.703 88.332C339.426 88.332 340.656 89.4219 340.656 91.6016V98H338.775V91.7773C338.775 90.4941 337.967 89.9492 336.982 89.9492C335.77 89.9492 335.084 90.7754 335.084 91.918V98H333.221V91.6719C333.221 90.6348 332.5 89.9492 331.48 89.9492C330.426 89.9492 329.529 90.8281 329.529 92.1113V98H327.648ZM347.037 98.1934C344.225 98.1934 342.502 96.2598 342.502 93.2891C342.502 90.3535 344.26 88.332 346.914 88.332C349.094 88.332 351.15 89.6855 351.15 93.1309V93.7988H344.365C344.418 95.6094 345.481 96.6465 347.055 96.6465C348.127 96.6465 348.812 96.1895 349.129 95.6094H351.027C350.605 97.1562 349.129 98.1934 347.037 98.1934ZM344.383 92.3926H349.305C349.305 90.9336 348.373 89.8789 346.932 89.8789C345.429 89.8789 344.453 91.0391 344.383 92.3926ZM354.895 92.3398V98H353.014V88.4551H354.824V90.0195H354.93C355.387 89 356.318 88.332 357.742 88.332C359.711 88.332 360.994 89.5625 360.994 91.9355V98H359.131V92.1641C359.131 90.7754 358.375 89.9492 357.109 89.9492C355.826 89.9492 354.895 90.8105 354.895 92.3398ZM367.744 88.4551V89.9492H365.793V95.1875C365.793 96.2598 366.338 96.4531 366.936 96.4707C367.199 96.4707 367.621 96.4355 367.885 96.418V98.0527C367.621 98.0879 367.217 98.123 366.707 98.123C365.23 98.123 363.912 97.3145 363.93 95.5742V89.9492H362.523V88.4551H363.93V86.1699H365.793V88.4551H367.744ZM371.84 96.7871L370.434 101.639H368.939L369.871 96.7871H371.84ZM382.615 98.1934C379.908 98.1934 378.15 96.2246 378.15 93.2715C378.15 90.3008 379.908 88.332 382.615 88.332C385.305 88.332 387.062 90.3008 387.062 93.2715C387.062 96.2246 385.305 98.1934 382.615 98.1934ZM382.615 96.6289C384.338 96.6289 385.164 95.0996 385.164 93.2715C385.164 91.4434 384.338 89.8789 382.615 89.8789C380.857 89.8789 380.031 91.4434 380.031 93.2715C380.031 95.0996 380.857 96.6289 382.615 96.6289ZM388.908 98V88.4551H390.719V89.9668H390.824C391.176 88.9473 392.125 88.3145 393.25 88.3145C393.479 88.3145 393.848 88.332 394.041 88.3496V90.1426C393.883 90.1074 393.443 90.0371 393.057 90.0371C391.756 90.0371 390.789 90.9336 390.789 92.1816V98H388.908ZM135.186 120.193C132.408 120.193 130.721 118.137 130.721 115.271C130.721 112.354 132.461 110.332 135.15 110.332C137.33 110.332 138.912 111.615 139.105 113.549H137.277C137.084 112.652 136.363 111.896 135.186 111.896C133.639 111.896 132.602 113.18 132.602 115.219C132.602 117.311 133.621 118.594 135.186 118.594C136.24 118.594 137.049 118.014 137.277 116.977H139.105C138.895 118.822 137.436 120.193 135.186 120.193ZM142.762 114.34V120H140.881V107.273H142.727V112.02H142.85C143.307 110.982 144.186 110.332 145.68 110.332C147.648 110.332 148.949 111.545 148.949 113.936V120H147.068V114.164C147.068 112.758 146.312 111.949 145.047 111.949C143.729 111.949 142.762 112.811 142.762 114.34ZM150.777 117.311C150.777 115.131 152.623 114.568 154.346 114.445C154.979 114.401 156.411 114.322 156.859 114.305L156.842 113.549C156.842 112.477 156.191 111.844 154.908 111.844C153.801 111.844 153.133 112.354 152.939 113.057H151.076C151.252 111.475 152.729 110.332 154.979 110.332C156.49 110.332 158.723 110.895 158.723 113.654V120H156.895V118.699H156.824C156.455 119.42 155.576 120.211 153.994 120.211C152.184 120.211 150.777 119.174 150.777 117.311ZM152.605 117.328C152.605 118.242 153.361 118.717 154.416 118.717C155.945 118.717 156.859 117.697 156.859 116.555V115.676L154.609 115.834C153.379 115.922 152.605 116.379 152.605 117.328ZM165.455 110.455V111.949H163.504V117.188C163.504 118.26 164.049 118.453 164.646 118.471C164.91 118.471 165.332 118.436 165.596 118.418V120.053C165.332 120.088 164.928 120.123 164.418 120.123C162.941 120.123 161.623 119.314 161.641 117.574V111.949H160.234V110.455H161.641V108.17H163.504V110.455H165.455ZM173.734 120L170.939 110.455H172.873L174.736 117.451H174.842L176.705 110.455H178.639L180.484 117.416H180.59L182.436 110.455H184.369L181.574 120H179.658L177.725 113.127H177.584L175.668 120H173.734ZM185.916 120V110.455H187.797V120H185.916ZM186.865 108.979C186.215 108.979 185.67 108.486 185.67 107.871C185.67 107.256 186.215 106.764 186.865 106.764C187.498 106.764 188.043 107.256 188.043 107.871C188.043 108.486 187.498 108.979 186.865 108.979ZM194.547 110.455V111.949H192.596V117.188C192.596 118.26 193.141 118.453 193.738 118.471C194.002 118.471 194.424 118.436 194.688 118.418V120.053C194.424 120.088 194.02 120.123 193.51 120.123C192.033 120.123 190.715 119.314 190.732 117.574V111.949H189.326V110.455H190.732V108.17H192.596V110.455H194.547ZM198.467 114.34V120H196.586V107.273H198.432V112.02H198.555C199.012 110.982 199.891 110.332 201.385 110.332C203.354 110.332 204.654 111.545 204.654 113.936V120H202.773V114.164C202.773 112.758 202.018 111.949 200.752 111.949C199.434 111.949 198.467 112.811 198.467 114.34ZM212.564 120H210.508L215.078 107.273H217.311L221.898 120H219.842L218.682 116.643H213.725L212.564 120ZM214.287 115.025H218.119L216.238 109.594H216.15L214.287 115.025ZM225.449 107.273V120H223.516V107.273H225.449ZM229.105 120.123C228.42 120.123 227.84 119.561 227.857 118.875C227.84 118.189 228.42 117.627 229.105 117.627C229.773 117.627 230.354 118.189 230.354 118.875C230.354 119.561 229.773 120.123 229.105 120.123Z" fill="#605070"/>
<g style="mix-blend-mode:multiply">
<rect x="127" y="58" width="57" height="24" fill="#AEB2FF" fill-opacity="0.47"/>
</g>
<circle cx="127.5" cy="53.5" r="3.5" fill="#0000FF"/>
<circle cx="184.5" cy="82.5" r="3.5" fill="#0000FF"/>
</svg>
