<svg width="480" height="200" viewBox="0 0 480 200" fill="none" xmlns="http://www.w3.org/2000/svg">
<mask id="path-1-inside-1_641_306" fill="white">
<path fill-rule="evenodd" clip-rule="evenodd" d="M32 0C14.3269 0 0 14.3269 0 32V123C0 140.673 14.3269 155 32 155H43.6706L34.3576 192.904C33.1631 197.765 39.0614 201.17 42.6741 197.705L87.2003 155H448C465.673 155 480 140.673 480 123V32C480 14.3269 465.673 0 448 0H32Z"/>
</mask>
<path fill-rule="evenodd" clip-rule="evenodd" d="M32 0C14.3269 0 0 14.3269 0 32V123C0 140.673 14.3269 155 32 155H43.6706L34.3576 192.904C33.1631 197.765 39.0614 201.17 42.6741 197.705L87.2003 155H448C465.673 155 480 140.673 480 123V32C480 14.3269 465.673 0 448 0H32Z" fill="#F6EEFF"/>
<path d="M43.6706 155L49.4973 156.432L51.3233 149H43.6706V155ZM34.3576 192.904L40.1843 194.335L40.1843 194.335L34.3576 192.904ZM42.6741 197.705L38.521 193.375L38.521 193.375L42.6741 197.705ZM87.2003 155V149H84.788L83.0471 150.67L87.2003 155ZM6 32C6 17.6406 17.6406 6 32 6V-6C11.0132 -6 -6 11.0132 -6 32H6ZM6 123V32H-6V123H6ZM32 149C17.6406 149 6 137.359 6 123H-6C-6 143.987 11.0132 161 32 161V149ZM43.6706 149H32V161H43.6706V149ZM40.1843 194.335L49.4973 156.432L37.8439 153.568L28.5309 191.472L40.1843 194.335ZM38.521 193.375C38.6057 193.294 38.8393 193.152 39.1547 193.124C39.4178 193.101 39.6029 193.167 39.7132 193.231C39.8234 193.294 39.9736 193.421 40.085 193.661C40.2186 193.948 40.2123 194.221 40.1843 194.335L28.5309 191.472C25.9031 202.167 38.8793 209.659 46.8273 202.036L38.521 193.375ZM83.0471 150.67L38.521 193.375L46.8273 202.036L91.3535 159.33L83.0471 150.67ZM448 149H87.2003V161H448V149ZM474 123C474 137.359 462.359 149 448 149V161C468.987 161 486 143.987 486 123H474ZM474 32V123H486V32H474ZM448 6C462.359 6 474 17.6406 474 32H486C486 11.0132 468.987 -6 448 -6V6ZM32 6H448V-6H32V6Z" fill="#605070" mask="url(#path-1-inside-1_641_306)"/>
<rect x="30" y="30" width="80" height="80" rx="15" fill="#605070"/>
<path fill-rule="evenodd" clip-rule="evenodd" d="M61.1694 62.4186C62.375 61.213 64.0101 60.5357 65.715 60.5357C66.8985 60.5357 67.8579 59.5763 67.8579 58.3928C67.8579 57.2094 66.8985 56.25 65.715 56.25C62.8734 56.25 60.1482 57.3788 58.1389 59.3881C56.1296 61.3974 55.0008 64.1227 55.0008 66.9642V77.6785C55.0008 78.9499 55.3778 80.1928 56.0842 81.25C56.7906 82.3072 57.7946 83.1311 58.9692 83.6177C60.1439 84.1043 61.4365 84.2316 62.6835 83.9835C63.9305 83.7355 65.076 83.1232 65.975 82.2242C66.8741 81.3251 67.4863 80.1797 67.7344 78.9326C67.9824 77.6856 67.8551 76.3931 67.3685 75.2184C66.882 74.0437 66.058 73.0397 65.0008 72.3333C63.9437 71.627 62.7008 71.2499 61.4293 71.2499H59.2865V66.9642C59.2865 65.2593 59.9638 63.6242 61.1694 62.4186Z" fill="white"/>
<path d="M78.3123 62.4186C79.5179 61.213 81.153 60.5357 82.8579 60.5357C84.0414 60.5357 85.0008 59.5763 85.0008 58.3928C85.0008 57.2094 84.0414 56.25 82.8579 56.25C80.0163 56.25 77.2911 57.3788 75.2818 59.3881C73.2725 61.3974 72.1437 64.1226 72.1437 66.9642V77.6785C72.1437 78.9499 72.5207 80.1928 73.2271 81.25C73.9335 82.3072 74.9375 83.1311 76.1121 83.6177C77.2868 84.1043 78.5794 84.2316 79.8264 83.9835C81.0734 83.7355 82.2189 83.1232 83.1179 82.2242C84.017 81.3251 84.6292 80.1797 84.8773 78.9326C85.1253 77.6856 84.998 76.3931 84.5114 75.2184C84.0249 74.0437 83.2009 73.0397 82.1438 72.3333C81.0866 71.627 79.8437 71.2499 78.5722 71.2499H76.4294V66.9642C76.4294 65.2593 77.1067 63.6242 78.3123 62.4186Z" fill="white"/>
<path d="M138.461 45.4883C138.461 45.1992 138.434 44.9414 138.379 44.7148C138.324 44.4805 138.219 44.2656 138.062 44.0703C137.906 43.8672 137.672 43.6641 137.359 43.4609C137.047 43.2578 136.637 43.0469 136.129 42.8281C135.504 42.5703 134.895 42.2891 134.301 41.9844C133.715 41.6719 133.188 41.3125 132.719 40.9062C132.25 40.4922 131.875 40.0078 131.594 39.4531C131.312 38.8906 131.172 38.2344 131.172 37.4844C131.172 36.7578 131.309 36.1016 131.582 35.5156C131.855 34.9219 132.238 34.418 132.73 34.0039C133.223 33.582 133.805 33.2617 134.477 33.043C135.148 32.8164 135.887 32.7031 136.691 32.7031C137.777 32.7031 138.727 32.9258 139.539 33.3711C140.352 33.8086 140.984 34.4258 141.438 35.2227C141.891 36.0117 142.117 36.9336 142.117 37.9883H138.414C138.414 37.5273 138.352 37.125 138.227 36.7812C138.102 36.4297 137.906 36.1562 137.641 35.9609C137.383 35.7578 137.043 35.6562 136.621 35.6562C136.23 35.6562 135.906 35.7383 135.648 35.9023C135.391 36.0664 135.199 36.2891 135.074 36.5703C134.949 36.8516 134.887 37.1641 134.887 37.5078C134.887 37.7812 134.949 38.0234 135.074 38.2344C135.207 38.4453 135.383 38.6406 135.602 38.8203C135.828 39 136.094 39.1719 136.398 39.3359C136.711 39.5 137.047 39.6562 137.406 39.8047C138.172 40.1094 138.852 40.4414 139.445 40.8008C140.047 41.1602 140.547 41.5664 140.945 42.0195C141.352 42.4648 141.656 42.9727 141.859 43.543C142.07 44.1055 142.176 44.7461 142.176 45.4648C142.176 46.1992 142.051 46.8633 141.801 47.457C141.551 48.043 141.191 48.543 140.723 48.957C140.262 49.3711 139.699 49.6875 139.035 49.9062C138.371 50.125 137.629 50.2344 136.809 50.2344C136.035 50.2344 135.289 50.125 134.57 49.9062C133.852 49.6797 133.211 49.3359 132.648 48.875C132.094 48.4141 131.652 47.8242 131.324 47.1055C130.996 46.3867 130.832 45.5312 130.832 44.5391H134.559C134.559 45.0469 134.602 45.4805 134.688 45.8398C134.781 46.1914 134.922 46.4727 135.109 46.6836C135.305 46.8945 135.543 47.0508 135.824 47.1523C136.113 47.2461 136.457 47.293 136.855 47.293C137.262 47.293 137.582 47.2109 137.816 47.0469C138.051 46.8828 138.215 46.668 138.309 46.4023C138.41 46.1289 138.461 45.8242 138.461 45.4883ZM145.949 32.9375H149.078L152.172 44.6797L155.254 32.9375H158.195L153.473 50H150.859L145.949 32.9375ZM144.344 32.9375H147.473L148.012 45.0664V50H144.344V32.9375ZM156.859 32.9375H159.988V50H156.332V45.0664L156.859 32.9375ZM169.082 36.2539L165.66 50H161.688L166.996 32.9375H169.469L169.082 36.2539ZM171.777 50L168.344 36.2539L167.898 32.9375H170.418L175.75 50H171.777ZM171.906 43.6367V46.6484H164.348V43.6367H171.906ZM177.215 32.9375H182.875C184.016 32.9375 184.996 33.1328 185.816 33.5234C186.637 33.9141 187.266 34.4922 187.703 35.2578C188.148 36.0234 188.371 36.9688 188.371 38.0938C188.371 39.0469 188.246 39.8516 187.996 40.5078C187.746 41.1562 187.395 41.6953 186.941 42.125C186.488 42.5547 185.953 42.9023 185.336 43.168L184.152 43.8594H179.641L179.629 40.8477H182.781C183.203 40.8477 183.551 40.75 183.824 40.5547C184.098 40.3594 184.301 40.082 184.434 39.7227C184.574 39.3555 184.645 38.9219 184.645 38.4219C184.645 37.9062 184.578 37.4648 184.445 37.0977C184.32 36.7305 184.129 36.4492 183.871 36.2539C183.621 36.0586 183.289 35.9609 182.875 35.9609H180.941V50H177.215V32.9375ZM184.879 50L181.797 42.418L185.711 42.4062L188.863 49.8242V50H184.879ZM197.195 32.9375V50H193.48V32.9375H197.195ZM201.379 32.9375V35.9609H189.391V32.9375H201.379ZM216.121 44.2695H219.824C219.801 45.5508 219.547 46.6367 219.062 47.5273C218.578 48.418 217.891 49.0938 217 49.5547C216.109 50.0078 215.055 50.2344 213.836 50.2344C212.867 50.2344 212.008 50.0703 211.258 49.7422C210.508 49.4062 209.871 48.9219 209.348 48.2891C208.832 47.6562 208.441 46.8789 208.176 45.957C207.918 45.0352 207.789 43.9805 207.789 42.793V40.1445C207.789 38.9648 207.93 37.9102 208.211 36.9805C208.492 36.0508 208.891 35.2695 209.406 34.6367C209.93 33.9961 210.566 33.5117 211.316 33.1836C212.066 32.8555 212.906 32.6914 213.836 32.6914C215.109 32.6914 216.18 32.9297 217.047 33.4062C217.914 33.8828 218.582 34.5742 219.051 35.4805C219.52 36.3867 219.785 37.4844 219.848 38.7734H216.133C216.141 37.9922 216.07 37.3828 215.922 36.9453C215.781 36.5 215.543 36.1875 215.207 36.0078C214.871 35.8203 214.414 35.7266 213.836 35.7266C213.422 35.7266 213.066 35.8047 212.77 35.9609C212.473 36.1094 212.234 36.3555 212.055 36.6992C211.875 37.043 211.742 37.4961 211.656 38.0586C211.57 38.6211 211.527 39.3086 211.527 40.1211V42.793C211.527 43.6055 211.562 44.293 211.633 44.8555C211.703 45.4102 211.824 45.8633 211.996 46.2148C212.168 46.5586 212.402 46.8086 212.699 46.9648C212.996 47.1211 213.375 47.1992 213.836 47.1992C214.352 47.1992 214.777 47.1211 215.113 46.9648C215.449 46.8008 215.699 46.5078 215.863 46.0859C216.035 45.6641 216.121 45.0586 216.121 44.2695ZM225.672 32.9375V50H221.957V32.9375H225.672ZM235.164 32.9375V50H231.449V32.9375H235.164ZM239.348 32.9375V35.9609H227.359V32.9375H239.348ZM246.098 36.2539L242.676 50H238.703L244.012 32.9375H246.484L246.098 36.2539ZM248.793 50L245.359 36.2539L244.914 32.9375H247.434L252.766 50H248.793ZM248.922 43.6367V46.6484H241.363V43.6367H248.922ZM259.938 32.9375V50H256.223V32.9375H259.938ZM264.121 32.9375V35.9609H252.133V32.9375H264.121ZM269.875 32.9375V50H266.16V32.9375H269.875ZM284.793 40.168V42.8867C284.793 44.0977 284.645 45.1641 284.348 46.0859C284.051 47 283.625 47.7656 283.07 48.3828C282.523 49 281.867 49.4648 281.102 49.7773C280.344 50.082 279.504 50.2344 278.582 50.2344C277.652 50.2344 276.805 50.082 276.039 49.7773C275.273 49.4648 274.613 49 274.059 48.3828C273.504 47.7656 273.074 47 272.77 46.0859C272.473 45.1641 272.324 44.0977 272.324 42.8867V40.168C272.324 38.9414 272.473 37.8633 272.77 36.9336C273.074 35.9961 273.5 35.2188 274.047 34.6016C274.602 33.9766 275.258 33.5039 276.016 33.1836C276.781 32.8633 277.629 32.7031 278.559 32.7031C279.488 32.7031 280.332 32.8633 281.09 33.1836C281.855 33.5039 282.512 33.9766 283.059 34.6016C283.613 35.2188 284.039 35.9961 284.336 36.9336C284.641 37.8633 284.793 38.9414 284.793 40.168ZM281.055 42.8867V40.1445C281.055 39.3555 281 38.6836 280.891 38.1289C280.789 37.5742 280.633 37.1211 280.422 36.7695C280.211 36.418 279.949 36.1602 279.637 35.9961C279.332 35.832 278.973 35.75 278.559 35.75C278.137 35.75 277.77 35.832 277.457 35.9961C277.145 36.1602 276.883 36.418 276.672 36.7695C276.469 37.1211 276.316 37.5742 276.215 38.1289C276.121 38.6836 276.074 39.3555 276.074 40.1445V42.8867C276.074 43.6523 276.125 44.3086 276.227 44.8555C276.328 45.4023 276.484 45.8477 276.695 46.1914C276.906 46.5352 277.168 46.7891 277.48 46.9531C277.793 47.1172 278.16 47.1992 278.582 47.1992C278.988 47.1992 279.344 47.1172 279.648 46.9531C279.961 46.7891 280.219 46.5352 280.422 46.1914C280.633 45.8477 280.789 45.4023 280.891 44.8555C281 44.3086 281.055 43.6523 281.055 42.8867ZM299.184 32.9375V50H295.539L290.711 39.3828V50H287.078V32.9375H290.723L295.562 43.6133V32.9375H299.184Z" fill="#605070"/>
<path d="M143.641 61.7617V73.2051H141.971V61.7617H143.641ZM144.115 75.8066V77.1602H133.34V72.0449H135.027V75.8066H144.115ZM135.098 62.8164C137.471 62.8164 139.281 64.4336 139.281 66.7188C139.281 69.0391 137.471 70.6387 135.098 70.6387C132.725 70.6387 130.896 69.0391 130.896 66.7188C130.896 64.4336 132.725 62.8164 135.098 62.8164ZM135.098 64.2754C133.621 64.2754 132.531 65.2773 132.531 66.7188C132.531 68.1953 133.621 69.1797 135.098 69.1797C136.539 69.1797 137.646 68.1953 137.646 66.7188C137.646 65.2773 136.539 64.2754 135.098 64.2754ZM160.498 69.4258V70.7793H146.137V69.4258H149.582V67.2988C148.369 66.8066 147.684 66.0156 147.684 64.9785C147.684 63.1152 149.846 62.0254 153.309 62.0254C156.754 62.0254 158.934 63.1152 158.934 64.9785C158.934 66.0156 158.239 66.8154 157.018 67.2988V69.4258H160.498ZM153.309 71.8516C156.701 71.8516 158.74 72.8535 158.74 74.6465C158.74 76.4746 156.701 77.459 153.309 77.459C149.881 77.459 147.842 76.4746 147.842 74.6465C147.842 72.8535 149.881 71.8516 153.309 71.8516ZM153.309 73.1348C150.9 73.1348 149.529 73.6797 149.529 74.6465C149.529 75.6309 150.9 76.1934 153.309 76.1758C155.682 76.1934 157.07 75.6309 157.07 74.6465C157.07 73.6797 155.682 73.1348 153.309 73.1348ZM153.309 63.3086C150.865 63.3086 149.389 63.9238 149.406 64.9785C149.389 66.0332 150.865 66.6309 153.309 66.6309C155.752 66.6309 157.211 66.0332 157.211 64.9785C157.211 63.9238 155.752 63.3086 153.309 63.3086ZM151.27 69.4258H155.365V67.7383C154.75 67.8438 154.056 67.8965 153.309 67.8965C152.57 67.8965 151.885 67.8438 151.27 67.7559V69.4258ZM170.869 66.7891V68.1426H167.793V70.1289C169.19 70.0674 170.579 69.9707 171.871 69.8301L171.994 71.0605C168.637 71.5176 164.945 71.6055 161.992 71.6055L161.764 70.2695C163.108 70.2607 164.611 70.2432 166.141 70.1992V68.1426H163.17V62.7461H170.729V64.0996H164.84V66.7891H170.869ZM174.754 61.7441V73.5566H173.084V61.7441H174.754ZM175.246 75.8066V77.1602H164.365V72.7129H166.035V75.8066H175.246ZM187.164 64.9961C187.164 66.8242 188.588 68.5117 190.996 69.1973L190.223 70.498C188.403 69.9619 187.059 68.8545 186.355 67.4219C185.67 69.0039 184.29 70.2256 182.418 70.7969L181.609 69.4961C184.018 68.793 185.512 66.9824 185.512 64.9961V64.8379H182.084V63.502H185.512V61.6738H187.182V63.502H190.592V64.8379H187.164V64.9961ZM194.02 61.7441V65.6465H196.305V67.0352H194.02V71.043H192.35V61.7441H194.02ZM194.02 71.7461V77.3008H183.965V71.7461H194.02ZM185.6 73.0645V75.9473H192.367V73.0645H185.6ZM209.945 63.2559V64.8027C209.945 66.7539 209.945 68.9336 209.348 72.1504L207.66 71.9746C208.275 68.9336 208.275 66.7012 208.275 64.8027V64.6094H198.713V63.2559H209.945ZM211.562 73.9785V75.3672H197.201V73.9785H202.668V68.4238H204.32V73.9785H211.562ZM231.549 69.707V71.0605H225.291V74.1191H223.639V71.0605H217.135V69.707H231.549ZM229.686 62.4824V68.0723H218.98V62.4824H229.686ZM220.615 63.8008V66.7539H228.033V63.8008H220.615ZM229.949 75.8066V77.1602H218.928V72.625H220.598V75.8066H229.949ZM245.84 61.7617V73.6445H244.17V68.5117H241.639V67.1406H244.17V61.7617H245.84ZM241.955 63.5898V64.9434H232.727V63.5898H236.523V61.7441H238.176V63.5898H241.955ZM237.35 65.6992C239.477 65.6992 241.041 66.9121 241.041 68.6699C241.041 70.4102 239.477 71.623 237.35 71.623C235.188 71.623 233.641 70.4102 233.641 68.6699C233.641 66.9121 235.188 65.6992 237.35 65.6992ZM237.35 66.9824C236.102 66.9824 235.24 67.668 235.24 68.6699C235.24 69.6719 236.102 70.3223 237.35 70.3223C238.562 70.3223 239.441 69.6719 239.441 68.6699C239.441 67.668 238.562 66.9824 237.35 66.9824ZM246.191 75.8066V77.1602H235.557V72.6074H237.244V75.8066H246.191ZM255.438 62.0078C258.988 62.0078 261.062 62.957 261.062 64.7148C261.062 66.4727 258.988 67.4395 255.438 67.4395C251.887 67.4395 249.812 66.4727 249.812 64.7148C249.812 62.957 251.887 62.0078 255.438 62.0078ZM255.438 63.2383C252.924 63.2383 251.535 63.7832 251.553 64.7148C251.535 65.6816 252.924 66.1914 255.438 66.1914C257.951 66.1914 259.34 65.6816 259.34 64.7148C259.34 63.7832 257.951 63.2383 255.438 63.2383ZM262.627 68.4062V69.7422H248.266V68.4062H262.627ZM260.816 70.9551V74.6465H251.641V76.0527H261.256V77.3359H250.006V73.4336H259.164V72.2031H249.988V70.9551H260.816ZM280.803 62.4473V63.6953C280.803 64.917 280.803 66.2969 280.451 68.0723H282.561V69.4258H268.234V68.0723H278.781C278.913 67.4219 279.001 66.833 279.062 66.2793L269.834 66.666L269.623 65.3652L279.133 65.1016C279.15 64.6357 279.15 64.2051 279.15 63.7832H270.027V62.4473H280.803ZM280.908 70.7441V74.5586H271.574V75.9824H281.471V77.3008H269.904V73.3105H279.256V72.0273H269.869V70.7441H280.908ZM296.834 61.7617V71.377H295.164V61.7617H296.834ZM296.834 72.1855V77.4941H295.164V73.5566H286.164V72.1855H296.834ZM291.807 62.6758V67.1758H286.234V69.1973C288.985 69.1885 291.016 69.0918 293.406 68.7402L293.617 70.0938C291.051 70.498 288.889 70.5684 285.918 70.5684H284.6V65.875H290.154V64.0293H284.564V62.6758H291.807ZM311.6 61.7441V68.125H314.131V69.5137H311.6V77.4941H309.947V61.7441H311.6ZM308.576 64.2051V65.5762H299.242V64.2051H303.127V61.9551H304.797V64.2051H308.576ZM303.971 66.7363C306.221 66.7363 307.873 68.248 307.891 70.3926C307.873 72.5547 306.221 74.0488 303.971 74.0664C301.703 74.0488 300.051 72.5547 300.051 70.3926C300.051 68.248 301.703 66.7363 303.971 66.7363ZM303.971 68.1074C302.635 68.1074 301.633 69.0391 301.65 70.3926C301.633 71.7637 302.635 72.6777 303.971 72.6602C305.307 72.6777 306.291 71.7637 306.291 70.3926C306.291 69.0391 305.307 68.1074 303.971 68.1074ZM322.92 63.0801V64.416H326.348V61.7617H328.018V73.2402H326.348V69.1621H322.92V70.5332H315.607V63.0801H322.92ZM317.26 64.4336V69.2148H321.285V64.4336H317.26ZM328.369 75.8066V77.1602H317.734V72.1855H319.422V75.8066H328.369ZM322.92 67.791H326.348V65.7871H322.92V67.791ZM340.27 64.2578C340.27 66.332 341.711 68.248 344.066 69.0215L343.17 70.3398C341.447 69.7334 340.155 68.5029 339.479 66.9473C338.784 68.7139 337.448 70.0938 335.611 70.7793L334.715 69.4434C337.176 68.5645 338.6 66.4727 338.617 64.1172V62.5703H340.27V64.2578ZM347.213 61.7441V65.6992H349.498V67.1055H347.213V71.2539H345.543V61.7441H347.213ZM342.133 71.623C345.367 71.623 347.354 72.6953 347.354 74.541C347.354 76.4043 345.367 77.4766 342.133 77.459C338.863 77.4766 336.842 76.4043 336.842 74.541C336.842 72.6953 338.863 71.623 342.133 71.623ZM342.133 72.9414C339.848 72.9414 338.494 73.5391 338.512 74.541C338.494 75.5781 339.848 76.1406 342.133 76.1582C344.4 76.1406 345.719 75.5781 345.719 74.541C345.719 73.5391 344.4 72.9414 342.133 72.9414ZM355.193 66.0508C355.193 68.5645 356.248 71.2539 358.357 72.5371L357.426 73.8203C355.949 72.9326 354.947 71.3594 354.42 69.5312C353.831 71.5352 352.75 73.2402 351.221 74.1719L350.184 72.9238C352.416 71.5879 353.576 68.8105 353.576 66.1211V63.1855H355.193V66.0508ZM363.947 61.7441V77.4941H362.348V61.7441H363.947ZM360.678 62.043V76.7207H359.096V68.6699H356.652V67.2812H359.096V62.043H360.678ZM378.326 61.7617V66.8242H380.611V68.2129H378.326V73.5391H376.656V61.7617H378.326ZM375.355 63.5898V64.9434H365.969V63.5898H369.836V61.7441H371.506V63.5898H375.355ZM370.662 65.6992C372.93 65.6992 374.477 66.877 374.477 68.6699C374.477 70.4629 372.93 71.623 370.662 71.623C368.377 71.623 366.83 70.4629 366.83 68.6699C366.83 66.877 368.377 65.6992 370.662 65.6992ZM370.662 66.9824C369.326 66.9824 368.43 67.6328 368.447 68.6699C368.43 69.6895 369.326 70.3223 370.662 70.3223C371.998 70.3223 372.895 69.6895 372.912 68.6699C372.895 67.6328 371.998 66.9824 370.662 66.9824ZM378.994 75.8066V77.1602H368.342V72.6074H370.012V75.8066H378.994ZM391.422 64.9961C391.422 66.8242 392.846 68.5117 395.254 69.1973L394.48 70.498C392.661 69.9619 391.316 68.8545 390.613 67.4219C389.928 69.0039 388.548 70.2256 386.676 70.7969L385.867 69.4961C388.275 68.793 389.77 66.9824 389.77 64.9961V64.8379H386.342V63.502H389.77V61.6738H391.439V63.502H394.85V64.8379H391.422V64.9961ZM398.277 61.7441V65.6465H400.562V67.0352H398.277V71.043H396.607V61.7441H398.277ZM398.277 71.7461V77.3008H388.223V71.7461H398.277ZM389.857 73.0645V75.9473H396.625V73.0645H389.857ZM414.203 63.2559V64.8027C414.203 66.7539 414.203 68.9336 413.605 72.1504L411.918 71.9746C412.533 68.9336 412.533 66.7012 412.533 64.8027V64.6094H402.971V63.2559H414.203ZM415.82 73.9785V75.3672H401.459V73.9785H406.926V68.4238H408.578V73.9785H415.82ZM143.711 83.7441V93.1133H142.041V89.123H139.105V87.752H142.041V83.7441H143.711ZM138.438 93.5527C141.742 93.5527 143.764 94.6426 143.764 96.5234C143.764 98.4043 141.742 99.4766 138.438 99.4941C135.133 99.4766 133.094 98.4043 133.111 96.5234C133.094 94.6426 135.133 93.5527 138.438 93.5527ZM138.438 94.8535C136.135 94.8535 134.764 95.4512 134.764 96.5234C134.764 97.5781 136.135 98.1934 138.438 98.1758C140.74 98.1934 142.111 97.5781 142.111 96.5234C142.111 95.4512 140.74 94.8535 138.438 94.8535ZM136.223 86.5215C136.223 88.5254 137.646 90.459 140.02 91.2676L139.158 92.5859C137.392 91.9707 136.091 90.7139 135.414 89.1582C134.72 90.9248 133.34 92.3398 131.459 93.0254L130.58 91.6895C133.023 90.8457 134.518 88.7188 134.518 86.5391V86.1875H131.107V84.834H139.598V86.1875H136.223V86.5215ZM160.551 96.1543V97.543H146.137V96.1543H152.482V92.9199H147.789V84.8164H149.459V87.5234H157.193V84.8164H158.846V92.9199H154.135V96.1543H160.551ZM149.459 91.5664H157.193V88.877H149.459V91.5664ZM173.963 83.7441V90.0195H176.406V91.4082H173.963V99.4766H172.293V83.7441H173.963ZM169.85 85.3965C169.832 89.9492 167.828 94.0098 162.643 96.5762L161.711 95.2754C165.657 93.3066 167.802 90.459 168.145 86.7852H162.502V85.3965H169.85ZM194.723 84.4473V85.7832H189.941C190.073 87.3828 192.341 88.7275 195.268 89.0352L194.652 90.3359C191.937 90.0371 189.687 88.8682 188.834 87.1719C187.955 88.8682 185.714 90.0371 182.998 90.3359L182.4 89.0352C185.292 88.71 187.56 87.3652 187.709 85.7832H182.963V84.4473H194.723ZM196.041 91.2676V92.6211H181.645V91.2676H196.041ZM194.248 94.0801V99.4941H192.561V95.4336H183.244V94.0801H194.248ZM202.984 87.752C202.967 90.6348 204.707 93.5176 207.15 94.6074L206.148 95.9258C204.338 95.0645 202.905 93.2979 202.176 91.1445C201.438 93.4473 199.987 95.3545 198.098 96.2773L197.078 94.8711C199.557 93.7637 201.297 90.7578 201.297 87.752V85.0625H202.984V87.752ZM210.244 83.7441V99.5293H208.574V83.7441H210.244ZM231.566 96.2598V97.6309H217.152V96.2598H221.02V92.7617H218.418V91.4082H220.773V86.5039H218.383V85.1328H230.248V86.5039H227.84V91.4082H230.195V92.7617H227.611V96.2598H231.566ZM222.426 91.4082H226.205V86.5039H222.426V91.4082ZM222.689 96.2598H225.941V92.7617H222.689V96.2598ZM238.492 87.752C238.475 90.6348 240.215 93.5176 242.658 94.6074L241.656 95.9258C239.846 95.0645 238.413 93.2979 237.684 91.1445C236.945 93.4473 235.495 95.3545 233.605 96.2773L232.586 94.8711C235.064 93.7637 236.805 90.7578 236.805 87.752V85.0625H238.492V87.752ZM245.752 83.7441V99.5293H244.082V83.7441H245.752ZM261.361 83.7617V92.832H259.674V83.7617H261.361ZM248.301 91.1621C249.602 91.1621 251.122 91.1533 252.695 91.1094V89.5625H249.707V84.5H257.23V85.8711H251.377V88.2441H257.371V89.5625H254.348V91.0391C255.754 90.9688 257.16 90.8633 258.479 90.6875L258.566 91.8652C255.156 92.4453 251.377 92.498 248.547 92.5156L248.301 91.1621ZM252.52 93.5176V95.0293H259.709V93.5176H261.361V99.3008H250.85V93.5176H252.52ZM252.52 97.9473H259.709V96.3125H252.52V97.9473ZM276.9 83.7441V99.4941H275.23V83.7441H276.9ZM266.441 85.2734V94.0449C268.735 94.0273 271.152 93.8428 273.684 93.3242L273.912 94.7305C271.117 95.293 268.586 95.4863 266.107 95.4863H264.789V85.2734H266.441ZM291.648 83.7441V89.8438H294.18V91.2148H291.648V99.5293H289.979V83.7441H291.648ZM287.412 85.2559V86.6094H281.717V94.2207C284.362 94.2119 286.349 94.0977 288.59 93.6934L288.801 95.0996C286.34 95.5391 284.248 95.627 281.312 95.6094H280.047V85.2559H287.412ZM296.729 98.123C296.043 98.123 295.463 97.5605 295.48 96.875C295.463 96.1895 296.043 95.627 296.729 95.627C297.396 95.627 297.977 96.1895 297.977 96.875C297.977 97.5605 297.396 98.123 296.729 98.123Z" fill="#605070"/>
</svg>
