<svg width="480" height="200" viewBox="0 0 480 200" fill="none" xmlns="http://www.w3.org/2000/svg">
<mask id="path-1-inside-1_637_359" fill="white">
<path fill-rule="evenodd" clip-rule="evenodd" d="M32 0C14.3269 0 0 14.3269 0 32V123C0 140.673 14.3269 155 32 155H43.6706L34.3576 192.904C33.1631 197.765 39.0614 201.17 42.6741 197.705L87.2003 155H448C465.673 155 480 140.673 480 123V32C480 14.3269 465.673 0 448 0H32Z"/>
</mask>
<path fill-rule="evenodd" clip-rule="evenodd" d="M32 0C14.3269 0 0 14.3269 0 32V123C0 140.673 14.3269 155 32 155H43.6706L34.3576 192.904C33.1631 197.765 39.0614 201.17 42.6741 197.705L87.2003 155H448C465.673 155 480 140.673 480 123V32C480 14.3269 465.673 0 448 0H32Z" fill="#F6EEFF"/>
<path d="M43.6706 155L49.4973 156.432L51.3233 149H43.6706V155ZM34.3576 192.904L40.1843 194.335L40.1843 194.335L34.3576 192.904ZM42.6741 197.705L38.521 193.375L38.521 193.375L42.6741 197.705ZM87.2003 155V149H84.788L83.0471 150.67L87.2003 155ZM6 32C6 17.6406 17.6406 6 32 6V-6C11.0132 -6 -6 11.0132 -6 32H6ZM6 123V32H-6V123H6ZM32 149C17.6406 149 6 137.359 6 123H-6C-6 143.987 11.0132 161 32 161V149ZM43.6706 149H32V161H43.6706V149ZM40.1843 194.335L49.4973 156.432L37.8439 153.568L28.5309 191.472L40.1843 194.335ZM38.521 193.375C38.6057 193.294 38.8393 193.152 39.1547 193.124C39.4178 193.101 39.6029 193.167 39.7132 193.231C39.8234 193.294 39.9736 193.421 40.085 193.661C40.2186 193.948 40.2123 194.221 40.1843 194.335L28.5309 191.472C25.9031 202.167 38.8793 209.659 46.8273 202.036L38.521 193.375ZM83.0471 150.67L38.521 193.375L46.8273 202.036L91.3535 159.33L83.0471 150.67ZM448 149H87.2003V161H448V149ZM474 123C474 137.359 462.359 149 448 149V161C468.987 161 486 143.987 486 123H474ZM474 32V123H486V32H474ZM448 6C462.359 6 474 17.6406 474 32H486C486 11.0132 468.987 -6 448 -6V6ZM32 6H448V-6H32V6Z" fill="#605070" mask="url(#path-1-inside-1_637_359)"/>
<rect x="30" y="30" width="80" height="80" rx="15" fill="#605070"/>
<path d="M60.3077 65.8462C60.3077 62.7873 62.7873 60.3077 65.8462 60.3077H82.4615C85.5203 60.3077 88 62.7873 88 65.8462V82.4615C88 85.5204 85.5203 88 82.4615 88H65.8462C62.7873 88 60.3077 85.5204 60.3077 82.4615V65.8462Z" fill="white"/>
<path d="M79.6923 60.3077V57.5385C79.6923 54.4796 77.2127 52 74.1538 52H57.5385C54.4797 52 52 54.4796 52 57.5385V74.1538C52 77.2127 54.4797 79.6923 57.5385 79.6923H60.3077M65.8462 88H82.4615C85.5203 88 88 85.5204 88 82.4615V65.8462C88 62.7873 85.5203 60.3077 82.4615 60.3077H65.8462C62.7873 60.3077 60.3077 62.7873 60.3077 65.8462V82.4615C60.3077 85.5204 62.7873 88 65.8462 88Z" stroke="white" stroke-width="3.27273" stroke-miterlimit="16" stroke-linecap="round"/>
<path d="M65.0869 80.8979C65.0869 81.4766 65.3168 82.0315 65.726 82.4407C66.1351 82.8499 66.6901 83.0797 67.2687 83.0797C69.4506 83.0797 69.4506 78.7161 70.5415 73.2615C71.6324 67.807 71.6324 63.4434 73.8142 63.4434C74.3928 63.4434 74.9478 63.6732 75.357 64.0824C75.7661 64.4916 75.996 65.0465 75.996 65.6252M66.7233 71.6252H74.9051M76.5415 76.5343L79.8142 79.807M83.0869 83.0797L79.8142 79.807M76.5415 83.0797L79.8142 79.807M83.0869 76.5343L79.8142 79.807" stroke="#605070" stroke-width="2.45455" stroke-linecap="round" stroke-linejoin="round"/>
<path d="M140.898 46.9883V50H133.762V46.9883H140.898ZM134.992 32.9375V50H131.266V32.9375H134.992ZM149.301 36.2539L145.879 50H141.906L147.215 32.9375H149.688L149.301 36.2539ZM151.996 50L148.562 36.2539L148.117 32.9375H150.637L155.969 50H151.996ZM152.125 43.6367V46.6484H144.566V43.6367H152.125ZM163.141 32.9375V50H159.426V32.9375H163.141ZM167.324 32.9375V35.9609H155.336V32.9375H167.324ZM179.125 46.9883V50H171.684V46.9883H179.125ZM172.914 32.9375V50H169.188V32.9375H172.914ZM178.141 39.7812V42.6875H171.684V39.7812H178.141ZM179.125 32.9375V35.9609H171.684V32.9375H179.125ZM184.281 32.9375L186.473 38.6094L188.582 32.9375H192.754L188.781 41.3867L192.836 50H188.559L186.379 44.2109L184.188 50H179.945L184.047 41.3516L180.039 32.9375H184.281ZM203.664 32.9375V50H199.938V32.9375H203.664ZM208.949 40.1094V43.1094H202.691V40.1094H208.949ZM209.523 32.9375V35.9609H202.691V32.9375H209.523ZM218.945 32.9375H222.672V44.5977C222.672 45.918 222.43 46.9961 221.945 47.832C221.469 48.6602 220.805 49.2695 219.953 49.6602C219.102 50.043 218.113 50.2344 216.988 50.2344C215.855 50.2344 214.859 50.043 214 49.6602C213.141 49.2695 212.469 48.6602 211.984 47.832C211.508 46.9961 211.27 45.918 211.27 44.5977V32.9375H215.008V44.5977C215.008 45.3242 215.082 45.8789 215.23 46.2617C215.379 46.6367 215.598 46.8906 215.887 47.0234C216.184 47.1562 216.551 47.2227 216.988 47.2227C217.434 47.2227 217.797 47.1562 218.078 47.0234C218.367 46.8906 218.582 46.6367 218.723 46.2617C218.871 45.8789 218.945 45.3242 218.945 44.5977V32.9375ZM237.238 32.9375V50H233.594L228.766 39.3828V50H225.133V32.9375H228.777L233.617 43.6133V32.9375H237.238ZM247.832 44.2695H251.535C251.512 45.5508 251.258 46.6367 250.773 47.5273C250.289 48.418 249.602 49.0938 248.711 49.5547C247.82 50.0078 246.766 50.2344 245.547 50.2344C244.578 50.2344 243.719 50.0703 242.969 49.7422C242.219 49.4062 241.582 48.9219 241.059 48.2891C240.543 47.6562 240.152 46.8789 239.887 45.957C239.629 45.0352 239.5 43.9805 239.5 42.793V40.1445C239.5 38.9648 239.641 37.9102 239.922 36.9805C240.203 36.0508 240.602 35.2695 241.117 34.6367C241.641 33.9961 242.277 33.5117 243.027 33.1836C243.777 32.8555 244.617 32.6914 245.547 32.6914C246.82 32.6914 247.891 32.9297 248.758 33.4062C249.625 33.8828 250.293 34.5742 250.762 35.4805C251.23 36.3867 251.496 37.4844 251.559 38.7734H247.844C247.852 37.9922 247.781 37.3828 247.633 36.9453C247.492 36.5 247.254 36.1875 246.918 36.0078C246.582 35.8203 246.125 35.7266 245.547 35.7266C245.133 35.7266 244.777 35.8047 244.48 35.9609C244.184 36.1094 243.945 36.3555 243.766 36.6992C243.586 37.043 243.453 37.4961 243.367 38.0586C243.281 38.6211 243.238 39.3086 243.238 40.1211V42.793C243.238 43.6055 243.273 44.293 243.344 44.8555C243.414 45.4102 243.535 45.8633 243.707 46.2148C243.879 46.5586 244.113 46.8086 244.41 46.9648C244.707 47.1211 245.086 47.1992 245.547 47.1992C246.062 47.1992 246.488 47.1211 246.824 46.9648C247.16 46.8008 247.41 46.5078 247.574 46.0859C247.746 45.6641 247.832 45.0586 247.832 44.2695ZM260.266 32.9375V50H256.551V32.9375H260.266ZM264.449 32.9375V35.9609H252.461V32.9375H264.449ZM270.203 32.9375V50H266.488V32.9375H270.203ZM285.121 40.168V42.8867C285.121 44.0977 284.973 45.1641 284.676 46.0859C284.379 47 283.953 47.7656 283.398 48.3828C282.852 49 282.195 49.4648 281.43 49.7773C280.672 50.082 279.832 50.2344 278.91 50.2344C277.98 50.2344 277.133 50.082 276.367 49.7773C275.602 49.4648 274.941 49 274.387 48.3828C273.832 47.7656 273.402 47 273.098 46.0859C272.801 45.1641 272.652 44.0977 272.652 42.8867V40.168C272.652 38.9414 272.801 37.8633 273.098 36.9336C273.402 35.9961 273.828 35.2188 274.375 34.6016C274.93 33.9766 275.586 33.5039 276.344 33.1836C277.109 32.8633 277.957 32.7031 278.887 32.7031C279.816 32.7031 280.66 32.8633 281.418 33.1836C282.184 33.5039 282.84 33.9766 283.387 34.6016C283.941 35.2188 284.367 35.9961 284.664 36.9336C284.969 37.8633 285.121 38.9414 285.121 40.168ZM281.383 42.8867V40.1445C281.383 39.3555 281.328 38.6836 281.219 38.1289C281.117 37.5742 280.961 37.1211 280.75 36.7695C280.539 36.418 280.277 36.1602 279.965 35.9961C279.66 35.832 279.301 35.75 278.887 35.75C278.465 35.75 278.098 35.832 277.785 35.9961C277.473 36.1602 277.211 36.418 277 36.7695C276.797 37.1211 276.645 37.5742 276.543 38.1289C276.449 38.6836 276.402 39.3555 276.402 40.1445V42.8867C276.402 43.6523 276.453 44.3086 276.555 44.8555C276.656 45.4023 276.812 45.8477 277.023 46.1914C277.234 46.5352 277.496 46.7891 277.809 46.9531C278.121 47.1172 278.488 47.1992 278.91 47.1992C279.316 47.1992 279.672 47.1172 279.977 46.9531C280.289 46.7891 280.547 46.5352 280.75 46.1914C280.961 45.8477 281.117 45.4023 281.219 44.8555C281.328 44.3086 281.383 43.6523 281.383 42.8867ZM299.512 32.9375V50H295.867L291.039 39.3828V50H287.406V32.9375H291.051L295.891 43.6133V32.9375H299.512ZM309.25 45.4883C309.25 45.1992 309.223 44.9414 309.168 44.7148C309.113 44.4805 309.008 44.2656 308.852 44.0703C308.695 43.8672 308.461 43.6641 308.148 43.4609C307.836 43.2578 307.426 43.0469 306.918 42.8281C306.293 42.5703 305.684 42.2891 305.09 41.9844C304.504 41.6719 303.977 41.3125 303.508 40.9062C303.039 40.4922 302.664 40.0078 302.383 39.4531C302.102 38.8906 301.961 38.2344 301.961 37.4844C301.961 36.7578 302.098 36.1016 302.371 35.5156C302.645 34.9219 303.027 34.418 303.52 34.0039C304.012 33.582 304.594 33.2617 305.266 33.043C305.938 32.8164 306.676 32.7031 307.48 32.7031C308.566 32.7031 309.516 32.9258 310.328 33.3711C311.141 33.8086 311.773 34.4258 312.227 35.2227C312.68 36.0117 312.906 36.9336 312.906 37.9883H309.203C309.203 37.5273 309.141 37.125 309.016 36.7812C308.891 36.4297 308.695 36.1562 308.43 35.9609C308.172 35.7578 307.832 35.6562 307.41 35.6562C307.02 35.6562 306.695 35.7383 306.438 35.9023C306.18 36.0664 305.988 36.2891 305.863 36.5703C305.738 36.8516 305.676 37.1641 305.676 37.5078C305.676 37.7812 305.738 38.0234 305.863 38.2344C305.996 38.4453 306.172 38.6406 306.391 38.8203C306.617 39 306.883 39.1719 307.188 39.3359C307.5 39.5 307.836 39.6562 308.195 39.8047C308.961 40.1094 309.641 40.4414 310.234 40.8008C310.836 41.1602 311.336 41.5664 311.734 42.0195C312.141 42.4648 312.445 42.9727 312.648 43.543C312.859 44.1055 312.965 44.7461 312.965 45.4648C312.965 46.1992 312.84 46.8633 312.59 47.457C312.34 48.043 311.98 48.543 311.512 48.957C311.051 49.3711 310.488 49.6875 309.824 49.9062C309.16 50.125 308.418 50.2344 307.598 50.2344C306.824 50.2344 306.078 50.125 305.359 49.9062C304.641 49.6797 304 49.3359 303.438 48.875C302.883 48.4141 302.441 47.8242 302.113 47.1055C301.785 46.3867 301.621 45.5312 301.621 44.5391H305.348C305.348 45.0469 305.391 45.4805 305.477 45.8398C305.57 46.1914 305.711 46.4727 305.898 46.6836C306.094 46.8945 306.332 47.0508 306.613 47.1523C306.902 47.2461 307.246 47.293 307.645 47.293C308.051 47.293 308.371 47.2109 308.605 47.0469C308.84 46.8828 309.004 46.668 309.098 46.4023C309.199 46.1289 309.25 45.8242 309.25 45.4883Z" fill="#605070"/>
<path d="M131.301 76V63.2734H133.234V68.793H139.562V63.2734H141.496V76H139.562V70.4453H133.234V76H131.301ZM147.982 76.1934C145.275 76.1934 143.518 74.2246 143.518 71.2715C143.518 68.3008 145.275 66.332 147.982 66.332C150.672 66.332 152.43 68.3008 152.43 71.2715C152.43 74.2246 150.672 76.1934 147.982 76.1934ZM147.982 74.6289C149.705 74.6289 150.531 73.0996 150.531 71.2715C150.531 69.4434 149.705 67.8789 147.982 67.8789C146.225 67.8789 145.398 69.4434 145.398 71.2715C145.398 73.0996 146.225 74.6289 147.982 74.6289ZM162.133 66.4551L158.67 76H156.648L153.186 66.4551H155.207L157.615 73.7852H157.703L160.111 66.4551H162.133ZM167.441 76.1934C164.629 76.1934 162.906 74.2598 162.906 71.2891C162.906 68.3535 164.664 66.332 167.318 66.332C169.498 66.332 171.555 67.6855 171.555 71.1309V71.7988H164.77C164.822 73.6094 165.886 74.6465 167.459 74.6465C168.531 74.6465 169.217 74.1895 169.533 73.6094H171.432C171.01 75.1562 169.533 76.1934 167.441 76.1934ZM164.787 70.3926H169.709C169.709 68.9336 168.777 67.8789 167.336 67.8789C165.833 67.8789 164.857 69.0391 164.787 70.3926ZM173.418 76V66.4551H175.229V67.9668H175.334C175.686 66.9473 176.635 66.3145 177.76 66.3145C177.988 66.3145 178.357 66.332 178.551 66.3496V68.1426C178.393 68.1074 177.953 68.0371 177.566 68.0371C176.266 68.0371 175.299 68.9336 175.299 70.1816V76H173.418ZM188.395 76.1934C185.688 76.1934 183.93 74.2246 183.93 71.2715C183.93 68.3008 185.688 66.332 188.395 66.332C191.084 66.332 192.842 68.3008 192.842 71.2715C192.842 74.2246 191.084 76.1934 188.395 76.1934ZM188.395 74.6289C190.117 74.6289 190.943 73.0996 190.943 71.2715C190.943 69.4434 190.117 67.8789 188.395 67.8789C186.637 67.8789 185.811 69.4434 185.811 71.2715C185.811 73.0996 186.637 74.6289 188.395 74.6289ZM202.545 66.4551L199.082 76H197.061L193.598 66.4551H195.619L198.027 73.7852H198.115L200.523 66.4551H202.545ZM207.854 76.1934C205.041 76.1934 203.318 74.2598 203.318 71.2891C203.318 68.3535 205.076 66.332 207.73 66.332C209.91 66.332 211.967 67.6855 211.967 71.1309V71.7988H205.182C205.234 73.6094 206.298 74.6465 207.871 74.6465C208.943 74.6465 209.629 74.1895 209.945 73.6094H211.844C211.422 75.1562 209.945 76.1934 207.854 76.1934ZM205.199 70.3926H210.121C210.121 68.9336 209.189 67.8789 207.748 67.8789C206.245 67.8789 205.27 69.0391 205.199 70.3926ZM213.83 76V66.4551H215.641V67.9668H215.746C216.098 66.9473 217.047 66.3145 218.172 66.3145C218.4 66.3145 218.77 66.332 218.963 66.3496V68.1426C218.805 68.1074 218.365 68.0371 217.979 68.0371C216.678 68.0371 215.711 68.9336 215.711 70.1816V76H213.83ZM224.922 76V63.2734H226.785V68.002H226.891C227.242 67.4043 227.875 66.332 229.633 66.332C231.936 66.332 233.658 68.1426 233.658 71.2539C233.658 74.3301 231.971 76.1934 229.65 76.1934C227.91 76.1934 227.242 75.1387 226.891 74.5059H226.75V76H224.922ZM226.75 71.2188C226.75 73.2227 227.646 74.5938 229.229 74.5938C230.881 74.5938 231.742 73.1348 231.742 71.2188C231.742 69.3379 230.898 67.9316 229.229 67.9316C227.629 67.9316 226.75 69.2324 226.75 71.2188ZM237.402 63.2734V76H235.521V63.2734H237.402ZM243.73 76.1934C241.023 76.1934 239.266 74.2246 239.266 71.2715C239.266 68.3008 241.023 66.332 243.73 66.332C246.42 66.332 248.178 68.3008 248.178 71.2715C248.178 74.2246 246.42 76.1934 243.73 76.1934ZM243.73 74.6289C245.453 74.6289 246.279 73.0996 246.279 71.2715C246.279 69.4434 245.453 67.8789 243.73 67.8789C241.973 67.8789 241.146 69.4434 241.146 71.2715C241.146 73.0996 241.973 74.6289 243.73 74.6289ZM254.066 76.1934C251.289 76.1934 249.602 74.1367 249.602 71.2715C249.602 68.3535 251.342 66.332 254.031 66.332C256.211 66.332 257.793 67.6152 257.986 69.5488H256.158C255.965 68.6523 255.244 67.8965 254.066 67.8965C252.52 67.8965 251.482 69.1797 251.482 71.2188C251.482 73.3105 252.502 74.5938 254.066 74.5938C255.121 74.5938 255.93 74.0137 256.158 72.9766H257.986C257.775 74.8223 256.316 76.1934 254.066 76.1934ZM259.762 76V63.2734H261.643V70.4805H261.801L265.58 66.4551H267.83L263.98 70.5508L268.094 76H265.791L262.557 71.7109L261.643 72.6074V76H259.762ZM277.814 76.1934C275.002 76.1934 273.279 74.2598 273.279 71.2891C273.279 68.3535 275.037 66.332 277.691 66.332C279.871 66.332 281.928 67.6855 281.928 71.1309V71.7988H275.143C275.195 73.6094 276.259 74.6465 277.832 74.6465C278.904 74.6465 279.59 74.1895 279.906 73.6094H281.805C281.383 75.1562 279.906 76.1934 277.814 76.1934ZM275.16 70.3926H280.082C280.082 68.9336 279.15 67.8789 277.709 67.8789C276.206 67.8789 275.23 69.0391 275.16 70.3926ZM290.225 79.5859V74.5059H290.137C289.785 75.1387 289.1 76.1934 287.359 76.1934C285.057 76.1934 283.369 74.3301 283.369 71.2539C283.369 68.1426 285.074 66.332 287.377 66.332C289.152 66.332 289.803 67.4043 290.137 68.002H290.277V66.4551H292.105V79.5859H290.225ZM287.781 74.5938C289.381 74.5938 290.277 73.2227 290.277 71.2188C290.277 69.2324 289.398 67.9316 287.781 67.9316C286.111 67.9316 285.285 69.3379 285.285 71.2188C285.285 73.1348 286.146 74.5938 287.781 74.5938ZM300.455 72.0273V66.4551H302.318V76H300.49V74.3477H300.385C299.945 75.3672 298.961 76.123 297.537 76.123C295.691 76.123 294.391 74.8926 294.391 72.5195V66.4551H296.271V72.291C296.271 73.5918 297.062 74.418 298.205 74.418C299.242 74.418 300.455 73.6621 300.455 72.0273ZM304.164 73.3105C304.164 71.1309 306.01 70.5684 307.732 70.4453C308.365 70.4014 309.798 70.3223 310.246 70.3047L310.229 69.5488C310.229 68.4766 309.578 67.8438 308.295 67.8438C307.188 67.8438 306.52 68.3535 306.326 69.0566H304.463C304.639 67.4746 306.115 66.332 308.365 66.332C309.877 66.332 312.109 66.8945 312.109 69.6543V76H310.281V74.6992H310.211C309.842 75.4199 308.963 76.2109 307.381 76.2109C305.57 76.2109 304.164 75.1738 304.164 73.3105ZM305.992 73.3281C305.992 74.2422 306.748 74.7168 307.803 74.7168C309.332 74.7168 310.246 73.6973 310.246 72.5547V71.6758L307.996 71.834C306.766 71.9219 305.992 72.3789 305.992 73.3281ZM318.842 66.4551V67.9492H316.891V73.1875C316.891 74.2598 317.436 74.4531 318.033 74.4707C318.297 74.4707 318.719 74.4355 318.982 74.418V76.0527C318.719 76.0879 318.314 76.123 317.805 76.123C316.328 76.123 315.01 75.3145 315.027 73.5742V67.9492H313.621V66.4551H315.027V64.1699H316.891V66.4551H318.842ZM320.67 76V66.4551H322.551V76H320.67ZM321.619 64.9785C320.969 64.9785 320.424 64.4863 320.424 63.8711C320.424 63.2559 320.969 62.7637 321.619 62.7637C322.252 62.7637 322.797 63.2559 322.797 63.8711C322.797 64.4863 322.252 64.9785 321.619 64.9785ZM328.879 76.1934C326.172 76.1934 324.414 74.2246 324.414 71.2715C324.414 68.3008 326.172 66.332 328.879 66.332C331.568 66.332 333.326 68.3008 333.326 71.2715C333.326 74.2246 331.568 76.1934 328.879 76.1934ZM328.879 74.6289C330.602 74.6289 331.428 73.0996 331.428 71.2715C331.428 69.4434 330.602 67.8789 328.879 67.8789C327.121 67.8789 326.295 69.4434 326.295 71.2715C326.295 73.0996 327.121 74.6289 328.879 74.6289ZM337.053 70.3398V76H335.172V66.4551H336.982V68.0195H337.088C337.545 67 338.477 66.332 339.9 66.332C341.869 66.332 343.152 67.5625 343.152 69.9355V76H341.289V70.1641C341.289 68.7754 340.533 67.9492 339.268 67.9492C337.984 67.9492 337.053 68.8105 337.053 70.3398ZM350.799 69.0566C350.623 68.3008 350.025 67.8086 348.988 67.8086C347.916 67.8086 347.143 68.3711 347.16 69.0918C347.143 69.6543 347.6 70.0586 348.654 70.3047L350.166 70.6562C351.924 71.043 352.768 71.8867 352.785 73.2402C352.768 74.9629 351.326 76.1934 348.883 76.1934C346.598 76.1934 345.227 75.1738 344.998 73.3984H346.914C347.072 74.2598 347.74 74.6816 348.865 74.6816C350.078 74.6816 350.852 74.1895 350.869 73.3809C350.852 72.7656 350.395 72.3613 349.393 72.1328L347.898 71.8164C346.176 71.4297 345.279 70.5156 345.279 69.1973C345.279 67.4922 346.756 66.332 348.971 66.332C351.098 66.332 352.416 67.4219 352.609 69.0566H350.799ZM358.568 73.3105C358.568 71.1309 360.414 70.5684 362.137 70.4453C362.77 70.4014 364.202 70.3223 364.65 70.3047L364.633 69.5488C364.633 68.4766 363.982 67.8438 362.699 67.8438C361.592 67.8438 360.924 68.3535 360.73 69.0566H358.867C359.043 67.4746 360.52 66.332 362.77 66.332C364.281 66.332 366.514 66.8945 366.514 69.6543V76H364.686V74.6992H364.615C364.246 75.4199 363.367 76.2109 361.785 76.2109C359.975 76.2109 358.568 75.1738 358.568 73.3105ZM360.396 73.3281C360.396 74.2422 361.152 74.7168 362.207 74.7168C363.736 74.7168 364.65 73.6973 364.65 72.5547V71.6758L362.4 71.834C361.17 71.9219 360.396 72.3789 360.396 73.3281ZM370.662 70.3398V76H368.781V66.4551H370.592V68.0195H370.697C371.154 67 372.086 66.332 373.51 66.332C375.479 66.332 376.762 67.5625 376.762 69.9355V76H374.898V70.1641C374.898 68.7754 374.143 67.9492 372.877 67.9492C371.594 67.9492 370.662 68.8105 370.662 70.3398ZM382.615 76.1934C380.312 76.1934 378.625 74.3301 378.625 71.2539C378.625 68.1426 380.33 66.332 382.633 66.332C384.408 66.332 385.059 67.4043 385.393 68.002H385.48V63.2734H387.361V76H385.533V74.5059H385.393C385.041 75.1387 384.355 76.1934 382.615 76.1934ZM383.037 74.5938C384.637 74.5938 385.533 73.2227 385.533 71.2188C385.533 69.2324 384.654 67.9316 383.037 67.9316C381.367 67.9316 380.541 69.3379 380.541 71.2188C380.541 73.1348 381.402 74.5938 383.037 74.5938ZM398.242 76.1934C395.465 76.1934 393.777 74.1367 393.777 71.2715C393.777 68.3535 395.518 66.332 398.207 66.332C400.387 66.332 401.969 67.6152 402.162 69.5488H400.334C400.141 68.6523 399.42 67.8965 398.242 67.8965C396.695 67.8965 395.658 69.1797 395.658 71.2188C395.658 73.3105 396.678 74.5938 398.242 74.5938C399.297 74.5938 400.105 74.0137 400.334 72.9766H402.162C401.951 74.8223 400.492 76.1934 398.242 76.1934ZM405.818 63.2734V76H403.938V63.2734H405.818ZM408.104 76V66.4551H409.984V76H408.104ZM409.053 64.9785C408.402 64.9785 407.857 64.4863 407.857 63.8711C407.857 63.2559 408.402 62.7637 409.053 62.7637C409.686 62.7637 410.23 63.2559 410.23 63.8711C410.23 64.4863 409.686 64.9785 409.053 64.9785ZM416.312 76.1934C413.535 76.1934 411.848 74.1367 411.848 71.2715C411.848 68.3535 413.588 66.332 416.277 66.332C418.457 66.332 420.039 67.6152 420.232 69.5488H418.404C418.211 68.6523 417.49 67.8965 416.312 67.8965C414.766 67.8965 413.729 69.1797 413.729 71.2188C413.729 73.3105 414.748 74.5938 416.312 74.5938C417.367 74.5938 418.176 74.0137 418.404 72.9766H420.232C420.021 74.8223 418.562 76.1934 416.312 76.1934ZM422.008 76V63.2734H423.889V70.4805H424.047L427.826 66.4551H430.076L426.227 70.5508L430.34 76H428.037L424.803 71.7109L423.889 72.6074V76H422.008ZM135.607 88.4551V89.9492H133.656V95.1875C133.656 96.2598 134.201 96.4531 134.799 96.4707C135.062 96.4707 135.484 96.4355 135.748 96.418V98.0527C135.484 98.0879 135.08 98.123 134.57 98.123C133.094 98.123 131.775 97.3145 131.793 95.5742V89.9492H130.387V88.4551H131.793V86.1699H133.656V88.4551H135.607ZM141.373 98.1934C138.666 98.1934 136.908 96.2246 136.908 93.2715C136.908 90.3008 138.666 88.332 141.373 88.332C144.062 88.332 145.82 90.3008 145.82 93.2715C145.82 96.2246 144.062 98.1934 141.373 98.1934ZM141.373 96.6289C143.096 96.6289 143.922 95.0996 143.922 93.2715C143.922 91.4434 143.096 89.8789 141.373 89.8789C139.615 89.8789 138.789 91.4434 138.789 93.2715C138.789 95.0996 139.615 96.6289 141.373 96.6289ZM156.104 98.1934C153.326 98.1934 151.639 96.1367 151.639 93.2715C151.639 90.3535 153.379 88.332 156.068 88.332C158.248 88.332 159.83 89.6152 160.023 91.5488H158.195C158.002 90.6523 157.281 89.8965 156.104 89.8965C154.557 89.8965 153.52 91.1797 153.52 93.2188C153.52 95.3105 154.539 96.5938 156.104 96.5938C157.158 96.5938 157.967 96.0137 158.195 94.9766H160.023C159.812 96.8223 158.354 98.1934 156.104 98.1934ZM165.842 98.1934C163.135 98.1934 161.377 96.2246 161.377 93.2715C161.377 90.3008 163.135 88.332 165.842 88.332C168.531 88.332 170.289 90.3008 170.289 93.2715C170.289 96.2246 168.531 98.1934 165.842 98.1934ZM165.842 96.6289C167.564 96.6289 168.391 95.0996 168.391 93.2715C168.391 91.4434 167.564 89.8789 165.842 89.8789C164.084 89.8789 163.258 91.4434 163.258 93.2715C163.258 95.0996 164.084 96.6289 165.842 96.6289ZM172.135 101.586V88.4551H173.963V90.002H174.121C174.455 89.4043 175.105 88.332 176.863 88.332C179.166 88.332 180.871 90.1426 180.871 93.2539C180.871 96.3301 179.201 98.1934 176.881 98.1934C175.141 98.1934 174.455 97.1387 174.121 96.5059H174.016V101.586H172.135ZM173.98 93.2188C173.98 95.2227 174.859 96.5938 176.459 96.5938C178.111 96.5938 178.973 95.1348 178.973 93.2188C178.973 91.3379 178.129 89.9316 176.459 89.9316C174.842 89.9316 173.98 91.2324 173.98 93.2188ZM183.561 101.586C183.174 101.586 182.805 101.568 182.559 101.533V99.9688C182.77 99.9863 183.139 100.004 183.402 100.004C183.982 100.004 184.475 99.9512 184.914 98.7559L185.143 98.123L181.645 88.4551H183.648L186.057 95.8555H186.162L188.57 88.4551H190.592L186.654 99.2656C186.109 100.777 185.125 101.586 183.561 101.586ZM200.98 88.4551V89.9492H199.029V95.1875C199.029 96.2598 199.574 96.4531 200.172 96.4707C200.436 96.4707 200.857 96.4355 201.121 96.418V98.0527C200.857 98.0879 200.453 98.123 199.943 98.123C198.467 98.123 197.148 97.3145 197.166 95.5742V89.9492H195.76V88.4551H197.166V86.1699H199.029V88.4551H200.98ZM204.9 92.3398V98H203.02V85.2734H204.865V90.0195H204.988C205.445 88.9824 206.324 88.332 207.818 88.332C209.787 88.332 211.088 89.5449 211.088 91.9355V98H209.207V92.1641C209.207 90.7578 208.451 89.9492 207.186 89.9492C205.867 89.9492 204.9 90.8105 204.9 92.3398ZM217.469 98.1934C214.656 98.1934 212.934 96.2598 212.934 93.2891C212.934 90.3535 214.691 88.332 217.346 88.332C219.525 88.332 221.582 89.6855 221.582 93.1309V93.7988H214.797C214.85 95.6094 215.913 96.6465 217.486 96.6465C218.559 96.6465 219.244 96.1895 219.561 95.6094H221.459C221.037 97.1562 219.561 98.1934 217.469 98.1934ZM214.814 92.3926H219.736C219.736 90.9336 218.805 89.8789 217.363 89.8789C215.86 89.8789 214.885 91.0391 214.814 92.3926ZM232.393 88.4551V89.9492H230.336V98H228.455V89.9492H226.979V88.4551H228.455V87.3477C228.455 85.6426 229.545 84.6758 231.303 84.6758C231.76 84.6758 232.217 84.7285 232.586 84.7988V86.3633C232.234 86.3105 231.971 86.293 231.795 86.293C230.793 86.293 230.336 86.6973 230.336 87.6289V88.4551H232.393ZM240.162 94.0273V88.4551H242.025V98H240.197V96.3477H240.092C239.652 97.3672 238.668 98.123 237.244 98.123C235.398 98.123 234.098 96.8926 234.098 94.5195V88.4551H235.979V94.291C235.979 95.5918 236.77 96.418 237.912 96.418C238.949 96.418 240.162 95.6621 240.162 94.0273ZM246.191 92.3398V98H244.311V88.4551H246.121V90.0195H246.227C246.684 89 247.615 88.332 249.039 88.332C251.008 88.332 252.291 89.5625 252.291 91.9355V98H250.428V92.1641C250.428 90.7754 249.672 89.9492 248.406 89.9492C247.123 89.9492 246.191 90.8105 246.191 92.3398ZM258.619 98.1934C255.842 98.1934 254.154 96.1367 254.154 93.2715C254.154 90.3535 255.895 88.332 258.584 88.332C260.764 88.332 262.346 89.6152 262.539 91.5488H260.711C260.518 90.6523 259.797 89.8965 258.619 89.8965C257.072 89.8965 256.035 91.1797 256.035 93.2188C256.035 95.3105 257.055 96.5938 258.619 96.5938C259.674 96.5938 260.482 96.0137 260.711 94.9766H262.539C262.328 96.8223 260.869 98.1934 258.619 98.1934ZM268.779 88.4551V89.9492H266.828V95.1875C266.828 96.2598 267.373 96.4531 267.971 96.4707C268.234 96.4707 268.656 96.4355 268.92 96.418V98.0527C268.656 98.0879 268.252 98.123 267.742 98.123C266.266 98.123 264.947 97.3145 264.965 95.5742V89.9492H263.559V88.4551H264.965V86.1699H266.828V88.4551H268.779ZM270.607 98V88.4551H272.488V98H270.607ZM271.557 86.9785C270.906 86.9785 270.361 86.4863 270.361 85.8711C270.361 85.2559 270.906 84.7637 271.557 84.7637C272.189 84.7637 272.734 85.2559 272.734 85.8711C272.734 86.4863 272.189 86.9785 271.557 86.9785ZM278.816 98.1934C276.109 98.1934 274.352 96.2246 274.352 93.2715C274.352 90.3008 276.109 88.332 278.816 88.332C281.506 88.332 283.264 90.3008 283.264 93.2715C283.264 96.2246 281.506 98.1934 278.816 98.1934ZM278.816 96.6289C280.539 96.6289 281.365 95.0996 281.365 93.2715C281.365 91.4434 280.539 89.8789 278.816 89.8789C277.059 89.8789 276.232 91.4434 276.232 93.2715C276.232 95.0996 277.059 96.6289 278.816 96.6289ZM286.99 92.3398V98H285.109V88.4551H286.92V90.0195H287.025C287.482 89 288.414 88.332 289.838 88.332C291.807 88.332 293.09 89.5625 293.09 91.9355V98H291.227V92.1641C291.227 90.7754 290.471 89.9492 289.205 89.9492C287.922 89.9492 286.99 90.8105 286.99 92.3398ZM299.77 98V88.4551H301.65V98H299.77ZM300.719 86.9785C300.068 86.9785 299.523 86.4863 299.523 85.8711C299.523 85.2559 300.068 84.7637 300.719 84.7637C301.352 84.7637 301.896 85.2559 301.896 85.8711C301.896 86.4863 301.352 86.9785 300.719 86.9785ZM305.816 92.3398V98H303.936V88.4551H305.746V90.0195H305.852C306.309 89 307.24 88.332 308.664 88.332C310.633 88.332 311.916 89.5625 311.916 91.9355V98H310.053V92.1641C310.053 90.7754 309.297 89.9492 308.031 89.9492C306.748 89.9492 305.816 90.8105 305.816 92.3398ZM318.754 98V85.2734H320.688V96.3301H326.436V98H318.754ZM327.824 95.3105C327.824 93.1309 329.67 92.5684 331.393 92.4453C332.025 92.4014 333.458 92.3223 333.906 92.3047L333.889 91.5488C333.889 90.4766 333.238 89.8438 331.955 89.8438C330.848 89.8438 330.18 90.3535 329.986 91.0566H328.123C328.299 89.4746 329.775 88.332 332.025 88.332C333.537 88.332 335.77 88.8945 335.77 91.6543V98H333.941V96.6992H333.871C333.502 97.4199 332.623 98.2109 331.041 98.2109C329.23 98.2109 327.824 97.1738 327.824 95.3105ZM329.652 95.3281C329.652 96.2422 330.408 96.7168 331.463 96.7168C332.992 96.7168 333.906 95.6973 333.906 94.5547V93.6758L331.656 93.834C330.426 93.9219 329.652 94.3789 329.652 95.3281ZM336.754 86.9434V85.2734H346.615V86.9434H342.66V98H340.727V86.9434H336.754ZM351.15 98.1934C348.338 98.1934 346.615 96.2598 346.615 93.2891C346.615 90.3535 348.373 88.332 351.027 88.332C353.207 88.332 355.264 89.6855 355.264 93.1309V93.7988H348.479C348.531 95.6094 349.595 96.6465 351.168 96.6465C352.24 96.6465 352.926 96.1895 353.242 95.6094H355.141C354.719 97.1562 353.242 98.1934 351.15 98.1934ZM348.496 92.3926H353.418C353.418 90.9336 352.486 89.8789 351.045 89.8789C349.542 89.8789 348.566 91.0391 348.496 92.3926ZM358.639 85.2734L361.662 90.2305H361.768L364.809 85.2734H367.041L363.068 91.6367L367.076 98H364.809L361.768 93.0957H361.662L358.604 98H356.354L360.414 91.6367L356.371 85.2734H358.639ZM377.535 88.4551V89.9492H375.479V98H373.598V89.9492H372.121V88.4551H373.598V87.3477C373.598 85.6426 374.688 84.6758 376.445 84.6758C376.902 84.6758 377.359 84.7285 377.729 84.7988V86.3633C377.377 86.3105 377.113 86.293 376.938 86.293C375.936 86.293 375.479 86.6973 375.479 87.6289V88.4551H377.535ZM382.896 98.1934C380.189 98.1934 378.432 96.2246 378.432 93.2715C378.432 90.3008 380.189 88.332 382.896 88.332C385.586 88.332 387.344 90.3008 387.344 93.2715C387.344 96.2246 385.586 98.1934 382.896 98.1934ZM382.896 96.6289C384.619 96.6289 385.445 95.0996 385.445 93.2715C385.445 91.4434 384.619 89.8789 382.896 89.8789C381.139 89.8789 380.312 91.4434 380.312 93.2715C380.312 95.0996 381.139 96.6289 382.896 96.6289ZM389.189 98V88.4551H391V89.9668H391.105C391.457 88.9473 392.406 88.3145 393.531 88.3145C393.76 88.3145 394.129 88.332 394.322 88.3496V90.1426C394.164 90.1074 393.725 90.0371 393.338 90.0371C392.037 90.0371 391.07 90.9336 391.07 92.1816V98H389.189ZM395.729 98V88.4551H397.539V90.0195H397.645C398.049 88.9473 398.98 88.332 400.246 88.332C401.512 88.332 402.408 88.9648 402.812 90.0195H402.918C403.375 88.9824 404.395 88.332 405.783 88.332C407.506 88.332 408.736 89.4219 408.736 91.6016V98H406.855V91.7773C406.855 90.4941 406.047 89.9492 405.062 89.9492C403.85 89.9492 403.164 90.7754 403.164 91.918V98H401.301V91.6719C401.301 90.6348 400.58 89.9492 399.561 89.9492C398.506 89.9492 397.609 90.8281 397.609 92.1113V98H395.729ZM419.441 98.1934C416.734 98.1934 414.977 96.2246 414.977 93.2715C414.977 90.3008 416.734 88.332 419.441 88.332C422.131 88.332 423.889 90.3008 423.889 93.2715C423.889 96.2246 422.131 98.1934 419.441 98.1934ZM419.441 96.6289C421.164 96.6289 421.99 95.0996 421.99 93.2715C421.99 91.4434 421.164 89.8789 419.441 89.8789C417.684 89.8789 416.857 91.4434 416.857 93.2715C416.857 95.0996 417.684 96.6289 419.441 96.6289ZM425.734 98V88.4551H427.545V89.9668H427.65C428.002 88.9473 428.951 88.3145 430.076 88.3145C430.305 88.3145 430.674 88.332 430.867 88.3496V90.1426C430.709 90.1074 430.27 90.0371 429.883 90.0371C428.582 90.0371 427.615 90.9336 427.615 92.1816V98H425.734ZM135.186 120.193C132.408 120.193 130.721 118.137 130.721 115.271C130.721 112.354 132.461 110.332 135.15 110.332C137.33 110.332 138.912 111.615 139.105 113.549H137.277C137.084 112.652 136.363 111.896 135.186 111.896C133.639 111.896 132.602 113.18 132.602 115.219C132.602 117.311 133.621 118.594 135.186 118.594C136.24 118.594 137.049 118.014 137.277 116.977H139.105C138.895 118.822 137.436 120.193 135.186 120.193ZM142.762 107.273V120H140.881V107.273H142.762ZM145.047 120V110.455H146.928V120H145.047ZM145.996 108.979C145.346 108.979 144.801 108.486 144.801 107.871C144.801 107.256 145.346 106.764 145.996 106.764C146.629 106.764 147.174 107.256 147.174 107.871C147.174 108.486 146.629 108.979 145.996 108.979ZM153.256 120.193C150.479 120.193 148.791 118.137 148.791 115.271C148.791 112.354 150.531 110.332 153.221 110.332C155.4 110.332 156.982 111.615 157.176 113.549H155.348C155.154 112.652 154.434 111.896 153.256 111.896C151.709 111.896 150.672 113.18 150.672 115.219C150.672 117.311 151.691 118.594 153.256 118.594C154.311 118.594 155.119 118.014 155.348 116.977H157.176C156.965 118.822 155.506 120.193 153.256 120.193ZM158.951 120V107.273H160.832V114.48H160.99L164.77 110.455H167.02L163.17 114.551L167.283 120H164.98L161.746 115.711L160.832 116.607V120H158.951ZM208.205 110.455V111.949H206.148V120H204.268V111.949H202.791V110.455H204.268V109.348C204.268 107.643 205.357 106.676 207.115 106.676C207.572 106.676 208.029 106.729 208.398 106.799V108.363C208.047 108.311 207.783 108.293 207.607 108.293C206.605 108.293 206.148 108.697 206.148 109.629V110.455H208.205ZM213.566 120.193C210.859 120.193 209.102 118.225 209.102 115.271C209.102 112.301 210.859 110.332 213.566 110.332C216.256 110.332 218.014 112.301 218.014 115.271C218.014 118.225 216.256 120.193 213.566 120.193ZM213.566 118.629C215.289 118.629 216.115 117.1 216.115 115.271C216.115 113.443 215.289 111.879 213.566 111.879C211.809 111.879 210.982 113.443 210.982 115.271C210.982 117.1 211.809 118.629 213.566 118.629ZM219.859 120V110.455H221.67V111.967H221.775C222.127 110.947 223.076 110.314 224.201 110.314C224.43 110.314 224.799 110.332 224.992 110.35V112.143C224.834 112.107 224.395 112.037 224.008 112.037C222.707 112.037 221.74 112.934 221.74 114.182V120H219.859ZM234.906 120.193C232.094 120.193 230.371 118.26 230.371 115.289C230.371 112.354 232.129 110.332 234.783 110.332C236.963 110.332 239.02 111.686 239.02 115.131V115.799H232.234C232.287 117.609 233.351 118.646 234.924 118.646C235.996 118.646 236.682 118.189 236.998 117.609H238.896C238.475 119.156 236.998 120.193 234.906 120.193ZM232.252 114.393H237.174C237.174 112.934 236.242 111.879 234.801 111.879C233.298 111.879 232.322 113.039 232.252 114.393ZM242.148 110.455L244.24 114.164L246.35 110.455H248.406L245.436 115.219L248.424 120H246.385L244.24 116.432L242.113 120H240.057L243.01 115.219L240.074 110.455H242.148ZM250.111 123.586V110.455H251.939V112.002H252.098C252.432 111.404 253.082 110.332 254.84 110.332C257.143 110.332 258.848 112.143 258.848 115.254C258.848 118.33 257.178 120.193 254.857 120.193C253.117 120.193 252.432 119.139 252.098 118.506H251.992V123.586H250.111ZM251.957 115.219C251.957 117.223 252.836 118.594 254.436 118.594C256.088 118.594 256.949 117.135 256.949 115.219C256.949 113.338 256.105 111.932 254.436 111.932C252.818 111.932 251.957 113.232 251.957 115.219ZM262.592 107.273V120H260.711V107.273H262.592ZM264.438 117.311C264.438 115.131 266.283 114.568 268.006 114.445C268.639 114.401 270.071 114.322 270.52 114.305L270.502 113.549C270.502 112.477 269.852 111.844 268.568 111.844C267.461 111.844 266.793 112.354 266.6 113.057H264.736C264.912 111.475 266.389 110.332 268.639 110.332C270.15 110.332 272.383 110.895 272.383 113.654V120H270.555V118.699H270.484C270.115 119.42 269.236 120.211 267.654 120.211C265.844 120.211 264.438 119.174 264.438 117.311ZM266.266 117.328C266.266 118.242 267.021 118.717 268.076 118.717C269.605 118.717 270.52 117.697 270.52 116.555V115.676L268.27 115.834C267.039 115.922 266.266 116.379 266.266 117.328ZM276.531 114.34V120H274.65V110.455H276.461V112.02H276.566C277.023 111 277.955 110.332 279.379 110.332C281.348 110.332 282.631 111.562 282.631 113.936V120H280.768V114.164C280.768 112.775 280.012 111.949 278.746 111.949C277.463 111.949 276.531 112.811 276.531 114.34ZM284.477 117.311C284.477 115.131 286.322 114.568 288.045 114.445C288.678 114.401 290.11 114.322 290.559 114.305L290.541 113.549C290.541 112.477 289.891 111.844 288.607 111.844C287.5 111.844 286.832 112.354 286.639 113.057H284.775C284.951 111.475 286.428 110.332 288.678 110.332C290.189 110.332 292.422 110.895 292.422 113.654V120H290.594V118.699H290.523C290.154 119.42 289.275 120.211 287.693 120.211C285.883 120.211 284.477 119.174 284.477 117.311ZM286.305 117.328C286.305 118.242 287.061 118.717 288.115 118.717C289.645 118.717 290.559 117.697 290.559 116.555V115.676L288.309 115.834C287.078 115.922 286.305 116.379 286.305 117.328ZM299.154 110.455V111.949H297.203V117.188C297.203 118.26 297.748 118.453 298.346 118.471C298.609 118.471 299.031 118.436 299.295 118.418V120.053C299.031 120.088 298.627 120.123 298.117 120.123C296.641 120.123 295.322 119.314 295.34 117.574V111.949H293.934V110.455H295.34V108.17H297.203V110.455H299.154ZM300.982 120V110.455H302.863V120H300.982ZM301.932 108.979C301.281 108.979 300.736 108.486 300.736 107.871C300.736 107.256 301.281 106.764 301.932 106.764C302.564 106.764 303.109 107.256 303.109 107.871C303.109 108.486 302.564 108.979 301.932 108.979ZM309.191 120.193C306.484 120.193 304.727 118.225 304.727 115.271C304.727 112.301 306.484 110.332 309.191 110.332C311.881 110.332 313.639 112.301 313.639 115.271C313.639 118.225 311.881 120.193 309.191 120.193ZM309.191 118.629C310.914 118.629 311.74 117.1 311.74 115.271C311.74 113.443 310.914 111.879 309.191 111.879C307.434 111.879 306.607 113.443 306.607 115.271C306.607 117.1 307.434 118.629 309.191 118.629ZM317.365 114.34V120H315.484V110.455H317.295V112.02H317.4C317.857 111 318.789 110.332 320.213 110.332C322.182 110.332 323.465 111.562 323.465 113.936V120H321.602V114.164C321.602 112.775 320.846 111.949 319.58 111.949C318.297 111.949 317.365 112.811 317.365 114.34ZM326.98 120.123C326.295 120.123 325.715 119.561 325.732 118.875C325.715 118.189 326.295 117.627 326.98 117.627C327.648 117.627 328.229 118.189 328.229 118.875C328.229 119.561 327.648 120.123 326.98 120.123Z" fill="#605070"/>
<path d="M177 110.008V108.008C177 107.477 177.211 106.969 177.586 106.594C177.961 106.219 178.47 106.008 179 106.008H181M177 118.008V120.008C177 120.538 177.211 121.047 177.586 121.422C177.961 121.797 178.47 122.008 179 122.008H181M189 106.008H191C191.53 106.008 192.039 106.219 192.414 106.594C192.789 106.969 193 107.477 193 108.008V110.008" stroke="#605070" stroke-width="2" stroke-linecap="round" stroke-linejoin="round"/>
<path d="M191.667 120.682L188.333 117.349M181 114.016C181 114.541 181.103 115.061 181.304 115.546C181.506 116.032 181.8 116.473 182.172 116.844C182.543 117.215 182.984 117.51 183.469 117.711C183.955 117.912 184.475 118.016 185 118.016C185.525 118.016 186.045 117.912 186.531 117.711C187.016 117.51 187.457 117.215 187.828 116.844C188.2 116.473 188.495 116.032 188.696 115.546C188.897 115.061 189 114.541 189 114.016C189 112.955 188.579 111.937 187.828 111.187C187.078 110.437 186.061 110.016 185 110.016C183.939 110.016 182.922 110.437 182.172 111.187C181.421 111.937 181 112.955 181 114.016Z" stroke="#605070" stroke-width="2" stroke-linecap="round" stroke-linejoin="round"/>
<path d="M441.692 67.1538C441.692 65.7944 442.794 64.6923 444.154 64.6923H451.538C452.898 64.6923 454 65.7944 454 67.1538V74.5385C454 75.8979 452.898 77 451.538 77H444.154C442.794 77 441.692 75.8979 441.692 74.5385V67.1538Z" fill="#605070"/>
<path d="M450.308 64.6923V63.4615C450.308 62.1021 449.206 61 447.846 61H440.462C439.102 61 438 62.1021 438 63.4615V70.8462C438 72.2056 439.102 73.3077 440.462 73.3077H441.692M444.154 77H451.538C452.898 77 454 75.8979 454 74.5385V67.1538C454 65.7944 452.898 64.6923 451.538 64.6923H444.154C442.794 64.6923 441.692 65.7944 441.692 67.1538V74.5385C441.692 75.8979 442.794 77 444.154 77Z" stroke="#605070" stroke-width="1.45455" stroke-miterlimit="16" stroke-linecap="round"/>
<path d="M443.817 73.8425C443.817 74.0997 443.919 74.3464 444.101 74.5282C444.283 74.7101 444.529 74.8122 444.786 74.8122C445.756 74.8122 445.756 72.8728 446.241 70.4486C446.726 68.0244 446.726 66.085 447.696 66.085C447.953 66.085 448.199 66.1871 448.381 66.369C448.563 66.5508 448.665 66.7975 448.665 67.0547M444.544 69.7213H448.18M448.908 71.9031L450.362 73.3577M451.817 74.8122L450.362 73.3577M448.908 74.8122L450.362 73.3577M451.817 71.9031L450.362 73.3577" stroke="white" stroke-width="1.09091" stroke-linecap="round" stroke-linejoin="round"/>
</svg>
