<svg width="480" height="200" viewBox="0 0 480 200" fill="none" xmlns="http://www.w3.org/2000/svg">
<mask id="path-1-inside-1_641_457" fill="white">
<path fill-rule="evenodd" clip-rule="evenodd" d="M32 0C14.3269 0 0 14.3269 0 32V123C0 140.673 14.3269 155 32 155H404.425L448.951 197.705C452.564 201.17 458.462 197.765 457.267 192.904L447.954 155H448C465.673 155 480 140.673 480 123V32C480 14.3269 465.673 0 448 0H32Z"/>
</mask>
<path fill-rule="evenodd" clip-rule="evenodd" d="M32 0C14.3269 0 0 14.3269 0 32V123C0 140.673 14.3269 155 32 155H404.425L448.951 197.705C452.564 201.17 458.462 197.765 457.267 192.904L447.954 155H448C465.673 155 480 140.673 480 123V32C480 14.3269 465.673 0 448 0H32Z" fill="#F6EEFF"/>
<path d="M404.425 155L408.578 150.67L406.837 149H404.425V155ZM448.951 197.705L453.104 193.375L453.104 193.375L448.951 197.705ZM457.267 192.904L451.441 194.335L451.441 194.335L457.267 192.904ZM447.954 155V149H440.302L442.128 156.432L447.954 155ZM6 32C6 17.6406 17.6406 6 32 6V-6C11.0132 -6 -6 11.0132 -6 32H6ZM6 123V32H-6V123H6ZM32 149C17.6406 149 6 137.359 6 123H-6C-6 143.987 11.0132 161 32 161V149ZM404.425 149H32V161H404.425V149ZM400.272 159.33L444.798 202.036L453.104 193.375L408.578 150.67L400.272 159.33ZM444.798 202.036C452.746 209.659 465.722 202.167 463.094 191.472L451.441 194.335C451.413 194.221 451.406 193.948 451.54 193.661C451.651 193.421 451.802 193.294 451.912 193.231C452.022 193.167 452.207 193.101 452.47 193.124C452.786 193.152 453.019 193.294 453.104 193.375L444.798 202.036ZM463.094 191.472L453.781 153.568L442.128 156.432L451.441 194.335L463.094 191.472ZM448 149H447.954V161H448V149ZM474 123C474 137.359 462.359 149 448 149V161C468.987 161 486 143.987 486 123H474ZM474 32V123H486V32H474ZM448 6C462.359 6 474 17.6406 474 32H486C486 11.0132 468.987 -6 448 -6V6ZM32 6H448V-6H32V6Z" fill="#605070" mask="url(#path-1-inside-1_641_457)"/>
<rect x="30" y="30" width="80" height="80" rx="15" fill="#605070"/>
<path d="M49.5459 59.7898V54.6761C49.5459 53.3199 50.0847 52.0192 51.0436 51.0602C52.0026 50.1013 53.3033 49.5625 54.6595 49.5625H59.7732M49.5459 80.2443V85.358C49.5459 86.7142 50.0847 88.0148 51.0436 88.9738C52.0026 89.9328 53.3033 90.4716 54.6595 90.4716H59.7732M80.2277 49.5625H85.3413C86.6976 49.5625 87.9982 50.1013 88.9572 51.0602C89.9162 52.0192 90.455 53.3199 90.455 54.6761V59.7898" stroke="white" stroke-width="3.6" stroke-linecap="round" stroke-linejoin="round"/>
<path d="M87.0452 87.0696L78.5225 78.5469M59.7725 70.0242C59.7725 71.3672 60.037 72.6971 60.551 73.938C61.0649 75.1788 61.8183 76.3062 62.768 77.2559C63.7176 78.2056 64.8451 78.959 66.0859 79.4729C67.3268 79.9869 68.6567 80.2514 69.9997 80.2514C71.3428 80.2514 72.6727 79.9869 73.9135 79.4729C75.1544 78.959 76.2818 78.2056 77.2315 77.2559C78.1812 76.3062 78.9345 75.1788 79.4485 73.938C79.9625 72.6971 80.227 71.3672 80.227 70.0242C80.227 67.3117 79.1495 64.7104 77.2315 62.7924C75.3135 60.8744 72.7122 59.7969 69.9997 59.7969C67.2873 59.7969 64.6859 60.8744 62.768 62.7924C60.85 64.7104 59.7725 67.3117 59.7725 70.0242Z" stroke="white" stroke-width="3.6" stroke-linecap="round" stroke-linejoin="round"/>
<path d="M138.391 32.9375V50H134.676V32.9375H138.391ZM142.574 32.9375V35.9609H130.586V32.9375H142.574ZM154.375 46.9883V50H146.934V46.9883H154.375ZM148.164 32.9375V50H144.438V32.9375H148.164ZM153.391 39.7812V42.6875H146.934V39.7812H153.391ZM154.375 32.9375V35.9609H146.934V32.9375H154.375ZM159.531 32.9375L161.723 38.6094L163.832 32.9375H168.004L164.031 41.3867L168.086 50H163.809L161.629 44.2109L159.438 50H155.195L159.297 41.3516L155.289 32.9375H159.531ZM176.781 32.9375V50H173.066V32.9375H176.781ZM180.965 32.9375V35.9609H168.977V32.9375H180.965ZM197.594 46.9883V50H190.152V46.9883H197.594ZM191.383 32.9375V50H187.656V32.9375H191.383ZM196.609 39.7812V42.6875H190.152V39.7812H196.609ZM197.594 32.9375V35.9609H190.152V32.9375H197.594ZM202.75 32.9375L204.941 38.6094L207.051 32.9375H211.223L207.25 41.3867L211.305 50H207.027L204.848 44.2109L202.656 50H198.414L202.516 41.3516L198.508 32.9375H202.75ZM218.77 44.1055H215.312V41.082H218.77C219.215 41.082 219.574 40.9805 219.848 40.7773C220.121 40.5664 220.32 40.2812 220.445 39.9219C220.57 39.5547 220.633 39.1406 220.633 38.6797C220.633 38.1953 220.57 37.7461 220.445 37.332C220.32 36.918 220.121 36.5859 219.848 36.3359C219.574 36.0859 219.215 35.9609 218.77 35.9609H216.602V50H212.875V32.9375H218.77C219.934 32.9375 220.934 33.1836 221.77 33.6758C222.613 34.168 223.262 34.8438 223.715 35.7031C224.168 36.5625 224.395 37.5469 224.395 38.6562C224.395 39.7578 224.168 40.7148 223.715 41.5273C223.262 42.3398 222.613 42.9727 221.77 43.4258C220.934 43.8789 219.934 44.1055 218.77 44.1055ZM236.242 46.9883V50H229.105V46.9883H236.242ZM230.336 32.9375V50H226.609V32.9375H230.336ZM244.645 36.2539L241.223 50H237.25L242.559 32.9375H245.031L244.645 36.2539ZM247.34 50L243.906 36.2539L243.461 32.9375H245.98L251.312 50H247.34ZM247.469 43.6367V46.6484H239.91V43.6367H247.469ZM264.871 32.9375V50H261.227L256.398 39.3828V50H252.766V32.9375H256.41L261.25 43.6133V32.9375H264.871ZM273.941 36.2539L270.52 50H266.547L271.855 32.9375H274.328L273.941 36.2539ZM276.637 50L273.203 36.2539L272.758 32.9375H275.277L280.609 50H276.637ZM276.766 43.6367V46.6484H269.207V43.6367H276.766ZM287.781 32.9375V50H284.066V32.9375H287.781ZM291.965 32.9375V35.9609H279.977V32.9375H291.965ZM297.719 32.9375V50H294.004V32.9375H297.719ZM312.637 40.168V42.8867C312.637 44.0977 312.488 45.1641 312.191 46.0859C311.895 47 311.469 47.7656 310.914 48.3828C310.367 49 309.711 49.4648 308.945 49.7773C308.188 50.082 307.348 50.2344 306.426 50.2344C305.496 50.2344 304.648 50.082 303.883 49.7773C303.117 49.4648 302.457 49 301.902 48.3828C301.348 47.7656 300.918 47 300.613 46.0859C300.316 45.1641 300.168 44.0977 300.168 42.8867V40.168C300.168 38.9414 300.316 37.8633 300.613 36.9336C300.918 35.9961 301.344 35.2188 301.891 34.6016C302.445 33.9766 303.102 33.5039 303.859 33.1836C304.625 32.8633 305.473 32.7031 306.402 32.7031C307.332 32.7031 308.176 32.8633 308.934 33.1836C309.699 33.5039 310.355 33.9766 310.902 34.6016C311.457 35.2188 311.883 35.9961 312.18 36.9336C312.484 37.8633 312.637 38.9414 312.637 40.168ZM308.898 42.8867V40.1445C308.898 39.3555 308.844 38.6836 308.734 38.1289C308.633 37.5742 308.477 37.1211 308.266 36.7695C308.055 36.418 307.793 36.1602 307.48 35.9961C307.176 35.832 306.816 35.75 306.402 35.75C305.98 35.75 305.613 35.832 305.301 35.9961C304.988 36.1602 304.727 36.418 304.516 36.7695C304.312 37.1211 304.16 37.5742 304.059 38.1289C303.965 38.6836 303.918 39.3555 303.918 40.1445V42.8867C303.918 43.6523 303.969 44.3086 304.07 44.8555C304.172 45.4023 304.328 45.8477 304.539 46.1914C304.75 46.5352 305.012 46.7891 305.324 46.9531C305.637 47.1172 306.004 47.1992 306.426 47.1992C306.832 47.1992 307.188 47.1172 307.492 46.9531C307.805 46.7891 308.062 46.5352 308.266 46.1914C308.477 45.8477 308.633 45.4023 308.734 44.8555C308.844 44.3086 308.898 43.6523 308.898 42.8867ZM327.027 32.9375V50H323.383L318.555 39.3828V50H314.922V32.9375H318.566L323.406 43.6133V32.9375H327.027Z" fill="#605070"/>
<path d="M137.277 62.8516V64.1875H132.883V66.0332H136.662V67.3164H132.883V69.3027C134.957 69.2939 136.337 69.2236 137.945 68.916L138.104 70.252C136.293 70.5859 134.799 70.6387 132.303 70.6387H131.283V62.8516H137.277ZM144.01 72.2207V77.4941H142.357V73.5566H133.252V72.2207H144.01ZM144.01 61.7617V71.5H142.428V61.7617H144.01ZM140.916 62.0781V71.3945H139.334V67.2109H137.383V65.8398H139.334V62.0781H140.916ZM154.135 63.9766C154.135 66.543 156.877 68.9688 159.9 69.5137L159.127 70.9023C156.613 70.3574 154.293 68.7051 153.273 66.4902C152.236 68.6875 149.925 70.3398 147.402 70.9023L146.664 69.5137C149.652 68.9512 152.377 66.543 152.377 63.9766V62.7812H154.135V63.9766ZM160.551 74.0312V75.4199H146.137V74.0312H160.551ZM174.473 70.1289V71.4648H163.504V63.0449H174.314V64.3984H165.191V66.5254H173.98V67.8438H165.191V70.1289H174.473ZM176.107 74.1367V75.5078H161.693V74.1367H176.107ZM191.646 68.9688V70.252H177.232V68.9688H191.646ZM189.871 71.3594V74.8223H180.625V76.123H190.363V77.3008H178.955V73.7148H188.219V72.5547H178.938V71.3594H189.871ZM189.836 62.1484V65.5586H180.73V66.7539H190.1V67.9316H179.078V64.4512H188.166V63.3262H179.043V62.1484H189.836ZM202.756 64.627C202.756 66.7539 204.18 68.8281 206.553 69.6543L205.639 70.9551C203.916 70.2959 202.633 68.9951 201.965 67.3516C201.279 69.1797 199.935 70.6211 198.08 71.3242L197.184 70.0059C199.627 69.127 201.086 66.9473 201.104 64.5742V62.7109H202.756V64.627ZM210.332 61.7617V73.5039H208.662V66.7188H205.34V65.3477H208.662V61.7617H210.332ZM210.684 75.8066V77.1602H200.049V72.1855H201.736V75.8066H210.684ZM219.561 62.8691V64.2227H215.008V65.9805H219.385V67.2637H215.008V69.1797C217.117 69.1621 218.506 69.083 220.123 68.7754L220.281 70.1465C218.436 70.498 216.941 70.5684 214.428 70.5508H213.408V62.8691H219.561ZM226.188 61.7617V71.3242H224.605V67.123H222.672V71.2012H221.107V62.043H222.672V65.7695H224.605V61.7617H226.188ZM226.188 72.0801V77.4941H224.535V73.4336H215.482V72.0801H226.188ZM240.584 61.7441V68.125H243.115V69.5137H240.584V77.4941H238.932V61.7441H240.584ZM237.561 64.2051V65.5762H228.227V64.2051H232.111V61.9551H233.781V64.2051H237.561ZM232.955 66.7363C235.205 66.7363 236.857 68.248 236.875 70.3926C236.857 72.5547 235.205 74.0488 232.955 74.0664C230.688 74.0488 229.035 72.5547 229.035 70.3926C229.035 68.248 230.688 66.7363 232.955 66.7363ZM232.955 68.1074C231.619 68.1074 230.617 69.0391 230.635 70.3926C230.617 71.7637 231.619 72.6777 232.955 72.6602C234.291 72.6777 235.275 71.7637 235.275 70.3926C235.275 69.0391 234.291 68.1074 232.955 68.1074ZM248.143 62.9219C249.575 62.9219 250.762 63.748 251.465 65.1719H255.35V61.7441H257.002V77.5293H255.35V71.4824H251.57C250.894 73.0645 249.654 73.9785 248.143 73.9785C245.787 73.9785 244.135 71.834 244.152 68.4414C244.135 65.0664 245.787 62.9219 248.143 62.9219ZM248.143 64.416C246.719 64.416 245.734 65.9629 245.734 68.4414C245.734 70.9375 246.719 72.4844 248.143 72.4844C249.566 72.4844 250.551 70.9375 250.551 68.4414C250.551 65.9629 249.566 64.416 248.143 64.416ZM251.939 66.543C252.054 67.123 252.133 67.7559 252.133 68.4414C252.133 69.0391 252.08 69.5928 251.975 70.1113H255.35V66.543H251.939ZM276.531 66.6133V67.791H265.668V62.0254H276.426V63.2207H267.355V64.3105H276.021V65.4531H267.355V66.6133H276.531ZM278.166 68.8281V70.0762H271.82V71.2891H276.373V74.8223H267.197V76.1055H276.812V77.3359H265.562V73.6621H274.721V72.4844H265.545V71.2891H270.15V70.0762H263.84V68.8281H278.166ZM291.648 61.7441V67.8438H294.18V69.25H291.648V77.4941H289.979V61.7441H291.648ZM281.629 63.0625V67.1055H285.795V63.0625H287.447V73.75H279.977V63.0625H281.629ZM281.629 72.3789H285.795V68.4238H281.629V72.3789ZM309.332 68.9688V70.252H294.918V68.9688H309.332ZM307.557 71.3594V74.8223H298.311V76.123H308.049V77.3008H296.641V73.7148H305.904V72.5547H296.623V71.3594H307.557ZM307.521 62.1484V65.5586H298.416V66.7539H307.785V67.9316H296.764V64.4512H305.852V63.3262H296.729V62.1484H307.521ZM320.354 65.752C320.336 68.5469 321.953 71.3945 324.309 72.5371L323.271 73.873C321.558 72.9854 320.23 71.2188 319.545 69.1094C318.833 71.3594 317.453 73.2402 315.66 74.1719L314.623 72.8184C317.049 71.6582 318.684 68.6348 318.684 65.752V63.0625H320.354V65.752ZM327.156 61.7441V68.0195H329.688V69.4434H327.156V77.4941H325.486V61.7441H327.156ZM344.805 69.4258V70.7793H330.443V69.4258H333.889V67.2988C332.676 66.8066 331.99 66.0156 331.99 64.9785C331.99 63.1152 334.152 62.0254 337.615 62.0254C341.061 62.0254 343.24 63.1152 343.24 64.9785C343.24 66.0156 342.546 66.8154 341.324 67.2988V69.4258H344.805ZM337.615 71.8516C341.008 71.8516 343.047 72.8535 343.047 74.6465C343.047 76.4746 341.008 77.459 337.615 77.459C334.188 77.459 332.148 76.4746 332.148 74.6465C332.148 72.8535 334.188 71.8516 337.615 71.8516ZM337.615 73.1348C335.207 73.1348 333.836 73.6797 333.836 74.6465C333.836 75.6309 335.207 76.1934 337.615 76.1758C339.988 76.1934 341.377 75.6309 341.377 74.6465C341.377 73.6797 339.988 73.1348 337.615 73.1348ZM337.615 63.3086C335.172 63.3086 333.695 63.9238 333.713 64.9785C333.695 66.0332 335.172 66.6309 337.615 66.6309C340.059 66.6309 341.518 66.0332 341.518 64.9785C341.518 63.9238 340.059 63.3086 337.615 63.3086ZM335.576 69.4258H339.672V67.7383C339.057 67.8438 338.362 67.8965 337.615 67.8965C336.877 67.8965 336.191 67.8438 335.576 67.7559V69.4258ZM358.27 61.7441V68.125H360.801V69.5137H358.27V77.4941H356.617V61.7441H358.27ZM355.246 64.2051V65.5762H345.912V64.2051H349.797V61.9551H351.467V64.2051H355.246ZM350.641 66.7363C352.891 66.7363 354.543 68.248 354.561 70.3926C354.543 72.5547 352.891 74.0488 350.641 74.0664C348.373 74.0488 346.721 72.5547 346.721 70.3926C346.721 68.248 348.373 66.7363 350.641 66.7363ZM350.641 68.1074C349.305 68.1074 348.303 69.0391 348.32 70.3926C348.303 71.7637 349.305 72.6777 350.641 72.6602C351.977 72.6777 352.961 71.7637 352.961 70.3926C352.961 69.0391 351.977 68.1074 350.641 68.1074ZM366.355 66.0508C366.355 68.5645 367.41 71.2539 369.52 72.5371L368.588 73.8203C367.111 72.9326 366.109 71.3594 365.582 69.5312C364.993 71.5352 363.912 73.2402 362.383 74.1719L361.346 72.9238C363.578 71.5879 364.738 68.8105 364.738 66.1211V63.1855H366.355V66.0508ZM375.109 61.7441V77.4941H373.51V61.7441H375.109ZM371.84 62.043V76.7207H370.258V68.6699H367.814V67.2812H370.258V62.043H371.84ZM391.527 74.1367V75.5254H377.113V74.1367H380.559V70.0234C379.267 69.3115 378.484 68.1777 378.484 66.7715C378.484 64.293 380.91 62.6582 384.285 62.6582C387.678 62.6582 390.104 64.293 390.104 66.7715C390.104 68.1602 389.348 69.2764 388.082 69.9883V74.1367H391.527ZM384.285 63.9941C381.807 63.9941 380.102 65.0664 380.102 66.7715C380.102 68.459 381.807 69.5664 384.285 69.5664C386.746 69.5664 388.486 68.459 388.486 66.7715C388.486 65.0664 386.746 63.9941 384.285 63.9941ZM382.211 74.1367H386.395V70.6211C385.753 70.7881 385.041 70.8672 384.285 70.8672C383.547 70.8672 382.844 70.7881 382.211 70.6387V74.1367ZM403.252 69.8125V71.4297H397.609V69.8125H403.252ZM143.711 83.7441V91.8477H142.041V87.8047H138.719V86.4512H142.041V83.7441H143.711ZM143.711 92.5859V96.5059H135.08V97.9648H144.256V99.3008H133.445V95.2402H142.059V93.9043H133.41V92.5859H143.711ZM136.117 85.625C136.117 87.6289 137.559 89.4922 139.932 90.248L139.053 91.5488C137.321 90.9512 136.012 89.7646 135.326 88.2617C134.632 89.9492 133.278 91.2764 131.424 91.918L130.527 90.582C132.988 89.791 134.447 87.8398 134.465 85.625V84.2539H136.117V85.625ZM159.268 83.7441V93.043H157.598V90.7051H154.17V91.9883H146.857V84.9219H154.17V86.2227H157.598V83.7441H159.268ZM148.51 86.2578V90.6523H152.535V86.2578H148.51ZM153.994 93.4824C157.299 93.4824 159.32 94.5723 159.32 96.4883C159.32 98.3867 157.299 99.4766 153.994 99.459C150.689 99.4766 148.65 98.3867 148.668 96.4883C148.65 94.5723 150.689 93.4824 153.994 93.4824ZM153.994 94.7656C151.691 94.7832 150.32 95.3809 150.32 96.4883C150.32 97.543 151.691 98.1758 153.994 98.1758C156.297 98.1758 157.668 97.543 157.668 96.4883C157.668 95.3809 156.297 94.7832 153.994 94.7656ZM154.17 89.3516H157.598V87.5586H154.17V89.3516ZM164.523 96.7871L163.117 101.639H161.623L162.555 96.7871H164.523ZM182.963 83.7441V90.125H185.494V91.5137H182.963V99.4941H181.311V83.7441H182.963ZM179.939 86.2051V87.5762H170.605V86.2051H174.49V83.9551H176.16V86.2051H179.939ZM175.334 88.7363C177.584 88.7363 179.236 90.248 179.254 92.3926C179.236 94.5547 177.584 96.0488 175.334 96.0664C173.066 96.0488 171.414 94.5547 171.414 92.3926C171.414 90.248 173.066 88.7363 175.334 88.7363ZM175.334 90.1074C173.998 90.1074 172.996 91.0391 173.014 92.3926C172.996 93.7637 173.998 94.6777 175.334 94.6602C176.67 94.6777 177.654 93.7637 177.654 92.3926C177.654 91.0391 176.67 90.1074 175.334 90.1074ZM199.293 83.7441V99.5293H197.623V83.7441H199.293ZM190.873 84.9219C193.211 84.9219 194.934 87.0664 194.934 90.4414C194.934 93.834 193.211 95.9785 190.873 95.9785C188.5 95.9785 186.795 93.834 186.795 90.4414C186.795 87.0664 188.5 84.9219 190.873 84.9219ZM190.873 86.416C189.414 86.416 188.412 87.9629 188.412 90.4414C188.412 92.9375 189.414 94.4844 190.873 94.4844C192.314 94.4844 193.316 92.9375 193.316 90.4414C193.316 87.9629 192.314 86.416 190.873 86.416ZM214.076 83.7441V89.8965H216.607V91.3027H214.076V99.5293H212.424V83.7441H214.076ZM209.629 85.168V90.9512H204.109V94.3613C206.816 94.3525 208.82 94.2559 211.123 93.834L211.281 95.1875C208.82 95.6445 206.693 95.75 203.74 95.7676H202.457V89.5977H207.977V86.5215H202.422V85.168H209.629ZM230.406 83.7441V99.5293H228.736V83.7441H230.406ZM221.986 84.9219C224.324 84.9219 226.047 87.0664 226.047 90.4414C226.047 93.834 224.324 95.9785 221.986 95.9785C219.613 95.9785 217.908 93.834 217.908 90.4414C217.908 87.0664 219.613 84.9219 221.986 84.9219ZM221.986 86.416C220.527 86.416 219.525 87.9629 219.525 90.4414C219.525 92.9375 220.527 94.4844 221.986 94.4844C223.428 94.4844 224.43 92.9375 224.43 90.4414C224.43 87.9629 223.428 86.416 221.986 86.416ZM245.699 92.1289V93.4648H234.73V85.0449H245.541V86.3984H236.418V88.5254H245.207V89.8438H236.418V92.1289H245.699ZM247.334 96.1367V97.5078H232.92V96.1367H247.334ZM251.307 96.7871L249.9 101.639H248.406L249.338 96.7871H251.307ZM270.607 83.7617V95.3984H268.938V89.457H265.492V92.7793H258.232V84.7988H259.902V87.4707H263.84V84.7988H265.492V88.1035H268.938V83.7617H270.607ZM270.959 97.8066V99.1602H260.324V94.2559H262.012V97.8066H270.959ZM259.902 91.4258H263.84V88.7539H259.902V91.4258ZM286.164 93.8516V99.4941H284.494V95.1699H275.494V93.8516H286.164ZM286.164 83.7441V93.0254H284.494V90.8633H280.609C279.88 91.7246 278.729 92.2432 277.393 92.2344C275.02 92.252 273.262 90.6699 273.262 88.4199C273.262 86.2051 275.02 84.6055 277.393 84.623C278.729 84.6143 279.871 85.1328 280.609 85.9941H284.494V83.7441H286.164ZM277.393 86.0293C275.916 86.0293 274.861 87.0137 274.861 88.4199C274.861 89.8613 275.916 90.8281 277.393 90.8281C278.816 90.8281 279.889 89.8613 279.889 88.4199C279.889 87.0137 278.816 86.0293 277.393 86.0293ZM281.348 89.4922H284.494V87.3652H281.348C281.436 87.6992 281.488 88.0508 281.488 88.4199C281.488 88.7979 281.436 89.1582 281.348 89.4922ZM291.42 96.7871L290.014 101.639H288.52L289.451 96.7871H291.42ZM304.34 85.0801V86.4336H299.91V90.8457C301.879 90.8281 303.347 90.7402 305.008 90.4062L305.166 91.7773C303.25 92.1289 301.633 92.2168 299.295 92.2168H298.258V85.0801H304.34ZM311.02 83.7441V94.1328H309.438V89.123H307.504V92.7617H305.939V84.0254H307.504V87.752H309.438V83.7441H311.02ZM306.52 93.9746C306.52 95.9258 308.857 97.6836 311.828 98.123L311.125 99.4238C308.726 99.002 306.651 97.8066 305.693 96.1191C304.718 97.8066 302.644 99.002 300.244 99.4238L299.541 98.123C302.512 97.6836 304.85 95.9258 304.85 93.9746V93.3945H306.52V93.9746ZM325.732 84.4121V85.4492C325.732 86.4951 325.732 87.8135 325.398 89.5273H327.561V90.8633H313.146V89.5273H323.729C324.045 87.9277 324.08 86.7236 324.08 85.748H314.957V84.4121H325.732ZM325.75 92.2695V96.4004H316.521V98H326.154V99.3359H314.852V95.1172H324.098V93.6055H314.834V92.2695H325.75ZM340.797 84.623V85.959H335.418V89.791C338.389 89.7998 340.182 89.668 342.221 89.2637L342.414 90.582C340.234 91.0566 338.318 91.127 335.014 91.127H333.766V84.623H340.797ZM345.473 83.7441V86.9609H347.758V88.332H345.473V91.6543H343.803V83.7441H345.473ZM345.473 92.3926V96.418H336.965V97.9473H346.018V99.3008H335.33V95.1348H343.82V93.7285H335.295V92.3926H345.473ZM361.75 83.7441V99.4941H360.062V83.7441H361.75ZM357.057 85.4316C357.057 90.0371 355.088 94.0449 349.691 96.6289L348.812 95.2754C353.005 93.2803 355.044 90.4414 355.369 86.7676H349.568V85.4316H357.057ZM367.041 96.7871L365.635 101.639H364.141L365.072 96.7871H367.041ZM386.518 90.8809V92.2168H380.822V85.168H386.359V86.5215H382.492V90.8809H386.518ZM387.625 96.1719V97.5254H373.211V96.1719H379.539V92.9727H381.174V96.1719H387.625ZM379.838 85.1855V86.5391H376.076V90.8457C377.386 90.8281 378.616 90.7227 379.979 90.4238L380.119 91.8125C378.432 92.1816 377.008 92.2168 375.338 92.2168H374.406V85.1855H379.838ZM401.512 88.3496V89.6855H390.666V84.3066H392.318V88.3496H401.512ZM403.164 91.6719V93.0078H388.75V91.6719H403.164ZM401.617 97.7539V99.125H390.543V94.502H392.213V97.7539H401.617ZM410.529 98H408.473L413.043 85.2734H415.275L419.863 98H417.807L416.646 94.6426H411.689L410.529 98ZM412.252 93.0254H416.084L414.203 87.5938H414.115L412.252 93.0254ZM423.414 85.2734V98H421.48V85.2734H423.414ZM135.309 106.746C137.734 106.746 139.545 108.275 139.545 110.49C139.545 112.441 138.139 113.856 136.152 114.164V116.66C137.55 116.599 138.947 116.493 140.248 116.326L140.371 117.574C137.049 118.154 133.375 118.172 130.65 118.154L130.387 116.783C131.608 116.774 133.015 116.766 134.482 116.73V114.164C132.443 113.874 131.055 112.45 131.072 110.49C131.055 108.275 132.83 106.746 135.309 106.746ZM135.309 108.152C133.797 108.17 132.689 109.084 132.689 110.49C132.689 111.896 133.797 112.828 135.309 112.811C136.803 112.828 137.893 111.896 137.91 110.49C137.893 109.084 136.803 108.17 135.309 108.152ZM142.867 105.744V112.143H145.293V113.549H142.867V121.494H141.197V105.744H142.867ZM164.049 105.744V121.494H162.449V113.355H160.41V120.686H158.881V106.061H160.41V111.984H162.449V105.744H164.049ZM156.965 107.643V108.996H152.729V116.291C154.662 116.273 156.121 116.186 157.809 115.869L157.932 117.24C156.033 117.627 154.416 117.697 152.113 117.715H151.059V107.643H156.965ZM178.428 105.744V112.336H180.801V113.742H178.428V121.494H176.758V105.744H178.428ZM165.895 117.205C167.134 117.205 168.575 117.205 170.078 117.152V115.553C168.303 115.307 167.143 114.234 167.16 112.705C167.143 110.93 168.672 109.752 170.922 109.752C173.154 109.752 174.701 110.93 174.719 112.705C174.701 114.234 173.523 115.315 171.748 115.57V117.082C173.146 117.029 174.552 116.915 175.861 116.73L175.967 117.961C172.557 118.576 168.865 118.594 166.158 118.594L165.895 117.205ZM175.633 107.607V108.943H166.193V107.607H170.078V105.779H171.748V107.607H175.633ZM170.922 111.053C169.604 111.053 168.725 111.703 168.725 112.705C168.725 113.707 169.604 114.322 170.922 114.322C172.24 114.322 173.119 113.707 173.119 112.705C173.119 111.703 172.24 111.053 170.922 111.053ZM193.914 105.744V112.125H196.445V113.514H193.914V121.494H192.262V105.744H193.914ZM190.891 108.205V109.576H181.557V108.205H185.441V105.955H187.111V108.205H190.891ZM186.285 110.736C188.535 110.736 190.188 112.248 190.205 114.393C190.188 116.555 188.535 118.049 186.285 118.066C184.018 118.049 182.365 116.555 182.365 114.393C182.365 112.248 184.018 110.736 186.285 110.736ZM186.285 112.107C184.949 112.107 183.947 113.039 183.965 114.393C183.947 115.764 184.949 116.678 186.285 116.66C187.621 116.678 188.605 115.764 188.605 114.393C188.605 113.039 187.621 112.107 186.285 112.107ZM210.297 105.744V121.494H208.609V105.744H210.297ZM205.604 107.432C205.604 112.037 203.635 116.045 198.238 118.629L197.359 117.275C201.552 115.28 203.591 112.441 203.916 108.768H198.115V107.432H205.604ZM214.551 120.123C213.865 120.123 213.285 119.561 213.303 118.875C213.285 118.189 213.865 117.627 214.551 117.627C215.219 117.627 215.799 118.189 215.799 118.875C215.799 119.561 215.219 120.123 214.551 120.123Z" fill="#605070"/>
<g style="mix-blend-mode:multiply">
<rect x="127" y="58" width="51" height="24" fill="#AEB2FF" fill-opacity="0.47"/>
</g>
<circle cx="127.5" cy="53.5" r="3.5" fill="#0000FF"/>
<path d="M182 82.5C182 84.433 180.433 86 178.5 86C176.567 86 175 84.433 175 82.5C175 80.567 176.567 79 178.5 79C180.433 79 182 80.567 182 82.5Z" fill="#0000FF"/>
</svg>
