<svg width="480" height="200" viewBox="0 0 480 200" fill="none" xmlns="http://www.w3.org/2000/svg">
<mask id="path-1-inside-1_641_318" fill="white">
<path fill-rule="evenodd" clip-rule="evenodd" d="M32 0C14.3269 0 0 14.3269 0 32V123C0 140.673 14.3269 155 32 155H43.6706L34.3576 192.904C33.1631 197.765 39.0614 201.17 42.6741 197.705L87.2003 155H448C465.673 155 480 140.673 480 123V32C480 14.3269 465.673 0 448 0H32Z"/>
</mask>
<path fill-rule="evenodd" clip-rule="evenodd" d="M32 0C14.3269 0 0 14.3269 0 32V123C0 140.673 14.3269 155 32 155H43.6706L34.3576 192.904C33.1631 197.765 39.0614 201.17 42.6741 197.705L87.2003 155H448C465.673 155 480 140.673 480 123V32C480 14.3269 465.673 0 448 0H32Z" fill="#F6EEFF"/>
<path d="M43.6706 155L49.4973 156.432L51.3233 149H43.6706V155ZM34.3576 192.904L40.1843 194.335L40.1843 194.335L34.3576 192.904ZM42.6741 197.705L38.521 193.375L38.521 193.375L42.6741 197.705ZM87.2003 155V149H84.788L83.0471 150.67L87.2003 155ZM6 32C6 17.6406 17.6406 6 32 6V-6C11.0132 -6 -6 11.0132 -6 32H6ZM6 123V32H-6V123H6ZM32 149C17.6406 149 6 137.359 6 123H-6C-6 143.987 11.0132 161 32 161V149ZM43.6706 149H32V161H43.6706V149ZM40.1843 194.335L49.4973 156.432L37.8439 153.568L28.5309 191.472L40.1843 194.335ZM38.521 193.375C38.6057 193.294 38.8393 193.152 39.1547 193.124C39.4178 193.101 39.6029 193.167 39.7132 193.231C39.8234 193.294 39.9736 193.421 40.085 193.661C40.2186 193.948 40.2123 194.221 40.1843 194.335L28.5309 191.472C25.9031 202.167 38.8793 209.659 46.8273 202.036L38.521 193.375ZM83.0471 150.67L38.521 193.375L46.8273 202.036L91.3535 159.33L83.0471 150.67ZM448 149H87.2003V161H448V149ZM474 123C474 137.359 462.359 149 448 149V161C468.987 161 486 143.987 486 123H474ZM474 32V123H486V32H474ZM448 6C462.359 6 474 17.6406 474 32H486C486 11.0132 468.987 -6 448 -6V6ZM32 6H448V-6H32V6Z" fill="#605070" mask="url(#path-1-inside-1_641_318)"/>
<rect x="30" y="30" width="80" height="80" rx="15" fill="#605070"/>
<path fill-rule="evenodd" clip-rule="evenodd" d="M61.1694 62.4186C62.375 61.213 64.0101 60.5357 65.715 60.5357C66.8985 60.5357 67.8579 59.5763 67.8579 58.3928C67.8579 57.2094 66.8985 56.25 65.715 56.25C62.8734 56.25 60.1482 57.3788 58.1389 59.3881C56.1296 61.3974 55.0008 64.1227 55.0008 66.9642V77.6785C55.0008 78.9499 55.3778 80.1928 56.0842 81.25C56.7906 82.3072 57.7946 83.1311 58.9692 83.6177C60.1439 84.1043 61.4365 84.2316 62.6835 83.9835C63.9305 83.7355 65.076 83.1232 65.975 82.2242C66.8741 81.3251 67.4863 80.1797 67.7344 78.9326C67.9824 77.6856 67.8551 76.3931 67.3685 75.2184C66.882 74.0437 66.058 73.0397 65.0008 72.3333C63.9437 71.627 62.7008 71.2499 61.4293 71.2499H59.2865V66.9642C59.2865 65.2593 59.9638 63.6242 61.1694 62.4186Z" fill="white"/>
<path d="M78.3123 62.4186C79.5179 61.213 81.153 60.5357 82.8579 60.5357C84.0414 60.5357 85.0008 59.5763 85.0008 58.3928C85.0008 57.2094 84.0414 56.25 82.8579 56.25C80.0163 56.25 77.2911 57.3788 75.2818 59.3881C73.2725 61.3974 72.1437 64.1226 72.1437 66.9642V77.6785C72.1437 78.9499 72.5207 80.1928 73.2271 81.25C73.9335 82.3072 74.9375 83.1311 76.1121 83.6177C77.2868 84.1043 78.5794 84.2316 79.8264 83.9835C81.0734 83.7355 82.2189 83.1232 83.1179 82.2242C84.017 81.3251 84.6292 80.1797 84.8773 78.9326C85.1253 77.6856 84.998 76.3931 84.5114 75.2184C84.0249 74.0437 83.2009 73.0397 82.1438 72.3333C81.0866 71.627 79.8437 71.2499 78.5722 71.2499H76.4294V66.9642C76.4294 65.2593 77.1067 63.6242 78.3123 62.4186Z" fill="white"/>
<path d="M138.461 45.4883C138.461 45.1992 138.434 44.9414 138.379 44.7148C138.324 44.4805 138.219 44.2656 138.062 44.0703C137.906 43.8672 137.672 43.6641 137.359 43.4609C137.047 43.2578 136.637 43.0469 136.129 42.8281C135.504 42.5703 134.895 42.2891 134.301 41.9844C133.715 41.6719 133.188 41.3125 132.719 40.9062C132.25 40.4922 131.875 40.0078 131.594 39.4531C131.312 38.8906 131.172 38.2344 131.172 37.4844C131.172 36.7578 131.309 36.1016 131.582 35.5156C131.855 34.9219 132.238 34.418 132.73 34.0039C133.223 33.582 133.805 33.2617 134.477 33.043C135.148 32.8164 135.887 32.7031 136.691 32.7031C137.777 32.7031 138.727 32.9258 139.539 33.3711C140.352 33.8086 140.984 34.4258 141.438 35.2227C141.891 36.0117 142.117 36.9336 142.117 37.9883H138.414C138.414 37.5273 138.352 37.125 138.227 36.7812C138.102 36.4297 137.906 36.1562 137.641 35.9609C137.383 35.7578 137.043 35.6562 136.621 35.6562C136.23 35.6562 135.906 35.7383 135.648 35.9023C135.391 36.0664 135.199 36.2891 135.074 36.5703C134.949 36.8516 134.887 37.1641 134.887 37.5078C134.887 37.7812 134.949 38.0234 135.074 38.2344C135.207 38.4453 135.383 38.6406 135.602 38.8203C135.828 39 136.094 39.1719 136.398 39.3359C136.711 39.5 137.047 39.6562 137.406 39.8047C138.172 40.1094 138.852 40.4414 139.445 40.8008C140.047 41.1602 140.547 41.5664 140.945 42.0195C141.352 42.4648 141.656 42.9727 141.859 43.543C142.07 44.1055 142.176 44.7461 142.176 45.4648C142.176 46.1992 142.051 46.8633 141.801 47.457C141.551 48.043 141.191 48.543 140.723 48.957C140.262 49.3711 139.699 49.6875 139.035 49.9062C138.371 50.125 137.629 50.2344 136.809 50.2344C136.035 50.2344 135.289 50.125 134.57 49.9062C133.852 49.6797 133.211 49.3359 132.648 48.875C132.094 48.4141 131.652 47.8242 131.324 47.1055C130.996 46.3867 130.832 45.5312 130.832 44.5391H134.559C134.559 45.0469 134.602 45.4805 134.688 45.8398C134.781 46.1914 134.922 46.4727 135.109 46.6836C135.305 46.8945 135.543 47.0508 135.824 47.1523C136.113 47.2461 136.457 47.293 136.855 47.293C137.262 47.293 137.582 47.2109 137.816 47.0469C138.051 46.8828 138.215 46.668 138.309 46.4023C138.41 46.1289 138.461 45.8242 138.461 45.4883ZM145.949 32.9375H149.078L152.172 44.6797L155.254 32.9375H158.195L153.473 50H150.859L145.949 32.9375ZM144.344 32.9375H147.473L148.012 45.0664V50H144.344V32.9375ZM156.859 32.9375H159.988V50H156.332V45.0664L156.859 32.9375ZM169.082 36.2539L165.66 50H161.688L166.996 32.9375H169.469L169.082 36.2539ZM171.777 50L168.344 36.2539L167.898 32.9375H170.418L175.75 50H171.777ZM171.906 43.6367V46.6484H164.348V43.6367H171.906ZM177.215 32.9375H182.875C184.016 32.9375 184.996 33.1328 185.816 33.5234C186.637 33.9141 187.266 34.4922 187.703 35.2578C188.148 36.0234 188.371 36.9688 188.371 38.0938C188.371 39.0469 188.246 39.8516 187.996 40.5078C187.746 41.1562 187.395 41.6953 186.941 42.125C186.488 42.5547 185.953 42.9023 185.336 43.168L184.152 43.8594H179.641L179.629 40.8477H182.781C183.203 40.8477 183.551 40.75 183.824 40.5547C184.098 40.3594 184.301 40.082 184.434 39.7227C184.574 39.3555 184.645 38.9219 184.645 38.4219C184.645 37.9062 184.578 37.4648 184.445 37.0977C184.32 36.7305 184.129 36.4492 183.871 36.2539C183.621 36.0586 183.289 35.9609 182.875 35.9609H180.941V50H177.215V32.9375ZM184.879 50L181.797 42.418L185.711 42.4062L188.863 49.8242V50H184.879ZM197.195 32.9375V50H193.48V32.9375H197.195ZM201.379 32.9375V35.9609H189.391V32.9375H201.379ZM216.121 44.2695H219.824C219.801 45.5508 219.547 46.6367 219.062 47.5273C218.578 48.418 217.891 49.0938 217 49.5547C216.109 50.0078 215.055 50.2344 213.836 50.2344C212.867 50.2344 212.008 50.0703 211.258 49.7422C210.508 49.4062 209.871 48.9219 209.348 48.2891C208.832 47.6562 208.441 46.8789 208.176 45.957C207.918 45.0352 207.789 43.9805 207.789 42.793V40.1445C207.789 38.9648 207.93 37.9102 208.211 36.9805C208.492 36.0508 208.891 35.2695 209.406 34.6367C209.93 33.9961 210.566 33.5117 211.316 33.1836C212.066 32.8555 212.906 32.6914 213.836 32.6914C215.109 32.6914 216.18 32.9297 217.047 33.4062C217.914 33.8828 218.582 34.5742 219.051 35.4805C219.52 36.3867 219.785 37.4844 219.848 38.7734H216.133C216.141 37.9922 216.07 37.3828 215.922 36.9453C215.781 36.5 215.543 36.1875 215.207 36.0078C214.871 35.8203 214.414 35.7266 213.836 35.7266C213.422 35.7266 213.066 35.8047 212.77 35.9609C212.473 36.1094 212.234 36.3555 212.055 36.6992C211.875 37.043 211.742 37.4961 211.656 38.0586C211.57 38.6211 211.527 39.3086 211.527 40.1211V42.793C211.527 43.6055 211.562 44.293 211.633 44.8555C211.703 45.4102 211.824 45.8633 211.996 46.2148C212.168 46.5586 212.402 46.8086 212.699 46.9648C212.996 47.1211 213.375 47.1992 213.836 47.1992C214.352 47.1992 214.777 47.1211 215.113 46.9648C215.449 46.8008 215.699 46.5078 215.863 46.0859C216.035 45.6641 216.121 45.0586 216.121 44.2695ZM225.672 32.9375V50H221.957V32.9375H225.672ZM235.164 32.9375V50H231.449V32.9375H235.164ZM239.348 32.9375V35.9609H227.359V32.9375H239.348ZM246.098 36.2539L242.676 50H238.703L244.012 32.9375H246.484L246.098 36.2539ZM248.793 50L245.359 36.2539L244.914 32.9375H247.434L252.766 50H248.793ZM248.922 43.6367V46.6484H241.363V43.6367H248.922ZM259.938 32.9375V50H256.223V32.9375H259.938ZM264.121 32.9375V35.9609H252.133V32.9375H264.121ZM269.875 32.9375V50H266.16V32.9375H269.875ZM284.793 40.168V42.8867C284.793 44.0977 284.645 45.1641 284.348 46.0859C284.051 47 283.625 47.7656 283.07 48.3828C282.523 49 281.867 49.4648 281.102 49.7773C280.344 50.082 279.504 50.2344 278.582 50.2344C277.652 50.2344 276.805 50.082 276.039 49.7773C275.273 49.4648 274.613 49 274.059 48.3828C273.504 47.7656 273.074 47 272.77 46.0859C272.473 45.1641 272.324 44.0977 272.324 42.8867V40.168C272.324 38.9414 272.473 37.8633 272.77 36.9336C273.074 35.9961 273.5 35.2188 274.047 34.6016C274.602 33.9766 275.258 33.5039 276.016 33.1836C276.781 32.8633 277.629 32.7031 278.559 32.7031C279.488 32.7031 280.332 32.8633 281.09 33.1836C281.855 33.5039 282.512 33.9766 283.059 34.6016C283.613 35.2188 284.039 35.9961 284.336 36.9336C284.641 37.8633 284.793 38.9414 284.793 40.168ZM281.055 42.8867V40.1445C281.055 39.3555 281 38.6836 280.891 38.1289C280.789 37.5742 280.633 37.1211 280.422 36.7695C280.211 36.418 279.949 36.1602 279.637 35.9961C279.332 35.832 278.973 35.75 278.559 35.75C278.137 35.75 277.77 35.832 277.457 35.9961C277.145 36.1602 276.883 36.418 276.672 36.7695C276.469 37.1211 276.316 37.5742 276.215 38.1289C276.121 38.6836 276.074 39.3555 276.074 40.1445V42.8867C276.074 43.6523 276.125 44.3086 276.227 44.8555C276.328 45.4023 276.484 45.8477 276.695 46.1914C276.906 46.5352 277.168 46.7891 277.48 46.9531C277.793 47.1172 278.16 47.1992 278.582 47.1992C278.988 47.1992 279.344 47.1172 279.648 46.9531C279.961 46.7891 280.219 46.5352 280.422 46.1914C280.633 45.8477 280.789 45.4023 280.891 44.8555C281 44.3086 281.055 43.6523 281.055 42.8867ZM299.184 32.9375V50H295.539L290.711 39.3828V50H287.078V32.9375H290.723L295.562 43.6133V32.9375H299.184Z" fill="#605070"/>
<path d="M137.686 69.592H139.072C139.072 69.592 139.066 69.634 139.054 69.718C139.054 69.79 139.054 69.874 139.054 69.97C139.054 70.066 139.048 70.15 139.036 70.222C138.928 71.638 138.814 72.79 138.694 73.678C138.586 74.566 138.454 75.256 138.298 75.748C138.154 76.24 137.98 76.594 137.776 76.81C137.584 77.014 137.374 77.152 137.146 77.224C136.93 77.308 136.654 77.362 136.318 77.386C136.03 77.41 135.622 77.416 135.094 77.404C134.578 77.404 134.032 77.392 133.456 77.368C133.444 77.152 133.396 76.912 133.312 76.648C133.228 76.384 133.114 76.156 132.97 75.964C133.57 76.012 134.14 76.042 134.68 76.054C135.22 76.078 135.598 76.09 135.814 76.09C136.006 76.09 136.162 76.078 136.282 76.054C136.402 76.03 136.51 75.976 136.606 75.892C136.774 75.748 136.918 75.454 137.038 75.01C137.17 74.566 137.284 73.924 137.38 73.084C137.488 72.232 137.59 71.134 137.686 69.79V69.592ZM132.358 65.776H133.744C133.636 66.424 133.516 67.114 133.384 67.846C133.264 68.566 133.138 69.262 133.006 69.934C132.886 70.606 132.766 71.2 132.646 71.716L131.296 71.5C131.416 70.996 131.542 70.42 131.674 69.772C131.818 69.112 131.944 68.434 132.052 67.738C132.172 67.03 132.274 66.376 132.358 65.776ZM143.932 61.06H145.282V77.44H143.932V61.06ZM132.394 69.592H138.1V70.852H132.196L132.394 69.592ZM132.844 65.776H137.668V62.896H131.746V61.636H138.982V67.036H132.844V65.776ZM151.528 62.14H163.174V63.436H151.528V62.14ZM151.528 66.334H163.138V67.612H151.528V66.334ZM151.42 70.636H163.174V71.914H151.42V70.636ZM150.754 62.14H152.086V68.674C152.086 69.358 152.056 70.09 151.996 70.87C151.936 71.65 151.822 72.442 151.654 73.246C151.498 74.038 151.252 74.8 150.916 75.532C150.592 76.264 150.16 76.93 149.62 77.53C149.56 77.434 149.464 77.326 149.332 77.206C149.2 77.098 149.068 76.99 148.936 76.882C148.804 76.774 148.684 76.696 148.576 76.648C149.08 76.084 149.476 75.472 149.764 74.812C150.052 74.152 150.268 73.474 150.412 72.778C150.556 72.07 150.646 71.368 150.682 70.672C150.73 69.976 150.754 69.31 150.754 68.674V62.14ZM162.634 62.14H163.966V75.604C163.966 76.036 163.9 76.366 163.768 76.594C163.648 76.822 163.438 76.996 163.138 77.116C162.838 77.224 162.418 77.29 161.878 77.314C161.338 77.338 160.642 77.344 159.79 77.332C159.754 77.164 159.688 76.948 159.592 76.684C159.508 76.432 159.418 76.216 159.322 76.036C159.742 76.048 160.144 76.054 160.528 76.054C160.924 76.066 161.266 76.066 161.554 76.054C161.842 76.054 162.04 76.054 162.148 76.054C162.328 76.042 162.454 76.006 162.526 75.946C162.598 75.886 162.634 75.772 162.634 75.604V62.14ZM156.406 62.626H157.774V77.278H156.406V62.626ZM175.211 76.4043C170.922 76.4043 168.18 74.8223 168.18 72.291C168.18 70.7793 169.217 69.3027 170.957 68.1777L172.293 68.9688C170.764 70.0059 169.92 71.166 169.92 72.2383C169.92 73.8906 171.854 74.875 175.176 74.875C176.846 74.875 178.727 74.6465 180.379 74.2246L180.607 75.7363C178.867 76.1582 176.898 76.4043 175.211 76.4043ZM167.617 66.1387V64.75L175.334 64.5391C175.229 63.8271 175.149 63.0889 175.105 62.3242L176.74 62.2363C176.793 63.0273 176.863 63.7832 176.969 64.5039L181.258 64.3984V65.8047L177.215 65.8926C177.619 67.9229 178.27 69.8125 179.254 71.8516L177.602 72.3086C176.635 70.2168 175.958 68.1602 175.545 65.9453L167.617 66.1387ZM196.797 76C195.461 76 194.863 75.2969 194.863 73.7676V67.4043C194.863 66.0156 194.459 65.3652 193.65 65.3652C192.789 65.3652 191.629 66.1562 188.781 68.8281V76.791H187.182V70.2344C186.303 71.1221 185.292 72.168 184.088 73.3809L183.191 72.0625C184.765 70.5244 186.074 69.2588 187.182 68.2305V66.4551H183.314V65.0312H187.182V62.4648H188.781V66.7715C191.444 64.416 192.613 63.8359 193.861 63.8359C195.602 63.8359 196.498 64.9434 196.498 67V73.0293C196.498 74.1543 196.656 74.4531 197.131 74.4531C197.588 74.4531 198.326 74.1719 199.188 73.627L199.662 75.0508C198.643 75.6836 197.693 76 196.797 76ZM201.297 76.4043C202.369 72.9854 203.239 69.373 203.898 65.6992H201.033V64.2578H204.127C204.241 63.5283 204.347 62.8076 204.443 62.0781L206.078 62.1484C205.99 62.8516 205.894 63.5547 205.797 64.2578H212.811V65.6992H205.568C204.927 69.4082 204.039 73.1611 202.932 76.7031L201.297 76.4043ZM211.633 76.334C208.627 76.334 206.676 75.2441 206.676 73.5215C206.676 72.6074 207.273 71.7988 208.574 70.8672L209.822 71.7109C208.855 72.3262 208.398 72.8711 208.398 73.3633C208.398 74.2422 209.682 74.8574 211.633 74.8574C212.67 74.8574 213.795 74.752 214.99 74.5234L215.184 76C213.953 76.2461 212.811 76.334 211.633 76.334ZM207.291 67.9141C209.91 67.6328 212.424 67.4922 214.955 67.4922V68.9336C212.459 68.9336 209.98 69.0566 207.379 69.3555L207.291 67.9141ZM223.231 60.88L224.689 61.294C224.293 61.894 223.855 62.512 223.375 63.148C222.895 63.784 222.451 64.324 222.043 64.768L220.945 64.372C221.209 64.048 221.479 63.682 221.755 63.274C222.043 62.866 222.319 62.452 222.583 62.032C222.847 61.612 223.063 61.228 223.231 60.88ZM227.551 62.284L228.595 61.636C229.147 61.972 229.711 62.362 230.287 62.806C230.875 63.238 231.427 63.676 231.943 64.12C232.459 64.552 232.879 64.96 233.203 65.344L232.069 66.082C231.769 65.71 231.367 65.302 230.863 64.858C230.359 64.402 229.819 63.952 229.243 63.508C228.667 63.052 228.103 62.644 227.551 62.284ZM218.263 64.012C219.055 63.988 219.955 63.97 220.963 63.958C221.983 63.946 223.063 63.928 224.203 63.904C225.343 63.868 226.513 63.832 227.713 63.796C228.925 63.76 230.119 63.724 231.295 63.688L231.241 64.822C229.705 64.882 228.157 64.942 226.597 65.002C225.049 65.05 223.573 65.098 222.169 65.146C220.765 65.182 219.517 65.212 218.425 65.236L218.263 64.012ZM217.579 66.712H233.725V67.9H217.579V66.712ZM226.147 68.746L227.227 69.268C226.771 69.616 226.243 69.94 225.643 70.24C225.055 70.54 224.437 70.816 223.789 71.068C223.141 71.308 222.517 71.506 221.917 71.662C221.821 71.542 221.695 71.404 221.539 71.248C221.395 71.08 221.251 70.942 221.107 70.834C221.695 70.69 222.301 70.51 222.925 70.294C223.561 70.078 224.161 69.838 224.725 69.574C225.289 69.31 225.763 69.034 226.147 68.746ZM228.019 70.852L229.099 71.374C228.523 71.854 227.833 72.292 227.029 72.688C226.225 73.072 225.373 73.414 224.473 73.714C223.573 74.014 222.679 74.272 221.791 74.488C221.695 74.344 221.575 74.176 221.431 73.984C221.299 73.792 221.167 73.63 221.035 73.498C221.875 73.33 222.733 73.12 223.609 72.868C224.497 72.604 225.325 72.304 226.093 71.968C226.861 71.62 227.503 71.248 228.019 70.852ZM230.377 72.886L231.547 73.444C230.815 74.2 229.885 74.848 228.757 75.388C227.641 75.916 226.393 76.354 225.013 76.702C223.633 77.062 222.175 77.344 220.639 77.548C220.567 77.368 220.471 77.17 220.351 76.954C220.243 76.75 220.129 76.57 220.009 76.414C221.473 76.258 222.865 76.03 224.185 75.73C225.517 75.418 226.717 75.028 227.785 74.56C228.853 74.092 229.717 73.534 230.377 72.886ZM223.969 64.624L225.283 64.948C224.563 66.712 223.567 68.224 222.295 69.484C221.023 70.732 219.577 71.74 217.957 72.508C217.897 72.412 217.807 72.298 217.687 72.166C217.567 72.034 217.441 71.908 217.309 71.788C217.177 71.656 217.063 71.548 216.967 71.464C218.587 70.792 220.003 69.88 221.215 68.728C222.427 67.576 223.345 66.208 223.969 64.624ZM228.487 66.982C228.883 67.582 229.381 68.17 229.981 68.746C230.581 69.31 231.241 69.814 231.961 70.258C232.681 70.702 233.395 71.068 234.103 71.356C234.007 71.44 233.899 71.548 233.779 71.68C233.671 71.8 233.563 71.926 233.455 72.058C233.359 72.19 233.275 72.31 233.203 72.418C232.471 72.082 231.733 71.656 230.989 71.14C230.257 70.624 229.573 70.048 228.937 69.412C228.313 68.776 227.785 68.11 227.353 67.414L228.487 66.982ZM235.795 66.208H251.293V67.396H235.795V66.208ZM237.181 63.004H247.405V64.156H237.181V63.004ZM241.753 60.88H243.085V66.784H241.753V60.88ZM248.521 68.53L249.385 69.466C248.629 69.67 247.759 69.85 246.775 70.006C245.803 70.162 244.789 70.3 243.733 70.42C242.689 70.54 241.675 70.636 240.691 70.708C240.667 70.564 240.619 70.402 240.547 70.222C240.487 70.03 240.427 69.874 240.367 69.754C241.075 69.694 241.807 69.622 242.563 69.538C243.319 69.454 244.063 69.364 244.795 69.268C245.527 69.16 246.211 69.046 246.847 68.926C247.495 68.794 248.053 68.662 248.521 68.53ZM249.457 61.708L250.555 62.338C249.343 63.802 247.951 65.152 246.379 66.388C244.819 67.612 243.145 68.716 241.357 69.7C239.581 70.672 237.769 71.512 235.921 72.22C235.861 72.124 235.777 72.01 235.669 71.878C235.561 71.734 235.453 71.596 235.345 71.464C235.237 71.332 235.135 71.224 235.039 71.14C236.923 70.492 238.747 69.7 240.511 68.764C242.287 67.816 243.937 66.748 245.461 65.56C246.997 64.372 248.329 63.088 249.457 61.708ZM240.151 68.584L241.501 68.728C241.369 69.316 241.225 69.934 241.069 70.582C240.913 71.23 240.757 71.86 240.601 72.472C240.445 73.072 240.295 73.6 240.151 74.056L238.801 73.858C238.957 73.402 239.113 72.874 239.269 72.274C239.437 71.662 239.599 71.032 239.755 70.384C239.911 69.736 240.043 69.136 240.151 68.584ZM247.999 72.022H249.367C249.367 72.022 249.361 72.064 249.349 72.148C249.349 72.22 249.343 72.304 249.331 72.4C249.331 72.496 249.319 72.574 249.295 72.634C249.163 73.522 249.025 74.26 248.881 74.848C248.737 75.424 248.581 75.886 248.413 76.234C248.257 76.582 248.083 76.846 247.891 77.026C247.699 77.194 247.495 77.308 247.279 77.368C247.075 77.428 246.811 77.458 246.487 77.458C246.223 77.482 245.839 77.488 245.335 77.476C244.843 77.464 244.315 77.446 243.751 77.422C243.739 77.23 243.691 77.014 243.607 76.774C243.535 76.546 243.445 76.342 243.337 76.162C243.901 76.222 244.441 76.258 244.957 76.27C245.485 76.294 245.857 76.306 246.073 76.306C246.253 76.306 246.403 76.294 246.523 76.27C246.643 76.246 246.751 76.198 246.847 76.126C247.075 75.946 247.279 75.556 247.459 74.956C247.651 74.356 247.831 73.438 247.999 72.202V72.022ZM239.953 72.022H248.377V73.174H239.665L239.953 72.022ZM265.675 64.606L267.097 65.038C266.341 67.234 265.369 69.13 264.181 70.726C263.005 72.322 261.589 73.666 259.933 74.758C258.289 75.85 256.375 76.75 254.191 77.458C254.143 77.338 254.065 77.2 253.957 77.044C253.861 76.888 253.753 76.726 253.633 76.558C253.525 76.39 253.423 76.258 253.327 76.162C255.463 75.538 257.329 74.722 258.925 73.714C260.521 72.694 261.877 71.44 262.993 69.952C264.109 68.452 265.003 66.67 265.675 64.606ZM257.485 64.714C258.145 66.634 259.033 68.362 260.149 69.898C261.277 71.422 262.657 72.712 264.289 73.768C265.921 74.824 267.823 75.61 269.995 76.126C269.887 76.222 269.767 76.348 269.635 76.504C269.515 76.672 269.395 76.84 269.275 77.008C269.167 77.176 269.077 77.32 269.005 77.44C266.785 76.864 264.847 76.012 263.191 74.884C261.547 73.744 260.149 72.358 258.997 70.726C257.845 69.082 256.897 67.21 256.153 65.11L257.485 64.714ZM253.525 63.94H269.797V65.254H253.525V63.94ZM260.905 60.88H262.291V64.732H260.905V60.88ZM280.363 65.92H287.725V67.18H280.363V65.92ZM273.577 69.952H278.401V70.96H273.577V69.952ZM273.613 72.508H278.311V73.534H273.613V72.508ZM271.633 62.734H280.345V63.922H271.633V62.734ZM283.027 60.916H284.341V65.398C284.341 66.262 284.299 67.204 284.215 68.224C284.143 69.232 283.981 70.276 283.729 71.356C283.489 72.424 283.117 73.48 282.613 74.524C282.121 75.556 281.437 76.528 280.561 77.44C280.501 77.344 280.411 77.236 280.291 77.116C280.171 77.008 280.045 76.894 279.913 76.774C279.781 76.666 279.655 76.582 279.535 76.522C280.387 75.694 281.047 74.8 281.515 73.84C281.983 72.868 282.325 71.884 282.541 70.888C282.769 69.892 282.907 68.92 282.955 67.972C283.003 67.024 283.027 66.166 283.027 65.398V60.916ZM284.647 66.532C284.803 67.936 285.019 69.268 285.295 70.528C285.571 71.788 285.937 72.916 286.393 73.912C286.861 74.908 287.431 75.724 288.103 76.36C287.995 76.444 287.875 76.546 287.743 76.666C287.623 76.798 287.509 76.93 287.401 77.062C287.293 77.206 287.203 77.338 287.131 77.458C286.423 76.726 285.829 75.82 285.349 74.74C284.881 73.648 284.503 72.424 284.215 71.068C283.927 69.7 283.693 68.242 283.513 66.694L284.647 66.532ZM284.989 61.924L286.051 61.474C286.411 61.882 286.759 62.344 287.095 62.86C287.443 63.364 287.695 63.814 287.851 64.21L286.735 64.714C286.591 64.33 286.351 63.88 286.015 63.364C285.691 62.836 285.349 62.356 284.989 61.924ZM275.323 60.88H276.601V66.316H275.323V60.88ZM275.431 70.33H276.493V76.63H275.431V70.33ZM273.847 67.486L274.639 67.27C274.819 67.618 274.981 68.008 275.125 68.44C275.269 68.872 275.359 69.238 275.395 69.538L274.549 69.808C274.525 69.484 274.441 69.112 274.297 68.692C274.165 68.26 274.015 67.858 273.847 67.486ZM277.141 67.144L278.095 67.414C277.939 67.822 277.777 68.242 277.609 68.674C277.441 69.094 277.285 69.46 277.141 69.772L276.385 69.52C276.517 69.196 276.655 68.806 276.799 68.35C276.955 67.894 277.069 67.492 277.141 67.144ZM271.885 65.776H279.571V66.91H273.037V77.386H271.885V65.776ZM278.905 65.776H280.075V76.018C280.075 76.318 280.039 76.552 279.967 76.72C279.895 76.9 279.763 77.044 279.571 77.152C279.379 77.236 279.127 77.284 278.815 77.296C278.503 77.32 278.113 77.332 277.645 77.332C277.633 77.188 277.591 77.008 277.519 76.792C277.447 76.576 277.375 76.39 277.303 76.234C277.615 76.246 277.897 76.252 278.149 76.252C278.401 76.264 278.569 76.264 278.653 76.252C278.821 76.252 278.905 76.168 278.905 76V65.776ZM298.504 73.293C298.504 72.0449 298.434 71.043 298.293 70.252C295.814 71.3154 294.338 72.5195 294.338 73.5918C294.338 74.6465 295.727 75.2441 298.223 75.2441C299.629 75.2441 301.387 75.0508 303.268 74.6992L303.496 76.1055C301.826 76.4043 299.699 76.6152 298.205 76.6152C294.742 76.6152 292.686 75.5605 292.686 73.7324C292.686 72.0098 294.593 70.2871 297.854 68.916C297.423 68.1162 296.772 67.7734 295.85 67.7734C294.162 67.7734 292.844 68.8984 290.98 71.9395L289.627 71.1484C291.104 68.8193 292.132 67.0352 293.002 65.084H289.645V63.748H293.547C293.767 63.1768 293.986 62.5791 294.197 61.9375L295.832 62.2188C295.647 62.7461 295.454 63.2559 295.27 63.748H303.039V65.084H294.707C294.391 65.8047 294.048 66.499 293.688 67.1934C294.514 66.7363 295.41 66.5078 296.307 66.5078C297.766 66.5078 298.759 67.0703 299.365 68.3184C300.578 67.9053 301.923 67.5273 303.391 67.2109L303.619 68.5645C302.23 68.8809 300.947 69.25 299.822 69.6543C300.033 70.6123 300.139 71.8252 300.139 73.293H298.504ZM308.418 74.8574C314.298 74.2861 318.49 70.5156 318.895 65.5762H311.881C310.721 67.2988 309.156 68.8633 307.275 70.1816L306.203 69.0391C308.752 67.2109 310.896 64.5742 311.863 62.0078L313.516 62.3066C313.305 62.9131 313.05 63.5107 312.76 64.0996H320.617V64.7852C320.617 70.9727 315.818 75.7012 308.893 76.3516L308.418 74.8574ZM326.049 74.8926C332.57 74.7168 334.803 72.9238 334.803 67.8965V62.7285H336.561V67.8613C336.561 73.873 333.66 76.2812 326.225 76.4395L326.049 74.8926ZM325.17 70.4629V62.7285H326.928V70.4629H325.17ZM343.785 74.6816C349.744 74.0488 351.766 71.8164 351.818 65.9102L353.365 65.9629C353.312 72.6426 350.746 75.4902 344.049 76.1582L343.785 74.6816ZM343.293 71.2012C342.924 69.5488 342.502 67.9668 342.027 66.6133L343.521 66.2266C343.961 67.5098 344.383 69.0742 344.77 70.8848L343.293 71.2012ZM347.143 70.9199C346.809 69.2324 346.387 67.5625 345.877 66.1387L347.371 65.7695C347.846 67.2637 348.303 68.9512 348.637 70.6035L347.143 70.9199ZM359.043 74.8574C364.923 74.2861 369.115 70.5156 369.52 65.5762H362.506C361.346 67.2988 359.781 68.8633 357.9 70.1816L356.828 69.0391C359.377 67.2109 361.521 64.5742 362.488 62.0078L364.141 62.3066C363.93 62.9131 363.675 63.5107 363.385 64.0996H371.242V64.7852C371.242 70.9727 366.443 75.7012 359.518 76.3516L359.043 74.8574ZM377.447 75.2266C380.075 75.0771 382.123 73.9082 382.686 72.291C382.053 72.7568 381.174 73.0469 380.207 73.0469C378.08 73.0469 376.691 71.7109 376.691 69.6543C376.691 67.5801 378.168 66.2441 380.383 66.2441C381.183 66.2441 381.859 66.4287 382.439 66.7891V65.3301H374.02V63.9941H382.439V61.9023H384.109V63.9941H388.855V65.3301H384.109V68.916C384.355 69.4609 384.461 70.041 384.461 70.7441C384.461 74.1719 381.877 76.4746 377.693 76.6855L377.447 75.2266ZM380.471 71.7109C381.666 71.7109 382.668 71.0254 382.668 69.6543C382.668 68.3887 381.824 67.5801 380.523 67.5801C379.205 67.5801 378.361 68.3711 378.361 69.6543C378.361 70.8848 379.188 71.7109 380.471 71.7109ZM397.891 76.668C394.604 76.668 392.723 75.6133 392.723 73.6973C392.723 72.0977 394.146 71.1309 396.52 71.1309C398.77 71.1309 399.93 71.9746 399.93 73.627C399.93 74.1279 399.833 74.6641 399.613 75.2617C402.118 74.9189 403.357 73.7939 403.357 71.9043C403.357 69.9004 401.934 68.9688 398.875 68.9688C397.205 68.9688 395.781 69.3027 394.586 70.0234L392.301 71.377L391.633 70.1289L401.072 64.6621H392.6V63.2383H403.955V64.6621L398.471 67.7734C398.928 67.7295 399.35 67.7031 399.719 67.7031C403.111 67.7031 405.045 69.1797 405.045 71.8164C405.045 74.9453 402.479 76.668 397.891 76.668ZM394.305 73.6797C394.305 74.7695 395.553 75.3848 397.715 75.3848H397.996C398.295 74.6729 398.418 74.1895 398.418 73.7852C398.418 72.8711 397.75 72.3965 396.396 72.3965C395.061 72.3965 394.305 72.8711 394.305 73.6797ZM138.455 98.5273C134.289 98.5273 132.109 97.2266 132.109 94.7656C132.109 93.0781 133.094 91.6543 135.238 90.3711C134.676 88.4023 134.28 86.5303 134.025 84.5879L135.713 84.3594C135.95 86.1436 136.293 87.8486 136.785 89.5625C138.49 88.7803 140.723 88.0332 143.5 87.3125L143.904 88.7891C136.891 90.6348 133.814 92.4277 133.814 94.6426C133.814 96.2246 135.379 97.0332 138.543 97.0332C140.055 97.0332 141.742 96.8398 144.115 96.4531L144.326 97.9297C142.252 98.2988 140.213 98.5273 138.455 98.5273ZM151.551 98.9844C150.496 97.6133 149.354 96.418 147.947 95.3984L149.072 94.2559C150.461 95.3281 151.727 96.5938 152.799 98.0176L151.551 98.9844ZM171.706 86.336H180.814V87.56H171.706V86.336ZM172.03 89.918H180.436V91.142H172.03V89.918ZM171.13 93.698H181.084V94.958H171.13V93.698ZM175.486 86.768H176.818V99.44H175.486V86.768ZM178.708 82.844L180.022 83.294C179.758 83.834 179.482 84.398 179.194 84.986C178.906 85.562 178.63 86.054 178.366 86.462L177.322 86.066C177.478 85.778 177.64 85.448 177.808 85.076C177.988 84.692 178.156 84.308 178.312 83.924C178.48 83.528 178.612 83.168 178.708 82.844ZM172.48 83.384L173.578 82.97C173.878 83.45 174.16 83.978 174.424 84.554C174.7 85.13 174.892 85.628 175 86.048L173.83 86.516C173.722 86.084 173.536 85.574 173.272 84.986C173.02 84.398 172.756 83.864 172.48 83.384ZM165.298 88.334H170.662V89.396H165.298V88.334ZM165.37 83.51H170.626V84.59H165.37V83.51ZM165.298 90.728H170.662V91.808H165.298V90.728ZM164.434 85.868H171.292V87.002H164.434V85.868ZM165.928 93.158H170.644V98.414H165.928V97.298H169.456V94.292H165.928V93.158ZM165.262 93.158H166.45V99.242H165.262V93.158ZM193.522 84.878H194.746V97.748H193.522V84.878ZM189.976 84.32H198.49V99.062H197.212V85.58H191.2V99.206H189.976V84.32ZM190.624 90.566H197.77V91.79H190.624V90.566ZM190.624 96.974H197.734V98.234H190.624V96.974ZM185.476 91.358H186.7V99.422H185.476V91.358ZM185.314 82.862L186.52 83.348C186.292 83.792 186.046 84.254 185.782 84.734C185.518 85.214 185.254 85.676 184.99 86.12C184.726 86.564 184.474 86.96 184.234 87.308L183.298 86.876C183.526 86.528 183.766 86.12 184.018 85.652C184.27 85.172 184.51 84.692 184.738 84.212C184.966 83.72 185.158 83.27 185.314 82.862ZM187.528 84.95L188.68 85.49C188.26 86.15 187.792 86.858 187.276 87.614C186.76 88.358 186.238 89.078 185.71 89.774C185.194 90.47 184.702 91.076 184.234 91.592L183.406 91.124C183.742 90.716 184.102 90.26 184.486 89.756C184.87 89.24 185.242 88.706 185.602 88.154C185.974 87.59 186.322 87.032 186.646 86.48C186.982 85.928 187.276 85.418 187.528 84.95ZM182.434 86.714L183.1 85.814C183.436 86.09 183.766 86.396 184.09 86.732C184.426 87.056 184.732 87.38 185.008 87.704C185.296 88.016 185.518 88.304 185.674 88.568L184.954 89.594C184.81 89.318 184.594 89.012 184.306 88.676C184.03 88.328 183.73 87.986 183.406 87.65C183.082 87.302 182.758 86.99 182.434 86.714ZM187.024 89.054L188.032 88.622C188.308 89.006 188.566 89.426 188.806 89.882C189.058 90.326 189.28 90.764 189.472 91.196C189.676 91.616 189.826 91.994 189.922 92.33L188.842 92.852C188.746 92.516 188.602 92.132 188.41 91.7C188.218 91.256 188.002 90.806 187.762 90.35C187.534 89.894 187.288 89.462 187.024 89.054ZM182.29 90.836C183.118 90.788 184.108 90.728 185.26 90.656C186.412 90.572 187.588 90.488 188.788 90.404V91.502C187.672 91.598 186.562 91.7 185.458 91.808C184.354 91.904 183.37 91.988 182.506 92.06L182.29 90.836ZM187.348 93.428L188.374 93.086C188.638 93.638 188.884 94.244 189.112 94.904C189.352 95.552 189.52 96.11 189.616 96.578L188.5 96.956C188.452 96.632 188.362 96.272 188.23 95.876C188.11 95.468 187.972 95.054 187.816 94.634C187.672 94.202 187.516 93.8 187.348 93.428ZM183.424 93.158L184.576 93.356C184.468 94.208 184.306 95.048 184.09 95.876C183.886 96.692 183.64 97.388 183.352 97.964C183.28 97.916 183.178 97.862 183.046 97.802C182.914 97.73 182.776 97.664 182.632 97.604C182.5 97.532 182.386 97.478 182.29 97.442C182.578 96.89 182.812 96.236 182.992 95.48C183.172 94.712 183.316 93.938 183.424 93.158ZM208.047 98.5625C205.586 98.5625 204.162 97.4199 204.162 95.4512C204.162 93.4473 205.621 92.3398 208.24 92.3398C209.031 92.3398 209.796 92.4893 210.596 92.8145V86.4512C212.547 86.4512 214.129 86.5039 215.693 86.627L215.605 88.0859C214.551 88.0068 213.452 87.9541 212.213 87.9277V93.7109C213.206 94.3965 214.305 95.3369 215.623 96.6113L214.656 97.7188C213.663 96.7783 212.854 96.0488 212.195 95.4863C211.967 97.5078 210.552 98.5625 208.047 98.5625ZM200.576 95.9082C201.631 93.1836 202.501 90.5908 203.248 87.9277H200.436V86.4512H203.652C203.854 85.6338 204.057 84.8164 204.25 83.9727L205.814 84.1484C205.639 84.9219 205.454 85.6953 205.27 86.4512H208.855V87.9277H204.883C204.109 90.7578 203.204 93.5176 202.105 96.3652L200.576 95.9082ZM205.727 95.416C205.727 96.5762 206.518 97.1914 208.047 97.1914C209.734 97.1914 210.596 96.4531 210.596 95.082V94.3086C209.734 93.7988 209.066 93.6582 208.24 93.6582C206.535 93.6582 205.727 94.2207 205.727 95.416ZM223.231 82.88L224.689 83.294C224.293 83.894 223.855 84.512 223.375 85.148C222.895 85.784 222.451 86.324 222.043 86.768L220.945 86.372C221.209 86.048 221.479 85.682 221.755 85.274C222.043 84.866 222.319 84.452 222.583 84.032C222.847 83.612 223.063 83.228 223.231 82.88ZM227.551 84.284L228.595 83.636C229.147 83.972 229.711 84.362 230.287 84.806C230.875 85.238 231.427 85.676 231.943 86.12C232.459 86.552 232.879 86.96 233.203 87.344L232.069 88.082C231.769 87.71 231.367 87.302 230.863 86.858C230.359 86.402 229.819 85.952 229.243 85.508C228.667 85.052 228.103 84.644 227.551 84.284ZM218.263 86.012C219.055 85.988 219.955 85.97 220.963 85.958C221.983 85.946 223.063 85.928 224.203 85.904C225.343 85.868 226.513 85.832 227.713 85.796C228.925 85.76 230.119 85.724 231.295 85.688L231.241 86.822C229.705 86.882 228.157 86.942 226.597 87.002C225.049 87.05 223.573 87.098 222.169 87.146C220.765 87.182 219.517 87.212 218.425 87.236L218.263 86.012ZM217.579 88.712H233.725V89.9H217.579V88.712ZM226.147 90.746L227.227 91.268C226.771 91.616 226.243 91.94 225.643 92.24C225.055 92.54 224.437 92.816 223.789 93.068C223.141 93.308 222.517 93.506 221.917 93.662C221.821 93.542 221.695 93.404 221.539 93.248C221.395 93.08 221.251 92.942 221.107 92.834C221.695 92.69 222.301 92.51 222.925 92.294C223.561 92.078 224.161 91.838 224.725 91.574C225.289 91.31 225.763 91.034 226.147 90.746ZM228.019 92.852L229.099 93.374C228.523 93.854 227.833 94.292 227.029 94.688C226.225 95.072 225.373 95.414 224.473 95.714C223.573 96.014 222.679 96.272 221.791 96.488C221.695 96.344 221.575 96.176 221.431 95.984C221.299 95.792 221.167 95.63 221.035 95.498C221.875 95.33 222.733 95.12 223.609 94.868C224.497 94.604 225.325 94.304 226.093 93.968C226.861 93.62 227.503 93.248 228.019 92.852ZM230.377 94.886L231.547 95.444C230.815 96.2 229.885 96.848 228.757 97.388C227.641 97.916 226.393 98.354 225.013 98.702C223.633 99.062 222.175 99.344 220.639 99.548C220.567 99.368 220.471 99.17 220.351 98.954C220.243 98.75 220.129 98.57 220.009 98.414C221.473 98.258 222.865 98.03 224.185 97.73C225.517 97.418 226.717 97.028 227.785 96.56C228.853 96.092 229.717 95.534 230.377 94.886ZM223.969 86.624L225.283 86.948C224.563 88.712 223.567 90.224 222.295 91.484C221.023 92.732 219.577 93.74 217.957 94.508C217.897 94.412 217.807 94.298 217.687 94.166C217.567 94.034 217.441 93.908 217.309 93.788C217.177 93.656 217.063 93.548 216.967 93.464C218.587 92.792 220.003 91.88 221.215 90.728C222.427 89.576 223.345 88.208 223.969 86.624ZM228.487 88.982C228.883 89.582 229.381 90.17 229.981 90.746C230.581 91.31 231.241 91.814 231.961 92.258C232.681 92.702 233.395 93.068 234.103 93.356C234.007 93.44 233.899 93.548 233.779 93.68C233.671 93.8 233.563 93.926 233.455 94.058C233.359 94.19 233.275 94.31 233.203 94.418C232.471 94.082 231.733 93.656 230.989 93.14C230.257 92.624 229.573 92.048 228.937 91.412C228.313 90.776 227.785 90.11 227.353 89.414L228.487 88.982ZM235.795 88.208H251.293V89.396H235.795V88.208ZM237.181 85.004H247.405V86.156H237.181V85.004ZM241.753 82.88H243.085V88.784H241.753V82.88ZM248.521 90.53L249.385 91.466C248.629 91.67 247.759 91.85 246.775 92.006C245.803 92.162 244.789 92.3 243.733 92.42C242.689 92.54 241.675 92.636 240.691 92.708C240.667 92.564 240.619 92.402 240.547 92.222C240.487 92.03 240.427 91.874 240.367 91.754C241.075 91.694 241.807 91.622 242.563 91.538C243.319 91.454 244.063 91.364 244.795 91.268C245.527 91.16 246.211 91.046 246.847 90.926C247.495 90.794 248.053 90.662 248.521 90.53ZM249.457 83.708L250.555 84.338C249.343 85.802 247.951 87.152 246.379 88.388C244.819 89.612 243.145 90.716 241.357 91.7C239.581 92.672 237.769 93.512 235.921 94.22C235.861 94.124 235.777 94.01 235.669 93.878C235.561 93.734 235.453 93.596 235.345 93.464C235.237 93.332 235.135 93.224 235.039 93.14C236.923 92.492 238.747 91.7 240.511 90.764C242.287 89.816 243.937 88.748 245.461 87.56C246.997 86.372 248.329 85.088 249.457 83.708ZM240.151 90.584L241.501 90.728C241.369 91.316 241.225 91.934 241.069 92.582C240.913 93.23 240.757 93.86 240.601 94.472C240.445 95.072 240.295 95.6 240.151 96.056L238.801 95.858C238.957 95.402 239.113 94.874 239.269 94.274C239.437 93.662 239.599 93.032 239.755 92.384C239.911 91.736 240.043 91.136 240.151 90.584ZM247.999 94.022H249.367C249.367 94.022 249.361 94.064 249.349 94.148C249.349 94.22 249.343 94.304 249.331 94.4C249.331 94.496 249.319 94.574 249.295 94.634C249.163 95.522 249.025 96.26 248.881 96.848C248.737 97.424 248.581 97.886 248.413 98.234C248.257 98.582 248.083 98.846 247.891 99.026C247.699 99.194 247.495 99.308 247.279 99.368C247.075 99.428 246.811 99.458 246.487 99.458C246.223 99.482 245.839 99.488 245.335 99.476C244.843 99.464 244.315 99.446 243.751 99.422C243.739 99.23 243.691 99.014 243.607 98.774C243.535 98.546 243.445 98.342 243.337 98.162C243.901 98.222 244.441 98.258 244.957 98.27C245.485 98.294 245.857 98.306 246.073 98.306C246.253 98.306 246.403 98.294 246.523 98.27C246.643 98.246 246.751 98.198 246.847 98.126C247.075 97.946 247.279 97.556 247.459 96.956C247.651 96.356 247.831 95.438 247.999 94.202V94.022ZM239.953 94.022H248.377V95.174H239.665L239.953 94.022ZM260.311 93.194H267.493V94.22H260.311V93.194ZM258.637 84.284H269.329V85.328H258.637V84.284ZM259.069 86.48H268.879V87.47H259.069V86.48ZM258.097 88.712H269.869V89.756H258.097V88.712ZM260.329 95.588H267.547V96.614H260.329V95.588ZM259.393 90.8H267.475V91.844H260.653V99.422H259.393V90.8ZM267.169 90.8H268.447V97.928C268.447 98.264 268.399 98.528 268.303 98.72C268.219 98.912 268.051 99.056 267.799 99.152C267.547 99.26 267.211 99.32 266.791 99.332C266.371 99.356 265.843 99.368 265.207 99.368C265.183 99.2 265.129 99.002 265.045 98.774C264.973 98.558 264.895 98.366 264.811 98.198C265.267 98.21 265.687 98.216 266.071 98.216C266.467 98.228 266.725 98.228 266.845 98.216C267.061 98.204 267.169 98.102 267.169 97.91V90.8ZM263.245 82.88H264.577V89.036H263.245V82.88ZM255.361 82.88H256.585V99.422H255.361V82.88ZM253.939 86.354L254.947 86.48C254.923 86.948 254.875 87.476 254.803 88.064C254.743 88.64 254.659 89.216 254.551 89.792C254.443 90.368 254.317 90.884 254.173 91.34L253.111 90.98C253.255 90.572 253.381 90.098 253.489 89.558C253.597 89.018 253.687 88.466 253.759 87.902C253.843 87.338 253.903 86.822 253.939 86.354ZM256.747 85.868L257.647 85.508C257.851 85.916 258.049 86.366 258.241 86.858C258.433 87.338 258.571 87.74 258.655 88.064L257.701 88.532C257.617 88.184 257.485 87.758 257.305 87.254C257.125 86.75 256.939 86.288 256.747 85.868ZM280.633 89.828H286.537V90.944H280.633V89.828ZM279.967 83.708H286.393V84.932H281.209V99.458H279.967V83.708ZM285.745 83.708H287.005V87.182C287.005 87.518 286.957 87.782 286.861 87.974C286.777 88.166 286.597 88.316 286.321 88.424C286.045 88.52 285.673 88.58 285.205 88.604C284.749 88.616 284.167 88.622 283.459 88.622C283.435 88.442 283.381 88.244 283.297 88.028C283.225 87.8 283.141 87.602 283.045 87.434C283.429 87.446 283.777 87.458 284.089 87.47C284.413 87.47 284.689 87.47 284.917 87.47C285.145 87.47 285.301 87.464 285.385 87.452C285.541 87.44 285.637 87.416 285.673 87.38C285.721 87.344 285.745 87.278 285.745 87.182V83.708ZM282.397 90.566C282.721 91.694 283.159 92.768 283.711 93.788C284.263 94.796 284.905 95.696 285.637 96.488C286.381 97.28 287.209 97.898 288.121 98.342C287.965 98.462 287.797 98.63 287.617 98.846C287.437 99.074 287.293 99.272 287.185 99.44C286.261 98.912 285.421 98.216 284.665 97.352C283.921 96.488 283.267 95.498 282.703 94.382C282.151 93.266 281.695 92.09 281.335 90.854L282.397 90.566ZM286.123 89.828H286.357L286.591 89.774L287.437 90.08C287.197 91.376 286.837 92.618 286.357 93.806C285.889 94.994 285.295 96.074 284.575 97.046C283.867 98.006 283.033 98.816 282.073 99.476C281.965 99.32 281.821 99.152 281.641 98.972C281.473 98.804 281.311 98.666 281.155 98.558C282.067 97.958 282.859 97.214 283.531 96.326C284.203 95.426 284.755 94.442 285.187 93.374C285.631 92.306 285.943 91.226 286.123 90.134V89.828ZM272.011 84.734H278.689V85.886H272.011V84.734ZM271.813 94.562H278.923V95.732H271.813V94.562ZM271.381 87.704H279.391V88.874H271.381V87.704ZM271.633 91.43H279.157V92.6H271.633V91.43ZM274.783 82.898H276.043V88.118H274.783V82.898ZM274.783 91.934H276.043V99.404H274.783V91.934ZM277.213 88.802L278.383 89.09C278.203 89.522 278.023 89.96 277.843 90.404C277.675 90.836 277.501 91.208 277.321 91.52L276.331 91.232C276.427 91.004 276.529 90.746 276.637 90.458C276.757 90.17 276.865 89.882 276.961 89.594C277.069 89.294 277.153 89.03 277.213 88.802ZM272.623 89.09L273.649 88.82C273.865 89.204 274.051 89.624 274.207 90.08C274.363 90.536 274.459 90.92 274.495 91.232L273.415 91.556C273.379 91.232 273.283 90.842 273.127 90.386C272.983 89.918 272.815 89.486 272.623 89.09ZM298.504 95.293C298.504 94.0449 298.434 93.043 298.293 92.252C295.814 93.3154 294.338 94.5195 294.338 95.5918C294.338 96.6465 295.727 97.2441 298.223 97.2441C299.629 97.2441 301.387 97.0508 303.268 96.6992L303.496 98.1055C301.826 98.4043 299.699 98.6152 298.205 98.6152C294.742 98.6152 292.686 97.5605 292.686 95.7324C292.686 94.0098 294.593 92.2871 297.854 90.916C297.423 90.1162 296.772 89.7734 295.85 89.7734C294.162 89.7734 292.844 90.8984 290.98 93.9395L289.627 93.1484C291.104 90.8193 292.132 89.0352 293.002 87.084H289.645V85.748H293.547C293.767 85.1768 293.986 84.5791 294.197 83.9375L295.832 84.2188C295.647 84.7461 295.454 85.2559 295.27 85.748H303.039V87.084H294.707C294.391 87.8047 294.048 88.499 293.688 89.1934C294.514 88.7363 295.41 88.5078 296.307 88.5078C297.766 88.5078 298.759 89.0703 299.365 90.3184C300.578 89.9053 301.923 89.5273 303.391 89.2109L303.619 90.5645C302.23 90.8809 300.947 91.25 299.822 91.6543C300.033 92.6123 300.139 93.8252 300.139 95.293H298.504ZM313.762 98.4219C309.877 98.4219 307.293 97.0332 307.293 94.9238C307.293 93.7637 308.066 92.4102 309.648 90.7578L311.072 91.4961C309.719 92.8496 309.016 93.957 309.016 94.7656C309.016 96.0664 310.914 96.9453 313.762 96.9453C315.537 96.9453 317.91 96.6113 319.334 96.1895L319.686 97.666C318.262 98.1055 315.713 98.4219 313.762 98.4219ZM308.137 86.8027V85.3262H319.229V86.8027H308.137ZM317.4 93.1309C316.873 91.9883 316.311 90.9863 315.555 89.8789L316.732 89.2109C317.506 90.3359 318.068 91.3379 318.613 92.5508L317.4 93.1309ZM319.967 92.1641C319.475 91.0039 318.93 89.9844 318.174 88.8945L319.369 88.2617C320.107 89.3867 320.67 90.4062 321.18 91.6191L319.967 92.1641ZM331.771 91.592H338.809V92.636H331.771V91.592ZM331.771 94.544H338.809V95.606H331.771V94.544ZM331.789 97.496H339.655V98.648H331.789V97.496ZM329.719 84.716H339.565V87.812H338.341V85.886H330.907V87.812H329.719V84.716ZM334.687 89.432H335.947V98.108H334.687V89.432ZM332.239 88.586H339.115V89.756H332.239V99.44H330.961V89.792L332.131 88.586H332.239ZM333.949 82.862L335.227 83.114C334.723 84.938 334.027 86.582 333.139 88.046C332.263 89.51 331.213 90.722 329.989 91.682C329.929 91.598 329.839 91.496 329.719 91.376C329.611 91.244 329.491 91.118 329.359 90.998C329.239 90.878 329.131 90.782 329.035 90.71C330.223 89.834 331.225 88.724 332.041 87.38C332.869 86.024 333.505 84.518 333.949 82.862ZM335.821 86.444L337.081 86.75C336.865 87.218 336.643 87.692 336.415 88.172C336.199 88.64 335.989 89.042 335.785 89.378L334.759 89.09C334.951 88.73 335.149 88.298 335.353 87.794C335.557 87.278 335.713 86.828 335.821 86.444ZM323.329 84.086H329.683V85.346H323.329V84.086ZM325.147 89.342H329.197V97.226H325.147V96.038H328.027V90.548H325.147V89.342ZM325.435 84.68L326.731 84.878C326.551 86.138 326.317 87.362 326.029 88.55C325.753 89.726 325.411 90.824 325.003 91.844C324.607 92.864 324.133 93.77 323.581 94.562C323.533 94.466 323.461 94.34 323.365 94.184C323.269 94.016 323.173 93.854 323.077 93.698C322.981 93.53 322.891 93.398 322.807 93.302C323.287 92.618 323.695 91.826 324.031 90.926C324.379 90.014 324.667 89.03 324.895 87.974C325.123 86.906 325.303 85.808 325.435 84.68ZM324.589 89.342H325.723V98.648H324.589V89.342ZM351.535 84.14H352.777C352.693 84.86 352.561 85.58 352.381 86.3C352.201 87.008 351.949 87.686 351.625 88.334C351.301 88.982 350.875 89.582 350.347 90.134C349.819 90.674 349.159 91.142 348.367 91.538C348.295 91.394 348.175 91.226 348.007 91.034C347.851 90.842 347.707 90.692 347.575 90.584C348.307 90.248 348.913 89.84 349.393 89.36C349.873 88.868 350.257 88.34 350.545 87.776C350.833 87.2 351.049 86.606 351.193 85.994C351.349 85.37 351.463 84.752 351.535 84.14ZM348.241 86.714L348.889 85.76C349.513 85.976 350.161 86.234 350.833 86.534C351.505 86.822 352.135 87.128 352.723 87.452C353.323 87.764 353.821 88.058 354.217 88.334L353.551 89.396C353.155 89.108 352.657 88.796 352.057 88.46C351.469 88.124 350.839 87.8 350.167 87.488C349.507 87.176 348.865 86.918 348.241 86.714ZM355.783 83.654H357.061C357.061 83.654 357.061 83.69 357.061 83.762C357.061 83.822 357.061 83.9 357.061 83.996C357.061 84.08 357.061 84.152 357.061 84.212C357.001 85.628 356.935 86.774 356.863 87.65C356.791 88.526 356.707 89.192 356.611 89.648C356.515 90.104 356.389 90.416 356.233 90.584C356.101 90.764 355.951 90.89 355.783 90.962C355.615 91.034 355.405 91.082 355.153 91.106C354.937 91.13 354.637 91.142 354.253 91.142C353.881 91.13 353.479 91.112 353.047 91.088C353.035 90.908 352.999 90.704 352.939 90.476C352.879 90.236 352.795 90.032 352.687 89.864C353.107 89.9 353.491 89.924 353.839 89.936C354.187 89.936 354.433 89.936 354.577 89.936C354.841 89.96 355.033 89.9 355.153 89.756C355.261 89.636 355.351 89.372 355.423 88.964C355.507 88.556 355.579 87.944 355.639 87.128C355.699 86.312 355.747 85.226 355.783 83.87V83.654ZM350.275 93.23H351.517V97.586C351.517 97.802 351.553 97.94 351.625 98C351.697 98.06 351.859 98.09 352.111 98.09C352.159 98.09 352.261 98.09 352.417 98.09C352.573 98.09 352.741 98.09 352.921 98.09C353.113 98.09 353.287 98.09 353.443 98.09C353.599 98.09 353.719 98.09 353.803 98.09C353.959 98.09 354.079 98.048 354.163 97.964C354.247 97.868 354.307 97.676 354.343 97.388C354.379 97.1 354.403 96.65 354.415 96.038C354.499 96.11 354.607 96.182 354.739 96.254C354.871 96.314 355.009 96.368 355.153 96.416C355.297 96.464 355.429 96.506 355.549 96.542C355.513 97.274 355.441 97.838 355.333 98.234C355.225 98.642 355.057 98.918 354.829 99.062C354.613 99.218 354.313 99.296 353.929 99.296C353.869 99.296 353.743 99.296 353.551 99.296C353.359 99.296 353.155 99.296 352.939 99.296C352.723 99.296 352.519 99.296 352.327 99.296C352.147 99.296 352.015 99.296 351.931 99.296C351.487 99.296 351.139 99.248 350.887 99.152C350.647 99.056 350.485 98.882 350.401 98.63C350.317 98.378 350.275 98.036 350.275 97.604V93.23ZM348.565 93.842L349.645 94.13C349.585 94.658 349.495 95.192 349.375 95.732C349.267 96.272 349.111 96.782 348.907 97.262C348.703 97.73 348.445 98.132 348.133 98.468L347.125 97.82C347.413 97.52 347.647 97.16 347.827 96.74C348.019 96.308 348.175 95.846 348.295 95.354C348.415 94.85 348.505 94.346 348.565 93.842ZM350.563 91.592L351.373 90.8C351.769 90.992 352.171 91.226 352.579 91.502C352.987 91.778 353.371 92.06 353.731 92.348C354.091 92.636 354.379 92.906 354.595 93.158L353.767 94.058C353.551 93.806 353.269 93.53 352.921 93.23C352.573 92.93 352.195 92.642 351.787 92.366C351.379 92.078 350.971 91.82 350.563 91.592ZM354.775 93.968L355.873 93.518C356.197 93.962 356.497 94.442 356.773 94.958C357.061 95.462 357.301 95.966 357.493 96.47C357.697 96.974 357.841 97.43 357.925 97.838L356.719 98.324C356.647 97.916 356.515 97.46 356.323 96.956C356.131 96.452 355.897 95.942 355.621 95.426C355.357 94.898 355.075 94.412 354.775 93.968ZM348.385 83.654H356.359V84.806H348.385V83.654ZM341.869 88.334H346.981V89.396H341.869V88.334ZM341.941 83.51H346.927V84.59H341.941V83.51ZM341.869 90.728H346.981V91.808H341.869V90.728ZM341.059 85.868H347.503V87.002H341.059V85.868ZM342.481 93.158H346.999V98.414H342.481V97.298H345.829V94.292H342.481V93.158ZM341.851 93.158H343.003V99.242H341.851V93.158ZM363.824 98.0879C361.627 98.0879 359.904 94.9941 359.904 91.0215C359.904 89.4395 360.203 87.5762 360.748 85.625L362.383 85.8359C361.855 87.6289 361.574 89.3867 361.574 90.8633C361.574 93.7988 362.717 96.3301 363.947 96.3301C365.09 96.3301 366.918 94.2031 367.727 91.8652L369.203 92.6035C368.148 95.627 365.775 98.0879 363.824 98.0879ZM372.525 96.4707C372.525 92.6035 371.682 88.7012 370.258 85.8359L371.787 85.3613C373.334 88.332 374.178 92.3047 374.178 96.4707H372.525ZM376.797 98.4043C377.869 94.9854 378.739 91.373 379.398 87.6992H376.533V86.2578H379.627C379.741 85.5283 379.847 84.8076 379.943 84.0781L381.578 84.1484C381.49 84.8516 381.394 85.5547 381.297 86.2578H388.311V87.6992H381.068C380.427 91.4082 379.539 95.1611 378.432 98.7031L376.797 98.4043ZM387.133 98.334C384.127 98.334 382.176 97.2441 382.176 95.5215C382.176 94.6074 382.773 93.7988 384.074 92.8672L385.322 93.7109C384.355 94.3262 383.898 94.8711 383.898 95.3633C383.898 96.2422 385.182 96.8574 387.133 96.8574C388.17 96.8574 389.295 96.752 390.49 96.5234L390.684 98C389.453 98.2461 388.311 98.334 387.133 98.334ZM382.791 89.9141C385.41 89.6328 387.924 89.4922 390.455 89.4922V90.9336C387.959 90.9336 385.48 91.0566 382.879 91.3555L382.791 89.9141ZM393.496 98.5801C394.568 95.1523 395.438 91.5488 396.08 87.875H393.25V86.416H396.326C396.44 85.6953 396.546 84.9658 396.643 84.2363L398.277 84.3242C398.189 85.0186 398.093 85.7129 397.996 86.416H403.938V87.875H397.768C397.126 91.5752 396.238 95.3281 395.131 98.8789L393.496 98.5801ZM403.832 98.5098C400.826 98.5098 398.893 97.4199 398.893 95.6973C398.893 94.7832 399.473 93.957 400.791 93.0254L402.039 93.8867C401.055 94.502 400.598 95.0293 400.598 95.5391C400.598 96.4004 401.898 97.0332 403.832 97.0332C404.869 97.0332 405.994 96.9102 407.207 96.6816L407.383 98.1582C406.152 98.4043 405.01 98.5098 403.832 98.5098ZM399.49 90.0723C402.109 89.8086 404.623 89.6504 407.154 89.6504V91.1094C404.658 91.1094 402.18 91.2324 399.596 91.5312L399.49 90.0723ZM405.168 87.7695C404.588 86.5215 404.061 85.6074 403.393 84.6934L404.518 84.0254C405.238 84.9922 405.766 85.9766 406.328 87.1895L405.168 87.7695ZM407.559 86.9961C407.014 85.7305 406.504 84.8164 405.871 83.8848L406.961 83.2695C407.664 84.2715 408.191 85.2559 408.719 86.4863L407.559 86.9961ZM415.68 96.8574C420.285 96.6465 420.883 96.1543 420.883 92.4453V89.1055H414.625V87.6465H420.883V84.377H422.518V87.6465H425.189V89.1055H422.518V92.4453C422.518 96.998 421.305 98.0879 416.066 98.3516L415.68 96.8574ZM411.637 98.5801C411.057 96.2949 410.793 94.1504 410.793 91.6367C410.793 89.1406 411.057 86.9961 411.637 84.6934L413.307 84.9043C412.744 87.1191 412.498 89.2461 412.498 91.6367C412.498 94.0273 412.744 96.1719 413.307 98.334L411.637 98.5801ZM136.135 120.51C133.551 120.51 132.109 119.473 132.109 117.609C132.109 115.729 133.533 114.727 136.135 114.727C137.022 114.727 137.875 114.841 138.736 115.096V112.793H131.969V111.404H138.736V109.33H131.793V107.924H138.736V106.096H140.301V107.924H145.082V109.33H140.301V111.404H144.906V112.793H140.301V115.711C141.733 116.405 143.254 117.504 145.047 119.086L144.01 120.141C142.577 118.901 141.364 117.987 140.283 117.328C140.063 119.473 138.71 120.51 136.135 120.51ZM133.744 117.574C133.744 118.576 134.553 119.104 136.1 119.104C137.928 119.104 138.736 118.365 138.736 116.73V116.572C137.84 116.238 137.005 116.08 136.135 116.08C134.535 116.08 133.744 116.572 133.744 117.574ZM151.322 119.227C153.95 119.077 155.998 117.908 156.561 116.291C155.928 116.757 155.049 117.047 154.082 117.047C151.955 117.047 150.566 115.711 150.566 113.654C150.566 111.58 152.043 110.244 154.258 110.244C155.058 110.244 155.734 110.429 156.314 110.789V109.33H147.895V107.994H156.314V105.902H157.984V107.994H162.73V109.33H157.984V112.916C158.23 113.461 158.336 114.041 158.336 114.744C158.336 118.172 155.752 120.475 151.568 120.686L151.322 119.227ZM154.346 115.711C155.541 115.711 156.543 115.025 156.543 113.654C156.543 112.389 155.699 111.58 154.398 111.58C153.08 111.58 152.236 112.371 152.236 113.654C152.236 114.885 153.062 115.711 154.346 115.711Z" fill="#605070"/>
</svg>
