<svg width="480" height="220" viewBox="0 0 480 220" fill="none" xmlns="http://www.w3.org/2000/svg">
<mask id="path-1-inside-1_641_289" fill="white">
<path fill-rule="evenodd" clip-rule="evenodd" d="M32 0C14.3269 0 0 14.3269 0 32V123C0 140.673 14.3269 155 32 155H43.6706L34.3576 192.904C33.1631 197.765 39.0614 201.17 42.6741 197.705L87.2003 155H448C465.673 155 480 140.673 480 123V32C480 14.3269 465.673 0 448 0H32Z"/>
</mask>
<path fill-rule="evenodd" clip-rule="evenodd" d="M32 0C14.3269 0 0 14.3269 0 32V123C0 140.673 14.3269 155 32 155H43.6706L34.3576 192.904C33.1631 197.765 39.0614 201.17 42.6741 197.705L87.2003 155H448C465.673 155 480 140.673 480 123V32C480 14.3269 465.673 0 448 0H32Z" fill="#F6EEFF"/>
<path d="M43.6706 155L49.4973 156.432L51.3233 149H43.6706V155ZM34.3576 192.904L40.1843 194.335L40.1843 194.335L34.3576 192.904ZM42.6741 197.705L38.521 193.375L38.521 193.375L42.6741 197.705ZM87.2003 155V149H84.788L83.0471 150.67L87.2003 155ZM6 32C6 17.6406 17.6406 6 32 6V-6C11.0132 -6 -6 11.0132 -6 32H6ZM6 123V32H-6V123H6ZM32 149C17.6406 149 6 137.359 6 123H-6C-6 143.987 11.0132 161 32 161V149ZM43.6706 149H32V161H43.6706V149ZM40.1843 194.335L49.4973 156.432L37.8439 153.568L28.5309 191.472L40.1843 194.335ZM38.521 193.375C38.6057 193.294 38.8393 193.152 39.1547 193.124C39.4178 193.101 39.6029 193.167 39.7132 193.231C39.8234 193.294 39.9736 193.421 40.085 193.661C40.2186 193.948 40.2123 194.221 40.1843 194.335L28.5309 191.472C25.9031 202.167 38.8793 209.659 46.8273 202.036L38.521 193.375ZM83.0471 150.67L38.521 193.375L46.8273 202.036L91.3535 159.33L83.0471 150.67ZM448 149H87.2003V161H448V149ZM474 123C474 137.359 462.359 149 448 149V161C468.987 161 486 143.987 486 123H474ZM474 32V123H486V32H474ZM448 6C462.359 6 474 17.6406 474 32H486C486 11.0132 468.987 -6 448 -6V6ZM32 6H448V-6H32V6Z" fill="#605070" mask="url(#path-1-inside-1_641_289)"/>
<rect x="30" y="30" width="80" height="80" rx="15" fill="#605070"/>
<path d="M49.5459 59.7898V54.6761C49.5459 53.3199 50.0847 52.0192 51.0436 51.0602C52.0026 50.1013 53.3033 49.5625 54.6595 49.5625H59.7732M49.5459 80.2443V85.358C49.5459 86.7142 50.0847 88.0148 51.0436 88.9738C52.0026 89.9328 53.3033 90.4716 54.6595 90.4716H59.7732M80.2277 49.5625H85.3413C86.6976 49.5625 87.9982 50.1013 88.9572 51.0602C89.9162 52.0192 90.455 53.3199 90.455 54.6761V59.7898" stroke="white" stroke-width="3.6" stroke-linecap="round" stroke-linejoin="round"/>
<path d="M87.0452 87.0696L78.5225 78.5469M59.7725 70.0242C59.7725 71.3672 60.037 72.6971 60.551 73.938C61.0649 75.1788 61.8183 76.3062 62.768 77.2559C63.7176 78.2056 64.8451 78.959 66.0859 79.4729C67.3268 79.9869 68.6567 80.2514 69.9997 80.2514C71.3428 80.2514 72.6727 79.9869 73.9135 79.4729C75.1544 78.959 76.2818 78.2056 77.2315 77.2559C78.1812 76.3062 78.9345 75.1788 79.4485 73.938C79.9625 72.6971 80.227 71.3672 80.227 70.0242C80.227 67.3117 79.1495 64.7104 77.2315 62.7924C75.3135 60.8744 72.7122 59.7969 69.9997 59.7969C67.2873 59.7969 64.6859 60.8744 62.768 62.7924C60.85 64.7104 59.7725 67.3117 59.7725 70.0242Z" stroke="white" stroke-width="3.6" stroke-linecap="round" stroke-linejoin="round"/>
<path d="M135.156 32.9375V50H131.441V32.9375H135.156ZM139.48 32.9375H142.609L145.703 44.6797L148.785 32.9375H151.727L147.004 50H144.391L139.48 32.9375ZM137.875 32.9375H141.004L141.543 45.0664V50H137.875V32.9375ZM150.391 32.9375H153.52V50H149.863V45.0664L150.391 32.9375ZM162.613 36.2539L159.191 50H155.219L160.527 32.9375H163L162.613 36.2539ZM165.309 50L161.875 36.2539L161.43 32.9375H163.949L169.281 50H165.309ZM165.438 43.6367V46.6484H157.879V43.6367H165.438ZM182.289 40.9531V48.043C182.039 48.3008 181.668 48.6016 181.176 48.9453C180.691 49.2891 180.066 49.5898 179.301 49.8477C178.543 50.1055 177.633 50.2344 176.57 50.2344C175.609 50.2344 174.738 50.0859 173.957 49.7891C173.184 49.4922 172.52 49.043 171.965 48.4414C171.418 47.832 170.996 47.0703 170.699 46.1562C170.41 45.2422 170.266 44.1562 170.266 42.8984V40.0391C170.266 38.7969 170.41 37.7148 170.699 36.793C170.988 35.8711 171.402 35.1055 171.941 34.4961C172.48 33.8867 173.121 33.4336 173.863 33.1367C174.605 32.8398 175.441 32.6914 176.371 32.6914C177.691 32.6914 178.777 32.9141 179.629 33.3594C180.48 33.8047 181.121 34.4531 181.551 35.3047C181.98 36.1562 182.223 37.1992 182.277 38.4336H178.703C178.656 37.7461 178.547 37.2031 178.375 36.8047C178.211 36.4062 177.973 36.1211 177.66 35.9492C177.355 35.7773 176.961 35.6914 176.477 35.6914C176.07 35.6914 175.711 35.7695 175.398 35.9258C175.094 36.0742 174.836 36.3203 174.625 36.6641C174.422 37 174.27 37.4453 174.168 38C174.066 38.5469 174.016 39.2188 174.016 40.0156V42.8984C174.016 43.6953 174.066 44.3711 174.168 44.9258C174.277 45.4727 174.441 45.918 174.66 46.2617C174.887 46.5977 175.176 46.8438 175.527 47C175.887 47.1484 176.312 47.2227 176.805 47.2227C177.164 47.2227 177.453 47.1836 177.672 47.1055C177.898 47.0273 178.082 46.9375 178.223 46.8359C178.371 46.7344 178.488 46.6641 178.574 46.625V43.6602H176.336V40.9531H182.289ZM194.547 46.9883V50H187.105V46.9883H194.547ZM188.336 32.9375V50H184.609V32.9375H188.336ZM193.562 39.7812V42.6875H187.105V39.7812H193.562ZM194.547 32.9375V35.9609H187.105V32.9375H194.547ZM211.82 46.9883V50H204.379V46.9883H211.82ZM205.609 32.9375V50H201.883V32.9375H205.609ZM210.836 39.7812V42.6875H204.379V39.7812H210.836ZM211.82 32.9375V35.9609H204.379V32.9375H211.82ZM216.977 32.9375L219.168 38.6094L221.277 32.9375H225.449L221.477 41.3867L225.531 50H221.254L219.074 44.2109L216.883 50H212.641L216.742 41.3516L212.734 32.9375H216.977ZM232.996 44.1055H229.539V41.082H232.996C233.441 41.082 233.801 40.9805 234.074 40.7773C234.348 40.5664 234.547 40.2812 234.672 39.9219C234.797 39.5547 234.859 39.1406 234.859 38.6797C234.859 38.1953 234.797 37.7461 234.672 37.332C234.547 36.918 234.348 36.5859 234.074 36.3359C233.801 36.0859 233.441 35.9609 232.996 35.9609H230.828V50H227.102V32.9375H232.996C234.16 32.9375 235.16 33.1836 235.996 33.6758C236.84 34.168 237.488 34.8438 237.941 35.7031C238.395 36.5625 238.621 37.5469 238.621 38.6562C238.621 39.7578 238.395 40.7148 237.941 41.5273C237.488 42.3398 236.84 42.9727 235.996 43.4258C235.16 43.8789 234.16 44.1055 232.996 44.1055ZM250.469 46.9883V50H243.332V46.9883H250.469ZM244.562 32.9375V50H240.836V32.9375H244.562ZM258.871 36.2539L255.449 50H251.477L256.785 32.9375H259.258L258.871 36.2539ZM261.566 50L258.133 36.2539L257.688 32.9375H260.207L265.539 50H261.566ZM261.695 43.6367V46.6484H254.137V43.6367H261.695ZM279.098 32.9375V50H275.453L270.625 39.3828V50H266.992V32.9375H270.637L275.477 43.6133V32.9375H279.098ZM288.168 36.2539L284.746 50H280.773L286.082 32.9375H288.555L288.168 36.2539ZM290.863 50L287.43 36.2539L286.984 32.9375H289.504L294.836 50H290.863ZM290.992 43.6367V46.6484H283.434V43.6367H290.992ZM302.008 32.9375V50H298.293V32.9375H302.008ZM306.191 32.9375V35.9609H294.203V32.9375H306.191ZM311.945 32.9375V50H308.23V32.9375H311.945ZM326.863 40.168V42.8867C326.863 44.0977 326.715 45.1641 326.418 46.0859C326.121 47 325.695 47.7656 325.141 48.3828C324.594 49 323.938 49.4648 323.172 49.7773C322.414 50.082 321.574 50.2344 320.652 50.2344C319.723 50.2344 318.875 50.082 318.109 49.7773C317.344 49.4648 316.684 49 316.129 48.3828C315.574 47.7656 315.145 47 314.84 46.0859C314.543 45.1641 314.395 44.0977 314.395 42.8867V40.168C314.395 38.9414 314.543 37.8633 314.84 36.9336C315.145 35.9961 315.57 35.2188 316.117 34.6016C316.672 33.9766 317.328 33.5039 318.086 33.1836C318.852 32.8633 319.699 32.7031 320.629 32.7031C321.559 32.7031 322.402 32.8633 323.16 33.1836C323.926 33.5039 324.582 33.9766 325.129 34.6016C325.684 35.2188 326.109 35.9961 326.406 36.9336C326.711 37.8633 326.863 38.9414 326.863 40.168ZM323.125 42.8867V40.1445C323.125 39.3555 323.07 38.6836 322.961 38.1289C322.859 37.5742 322.703 37.1211 322.492 36.7695C322.281 36.418 322.02 36.1602 321.707 35.9961C321.402 35.832 321.043 35.75 320.629 35.75C320.207 35.75 319.84 35.832 319.527 35.9961C319.215 36.1602 318.953 36.418 318.742 36.7695C318.539 37.1211 318.387 37.5742 318.285 38.1289C318.191 38.6836 318.145 39.3555 318.145 40.1445V42.8867C318.145 43.6523 318.195 44.3086 318.297 44.8555C318.398 45.4023 318.555 45.8477 318.766 46.1914C318.977 46.5352 319.238 46.7891 319.551 46.9531C319.863 47.1172 320.23 47.1992 320.652 47.1992C321.059 47.1992 321.414 47.1172 321.719 46.9531C322.031 46.7891 322.289 46.5352 322.492 46.1914C322.703 45.8477 322.859 45.4023 322.961 44.8555C323.07 44.3086 323.125 43.6523 323.125 42.8867ZM341.254 32.9375V50H337.609L332.781 39.3828V50H329.148V32.9375H332.793L337.633 43.6133V32.9375H341.254Z" fill="#605070"/>
<path d="M132.322 75.028H145.678V76.306H132.322V75.028ZM131.044 62.05H146.974V63.328H131.044V62.05ZM131.602 65.128H132.916V77.44H131.602V65.128ZM145.138 65.128H146.452V77.386H145.138V65.128ZM138.244 62.446H139.612V65.92H138.244V62.446ZM138.334 65.83H139.54V72.958H138.334V65.83ZM135.778 69.916V72.292H142.114V69.916H135.778ZM135.778 66.478V68.836H142.114V66.478H135.778ZM134.626 65.344H143.302V73.444H134.626V65.344ZM156.478 60.898L157.792 61.132C157.324 61.984 156.736 62.848 156.028 63.724C155.332 64.6 154.504 65.416 153.544 66.172C153.424 66.028 153.268 65.884 153.076 65.74C152.884 65.584 152.704 65.464 152.536 65.38C153.16 64.948 153.724 64.474 154.228 63.958C154.732 63.442 155.17 62.926 155.542 62.41C155.926 61.882 156.238 61.378 156.478 60.898ZM156.586 62.032H160.924V63.094H155.74L156.586 62.032ZM155.308 65.416V67.468H163.3V65.416H155.308ZM154.066 64.426H164.596V68.458H154.066V64.426ZM158.62 64.84H159.844V67.9H158.62V64.84ZM158.674 67.558L159.736 67.99C159.244 68.446 158.662 68.884 157.99 69.304C157.33 69.724 156.628 70.108 155.884 70.456C155.152 70.804 154.438 71.104 153.742 71.356C153.694 71.272 153.622 71.17 153.526 71.05C153.43 70.93 153.328 70.816 153.22 70.708C153.124 70.588 153.034 70.492 152.95 70.42C153.646 70.204 154.348 69.952 155.056 69.664C155.776 69.376 156.448 69.052 157.072 68.692C157.708 68.332 158.242 67.954 158.674 67.558ZM156.784 69.484L157.684 68.926C158.368 69.418 158.92 69.97 159.34 70.582C159.772 71.194 160.09 71.824 160.294 72.472C160.498 73.108 160.606 73.72 160.618 74.308C160.63 74.884 160.552 75.4 160.384 75.856C160.216 76.312 159.976 76.654 159.664 76.882C159.4 77.098 159.136 77.242 158.872 77.314C158.608 77.398 158.296 77.446 157.936 77.458C157.744 77.458 157.522 77.452 157.27 77.44C157.03 77.428 156.784 77.416 156.532 77.404C156.52 77.248 156.49 77.056 156.442 76.828C156.394 76.612 156.316 76.414 156.208 76.234C156.496 76.27 156.766 76.294 157.018 76.306C157.282 76.318 157.498 76.324 157.666 76.324C157.894 76.324 158.092 76.306 158.26 76.27C158.44 76.234 158.608 76.15 158.764 76.018C159.04 75.814 159.226 75.472 159.322 74.992C159.43 74.5 159.424 73.936 159.304 73.3C159.184 72.652 158.92 71.998 158.512 71.338C158.104 70.666 157.528 70.048 156.784 69.484ZM158.404 70.204L159.214 70.762C158.806 71.146 158.29 71.536 157.666 71.932C157.054 72.328 156.412 72.7 155.74 73.048C155.068 73.384 154.426 73.666 153.814 73.894C153.73 73.762 153.622 73.606 153.49 73.426C153.37 73.246 153.244 73.096 153.112 72.976C153.712 72.796 154.348 72.556 155.02 72.256C155.692 71.956 156.328 71.626 156.928 71.266C157.54 70.906 158.032 70.552 158.404 70.204ZM159.34 72.148L160.24 72.778C159.736 73.306 159.106 73.84 158.35 74.38C157.594 74.908 156.796 75.4 155.956 75.856C155.116 76.312 154.306 76.684 153.526 76.972C153.442 76.816 153.328 76.642 153.184 76.45C153.052 76.258 152.914 76.102 152.77 75.982C153.346 75.79 153.946 75.556 154.57 75.28C155.194 75.004 155.8 74.692 156.388 74.344C156.988 73.996 157.54 73.636 158.044 73.264C158.56 72.892 158.992 72.52 159.34 72.148ZM164.182 68.998L165.136 69.808C164.668 70.216 164.146 70.63 163.57 71.05C162.994 71.458 162.466 71.806 161.986 72.094L161.194 71.374C161.506 71.17 161.842 70.93 162.202 70.654C162.574 70.378 162.934 70.096 163.282 69.808C163.63 69.52 163.93 69.25 164.182 68.998ZM160.672 67.756C160.924 68.896 161.266 69.982 161.698 71.014C162.13 72.034 162.658 72.94 163.282 73.732C163.918 74.512 164.632 75.13 165.424 75.586C165.328 75.67 165.22 75.778 165.1 75.91C164.98 76.03 164.866 76.156 164.758 76.288C164.662 76.42 164.578 76.546 164.506 76.666C163.678 76.126 162.94 75.418 162.292 74.542C161.644 73.666 161.098 72.67 160.654 71.554C160.21 70.438 159.844 69.25 159.556 67.99L160.672 67.756ZM160.492 62.032H160.78L161.032 61.96L161.86 62.536C161.572 63.028 161.23 63.532 160.834 64.048C160.45 64.552 160.084 64.978 159.736 65.326C159.64 65.206 159.514 65.068 159.358 64.912C159.202 64.756 159.07 64.636 158.962 64.552C159.25 64.24 159.538 63.874 159.826 63.454C160.114 63.022 160.336 62.626 160.492 62.266V62.032ZM152.194 60.97L153.436 61.312C153.1 62.356 152.698 63.388 152.23 64.408C151.774 65.428 151.276 66.394 150.736 67.306C150.196 68.206 149.626 69.004 149.026 69.7C148.99 69.592 148.93 69.454 148.846 69.286C148.762 69.106 148.672 68.932 148.576 68.764C148.48 68.584 148.396 68.44 148.324 68.332C148.852 67.72 149.356 67.024 149.836 66.244C150.316 65.452 150.754 64.606 151.15 63.706C151.558 62.806 151.906 61.894 152.194 60.97ZM150.736 65.38L151.996 64.138L152.032 64.174V77.44H150.736V65.38ZM177.145 75.7891C174.051 75.7891 171.889 74.4707 171.889 72.5898C171.889 71.4473 172.68 70.2871 174.191 69.1094L175.352 70.041C174.086 70.9902 173.506 71.7461 173.506 72.4668C173.506 73.5742 174.93 74.2949 177.145 74.2949C178.305 74.2949 179.746 74.1191 181.152 73.8379L181.398 75.2793C179.975 75.5957 178.463 75.7891 177.145 75.7891ZM172.662 65.4531V63.959H181.293V65.4531H172.662ZM168.725 76.5801C168.145 74.2949 167.881 72.1504 167.881 69.6367C167.881 67.1406 168.145 64.9961 168.725 62.6934L170.377 62.9043C169.814 65.1191 169.568 67.2461 169.568 69.6367C169.568 72.0273 169.814 74.1719 170.377 76.334L168.725 76.5801ZM195.127 76.0527C194.107 76.0527 192.367 75.9121 191.031 75.7539L191.172 74.2246C192.139 74.3652 193.879 74.4707 194.652 74.4707C196.094 74.4707 196.278 73.9434 196.357 66.1914H190.205C189.81 71.5967 188.482 74.1455 185.301 76.3867L184.211 75.209C187.129 73.1348 188.28 71.0605 188.623 66.1914H184.229V64.7148H188.711C188.729 63.8535 188.746 62.9219 188.746 61.9023H190.328C190.328 62.9131 190.311 63.8447 190.275 64.7148H197.992V65.5059C197.992 74.752 197.658 76.0527 195.127 76.0527ZM201.648 70.4453V68.8281H214.727V70.4453H201.648ZM220.404 74.4883C227.541 73.8027 230.23 70.7266 230.318 63.0977L231.953 63.168C231.865 71.6406 228.631 75.2969 220.686 76L220.404 74.4883ZM220.791 69.6895C219.982 67.7207 219.086 65.7871 218.119 63.9414L219.631 63.2734C220.598 65.1016 221.512 67.0703 222.338 69.0742L220.791 69.6895ZM242.131 76.2461V62.7285H243.801V74.5586C246.314 74.1543 247.949 72.0537 248.406 68.5293L249.971 68.7578C249.391 73.4336 246.719 76.2461 242.834 76.2461H242.131ZM233.922 75.0508C236.594 73.873 237.244 72.4141 237.244 67.6328V62.7285H238.879V67.7559C238.879 73.0469 237.895 75.1035 234.766 76.4395L233.922 75.0508ZM260.254 73.293C260.254 72.0449 260.184 71.043 260.043 70.252C257.564 71.3154 256.088 72.5195 256.088 73.5918C256.088 74.6465 257.477 75.2441 259.973 75.2441C261.379 75.2441 263.137 75.0508 265.018 74.6992L265.246 76.1055C263.576 76.4043 261.449 76.6152 259.955 76.6152C256.492 76.6152 254.436 75.5605 254.436 73.7324C254.436 72.0098 256.343 70.2871 259.604 68.916C259.173 68.1162 258.522 67.7734 257.6 67.7734C255.912 67.7734 254.594 68.8984 252.73 71.9395L251.377 71.1484C252.854 68.8193 253.882 67.0352 254.752 65.084H251.395V63.748H255.297C255.517 63.1768 255.736 62.5791 255.947 61.9375L257.582 62.2188C257.397 62.7461 257.204 63.2559 257.02 63.748H264.789V65.084H256.457C256.141 65.8047 255.798 66.499 255.438 67.1934C256.264 66.7363 257.16 66.5078 258.057 66.5078C259.516 66.5078 260.509 67.0703 261.115 68.3184C262.328 67.9053 263.673 67.5273 265.141 67.2109L265.369 68.5645C263.98 68.8809 262.697 69.25 261.572 69.6543C261.783 70.6123 261.889 71.8252 261.889 73.293H260.254ZM271.714 66.766H280.804V67.972H271.714V66.766ZM271.39 75.496H281.038V76.702H271.39V75.496ZM270.778 70.24H281.794V77.458H280.426V71.464H272.11V77.458H270.778V70.24ZM276.214 62.248C275.722 62.98 275.08 63.736 274.288 64.516C273.508 65.296 272.638 66.046 271.678 66.766C270.73 67.486 269.74 68.122 268.708 68.674C268.648 68.578 268.57 68.464 268.474 68.332C268.378 68.2 268.276 68.068 268.168 67.936C268.06 67.804 267.958 67.696 267.862 67.612C268.918 67.072 269.932 66.43 270.904 65.686C271.888 64.942 272.77 64.156 273.55 63.328C274.342 62.5 274.972 61.696 275.44 60.916H276.826C277.306 61.588 277.852 62.242 278.464 62.878C279.088 63.514 279.748 64.114 280.444 64.678C281.152 65.242 281.872 65.758 282.604 66.226C283.348 66.682 284.074 67.066 284.782 67.378C284.626 67.546 284.47 67.738 284.314 67.954C284.158 68.17 284.014 68.38 283.882 68.584C283.174 68.2 282.46 67.768 281.74 67.288C281.02 66.808 280.318 66.292 279.634 65.74C278.95 65.176 278.314 64.6 277.726 64.012C277.138 63.412 276.634 62.824 276.214 62.248ZM296.447 75.8418C295.234 75.8418 293.828 75.6133 292.65 75.2266L292.967 73.8027C294.057 74.1016 295.445 74.3125 296.447 74.3125C298.785 74.3125 299.629 73.2754 299.629 70.1465C299.629 67.123 298.609 65.6816 296.447 65.6816C294.769 65.6816 293.239 66.5605 290.734 69.1621V76.791H289.135V70.8496C288.449 71.7109 287.711 72.6953 286.902 73.8027L285.936 72.4668C287.14 70.9639 288.186 69.707 289.135 68.6523V66.4551H285.777V65.0312H289.135V62.4648H290.734V67.0176C292.932 64.917 294.575 64.1699 296.447 64.1699C299.646 64.1699 301.264 66.1914 301.264 70.1465C301.264 74.1191 299.805 75.8418 296.447 75.8418ZM311.389 76.3164C306.73 76.3164 305.693 75.5781 305.693 72.2207V66.877L302.652 66.9473V65.541L305.693 65.4707V62.6406H307.328V65.4355L313.797 65.2949V62.2891H315.432V65.2598L318.473 65.207V66.6133L315.432 66.666V70.1641C315.432 71.623 314.992 72.1504 313.656 72.1504C312.654 72.1504 311.23 71.8516 309.877 71.3594L310.246 69.918C311.863 70.4102 312.602 70.5684 313.234 70.5684C313.691 70.5684 313.797 70.4453 313.797 69.6543V66.7012L307.328 66.8418V72.2207C307.328 74.5059 307.873 74.875 311.389 74.875C313.146 74.875 315.08 74.7695 316.768 74.5586L316.908 76.0176C315.168 76.2285 313.164 76.3164 311.389 76.3164ZM330.637 76.2637C326.629 76.2637 324.062 74.0488 324.062 70.6211C324.062 68.2217 325.346 66.209 327.455 65.1367L320.23 65.3125V63.8359L334.363 63.502V64.9785L332.254 65.0312C328.545 65.1191 325.803 67.2637 325.803 70.4629C325.803 73.1172 327.648 74.7344 330.637 74.7344C331.305 74.7344 332.219 74.6641 332.799 74.5586L332.992 76.0703C332.342 76.1934 331.357 76.2637 330.637 76.2637ZM380.91 73.293C380.91 72.0449 380.84 71.043 380.699 70.252C378.221 71.3154 376.744 72.5195 376.744 73.5918C376.744 74.6465 378.133 75.2441 380.629 75.2441C382.035 75.2441 383.793 75.0508 385.674 74.6992L385.902 76.1055C384.232 76.4043 382.105 76.6152 380.611 76.6152C377.148 76.6152 375.092 75.5605 375.092 73.7324C375.092 72.0098 376.999 70.2871 380.26 68.916C379.829 68.1162 379.179 67.7734 378.256 67.7734C376.568 67.7734 375.25 68.8984 373.387 71.9395L372.033 71.1484C373.51 68.8193 374.538 67.0352 375.408 65.084H372.051V63.748H375.953C376.173 63.1768 376.393 62.5791 376.604 61.9375L378.238 62.2188C378.054 62.7461 377.86 63.2559 377.676 63.748H385.445V65.084H377.113C376.797 65.8047 376.454 66.499 376.094 67.1934C376.92 66.7363 377.816 66.5078 378.713 66.5078C380.172 66.5078 381.165 67.0703 381.771 68.3184C382.984 67.9053 384.329 67.5273 385.797 67.2109L386.025 68.5645C384.637 68.8809 383.354 69.25 382.229 69.6543C382.439 70.6123 382.545 71.8252 382.545 73.293H380.91ZM390.824 74.8574C396.704 74.2861 400.896 70.5156 401.301 65.5762H394.287C393.127 67.2988 391.562 68.8633 389.682 70.1816L388.609 69.0391C391.158 67.2109 393.303 64.5742 394.27 62.0078L395.922 62.3066C395.711 62.9131 395.456 63.5107 395.166 64.0996H403.023V64.7852C403.023 70.9727 398.225 75.7012 391.299 76.3516L390.824 74.8574ZM408.455 74.8926C414.977 74.7168 417.209 72.9238 417.209 67.8965V62.7285H418.967V67.8613C418.967 73.873 416.066 76.2812 408.631 76.4395L408.455 74.8926ZM407.576 70.4629V62.7285H409.334V70.4629H407.576ZM426.191 74.6816C432.15 74.0488 434.172 71.8164 434.225 65.9102L435.771 65.9629C435.719 72.6426 433.152 75.4902 426.455 76.1582L426.191 74.6816ZM425.699 71.2012C425.33 69.5488 424.908 67.9668 424.434 66.6133L425.928 66.2266C426.367 67.5098 426.789 69.0742 427.176 70.8848L425.699 71.2012ZM429.549 70.9199C429.215 69.2324 428.793 67.5625 428.283 66.1387L429.777 65.7695C430.252 67.2637 430.709 68.9512 431.043 70.6035L429.549 70.9199ZM132.918 96.8574C138.798 96.2861 142.99 92.5156 143.395 87.5762H136.381C135.221 89.2988 133.656 90.8633 131.775 92.1816L130.703 91.0391C133.252 89.2109 135.396 86.5742 136.363 84.0078L138.016 84.3066C137.805 84.9131 137.55 85.5107 137.26 86.0996H145.117V86.7852C145.117 92.9727 140.318 97.7012 133.393 98.3516L132.918 96.8574ZM151.322 97.2266C153.95 97.0771 155.998 95.9082 156.561 94.291C155.928 94.7568 155.049 95.0469 154.082 95.0469C151.955 95.0469 150.566 93.7109 150.566 91.6543C150.566 89.5801 152.043 88.2441 154.258 88.2441C155.058 88.2441 155.734 88.4287 156.314 88.7891V87.3301H147.895V85.9941H156.314V83.9023H157.984V85.9941H162.73V87.3301H157.984V90.916C158.23 91.4609 158.336 92.041 158.336 92.7441C158.336 96.1719 155.752 98.4746 151.568 98.6855L151.322 97.2266ZM154.346 93.7109C155.541 93.7109 156.543 93.0254 156.543 91.6543C156.543 90.3887 155.699 89.5801 154.398 89.5801C153.08 89.5801 152.236 90.3711 152.236 91.6543C152.236 92.8848 153.062 93.7109 154.346 93.7109ZM171.766 98.668C168.479 98.668 166.598 97.6133 166.598 95.6973C166.598 94.0977 168.021 93.1309 170.395 93.1309C172.645 93.1309 173.805 93.9746 173.805 95.627C173.805 96.1279 173.708 96.6641 173.488 97.2617C175.993 96.9189 177.232 95.7939 177.232 93.9043C177.232 91.9004 175.809 90.9688 172.75 90.9688C171.08 90.9688 169.656 91.3027 168.461 92.0234L166.176 93.377L165.508 92.1289L174.947 86.6621H166.475V85.2383H177.83V86.6621L172.346 89.7734C172.803 89.7295 173.225 89.7031 173.594 89.7031C176.986 89.7031 178.92 91.1797 178.92 93.8164C178.92 96.9453 176.354 98.668 171.766 98.668ZM168.18 95.6797C168.18 96.7695 169.428 97.3848 171.59 97.3848H171.871C172.17 96.6729 172.293 96.1895 172.293 95.7852C172.293 94.8711 171.625 94.3965 170.271 94.3965C168.936 94.3965 168.18 94.8711 168.18 95.6797ZM189.08 98.5273C184.914 98.5273 182.734 97.2266 182.734 94.7656C182.734 93.0781 183.719 91.6543 185.863 90.3711C185.301 88.4023 184.905 86.5303 184.65 84.5879L186.338 84.3594C186.575 86.1436 186.918 87.8486 187.41 89.5625C189.115 88.7803 191.348 88.0332 194.125 87.3125L194.529 88.7891C187.516 90.6348 184.439 92.4277 184.439 94.6426C184.439 96.2246 186.004 97.0332 189.168 97.0332C190.68 97.0332 192.367 96.8398 194.74 96.4531L194.951 97.9297C192.877 98.2988 190.838 98.5273 189.08 98.5273ZM202.176 98.9844C201.121 97.6133 199.979 96.418 198.572 95.3984L199.697 94.2559C201.086 95.3281 202.352 96.5938 203.424 98.0176L202.176 98.9844ZM223.717 87.398V91.034H229.657V87.398H223.717ZM222.403 86.21H231.043V92.204H222.403V86.21ZM229.261 82.844L230.629 83.258C230.401 83.774 230.149 84.308 229.873 84.86C229.609 85.4 229.363 85.862 229.135 86.246L227.983 85.868C228.127 85.592 228.283 85.28 228.451 84.932C228.619 84.572 228.769 84.212 228.901 83.852C229.045 83.48 229.165 83.144 229.261 82.844ZM222.799 83.348L223.987 82.952C224.287 83.396 224.563 83.888 224.815 84.428C225.079 84.968 225.271 85.442 225.391 85.85L224.149 86.318C224.041 85.91 223.861 85.43 223.609 84.878C223.357 84.314 223.087 83.804 222.799 83.348ZM227.299 91.916H228.577V97.55C228.577 97.778 228.601 97.928 228.649 98C228.709 98.06 228.829 98.09 229.009 98.09C229.069 98.09 229.177 98.09 229.333 98.09C229.489 98.09 229.651 98.09 229.819 98.09C229.987 98.09 230.107 98.09 230.179 98.09C230.311 98.09 230.413 98.03 230.485 97.91C230.557 97.778 230.611 97.514 230.647 97.118C230.683 96.71 230.707 96.104 230.719 95.3C230.815 95.372 230.929 95.444 231.061 95.516C231.205 95.588 231.349 95.654 231.493 95.714C231.637 95.762 231.769 95.804 231.889 95.84C231.853 96.764 231.781 97.478 231.673 97.982C231.577 98.486 231.421 98.834 231.205 99.026C231.001 99.218 230.707 99.314 230.323 99.314C230.263 99.314 230.161 99.314 230.017 99.314C229.885 99.314 229.735 99.314 229.567 99.314C229.411 99.314 229.261 99.314 229.117 99.314C228.985 99.314 228.889 99.314 228.829 99.314C228.409 99.314 228.091 99.26 227.875 99.152C227.659 99.044 227.509 98.864 227.425 98.612C227.341 98.36 227.299 98.012 227.299 97.568V91.916ZM224.347 91.952H225.697C225.637 92.78 225.541 93.572 225.409 94.328C225.277 95.072 225.079 95.768 224.815 96.416C224.551 97.052 224.185 97.634 223.717 98.162C223.261 98.69 222.673 99.152 221.953 99.548C221.905 99.428 221.827 99.302 221.719 99.17C221.623 99.038 221.515 98.906 221.395 98.774C221.287 98.654 221.179 98.558 221.071 98.486C221.923 98.054 222.577 97.508 223.033 96.848C223.489 96.188 223.807 95.444 223.987 94.616C224.167 93.788 224.287 92.9 224.347 91.952ZM215.923 88.424H220.999V89.504H215.923V88.424ZM216.031 83.51H220.981V84.59H216.031V83.51ZM215.923 90.89H220.999V91.952H215.923V90.89ZM215.059 85.922H221.611V87.038H215.059V85.922ZM216.553 93.356H221.107V98.594H216.553V97.496H219.901V94.472H216.553V93.356ZM215.887 93.356H217.075V99.422H215.887V93.356ZM234.571 83.978H239.719V94.724H234.571V93.464H238.459V85.22H234.571V83.978ZM234.571 88.658H239.017V89.882H234.571V88.658ZM242.185 83.654H248.251V84.914H242.185V83.654ZM242.185 88.028H248.251V89.252H242.185V88.028ZM242.059 92.438H248.215V93.662H242.059V92.438ZM233.815 83.978H235.093V96.416H233.815V83.978ZM247.747 83.654H249.079V97.658C249.079 98.078 249.019 98.402 248.899 98.63C248.791 98.87 248.593 99.044 248.305 99.152C248.005 99.26 247.603 99.326 247.099 99.35C246.595 99.386 245.953 99.404 245.173 99.404C245.161 99.284 245.125 99.14 245.065 98.972C245.017 98.816 244.957 98.654 244.885 98.486C244.825 98.33 244.759 98.192 244.687 98.072C245.083 98.084 245.455 98.09 245.803 98.09C246.163 98.102 246.475 98.102 246.739 98.09C247.015 98.09 247.201 98.09 247.297 98.09C247.465 98.09 247.579 98.06 247.639 98C247.711 97.928 247.747 97.814 247.747 97.658V83.654ZM241.393 83.654H242.707V90.08C242.707 90.836 242.665 91.64 242.581 92.492C242.497 93.332 242.329 94.178 242.077 95.03C241.837 95.87 241.471 96.68 240.979 97.46C240.487 98.24 239.833 98.942 239.017 99.566C238.957 99.47 238.867 99.362 238.747 99.242C238.627 99.122 238.501 99.002 238.369 98.882C238.237 98.774 238.123 98.69 238.027 98.63C238.795 98.054 239.401 97.418 239.845 96.722C240.289 96.014 240.625 95.282 240.853 94.526C241.081 93.77 241.225 93.014 241.285 92.258C241.357 91.502 241.393 90.77 241.393 90.062V83.654ZM251.412 98.0352C252.95 94.2998 253.864 91.6807 254.611 88.332H251.166V86.8906H254.928C255.095 86.0117 255.271 85.0801 255.438 84.0605L257.055 84.2539C256.896 85.1855 256.738 86.0557 256.58 86.8906H258.145C261.889 86.8906 262.293 87.3652 262.293 91.6543C262.293 95.9434 261.291 98.1582 259.27 98.1582C258.426 98.1582 256.721 97.7539 255.42 97.2793L255.807 95.873C256.914 96.2949 258.285 96.6289 258.83 96.6289C260.008 96.6289 260.658 94.9238 260.658 91.4609C260.658 88.6836 260.412 88.332 258.303 88.332H256.281C255.49 91.8125 254.515 94.7129 252.924 98.5449L251.412 98.0352ZM265.176 95.8555C264.859 93.8164 264.174 91.2324 263.383 89.0527L264.912 88.5781C265.703 90.8105 266.406 93.4297 266.758 95.5918L265.176 95.8555ZM263.33 88.0508C262.75 86.8203 262.205 85.9238 261.537 84.9922L262.645 84.3418C263.383 85.291 263.91 86.2754 264.49 87.4883L263.33 88.0508ZM265.65 87.1367C265.088 85.8887 264.561 84.9746 263.91 84.0605L265 83.4453C265.738 84.4297 266.266 85.4141 266.811 86.6094L265.65 87.1367ZM269.05 84.374H283.486V85.562H269.05V84.374ZM269.86 87.038H282.784V88.154H269.86V87.038ZM268.384 89.792H284.116V90.962H268.384V89.792ZM275.53 82.88H276.898V90.71H275.53V82.88ZM275.476 90.188L276.628 90.746C276.16 91.25 275.614 91.748 274.99 92.24C274.366 92.72 273.694 93.17 272.974 93.59C272.266 94.01 271.54 94.394 270.796 94.742C270.052 95.078 269.332 95.36 268.636 95.588C268.576 95.48 268.492 95.36 268.384 95.228C268.276 95.084 268.168 94.946 268.06 94.814C267.952 94.682 267.85 94.568 267.754 94.472C268.45 94.28 269.164 94.034 269.896 93.734C270.628 93.422 271.336 93.08 272.02 92.708C272.716 92.324 273.358 91.922 273.946 91.502C274.546 91.07 275.056 90.632 275.476 90.188ZM277.438 90.368C277.798 91.64 278.296 92.798 278.932 93.842C279.58 94.886 280.378 95.78 281.326 96.524C282.286 97.256 283.402 97.814 284.674 98.198C284.578 98.282 284.47 98.396 284.35 98.54C284.242 98.684 284.134 98.828 284.026 98.972C283.93 99.116 283.846 99.254 283.774 99.386C282.454 98.93 281.302 98.294 280.318 97.478C279.346 96.65 278.518 95.66 277.834 94.508C277.162 93.356 276.622 92.06 276.214 90.62L277.438 90.368ZM282.568 91.574L283.63 92.402C283.21 92.738 282.748 93.08 282.244 93.428C281.752 93.776 281.254 94.112 280.75 94.436C280.258 94.748 279.796 95.024 279.364 95.264L278.518 94.508C278.95 94.256 279.412 93.962 279.904 93.626C280.396 93.29 280.876 92.942 281.344 92.582C281.812 92.222 282.22 91.886 282.568 91.574ZM269.77 98.18C270.454 98.036 271.252 97.856 272.164 97.64C273.076 97.412 274.042 97.172 275.062 96.92C276.094 96.668 277.12 96.416 278.14 96.164L278.284 97.37C277.336 97.622 276.376 97.868 275.404 98.108C274.432 98.36 273.502 98.594 272.614 98.81C271.726 99.038 270.922 99.248 270.202 99.44L269.77 98.18ZM272.308 93.536L273.28 92.564L273.64 92.672V98.108H272.308V93.536ZM293.548 89.288H295.006V97.676C295.006 98.108 294.94 98.438 294.808 98.666C294.688 98.894 294.466 99.068 294.142 99.188C293.818 99.296 293.386 99.362 292.846 99.386C292.318 99.41 291.652 99.422 290.848 99.422C290.824 99.218 290.764 98.978 290.668 98.702C290.572 98.438 290.47 98.204 290.362 98C290.77 98.012 291.16 98.024 291.532 98.036C291.916 98.048 292.246 98.048 292.522 98.036C292.81 98.036 293.008 98.036 293.116 98.036C293.284 98.024 293.398 97.994 293.458 97.946C293.518 97.898 293.548 97.802 293.548 97.658V89.288ZM289.462 91.682L290.848 92.06C290.56 92.792 290.212 93.512 289.804 94.22C289.408 94.928 288.976 95.588 288.508 96.2C288.052 96.812 287.59 97.346 287.122 97.802C287.038 97.718 286.918 97.628 286.762 97.532C286.606 97.424 286.444 97.322 286.276 97.226C286.12 97.118 285.988 97.04 285.88 96.992C286.612 96.356 287.29 95.57 287.914 94.634C288.55 93.686 289.066 92.702 289.462 91.682ZM297.562 92.24L298.804 91.718C299.248 92.27 299.68 92.876 300.1 93.536C300.532 94.196 300.922 94.844 301.27 95.48C301.618 96.116 301.882 96.692 302.062 97.208L300.712 97.82C300.556 97.316 300.31 96.74 299.974 96.092C299.638 95.444 299.26 94.784 298.84 94.112C298.42 93.428 297.994 92.804 297.562 92.24ZM287.932 84.212H300.604V85.544H287.932V84.212ZM286.33 88.586H302.188V89.918H286.33V88.586ZM312.461 98.4043C308.172 98.4043 305.43 96.8223 305.43 94.291C305.43 92.7793 306.467 91.3027 308.207 90.1777L309.543 90.9688C308.014 92.0059 307.17 93.166 307.17 94.2383C307.17 95.8906 309.104 96.875 312.426 96.875C314.096 96.875 315.977 96.6465 317.629 96.2246L317.857 97.7363C316.117 98.1582 314.148 98.4043 312.461 98.4043ZM304.867 88.1387V86.75L312.584 86.5391C312.479 85.8271 312.399 85.0889 312.355 84.3242L313.99 84.2363C314.043 85.0273 314.113 85.7832 314.219 86.5039L318.508 86.3984V87.8047L314.465 87.8926C314.869 89.9229 315.52 91.8125 316.504 93.8516L314.852 94.3086C313.885 92.2168 313.208 90.1602 312.795 87.9453L304.867 88.1387ZM334.047 98C332.711 98 332.113 97.2969 332.113 95.7676V89.4043C332.113 88.0156 331.709 87.3652 330.9 87.3652C330.039 87.3652 328.879 88.1562 326.031 90.8281V98.791H324.432V92.2344C323.553 93.1221 322.542 94.168 321.338 95.3809L320.441 94.0625C322.015 92.5244 323.324 91.2588 324.432 90.2305V88.4551H320.564V87.0312H324.432V84.4648H326.031V88.7715C328.694 86.416 329.863 85.8359 331.111 85.8359C332.852 85.8359 333.748 86.9434 333.748 89V95.0293C333.748 96.1543 333.906 96.4531 334.381 96.4531C334.838 96.4531 335.576 96.1719 336.438 95.627L336.912 97.0508C335.893 97.6836 334.943 98 334.047 98ZM343.135 98.5098C340.551 98.5098 339.109 97.4727 339.109 95.6094C339.109 93.7285 340.533 92.7266 343.135 92.7266C344.022 92.7266 344.875 92.8408 345.736 93.0957V90.793H338.969V89.4043H345.736V87.3301H338.793V85.9238H345.736V84.0957H347.301V85.9238H352.082V87.3301H347.301V89.4043H351.906V90.793H347.301V93.7109C348.733 94.4053 350.254 95.5039 352.047 97.0859L351.01 98.1406C349.577 96.9014 348.364 95.9873 347.283 95.3281C347.063 97.4727 345.71 98.5098 343.135 98.5098ZM340.744 95.5742C340.744 96.5762 341.553 97.1035 343.1 97.1035C344.928 97.1035 345.736 96.3652 345.736 94.7305V94.5723C344.84 94.2383 344.005 94.0801 343.135 94.0801C341.535 94.0801 340.744 94.5723 340.744 95.5742ZM358.322 97.2266C360.95 97.0771 362.998 95.9082 363.561 94.291C362.928 94.7568 362.049 95.0469 361.082 95.0469C358.955 95.0469 357.566 93.7109 357.566 91.6543C357.566 89.5801 359.043 88.2441 361.258 88.2441C362.058 88.2441 362.734 88.4287 363.314 88.7891V87.3301H354.895V85.9941H363.314V83.9023H364.984V85.9941H369.73V87.3301H364.984V90.916C365.23 91.4609 365.336 92.041 365.336 92.7441C365.336 96.1719 362.752 98.4746 358.568 98.6855L358.322 97.2266ZM361.346 93.7109C362.541 93.7109 363.543 93.0254 363.543 91.6543C363.543 90.3887 362.699 89.5801 361.398 89.5801C360.08 89.5801 359.236 90.3711 359.236 91.6543C359.236 92.8848 360.062 93.7109 361.346 93.7109ZM374.529 99.1074C372.824 99.1074 371.699 97.9824 371.699 96.2949C371.699 94.6074 372.824 93.4648 374.529 93.4648C376.217 93.4648 377.342 94.6074 377.342 96.2949C377.342 97.9824 376.217 99.1074 374.529 99.1074ZM374.529 97.8242C375.443 97.8242 376.041 97.209 376.041 96.2949C376.041 95.3809 375.443 94.7656 374.529 94.7656C373.615 94.7656 372.982 95.3809 372.982 96.2949C372.982 97.209 373.615 97.8242 374.529 97.8242ZM393.76 98.5098C391.176 98.5098 389.734 97.4727 389.734 95.6094C389.734 93.7285 391.158 92.7266 393.76 92.7266C394.647 92.7266 395.5 92.8408 396.361 93.0957V90.793H389.594V89.4043H396.361V87.3301H389.418V85.9238H396.361V84.0957H397.926V85.9238H402.707V87.3301H397.926V89.4043H402.531V90.793H397.926V93.7109C399.358 94.4053 400.879 95.5039 402.672 97.0859L401.635 98.1406C400.202 96.9014 398.989 95.9873 397.908 95.3281C397.688 97.4727 396.335 98.5098 393.76 98.5098ZM391.369 95.5742C391.369 96.5762 392.178 97.1035 393.725 97.1035C395.553 97.1035 396.361 96.3652 396.361 94.7305V94.5723C395.465 94.2383 394.63 94.0801 393.76 94.0801C392.16 94.0801 391.369 94.5723 391.369 95.5742ZM406.047 98.4043C407.119 94.9854 407.989 91.373 408.648 87.6992H405.783V86.2578H408.877C408.991 85.5283 409.097 84.8076 409.193 84.0781L410.828 84.1484C410.74 84.8516 410.644 85.5547 410.547 86.2578H417.561V87.6992H410.318C409.677 91.4082 408.789 95.1611 407.682 98.7031L406.047 98.4043ZM416.383 98.334C413.377 98.334 411.426 97.2441 411.426 95.5215C411.426 94.6074 412.023 93.7988 413.324 92.8672L414.572 93.7109C413.605 94.3262 413.148 94.8711 413.148 95.3633C413.148 96.2422 414.432 96.8574 416.383 96.8574C417.42 96.8574 418.545 96.752 419.74 96.5234L419.934 98C418.703 98.2461 417.561 98.334 416.383 98.334ZM412.041 89.9141C414.66 89.6328 417.174 89.4922 419.705 89.4922V90.9336C417.209 90.9336 414.73 91.0566 412.129 91.3555L412.041 89.9141ZM426.051 98.9844C424.996 97.6133 423.854 96.418 422.447 95.3984L423.572 94.2559C424.961 95.3281 426.227 96.5938 427.299 98.0176L426.051 98.9844ZM139.879 117.293C139.879 116.045 139.809 115.043 139.668 114.252C137.189 115.315 135.713 116.52 135.713 117.592C135.713 118.646 137.102 119.244 139.598 119.244C141.004 119.244 142.762 119.051 144.643 118.699L144.871 120.105C143.201 120.404 141.074 120.615 139.58 120.615C136.117 120.615 134.061 119.561 134.061 117.732C134.061 116.01 135.968 114.287 139.229 112.916C138.798 112.116 138.147 111.773 137.225 111.773C135.537 111.773 134.219 112.898 132.355 115.939L131.002 115.148C132.479 112.819 133.507 111.035 134.377 109.084H131.02V107.748H134.922C135.142 107.177 135.361 106.579 135.572 105.938L137.207 106.219C137.022 106.746 136.829 107.256 136.645 107.748H144.414V109.084H136.082C135.766 109.805 135.423 110.499 135.062 111.193C135.889 110.736 136.785 110.508 137.682 110.508C139.141 110.508 140.134 111.07 140.74 112.318C141.953 111.905 143.298 111.527 144.766 111.211L144.994 112.564C143.605 112.881 142.322 113.25 141.197 113.654C141.408 114.612 141.514 115.825 141.514 117.293H139.879ZM149.793 118.857C155.673 118.286 159.865 114.516 160.27 109.576H153.256C152.096 111.299 150.531 112.863 148.65 114.182L147.578 113.039C150.127 111.211 152.271 108.574 153.238 106.008L154.891 106.307C154.68 106.913 154.425 107.511 154.135 108.1H161.992V108.785C161.992 114.973 157.193 119.701 150.268 120.352L149.793 118.857ZM167.424 118.893C173.945 118.717 176.178 116.924 176.178 111.896V106.729H177.936V111.861C177.936 117.873 175.035 120.281 167.6 120.439L167.424 118.893ZM166.545 114.463V106.729H168.303V114.463H166.545ZM185.16 118.682C191.119 118.049 193.141 115.816 193.193 109.91L194.74 109.963C194.688 116.643 192.121 119.49 185.424 120.158L185.16 118.682ZM184.668 115.201C184.299 113.549 183.877 111.967 183.402 110.613L184.896 110.227C185.336 111.51 185.758 113.074 186.145 114.885L184.668 115.201ZM188.518 114.92C188.184 113.232 187.762 111.562 187.252 110.139L188.746 109.77C189.221 111.264 189.678 112.951 190.012 114.604L188.518 114.92ZM200.418 118.857C206.298 118.286 210.49 114.516 210.895 109.576H203.881C202.721 111.299 201.156 112.863 199.275 114.182L198.203 113.039C200.752 111.211 202.896 108.574 203.863 106.008L205.516 106.307C205.305 106.913 205.05 107.511 204.76 108.1H212.617V108.785C212.617 114.973 207.818 119.701 200.893 120.352L200.418 118.857ZM218.822 119.227C221.45 119.077 223.498 117.908 224.061 116.291C223.428 116.757 222.549 117.047 221.582 117.047C219.455 117.047 218.066 115.711 218.066 113.654C218.066 111.58 219.543 110.244 221.758 110.244C222.558 110.244 223.234 110.429 223.814 110.789V109.33H215.395V107.994H223.814V105.902H225.484V107.994H230.23V109.33H225.484V112.916C225.73 113.461 225.836 114.041 225.836 114.744C225.836 118.172 223.252 120.475 219.068 120.686L218.822 119.227ZM221.846 115.711C223.041 115.711 224.043 115.025 224.043 113.654C224.043 112.389 223.199 111.58 221.898 111.58C220.58 111.58 219.736 112.371 219.736 113.654C219.736 114.885 220.562 115.711 221.846 115.711ZM239.266 120.668C235.979 120.668 234.098 119.613 234.098 117.697C234.098 116.098 235.521 115.131 237.895 115.131C240.145 115.131 241.305 115.975 241.305 117.627C241.305 118.128 241.208 118.664 240.988 119.262C243.493 118.919 244.732 117.794 244.732 115.904C244.732 113.9 243.309 112.969 240.25 112.969C238.58 112.969 237.156 113.303 235.961 114.023L233.676 115.377L233.008 114.129L242.447 108.662H233.975V107.238H245.33V108.662L239.846 111.773C240.303 111.729 240.725 111.703 241.094 111.703C244.486 111.703 246.42 113.18 246.42 115.816C246.42 118.945 243.854 120.668 239.266 120.668ZM235.68 117.68C235.68 118.77 236.928 119.385 239.09 119.385H239.371C239.67 118.673 239.793 118.189 239.793 117.785C239.793 116.871 239.125 116.396 237.771 116.396C236.436 116.396 235.68 116.871 235.68 117.68ZM256.58 120.527C252.414 120.527 250.234 119.227 250.234 116.766C250.234 115.078 251.219 113.654 253.363 112.371C252.801 110.402 252.405 108.53 252.15 106.588L253.838 106.359C254.075 108.144 254.418 109.849 254.91 111.562C256.615 110.78 258.848 110.033 261.625 109.312L262.029 110.789C255.016 112.635 251.939 114.428 251.939 116.643C251.939 118.225 253.504 119.033 256.668 119.033C258.18 119.033 259.867 118.84 262.24 118.453L262.451 119.93C260.377 120.299 258.338 120.527 256.58 120.527ZM269.676 120.984C268.621 119.613 267.479 118.418 266.072 117.398L267.197 116.256C268.586 117.328 269.852 118.594 270.924 120.018L269.676 120.984ZM290.049 121.143L289.68 116.484L282.93 116.748L282.877 115.254L289.574 114.99L289.205 110.455L283.598 110.648L283.545 109.172L289.1 108.979L288.871 106.254L290.576 106.113L290.805 108.908L297.027 108.697L297.08 110.174L290.91 110.385L291.279 114.92L297.695 114.674L297.748 116.168L291.402 116.414L291.754 121.002L290.049 121.143ZM301.176 114.428L300.877 112.934L304.322 112.266L303.812 109.488L305.43 109.207L305.939 111.949L313.041 110.561L313.34 112.055C313.287 114.234 311.811 116.555 309.877 117.469L308.893 116.291C310.396 115.553 311.538 113.927 311.74 112.354L306.221 113.443L307.504 120.492L305.887 120.791L304.604 113.76L301.176 114.428ZM317.752 118.787C324.467 118.567 328.009 115.395 328.316 109.348H316.979V107.783H327.93L327.912 107.537C327.912 106.289 328.914 105.27 330.162 105.27C331.41 105.27 332.412 106.289 332.412 107.537C332.412 108.768 331.41 109.787 330.162 109.787L329.986 109.77C329.521 116.44 325.381 120.114 318.033 120.316L317.752 118.787ZM330.162 108.592C330.742 108.592 331.217 108.117 331.217 107.537C331.217 106.957 330.742 106.482 330.162 106.482C329.582 106.482 329.107 106.957 329.107 107.537C329.107 108.021 329.441 108.434 329.898 108.557H330.021V108.574L330.162 108.592ZM335.4 119.139C339.303 118.857 340.656 117.724 340.885 114.129H333.52V112.635H340.92V109.119C338.96 109.33 336.895 109.453 334.926 109.453V107.977C338.793 107.977 343.838 107.361 346.809 106.518L347.248 107.977C345.956 108.346 344.339 108.671 342.572 108.908V112.635H348.355V114.129H342.537C342.265 118.559 340.41 120.281 335.752 120.633L335.4 119.139ZM351.801 114.428L351.502 112.934L354.947 112.266L354.438 109.488L356.055 109.207L356.564 111.949L363.666 110.561L363.965 112.055C363.912 114.234 362.436 116.555 360.502 117.469L359.518 116.291C361.021 115.553 362.163 113.927 362.365 112.354L356.846 113.443L358.129 120.492L356.512 120.791L355.229 113.76L351.801 114.428ZM374.371 120.527C370.662 120.527 368.992 118.822 368.992 115.008V106.711H370.68V115.008C370.68 117.785 371.805 118.98 374.371 118.98C377.201 118.98 378.889 117.557 380.471 113.795L382 114.428C380.207 118.84 378.098 120.527 374.371 120.527ZM384.672 120.404C385.744 116.985 386.614 113.373 387.273 109.699H384.408V108.258H387.502C387.616 107.528 387.722 106.808 387.818 106.078L389.453 106.148C389.365 106.852 389.269 107.555 389.172 108.258H396.186V109.699H388.943C388.302 113.408 387.414 117.161 386.307 120.703L384.672 120.404ZM395.008 120.334C392.002 120.334 390.051 119.244 390.051 117.521C390.051 116.607 390.648 115.799 391.949 114.867L393.197 115.711C392.23 116.326 391.773 116.871 391.773 117.363C391.773 118.242 393.057 118.857 395.008 118.857C396.045 118.857 397.17 118.752 398.365 118.523L398.559 120C397.328 120.246 396.186 120.334 395.008 120.334ZM390.666 111.914C393.285 111.633 395.799 111.492 398.33 111.492V112.934C395.834 112.934 393.355 113.057 390.754 113.355L390.666 111.914ZM402.322 119.028H415.678V120.306H402.322V119.028ZM401.044 106.05H416.974V107.328H401.044V106.05ZM401.602 109.128H402.916V121.44H401.602V109.128ZM415.138 109.128H416.452V121.386H415.138V109.128ZM408.244 106.446H409.612V109.92H408.244V106.446ZM408.334 109.83H409.54V116.958H408.334V109.83ZM405.778 113.916V116.292H412.114V113.916H405.778ZM405.778 110.478V112.836H412.114V110.478H405.778ZM404.626 109.344H413.302V117.444H404.626V109.344ZM426.478 104.898L427.792 105.132C427.324 105.984 426.736 106.848 426.028 107.724C425.332 108.6 424.504 109.416 423.544 110.172C423.424 110.028 423.268 109.884 423.076 109.74C422.884 109.584 422.704 109.464 422.536 109.38C423.16 108.948 423.724 108.474 424.228 107.958C424.732 107.442 425.17 106.926 425.542 106.41C425.926 105.882 426.238 105.378 426.478 104.898ZM426.586 106.032H430.924V107.094H425.74L426.586 106.032ZM425.308 109.416V111.468H433.3V109.416H425.308ZM424.066 108.426H434.596V112.458H424.066V108.426ZM428.62 108.84H429.844V111.9H428.62V108.84ZM428.674 111.558L429.736 111.99C429.244 112.446 428.662 112.884 427.99 113.304C427.33 113.724 426.628 114.108 425.884 114.456C425.152 114.804 424.438 115.104 423.742 115.356C423.694 115.272 423.622 115.17 423.526 115.05C423.43 114.93 423.328 114.816 423.22 114.708C423.124 114.588 423.034 114.492 422.95 114.42C423.646 114.204 424.348 113.952 425.056 113.664C425.776 113.376 426.448 113.052 427.072 112.692C427.708 112.332 428.242 111.954 428.674 111.558ZM426.784 113.484L427.684 112.926C428.368 113.418 428.92 113.97 429.34 114.582C429.772 115.194 430.09 115.824 430.294 116.472C430.498 117.108 430.606 117.72 430.618 118.308C430.63 118.884 430.552 119.4 430.384 119.856C430.216 120.312 429.976 120.654 429.664 120.882C429.4 121.098 429.136 121.242 428.872 121.314C428.608 121.398 428.296 121.446 427.936 121.458C427.744 121.458 427.522 121.452 427.27 121.44C427.03 121.428 426.784 121.416 426.532 121.404C426.52 121.248 426.49 121.056 426.442 120.828C426.394 120.612 426.316 120.414 426.208 120.234C426.496 120.27 426.766 120.294 427.018 120.306C427.282 120.318 427.498 120.324 427.666 120.324C427.894 120.324 428.092 120.306 428.26 120.27C428.44 120.234 428.608 120.15 428.764 120.018C429.04 119.814 429.226 119.472 429.322 118.992C429.43 118.5 429.424 117.936 429.304 117.3C429.184 116.652 428.92 115.998 428.512 115.338C428.104 114.666 427.528 114.048 426.784 113.484ZM428.404 114.204L429.214 114.762C428.806 115.146 428.29 115.536 427.666 115.932C427.054 116.328 426.412 116.7 425.74 117.048C425.068 117.384 424.426 117.666 423.814 117.894C423.73 117.762 423.622 117.606 423.49 117.426C423.37 117.246 423.244 117.096 423.112 116.976C423.712 116.796 424.348 116.556 425.02 116.256C425.692 115.956 426.328 115.626 426.928 115.266C427.54 114.906 428.032 114.552 428.404 114.204ZM429.34 116.148L430.24 116.778C429.736 117.306 429.106 117.84 428.35 118.38C427.594 118.908 426.796 119.4 425.956 119.856C425.116 120.312 424.306 120.684 423.526 120.972C423.442 120.816 423.328 120.642 423.184 120.45C423.052 120.258 422.914 120.102 422.77 119.982C423.346 119.79 423.946 119.556 424.57 119.28C425.194 119.004 425.8 118.692 426.388 118.344C426.988 117.996 427.54 117.636 428.044 117.264C428.56 116.892 428.992 116.52 429.34 116.148ZM434.182 112.998L435.136 113.808C434.668 114.216 434.146 114.63 433.57 115.05C432.994 115.458 432.466 115.806 431.986 116.094L431.194 115.374C431.506 115.17 431.842 114.93 432.202 114.654C432.574 114.378 432.934 114.096 433.282 113.808C433.63 113.52 433.93 113.25 434.182 112.998ZM430.672 111.756C430.924 112.896 431.266 113.982 431.698 115.014C432.13 116.034 432.658 116.94 433.282 117.732C433.918 118.512 434.632 119.13 435.424 119.586C435.328 119.67 435.22 119.778 435.1 119.91C434.98 120.03 434.866 120.156 434.758 120.288C434.662 120.42 434.578 120.546 434.506 120.666C433.678 120.126 432.94 119.418 432.292 118.542C431.644 117.666 431.098 116.67 430.654 115.554C430.21 114.438 429.844 113.25 429.556 111.99L430.672 111.756ZM430.492 106.032H430.78L431.032 105.96L431.86 106.536C431.572 107.028 431.23 107.532 430.834 108.048C430.45 108.552 430.084 108.978 429.736 109.326C429.64 109.206 429.514 109.068 429.358 108.912C429.202 108.756 429.07 108.636 428.962 108.552C429.25 108.24 429.538 107.874 429.826 107.454C430.114 107.022 430.336 106.626 430.492 106.266V106.032ZM422.194 104.97L423.436 105.312C423.1 106.356 422.698 107.388 422.23 108.408C421.774 109.428 421.276 110.394 420.736 111.306C420.196 112.206 419.626 113.004 419.026 113.7C418.99 113.592 418.93 113.454 418.846 113.286C418.762 113.106 418.672 112.932 418.576 112.764C418.48 112.584 418.396 112.44 418.324 112.332C418.852 111.72 419.356 111.024 419.836 110.244C420.316 109.452 420.754 108.606 421.15 107.706C421.558 106.806 421.906 105.894 422.194 104.97ZM420.736 109.38L421.996 108.138L422.032 108.174V121.44H420.736V109.38ZM139.879 139.293C139.879 138.045 139.809 137.043 139.668 136.252C137.189 137.315 135.713 138.52 135.713 139.592C135.713 140.646 137.102 141.244 139.598 141.244C141.004 141.244 142.762 141.051 144.643 140.699L144.871 142.105C143.201 142.404 141.074 142.615 139.58 142.615C136.117 142.615 134.061 141.561 134.061 139.732C134.061 138.01 135.968 136.287 139.229 134.916C138.798 134.116 138.147 133.773 137.225 133.773C135.537 133.773 134.219 134.898 132.355 137.939L131.002 137.148C132.479 134.819 133.507 133.035 134.377 131.084H131.02V129.748H134.922C135.142 129.177 135.361 128.579 135.572 127.938L137.207 128.219C137.022 128.746 136.829 129.256 136.645 129.748H144.414V131.084H136.082C135.766 131.805 135.423 132.499 135.062 133.193C135.889 132.736 136.785 132.508 137.682 132.508C139.141 132.508 140.134 133.07 140.74 134.318C141.953 133.905 143.298 133.527 144.766 133.211L144.994 134.564C143.605 134.881 142.322 135.25 141.197 135.654C141.408 136.612 141.514 137.825 141.514 139.293H139.879ZM159.988 142.51V141.332H148.668V139.855H159.988V130.891H148.668V129.414H161.693V142.51H159.988ZM171.098 142.246C166.352 142.246 165.508 141.631 165.508 138.133V129.133H167.16V134.213C170.693 133.65 173.418 132.991 176.969 131.857L177.391 133.316C173.945 134.441 170.72 135.224 167.16 135.795V138.186C167.16 140.471 167.617 140.734 171.449 140.734C173.559 140.734 176.055 140.629 177.883 140.488L177.936 142C176.002 142.158 173.154 142.246 171.098 142.246ZM177.689 131.875C176.441 131.875 175.422 130.873 175.422 129.625C175.422 128.377 176.441 127.357 177.689 127.357C178.938 127.357 179.957 128.377 179.957 129.625C179.957 130.873 178.938 131.875 177.689 131.875ZM177.689 130.68C178.27 130.68 178.744 130.205 178.744 129.625C178.744 129.045 178.27 128.57 177.689 128.57C177.109 128.57 176.635 129.045 176.635 129.625C176.635 130.205 177.109 130.68 177.689 130.68ZM182.523 136.445V134.828H195.602V136.445H182.523ZM201.947 141.227C204.575 141.077 206.623 139.908 207.186 138.291C206.553 138.757 205.674 139.047 204.707 139.047C202.58 139.047 201.191 137.711 201.191 135.654C201.191 133.58 202.668 132.244 204.883 132.244C205.683 132.244 206.359 132.429 206.939 132.789V131.33H198.52V129.994H206.939V127.902H208.609V129.994H213.355V131.33H208.609V134.916C208.855 135.461 208.961 136.041 208.961 136.744C208.961 140.172 206.377 142.475 202.193 142.686L201.947 141.227ZM204.971 137.711C206.166 137.711 207.168 137.025 207.168 135.654C207.168 134.389 206.324 133.58 205.023 133.58C203.705 133.58 202.861 134.371 202.861 135.654C202.861 136.885 203.688 137.711 204.971 137.711ZM222.391 142.668C219.104 142.668 217.223 141.613 217.223 139.697C217.223 138.098 218.646 137.131 221.02 137.131C223.27 137.131 224.43 137.975 224.43 139.627C224.43 140.128 224.333 140.664 224.113 141.262C226.618 140.919 227.857 139.794 227.857 137.904C227.857 135.9 226.434 134.969 223.375 134.969C221.705 134.969 220.281 135.303 219.086 136.023L216.801 137.377L216.133 136.129L225.572 130.662H217.1V129.238H228.455V130.662L222.971 133.773C223.428 133.729 223.85 133.703 224.219 133.703C227.611 133.703 229.545 135.18 229.545 137.816C229.545 140.945 226.979 142.668 222.391 142.668ZM218.805 139.68C218.805 140.77 220.053 141.385 222.215 141.385H222.496C222.795 140.673 222.918 140.189 222.918 139.785C222.918 138.871 222.25 138.396 220.896 138.396C219.561 138.396 218.805 138.871 218.805 139.68ZM239.863 142.246C235.961 142.246 233.395 140.857 233.395 138.748C233.395 137.588 234.15 136.234 235.732 134.582L237.156 135.32C235.803 136.691 235.1 137.799 235.1 138.59C235.1 139.891 236.998 140.77 239.863 140.77C241.621 140.77 243.994 140.453 245.436 140.014L245.77 141.49C244.346 141.93 241.797 142.246 239.863 142.246ZM234.238 130.979V129.484H245.312V130.979H234.238ZM256.58 142.527C252.414 142.527 250.234 141.227 250.234 138.766C250.234 137.078 251.219 135.654 253.363 134.371C252.801 132.402 252.405 130.53 252.15 128.588L253.838 128.359C254.075 130.144 254.418 131.849 254.91 133.562C256.615 132.78 258.848 132.033 261.625 131.312L262.029 132.789C255.016 134.635 251.939 136.428 251.939 138.643C251.939 140.225 253.504 141.033 256.668 141.033C258.18 141.033 259.867 140.84 262.24 140.453L262.451 141.93C260.377 142.299 258.338 142.527 256.58 142.527ZM266.037 142.035C267.575 138.3 268.489 135.681 269.236 132.332H265.791V130.891H269.553C269.72 130.012 269.896 129.08 270.062 128.061L271.68 128.254C271.521 129.186 271.363 130.056 271.205 130.891H272.77C276.514 130.891 276.918 131.365 276.918 135.654C276.918 139.943 275.916 142.158 273.895 142.158C273.051 142.158 271.346 141.754 270.045 141.279L270.432 139.873C271.539 140.295 272.91 140.629 273.455 140.629C274.633 140.629 275.283 138.924 275.283 135.461C275.283 132.684 275.037 132.332 272.928 132.332H270.906C270.115 135.812 269.14 138.713 267.549 142.545L266.037 142.035ZM279.801 139.855C279.484 137.816 278.799 135.232 278.008 133.053L279.537 132.578C280.328 134.811 281.031 137.43 281.383 139.592L279.801 139.855ZM277.955 132.051C277.375 130.82 276.83 129.924 276.162 128.992L277.27 128.342C278.008 129.291 278.535 130.275 279.115 131.488L277.955 132.051ZM280.275 131.137C279.713 129.889 279.186 128.975 278.535 128.061L279.625 127.445C280.363 128.43 280.891 129.414 281.436 130.609L280.275 131.137ZM292.826 142.439C288.836 142.439 286.252 140.154 286.252 136.621C286.252 134.143 287.553 132.095 289.645 130.979L282.438 131.154V129.678L296.57 129.344V130.803L294.443 130.855C290.682 130.961 288.01 133.193 288.01 136.463C288.01 139.188 289.855 140.893 292.844 140.893C293.441 140.893 294.426 140.84 295.006 140.734L295.199 142.246C294.531 142.369 293.529 142.439 292.826 142.439ZM294.883 137.324C294.355 136.182 293.793 135.18 293.037 134.072L294.215 133.404C294.988 134.529 295.551 135.531 296.096 136.744L294.883 137.324ZM297.449 136.357C296.957 135.197 296.412 134.178 295.656 133.088L296.852 132.455C297.59 133.58 298.152 134.6 298.662 135.812L297.449 136.357ZM307.996 142.51C303.918 142.51 301.352 141.297 301.352 139.311C301.334 138.186 302.178 137.078 303.637 136.428L304.744 137.342C303.637 137.869 303.074 138.502 303.109 139.188C303.145 140.383 304.885 141.068 307.873 141.068C309.543 141.068 311.459 140.857 312.971 140.488L313.217 141.93C311.635 142.299 309.754 142.51 307.996 142.51ZM300.543 135.338V133.984L308.084 133.773C307.891 133.018 307.741 132.235 307.627 131.436L300.719 131.629V130.24L307.434 130.064C307.363 129.396 307.302 128.711 307.258 128.008L308.91 127.902C308.945 128.632 309.007 129.344 309.086 130.012L313.656 129.906V131.277L309.279 131.4C309.402 132.191 309.569 132.974 309.771 133.738L313.832 133.633V135.004L310.141 135.092C310.501 136.261 310.94 137.421 311.477 138.643L309.807 139.029C309.253 137.729 308.796 136.445 308.436 135.127L300.543 135.338ZM321.76 142.51C319.176 142.51 317.734 141.473 317.734 139.609C317.734 137.729 319.158 136.727 321.76 136.727C322.647 136.727 323.5 136.841 324.361 137.096V134.793H317.594V133.404H324.361V131.33H317.418V129.924H324.361V128.096H325.926V129.924H330.707V131.33H325.926V133.404H330.531V134.793H325.926V137.711C327.358 138.405 328.879 139.504 330.672 141.086L329.635 142.141C328.202 140.901 326.989 139.987 325.908 139.328C325.688 141.473 324.335 142.51 321.76 142.51ZM319.369 139.574C319.369 140.576 320.178 141.104 321.725 141.104C323.553 141.104 324.361 140.365 324.361 138.73V138.572C323.465 138.238 322.63 138.08 321.76 138.08C320.16 138.08 319.369 138.572 319.369 139.574ZM336.947 141.227C339.575 141.077 341.623 139.908 342.186 138.291C341.553 138.757 340.674 139.047 339.707 139.047C337.58 139.047 336.191 137.711 336.191 135.654C336.191 133.58 337.668 132.244 339.883 132.244C340.683 132.244 341.359 132.429 341.939 132.789V131.33H333.52V129.994H341.939V127.902H343.609V129.994H348.355V131.33H343.609V134.916C343.855 135.461 343.961 136.041 343.961 136.744C343.961 140.172 341.377 142.475 337.193 142.686L336.947 141.227ZM339.971 137.711C341.166 137.711 342.168 137.025 342.168 135.654C342.168 134.389 341.324 133.58 340.023 133.58C338.705 133.58 337.861 134.371 337.861 135.654C337.861 136.885 338.688 137.711 339.971 137.711ZM353.154 143.107C351.449 143.107 350.324 141.982 350.324 140.295C350.324 138.607 351.449 137.465 353.154 137.465C354.842 137.465 355.967 138.607 355.967 140.295C355.967 141.982 354.842 143.107 353.154 143.107ZM353.154 141.824C354.068 141.824 354.666 141.209 354.666 140.295C354.666 139.381 354.068 138.766 353.154 138.766C352.24 138.766 351.607 139.381 351.607 140.295C351.607 141.209 352.24 141.824 353.154 141.824Z" fill="#605070"/>
<path d="M346 64V62C346 61.4696 346.211 60.9609 346.586 60.5858C346.961 60.2107 347.47 60 348 60H350M346 72V74C346 74.5304 346.211 75.0391 346.586 75.4142C346.961 75.7893 347.47 76 348 76H350M358 60H360C360.53 60 361.039 60.2107 361.414 60.5858C361.789 60.9609 362 61.4696 362 62V64" stroke="#605070" stroke-width="2" stroke-linecap="round" stroke-linejoin="round"/>
<path d="M360.667 74.6745L357.333 71.3411M350 68.0078C350 68.5331 350.103 69.0532 350.304 69.5385C350.506 70.0239 350.8 70.4648 351.172 70.8362C351.543 71.2077 351.984 71.5023 352.469 71.7033C352.955 71.9044 353.475 72.0078 354 72.0078C354.525 72.0078 355.045 71.9044 355.531 71.7033C356.016 71.5023 356.457 71.2077 356.828 70.8362C357.2 70.4648 357.495 70.0239 357.696 69.5385C357.897 69.0532 358 68.5331 358 68.0078C358 66.9469 357.579 65.9295 356.828 65.1794C356.078 64.4292 355.061 64.0078 354 64.0078C352.939 64.0078 351.922 64.4292 351.172 65.1794C350.421 65.9295 350 66.9469 350 68.0078Z" stroke="#605070" stroke-width="2" stroke-linecap="round" stroke-linejoin="round"/>
<path d="M445.308 87.6923V86.4615C445.308 85.1021 444.206 84 442.846 84H435.462C434.102 84 433 85.1021 433 86.4615V93.8462C433 95.2056 434.102 96.3077 435.462 96.3077H436.692M439.154 100H446.538C447.898 100 449 98.8979 449 97.5385V90.1538C449 88.7944 447.898 87.6923 446.538 87.6923H439.154C437.794 87.6923 436.692 88.7944 436.692 90.1538V97.5385C436.692 98.8979 437.794 100 439.154 100Z" stroke="#605070" stroke-width="2" stroke-miterlimit="16" stroke-linecap="round"/>
</svg>
