<svg width="480" height="200" viewBox="0 0 480 200" fill="none" xmlns="http://www.w3.org/2000/svg">
<mask id="path-1-inside-1_636_313" fill="white">
<path fill-rule="evenodd" clip-rule="evenodd" d="M32 0C14.3269 0 0 14.3269 0 32V123C0 140.673 14.3269 155 32 155H43.6706L34.3576 192.904C33.1631 197.765 39.0614 201.17 42.6741 197.705L87.2003 155H448C465.673 155 480 140.673 480 123V32C480 14.3269 465.673 0 448 0H32Z"/>
</mask>
<path fill-rule="evenodd" clip-rule="evenodd" d="M32 0C14.3269 0 0 14.3269 0 32V123C0 140.673 14.3269 155 32 155H43.6706L34.3576 192.904C33.1631 197.765 39.0614 201.17 42.6741 197.705L87.2003 155H448C465.673 155 480 140.673 480 123V32C480 14.3269 465.673 0 448 0H32Z" fill="#F6EEFF"/>
<path d="M43.6706 155L49.4973 156.432L51.3233 149H43.6706V155ZM34.3576 192.904L40.1843 194.335L40.1843 194.335L34.3576 192.904ZM42.6741 197.705L38.521 193.375L38.521 193.375L42.6741 197.705ZM87.2003 155V149H84.788L83.0471 150.67L87.2003 155ZM6 32C6 17.6406 17.6406 6 32 6V-6C11.0132 -6 -6 11.0132 -6 32H6ZM6 123V32H-6V123H6ZM32 149C17.6406 149 6 137.359 6 123H-6C-6 143.987 11.0132 161 32 161V149ZM43.6706 149H32V161H43.6706V149ZM40.1843 194.335L49.4973 156.432L37.8439 153.568L28.5309 191.472L40.1843 194.335ZM38.521 193.375C38.6057 193.294 38.8393 193.152 39.1547 193.124C39.4178 193.101 39.6029 193.167 39.7132 193.231C39.8234 193.294 39.9736 193.421 40.085 193.661C40.2186 193.948 40.2123 194.221 40.1843 194.335L28.5309 191.472C25.9031 202.167 38.8793 209.659 46.8273 202.036L38.521 193.375ZM83.0471 150.67L38.521 193.375L46.8273 202.036L91.3535 159.33L83.0471 150.67ZM448 149H87.2003V161H448V149ZM474 123C474 137.359 462.359 149 448 149V161C468.987 161 486 143.987 486 123H474ZM474 32V123H486V32H474ZM448 6C462.359 6 474 17.6406 474 32H486C486 11.0132 468.987 -6 448 -6V6ZM32 6H448V-6H32V6Z" fill="#605070" mask="url(#path-1-inside-1_636_313)"/>
<rect x="30" y="30" width="80" height="80" rx="15" fill="#605070"/>
<path fill-rule="evenodd" clip-rule="evenodd" d="M61.1694 62.4186C62.375 61.213 64.0101 60.5357 65.715 60.5357C66.8985 60.5357 67.8579 59.5763 67.8579 58.3928C67.8579 57.2094 66.8985 56.25 65.715 56.25C62.8734 56.25 60.1482 57.3788 58.1389 59.3881C56.1296 61.3974 55.0008 64.1227 55.0008 66.9642V77.6785C55.0008 78.9499 55.3778 80.1928 56.0842 81.25C56.7906 82.3072 57.7946 83.1311 58.9692 83.6177C60.1439 84.1043 61.4365 84.2316 62.6835 83.9835C63.9305 83.7355 65.076 83.1232 65.975 82.2242C66.8741 81.3251 67.4863 80.1797 67.7344 78.9326C67.9824 77.6856 67.8551 76.3931 67.3685 75.2184C66.882 74.0437 66.058 73.0397 65.0008 72.3333C63.9437 71.627 62.7008 71.2499 61.4293 71.2499H59.2865V66.9642C59.2865 65.2593 59.9638 63.6242 61.1694 62.4186Z" fill="white"/>
<path d="M78.3123 62.4186C79.5179 61.213 81.153 60.5357 82.8579 60.5357C84.0414 60.5357 85.0008 59.5763 85.0008 58.3928C85.0008 57.2094 84.0414 56.25 82.8579 56.25C80.0163 56.25 77.2911 57.3788 75.2818 59.3881C73.2725 61.3974 72.1437 64.1226 72.1437 66.9642V77.6785C72.1437 78.9499 72.5207 80.1928 73.2271 81.25C73.9335 82.3072 74.9375 83.1311 76.1121 83.6177C77.2868 84.1043 78.5794 84.2316 79.8264 83.9835C81.0734 83.7355 82.2189 83.1232 83.1179 82.2242C84.017 81.3251 84.6292 80.1797 84.8773 78.9326C85.1253 77.6856 84.998 76.3931 84.5114 75.2184C84.0249 74.0437 83.2009 73.0397 82.1438 72.3333C81.0866 71.627 79.8437 71.2499 78.5722 71.2499H76.4294V66.9642C76.4294 65.2593 77.1067 63.6242 78.3123 62.4186Z" fill="white"/>
<path d="M138.461 45.4883C138.461 45.1992 138.434 44.9414 138.379 44.7148C138.324 44.4805 138.219 44.2656 138.062 44.0703C137.906 43.8672 137.672 43.6641 137.359 43.4609C137.047 43.2578 136.637 43.0469 136.129 42.8281C135.504 42.5703 134.895 42.2891 134.301 41.9844C133.715 41.6719 133.188 41.3125 132.719 40.9062C132.25 40.4922 131.875 40.0078 131.594 39.4531C131.312 38.8906 131.172 38.2344 131.172 37.4844C131.172 36.7578 131.309 36.1016 131.582 35.5156C131.855 34.9219 132.238 34.418 132.73 34.0039C133.223 33.582 133.805 33.2617 134.477 33.043C135.148 32.8164 135.887 32.7031 136.691 32.7031C137.777 32.7031 138.727 32.9258 139.539 33.3711C140.352 33.8086 140.984 34.4258 141.438 35.2227C141.891 36.0117 142.117 36.9336 142.117 37.9883H138.414C138.414 37.5273 138.352 37.125 138.227 36.7812C138.102 36.4297 137.906 36.1562 137.641 35.9609C137.383 35.7578 137.043 35.6562 136.621 35.6562C136.23 35.6562 135.906 35.7383 135.648 35.9023C135.391 36.0664 135.199 36.2891 135.074 36.5703C134.949 36.8516 134.887 37.1641 134.887 37.5078C134.887 37.7812 134.949 38.0234 135.074 38.2344C135.207 38.4453 135.383 38.6406 135.602 38.8203C135.828 39 136.094 39.1719 136.398 39.3359C136.711 39.5 137.047 39.6562 137.406 39.8047C138.172 40.1094 138.852 40.4414 139.445 40.8008C140.047 41.1602 140.547 41.5664 140.945 42.0195C141.352 42.4648 141.656 42.9727 141.859 43.543C142.07 44.1055 142.176 44.7461 142.176 45.4648C142.176 46.1992 142.051 46.8633 141.801 47.457C141.551 48.043 141.191 48.543 140.723 48.957C140.262 49.3711 139.699 49.6875 139.035 49.9062C138.371 50.125 137.629 50.2344 136.809 50.2344C136.035 50.2344 135.289 50.125 134.57 49.9062C133.852 49.6797 133.211 49.3359 132.648 48.875C132.094 48.4141 131.652 47.8242 131.324 47.1055C130.996 46.3867 130.832 45.5312 130.832 44.5391H134.559C134.559 45.0469 134.602 45.4805 134.688 45.8398C134.781 46.1914 134.922 46.4727 135.109 46.6836C135.305 46.8945 135.543 47.0508 135.824 47.1523C136.113 47.2461 136.457 47.293 136.855 47.293C137.262 47.293 137.582 47.2109 137.816 47.0469C138.051 46.8828 138.215 46.668 138.309 46.4023C138.41 46.1289 138.461 45.8242 138.461 45.4883ZM145.949 32.9375H149.078L152.172 44.6797L155.254 32.9375H158.195L153.473 50H150.859L145.949 32.9375ZM144.344 32.9375H147.473L148.012 45.0664V50H144.344V32.9375ZM156.859 32.9375H159.988V50H156.332V45.0664L156.859 32.9375ZM169.082 36.2539L165.66 50H161.688L166.996 32.9375H169.469L169.082 36.2539ZM171.777 50L168.344 36.2539L167.898 32.9375H170.418L175.75 50H171.777ZM171.906 43.6367V46.6484H164.348V43.6367H171.906ZM177.215 32.9375H182.875C184.016 32.9375 184.996 33.1328 185.816 33.5234C186.637 33.9141 187.266 34.4922 187.703 35.2578C188.148 36.0234 188.371 36.9688 188.371 38.0938C188.371 39.0469 188.246 39.8516 187.996 40.5078C187.746 41.1562 187.395 41.6953 186.941 42.125C186.488 42.5547 185.953 42.9023 185.336 43.168L184.152 43.8594H179.641L179.629 40.8477H182.781C183.203 40.8477 183.551 40.75 183.824 40.5547C184.098 40.3594 184.301 40.082 184.434 39.7227C184.574 39.3555 184.645 38.9219 184.645 38.4219C184.645 37.9062 184.578 37.4648 184.445 37.0977C184.32 36.7305 184.129 36.4492 183.871 36.2539C183.621 36.0586 183.289 35.9609 182.875 35.9609H180.941V50H177.215V32.9375ZM184.879 50L181.797 42.418L185.711 42.4062L188.863 49.8242V50H184.879ZM197.195 32.9375V50H193.48V32.9375H197.195ZM201.379 32.9375V35.9609H189.391V32.9375H201.379ZM216.121 44.2695H219.824C219.801 45.5508 219.547 46.6367 219.062 47.5273C218.578 48.418 217.891 49.0938 217 49.5547C216.109 50.0078 215.055 50.2344 213.836 50.2344C212.867 50.2344 212.008 50.0703 211.258 49.7422C210.508 49.4062 209.871 48.9219 209.348 48.2891C208.832 47.6562 208.441 46.8789 208.176 45.957C207.918 45.0352 207.789 43.9805 207.789 42.793V40.1445C207.789 38.9648 207.93 37.9102 208.211 36.9805C208.492 36.0508 208.891 35.2695 209.406 34.6367C209.93 33.9961 210.566 33.5117 211.316 33.1836C212.066 32.8555 212.906 32.6914 213.836 32.6914C215.109 32.6914 216.18 32.9297 217.047 33.4062C217.914 33.8828 218.582 34.5742 219.051 35.4805C219.52 36.3867 219.785 37.4844 219.848 38.7734H216.133C216.141 37.9922 216.07 37.3828 215.922 36.9453C215.781 36.5 215.543 36.1875 215.207 36.0078C214.871 35.8203 214.414 35.7266 213.836 35.7266C213.422 35.7266 213.066 35.8047 212.77 35.9609C212.473 36.1094 212.234 36.3555 212.055 36.6992C211.875 37.043 211.742 37.4961 211.656 38.0586C211.57 38.6211 211.527 39.3086 211.527 40.1211V42.793C211.527 43.6055 211.562 44.293 211.633 44.8555C211.703 45.4102 211.824 45.8633 211.996 46.2148C212.168 46.5586 212.402 46.8086 212.699 46.9648C212.996 47.1211 213.375 47.1992 213.836 47.1992C214.352 47.1992 214.777 47.1211 215.113 46.9648C215.449 46.8008 215.699 46.5078 215.863 46.0859C216.035 45.6641 216.121 45.0586 216.121 44.2695ZM225.672 32.9375V50H221.957V32.9375H225.672ZM235.164 32.9375V50H231.449V32.9375H235.164ZM239.348 32.9375V35.9609H227.359V32.9375H239.348ZM246.098 36.2539L242.676 50H238.703L244.012 32.9375H246.484L246.098 36.2539ZM248.793 50L245.359 36.2539L244.914 32.9375H247.434L252.766 50H248.793ZM248.922 43.6367V46.6484H241.363V43.6367H248.922ZM259.938 32.9375V50H256.223V32.9375H259.938ZM264.121 32.9375V35.9609H252.133V32.9375H264.121ZM269.875 32.9375V50H266.16V32.9375H269.875ZM284.793 40.168V42.8867C284.793 44.0977 284.645 45.1641 284.348 46.0859C284.051 47 283.625 47.7656 283.07 48.3828C282.523 49 281.867 49.4648 281.102 49.7773C280.344 50.082 279.504 50.2344 278.582 50.2344C277.652 50.2344 276.805 50.082 276.039 49.7773C275.273 49.4648 274.613 49 274.059 48.3828C273.504 47.7656 273.074 47 272.77 46.0859C272.473 45.1641 272.324 44.0977 272.324 42.8867V40.168C272.324 38.9414 272.473 37.8633 272.77 36.9336C273.074 35.9961 273.5 35.2188 274.047 34.6016C274.602 33.9766 275.258 33.5039 276.016 33.1836C276.781 32.8633 277.629 32.7031 278.559 32.7031C279.488 32.7031 280.332 32.8633 281.09 33.1836C281.855 33.5039 282.512 33.9766 283.059 34.6016C283.613 35.2188 284.039 35.9961 284.336 36.9336C284.641 37.8633 284.793 38.9414 284.793 40.168ZM281.055 42.8867V40.1445C281.055 39.3555 281 38.6836 280.891 38.1289C280.789 37.5742 280.633 37.1211 280.422 36.7695C280.211 36.418 279.949 36.1602 279.637 35.9961C279.332 35.832 278.973 35.75 278.559 35.75C278.137 35.75 277.77 35.832 277.457 35.9961C277.145 36.1602 276.883 36.418 276.672 36.7695C276.469 37.1211 276.316 37.5742 276.215 38.1289C276.121 38.6836 276.074 39.3555 276.074 40.1445V42.8867C276.074 43.6523 276.125 44.3086 276.227 44.8555C276.328 45.4023 276.484 45.8477 276.695 46.1914C276.906 46.5352 277.168 46.7891 277.48 46.9531C277.793 47.1172 278.16 47.1992 278.582 47.1992C278.988 47.1992 279.344 47.1172 279.648 46.9531C279.961 46.7891 280.219 46.5352 280.422 46.1914C280.633 45.8477 280.789 45.4023 280.891 44.8555C281 44.3086 281.055 43.6523 281.055 42.8867ZM299.184 32.9375V50H295.539L290.711 39.3828V50H287.078V32.9375H290.723L295.562 43.6133V32.9375H299.184Z" fill="#605070"/>
<path d="M139.914 67.4219C139.598 65.7871 138.244 64.873 136.627 64.873C134.43 64.873 132.795 66.5605 132.795 69.6367C132.795 72.7305 134.447 74.4004 136.627 74.4004C138.227 74.4004 139.58 73.5039 139.914 71.8867L141.865 71.9043C141.461 74.418 139.404 76.1758 136.609 76.1758C133.287 76.1758 130.879 73.6973 130.879 69.6367C130.879 65.5586 133.305 63.0977 136.609 63.0977C139.299 63.0977 141.426 64.6797 141.865 67.4219H139.914ZM145.68 63.2734V76H143.799V63.2734H145.68ZM147.965 76V66.4551H149.846V76H147.965ZM148.914 64.9785C148.264 64.9785 147.719 64.4863 147.719 63.8711C147.719 63.2559 148.264 62.7637 148.914 62.7637C149.547 62.7637 150.092 63.2559 150.092 63.8711C150.092 64.4863 149.547 64.9785 148.914 64.9785ZM156.174 76.1934C153.396 76.1934 151.709 74.1367 151.709 71.2715C151.709 68.3535 153.449 66.332 156.139 66.332C158.318 66.332 159.9 67.6152 160.094 69.5488H158.266C158.072 68.6523 157.352 67.8965 156.174 67.8965C154.627 67.8965 153.59 69.1797 153.59 71.2188C153.59 73.3105 154.609 74.5938 156.174 74.5938C157.229 74.5938 158.037 74.0137 158.266 72.9766H160.094C159.883 74.8223 158.424 76.1934 156.174 76.1934ZM161.869 76V63.2734H163.75V70.4805H163.908L167.688 66.4551H169.938L166.088 70.5508L170.201 76H167.898L164.664 71.7109L163.75 72.6074V76H161.869ZM179.852 76.1934C177.145 76.1934 175.387 74.2246 175.387 71.2715C175.387 68.3008 177.145 66.332 179.852 66.332C182.541 66.332 184.299 68.3008 184.299 71.2715C184.299 74.2246 182.541 76.1934 179.852 76.1934ZM179.852 74.6289C181.574 74.6289 182.4 73.0996 182.4 71.2715C182.4 69.4434 181.574 67.8789 179.852 67.8789C178.094 67.8789 177.268 69.4434 177.268 71.2715C177.268 73.0996 178.094 74.6289 179.852 74.6289ZM188.025 70.3398V76H186.145V66.4551H187.955V68.0195H188.061C188.518 67 189.449 66.332 190.873 66.332C192.842 66.332 194.125 67.5625 194.125 69.9355V76H192.262V70.1641C192.262 68.7754 191.506 67.9492 190.24 67.9492C188.957 67.9492 188.025 68.8105 188.025 70.3398ZM200.365 73.3105C200.365 71.1309 202.211 70.5684 203.934 70.4453C204.566 70.4014 205.999 70.3223 206.447 70.3047L206.43 69.5488C206.43 68.4766 205.779 67.8438 204.496 67.8438C203.389 67.8438 202.721 68.3535 202.527 69.0566H200.664C200.84 67.4746 202.316 66.332 204.566 66.332C206.078 66.332 208.311 66.8945 208.311 69.6543V76H206.482V74.6992H206.412C206.043 75.4199 205.164 76.2109 203.582 76.2109C201.771 76.2109 200.365 75.1738 200.365 73.3105ZM202.193 73.3281C202.193 74.2422 202.949 74.7168 204.004 74.7168C205.533 74.7168 206.447 73.6973 206.447 72.5547V71.6758L204.197 71.834C202.967 71.9219 202.193 72.3789 202.193 73.3281ZM212.459 70.3398V76H210.578V66.4551H212.389V68.0195H212.494C212.951 67 213.883 66.332 215.307 66.332C217.275 66.332 218.559 67.5625 218.559 69.9355V76H216.695V70.1641C216.695 68.7754 215.939 67.9492 214.674 67.9492C213.391 67.9492 212.459 68.8105 212.459 70.3398ZM221.652 79.5859C221.266 79.5859 220.896 79.5684 220.65 79.5332V77.9688C220.861 77.9863 221.23 78.0039 221.494 78.0039C222.074 78.0039 222.566 77.9512 223.006 76.7559L223.234 76.123L219.736 66.4551H221.74L224.148 73.8555H224.254L226.662 66.4551H228.684L224.746 77.2656C224.201 78.7773 223.217 79.5859 221.652 79.5859ZM238.65 76.1934C235.873 76.1934 234.186 74.1367 234.186 71.2715C234.186 68.3535 235.926 66.332 238.615 66.332C240.795 66.332 242.377 67.6152 242.57 69.5488H240.742C240.549 68.6523 239.828 67.8965 238.65 67.8965C237.104 67.8965 236.066 69.1797 236.066 71.2188C236.066 73.3105 237.086 74.5938 238.65 74.5938C239.705 74.5938 240.514 74.0137 240.742 72.9766H242.57C242.359 74.8223 240.9 76.1934 238.65 76.1934ZM244.346 76V66.4551H246.227V76H244.346ZM245.295 64.9785C244.645 64.9785 244.1 64.4863 244.1 63.8711C244.1 63.2559 244.645 62.7637 245.295 62.7637C245.928 62.7637 246.473 63.2559 246.473 63.8711C246.473 64.4863 245.928 64.9785 245.295 64.9785ZM252.977 66.4551V67.9492H251.025V73.1875C251.025 74.2598 251.57 74.4531 252.168 74.4707C252.432 74.4707 252.854 74.4355 253.117 74.418V76.0527C252.854 76.0879 252.449 76.123 251.939 76.123C250.463 76.123 249.145 75.3145 249.162 73.5742V67.9492H247.756V66.4551H249.162V64.1699H251.025V66.4551H252.977ZM258.812 76.1934C256 76.1934 254.277 74.2598 254.277 71.2891C254.277 68.3535 256.035 66.332 258.689 66.332C260.869 66.332 262.926 67.6855 262.926 71.1309V71.7988H256.141C256.193 73.6094 257.257 74.6465 258.83 74.6465C259.902 74.6465 260.588 74.1895 260.904 73.6094H262.803C262.381 75.1562 260.904 76.1934 258.812 76.1934ZM256.158 70.3926H261.08C261.08 68.9336 260.148 67.8789 258.707 67.8789C257.204 67.8789 256.229 69.0391 256.158 70.3926ZM268.357 76.1934C266.055 76.1934 264.367 74.3301 264.367 71.2539C264.367 68.1426 266.072 66.332 268.375 66.332C270.15 66.332 270.801 67.4043 271.135 68.002H271.223V63.2734H273.104V76H271.275V74.5059H271.135C270.783 75.1387 270.098 76.1934 268.357 76.1934ZM268.779 74.5938C270.379 74.5938 271.275 73.2227 271.275 71.2188C271.275 69.2324 270.396 67.9316 268.779 67.9316C267.109 67.9316 266.283 69.3379 266.283 71.2188C266.283 73.1348 267.145 74.5938 268.779 74.5938ZM279.941 76V66.4551H281.752V67.9668H281.857C282.209 66.9473 283.158 66.3145 284.283 66.3145C284.512 66.3145 284.881 66.332 285.074 66.3496V68.1426C284.916 68.1074 284.477 68.0371 284.09 68.0371C282.789 68.0371 281.822 68.9336 281.822 70.1816V76H279.941ZM290.277 76.1934C287.465 76.1934 285.742 74.2598 285.742 71.2891C285.742 68.3535 287.5 66.332 290.154 66.332C292.334 66.332 294.391 67.6855 294.391 71.1309V71.7988H287.605C287.658 73.6094 288.722 74.6465 290.295 74.6465C291.367 74.6465 292.053 74.1895 292.369 73.6094H294.268C293.846 75.1562 292.369 76.1934 290.277 76.1934ZM287.623 70.3926H292.545C292.545 68.9336 291.613 67.8789 290.172 67.8789C288.669 67.8789 287.693 69.0391 287.623 70.3926ZM300.807 66.4551V67.9492H298.75V76H296.869V67.9492H295.393V66.4551H296.869V65.3477C296.869 63.6426 297.959 62.6758 299.717 62.6758C300.174 62.6758 300.631 62.7285 301 62.7988V64.3633C300.648 64.3105 300.385 64.293 300.209 64.293C299.207 64.293 298.75 64.6973 298.75 65.6289V66.4551H300.807ZM306.238 76.1934C303.426 76.1934 301.703 74.2598 301.703 71.2891C301.703 68.3535 303.461 66.332 306.115 66.332C308.295 66.332 310.352 67.6855 310.352 71.1309V71.7988H303.566C303.619 73.6094 304.683 74.6465 306.256 74.6465C307.328 74.6465 308.014 74.1895 308.33 73.6094H310.229C309.807 75.1562 308.33 76.1934 306.238 76.1934ZM303.584 70.3926H308.506C308.506 68.9336 307.574 67.8789 306.133 67.8789C304.63 67.8789 303.654 69.0391 303.584 70.3926ZM312.215 76V66.4551H314.025V67.9668H314.131C314.482 66.9473 315.432 66.3145 316.557 66.3145C316.785 66.3145 317.154 66.332 317.348 66.3496V68.1426C317.189 68.1074 316.75 68.0371 316.363 68.0371C315.062 68.0371 314.096 68.9336 314.096 70.1816V76H312.215ZM322.551 76.1934C319.738 76.1934 318.016 74.2598 318.016 71.2891C318.016 68.3535 319.773 66.332 322.428 66.332C324.607 66.332 326.664 67.6855 326.664 71.1309V71.7988H319.879C319.932 73.6094 320.995 74.6465 322.568 74.6465C323.641 74.6465 324.326 74.1895 324.643 73.6094H326.541C326.119 75.1562 324.643 76.1934 322.551 76.1934ZM319.896 70.3926H324.818C324.818 68.9336 323.887 67.8789 322.445 67.8789C320.942 67.8789 319.967 69.0391 319.896 70.3926ZM330.408 70.3398V76H328.527V66.4551H330.338V68.0195H330.443C330.9 67 331.832 66.332 333.256 66.332C335.225 66.332 336.508 67.5625 336.508 69.9355V76H334.645V70.1641C334.645 68.7754 333.889 67.9492 332.623 67.9492C331.34 67.9492 330.408 68.8105 330.408 70.3398ZM342.836 76.1934C340.059 76.1934 338.371 74.1367 338.371 71.2715C338.371 68.3535 340.111 66.332 342.801 66.332C344.98 66.332 346.562 67.6152 346.756 69.5488H344.928C344.734 68.6523 344.014 67.8965 342.836 67.8965C341.289 67.8965 340.252 69.1797 340.252 71.2188C340.252 73.3105 341.271 74.5938 342.836 74.5938C343.891 74.5938 344.699 74.0137 344.928 72.9766H346.756C346.545 74.8223 345.086 76.1934 342.836 76.1934ZM352.645 76.1934C349.832 76.1934 348.109 74.2598 348.109 71.2891C348.109 68.3535 349.867 66.332 352.521 66.332C354.701 66.332 356.758 67.6855 356.758 71.1309V71.7988H349.973C350.025 73.6094 351.089 74.6465 352.662 74.6465C353.734 74.6465 354.42 74.1895 354.736 73.6094H356.635C356.213 75.1562 354.736 76.1934 352.645 76.1934ZM349.99 70.3926H354.912C354.912 68.9336 353.98 67.8789 352.539 67.8789C351.036 67.8789 350.061 69.0391 349.99 70.3926ZM367.48 66.4551V67.9492H365.529V73.1875C365.529 74.2598 366.074 74.4531 366.672 74.4707C366.936 74.4707 367.357 74.4355 367.621 74.418V76.0527C367.357 76.0879 366.953 76.123 366.443 76.123C364.967 76.123 363.648 75.3145 363.666 73.5742V67.9492H362.26V66.4551H363.666V64.1699H365.529V66.4551H367.48ZM373.246 76.1934C370.539 76.1934 368.781 74.2246 368.781 71.2715C368.781 68.3008 370.539 66.332 373.246 66.332C375.936 66.332 377.693 68.3008 377.693 71.2715C377.693 74.2246 375.936 76.1934 373.246 76.1934ZM373.246 74.6289C374.969 74.6289 375.795 73.0996 375.795 71.2715C375.795 69.4434 374.969 67.8789 373.246 67.8789C371.488 67.8789 370.662 69.4434 370.662 71.2715C370.662 73.0996 371.488 74.6289 373.246 74.6289ZM131.143 98V88.4551H133.023V98H131.143ZM132.092 86.9785C131.441 86.9785 130.896 86.4863 130.896 85.8711C130.896 85.2559 131.441 84.7637 132.092 84.7637C132.725 84.7637 133.27 85.2559 133.27 85.8711C133.27 86.4863 132.725 86.9785 132.092 86.9785ZM137.189 92.3398V98H135.309V88.4551H137.119V90.0195H137.225C137.682 89 138.613 88.332 140.037 88.332C142.006 88.332 143.289 89.5625 143.289 91.9355V98H141.426V92.1641C141.426 90.7754 140.67 89.9492 139.404 89.9492C138.121 89.9492 137.189 90.8105 137.189 92.3398ZM150.936 91.0566C150.76 90.3008 150.162 89.8086 149.125 89.8086C148.053 89.8086 147.279 90.3711 147.297 91.0918C147.279 91.6543 147.736 92.0586 148.791 92.3047L150.303 92.6562C152.061 93.043 152.904 93.8867 152.922 95.2402C152.904 96.9629 151.463 98.1934 149.02 98.1934C146.734 98.1934 145.363 97.1738 145.135 95.3984H147.051C147.209 96.2598 147.877 96.6816 149.002 96.6816C150.215 96.6816 150.988 96.1895 151.006 95.3809C150.988 94.7656 150.531 94.3613 149.529 94.1328L148.035 93.8164C146.312 93.4297 145.416 92.5156 145.416 91.1973C145.416 89.4922 146.893 88.332 149.107 88.332C151.234 88.332 152.553 89.4219 152.746 91.0566H150.936ZM159.215 88.4551V89.9492H157.264V95.1875C157.264 96.2598 157.809 96.4531 158.406 96.4707C158.67 96.4707 159.092 96.4355 159.355 96.418V98.0527C159.092 98.0879 158.688 98.123 158.178 98.123C156.701 98.123 155.383 97.3145 155.4 95.5742V89.9492H153.994V88.4551H155.4V86.1699H157.264V88.4551H159.215ZM160.604 95.3105C160.604 93.1309 162.449 92.5684 164.172 92.4453C164.805 92.4014 166.237 92.3223 166.686 92.3047L166.668 91.5488C166.668 90.4766 166.018 89.8438 164.734 89.8438C163.627 89.8438 162.959 90.3535 162.766 91.0566H160.902C161.078 89.4746 162.555 88.332 164.805 88.332C166.316 88.332 168.549 88.8945 168.549 91.6543V98H166.721V96.6992H166.65C166.281 97.4199 165.402 98.2109 163.82 98.2109C162.01 98.2109 160.604 97.1738 160.604 95.3105ZM162.432 95.3281C162.432 96.2422 163.188 96.7168 164.242 96.7168C165.771 96.7168 166.686 95.6973 166.686 94.5547V93.6758L164.436 93.834C163.205 93.9219 162.432 94.3789 162.432 95.3281ZM172.697 92.3398V98H170.816V88.4551H172.627V90.0195H172.732C173.189 89 174.121 88.332 175.545 88.332C177.514 88.332 178.797 89.5625 178.797 91.9355V98H176.934V92.1641C176.934 90.7754 176.178 89.9492 174.912 89.9492C173.629 89.9492 172.697 90.8105 172.697 92.3398ZM185.547 88.4551V89.9492H183.596V95.1875C183.596 96.2598 184.141 96.4531 184.738 96.4707C185.002 96.4707 185.424 96.4355 185.688 96.418V98.0527C185.424 98.0879 185.02 98.123 184.51 98.123C183.033 98.123 181.715 97.3145 181.732 95.5742V89.9492H180.326V88.4551H181.732V86.1699H183.596V88.4551H185.547ZM189.467 85.2734V98H187.586V85.2734H189.467ZM192.912 101.586C192.525 101.586 192.156 101.568 191.91 101.533V99.9688C192.121 99.9863 192.49 100.004 192.754 100.004C193.334 100.004 193.826 99.9512 194.266 98.7559L194.494 98.123L190.996 88.4551H193L195.408 95.8555H195.514L197.922 88.4551H199.943L196.006 99.2656C195.461 100.777 194.477 101.586 192.912 101.586ZM214.059 88.4551L210.596 98H208.574L205.111 88.4551H207.133L209.541 95.7852H209.629L212.037 88.4551H214.059ZM215.588 98V88.4551H217.469V98H215.588ZM216.537 86.9785C215.887 86.9785 215.342 86.4863 215.342 85.8711C215.342 85.2559 215.887 84.7637 216.537 84.7637C217.17 84.7637 217.715 85.2559 217.715 85.8711C217.715 86.4863 217.17 86.9785 216.537 86.9785ZM223.867 98.1934C221.055 98.1934 219.332 96.2598 219.332 93.2891C219.332 90.3535 221.09 88.332 223.744 88.332C225.924 88.332 227.98 89.6855 227.98 93.1309V93.7988H221.195C221.248 95.6094 222.312 96.6465 223.885 96.6465C224.957 96.6465 225.643 96.1895 225.959 95.6094H227.857C227.436 97.1562 225.959 98.1934 223.867 98.1934ZM221.213 92.3926H226.135C226.135 90.9336 225.203 89.8789 223.762 89.8789C222.259 89.8789 221.283 91.0391 221.213 92.3926ZM231.865 98L229.07 88.4551H231.004L232.867 95.4512H232.973L234.836 88.4551H236.77L238.615 95.416H238.721L240.566 88.4551H242.5L239.705 98H237.789L235.855 91.127H235.715L233.799 98H231.865ZM252.01 98.1934C249.707 98.1934 248.02 96.3301 248.02 93.2539C248.02 90.1426 249.725 88.332 252.027 88.332C253.803 88.332 254.453 89.4043 254.787 90.002H254.875V85.2734H256.756V98H254.928V96.5059H254.787C254.436 97.1387 253.75 98.1934 252.01 98.1934ZM252.432 96.5938C254.031 96.5938 254.928 95.2227 254.928 93.2188C254.928 91.2324 254.049 89.9316 252.432 89.9316C250.762 89.9316 249.936 91.3379 249.936 93.2188C249.936 95.1348 250.797 96.5938 252.432 96.5938ZM263.312 98.1934C260.5 98.1934 258.777 96.2598 258.777 93.2891C258.777 90.3535 260.535 88.332 263.189 88.332C265.369 88.332 267.426 89.6855 267.426 93.1309V93.7988H260.641C260.693 95.6094 261.757 96.6465 263.33 96.6465C264.402 96.6465 265.088 96.1895 265.404 95.6094H267.303C266.881 97.1562 265.404 98.1934 263.312 98.1934ZM260.658 92.3926H265.58C265.58 90.9336 264.648 89.8789 263.207 89.8789C261.704 89.8789 260.729 91.0391 260.658 92.3926ZM273.754 88.4551V89.9492H271.803V95.1875C271.803 96.2598 272.348 96.4531 272.945 96.4707C273.209 96.4707 273.631 96.4355 273.895 96.418V98.0527C273.631 98.0879 273.227 98.123 272.717 98.123C271.24 98.123 269.922 97.3145 269.939 95.5742V89.9492H268.533V88.4551H269.939V86.1699H271.803V88.4551H273.754ZM275.143 95.3105C275.143 93.1309 276.988 92.5684 278.711 92.4453C279.344 92.4014 280.776 92.3223 281.225 92.3047L281.207 91.5488C281.207 90.4766 280.557 89.8438 279.273 89.8438C278.166 89.8438 277.498 90.3535 277.305 91.0566H275.441C275.617 89.4746 277.094 88.332 279.344 88.332C280.855 88.332 283.088 88.8945 283.088 91.6543V98H281.26V96.6992H281.189C280.82 97.4199 279.941 98.2109 278.359 98.2109C276.549 98.2109 275.143 97.1738 275.143 95.3105ZM276.971 95.3281C276.971 96.2422 277.727 96.7168 278.781 96.7168C280.311 96.7168 281.225 95.6973 281.225 94.5547V93.6758L278.975 93.834C277.744 93.9219 276.971 94.3789 276.971 95.3281ZM285.355 98V88.4551H287.236V98H285.355ZM286.305 86.9785C285.654 86.9785 285.109 86.4863 285.109 85.8711C285.109 85.2559 285.654 84.7637 286.305 84.7637C286.938 84.7637 287.482 85.2559 287.482 85.8711C287.482 86.4863 286.938 86.9785 286.305 86.9785ZM291.402 85.2734V98H289.521V85.2734H291.402ZM297.801 98.1934C294.988 98.1934 293.266 96.2598 293.266 93.2891C293.266 90.3535 295.023 88.332 297.678 88.332C299.857 88.332 301.914 89.6855 301.914 93.1309V93.7988H295.129C295.182 95.6094 296.245 96.6465 297.818 96.6465C298.891 96.6465 299.576 96.1895 299.893 95.6094H301.791C301.369 97.1562 299.893 98.1934 297.801 98.1934ZM295.146 92.3926H300.068C300.068 90.9336 299.137 89.8789 297.695 89.8789C296.192 89.8789 295.217 91.0391 295.146 92.3926ZM307.346 98.1934C305.043 98.1934 303.355 96.3301 303.355 93.2539C303.355 90.1426 305.061 88.332 307.363 88.332C309.139 88.332 309.789 89.4043 310.123 90.002H310.211V85.2734H312.092V98H310.264V96.5059H310.123C309.771 97.1387 309.086 98.1934 307.346 98.1934ZM307.768 96.5938C309.367 96.5938 310.264 95.2227 310.264 93.2188C310.264 91.2324 309.385 89.9316 307.768 89.9316C306.098 89.9316 305.271 91.3379 305.271 93.2188C305.271 95.1348 306.133 96.5938 307.768 96.5938ZM318.93 98V88.4551H320.74V89.9668H320.846C321.197 88.9473 322.146 88.3145 323.271 88.3145C323.5 88.3145 323.869 88.332 324.062 88.3496V90.1426C323.904 90.1074 323.465 90.0371 323.078 90.0371C321.777 90.0371 320.811 90.9336 320.811 92.1816V98H318.93ZM329.266 98.1934C326.453 98.1934 324.73 96.2598 324.73 93.2891C324.73 90.3535 326.488 88.332 329.143 88.332C331.322 88.332 333.379 89.6855 333.379 93.1309V93.7988H326.594C326.646 95.6094 327.71 96.6465 329.283 96.6465C330.355 96.6465 331.041 96.1895 331.357 95.6094H333.256C332.834 97.1562 331.357 98.1934 329.266 98.1934ZM326.611 92.3926H331.533C331.533 90.9336 330.602 89.8789 329.16 89.8789C327.657 89.8789 326.682 91.0391 326.611 92.3926ZM339.795 88.4551V89.9492H337.738V98H335.857V89.9492H334.381V88.4551H335.857V87.3477C335.857 85.6426 336.947 84.6758 338.705 84.6758C339.162 84.6758 339.619 84.7285 339.988 84.7988V86.3633C339.637 86.3105 339.373 86.293 339.197 86.293C338.195 86.293 337.738 86.6973 337.738 87.6289V88.4551H339.795ZM345.227 98.1934C342.414 98.1934 340.691 96.2598 340.691 93.2891C340.691 90.3535 342.449 88.332 345.104 88.332C347.283 88.332 349.34 89.6855 349.34 93.1309V93.7988H342.555C342.607 95.6094 343.671 96.6465 345.244 96.6465C346.316 96.6465 347.002 96.1895 347.318 95.6094H349.217C348.795 97.1562 347.318 98.1934 345.227 98.1934ZM342.572 92.3926H347.494C347.494 90.9336 346.562 89.8789 345.121 89.8789C343.618 89.8789 342.643 91.0391 342.572 92.3926ZM351.203 98V88.4551H353.014V89.9668H353.119C353.471 88.9473 354.42 88.3145 355.545 88.3145C355.773 88.3145 356.143 88.332 356.336 88.3496V90.1426C356.178 90.1074 355.738 90.0371 355.352 90.0371C354.051 90.0371 353.084 90.9336 353.084 92.1816V98H351.203ZM361.539 98.1934C358.727 98.1934 357.004 96.2598 357.004 93.2891C357.004 90.3535 358.762 88.332 361.416 88.332C363.596 88.332 365.652 89.6855 365.652 93.1309V93.7988H358.867C358.92 95.6094 359.983 96.6465 361.557 96.6465C362.629 96.6465 363.314 96.1895 363.631 95.6094H365.529C365.107 97.1562 363.631 98.1934 361.539 98.1934ZM358.885 92.3926H363.807C363.807 90.9336 362.875 89.8789 361.434 89.8789C359.931 89.8789 358.955 91.0391 358.885 92.3926ZM369.396 92.3398V98H367.516V88.4551H369.326V90.0195H369.432C369.889 89 370.82 88.332 372.244 88.332C374.213 88.332 375.496 89.5625 375.496 91.9355V98H373.633V92.1641C373.633 90.7754 372.877 89.9492 371.611 89.9492C370.328 89.9492 369.396 90.8105 369.396 92.3398ZM381.824 98.1934C379.047 98.1934 377.359 96.1367 377.359 93.2715C377.359 90.3535 379.1 88.332 381.789 88.332C383.969 88.332 385.551 89.6152 385.744 91.5488H383.916C383.723 90.6523 383.002 89.8965 381.824 89.8965C380.277 89.8965 379.24 91.1797 379.24 93.2188C379.24 95.3105 380.26 96.5938 381.824 96.5938C382.879 96.5938 383.688 96.0137 383.916 94.9766H385.744C385.533 96.8223 384.074 98.1934 381.824 98.1934ZM391.633 98.1934C388.82 98.1934 387.098 96.2598 387.098 93.2891C387.098 90.3535 388.855 88.332 391.51 88.332C393.689 88.332 395.746 89.6855 395.746 93.1309V93.7988H388.961C389.014 95.6094 390.077 96.6465 391.65 96.6465C392.723 96.6465 393.408 96.1895 393.725 95.6094H395.623C395.201 97.1562 393.725 98.1934 391.633 98.1934ZM388.979 92.3926H393.9C393.9 90.9336 392.969 89.8789 391.527 89.8789C390.024 89.8789 389.049 91.0391 388.979 92.3926ZM131.143 120V110.455H133.023V120H131.143ZM132.092 108.979C131.441 108.979 130.896 108.486 130.896 107.871C130.896 107.256 131.441 106.764 132.092 106.764C132.725 106.764 133.27 107.256 133.27 107.871C133.27 108.486 132.725 108.979 132.092 108.979ZM137.189 114.34V120H135.309V110.455H137.119V112.02H137.225C137.682 111 138.613 110.332 140.037 110.332C142.006 110.332 143.289 111.562 143.289 113.936V120H141.426V114.164C141.426 112.775 140.67 111.949 139.404 111.949C138.121 111.949 137.189 112.811 137.189 114.34ZM150.127 110.455V111.949H148.07V120H146.189V111.949H144.713V110.455H146.189V109.348C146.189 107.643 147.279 106.676 149.037 106.676C149.494 106.676 149.951 106.729 150.32 106.799V108.363C149.969 108.311 149.705 108.293 149.529 108.293C148.527 108.293 148.07 108.697 148.07 109.629V110.455H150.127ZM155.488 120.193C152.781 120.193 151.023 118.225 151.023 115.271C151.023 112.301 152.781 110.332 155.488 110.332C158.178 110.332 159.936 112.301 159.936 115.271C159.936 118.225 158.178 120.193 155.488 120.193ZM155.488 118.629C157.211 118.629 158.037 117.1 158.037 115.271C158.037 113.443 157.211 111.879 155.488 111.879C153.73 111.879 152.904 113.443 152.904 115.271C152.904 117.1 153.73 118.629 155.488 118.629ZM161.781 120V110.455H163.592V111.967H163.697C164.049 110.947 164.998 110.314 166.123 110.314C166.352 110.314 166.721 110.332 166.914 110.35V112.143C166.756 112.107 166.316 112.037 165.93 112.037C164.629 112.037 163.662 112.934 163.662 114.182V120H161.781ZM168.32 120V110.455H170.131V112.02H170.236C170.641 110.947 171.572 110.332 172.838 110.332C174.104 110.332 175 110.965 175.404 112.02H175.51C175.967 110.982 176.986 110.332 178.375 110.332C180.098 110.332 181.328 111.422 181.328 113.602V120H179.447V113.777C179.447 112.494 178.639 111.949 177.654 111.949C176.441 111.949 175.756 112.775 175.756 113.918V120H173.893V113.672C173.893 112.635 173.172 111.949 172.152 111.949C171.098 111.949 170.201 112.828 170.201 114.111V120H168.32ZM183.156 117.311C183.156 115.131 185.002 114.568 186.725 114.445C187.357 114.401 188.79 114.322 189.238 114.305L189.221 113.549C189.221 112.477 188.57 111.844 187.287 111.844C186.18 111.844 185.512 112.354 185.318 113.057H183.455C183.631 111.475 185.107 110.332 187.357 110.332C188.869 110.332 191.102 110.895 191.102 113.654V120H189.273V118.699H189.203C188.834 119.42 187.955 120.211 186.373 120.211C184.562 120.211 183.156 119.174 183.156 117.311ZM184.984 117.328C184.984 118.242 185.74 118.717 186.795 118.717C188.324 118.717 189.238 117.697 189.238 116.555V115.676L186.988 115.834C185.758 115.922 184.984 116.379 184.984 117.328ZM197.834 110.455V111.949H195.883V117.188C195.883 118.26 196.428 118.453 197.025 118.471C197.289 118.471 197.711 118.436 197.975 118.418V120.053C197.711 120.088 197.307 120.123 196.797 120.123C195.32 120.123 194.002 119.314 194.02 117.574V111.949H192.613V110.455H194.02V108.17H195.883V110.455H197.834ZM199.662 120V110.455H201.543V120H199.662ZM200.611 108.979C199.961 108.979 199.416 108.486 199.416 107.871C199.416 107.256 199.961 106.764 200.611 106.764C201.244 106.764 201.789 107.256 201.789 107.871C201.789 108.486 201.244 108.979 200.611 108.979ZM207.871 120.193C205.164 120.193 203.406 118.225 203.406 115.271C203.406 112.301 205.164 110.332 207.871 110.332C210.561 110.332 212.318 112.301 212.318 115.271C212.318 118.225 210.561 120.193 207.871 120.193ZM207.871 118.629C209.594 118.629 210.42 117.1 210.42 115.271C210.42 113.443 209.594 111.879 207.871 111.879C206.113 111.879 205.287 113.443 205.287 115.271C205.287 117.1 206.113 118.629 207.871 118.629ZM216.045 114.34V120H214.164V110.455H215.975V112.02H216.08C216.537 111 217.469 110.332 218.893 110.332C220.861 110.332 222.145 111.562 222.145 113.936V120H220.281V114.164C220.281 112.775 219.525 111.949 218.26 111.949C216.977 111.949 216.045 112.811 216.045 114.34ZM225.66 120.123C224.975 120.123 224.395 119.561 224.412 118.875C224.395 118.189 224.975 117.627 225.66 117.627C226.328 117.627 226.908 118.189 226.908 118.875C226.908 119.561 226.328 120.123 225.66 120.123Z" fill="#605070"/>
</svg>
