<svg width="480" height="200" viewBox="0 0 480 200" fill="none" xmlns="http://www.w3.org/2000/svg">
<mask id="path-1-inside-1_641_473" fill="white">
<path fill-rule="evenodd" clip-rule="evenodd" d="M32 0C14.3269 0 0 14.3269 0 32V123C0 140.673 14.3269 155 32 155H404.425L448.951 197.705C452.564 201.17 458.462 197.765 457.267 192.904L447.954 155H448C465.673 155 480 140.673 480 123V32C480 14.3269 465.673 0 448 0H32Z"/>
</mask>
<path fill-rule="evenodd" clip-rule="evenodd" d="M32 0C14.3269 0 0 14.3269 0 32V123C0 140.673 14.3269 155 32 155H404.425L448.951 197.705C452.564 201.17 458.462 197.765 457.267 192.904L447.954 155H448C465.673 155 480 140.673 480 123V32C480 14.3269 465.673 0 448 0H32Z" fill="#F6EEFF"/>
<path d="M404.425 155L408.578 150.67L406.837 149H404.425V155ZM448.951 197.705L453.104 193.375L453.104 193.375L448.951 197.705ZM457.267 192.904L451.441 194.335L451.441 194.335L457.267 192.904ZM447.954 155V149H440.302L442.128 156.432L447.954 155ZM6 32C6 17.6406 17.6406 6 32 6V-6C11.0132 -6 -6 11.0132 -6 32H6ZM6 123V32H-6V123H6ZM32 149C17.6406 149 6 137.359 6 123H-6C-6 143.987 11.0132 161 32 161V149ZM404.425 149H32V161H404.425V149ZM400.272 159.33L444.798 202.036L453.104 193.375L408.578 150.67L400.272 159.33ZM444.798 202.036C452.746 209.659 465.722 202.167 463.094 191.472L451.441 194.335C451.413 194.221 451.406 193.948 451.54 193.661C451.651 193.421 451.802 193.294 451.912 193.231C452.022 193.167 452.207 193.101 452.47 193.124C452.786 193.152 453.019 193.294 453.104 193.375L444.798 202.036ZM463.094 191.472L453.781 153.568L442.128 156.432L451.441 194.335L463.094 191.472ZM448 149H447.954V161H448V149ZM474 123C474 137.359 462.359 149 448 149V161C468.987 161 486 143.987 486 123H474ZM474 32V123H486V32H474ZM448 6C462.359 6 474 17.6406 474 32H486C486 11.0132 468.987 -6 448 -6V6ZM32 6H448V-6H32V6Z" fill="#605070" mask="url(#path-1-inside-1_641_473)"/>
<rect x="30" y="30" width="80" height="80" rx="15" fill="#605070"/>
<path d="M49.5459 59.7898V54.6761C49.5459 53.3199 50.0847 52.0192 51.0436 51.0602C52.0026 50.1013 53.3033 49.5625 54.6595 49.5625H59.7732M49.5459 80.2443V85.358C49.5459 86.7142 50.0847 88.0148 51.0436 88.9738C52.0026 89.9328 53.3033 90.4716 54.6595 90.4716H59.7732M80.2277 49.5625H85.3413C86.6976 49.5625 87.9982 50.1013 88.9572 51.0602C89.9162 52.0192 90.455 53.3199 90.455 54.6761V59.7898" stroke="white" stroke-width="3.6" stroke-linecap="round" stroke-linejoin="round"/>
<path d="M87.0452 87.0696L78.5225 78.5469M59.7725 70.0242C59.7725 71.3672 60.037 72.6971 60.551 73.938C61.0649 75.1788 61.8183 76.3062 62.768 77.2559C63.7176 78.2056 64.8451 78.959 66.0859 79.4729C67.3268 79.9869 68.6567 80.2514 69.9997 80.2514C71.3428 80.2514 72.6727 79.9869 73.9135 79.4729C75.1544 78.959 76.2818 78.2056 77.2315 77.2559C78.1812 76.3062 78.9345 75.1788 79.4485 73.938C79.9625 72.6971 80.227 71.3672 80.227 70.0242C80.227 67.3117 79.1495 64.7104 77.2315 62.7924C75.3135 60.8744 72.7122 59.7969 69.9997 59.7969C67.2873 59.7969 64.6859 60.8744 62.768 62.7924C60.85 64.7104 59.7725 67.3117 59.7725 70.0242Z" stroke="white" stroke-width="3.6" stroke-linecap="round" stroke-linejoin="round"/>
<path d="M138.391 32.9375V50H134.676V32.9375H138.391ZM142.574 32.9375V35.9609H130.586V32.9375H142.574ZM154.375 46.9883V50H146.934V46.9883H154.375ZM148.164 32.9375V50H144.438V32.9375H148.164ZM153.391 39.7812V42.6875H146.934V39.7812H153.391ZM154.375 32.9375V35.9609H146.934V32.9375H154.375ZM159.531 32.9375L161.723 38.6094L163.832 32.9375H168.004L164.031 41.3867L168.086 50H163.809L161.629 44.2109L159.438 50H155.195L159.297 41.3516L155.289 32.9375H159.531ZM176.781 32.9375V50H173.066V32.9375H176.781ZM180.965 32.9375V35.9609H168.977V32.9375H180.965ZM197.594 46.9883V50H190.152V46.9883H197.594ZM191.383 32.9375V50H187.656V32.9375H191.383ZM196.609 39.7812V42.6875H190.152V39.7812H196.609ZM197.594 32.9375V35.9609H190.152V32.9375H197.594ZM202.75 32.9375L204.941 38.6094L207.051 32.9375H211.223L207.25 41.3867L211.305 50H207.027L204.848 44.2109L202.656 50H198.414L202.516 41.3516L198.508 32.9375H202.75ZM218.77 44.1055H215.312V41.082H218.77C219.215 41.082 219.574 40.9805 219.848 40.7773C220.121 40.5664 220.32 40.2812 220.445 39.9219C220.57 39.5547 220.633 39.1406 220.633 38.6797C220.633 38.1953 220.57 37.7461 220.445 37.332C220.32 36.918 220.121 36.5859 219.848 36.3359C219.574 36.0859 219.215 35.9609 218.77 35.9609H216.602V50H212.875V32.9375H218.77C219.934 32.9375 220.934 33.1836 221.77 33.6758C222.613 34.168 223.262 34.8438 223.715 35.7031C224.168 36.5625 224.395 37.5469 224.395 38.6562C224.395 39.7578 224.168 40.7148 223.715 41.5273C223.262 42.3398 222.613 42.9727 221.77 43.4258C220.934 43.8789 219.934 44.1055 218.77 44.1055ZM236.242 46.9883V50H229.105V46.9883H236.242ZM230.336 32.9375V50H226.609V32.9375H230.336ZM244.645 36.2539L241.223 50H237.25L242.559 32.9375H245.031L244.645 36.2539ZM247.34 50L243.906 36.2539L243.461 32.9375H245.98L251.312 50H247.34ZM247.469 43.6367V46.6484H239.91V43.6367H247.469ZM264.871 32.9375V50H261.227L256.398 39.3828V50H252.766V32.9375H256.41L261.25 43.6133V32.9375H264.871ZM273.941 36.2539L270.52 50H266.547L271.855 32.9375H274.328L273.941 36.2539ZM276.637 50L273.203 36.2539L272.758 32.9375H275.277L280.609 50H276.637ZM276.766 43.6367V46.6484H269.207V43.6367H276.766ZM287.781 32.9375V50H284.066V32.9375H287.781ZM291.965 32.9375V35.9609H279.977V32.9375H291.965ZM297.719 32.9375V50H294.004V32.9375H297.719ZM312.637 40.168V42.8867C312.637 44.0977 312.488 45.1641 312.191 46.0859C311.895 47 311.469 47.7656 310.914 48.3828C310.367 49 309.711 49.4648 308.945 49.7773C308.188 50.082 307.348 50.2344 306.426 50.2344C305.496 50.2344 304.648 50.082 303.883 49.7773C303.117 49.4648 302.457 49 301.902 48.3828C301.348 47.7656 300.918 47 300.613 46.0859C300.316 45.1641 300.168 44.0977 300.168 42.8867V40.168C300.168 38.9414 300.316 37.8633 300.613 36.9336C300.918 35.9961 301.344 35.2188 301.891 34.6016C302.445 33.9766 303.102 33.5039 303.859 33.1836C304.625 32.8633 305.473 32.7031 306.402 32.7031C307.332 32.7031 308.176 32.8633 308.934 33.1836C309.699 33.5039 310.355 33.9766 310.902 34.6016C311.457 35.2188 311.883 35.9961 312.18 36.9336C312.484 37.8633 312.637 38.9414 312.637 40.168ZM308.898 42.8867V40.1445C308.898 39.3555 308.844 38.6836 308.734 38.1289C308.633 37.5742 308.477 37.1211 308.266 36.7695C308.055 36.418 307.793 36.1602 307.48 35.9961C307.176 35.832 306.816 35.75 306.402 35.75C305.98 35.75 305.613 35.832 305.301 35.9961C304.988 36.1602 304.727 36.418 304.516 36.7695C304.312 37.1211 304.16 37.5742 304.059 38.1289C303.965 38.6836 303.918 39.3555 303.918 40.1445V42.8867C303.918 43.6523 303.969 44.3086 304.07 44.8555C304.172 45.4023 304.328 45.8477 304.539 46.1914C304.75 46.5352 305.012 46.7891 305.324 46.9531C305.637 47.1172 306.004 47.1992 306.426 47.1992C306.832 47.1992 307.188 47.1172 307.492 46.9531C307.805 46.7891 308.062 46.5352 308.266 46.1914C308.477 45.8477 308.633 45.4023 308.734 44.8555C308.844 44.3086 308.898 43.6523 308.898 42.8867ZM327.027 32.9375V50H323.383L318.555 39.3828V50H314.922V32.9375H318.566L323.406 43.6133V32.9375H327.027Z" fill="#605070"/>
<path d="M132.936 75.0508C136.434 74.6992 138.174 72.9766 138.174 69.8828V69.3379H131.02V67.8438H145.855V69.3379H139.896V69.8828C139.896 73.8027 137.541 76.1758 133.287 76.5625L132.936 75.0508ZM132.637 64.5215V63.0273H144.256V64.5215H132.637ZM155.049 77.1426L154.68 72.4844L147.93 72.748L147.877 71.2539L154.574 70.9902L154.205 66.4551L148.598 66.6484L148.545 65.1719L154.1 64.9785L153.871 62.2539L155.576 62.1133L155.805 64.9082L162.027 64.6973L162.08 66.1738L155.91 66.3848L156.279 70.9199L162.695 70.6738L162.748 72.168L156.402 72.4141L156.754 77.002L155.049 77.1426ZM165.402 74.6641C170.377 72.1855 174.095 68.7578 175.949 64.9258H166.229V63.4141H177.76V64.9258C176.942 66.8594 175.65 68.7402 173.998 70.4629C175.879 71.79 177.54 73.2578 179.184 75.1035L178.041 76.2461C176.336 74.3301 174.763 72.915 172.855 71.5879C170.948 73.3193 168.672 74.8486 166.141 76.0703L165.402 74.6641ZM195.619 71.9746C192.358 70.8584 189.062 69.9004 186.127 69.2148V76.8789H184.422V62.377H186.127V67.5449C189.291 68.2744 192.868 69.3027 196.146 70.4453L195.619 71.9746ZM207.379 73.293C207.379 72.0449 207.309 71.043 207.168 70.252C204.689 71.3154 203.213 72.5195 203.213 73.5918C203.213 74.6465 204.602 75.2441 207.098 75.2441C208.504 75.2441 210.262 75.0508 212.143 74.6992L212.371 76.1055C210.701 76.4043 208.574 76.6152 207.08 76.6152C203.617 76.6152 201.561 75.5605 201.561 73.7324C201.561 72.0098 203.468 70.2871 206.729 68.916C206.298 68.1162 205.647 67.7734 204.725 67.7734C203.037 67.7734 201.719 68.8984 199.855 71.9395L198.502 71.1484C199.979 68.8193 201.007 67.0352 201.877 65.084H198.52V63.748H202.422C202.642 63.1768 202.861 62.5791 203.072 61.9375L204.707 62.2188C204.522 62.7461 204.329 63.2559 204.145 63.748H211.914V65.084H203.582C203.266 65.8047 202.923 66.499 202.562 67.1934C203.389 66.7363 204.285 66.5078 205.182 66.5078C206.641 66.5078 207.634 67.0703 208.24 68.3184C209.453 67.9053 210.798 67.5273 212.266 67.2109L212.494 68.5645C211.105 68.8809 209.822 69.25 208.697 69.6543C208.908 70.6123 209.014 71.8252 209.014 73.293H207.379ZM218.677 67.99V74.362H217.399V69.25H215.185V67.99H218.677ZM218.677 73.822C219.109 74.494 219.715 74.992 220.495 75.316C221.287 75.64 222.211 75.826 223.267 75.874C223.783 75.886 224.407 75.898 225.139 75.91C225.871 75.91 226.639 75.91 227.443 75.91C228.259 75.898 229.039 75.88 229.783 75.856C230.539 75.82 231.193 75.784 231.745 75.748C231.697 75.844 231.643 75.97 231.583 76.126C231.523 76.282 231.469 76.438 231.421 76.594C231.385 76.762 231.355 76.912 231.331 77.044C230.815 77.068 230.203 77.086 229.495 77.098C228.799 77.11 228.067 77.116 227.299 77.116C226.543 77.128 225.811 77.128 225.103 77.116C224.407 77.116 223.807 77.104 223.303 77.08C222.103 77.032 221.083 76.84 220.243 76.504C219.403 76.168 218.701 75.64 218.137 74.92C217.753 75.304 217.357 75.694 216.949 76.09C216.541 76.486 216.121 76.888 215.689 77.296L214.987 76C215.371 75.7 215.791 75.358 216.247 74.974C216.703 74.59 217.135 74.206 217.543 73.822H218.677ZM215.275 61.996L216.319 61.312C216.679 61.588 217.039 61.906 217.399 62.266C217.771 62.614 218.107 62.968 218.407 63.328C218.707 63.676 218.941 64.006 219.109 64.318L217.975 65.074C217.807 64.774 217.579 64.444 217.291 64.084C217.003 63.712 216.685 63.346 216.337 62.986C215.989 62.614 215.635 62.284 215.275 61.996ZM220.027 68.494H230.953V69.538H220.027V68.494ZM219.451 71.248H231.511V72.31H219.451V71.248ZM222.691 67.18H223.969V71.77H222.691V67.18ZM226.921 67.18H228.217V71.77H226.921V67.18ZM220.477 63.688H223.645V62.518H219.793V61.582H224.815V64.642H220.477V63.688ZM220.099 63.688H221.251V65.578C221.251 65.746 221.287 65.86 221.359 65.92C221.443 65.968 221.629 65.992 221.917 65.992C221.977 65.992 222.097 65.992 222.277 65.992C222.457 65.992 222.655 65.992 222.871 65.992C223.087 65.992 223.285 65.992 223.465 65.992C223.657 65.992 223.795 65.992 223.879 65.992C224.095 65.992 224.233 65.944 224.293 65.848C224.365 65.74 224.413 65.488 224.437 65.092C224.545 65.176 224.695 65.248 224.887 65.308C225.091 65.368 225.277 65.422 225.445 65.47C225.385 66.046 225.253 66.436 225.049 66.64C224.845 66.844 224.509 66.946 224.041 66.946C223.969 66.946 223.825 66.946 223.609 66.946C223.405 66.946 223.171 66.946 222.907 66.946C222.655 66.946 222.421 66.946 222.205 66.946C221.989 66.946 221.851 66.946 221.791 66.946C221.347 66.946 220.999 66.91 220.747 66.838C220.507 66.754 220.339 66.616 220.243 66.424C220.147 66.22 220.099 65.938 220.099 65.578V63.688ZM226.399 63.688H229.513V62.518H225.679V61.582H230.701V64.642H226.399V63.688ZM226.021 63.688H227.173V65.56C227.173 65.74 227.215 65.86 227.299 65.92C227.383 65.968 227.575 65.992 227.875 65.992C227.959 65.992 228.091 65.992 228.271 65.992C228.463 65.992 228.673 65.992 228.901 65.992C229.141 65.992 229.363 65.992 229.567 65.992C229.771 65.992 229.921 65.992 230.017 65.992C230.245 65.992 230.389 65.938 230.449 65.83C230.521 65.71 230.575 65.44 230.611 65.02C230.719 65.104 230.869 65.182 231.061 65.254C231.265 65.314 231.445 65.368 231.601 65.416C231.553 66.016 231.421 66.424 231.205 66.64C231.001 66.844 230.659 66.946 230.179 66.946C230.107 66.946 229.951 66.946 229.711 66.946C229.483 66.946 229.231 66.946 228.955 66.946C228.679 66.946 228.427 66.946 228.199 66.946C227.971 66.946 227.821 66.946 227.749 66.946C227.305 66.946 226.957 66.91 226.705 66.838C226.453 66.754 226.273 66.616 226.165 66.424C226.069 66.22 226.021 65.932 226.021 65.56V63.688ZM226.615 73.138L227.587 72.544C228.019 72.748 228.463 72.976 228.919 73.228C229.375 73.48 229.801 73.738 230.197 74.002C230.605 74.254 230.953 74.494 231.241 74.722L229.909 75.298C229.537 74.962 229.051 74.596 228.451 74.2C227.851 73.804 227.239 73.45 226.615 73.138ZM223.303 72.508L224.509 72.922C224.041 73.354 223.477 73.78 222.817 74.2C222.157 74.62 221.527 74.968 220.927 75.244C220.855 75.172 220.759 75.082 220.639 74.974C220.519 74.866 220.393 74.758 220.261 74.65C220.141 74.542 220.033 74.458 219.937 74.398C220.549 74.158 221.161 73.876 221.773 73.552C222.397 73.216 222.907 72.868 223.303 72.508ZM240.583 61.906H241.915V68.062C241.915 68.782 241.879 69.556 241.807 70.384C241.747 71.212 241.621 72.046 241.429 72.886C241.237 73.726 240.955 74.536 240.583 75.316C240.211 76.096 239.719 76.804 239.107 77.44C239.047 77.344 238.951 77.236 238.819 77.116C238.687 77.008 238.555 76.894 238.423 76.774C238.291 76.666 238.177 76.588 238.081 76.54C238.657 75.94 239.107 75.292 239.431 74.596C239.767 73.888 240.013 73.162 240.169 72.418C240.337 71.662 240.445 70.912 240.493 70.168C240.553 69.424 240.583 68.716 240.583 68.044V61.906ZM245.371 68.638C245.599 69.79 245.911 70.87 246.307 71.878C246.715 72.874 247.219 73.756 247.819 74.524C248.431 75.28 249.151 75.868 249.979 76.288C249.883 76.384 249.775 76.498 249.655 76.63C249.535 76.774 249.415 76.918 249.295 77.062C249.187 77.206 249.097 77.344 249.025 77.476C248.137 76.96 247.369 76.282 246.721 75.442C246.085 74.59 245.551 73.612 245.119 72.508C244.699 71.392 244.357 70.18 244.093 68.872L245.371 68.638ZM241.105 61.906H248.989V69.178H241.105V67.9H247.639V63.184H241.105V61.906ZM233.203 64.552H239.665V65.83H233.203V64.552ZM235.903 60.88H237.199V75.802C237.199 76.198 237.145 76.498 237.037 76.702C236.929 76.918 236.749 77.08 236.497 77.188C236.245 77.284 235.909 77.35 235.489 77.386C235.069 77.422 234.517 77.44 233.833 77.44C233.809 77.272 233.755 77.062 233.671 76.81C233.587 76.57 233.497 76.36 233.401 76.18C233.881 76.192 234.319 76.198 234.715 76.198C235.123 76.198 235.387 76.198 235.507 76.198C235.651 76.186 235.753 76.15 235.813 76.09C235.873 76.042 235.903 75.946 235.903 75.802V60.88ZM232.969 70.384C233.545 70.264 234.193 70.12 234.913 69.952C235.645 69.784 236.419 69.604 237.235 69.412C238.051 69.22 238.861 69.028 239.665 68.836L239.791 70.06C238.663 70.36 237.529 70.654 236.389 70.942C235.249 71.23 234.223 71.482 233.311 71.698L232.969 70.384ZM254.822 75.2266C257.45 75.0771 259.498 73.9082 260.061 72.291C259.428 72.7568 258.549 73.0469 257.582 73.0469C255.455 73.0469 254.066 71.7109 254.066 69.6543C254.066 67.5801 255.543 66.2441 257.758 66.2441C258.558 66.2441 259.234 66.4287 259.814 66.7891V65.3301H251.395V63.9941H259.814V61.9023H261.484V63.9941H266.23V65.3301H261.484V68.916C261.73 69.4609 261.836 70.041 261.836 70.7441C261.836 74.1719 259.252 76.4746 255.068 76.6855L254.822 75.2266ZM257.846 71.7109C259.041 71.7109 260.043 71.0254 260.043 69.6543C260.043 68.3887 259.199 67.5801 257.898 67.5801C256.58 67.5801 255.736 68.3711 255.736 69.6543C255.736 70.8848 256.562 71.7109 257.846 71.7109ZM275.266 76.668C271.979 76.668 270.098 75.6133 270.098 73.6973C270.098 72.0977 271.521 71.1309 273.895 71.1309C276.145 71.1309 277.305 71.9746 277.305 73.627C277.305 74.1279 277.208 74.6641 276.988 75.2617C279.493 74.9189 280.732 73.7939 280.732 71.9043C280.732 69.9004 279.309 68.9688 276.25 68.9688C274.58 68.9688 273.156 69.3027 271.961 70.0234L269.676 71.377L269.008 70.1289L278.447 64.6621H269.975V63.2383H281.33V64.6621L275.846 67.7734C276.303 67.7295 276.725 67.7031 277.094 67.7031C280.486 67.7031 282.42 69.1797 282.42 71.8164C282.42 74.9453 279.854 76.668 275.266 76.668ZM271.68 73.6797C271.68 74.7695 272.928 75.3848 275.09 75.3848H275.371C275.67 74.6729 275.793 74.1895 275.793 73.7852C275.793 72.8711 275.125 72.3965 273.771 72.3965C272.436 72.3965 271.68 72.8711 271.68 73.6797ZM296.975 76.5273C292.809 76.5273 290.629 75.2266 290.629 72.7656C290.629 71.0781 291.613 69.6543 293.758 68.3711C293.195 66.4023 292.8 64.5303 292.545 62.5879L294.232 62.3594C294.47 64.1436 294.812 65.8486 295.305 67.5625C297.01 66.7803 299.242 66.0332 302.02 65.3125L302.424 66.7891C295.41 68.6348 292.334 70.4277 292.334 72.6426C292.334 74.2246 293.898 75.0332 297.062 75.0332C298.574 75.0332 300.262 74.8398 302.635 74.4531L302.846 75.9297C300.771 76.2988 298.732 76.5273 296.975 76.5273ZM308.98 74.5586C316.609 73.7676 319.246 70.8496 319.299 63.291L320.916 63.3613C320.881 71.7285 317.646 75.2617 309.279 76.0879L308.98 74.5586ZM308.33 69.918C307.891 67.8438 307.346 65.875 306.766 64.1699L308.312 63.8008C308.875 65.4531 309.42 67.4395 309.895 69.584L308.33 69.918ZM313.146 69.5664C312.742 67.4395 312.197 65.3652 311.582 63.5723L313.129 63.2207C313.727 64.9961 314.307 67.123 314.711 69.2148L313.146 69.5664ZM324.168 70.4453V68.8281H337.246V70.4453H324.168ZM347.775 76.2461V62.7285H349.445V74.5586C351.959 74.1543 353.594 72.0537 354.051 68.5293L355.615 68.7578C355.035 73.4336 352.363 76.2461 348.479 76.2461H347.775ZM339.566 75.0508C342.238 73.873 342.889 72.4141 342.889 67.6328V62.7285H344.523V67.7559C344.523 73.0469 343.539 75.1035 340.41 76.4395L339.566 75.0508ZM370.469 76.1055C369.66 72.6777 368.781 69.8652 367.674 67.2285L369.256 66.6484C370.416 69.3027 371.33 72.1328 372.174 75.7012L370.469 76.1055ZM356.74 75.2617C358.779 71.623 359.975 67.791 360.449 63.6953L362.137 63.8008C361.732 68.1426 360.449 72.2383 358.322 76.0176L356.74 75.2617ZM367.938 65.875C367.375 64.627 366.848 63.7129 366.162 62.7988L367.305 62.1484C368.008 63.1152 368.535 64.0996 369.08 65.3125L367.938 65.875ZM370.275 64.9961C369.73 63.7305 369.221 62.8164 368.57 61.8848L369.678 61.2695C370.381 62.2715 370.908 63.2559 371.436 64.4863L370.275 64.9961ZM374.793 70.4453V68.8281H387.871V70.4453H374.793ZM399.648 73.293C399.648 72.0449 399.578 71.043 399.438 70.252C396.959 71.3154 395.482 72.5195 395.482 73.5918C395.482 74.6465 396.871 75.2441 399.367 75.2441C400.773 75.2441 402.531 75.0508 404.412 74.6992L404.641 76.1055C402.971 76.4043 400.844 76.6152 399.35 76.6152C395.887 76.6152 393.83 75.5605 393.83 73.7324C393.83 72.0098 395.737 70.2871 398.998 68.916C398.567 68.1162 397.917 67.7734 396.994 67.7734C395.307 67.7734 393.988 68.8984 392.125 71.9395L390.771 71.1484C392.248 68.8193 393.276 67.0352 394.146 65.084H390.789V63.748H394.691C394.911 63.1768 395.131 62.5791 395.342 61.9375L396.977 62.2188C396.792 62.7461 396.599 63.2559 396.414 63.748H404.184V65.084H395.852C395.535 65.8047 395.192 66.499 394.832 67.1934C395.658 66.7363 396.555 66.5078 397.451 66.5078C398.91 66.5078 399.903 67.0703 400.51 68.3184C401.723 67.9053 403.067 67.5273 404.535 67.2109L404.764 68.5645C403.375 68.8809 402.092 69.25 400.967 69.6543C401.178 70.6123 401.283 71.8252 401.283 73.293H399.648ZM412.423 62.878H423.961V64.12H412.423V62.878ZM414.205 67.018V69.718H422.071V67.018H414.205ZM412.945 65.884H423.367V70.87H412.945V65.884ZM414.079 71.23C414.643 72.178 415.411 72.994 416.383 73.678C417.367 74.362 418.513 74.92 419.821 75.352C421.141 75.784 422.581 76.084 424.141 76.252C424.045 76.348 423.943 76.468 423.835 76.612C423.727 76.756 423.631 76.9 423.547 77.044C423.463 77.2 423.391 77.344 423.331 77.476C421.735 77.236 420.271 76.864 418.939 76.36C417.607 75.868 416.437 75.232 415.429 74.452C414.421 73.66 413.593 72.712 412.945 71.608L414.079 71.23ZM417.427 60.952H418.741V68.908C418.741 69.604 418.705 70.294 418.633 70.978C418.561 71.662 418.411 72.322 418.183 72.958C417.955 73.594 417.613 74.194 417.157 74.758C416.701 75.322 416.101 75.838 415.357 76.306C414.625 76.774 413.701 77.17 412.585 77.494C412.525 77.398 412.447 77.278 412.351 77.134C412.255 77.002 412.159 76.864 412.063 76.72C411.967 76.576 411.865 76.462 411.757 76.378C412.837 76.102 413.725 75.766 414.421 75.37C415.117 74.974 415.663 74.53 416.059 74.038C416.467 73.534 416.767 73.006 416.959 72.454C417.151 71.89 417.277 71.308 417.337 70.708C417.397 70.108 417.427 69.508 417.427 68.908V60.952ZM411.649 60.844L412.909 61.24C412.501 62.248 412.021 63.244 411.469 64.228C410.929 65.212 410.341 66.136 409.705 67C409.081 67.864 408.439 68.632 407.779 69.304C407.731 69.196 407.659 69.058 407.563 68.89C407.479 68.722 407.389 68.554 407.293 68.386C407.197 68.218 407.107 68.08 407.023 67.972C407.623 67.396 408.211 66.73 408.787 65.974C409.363 65.206 409.897 64.39 410.389 63.526C410.881 62.65 411.301 61.756 411.649 60.844ZM409.759 65.542L411.019 64.264L411.055 64.282V77.512H409.759V65.542ZM133.528 84.14H145.174V85.436H133.528V84.14ZM133.528 88.334H145.138V89.612H133.528V88.334ZM133.42 92.636H145.174V93.914H133.42V92.636ZM132.754 84.14H134.086V90.674C134.086 91.358 134.056 92.09 133.996 92.87C133.936 93.65 133.822 94.442 133.654 95.246C133.498 96.038 133.252 96.8 132.916 97.532C132.592 98.264 132.16 98.93 131.62 99.53C131.56 99.434 131.464 99.326 131.332 99.206C131.2 99.098 131.068 98.99 130.936 98.882C130.804 98.774 130.684 98.696 130.576 98.648C131.08 98.084 131.476 97.472 131.764 96.812C132.052 96.152 132.268 95.474 132.412 94.778C132.556 94.07 132.646 93.368 132.682 92.672C132.73 91.976 132.754 91.31 132.754 90.674V84.14ZM144.634 84.14H145.966V97.604C145.966 98.036 145.9 98.366 145.768 98.594C145.648 98.822 145.438 98.996 145.138 99.116C144.838 99.224 144.418 99.29 143.878 99.314C143.338 99.338 142.642 99.344 141.79 99.332C141.754 99.164 141.688 98.948 141.592 98.684C141.508 98.432 141.418 98.216 141.322 98.036C141.742 98.048 142.144 98.054 142.528 98.054C142.924 98.066 143.266 98.066 143.554 98.054C143.842 98.054 144.04 98.054 144.148 98.054C144.328 98.042 144.454 98.006 144.526 97.946C144.598 97.886 144.634 97.772 144.634 97.604V84.14ZM138.406 84.626H139.774V99.278H138.406V84.626ZM156.121 98.5273C152.412 98.5273 150.742 96.8223 150.742 93.0078V84.7109H152.43V93.0078C152.43 95.7852 153.555 96.9805 156.121 96.9805C158.951 96.9805 160.639 95.5566 162.221 91.7949L163.75 92.4277C161.957 96.8398 159.848 98.5273 156.121 98.5273ZM176.512 98.2637C172.504 98.2637 169.938 96.0488 169.938 92.6211C169.938 90.2217 171.221 88.209 173.33 87.1367L166.105 87.3125V85.8359L180.238 85.502V86.9785L178.129 87.0312C174.42 87.1191 171.678 89.2637 171.678 92.4629C171.678 95.1172 173.523 96.7344 176.512 96.7344C177.18 96.7344 178.094 96.6641 178.674 96.5586L178.867 98.0703C178.217 98.1934 177.232 98.2637 176.512 98.2637ZM194.23 99.2656C190.715 96.6289 188.658 95.3809 186.461 94.0625C184.246 92.7441 183.824 92.3926 183.824 91.4609C183.824 90.4766 184.334 90.0898 186.584 88.8066C188.395 87.8047 190.926 86.3105 193.738 84.3242L194.705 85.6602C191.875 87.6113 188.764 89.334 187.498 90.0547C186.039 90.8633 185.688 91.0742 185.688 91.4609C185.688 91.8301 185.881 91.9531 187.287 92.7793C188.623 93.5352 191.998 95.5039 195.25 97.9297L194.23 99.2656ZM199.996 98.5801C201.068 95.1523 201.938 91.5488 202.58 87.875H199.75V86.416H202.826C202.94 85.6953 203.046 84.9658 203.143 84.2363L204.777 84.3242C204.689 85.0186 204.593 85.7129 204.496 86.416H210.438V87.875H204.268C203.626 91.5752 202.738 95.3281 201.631 98.8789L199.996 98.5801ZM210.332 98.5098C207.326 98.5098 205.393 97.4199 205.393 95.6973C205.393 94.7832 205.973 93.957 207.291 93.0254L208.539 93.8867C207.555 94.502 207.098 95.0293 207.098 95.5391C207.098 96.4004 208.398 97.0332 210.332 97.0332C211.369 97.0332 212.494 96.9102 213.707 96.6816L213.883 98.1582C212.652 98.4043 211.51 98.5098 210.332 98.5098ZM205.99 90.0723C208.609 89.8086 211.123 89.6504 213.654 89.6504V91.1094C211.158 91.1094 208.68 91.2324 206.096 91.5312L205.99 90.0723ZM211.668 87.7695C211.088 86.5215 210.561 85.6074 209.893 84.6934L211.018 84.0254C211.738 84.9922 212.266 85.9766 212.828 87.1895L211.668 87.7695ZM214.059 86.9961C213.514 85.7305 213.004 84.8164 212.371 83.8848L213.461 83.2695C214.164 84.2715 214.691 85.2559 215.219 86.4863L214.059 86.9961ZM224.711 98.4043C220.422 98.4043 217.68 96.8223 217.68 94.291C217.68 92.7793 218.717 91.3027 220.457 90.1777L221.793 90.9688C220.264 92.0059 219.42 93.166 219.42 94.2383C219.42 95.8906 221.354 96.875 224.676 96.875C226.346 96.875 228.227 96.6465 229.879 96.2246L230.107 97.7363C228.367 98.1582 226.398 98.4043 224.711 98.4043ZM217.117 88.1387V86.75L224.834 86.5391C224.729 85.8271 224.649 85.0889 224.605 84.3242L226.24 84.2363C226.293 85.0273 226.363 85.7832 226.469 86.5039L230.758 86.3984V87.8047L226.715 87.8926C227.119 89.9229 227.77 91.8125 228.754 93.8516L227.102 94.3086C226.135 92.2168 225.458 90.1602 225.045 87.9453L217.117 88.1387ZM237.824 98.0879C235.627 98.0879 233.904 94.9941 233.904 91.0215C233.904 89.4395 234.203 87.5762 234.748 85.625L236.383 85.8359C235.855 87.6289 235.574 89.3867 235.574 90.8633C235.574 93.7988 236.717 96.3301 237.947 96.3301C239.09 96.3301 240.918 94.2031 241.727 91.8652L243.203 92.6035C242.148 95.627 239.775 98.0879 237.824 98.0879ZM246.525 96.4707C246.525 92.6035 245.682 88.7012 244.258 85.8359L245.787 85.3613C247.334 88.332 248.178 92.3047 248.178 96.4707H246.525ZM260.412 90.8281V92.4453H254.77V90.8281H260.412ZM275.274 87.398V91.034H281.214V87.398H275.274ZM273.96 86.21H282.6V92.204H273.96V86.21ZM280.818 82.844L282.186 83.258C281.958 83.774 281.706 84.308 281.43 84.86C281.166 85.4 280.92 85.862 280.692 86.246L279.54 85.868C279.684 85.592 279.84 85.28 280.008 84.932C280.176 84.572 280.326 84.212 280.458 83.852C280.602 83.48 280.722 83.144 280.818 82.844ZM274.356 83.348L275.544 82.952C275.844 83.396 276.12 83.888 276.372 84.428C276.636 84.968 276.828 85.442 276.948 85.85L275.706 86.318C275.598 85.91 275.418 85.43 275.166 84.878C274.914 84.314 274.644 83.804 274.356 83.348ZM278.856 91.916H280.134V97.55C280.134 97.778 280.158 97.928 280.206 98C280.266 98.06 280.386 98.09 280.566 98.09C280.626 98.09 280.734 98.09 280.89 98.09C281.046 98.09 281.208 98.09 281.376 98.09C281.544 98.09 281.664 98.09 281.736 98.09C281.868 98.09 281.97 98.03 282.042 97.91C282.114 97.778 282.168 97.514 282.204 97.118C282.24 96.71 282.264 96.104 282.276 95.3C282.372 95.372 282.486 95.444 282.618 95.516C282.762 95.588 282.906 95.654 283.05 95.714C283.194 95.762 283.326 95.804 283.446 95.84C283.41 96.764 283.338 97.478 283.23 97.982C283.134 98.486 282.978 98.834 282.762 99.026C282.558 99.218 282.264 99.314 281.88 99.314C281.82 99.314 281.718 99.314 281.574 99.314C281.442 99.314 281.292 99.314 281.124 99.314C280.968 99.314 280.818 99.314 280.674 99.314C280.542 99.314 280.446 99.314 280.386 99.314C279.966 99.314 279.648 99.26 279.432 99.152C279.216 99.044 279.066 98.864 278.982 98.612C278.898 98.36 278.856 98.012 278.856 97.568V91.916ZM275.904 91.952H277.254C277.194 92.78 277.098 93.572 276.966 94.328C276.834 95.072 276.636 95.768 276.372 96.416C276.108 97.052 275.742 97.634 275.274 98.162C274.818 98.69 274.23 99.152 273.51 99.548C273.462 99.428 273.384 99.302 273.276 99.17C273.18 99.038 273.072 98.906 272.952 98.774C272.844 98.654 272.736 98.558 272.628 98.486C273.48 98.054 274.134 97.508 274.59 96.848C275.046 96.188 275.364 95.444 275.544 94.616C275.724 93.788 275.844 92.9 275.904 91.952ZM267.48 88.424H272.556V89.504H267.48V88.424ZM267.588 83.51H272.538V84.59H267.588V83.51ZM267.48 90.89H272.556V91.952H267.48V90.89ZM266.616 85.922H273.168V87.038H266.616V85.922ZM268.11 93.356H272.664V98.594H268.11V97.496H271.458V94.472H268.11V93.356ZM267.444 93.356H268.632V99.422H267.444V93.356ZM286.128 83.978H291.276V94.724H286.128V93.464H290.016V85.22H286.128V83.978ZM286.128 88.658H290.574V89.882H286.128V88.658ZM293.742 83.654H299.808V84.914H293.742V83.654ZM293.742 88.028H299.808V89.252H293.742V88.028ZM293.616 92.438H299.772V93.662H293.616V92.438ZM285.372 83.978H286.65V96.416H285.372V83.978ZM299.304 83.654H300.636V97.658C300.636 98.078 300.576 98.402 300.456 98.63C300.348 98.87 300.15 99.044 299.862 99.152C299.562 99.26 299.16 99.326 298.656 99.35C298.152 99.386 297.51 99.404 296.73 99.404C296.718 99.284 296.682 99.14 296.622 98.972C296.574 98.816 296.514 98.654 296.442 98.486C296.382 98.33 296.316 98.192 296.244 98.072C296.64 98.084 297.012 98.09 297.36 98.09C297.72 98.102 298.032 98.102 298.296 98.09C298.572 98.09 298.758 98.09 298.854 98.09C299.022 98.09 299.136 98.06 299.196 98C299.268 97.928 299.304 97.814 299.304 97.658V83.654ZM292.95 83.654H294.264V90.08C294.264 90.836 294.222 91.64 294.138 92.492C294.054 93.332 293.886 94.178 293.634 95.03C293.394 95.87 293.028 96.68 292.536 97.46C292.044 98.24 291.39 98.942 290.574 99.566C290.514 99.47 290.424 99.362 290.304 99.242C290.184 99.122 290.058 99.002 289.926 98.882C289.794 98.774 289.68 98.69 289.584 98.63C290.352 98.054 290.958 97.418 291.402 96.722C291.846 96.014 292.182 95.282 292.41 94.526C292.638 93.77 292.782 93.014 292.842 92.258C292.914 91.502 292.95 90.77 292.95 90.062V83.654ZM306.607 98.9844C305.553 97.6133 304.41 96.418 303.004 95.3984L304.129 94.2559C305.518 95.3281 306.783 96.5938 307.855 98.0176L306.607 98.9844ZM333.256 97.9473C332.131 93.0957 330.865 89.5273 328.949 85.8711L330.531 85.291C332.465 88.9473 333.748 92.498 334.961 97.5254L333.256 97.9473ZM319.527 97.0859C321.566 93.4473 322.762 89.6152 323.236 85.5195L324.924 85.625C324.52 89.9668 323.236 94.0625 321.109 97.8418L319.527 97.0859ZM336.895 91.1797C341.57 90.5117 347.283 87.5586 350.184 84.2539L351.309 85.3613C349.955 86.8818 348.03 88.3408 345.877 89.5625V98.8789H344.119V90.4766C341.816 91.5928 339.373 92.3926 337.141 92.709L336.895 91.1797ZM356.072 96.8926C362.409 96.5938 365.617 94.7217 366.021 91.1094H354.104V89.6152H367.727V90.3184C367.727 95.293 363.824 98.0352 356.318 98.4043L356.072 96.8926ZM355.281 86.75V85.291H366.707V86.75H355.281ZM370.645 91.1797C375.32 90.5117 381.033 87.5586 383.934 84.2539L385.059 85.3613C383.705 86.8818 381.78 88.3408 379.627 89.5625V98.8789H377.869V90.4766C375.566 91.5928 373.123 92.3926 370.891 92.709L370.645 91.1797ZM401.301 93.9746C398.04 92.8584 394.744 91.9004 391.809 91.2148V98.8789H390.104V84.377H391.809V89.5449C394.973 90.2744 398.55 91.3027 401.828 92.4453L401.301 93.9746ZM407.857 98.9844C406.803 97.6133 405.66 96.418 404.254 95.3984L405.379 94.2559C406.768 95.3281 408.033 96.5938 409.105 98.0176L407.857 98.9844ZM130.882 109.2H138.694V110.262H130.882V109.2ZM132.124 116.778H137.722V117.75H132.124V116.778ZM132.124 119.316H137.686V120.396H132.124V119.316ZM134.482 106.194H135.634V113.916H134.482V106.194ZM134.554 114.852H135.544V119.892H134.554V114.852ZM137.884 105.006L138.622 105.942C137.986 106.086 137.248 106.218 136.408 106.338C135.58 106.458 134.722 106.56 133.834 106.644C132.958 106.716 132.118 106.77 131.314 106.806C131.29 106.662 131.248 106.506 131.188 106.338C131.128 106.158 131.062 106.002 130.99 105.87C131.782 105.81 132.604 105.738 133.456 105.654C134.32 105.57 135.136 105.474 135.904 105.366C136.684 105.258 137.344 105.138 137.884 105.006ZM135.508 110.064C135.664 110.16 135.904 110.322 136.228 110.55C136.564 110.766 136.918 111.006 137.29 111.27C137.662 111.534 138.004 111.78 138.316 112.008C138.628 112.236 138.844 112.404 138.964 112.512L138.28 113.574C138.124 113.406 137.896 113.19 137.596 112.926C137.308 112.65 136.99 112.368 136.642 112.08C136.294 111.78 135.964 111.504 135.652 111.252C135.352 111 135.1 110.808 134.896 110.676L135.508 110.064ZM131.8 107.22L132.718 106.986C132.862 107.286 133.006 107.622 133.15 107.994C133.294 108.354 133.402 108.654 133.474 108.894L132.52 109.2C132.448 108.948 132.34 108.636 132.196 108.264C132.064 107.88 131.932 107.532 131.8 107.22ZM137.236 106.734L138.28 107.076C138.076 107.532 137.866 107.994 137.65 108.462C137.434 108.918 137.23 109.314 137.038 109.65L136.156 109.344C136.288 109.104 136.42 108.834 136.552 108.534C136.684 108.222 136.81 107.91 136.93 107.598C137.062 107.274 137.164 106.986 137.236 106.734ZM134.338 109.776L135.148 110.226C134.848 110.754 134.482 111.294 134.05 111.846C133.618 112.398 133.156 112.914 132.664 113.394C132.172 113.874 131.692 114.27 131.224 114.582C131.164 114.414 131.08 114.216 130.972 113.988C130.864 113.748 130.756 113.556 130.648 113.412C131.08 113.148 131.53 112.818 131.998 112.422C132.466 112.026 132.904 111.6 133.312 111.144C133.732 110.676 134.074 110.22 134.338 109.776ZM131.512 114.24H138.46V121.206H137.362V115.302H132.574V121.422H131.512V114.24ZM139.216 105.726H142.312V106.878H139.216V105.726ZM141.646 105.726H142.762V119.892C142.762 120.216 142.72 120.474 142.636 120.666C142.564 120.87 142.426 121.026 142.222 121.134C142.018 121.23 141.748 121.29 141.412 121.314C141.088 121.338 140.68 121.35 140.188 121.35C140.176 121.194 140.134 120.996 140.062 120.756C139.99 120.528 139.912 120.336 139.828 120.18C140.176 120.192 140.494 120.198 140.782 120.198C141.07 120.198 141.268 120.192 141.376 120.18C141.472 120.18 141.538 120.162 141.574 120.126C141.622 120.09 141.646 120.012 141.646 119.892V105.726ZM143.194 105.744H146.038V106.896H143.194V105.744ZM145.606 105.744H146.776V119.874C146.776 120.222 146.734 120.492 146.65 120.684C146.566 120.888 146.416 121.044 146.2 121.152C145.984 121.248 145.708 121.308 145.372 121.332C145.036 121.368 144.622 121.386 144.13 121.386C144.106 121.218 144.052 121.008 143.968 120.756C143.884 120.516 143.8 120.318 143.716 120.162C144.076 120.174 144.406 120.18 144.706 120.18C145.018 120.18 145.222 120.18 145.318 120.18C145.426 120.18 145.498 120.156 145.534 120.108C145.582 120.06 145.606 119.976 145.606 119.856V105.744ZM139.18 108.93L140.08 108.66C140.248 109.032 140.416 109.44 140.584 109.884C140.752 110.316 140.902 110.736 141.034 111.144C141.166 111.54 141.262 111.888 141.322 112.188L140.368 112.53C140.308 112.23 140.212 111.87 140.08 111.45C139.96 111.03 139.822 110.598 139.666 110.154C139.51 109.71 139.348 109.302 139.18 108.93ZM143.212 108.876L144.112 108.66C144.292 109.032 144.46 109.434 144.616 109.866C144.784 110.286 144.934 110.694 145.066 111.09C145.198 111.486 145.294 111.834 145.354 112.134L144.382 112.422C144.322 112.122 144.232 111.768 144.112 111.36C143.992 110.952 143.848 110.532 143.68 110.1C143.524 109.656 143.368 109.248 143.212 108.876ZM142.996 116.22C143.368 115.86 143.812 115.404 144.328 114.852C144.844 114.3 145.372 113.724 145.912 113.124L146.47 114.024C146.002 114.552 145.522 115.086 145.03 115.626C144.55 116.166 144.088 116.676 143.644 117.156L142.996 116.22ZM138.874 116.418C139.246 116.022 139.714 115.524 140.278 114.924C140.854 114.312 141.43 113.682 142.006 113.034L142.546 113.934C142.054 114.522 141.538 115.116 140.998 115.716C140.47 116.316 139.972 116.862 139.504 117.354L138.874 116.418ZM157.306 105.69H164.524V112.872H157.306V111.612H163.174V106.968H157.306V105.69ZM156.586 105.69H157.9V112.242C157.9 112.95 157.87 113.712 157.81 114.528C157.762 115.332 157.654 116.148 157.486 116.976C157.33 117.804 157.096 118.602 156.784 119.37C156.484 120.138 156.076 120.834 155.56 121.458C155.488 121.374 155.386 121.272 155.254 121.152C155.134 121.032 155.002 120.918 154.858 120.81C154.726 120.714 154.612 120.636 154.516 120.576C154.996 119.988 155.374 119.352 155.65 118.668C155.926 117.972 156.13 117.258 156.262 116.526C156.394 115.782 156.478 115.044 156.514 114.312C156.562 113.58 156.586 112.89 156.586 112.242V105.69ZM161.446 112.314C161.614 113.514 161.848 114.588 162.148 115.536C162.448 116.484 162.862 117.348 163.39 118.128C163.93 118.896 164.626 119.628 165.478 120.324C165.31 120.468 165.136 120.642 164.956 120.846C164.788 121.062 164.656 121.272 164.56 121.476C163.6 120.672 162.832 119.826 162.256 118.938C161.68 118.05 161.23 117.078 160.906 116.022C160.594 114.966 160.348 113.784 160.168 112.476L161.446 112.314ZM149.53 110.334H154.804V111.396H149.53V110.334ZM149.602 105.51H154.732V106.59H149.602V105.51ZM149.53 112.728H154.804V113.808H149.53V112.728ZM148.684 107.868H155.398V109.002H148.684V107.868ZM150.142 115.158H154.822V120.414H150.142V119.298H153.634V116.292H150.142V115.158ZM149.512 115.158H150.7V121.242H149.512V115.158ZM170.676 120.984C169.621 119.613 168.479 118.418 167.072 117.398L168.197 116.256C169.586 117.328 170.852 118.594 171.924 120.018L170.676 120.984ZM195.988 120.51V119.332H184.668V117.855H195.988V108.891H184.668V107.414H197.693V120.51H195.988ZM200.717 119.033C203.828 117.829 206.386 116.045 208.328 113.742C206.632 112.485 204.821 111.396 202.721 110.367L203.723 109.049C205.788 110.06 207.625 111.158 209.33 112.406C210.49 110.71 211.36 108.785 211.914 106.641L213.549 107.062C213.013 109.374 212.028 111.536 210.684 113.443C212.195 114.7 213.61 116.098 215.008 117.697L213.83 118.928C212.433 117.346 211.07 115.992 209.646 114.797C207.537 117.275 204.769 119.235 201.578 120.422L200.717 119.033ZM219.104 118.611C225.871 117.979 229.545 114.902 230.74 108.961L232.287 109.295C231.092 115.939 226.803 119.561 219.367 120.211L219.104 118.611ZM224.096 111.352C222.285 110.209 220.457 109.26 218.594 108.504L219.35 107.045C221.266 107.801 223.076 108.75 224.922 109.91L224.096 111.352ZM248.494 115.975C245.233 114.858 241.938 113.9 239.002 113.215V120.879H237.297V106.377H239.002V111.545C242.166 112.274 245.743 113.303 249.021 114.445L248.494 115.975ZM255.051 120.984C253.996 119.613 252.854 118.418 251.447 117.398L252.572 116.256C253.961 117.328 255.227 118.594 256.299 120.018L255.051 120.984ZM273.385 120.51C270.801 120.51 269.359 119.473 269.359 117.609C269.359 115.729 270.783 114.727 273.385 114.727C274.272 114.727 275.125 114.841 275.986 115.096V112.793H269.219V111.404H275.986V109.33H269.043V107.924H275.986V106.096H277.551V107.924H282.332V109.33H277.551V111.404H282.156V112.793H277.551V115.711C278.983 116.405 280.504 117.504 282.297 119.086L281.26 120.141C279.827 118.901 278.614 117.987 277.533 117.328C277.313 119.473 275.96 120.51 273.385 120.51ZM270.994 117.574C270.994 118.576 271.803 119.104 273.35 119.104C275.178 119.104 275.986 118.365 275.986 116.73V116.572C275.09 116.238 274.255 116.08 273.385 116.08C271.785 116.08 270.994 116.572 270.994 117.574ZM285.672 120.404C286.744 116.985 287.614 113.373 288.273 109.699H285.408V108.258H288.502C288.616 107.528 288.722 106.808 288.818 106.078L290.453 106.148C290.365 106.852 290.269 107.555 290.172 108.258H297.186V109.699H289.943C289.302 113.408 288.414 117.161 287.307 120.703L285.672 120.404ZM296.008 120.334C293.002 120.334 291.051 119.244 291.051 117.521C291.051 116.607 291.648 115.799 292.949 114.867L294.197 115.711C293.23 116.326 292.773 116.871 292.773 117.363C292.773 118.242 294.057 118.857 296.008 118.857C297.045 118.857 298.17 118.752 299.365 118.523L299.559 120C298.328 120.246 297.186 120.334 296.008 120.334ZM291.666 111.914C294.285 111.633 296.799 111.492 299.33 111.492V112.934C296.834 112.934 294.355 113.057 291.754 113.355L291.666 111.914ZM310.105 120.264C307.715 120.264 306.344 119.174 306.344 117.275C306.344 115.377 307.697 114.287 310.105 114.287C310.853 114.287 311.521 114.393 312.215 114.656V110.438H306.309V109.031H312.215V106.289H313.814V109.031H317.014V110.438H313.814V115.553C314.746 116.229 315.827 117.196 317.225 118.576L316.223 119.666C315.256 118.699 314.465 117.952 313.779 117.381C313.56 119.323 312.338 120.264 310.105 120.264ZM303.285 120.58C302.723 118.295 302.459 116.15 302.459 113.637C302.459 111.141 302.723 108.996 303.285 106.693L304.938 106.904C304.375 109.119 304.138 111.246 304.129 113.637C304.138 116.027 304.375 118.172 304.938 120.334L303.285 120.58ZM307.838 117.275C307.838 118.312 308.559 118.857 310.018 118.857C311.6 118.857 312.215 118.242 312.215 116.643V116.256C311.441 115.843 310.773 115.693 310.018 115.693C308.559 115.693 307.838 116.238 307.838 117.275ZM320.266 120H318.209L322.779 107.273H325.012L329.6 120H327.543L326.383 116.643H321.426L320.266 120ZM321.988 115.025H325.82L323.939 109.594H323.852L321.988 115.025ZM333.15 107.273V120H331.217V107.273H333.15ZM342.889 120.527C338.723 120.527 336.543 119.227 336.543 116.766C336.543 115.078 337.527 113.654 339.672 112.371C339.109 110.402 338.714 108.53 338.459 106.588L340.146 106.359C340.384 108.144 340.727 109.849 341.219 111.562C342.924 110.78 345.156 110.033 347.934 109.312L348.338 110.789C341.324 112.635 338.248 114.428 338.248 116.643C338.248 118.225 339.812 119.033 342.977 119.033C344.488 119.033 346.176 118.84 348.549 118.453L348.76 119.93C346.686 120.299 344.646 120.527 342.889 120.527ZM354.209 119.139C358.111 118.857 359.465 117.724 359.693 114.129H352.328V112.635H359.729V109.119C357.769 109.33 355.703 109.453 353.734 109.453V107.977C357.602 107.977 362.646 107.361 365.617 106.518L366.057 107.977C364.765 108.346 363.147 108.671 361.381 108.908V112.635H367.164V114.129H361.346C361.073 118.559 359.219 120.281 354.561 120.633L354.209 119.139ZM370.609 114.428L370.311 112.934L373.756 112.266L373.246 109.488L374.863 109.207L375.373 111.949L382.475 110.561L382.773 112.055C382.721 114.234 381.244 116.555 379.311 117.469L378.326 116.291C379.829 115.553 380.972 113.927 381.174 112.354L375.654 113.443L376.938 120.492L375.32 120.791L374.037 113.76L370.609 114.428ZM389.594 118.682C395.553 118.049 397.574 115.816 397.627 109.91L399.174 109.963C399.121 116.643 396.555 119.49 389.857 120.158L389.594 118.682ZM389.102 115.201C388.732 113.549 388.311 111.967 387.836 110.613L389.33 110.227C389.77 111.51 390.191 113.074 390.578 114.885L389.102 115.201ZM392.951 114.92C392.617 113.232 392.195 111.562 391.686 110.139L393.18 109.77C393.654 111.264 394.111 112.951 394.445 114.604L392.951 114.92ZM416.928 115.975C413.667 114.858 410.371 113.9 407.436 113.215V120.879H405.73V106.377H407.436V111.545C410.6 112.274 414.177 113.303 417.455 114.445L416.928 115.975ZM134.447 141.227C137.075 141.077 139.123 139.908 139.686 138.291C139.053 138.757 138.174 139.047 137.207 139.047C135.08 139.047 133.691 137.711 133.691 135.654C133.691 133.58 135.168 132.244 137.383 132.244C138.183 132.244 138.859 132.429 139.439 132.789V131.33H131.02V129.994H139.439V127.902H141.109V129.994H145.855V131.33H141.109V134.916C141.355 135.461 141.461 136.041 141.461 136.744C141.461 140.172 138.877 142.475 134.693 142.686L134.447 141.227ZM137.471 137.711C138.666 137.711 139.668 137.025 139.668 135.654C139.668 134.389 138.824 133.58 137.523 133.58C136.205 133.58 135.361 134.371 135.361 135.654C135.361 136.885 136.188 137.711 137.471 137.711ZM154.891 142.668C151.604 142.668 149.723 141.613 149.723 139.697C149.723 138.098 151.146 137.131 153.52 137.131C155.77 137.131 156.93 137.975 156.93 139.627C156.93 140.128 156.833 140.664 156.613 141.262C159.118 140.919 160.357 139.794 160.357 137.904C160.357 135.9 158.934 134.969 155.875 134.969C154.205 134.969 152.781 135.303 151.586 136.023L149.301 137.377L148.633 136.129L158.072 130.662H149.6V129.238H160.955V130.662L155.471 133.773C155.928 133.729 156.35 133.703 156.719 133.703C160.111 133.703 162.045 135.18 162.045 137.816C162.045 140.945 159.479 142.668 154.891 142.668ZM151.305 139.68C151.305 140.77 152.553 141.385 154.715 141.385H154.996C155.295 140.673 155.418 140.189 155.418 139.785C155.418 138.871 154.75 138.396 153.396 138.396C152.061 138.396 151.305 138.871 151.305 139.68ZM172.363 142.246C168.461 142.246 165.895 140.857 165.895 138.748C165.895 137.588 166.65 136.234 168.232 134.582L169.656 135.32C168.303 136.691 167.6 137.799 167.6 138.59C167.6 139.891 169.498 140.77 172.363 140.77C174.121 140.77 176.494 140.453 177.936 140.014L178.27 141.49C176.846 141.93 174.297 142.246 172.363 142.246ZM166.738 130.979V129.484H177.812V130.979H166.738ZM189.08 142.527C184.914 142.527 182.734 141.227 182.734 138.766C182.734 137.078 183.719 135.654 185.863 134.371C185.301 132.402 184.905 130.53 184.65 128.588L186.338 128.359C186.575 130.144 186.918 131.849 187.41 133.562C189.115 132.78 191.348 132.033 194.125 131.312L194.529 132.789C187.516 134.635 184.439 136.428 184.439 138.643C184.439 140.225 186.004 141.033 189.168 141.033C190.68 141.033 192.367 140.84 194.74 140.453L194.951 141.93C192.877 142.299 190.838 142.527 189.08 142.527ZM198.537 142.035C200.075 138.3 200.989 135.681 201.736 132.332H198.291V130.891H202.053C202.22 130.012 202.396 129.08 202.562 128.061L204.18 128.254C204.021 129.186 203.863 130.056 203.705 130.891H205.27C209.014 130.891 209.418 131.365 209.418 135.654C209.418 139.943 208.416 142.158 206.395 142.158C205.551 142.158 203.846 141.754 202.545 141.279L202.932 139.873C204.039 140.295 205.41 140.629 205.955 140.629C207.133 140.629 207.783 138.924 207.783 135.461C207.783 132.684 207.537 132.332 205.428 132.332H203.406C202.615 135.812 201.64 138.713 200.049 142.545L198.537 142.035ZM212.301 139.855C211.984 137.816 211.299 135.232 210.508 133.053L212.037 132.578C212.828 134.811 213.531 137.43 213.883 139.592L212.301 139.855ZM210.455 132.051C209.875 130.82 209.33 129.924 208.662 128.992L209.77 128.342C210.508 129.291 211.035 130.275 211.615 131.488L210.455 132.051ZM212.775 131.137C212.213 129.889 211.686 128.975 211.035 128.061L212.125 127.445C212.863 128.43 213.391 129.414 213.936 130.609L212.775 131.137ZM225.326 142.439C221.336 142.439 218.752 140.154 218.752 136.621C218.752 134.143 220.053 132.095 222.145 130.979L214.938 131.154V129.678L229.07 129.344V130.803L226.943 130.855C223.182 130.961 220.51 133.193 220.51 136.463C220.51 139.188 222.355 140.893 225.344 140.893C225.941 140.893 226.926 140.84 227.506 140.734L227.699 142.246C227.031 142.369 226.029 142.439 225.326 142.439ZM227.383 137.324C226.855 136.182 226.293 135.18 225.537 134.072L226.715 133.404C227.488 134.529 228.051 135.531 228.596 136.744L227.383 137.324ZM229.949 136.357C229.457 135.197 228.912 134.178 228.156 133.088L229.352 132.455C230.09 133.58 230.652 134.6 231.162 135.812L229.949 136.357ZM240.496 142.51C236.418 142.51 233.852 141.297 233.852 139.311C233.834 138.186 234.678 137.078 236.137 136.428L237.244 137.342C236.137 137.869 235.574 138.502 235.609 139.188C235.645 140.383 237.385 141.068 240.373 141.068C242.043 141.068 243.959 140.857 245.471 140.488L245.717 141.93C244.135 142.299 242.254 142.51 240.496 142.51ZM233.043 135.338V133.984L240.584 133.773C240.391 133.018 240.241 132.235 240.127 131.436L233.219 131.629V130.24L239.934 130.064C239.863 129.396 239.802 128.711 239.758 128.008L241.41 127.902C241.445 128.632 241.507 129.344 241.586 130.012L246.156 129.906V131.277L241.779 131.4C241.902 132.191 242.069 132.974 242.271 133.738L246.332 133.633V135.004L242.641 135.092C243.001 136.261 243.44 137.421 243.977 138.643L242.307 139.029C241.753 137.729 241.296 136.445 240.936 135.127L233.043 135.338ZM254.26 142.51C251.676 142.51 250.234 141.473 250.234 139.609C250.234 137.729 251.658 136.727 254.26 136.727C255.147 136.727 256 136.841 256.861 137.096V134.793H250.094V133.404H256.861V131.33H249.918V129.924H256.861V128.096H258.426V129.924H263.207V131.33H258.426V133.404H263.031V134.793H258.426V137.711C259.858 138.405 261.379 139.504 263.172 141.086L262.135 142.141C260.702 140.901 259.489 139.987 258.408 139.328C258.188 141.473 256.835 142.51 254.26 142.51ZM251.869 139.574C251.869 140.576 252.678 141.104 254.225 141.104C256.053 141.104 256.861 140.365 256.861 138.73V138.572C255.965 138.238 255.13 138.08 254.26 138.08C252.66 138.08 251.869 138.572 251.869 139.574ZM269.447 141.227C272.075 141.077 274.123 139.908 274.686 138.291C274.053 138.757 273.174 139.047 272.207 139.047C270.08 139.047 268.691 137.711 268.691 135.654C268.691 133.58 270.168 132.244 272.383 132.244C273.183 132.244 273.859 132.429 274.439 132.789V131.33H266.02V129.994H274.439V127.902H276.109V129.994H280.855V131.33H276.109V134.916C276.355 135.461 276.461 136.041 276.461 136.744C276.461 140.172 273.877 142.475 269.693 142.686L269.447 141.227ZM272.471 137.711C273.666 137.711 274.668 137.025 274.668 135.654C274.668 134.389 273.824 133.58 272.523 133.58C271.205 133.58 270.361 134.371 270.361 135.654C270.361 136.885 271.188 137.711 272.471 137.711ZM285.654 143.107C283.949 143.107 282.824 141.982 282.824 140.295C282.824 138.607 283.949 137.465 285.654 137.465C287.342 137.465 288.467 138.607 288.467 140.295C288.467 141.982 287.342 143.107 285.654 143.107ZM285.654 141.824C286.568 141.824 287.166 141.209 287.166 140.295C287.166 139.381 286.568 138.766 285.654 138.766C284.74 138.766 284.107 139.381 284.107 140.295C284.107 141.209 284.74 141.824 285.654 141.824Z" fill="#605070"/>
<g style="mix-blend-mode:multiply">
<rect x="127" y="58" width="157" height="24" fill="#AEB2FF" fill-opacity="0.47"/>
</g>
<circle cx="127.5" cy="53.5" r="3.5" fill="#0000FF"/>
<circle cx="284.5" cy="81.5" r="3.5" fill="#0000FF"/>
</svg>
