<svg width="480" height="200" viewBox="0 0 480 200" fill="none" xmlns="http://www.w3.org/2000/svg">
<mask id="path-1-inside-1_636_342" fill="white">
<path fill-rule="evenodd" clip-rule="evenodd" d="M32 0C14.3269 0 0 14.3269 0 32V108C0 125.673 14.3269 140 32 140H399.212L448.951 187.705C452.564 191.17 458.462 187.765 457.267 182.904L446.726 140H448C465.673 140 480 125.673 480 108V32C480 14.3269 465.673 0 448 0H32Z"/>
</mask>
<path fill-rule="evenodd" clip-rule="evenodd" d="M32 0C14.3269 0 0 14.3269 0 32V108C0 125.673 14.3269 140 32 140H399.212L448.951 187.705C452.564 191.17 458.462 187.765 457.267 182.904L446.726 140H448C465.673 140 480 125.673 480 108V32C480 14.3269 465.673 0 448 0H32Z" fill="#F6EEFF"/>
<path d="M399.212 140L403.365 135.67L401.624 134H399.212V140ZM448.951 187.705L453.104 183.375L453.104 183.375L448.951 187.705ZM457.267 182.904L451.441 184.335L451.441 184.335L457.267 182.904ZM446.726 140V134H439.073L440.899 141.432L446.726 140ZM6 32C6 17.6406 17.6406 6 32 6V-6C11.0132 -6 -6 11.0132 -6 32H6ZM6 108V32H-6V108H6ZM32 134C17.6406 134 6 122.359 6 108H-6C-6 128.987 11.0132 146 32 146V134ZM399.212 134H32V146H399.212V134ZM395.058 144.33L444.798 192.036L453.104 183.375L403.365 135.67L395.058 144.33ZM444.798 192.036C452.746 199.659 465.722 192.167 463.094 181.472L451.441 184.335C451.413 184.221 451.406 183.948 451.54 183.661C451.651 183.421 451.802 183.294 451.912 183.231C452.022 183.167 452.207 183.101 452.47 183.124C452.786 183.152 453.019 183.294 453.104 183.375L444.798 192.036ZM463.094 181.472L452.553 138.568L440.899 141.432L451.441 184.335L463.094 181.472ZM448 134H446.726V146H448V134ZM474 108C474 122.359 462.359 134 448 134V146C468.987 146 486 128.987 486 108H474ZM474 32V108H486V32H474ZM448 6C462.359 6 474 17.6406 474 32H486C486 11.0132 468.987 -6 448 -6V6ZM32 6H448V-6H32V6Z" fill="#605070" mask="url(#path-1-inside-1_636_342)"/>
<rect x="30" y="30" width="80" height="80" rx="15" fill="#605070"/>
<path d="M51.4712 63.3915H88.53M51.4712 76.6268H88.53M68.8978 50.1562C65.1817 56.1113 63.2115 62.9898 63.2115 70.0092C63.2115 77.0286 65.1817 83.9071 68.8978 89.8621M71.1033 50.1562C74.8195 56.1113 76.7897 62.9898 76.7897 70.0092C76.7897 77.0286 74.8195 83.9071 71.1033 89.8621M50.1475 70.0092C50.1475 72.6163 50.661 75.1979 51.6587 77.6066C52.6564 80.0153 54.1187 82.2038 55.9623 84.0473C57.8058 85.8909 59.9943 87.3532 62.403 88.3509C64.8117 89.3486 67.3933 89.8621 70.0004 89.8621C72.6075 89.8621 75.1891 89.3486 77.5978 88.3509C80.0065 87.3532 82.195 85.8909 84.0386 84.0473C85.8821 82.2038 87.3444 80.0153 88.3421 77.6066C89.3398 75.1979 89.8533 72.6163 89.8533 70.0092C89.8533 64.7439 87.7617 59.6942 84.0386 55.971C80.3154 52.2479 75.2657 50.1562 70.0004 50.1562C64.7351 50.1562 59.6854 52.2479 55.9623 55.971C52.2391 59.6942 50.1475 64.7439 50.1475 70.0092Z" stroke="white" stroke-width="3.6" stroke-linecap="round" stroke-linejoin="round"/>
<path d="M138.391 32.9375V50H134.676V32.9375H138.391ZM142.574 32.9375V35.9609H130.586V32.9375H142.574ZM144.449 32.9375H150.109C151.25 32.9375 152.23 33.1328 153.051 33.5234C153.871 33.9141 154.5 34.4922 154.938 35.2578C155.383 36.0234 155.605 36.9688 155.605 38.0938C155.605 39.0469 155.48 39.8516 155.23 40.5078C154.98 41.1562 154.629 41.6953 154.176 42.125C153.723 42.5547 153.188 42.9023 152.57 43.168L151.387 43.8594H146.875L146.863 40.8477H150.016C150.438 40.8477 150.785 40.75 151.059 40.5547C151.332 40.3594 151.535 40.082 151.668 39.7227C151.809 39.3555 151.879 38.9219 151.879 38.4219C151.879 37.9062 151.812 37.4648 151.68 37.0977C151.555 36.7305 151.363 36.4492 151.105 36.2539C150.855 36.0586 150.523 35.9609 150.109 35.9609H148.176V50H144.449V32.9375ZM152.113 50L149.031 42.418L152.945 42.4062L156.098 49.8242V50H152.113ZM164.207 36.2539L160.785 50H156.812L162.121 32.9375H164.594L164.207 36.2539ZM166.902 50L163.469 36.2539L163.023 32.9375H165.543L170.875 50H166.902ZM167.031 43.6367V46.6484H159.473V43.6367H167.031ZM184.434 32.9375V50H180.789L175.961 39.3828V50H172.328V32.9375H175.973L180.812 43.6133V32.9375H184.434ZM194.172 45.4883C194.172 45.1992 194.145 44.9414 194.09 44.7148C194.035 44.4805 193.93 44.2656 193.773 44.0703C193.617 43.8672 193.383 43.6641 193.07 43.4609C192.758 43.2578 192.348 43.0469 191.84 42.8281C191.215 42.5703 190.605 42.2891 190.012 41.9844C189.426 41.6719 188.898 41.3125 188.43 40.9062C187.961 40.4922 187.586 40.0078 187.305 39.4531C187.023 38.8906 186.883 38.2344 186.883 37.4844C186.883 36.7578 187.02 36.1016 187.293 35.5156C187.566 34.9219 187.949 34.418 188.441 34.0039C188.934 33.582 189.516 33.2617 190.188 33.043C190.859 32.8164 191.598 32.7031 192.402 32.7031C193.488 32.7031 194.438 32.9258 195.25 33.3711C196.062 33.8086 196.695 34.4258 197.148 35.2227C197.602 36.0117 197.828 36.9336 197.828 37.9883H194.125C194.125 37.5273 194.062 37.125 193.938 36.7812C193.812 36.4297 193.617 36.1562 193.352 35.9609C193.094 35.7578 192.754 35.6562 192.332 35.6562C191.941 35.6562 191.617 35.7383 191.359 35.9023C191.102 36.0664 190.91 36.2891 190.785 36.5703C190.66 36.8516 190.598 37.1641 190.598 37.5078C190.598 37.7812 190.66 38.0234 190.785 38.2344C190.918 38.4453 191.094 38.6406 191.312 38.8203C191.539 39 191.805 39.1719 192.109 39.3359C192.422 39.5 192.758 39.6562 193.117 39.8047C193.883 40.1094 194.562 40.4414 195.156 40.8008C195.758 41.1602 196.258 41.5664 196.656 42.0195C197.062 42.4648 197.367 42.9727 197.57 43.543C197.781 44.1055 197.887 44.7461 197.887 45.4648C197.887 46.1992 197.762 46.8633 197.512 47.457C197.262 48.043 196.902 48.543 196.434 48.957C195.973 49.3711 195.41 49.6875 194.746 49.9062C194.082 50.125 193.34 50.2344 192.52 50.2344C191.746 50.2344 191 50.125 190.281 49.9062C189.562 49.6797 188.922 49.3359 188.359 48.875C187.805 48.4141 187.363 47.8242 187.035 47.1055C186.707 46.3867 186.543 45.5312 186.543 44.5391H190.27C190.27 45.0469 190.312 45.4805 190.398 45.8398C190.492 46.1914 190.633 46.4727 190.82 46.6836C191.016 46.8945 191.254 47.0508 191.535 47.1523C191.824 47.2461 192.168 47.293 192.566 47.293C192.973 47.293 193.293 47.2109 193.527 47.0469C193.762 46.8828 193.926 46.668 194.02 46.4023C194.121 46.1289 194.172 45.8242 194.172 45.4883ZM209.688 46.9883V50H202.551V46.9883H209.688ZM203.781 32.9375V50H200.055V32.9375H203.781ZM218.09 36.2539L214.668 50H210.695L216.004 32.9375H218.477L218.09 36.2539ZM220.785 50L217.352 36.2539L216.906 32.9375H219.426L224.758 50H220.785ZM220.914 43.6367V46.6484H213.355V43.6367H220.914ZM231.93 32.9375V50H228.215V32.9375H231.93ZM236.113 32.9375V35.9609H224.125V32.9375H236.113ZM241.867 32.9375V50H238.152V32.9375H241.867ZM256.785 40.168V42.8867C256.785 44.0977 256.637 45.1641 256.34 46.0859C256.043 47 255.617 47.7656 255.062 48.3828C254.516 49 253.859 49.4648 253.094 49.7773C252.336 50.082 251.496 50.2344 250.574 50.2344C249.645 50.2344 248.797 50.082 248.031 49.7773C247.266 49.4648 246.605 49 246.051 48.3828C245.496 47.7656 245.066 47 244.762 46.0859C244.465 45.1641 244.316 44.0977 244.316 42.8867V40.168C244.316 38.9414 244.465 37.8633 244.762 36.9336C245.066 35.9961 245.492 35.2188 246.039 34.6016C246.594 33.9766 247.25 33.5039 248.008 33.1836C248.773 32.8633 249.621 32.7031 250.551 32.7031C251.48 32.7031 252.324 32.8633 253.082 33.1836C253.848 33.5039 254.504 33.9766 255.051 34.6016C255.605 35.2188 256.031 35.9961 256.328 36.9336C256.633 37.8633 256.785 38.9414 256.785 40.168ZM253.047 42.8867V40.1445C253.047 39.3555 252.992 38.6836 252.883 38.1289C252.781 37.5742 252.625 37.1211 252.414 36.7695C252.203 36.418 251.941 36.1602 251.629 35.9961C251.324 35.832 250.965 35.75 250.551 35.75C250.129 35.75 249.762 35.832 249.449 35.9961C249.137 36.1602 248.875 36.418 248.664 36.7695C248.461 37.1211 248.309 37.5742 248.207 38.1289C248.113 38.6836 248.066 39.3555 248.066 40.1445V42.8867C248.066 43.6523 248.117 44.3086 248.219 44.8555C248.32 45.4023 248.477 45.8477 248.688 46.1914C248.898 46.5352 249.16 46.7891 249.473 46.9531C249.785 47.1172 250.152 47.1992 250.574 47.1992C250.98 47.1992 251.336 47.1172 251.641 46.9531C251.953 46.7891 252.211 46.5352 252.414 46.1914C252.625 45.8477 252.781 45.4023 252.883 44.8555C252.992 44.3086 253.047 43.6523 253.047 42.8867ZM271.176 32.9375V50H267.531L262.703 39.3828V50H259.07V32.9375H262.715L267.555 43.6133V32.9375H271.176Z" fill="#605070"/>
<path d="M139.914 67.4219C139.598 65.7871 138.244 64.873 136.627 64.873C134.43 64.873 132.795 66.5605 132.795 69.6367C132.795 72.7305 134.447 74.4004 136.627 74.4004C138.227 74.4004 139.58 73.5039 139.914 71.8867L141.865 71.9043C141.461 74.418 139.404 76.1758 136.609 76.1758C133.287 76.1758 130.879 73.6973 130.879 69.6367C130.879 65.5586 133.305 63.0977 136.609 63.0977C139.299 63.0977 141.426 64.6797 141.865 67.4219H139.914ZM145.68 63.2734V76H143.799V63.2734H145.68ZM147.965 76V66.4551H149.846V76H147.965ZM148.914 64.9785C148.264 64.9785 147.719 64.4863 147.719 63.8711C147.719 63.2559 148.264 62.7637 148.914 62.7637C149.547 62.7637 150.092 63.2559 150.092 63.8711C150.092 64.4863 149.547 64.9785 148.914 64.9785ZM156.174 76.1934C153.396 76.1934 151.709 74.1367 151.709 71.2715C151.709 68.3535 153.449 66.332 156.139 66.332C158.318 66.332 159.9 67.6152 160.094 69.5488H158.266C158.072 68.6523 157.352 67.8965 156.174 67.8965C154.627 67.8965 153.59 69.1797 153.59 71.2188C153.59 73.3105 154.609 74.5938 156.174 74.5938C157.229 74.5938 158.037 74.0137 158.266 72.9766H160.094C159.883 74.8223 158.424 76.1934 156.174 76.1934ZM161.869 76V63.2734H163.75V70.4805H163.908L167.688 66.4551H169.938L166.088 70.5508L170.201 76H167.898L164.664 71.7109L163.75 72.6074V76H161.869ZM175.281 68.1074L176.688 63.2559H178.182L177.25 68.1074H175.281ZM178.814 68.1074L180.221 63.2559H181.715L180.783 68.1074H178.814ZM183.525 64.9434V63.2734H193.387V64.9434H189.432V76H187.498V64.9434H183.525ZM194.195 76V66.4551H196.006V67.9668H196.111C196.463 66.9473 197.412 66.3145 198.537 66.3145C198.766 66.3145 199.135 66.332 199.328 66.3496V68.1426C199.17 68.1074 198.73 68.0371 198.344 68.0371C197.043 68.0371 196.076 68.9336 196.076 70.1816V76H194.195ZM200.189 73.3105C200.189 71.1309 202.035 70.5684 203.758 70.4453C204.391 70.4014 205.823 70.3223 206.271 70.3047L206.254 69.5488C206.254 68.4766 205.604 67.8438 204.32 67.8438C203.213 67.8438 202.545 68.3535 202.352 69.0566H200.488C200.664 67.4746 202.141 66.332 204.391 66.332C205.902 66.332 208.135 66.8945 208.135 69.6543V76H206.307V74.6992H206.236C205.867 75.4199 204.988 76.2109 203.406 76.2109C201.596 76.2109 200.189 75.1738 200.189 73.3105ZM202.018 73.3281C202.018 74.2422 202.773 74.7168 203.828 74.7168C205.357 74.7168 206.271 73.6973 206.271 72.5547V71.6758L204.021 71.834C202.791 71.9219 202.018 72.3789 202.018 73.3281ZM212.283 70.3398V76H210.402V66.4551H212.213V68.0195H212.318C212.775 67 213.707 66.332 215.131 66.332C217.1 66.332 218.383 67.5625 218.383 69.9355V76H216.52V70.1641C216.52 68.7754 215.764 67.9492 214.498 67.9492C213.215 67.9492 212.283 68.8105 212.283 70.3398ZM226.029 69.0566C225.854 68.3008 225.256 67.8086 224.219 67.8086C223.146 67.8086 222.373 68.3711 222.391 69.0918C222.373 69.6543 222.83 70.0586 223.885 70.3047L225.396 70.6562C227.154 71.043 227.998 71.8867 228.016 73.2402C227.998 74.9629 226.557 76.1934 224.113 76.1934C221.828 76.1934 220.457 75.1738 220.229 73.3984H222.145C222.303 74.2598 222.971 74.6816 224.096 74.6816C225.309 74.6816 226.082 74.1895 226.1 73.3809C226.082 72.7656 225.625 72.3613 224.623 72.1328L223.129 71.8164C221.406 71.4297 220.51 70.5156 220.51 69.1973C220.51 67.4922 221.986 66.332 224.201 66.332C226.328 66.332 227.646 67.4219 227.84 69.0566H226.029ZM231.725 63.2734V76H229.844V63.2734H231.725ZM233.57 73.3105C233.57 71.1309 235.416 70.5684 237.139 70.4453C237.771 70.4014 239.204 70.3223 239.652 70.3047L239.635 69.5488C239.635 68.4766 238.984 67.8438 237.701 67.8438C236.594 67.8438 235.926 68.3535 235.732 69.0566H233.869C234.045 67.4746 235.521 66.332 237.771 66.332C239.283 66.332 241.516 66.8945 241.516 69.6543V76H239.688V74.6992H239.617C239.248 75.4199 238.369 76.2109 236.787 76.2109C234.977 76.2109 233.57 75.1738 233.57 73.3105ZM235.398 73.3281C235.398 74.2422 236.154 74.7168 237.209 74.7168C238.738 74.7168 239.652 73.6973 239.652 72.5547V71.6758L237.402 71.834C236.172 71.9219 235.398 72.3789 235.398 73.3281ZM248.248 66.4551V67.9492H246.297V73.1875C246.297 74.2598 246.842 74.4531 247.439 74.4707C247.703 74.4707 248.125 74.4355 248.389 74.418V76.0527C248.125 76.0879 247.721 76.123 247.211 76.123C245.734 76.123 244.416 75.3145 244.434 73.5742V67.9492H243.027V66.4551H244.434V64.1699H246.297V66.4551H248.248ZM254.084 76.1934C251.271 76.1934 249.549 74.2598 249.549 71.2891C249.549 68.3535 251.307 66.332 253.961 66.332C256.141 66.332 258.197 67.6855 258.197 71.1309V71.7988H251.412C251.465 73.6094 252.528 74.6465 254.102 74.6465C255.174 74.6465 255.859 74.1895 256.176 73.6094H258.074C257.652 75.1562 256.176 76.1934 254.084 76.1934ZM251.43 70.3926H256.352C256.352 68.9336 255.42 67.8789 253.979 67.8789C252.476 67.8789 251.5 69.0391 251.43 70.3926ZM264.613 76V63.2734H269.148C272.102 63.2734 273.561 65.0488 273.561 67.4043C273.561 69.7422 272.102 71.5352 269.148 71.5352H266.547V76H264.613ZM266.547 69.8828H268.955C270.836 69.8828 271.609 68.8281 271.609 67.4043C271.609 65.9629 270.836 64.9258 268.955 64.9258H266.547V69.8828ZM274.914 73.3105C274.914 71.1309 276.76 70.5684 278.482 70.4453C279.115 70.4014 280.548 70.3223 280.996 70.3047L280.979 69.5488C280.979 68.4766 280.328 67.8438 279.045 67.8438C277.938 67.8438 277.27 68.3535 277.076 69.0566H275.213C275.389 67.4746 276.865 66.332 279.115 66.332C280.627 66.332 282.859 66.8945 282.859 69.6543V76H281.031V74.6992H280.961C280.592 75.4199 279.713 76.2109 278.131 76.2109C276.32 76.2109 274.914 75.1738 274.914 73.3105ZM276.742 73.3281C276.742 74.2422 277.498 74.7168 278.553 74.7168C280.082 74.7168 280.996 73.6973 280.996 72.5547V71.6758L278.746 71.834C277.516 71.9219 276.742 72.3789 276.742 73.3281ZM289.135 79.7793C286.727 79.7793 285.145 78.707 284.969 76.9316H286.885C287.061 77.8281 287.904 78.2676 289.152 78.2676C290.646 78.2676 291.596 77.6348 291.596 76.1406V74.2598H291.473C291.139 74.875 290.453 75.8594 288.695 75.8594C286.445 75.8594 284.705 74.1719 284.705 71.1309C284.705 68.0898 286.41 66.332 288.713 66.332C290.488 66.332 291.139 67.4043 291.49 68.002H291.613V66.4551H293.441V76.2109C293.441 78.6543 291.596 79.7793 289.135 79.7793ZM289.117 74.3125C290.717 74.3125 291.613 73.1348 291.613 71.166C291.613 69.2324 290.734 67.9316 289.117 67.9316C287.447 67.9316 286.621 69.3379 286.621 71.166C286.621 73.0293 287.482 74.3125 289.117 74.3125ZM299.84 76.1934C297.027 76.1934 295.305 74.2598 295.305 71.2891C295.305 68.3535 297.062 66.332 299.717 66.332C301.896 66.332 303.953 67.6855 303.953 71.1309V71.7988H297.168C297.221 73.6094 298.284 74.6465 299.857 74.6465C300.93 74.6465 301.615 74.1895 301.932 73.6094H303.83C303.408 75.1562 301.932 76.1934 299.84 76.1934ZM297.186 70.3926H302.107C302.107 68.9336 301.176 67.8789 299.734 67.8789C298.231 67.8789 297.256 69.0391 297.186 70.3926ZM312.232 63.291L310.826 68.1426H309.332L310.264 63.291H312.232ZM308.699 63.291L307.293 68.1426H305.799L306.73 63.291H308.699ZM344.77 76V66.4551H346.65V76H344.77ZM345.719 64.9785C345.068 64.9785 344.523 64.4863 344.523 63.8711C344.523 63.2559 345.068 62.7637 345.719 62.7637C346.352 62.7637 346.896 63.2559 346.896 63.8711C346.896 64.4863 346.352 64.9785 345.719 64.9785ZM350.816 70.3398V76H348.936V66.4551H350.746V68.0195H350.852C351.309 67 352.24 66.332 353.664 66.332C355.633 66.332 356.916 67.5625 356.916 69.9355V76H355.053V70.1641C355.053 68.7754 354.297 67.9492 353.031 67.9492C351.748 67.9492 350.816 68.8105 350.816 70.3398ZM368.061 66.4551V67.9492H366.109V73.1875C366.109 74.2598 366.654 74.4531 367.252 74.4707C367.516 74.4707 367.938 74.4355 368.201 74.418V76.0527C367.938 76.0879 367.533 76.123 367.023 76.123C365.547 76.123 364.229 75.3145 364.246 73.5742V67.9492H362.84V66.4551H364.246V64.1699H366.109V66.4551H368.061ZM371.98 70.3398V76H370.1V63.2734H371.945V68.0195H372.068C372.525 66.9824 373.404 66.332 374.898 66.332C376.867 66.332 378.168 67.5449 378.168 69.9355V76H376.287V70.1641C376.287 68.7578 375.531 67.9492 374.266 67.9492C372.947 67.9492 371.98 68.8105 371.98 70.3398ZM384.549 76.1934C381.736 76.1934 380.014 74.2598 380.014 71.2891C380.014 68.3535 381.771 66.332 384.426 66.332C386.605 66.332 388.662 67.6855 388.662 71.1309V71.7988H381.877C381.93 73.6094 382.993 74.6465 384.566 74.6465C385.639 74.6465 386.324 74.1895 386.641 73.6094H388.539C388.117 75.1562 386.641 76.1934 384.549 76.1934ZM381.895 70.3926H386.816C386.816 68.9336 385.885 67.8789 384.443 67.8789C382.94 67.8789 381.965 69.0391 381.895 70.3926ZM137.207 94.0273V88.4551H139.07V98H137.242V96.3477H137.137C136.697 97.3672 135.713 98.123 134.289 98.123C132.443 98.123 131.143 96.8926 131.143 94.5195V88.4551H133.023V94.291C133.023 95.5918 133.814 96.418 134.957 96.418C135.994 96.418 137.207 95.6621 137.207 94.0273ZM141.355 101.586V88.4551H143.184V90.002H143.342C143.676 89.4043 144.326 88.332 146.084 88.332C148.387 88.332 150.092 90.1426 150.092 93.2539C150.092 96.3301 148.422 98.1934 146.102 98.1934C144.361 98.1934 143.676 97.1387 143.342 96.5059H143.236V101.586H141.355ZM143.201 93.2188C143.201 95.2227 144.08 96.5938 145.68 96.5938C147.332 96.5938 148.193 95.1348 148.193 93.2188C148.193 91.3379 147.35 89.9316 145.68 89.9316C144.062 89.9316 143.201 91.2324 143.201 93.2188ZM151.955 101.586V88.4551H153.783V90.002H153.941C154.275 89.4043 154.926 88.332 156.684 88.332C158.986 88.332 160.691 90.1426 160.691 93.2539C160.691 96.3301 159.021 98.1934 156.701 98.1934C154.961 98.1934 154.275 97.1387 153.941 96.5059H153.836V101.586H151.955ZM153.801 93.2188C153.801 95.2227 154.68 96.5938 156.279 96.5938C157.932 96.5938 158.793 95.1348 158.793 93.2188C158.793 91.3379 157.949 89.9316 156.279 89.9316C154.662 89.9316 153.801 91.2324 153.801 93.2188ZM166.668 98.1934C163.855 98.1934 162.133 96.2598 162.133 93.2891C162.133 90.3535 163.891 88.332 166.545 88.332C168.725 88.332 170.781 89.6855 170.781 93.1309V93.7988H163.996C164.049 95.6094 165.112 96.6465 166.686 96.6465C167.758 96.6465 168.443 96.1895 168.76 95.6094H170.658C170.236 97.1562 168.76 98.1934 166.668 98.1934ZM164.014 92.3926H168.936C168.936 90.9336 168.004 89.8789 166.562 89.8789C165.06 89.8789 164.084 91.0391 164.014 92.3926ZM172.645 98V88.4551H174.455V89.9668H174.561C174.912 88.9473 175.861 88.3145 176.986 88.3145C177.215 88.3145 177.584 88.332 177.777 88.3496V90.1426C177.619 90.1074 177.18 90.0371 176.793 90.0371C175.492 90.0371 174.525 90.9336 174.525 92.1816V98H172.645ZM183.578 98V88.4551H185.389V89.9668H185.494C185.846 88.9473 186.795 88.3145 187.92 88.3145C188.148 88.3145 188.518 88.332 188.711 88.3496V90.1426C188.553 90.1074 188.113 90.0371 187.727 90.0371C186.426 90.0371 185.459 90.9336 185.459 92.1816V98H183.578ZM190.117 98V88.4551H191.998V98H190.117ZM191.066 86.9785C190.416 86.9785 189.871 86.4863 189.871 85.8711C189.871 85.2559 190.416 84.7637 191.066 84.7637C191.699 84.7637 192.244 85.2559 192.244 85.8711C192.244 86.4863 191.699 86.9785 191.066 86.9785ZM198.291 101.779C195.883 101.779 194.301 100.707 194.125 98.9316H196.041C196.217 99.8281 197.061 100.268 198.309 100.268C199.803 100.268 200.752 99.6348 200.752 98.1406V96.2598H200.629C200.295 96.875 199.609 97.8594 197.852 97.8594C195.602 97.8594 193.861 96.1719 193.861 93.1309C193.861 90.0898 195.566 88.332 197.869 88.332C199.645 88.332 200.295 89.4043 200.646 90.002H200.77V88.4551H202.598V98.2109C202.598 100.654 200.752 101.779 198.291 101.779ZM198.273 96.3125C199.873 96.3125 200.77 95.1348 200.77 93.166C200.77 91.2324 199.891 89.9316 198.273 89.9316C196.604 89.9316 195.777 91.3379 195.777 93.166C195.777 95.0293 196.639 96.3125 198.273 96.3125ZM206.764 92.3398V98H204.883V85.2734H206.729V90.0195H206.852C207.309 88.9824 208.188 88.332 209.682 88.332C211.65 88.332 212.951 89.5449 212.951 91.9355V98H211.07V92.1641C211.07 90.7578 210.314 89.9492 209.049 89.9492C207.73 89.9492 206.764 90.8105 206.764 92.3398ZM219.684 88.4551V89.9492H217.732V95.1875C217.732 96.2598 218.277 96.4531 218.875 96.4707C219.139 96.4707 219.561 96.4355 219.824 96.418V98.0527C219.561 98.0879 219.156 98.123 218.646 98.123C217.17 98.123 215.852 97.3145 215.869 95.5742V89.9492H214.463V88.4551H215.869V86.1699H217.732V88.4551H219.684ZM229.949 98.1934C227.172 98.1934 225.484 96.1367 225.484 93.2715C225.484 90.3535 227.225 88.332 229.914 88.332C232.094 88.332 233.676 89.6152 233.869 91.5488H232.041C231.848 90.6523 231.127 89.8965 229.949 89.8965C228.402 89.8965 227.365 91.1797 227.365 93.2188C227.365 95.3105 228.385 96.5938 229.949 96.5938C231.004 96.5938 231.812 96.0137 232.041 94.9766H233.869C233.658 96.8223 232.199 98.1934 229.949 98.1934ZM239.688 98.1934C236.98 98.1934 235.223 96.2246 235.223 93.2715C235.223 90.3008 236.98 88.332 239.688 88.332C242.377 88.332 244.135 90.3008 244.135 93.2715C244.135 96.2246 242.377 98.1934 239.688 98.1934ZM239.688 96.6289C241.41 96.6289 242.236 95.0996 242.236 93.2715C242.236 91.4434 241.41 89.8789 239.688 89.8789C237.93 89.8789 237.104 91.4434 237.104 93.2715C237.104 95.0996 237.93 96.6289 239.688 96.6289ZM245.98 98V88.4551H247.791V89.9668H247.896C248.248 88.9473 249.197 88.3145 250.322 88.3145C250.551 88.3145 250.92 88.332 251.113 88.3496V90.1426C250.955 90.1074 250.516 90.0371 250.129 90.0371C248.828 90.0371 247.861 90.9336 247.861 92.1816V98H245.98ZM254.4 92.3398V98H252.52V88.4551H254.33V90.0195H254.436C254.893 89 255.824 88.332 257.248 88.332C259.217 88.332 260.5 89.5625 260.5 91.9355V98H258.637V92.1641C258.637 90.7754 257.881 89.9492 256.615 89.9492C255.332 89.9492 254.4 90.8105 254.4 92.3398ZM266.898 98.1934C264.086 98.1934 262.363 96.2598 262.363 93.2891C262.363 90.3535 264.121 88.332 266.775 88.332C268.955 88.332 271.012 89.6855 271.012 93.1309V93.7988H264.227C264.279 95.6094 265.343 96.6465 266.916 96.6465C267.988 96.6465 268.674 96.1895 268.99 95.6094H270.889C270.467 97.1562 268.99 98.1934 266.898 98.1934ZM264.244 92.3926H269.166C269.166 90.9336 268.234 89.8789 266.793 89.8789C265.29 89.8789 264.314 91.0391 264.244 92.3926ZM272.875 98V88.4551H274.686V89.9668H274.791C275.143 88.9473 276.092 88.3145 277.217 88.3145C277.445 88.3145 277.814 88.332 278.008 88.3496V90.1426C277.85 90.1074 277.41 90.0371 277.023 90.0371C275.723 90.0371 274.756 90.9336 274.756 92.1816V98H272.875ZM288.273 88.4551V89.9492H286.322V95.1875C286.322 96.2598 286.867 96.4531 287.465 96.4707C287.729 96.4707 288.15 96.4355 288.414 96.418V98.0527C288.15 98.0879 287.746 98.123 287.236 98.123C285.76 98.123 284.441 97.3145 284.459 95.5742V89.9492H283.053V88.4551H284.459V86.1699H286.322V88.4551H288.273ZM294.039 98.1934C291.332 98.1934 289.574 96.2246 289.574 93.2715C289.574 90.3008 291.332 88.332 294.039 88.332C296.729 88.332 298.486 90.3008 298.486 93.2715C298.486 96.2246 296.729 98.1934 294.039 98.1934ZM294.039 96.6289C295.762 96.6289 296.588 95.0996 296.588 93.2715C296.588 91.4434 295.762 89.8789 294.039 89.8789C292.281 89.8789 291.455 91.4434 291.455 93.2715C291.455 95.0996 292.281 96.6289 294.039 96.6289ZM304.727 98V88.4551H306.607V98H304.727ZM305.676 86.9785C305.025 86.9785 304.48 86.4863 304.48 85.8711C304.48 85.2559 305.025 84.7637 305.676 84.7637C306.309 84.7637 306.854 85.2559 306.854 85.8711C306.854 86.4863 306.309 86.9785 305.676 86.9785ZM310.773 92.3398V98H308.893V88.4551H310.703V90.0195H310.809C311.266 89 312.197 88.332 313.621 88.332C315.59 88.332 316.873 89.5625 316.873 91.9355V98H315.01V92.1641C315.01 90.7754 314.254 89.9492 312.988 89.9492C311.705 89.9492 310.773 90.8105 310.773 92.3398ZM324.52 91.0566C324.344 90.3008 323.746 89.8086 322.709 89.8086C321.637 89.8086 320.863 90.3711 320.881 91.0918C320.863 91.6543 321.32 92.0586 322.375 92.3047L323.887 92.6562C325.645 93.043 326.488 93.8867 326.506 95.2402C326.488 96.9629 325.047 98.1934 322.604 98.1934C320.318 98.1934 318.947 97.1738 318.719 95.3984H320.635C320.793 96.2598 321.461 96.6816 322.586 96.6816C323.799 96.6816 324.572 96.1895 324.59 95.3809C324.572 94.7656 324.115 94.3613 323.113 94.1328L321.619 93.8164C319.896 93.4297 319 92.5156 319 91.1973C319 89.4922 320.477 88.332 322.691 88.332C324.818 88.332 326.137 89.4219 326.33 91.0566H324.52ZM332.799 88.4551V89.9492H330.848V95.1875C330.848 96.2598 331.393 96.4531 331.99 96.4707C332.254 96.4707 332.676 96.4355 332.939 96.418V98.0527C332.676 98.0879 332.271 98.123 331.762 98.123C330.285 98.123 328.967 97.3145 328.984 95.5742V89.9492H327.578V88.4551H328.984V86.1699H330.848V88.4551H332.799ZM334.188 95.3105C334.188 93.1309 336.033 92.5684 337.756 92.4453C338.389 92.4014 339.821 92.3223 340.27 92.3047L340.252 91.5488C340.252 90.4766 339.602 89.8438 338.318 89.8438C337.211 89.8438 336.543 90.3535 336.35 91.0566H334.486C334.662 89.4746 336.139 88.332 338.389 88.332C339.9 88.332 342.133 88.8945 342.133 91.6543V98H340.305V96.6992H340.234C339.865 97.4199 338.986 98.2109 337.404 98.2109C335.594 98.2109 334.188 97.1738 334.188 95.3105ZM336.016 95.3281C336.016 96.2422 336.771 96.7168 337.826 96.7168C339.355 96.7168 340.27 95.6973 340.27 94.5547V93.6758L338.02 93.834C336.789 93.9219 336.016 94.3789 336.016 95.3281ZM346.281 92.3398V98H344.4V88.4551H346.211V90.0195H346.316C346.773 89 347.705 88.332 349.129 88.332C351.098 88.332 352.381 89.5625 352.381 91.9355V98H350.518V92.1641C350.518 90.7754 349.762 89.9492 348.496 89.9492C347.213 89.9492 346.281 90.8105 346.281 92.3398ZM359.131 88.4551V89.9492H357.18V95.1875C357.18 96.2598 357.725 96.4531 358.322 96.4707C358.586 96.4707 359.008 96.4355 359.271 96.418V98.0527C359.008 98.0879 358.604 98.123 358.094 98.123C356.617 98.123 355.299 97.3145 355.316 95.5742V89.9492H353.91V88.4551H355.316V86.1699H357.18V88.4551H359.131ZM363.051 85.2734V98H361.17V85.2734H363.051ZM366.496 101.586C366.109 101.586 365.74 101.568 365.494 101.533V99.9688C365.705 99.9863 366.074 100.004 366.338 100.004C366.918 100.004 367.41 99.9512 367.85 98.7559L368.078 98.123L364.58 88.4551H366.584L368.992 95.8555H369.098L371.506 88.4551H373.527L369.59 99.2656C369.045 100.777 368.061 101.586 366.496 101.586ZM135.607 110.455V111.949H133.656V117.188C133.656 118.26 134.201 118.453 134.799 118.471C135.062 118.471 135.484 118.436 135.748 118.418V120.053C135.484 120.088 135.08 120.123 134.57 120.123C133.094 120.123 131.775 119.314 131.793 117.574V111.949H130.387V110.455H131.793V108.17H133.656V110.455H135.607ZM137.436 120V110.455H139.246V111.967H139.352C139.703 110.947 140.652 110.314 141.777 110.314C142.006 110.314 142.375 110.332 142.568 110.35V112.143C142.41 112.107 141.971 112.037 141.584 112.037C140.283 112.037 139.316 112.934 139.316 114.182V120H137.436ZM143.43 117.311C143.43 115.131 145.275 114.568 146.998 114.445C147.631 114.401 149.063 114.322 149.512 114.305L149.494 113.549C149.494 112.477 148.844 111.844 147.561 111.844C146.453 111.844 145.785 112.354 145.592 113.057H143.729C143.904 111.475 145.381 110.332 147.631 110.332C149.143 110.332 151.375 110.895 151.375 113.654V120H149.547V118.699H149.477C149.107 119.42 148.229 120.211 146.646 120.211C144.836 120.211 143.43 119.174 143.43 117.311ZM145.258 117.328C145.258 118.242 146.014 118.717 147.068 118.717C148.598 118.717 149.512 117.697 149.512 116.555V115.676L147.262 115.834C146.031 115.922 145.258 116.379 145.258 117.328ZM155.523 114.34V120H153.643V110.455H155.453V112.02H155.559C156.016 111 156.947 110.332 158.371 110.332C160.34 110.332 161.623 111.562 161.623 113.936V120H159.76V114.164C159.76 112.775 159.004 111.949 157.738 111.949C156.455 111.949 155.523 112.811 155.523 114.34ZM169.27 113.057C169.094 112.301 168.496 111.809 167.459 111.809C166.387 111.809 165.613 112.371 165.631 113.092C165.613 113.654 166.07 114.059 167.125 114.305L168.637 114.656C170.395 115.043 171.238 115.887 171.256 117.24C171.238 118.963 169.797 120.193 167.354 120.193C165.068 120.193 163.697 119.174 163.469 117.398H165.385C165.543 118.26 166.211 118.682 167.336 118.682C168.549 118.682 169.322 118.189 169.34 117.381C169.322 116.766 168.865 116.361 167.863 116.133L166.369 115.816C164.646 115.43 163.75 114.516 163.75 113.197C163.75 111.492 165.227 110.332 167.441 110.332C169.568 110.332 170.887 111.422 171.08 113.057H169.27ZM174.965 107.273V120H173.084V107.273H174.965ZM176.811 117.311C176.811 115.131 178.656 114.568 180.379 114.445C181.012 114.401 182.444 114.322 182.893 114.305L182.875 113.549C182.875 112.477 182.225 111.844 180.941 111.844C179.834 111.844 179.166 112.354 178.973 113.057H177.109C177.285 111.475 178.762 110.332 181.012 110.332C182.523 110.332 184.756 110.895 184.756 113.654V120H182.928V118.699H182.857C182.488 119.42 181.609 120.211 180.027 120.211C178.217 120.211 176.811 119.174 176.811 117.311ZM178.639 117.328C178.639 118.242 179.395 118.717 180.449 118.717C181.979 118.717 182.893 117.697 182.893 116.555V115.676L180.643 115.834C179.412 115.922 178.639 116.379 178.639 117.328ZM191.488 110.455V111.949H189.537V117.188C189.537 118.26 190.082 118.453 190.68 118.471C190.943 118.471 191.365 118.436 191.629 118.418V120.053C191.365 120.088 190.961 120.123 190.451 120.123C188.975 120.123 187.656 119.314 187.674 117.574V111.949H186.268V110.455H187.674V108.17H189.537V110.455H191.488ZM197.324 120.193C194.512 120.193 192.789 118.26 192.789 115.289C192.789 112.354 194.547 110.332 197.201 110.332C199.381 110.332 201.438 111.686 201.438 115.131V115.799H194.652C194.705 117.609 195.769 118.646 197.342 118.646C198.414 118.646 199.1 118.189 199.416 117.609H201.314C200.893 119.156 199.416 120.193 197.324 120.193ZM194.67 114.393H199.592C199.592 112.934 198.66 111.879 197.219 111.879C195.716 111.879 194.74 113.039 194.67 114.393ZM212.16 110.455V111.949H210.209V117.188C210.209 118.26 210.754 118.453 211.352 118.471C211.615 118.471 212.037 118.436 212.301 118.418V120.053C212.037 120.088 211.633 120.123 211.123 120.123C209.646 120.123 208.328 119.314 208.346 117.574V111.949H206.939V110.455H208.346V108.17H210.209V110.455H212.16ZM216.08 114.34V120H214.199V107.273H216.045V112.02H216.168C216.625 110.982 217.504 110.332 218.998 110.332C220.967 110.332 222.268 111.545 222.268 113.936V120H220.387V114.164C220.387 112.758 219.631 111.949 218.365 111.949C217.047 111.949 216.08 112.811 216.08 114.34ZM228.648 120.193C225.836 120.193 224.113 118.26 224.113 115.289C224.113 112.354 225.871 110.332 228.525 110.332C230.705 110.332 232.762 111.686 232.762 115.131V115.799H225.977C226.029 117.609 227.093 118.646 228.666 118.646C229.738 118.646 230.424 118.189 230.74 117.609H232.639C232.217 119.156 230.74 120.193 228.648 120.193ZM225.994 114.393H230.916C230.916 112.934 229.984 111.879 228.543 111.879C227.04 111.879 226.064 113.039 225.994 114.393ZM243.133 120.193C240.32 120.193 238.598 118.26 238.598 115.289C238.598 112.354 240.355 110.332 243.01 110.332C245.189 110.332 247.246 111.686 247.246 115.131V115.799H240.461C240.514 117.609 241.577 118.646 243.15 118.646C244.223 118.646 244.908 118.189 245.225 117.609H247.123C246.701 119.156 245.225 120.193 243.133 120.193ZM240.479 114.393H245.4C245.4 112.934 244.469 111.879 243.027 111.879C241.524 111.879 240.549 113.039 240.479 114.393ZM250.99 114.34V120H249.109V110.455H250.92V112.02H251.025C251.482 111 252.414 110.332 253.838 110.332C255.807 110.332 257.09 111.562 257.09 113.936V120H255.227V114.164C255.227 112.775 254.471 111.949 253.205 111.949C251.922 111.949 250.99 112.811 250.99 114.34ZM263.84 110.455V111.949H261.889V117.188C261.889 118.26 262.434 118.453 263.031 118.471C263.295 118.471 263.717 118.436 263.98 118.418V120.053C263.717 120.088 263.312 120.123 262.803 120.123C261.326 120.123 260.008 119.314 260.025 117.574V111.949H258.619V110.455H260.025V108.17H261.889V110.455H263.84ZM265.668 120V110.455H267.549V120H265.668ZM266.617 108.979C265.967 108.979 265.422 108.486 265.422 107.871C265.422 107.256 265.967 106.764 266.617 106.764C267.25 106.764 267.795 107.256 267.795 107.871C267.795 108.486 267.25 108.979 266.617 108.979ZM269.834 120V110.455H271.645V111.967H271.75C272.102 110.947 273.051 110.314 274.176 110.314C274.404 110.314 274.773 110.332 274.967 110.35V112.143C274.809 112.107 274.369 112.037 273.982 112.037C272.682 112.037 271.715 112.934 271.715 114.182V120H269.834ZM280.17 120.193C277.357 120.193 275.635 118.26 275.635 115.289C275.635 112.354 277.393 110.332 280.047 110.332C282.227 110.332 284.283 111.686 284.283 115.131V115.799H277.498C277.551 117.609 278.614 118.646 280.188 118.646C281.26 118.646 281.945 118.189 282.262 117.609H284.16C283.738 119.156 282.262 120.193 280.17 120.193ZM277.516 114.393H282.438C282.438 112.934 281.506 111.879 280.064 111.879C278.562 111.879 277.586 113.039 277.516 114.393ZM290.541 123.586V110.455H292.369V112.002H292.527C292.861 111.404 293.512 110.332 295.27 110.332C297.572 110.332 299.277 112.143 299.277 115.254C299.277 118.33 297.607 120.193 295.287 120.193C293.547 120.193 292.861 119.139 292.527 118.506H292.422V123.586H290.541ZM292.387 115.219C292.387 117.223 293.266 118.594 294.865 118.594C296.518 118.594 297.379 117.135 297.379 115.219C297.379 113.338 296.535 111.932 294.865 111.932C293.248 111.932 292.387 113.232 292.387 115.219ZM300.701 117.311C300.701 115.131 302.547 114.568 304.27 114.445C304.902 114.401 306.335 114.322 306.783 114.305L306.766 113.549C306.766 112.477 306.115 111.844 304.832 111.844C303.725 111.844 303.057 112.354 302.863 113.057H301C301.176 111.475 302.652 110.332 304.902 110.332C306.414 110.332 308.646 110.895 308.646 113.654V120H306.818V118.699H306.748C306.379 119.42 305.5 120.211 303.918 120.211C302.107 120.211 300.701 119.174 300.701 117.311ZM302.529 117.328C302.529 118.242 303.285 118.717 304.34 118.717C305.869 118.717 306.783 117.697 306.783 116.555V115.676L304.533 115.834C303.303 115.922 302.529 116.379 302.529 117.328ZM314.922 123.779C312.514 123.779 310.932 122.707 310.756 120.932H312.672C312.848 121.828 313.691 122.268 314.939 122.268C316.434 122.268 317.383 121.635 317.383 120.141V118.26H317.26C316.926 118.875 316.24 119.859 314.482 119.859C312.232 119.859 310.492 118.172 310.492 115.131C310.492 112.09 312.197 110.332 314.5 110.332C316.275 110.332 316.926 111.404 317.277 112.002H317.4V110.455H319.229V120.211C319.229 122.654 317.383 123.779 314.922 123.779ZM314.904 118.312C316.504 118.312 317.4 117.135 317.4 115.166C317.4 113.232 316.521 111.932 314.904 111.932C313.234 111.932 312.408 113.338 312.408 115.166C312.408 117.029 313.27 118.312 314.904 118.312ZM325.627 120.193C322.814 120.193 321.092 118.26 321.092 115.289C321.092 112.354 322.85 110.332 325.504 110.332C327.684 110.332 329.74 111.686 329.74 115.131V115.799H322.955C323.008 117.609 324.071 118.646 325.645 118.646C326.717 118.646 327.402 118.189 327.719 117.609H329.617C329.195 119.156 327.719 120.193 325.627 120.193ZM322.973 114.393H327.895C327.895 112.934 326.963 111.879 325.521 111.879C324.019 111.879 323.043 113.039 322.973 114.393ZM332.834 120.123C332.148 120.123 331.568 119.561 331.586 118.875C331.568 118.189 332.148 117.627 332.834 117.627C333.502 117.627 334.082 118.189 334.082 118.875C334.082 119.561 333.502 120.123 332.834 120.123Z" fill="#605070"/>
<path d="M325.56 62.5V65.9015C325.56 66.127 325.471 66.3433 325.313 66.5028C325.154 66.6623 324.939 66.7519 324.715 66.7519H321.336M325.56 62.5H331.474C331.922 62.5 332.352 62.6792 332.669 62.9981C332.986 63.3171 333.164 63.7497 333.164 64.2008V66.7519M325.56 62.5L321.336 66.7519M321.336 66.7519V76.106C321.336 76.5571 321.514 76.9897 321.831 77.3086C322.148 77.6276 322.578 77.8068 323.026 77.8068H324.715" stroke="#605070" stroke-width="1.5" stroke-linecap="round" stroke-linejoin="round"/>
<path d="M325.833 72.0125H334.924M325.833 75.2594H334.924M330.108 68.7656C329.196 70.2265 328.713 71.914 328.713 73.636C328.713 75.358 329.196 77.0454 330.108 78.5063M330.649 68.7656C331.56 70.2265 332.044 71.914 332.044 73.636C332.044 75.358 331.56 77.0454 330.649 78.5063M325.508 73.636C325.508 74.2755 325.634 74.9089 325.879 75.4998C326.123 76.0907 326.482 76.6276 326.934 77.0798C327.387 77.5321 327.923 77.8908 328.514 78.1356C329.105 78.3803 329.739 78.5063 330.378 78.5063C331.018 78.5063 331.651 78.3803 332.242 78.1356C332.833 77.8908 333.37 77.5321 333.822 77.0798C334.274 76.6276 334.633 76.0907 334.878 75.4998C335.123 74.9089 335.248 74.2755 335.248 73.636C335.248 72.3443 334.735 71.1055 333.822 70.1921C332.909 69.2787 331.67 68.7656 330.378 68.7656C329.086 68.7656 327.848 69.2787 326.934 70.1921C326.021 71.1055 325.508 72.3443 325.508 73.636Z" stroke="#605070" stroke-width="1.5" stroke-linecap="round" stroke-linejoin="round"/>
</svg>
