<svg width="480" height="200" viewBox="0 0 480 200" fill="none" xmlns="http://www.w3.org/2000/svg">
<mask id="path-1-inside-1_641_416" fill="white">
<path fill-rule="evenodd" clip-rule="evenodd" d="M32 0C14.3269 0 0 14.3269 0 32V123C0 140.673 14.3269 155 32 155H43.6706L34.3576 192.904C33.1631 197.765 39.0614 201.17 42.6741 197.705L87.2003 155H448C465.673 155 480 140.673 480 123V32C480 14.3269 465.673 0 448 0H32Z"/>
</mask>
<path fill-rule="evenodd" clip-rule="evenodd" d="M32 0C14.3269 0 0 14.3269 0 32V123C0 140.673 14.3269 155 32 155H43.6706L34.3576 192.904C33.1631 197.765 39.0614 201.17 42.6741 197.705L87.2003 155H448C465.673 155 480 140.673 480 123V32C480 14.3269 465.673 0 448 0H32Z" fill="#F6EEFF"/>
<path d="M43.6706 155L49.4973 156.432L51.3233 149H43.6706V155ZM34.3576 192.904L40.1843 194.335L40.1843 194.335L34.3576 192.904ZM42.6741 197.705L38.521 193.375L38.521 193.375L42.6741 197.705ZM87.2003 155V149H84.788L83.0471 150.67L87.2003 155ZM6 32C6 17.6406 17.6406 6 32 6V-6C11.0132 -6 -6 11.0132 -6 32H6ZM6 123V32H-6V123H6ZM32 149C17.6406 149 6 137.359 6 123H-6C-6 143.987 11.0132 161 32 161V149ZM43.6706 149H32V161H43.6706V149ZM40.1843 194.335L49.4973 156.432L37.8439 153.568L28.5309 191.472L40.1843 194.335ZM38.521 193.375C38.6057 193.294 38.8393 193.152 39.1547 193.124C39.4178 193.101 39.6029 193.167 39.7132 193.231C39.8234 193.294 39.9736 193.421 40.085 193.661C40.2186 193.948 40.2123 194.221 40.1843 194.335L28.5309 191.472C25.9031 202.167 38.8793 209.659 46.8273 202.036L38.521 193.375ZM83.0471 150.67L38.521 193.375L46.8273 202.036L91.3535 159.33L83.0471 150.67ZM448 149H87.2003V161H448V149ZM474 123C474 137.359 462.359 149 448 149V161C468.987 161 486 143.987 486 123H474ZM474 32V123H486V32H474ZM448 6C462.359 6 474 17.6406 474 32H486C486 11.0132 468.987 -6 448 -6V6ZM32 6H448V-6H32V6Z" fill="#605070" mask="url(#path-1-inside-1_641_416)"/>
<rect x="30" y="30" width="80" height="80" rx="15" fill="#605070"/>
<path d="M60.3077 65.8462C60.3077 62.7873 62.7873 60.3077 65.8462 60.3077H82.4615C85.5203 60.3077 88 62.7873 88 65.8462V82.4615C88 85.5204 85.5203 88 82.4615 88H65.8462C62.7873 88 60.3077 85.5204 60.3077 82.4615V65.8462Z" fill="white"/>
<path d="M79.6923 60.3077V57.5385C79.6923 54.4796 77.2127 52 74.1538 52H57.5385C54.4797 52 52 54.4796 52 57.5385V74.1538C52 77.2127 54.4797 79.6923 57.5385 79.6923H60.3077M65.8462 88H82.4615C85.5203 88 88 85.5204 88 82.4615V65.8462C88 62.7873 85.5203 60.3077 82.4615 60.3077H65.8462C62.7873 60.3077 60.3077 62.7873 60.3077 65.8462V82.4615C60.3077 85.5204 62.7873 88 65.8462 88Z" stroke="white" stroke-width="3.27273" stroke-miterlimit="16" stroke-linecap="round"/>
<path d="M65.0869 80.8979C65.0869 81.4766 65.3168 82.0315 65.726 82.4407C66.1351 82.8499 66.6901 83.0797 67.2687 83.0797C69.4506 83.0797 69.4506 78.7161 70.5415 73.2615C71.6324 67.807 71.6324 63.4434 73.8142 63.4434C74.3928 63.4434 74.9478 63.6732 75.357 64.0824C75.7661 64.4916 75.996 65.0465 75.996 65.6252M66.7233 71.6252H74.9051M76.5415 76.5343L79.8142 79.807M83.0869 83.0797L79.8142 79.807M76.5415 83.0797L79.8142 79.807M83.0869 76.5343L79.8142 79.807" stroke="#605070" stroke-width="2.45455" stroke-linecap="round" stroke-linejoin="round"/>
<path d="M140.898 46.9883V50H133.762V46.9883H140.898ZM134.992 32.9375V50H131.266V32.9375H134.992ZM149.301 36.2539L145.879 50H141.906L147.215 32.9375H149.688L149.301 36.2539ZM151.996 50L148.562 36.2539L148.117 32.9375H150.637L155.969 50H151.996ZM152.125 43.6367V46.6484H144.566V43.6367H152.125ZM163.141 32.9375V50H159.426V32.9375H163.141ZM167.324 32.9375V35.9609H155.336V32.9375H167.324ZM179.125 46.9883V50H171.684V46.9883H179.125ZM172.914 32.9375V50H169.188V32.9375H172.914ZM178.141 39.7812V42.6875H171.684V39.7812H178.141ZM179.125 32.9375V35.9609H171.684V32.9375H179.125ZM184.281 32.9375L186.473 38.6094L188.582 32.9375H192.754L188.781 41.3867L192.836 50H188.559L186.379 44.2109L184.188 50H179.945L184.047 41.3516L180.039 32.9375H184.281ZM203.664 32.9375V50H199.938V32.9375H203.664ZM208.949 40.1094V43.1094H202.691V40.1094H208.949ZM209.523 32.9375V35.9609H202.691V32.9375H209.523ZM218.945 32.9375H222.672V44.5977C222.672 45.918 222.43 46.9961 221.945 47.832C221.469 48.6602 220.805 49.2695 219.953 49.6602C219.102 50.043 218.113 50.2344 216.988 50.2344C215.855 50.2344 214.859 50.043 214 49.6602C213.141 49.2695 212.469 48.6602 211.984 47.832C211.508 46.9961 211.27 45.918 211.27 44.5977V32.9375H215.008V44.5977C215.008 45.3242 215.082 45.8789 215.23 46.2617C215.379 46.6367 215.598 46.8906 215.887 47.0234C216.184 47.1562 216.551 47.2227 216.988 47.2227C217.434 47.2227 217.797 47.1562 218.078 47.0234C218.367 46.8906 218.582 46.6367 218.723 46.2617C218.871 45.8789 218.945 45.3242 218.945 44.5977V32.9375ZM237.238 32.9375V50H233.594L228.766 39.3828V50H225.133V32.9375H228.777L233.617 43.6133V32.9375H237.238ZM247.832 44.2695H251.535C251.512 45.5508 251.258 46.6367 250.773 47.5273C250.289 48.418 249.602 49.0938 248.711 49.5547C247.82 50.0078 246.766 50.2344 245.547 50.2344C244.578 50.2344 243.719 50.0703 242.969 49.7422C242.219 49.4062 241.582 48.9219 241.059 48.2891C240.543 47.6562 240.152 46.8789 239.887 45.957C239.629 45.0352 239.5 43.9805 239.5 42.793V40.1445C239.5 38.9648 239.641 37.9102 239.922 36.9805C240.203 36.0508 240.602 35.2695 241.117 34.6367C241.641 33.9961 242.277 33.5117 243.027 33.1836C243.777 32.8555 244.617 32.6914 245.547 32.6914C246.82 32.6914 247.891 32.9297 248.758 33.4062C249.625 33.8828 250.293 34.5742 250.762 35.4805C251.23 36.3867 251.496 37.4844 251.559 38.7734H247.844C247.852 37.9922 247.781 37.3828 247.633 36.9453C247.492 36.5 247.254 36.1875 246.918 36.0078C246.582 35.8203 246.125 35.7266 245.547 35.7266C245.133 35.7266 244.777 35.8047 244.48 35.9609C244.184 36.1094 243.945 36.3555 243.766 36.6992C243.586 37.043 243.453 37.4961 243.367 38.0586C243.281 38.6211 243.238 39.3086 243.238 40.1211V42.793C243.238 43.6055 243.273 44.293 243.344 44.8555C243.414 45.4102 243.535 45.8633 243.707 46.2148C243.879 46.5586 244.113 46.8086 244.41 46.9648C244.707 47.1211 245.086 47.1992 245.547 47.1992C246.062 47.1992 246.488 47.1211 246.824 46.9648C247.16 46.8008 247.41 46.5078 247.574 46.0859C247.746 45.6641 247.832 45.0586 247.832 44.2695ZM260.266 32.9375V50H256.551V32.9375H260.266ZM264.449 32.9375V35.9609H252.461V32.9375H264.449ZM270.203 32.9375V50H266.488V32.9375H270.203ZM285.121 40.168V42.8867C285.121 44.0977 284.973 45.1641 284.676 46.0859C284.379 47 283.953 47.7656 283.398 48.3828C282.852 49 282.195 49.4648 281.43 49.7773C280.672 50.082 279.832 50.2344 278.91 50.2344C277.98 50.2344 277.133 50.082 276.367 49.7773C275.602 49.4648 274.941 49 274.387 48.3828C273.832 47.7656 273.402 47 273.098 46.0859C272.801 45.1641 272.652 44.0977 272.652 42.8867V40.168C272.652 38.9414 272.801 37.8633 273.098 36.9336C273.402 35.9961 273.828 35.2188 274.375 34.6016C274.93 33.9766 275.586 33.5039 276.344 33.1836C277.109 32.8633 277.957 32.7031 278.887 32.7031C279.816 32.7031 280.66 32.8633 281.418 33.1836C282.184 33.5039 282.84 33.9766 283.387 34.6016C283.941 35.2188 284.367 35.9961 284.664 36.9336C284.969 37.8633 285.121 38.9414 285.121 40.168ZM281.383 42.8867V40.1445C281.383 39.3555 281.328 38.6836 281.219 38.1289C281.117 37.5742 280.961 37.1211 280.75 36.7695C280.539 36.418 280.277 36.1602 279.965 35.9961C279.66 35.832 279.301 35.75 278.887 35.75C278.465 35.75 278.098 35.832 277.785 35.9961C277.473 36.1602 277.211 36.418 277 36.7695C276.797 37.1211 276.645 37.5742 276.543 38.1289C276.449 38.6836 276.402 39.3555 276.402 40.1445V42.8867C276.402 43.6523 276.453 44.3086 276.555 44.8555C276.656 45.4023 276.812 45.8477 277.023 46.1914C277.234 46.5352 277.496 46.7891 277.809 46.9531C278.121 47.1172 278.488 47.1992 278.91 47.1992C279.316 47.1992 279.672 47.1172 279.977 46.9531C280.289 46.7891 280.547 46.5352 280.75 46.1914C280.961 45.8477 281.117 45.4023 281.219 44.8555C281.328 44.3086 281.383 43.6523 281.383 42.8867ZM299.512 32.9375V50H295.867L291.039 39.3828V50H287.406V32.9375H291.051L295.891 43.6133V32.9375H299.512ZM309.25 45.4883C309.25 45.1992 309.223 44.9414 309.168 44.7148C309.113 44.4805 309.008 44.2656 308.852 44.0703C308.695 43.8672 308.461 43.6641 308.148 43.4609C307.836 43.2578 307.426 43.0469 306.918 42.8281C306.293 42.5703 305.684 42.2891 305.09 41.9844C304.504 41.6719 303.977 41.3125 303.508 40.9062C303.039 40.4922 302.664 40.0078 302.383 39.4531C302.102 38.8906 301.961 38.2344 301.961 37.4844C301.961 36.7578 302.098 36.1016 302.371 35.5156C302.645 34.9219 303.027 34.418 303.52 34.0039C304.012 33.582 304.594 33.2617 305.266 33.043C305.938 32.8164 306.676 32.7031 307.48 32.7031C308.566 32.7031 309.516 32.9258 310.328 33.3711C311.141 33.8086 311.773 34.4258 312.227 35.2227C312.68 36.0117 312.906 36.9336 312.906 37.9883H309.203C309.203 37.5273 309.141 37.125 309.016 36.7812C308.891 36.4297 308.695 36.1562 308.43 35.9609C308.172 35.7578 307.832 35.6562 307.41 35.6562C307.02 35.6562 306.695 35.7383 306.438 35.9023C306.18 36.0664 305.988 36.2891 305.863 36.5703C305.738 36.8516 305.676 37.1641 305.676 37.5078C305.676 37.7812 305.738 38.0234 305.863 38.2344C305.996 38.4453 306.172 38.6406 306.391 38.8203C306.617 39 306.883 39.1719 307.188 39.3359C307.5 39.5 307.836 39.6562 308.195 39.8047C308.961 40.1094 309.641 40.4414 310.234 40.8008C310.836 41.1602 311.336 41.5664 311.734 42.0195C312.141 42.4648 312.445 42.9727 312.648 43.543C312.859 44.1055 312.965 44.7461 312.965 45.4648C312.965 46.1992 312.84 46.8633 312.59 47.457C312.34 48.043 311.98 48.543 311.512 48.957C311.051 49.3711 310.488 49.6875 309.824 49.9062C309.16 50.125 308.418 50.2344 307.598 50.2344C306.824 50.2344 306.078 50.125 305.359 49.9062C304.641 49.6797 304 49.3359 303.438 48.875C302.883 48.4141 302.441 47.8242 302.113 47.1055C301.785 46.3867 301.621 45.5312 301.621 44.5391H305.348C305.348 45.0469 305.391 45.4805 305.477 45.8398C305.57 46.1914 305.711 46.4727 305.898 46.6836C306.094 46.8945 306.332 47.0508 306.613 47.1523C306.902 47.2461 307.246 47.293 307.645 47.293C308.051 47.293 308.371 47.2109 308.605 47.0469C308.84 46.8828 309.004 46.668 309.098 46.4023C309.199 46.1289 309.25 45.8242 309.25 45.4883Z" fill="#605070"/>
<path d="M132.092 74.7871C138.798 74.5674 142.349 71.4121 142.656 65.4355H131.318V63.8711H142.41C142.076 63.2295 141.742 62.667 141.355 62.0957L142.498 61.4805C143.017 62.2451 143.438 63.0098 143.834 63.8711H144.027L144.344 64.6621C144.309 72.0449 140.143 76.1055 132.355 76.3164L132.092 74.7871ZM145.574 64.9785C145.082 63.6953 144.607 62.7461 144.027 61.8145L145.152 61.2695C145.803 62.3066 146.277 63.291 146.752 64.5391L145.574 64.9785ZM148.527 76.334V63.5723H162.115V76.334H160.428V75.1562H150.197V76.334H148.527ZM150.197 73.6797H160.428V65.0664H150.197V73.6797ZM168.285 74.6816C174.244 74.0488 176.266 71.8164 176.318 65.9102L177.865 65.9629C177.812 72.6426 175.246 75.4902 168.549 76.1582L168.285 74.6816ZM167.793 71.2012C167.424 69.5488 167.002 67.9668 166.527 66.6133L168.021 66.2266C168.461 67.5098 168.883 69.0742 169.27 70.8848L167.793 71.2012ZM171.643 70.9199C171.309 69.2324 170.887 67.5625 170.377 66.1387L171.871 65.7695C172.346 67.2637 172.803 68.9512 173.137 70.6035L171.643 70.9199ZM183.543 74.8574C189.423 74.2861 193.615 70.5156 194.02 65.5762H187.006C185.846 67.2988 184.281 68.8633 182.4 70.1816L181.328 69.0391C183.877 67.2109 186.021 64.5742 186.988 62.0078L188.641 62.3066C188.43 62.9131 188.175 63.5107 187.885 64.0996H195.742V64.7852C195.742 70.9727 190.943 75.7012 184.018 76.3516L183.543 74.8574ZM198.454 63.994H214.564V65.29H198.454V63.994ZM204.34 68.242H211.522V69.538H204.34V68.242ZM211.036 68.242H212.44C212.44 68.242 212.434 68.284 212.422 68.368C212.422 68.452 212.416 68.548 212.404 68.656C212.404 68.752 212.398 68.836 212.386 68.908C212.266 70.624 212.14 72.022 212.008 73.102C211.876 74.17 211.726 74.992 211.558 75.568C211.39 76.144 211.186 76.552 210.946 76.792C210.742 77.008 210.52 77.158 210.28 77.242C210.04 77.326 209.746 77.38 209.398 77.404C209.086 77.428 208.654 77.434 208.102 77.422C207.55 77.41 206.974 77.386 206.374 77.35C206.362 77.158 206.308 76.936 206.212 76.684C206.128 76.444 206.02 76.228 205.888 76.036C206.536 76.084 207.148 76.114 207.724 76.126C208.3 76.15 208.702 76.162 208.93 76.162C209.134 76.162 209.302 76.15 209.434 76.126C209.578 76.102 209.698 76.042 209.794 75.946C209.986 75.778 210.154 75.424 210.298 74.884C210.442 74.332 210.574 73.54 210.694 72.508C210.814 71.464 210.928 70.12 211.036 68.476V68.242ZM204.016 64.714H205.528C205.48 65.674 205.402 66.646 205.294 67.63C205.186 68.602 205.012 69.568 204.772 70.528C204.544 71.476 204.202 72.382 203.746 73.246C203.302 74.11 202.714 74.902 201.982 75.622C201.25 76.342 200.338 76.972 199.246 77.512C199.138 77.332 198.988 77.134 198.796 76.918C198.616 76.714 198.436 76.546 198.256 76.414C199.312 75.934 200.182 75.364 200.866 74.704C201.55 74.032 202.096 73.3 202.504 72.508C202.912 71.704 203.218 70.864 203.422 69.988C203.626 69.112 203.764 68.23 203.836 67.342C203.92 66.442 203.98 65.566 204.016 64.714ZM205.744 60.826H207.13V64.552H205.744V60.826ZM227.092 69.358H228.424V76.576H227.092V69.358ZM223.15 68.872H232.438V70.06H223.15V68.872ZM222.358 75.766H232.834V76.954H222.358V75.766ZM223.564 72.238H232.042V73.408H223.564V72.238ZM225.076 62.806V66.118H230.512V62.806H225.076ZM223.816 61.636H231.826V67.288H223.816V61.636ZM219.316 62.374H220.648V77.404H219.316V62.374ZM216.382 65.956H222.898V67.216H216.382V65.956ZM219.388 66.442L220.234 66.802C220.054 67.438 219.832 68.098 219.568 68.782C219.304 69.454 219.016 70.126 218.704 70.798C218.404 71.458 218.08 72.082 217.732 72.67C217.396 73.246 217.054 73.738 216.706 74.146C216.634 73.966 216.526 73.756 216.382 73.516C216.25 73.276 216.124 73.072 216.004 72.904C216.34 72.544 216.67 72.112 216.994 71.608C217.318 71.104 217.63 70.558 217.93 69.97C218.242 69.382 218.524 68.788 218.776 68.188C219.028 67.576 219.232 66.994 219.388 66.442ZM221.998 61.132L222.934 62.176C222.382 62.392 221.752 62.596 221.044 62.788C220.336 62.98 219.604 63.148 218.848 63.292C218.104 63.424 217.378 63.538 216.67 63.634C216.646 63.49 216.592 63.322 216.508 63.13C216.424 62.926 216.346 62.752 216.274 62.608C216.946 62.488 217.636 62.356 218.344 62.212C219.064 62.068 219.742 61.906 220.378 61.726C221.014 61.534 221.554 61.336 221.998 61.132ZM220.576 68.26C220.696 68.368 220.87 68.542 221.098 68.782C221.338 69.01 221.596 69.262 221.872 69.538C222.148 69.802 222.394 70.054 222.61 70.294C222.838 70.534 223 70.708 223.096 70.816L222.286 71.878C222.178 71.698 222.022 71.47 221.818 71.194C221.626 70.918 221.41 70.624 221.17 70.312C220.93 70 220.702 69.712 220.486 69.448C220.27 69.184 220.09 68.974 219.946 68.818L220.576 68.26ZM246.262 61.762L247.18 61.006C247.48 61.21 247.798 61.444 248.134 61.708C248.47 61.96 248.782 62.218 249.07 62.482C249.37 62.734 249.61 62.968 249.79 63.184L248.854 64.03C248.674 63.814 248.44 63.574 248.152 63.31C247.876 63.034 247.57 62.764 247.234 62.5C246.91 62.224 246.586 61.978 246.262 61.762ZM234.49 64.246H250.546V65.56H234.49V64.246ZM235.12 68.242H243.076V69.556H235.12V68.242ZM238.36 68.944H239.71V75.37H238.36V68.944ZM234.562 75.568C235.282 75.424 236.128 75.256 237.1 75.064C238.084 74.86 239.128 74.644 240.232 74.416C241.348 74.176 242.458 73.936 243.562 73.696L243.67 74.92C242.65 75.16 241.618 75.4 240.574 75.64C239.542 75.88 238.546 76.108 237.586 76.324C236.626 76.54 235.762 76.732 234.994 76.9L234.562 75.568ZM243.67 60.952H245.11C245.098 62.62 245.146 64.21 245.254 65.722C245.374 67.234 245.542 68.62 245.758 69.88C245.986 71.14 246.256 72.232 246.568 73.156C246.892 74.08 247.246 74.8 247.63 75.316C248.026 75.82 248.446 76.072 248.89 76.072C249.142 76.072 249.328 75.802 249.448 75.262C249.568 74.722 249.658 73.852 249.718 72.652C249.862 72.796 250.048 72.94 250.276 73.084C250.504 73.228 250.714 73.336 250.906 73.408C250.834 74.452 250.72 75.268 250.564 75.856C250.408 76.444 250.186 76.858 249.898 77.098C249.622 77.35 249.25 77.476 248.782 77.476C248.182 77.476 247.636 77.272 247.144 76.864C246.664 76.456 246.238 75.88 245.866 75.136C245.494 74.38 245.17 73.498 244.894 72.49C244.618 71.47 244.39 70.348 244.21 69.124C244.042 67.888 243.91 66.58 243.814 65.2C243.73 63.82 243.682 62.404 243.67 60.952ZM262.645 75.7891C259.551 75.7891 257.389 74.4707 257.389 72.5898C257.389 71.4473 258.18 70.2871 259.691 69.1094L260.852 70.041C259.586 70.9902 259.006 71.7461 259.006 72.4668C259.006 73.5742 260.43 74.2949 262.645 74.2949C263.805 74.2949 265.246 74.1191 266.652 73.8379L266.898 75.2793C265.475 75.5957 263.963 75.7891 262.645 75.7891ZM258.162 65.4531V63.959H266.793V65.4531H258.162ZM254.225 76.5801C253.645 74.2949 253.381 72.1504 253.381 69.6367C253.381 67.1406 253.645 64.9961 254.225 62.6934L255.877 62.9043C255.314 65.1191 255.068 67.2461 255.068 69.6367C255.068 72.0273 255.314 74.1719 255.877 76.334L254.225 76.5801ZM280.627 76.0527C279.607 76.0527 277.867 75.9121 276.531 75.7539L276.672 74.2246C277.639 74.3652 279.379 74.4707 280.152 74.4707C281.594 74.4707 281.778 73.9434 281.857 66.1914H275.705C275.31 71.5967 273.982 74.1455 270.801 76.3867L269.711 75.209C272.629 73.1348 273.78 71.0605 274.123 66.1914H269.729V64.7148H274.211C274.229 63.8535 274.246 62.9219 274.246 61.9023H275.828C275.828 62.9131 275.811 63.8447 275.775 64.7148H283.492V65.5059C283.492 74.752 283.158 76.0527 280.627 76.0527ZM287.148 70.4453V68.8281H300.227V70.4453H287.148ZM305.904 74.4883C313.041 73.8027 315.73 70.7266 315.818 63.0977L317.453 63.168C317.365 71.6406 314.131 75.2969 306.186 76L305.904 74.4883ZM306.291 69.6895C305.482 67.7207 304.586 65.7871 303.619 63.9414L305.131 63.2734C306.098 65.1016 307.012 67.0703 307.838 69.0742L306.291 69.6895ZM327.631 76.2461V62.7285H329.301V74.5586C331.814 74.1543 333.449 72.0537 333.906 68.5293L335.471 68.7578C334.891 73.4336 332.219 76.2461 328.334 76.2461H327.631ZM319.422 75.0508C322.094 73.873 322.744 72.4141 322.744 67.6328V62.7285H324.379V67.7559C324.379 73.0469 323.395 75.1035 320.266 76.4395L319.422 75.0508ZM345.754 73.293C345.754 72.0449 345.684 71.043 345.543 70.252C343.064 71.3154 341.588 72.5195 341.588 73.5918C341.588 74.6465 342.977 75.2441 345.473 75.2441C346.879 75.2441 348.637 75.0508 350.518 74.6992L350.746 76.1055C349.076 76.4043 346.949 76.6152 345.455 76.6152C341.992 76.6152 339.936 75.5605 339.936 73.7324C339.936 72.0098 341.843 70.2871 345.104 68.916C344.673 68.1162 344.022 67.7734 343.1 67.7734C341.412 67.7734 340.094 68.8984 338.23 71.9395L336.877 71.1484C338.354 68.8193 339.382 67.0352 340.252 65.084H336.895V63.748H340.797C341.017 63.1768 341.236 62.5791 341.447 61.9375L343.082 62.2188C342.897 62.7461 342.704 63.2559 342.52 63.748H350.289V65.084H341.957C341.641 65.8047 341.298 66.499 340.938 67.1934C341.764 66.7363 342.66 66.5078 343.557 66.5078C345.016 66.5078 346.009 67.0703 346.615 68.3184C347.828 67.9053 349.173 67.5273 350.641 67.2109L350.869 68.5645C349.48 68.8809 348.197 69.25 347.072 69.6543C347.283 70.6123 347.389 71.8252 347.389 73.293H345.754ZM357.214 66.766H366.304V67.972H357.214V66.766ZM356.89 75.496H366.538V76.702H356.89V75.496ZM356.278 70.24H367.294V77.458H365.926V71.464H357.61V77.458H356.278V70.24ZM361.714 62.248C361.222 62.98 360.58 63.736 359.788 64.516C359.008 65.296 358.138 66.046 357.178 66.766C356.23 67.486 355.24 68.122 354.208 68.674C354.148 68.578 354.07 68.464 353.974 68.332C353.878 68.2 353.776 68.068 353.668 67.936C353.56 67.804 353.458 67.696 353.362 67.612C354.418 67.072 355.432 66.43 356.404 65.686C357.388 64.942 358.27 64.156 359.05 63.328C359.842 62.5 360.472 61.696 360.94 60.916H362.326C362.806 61.588 363.352 62.242 363.964 62.878C364.588 63.514 365.248 64.114 365.944 64.678C366.652 65.242 367.372 65.758 368.104 66.226C368.848 66.682 369.574 67.066 370.282 67.378C370.126 67.546 369.97 67.738 369.814 67.954C369.658 68.17 369.514 68.38 369.382 68.584C368.674 68.2 367.96 67.768 367.24 67.288C366.52 66.808 365.818 66.292 365.134 65.74C364.45 65.176 363.814 64.6 363.226 64.012C362.638 63.412 362.134 62.824 361.714 62.248ZM381.947 75.8418C380.734 75.8418 379.328 75.6133 378.15 75.2266L378.467 73.8027C379.557 74.1016 380.945 74.3125 381.947 74.3125C384.285 74.3125 385.129 73.2754 385.129 70.1465C385.129 67.123 384.109 65.6816 381.947 65.6816C380.269 65.6816 378.739 66.5605 376.234 69.1621V76.791H374.635V70.8496C373.949 71.7109 373.211 72.6953 372.402 73.8027L371.436 72.4668C372.64 70.9639 373.686 69.707 374.635 68.6523V66.4551H371.277V65.0312H374.635V62.4648H376.234V67.0176C378.432 64.917 380.075 64.1699 381.947 64.1699C385.146 64.1699 386.764 66.1914 386.764 70.1465C386.764 74.1191 385.305 75.8418 381.947 75.8418ZM396.889 76.3164C392.23 76.3164 391.193 75.5781 391.193 72.2207V66.877L388.152 66.9473V65.541L391.193 65.4707V62.6406H392.828V65.4355L399.297 65.2949V62.2891H400.932V65.2598L403.973 65.207V66.6133L400.932 66.666V70.1641C400.932 71.623 400.492 72.1504 399.156 72.1504C398.154 72.1504 396.73 71.8516 395.377 71.3594L395.746 69.918C397.363 70.4102 398.102 70.5684 398.734 70.5684C399.191 70.5684 399.297 70.4453 399.297 69.6543V66.7012L392.828 66.8418V72.2207C392.828 74.5059 393.373 74.875 396.889 74.875C398.646 74.875 400.58 74.7695 402.268 74.5586L402.408 76.0176C400.668 76.2285 398.664 76.3164 396.889 76.3164ZM416.137 76.2637C412.129 76.2637 409.562 74.0488 409.562 70.6211C409.562 68.2217 410.846 66.209 412.955 65.1367L405.73 65.3125V63.8359L419.863 63.502V64.9785L417.754 65.0312C414.045 65.1191 411.303 67.2637 411.303 70.4629C411.303 73.1172 413.148 74.7344 416.137 74.7344C416.805 74.7344 417.719 74.6641 418.299 74.5586L418.492 76.0703C417.842 76.1934 416.857 76.2637 416.137 76.2637ZM139.879 95.293C139.879 94.0449 139.809 93.043 139.668 92.252C137.189 93.3154 135.713 94.5195 135.713 95.5918C135.713 96.6465 137.102 97.2441 139.598 97.2441C141.004 97.2441 142.762 97.0508 144.643 96.6992L144.871 98.1055C143.201 98.4043 141.074 98.6152 139.58 98.6152C136.117 98.6152 134.061 97.5605 134.061 95.7324C134.061 94.0098 135.968 92.2871 139.229 90.916C138.798 90.1162 138.147 89.7734 137.225 89.7734C135.537 89.7734 134.219 90.8984 132.355 93.9395L131.002 93.1484C132.479 90.8193 133.507 89.0352 134.377 87.084H131.02V85.748H134.922C135.142 85.1768 135.361 84.5791 135.572 83.9375L137.207 84.2188C137.022 84.7461 136.829 85.2559 136.645 85.748H144.414V87.084H136.082C135.766 87.8047 135.423 88.499 135.062 89.1934C135.889 88.7363 136.785 88.5078 137.682 88.5078C139.141 88.5078 140.134 89.0703 140.74 90.3184C141.953 89.9053 143.298 89.5273 144.766 89.2109L144.994 90.5645C143.605 90.8809 142.322 91.25 141.197 91.6543C141.408 92.6123 141.514 93.8252 141.514 95.293H139.879ZM149.793 96.8574C155.673 96.2861 159.865 92.5156 160.27 87.5762H153.256C152.096 89.2988 150.531 90.8633 148.65 92.1816L147.578 91.0391C150.127 89.2109 152.271 86.5742 153.238 84.0078L154.891 84.3066C154.68 84.9131 154.425 85.5107 154.135 86.0996H161.992V86.7852C161.992 92.9727 157.193 97.7012 150.268 98.3516L149.793 96.8574ZM167.424 96.8926C173.945 96.7168 176.178 94.9238 176.178 89.8965V84.7285H177.936V89.8613C177.936 95.873 175.035 98.2812 167.6 98.4395L167.424 96.8926ZM166.545 92.4629V84.7285H168.303V92.4629H166.545ZM185.16 96.6816C191.119 96.0488 193.141 93.8164 193.193 87.9102L194.74 87.9629C194.688 94.6426 192.121 97.4902 185.424 98.1582L185.16 96.6816ZM184.668 93.2012C184.299 91.5488 183.877 89.9668 183.402 88.6133L184.896 88.2266C185.336 89.5098 185.758 91.0742 186.145 92.8848L184.668 93.2012ZM188.518 92.9199C188.184 91.2324 187.762 89.5625 187.252 88.1387L188.746 87.7695C189.221 89.2637 189.678 90.9512 190.012 92.6035L188.518 92.9199ZM200.418 96.8574C206.298 96.2861 210.49 92.5156 210.895 87.5762H203.881C202.721 89.2988 201.156 90.8633 199.275 92.1816L198.203 91.0391C200.752 89.2109 202.896 86.5742 203.863 84.0078L205.516 84.3066C205.305 84.9131 205.05 85.5107 204.76 86.0996H212.617V86.7852C212.617 92.9727 207.818 97.7012 200.893 98.3516L200.418 96.8574ZM218.822 97.2266C221.45 97.0771 223.498 95.9082 224.061 94.291C223.428 94.7568 222.549 95.0469 221.582 95.0469C219.455 95.0469 218.066 93.7109 218.066 91.6543C218.066 89.5801 219.543 88.2441 221.758 88.2441C222.558 88.2441 223.234 88.4287 223.814 88.7891V87.3301H215.395V85.9941H223.814V83.9023H225.484V85.9941H230.23V87.3301H225.484V90.916C225.73 91.4609 225.836 92.041 225.836 92.7441C225.836 96.1719 223.252 98.4746 219.068 98.6855L218.822 97.2266ZM221.846 93.7109C223.041 93.7109 224.043 93.0254 224.043 91.6543C224.043 90.3887 223.199 89.5801 221.898 89.5801C220.58 89.5801 219.736 90.3711 219.736 91.6543C219.736 92.8848 220.562 93.7109 221.846 93.7109ZM239.266 98.668C235.979 98.668 234.098 97.6133 234.098 95.6973C234.098 94.0977 235.521 93.1309 237.895 93.1309C240.145 93.1309 241.305 93.9746 241.305 95.627C241.305 96.1279 241.208 96.6641 240.988 97.2617C243.493 96.9189 244.732 95.7939 244.732 93.9043C244.732 91.9004 243.309 90.9688 240.25 90.9688C238.58 90.9688 237.156 91.3027 235.961 92.0234L233.676 93.377L233.008 92.1289L242.447 86.6621H233.975V85.2383H245.33V86.6621L239.846 89.7734C240.303 89.7295 240.725 89.7031 241.094 89.7031C244.486 89.7031 246.42 91.1797 246.42 93.8164C246.42 96.9453 243.854 98.668 239.266 98.668ZM235.68 95.6797C235.68 96.7695 236.928 97.3848 239.09 97.3848H239.371C239.67 96.6729 239.793 96.1895 239.793 95.7852C239.793 94.8711 239.125 94.3965 237.771 94.3965C236.436 94.3965 235.68 94.8711 235.68 95.6797ZM256.58 98.5273C252.414 98.5273 250.234 97.2266 250.234 94.7656C250.234 93.0781 251.219 91.6543 253.363 90.3711C252.801 88.4023 252.405 86.5303 252.15 84.5879L253.838 84.3594C254.075 86.1436 254.418 87.8486 254.91 89.5625C256.615 88.7803 258.848 88.0332 261.625 87.3125L262.029 88.7891C255.016 90.6348 251.939 92.4277 251.939 94.6426C251.939 96.2246 253.504 97.0332 256.668 97.0332C258.18 97.0332 259.867 96.8398 262.24 96.4531L262.451 97.9297C260.377 98.2988 258.338 98.5273 256.58 98.5273ZM269.676 98.9844C268.621 97.6133 267.479 96.418 266.072 95.3984L267.197 94.2559C268.586 95.3281 269.852 96.5938 270.924 98.0176L269.676 98.9844ZM283.176 98V85.2734H285.109V96.3301H290.857V98H283.176ZM292.246 95.3105C292.246 93.1309 294.092 92.5684 295.814 92.4453C296.447 92.4014 297.88 92.3223 298.328 92.3047L298.311 91.5488C298.311 90.4766 297.66 89.8438 296.377 89.8438C295.27 89.8438 294.602 90.3535 294.408 91.0566H292.545C292.721 89.4746 294.197 88.332 296.447 88.332C297.959 88.332 300.191 88.8945 300.191 91.6543V98H298.363V96.6992H298.293C297.924 97.4199 297.045 98.2109 295.463 98.2109C293.652 98.2109 292.246 97.1738 292.246 95.3105ZM294.074 95.3281C294.074 96.2422 294.83 96.7168 295.885 96.7168C297.414 96.7168 298.328 95.6973 298.328 94.5547V93.6758L296.078 93.834C294.848 93.9219 294.074 94.3789 294.074 95.3281ZM301.176 86.9434V85.2734H311.037V86.9434H307.082V98H305.148V86.9434H301.176ZM315.572 98.1934C312.76 98.1934 311.037 96.2598 311.037 93.2891C311.037 90.3535 312.795 88.332 315.449 88.332C317.629 88.332 319.686 89.6855 319.686 93.1309V93.7988H312.9C312.953 95.6094 314.017 96.6465 315.59 96.6465C316.662 96.6465 317.348 96.1895 317.664 95.6094H319.562C319.141 97.1562 317.664 98.1934 315.572 98.1934ZM312.918 92.3926H317.84C317.84 90.9336 316.908 89.8789 315.467 89.8789C313.964 89.8789 312.988 91.0391 312.918 92.3926ZM323.061 85.2734L326.084 90.2305H326.189L329.23 85.2734H331.463L327.49 91.6367L331.498 98H329.23L326.189 93.0957H326.084L323.025 98H320.775L324.836 91.6367L320.793 85.2734H323.061ZM332.911 83.996H342.181V85.256H332.911V83.996ZM332.605 89.918H342.415V91.178H332.605V89.918ZM339.139 84.32H340.471V99.422H339.139V84.32ZM334.963 84.32H336.241V90.098C336.241 91.226 336.181 92.348 336.061 93.464C335.953 94.568 335.707 95.636 335.323 96.668C334.951 97.7 334.357 98.66 333.541 99.548C333.481 99.452 333.385 99.344 333.253 99.224C333.133 99.116 333.007 99.008 332.875 98.9C332.755 98.792 332.641 98.708 332.533 98.648C333.265 97.832 333.799 96.956 334.135 96.02C334.483 95.084 334.705 94.118 334.801 93.122C334.909 92.114 334.963 91.106 334.963 90.098V84.32ZM347.095 83.168L348.373 83.69C347.929 84.242 347.419 84.782 346.843 85.31C346.267 85.838 345.661 86.33 345.025 86.786C344.401 87.242 343.783 87.638 343.171 87.974C343.063 87.818 342.913 87.65 342.721 87.47C342.541 87.29 342.367 87.14 342.199 87.02C342.775 86.72 343.369 86.366 343.981 85.958C344.593 85.55 345.169 85.106 345.709 84.626C346.261 84.134 346.723 83.648 347.095 83.168ZM347.617 88.136L348.841 88.64C348.385 89.228 347.851 89.804 347.239 90.368C346.627 90.932 345.985 91.46 345.313 91.952C344.653 92.444 343.999 92.864 343.351 93.212C343.243 93.068 343.099 92.906 342.919 92.726C342.739 92.546 342.559 92.39 342.379 92.258C343.003 91.946 343.639 91.568 344.287 91.124C344.935 90.68 345.553 90.2 346.141 89.684C346.729 89.168 347.221 88.652 347.617 88.136ZM348.031 92.996L349.291 93.5C348.787 94.328 348.175 95.114 347.455 95.858C346.735 96.59 345.943 97.262 345.079 97.874C344.227 98.474 343.339 98.99 342.415 99.422C342.307 99.254 342.163 99.068 341.983 98.864C341.803 98.66 341.623 98.486 341.443 98.342C342.343 97.97 343.207 97.514 344.035 96.974C344.875 96.422 345.637 95.81 346.321 95.138C347.017 94.466 347.587 93.752 348.031 92.996ZM362.629 83.762L363.547 83.006C363.847 83.21 364.165 83.444 364.501 83.708C364.837 83.96 365.149 84.218 365.437 84.482C365.737 84.734 365.977 84.968 366.157 85.184L365.221 86.03C365.041 85.814 364.807 85.574 364.519 85.31C364.243 85.034 363.937 84.764 363.601 84.5C363.277 84.224 362.953 83.978 362.629 83.762ZM350.857 86.246H366.913V87.56H350.857V86.246ZM351.487 90.242H359.443V91.556H351.487V90.242ZM354.727 90.944H356.077V97.37H354.727V90.944ZM350.929 97.568C351.649 97.424 352.495 97.256 353.467 97.064C354.451 96.86 355.495 96.644 356.599 96.416C357.715 96.176 358.825 95.936 359.929 95.696L360.037 96.92C359.017 97.16 357.985 97.4 356.941 97.64C355.909 97.88 354.913 98.108 353.953 98.324C352.993 98.54 352.129 98.732 351.361 98.9L350.929 97.568ZM360.037 82.952H361.477C361.465 84.62 361.513 86.21 361.621 87.722C361.741 89.234 361.909 90.62 362.125 91.88C362.353 93.14 362.623 94.232 362.935 95.156C363.259 96.08 363.613 96.8 363.997 97.316C364.393 97.82 364.813 98.072 365.257 98.072C365.509 98.072 365.695 97.802 365.815 97.262C365.935 96.722 366.025 95.852 366.085 94.652C366.229 94.796 366.415 94.94 366.643 95.084C366.871 95.228 367.081 95.336 367.273 95.408C367.201 96.452 367.087 97.268 366.931 97.856C366.775 98.444 366.553 98.858 366.265 99.098C365.989 99.35 365.617 99.476 365.149 99.476C364.549 99.476 364.003 99.272 363.511 98.864C363.031 98.456 362.605 97.88 362.233 97.136C361.861 96.38 361.537 95.498 361.261 94.49C360.985 93.47 360.757 92.348 360.577 91.124C360.409 89.888 360.277 88.58 360.181 87.2C360.097 85.82 360.049 84.404 360.037 82.952ZM378.818 98.4395C374.828 98.4395 372.244 96.1543 372.244 92.6211C372.244 90.1426 373.545 88.0947 375.637 86.9785L368.43 87.1543V85.6777L382.562 85.3438V86.8027L380.436 86.8555C376.674 86.9609 374.002 89.1934 374.002 92.4629C374.002 95.1875 375.848 96.8926 378.836 96.8926C379.434 96.8926 380.418 96.8398 380.998 96.7344L381.191 98.2461C380.523 98.3691 379.521 98.4395 378.818 98.4395ZM380.875 93.3242C380.348 92.1816 379.785 91.1797 379.029 90.0723L380.207 89.4043C380.98 90.5293 381.543 91.5312 382.088 92.7441L380.875 93.3242ZM383.441 92.3574C382.949 91.1973 382.404 90.1777 381.648 89.0879L382.844 88.4551C383.582 89.5801 384.145 90.5996 384.654 91.8125L383.441 92.3574ZM389.332 91.556H398.152V92.564H389.332V91.556ZM389.044 93.986H398.44V95.012H389.044V93.986ZM392.968 92.024H394.21V93.824C394.21 94.22 394.156 94.634 394.048 95.066C393.952 95.486 393.748 95.912 393.436 96.344C393.136 96.764 392.68 97.166 392.068 97.55C391.468 97.934 390.664 98.282 389.656 98.594C389.572 98.462 389.452 98.306 389.296 98.126C389.152 97.946 389.008 97.802 388.864 97.694C389.788 97.442 390.526 97.154 391.078 96.83C391.63 96.494 392.038 96.152 392.302 95.804C392.578 95.456 392.758 95.108 392.842 94.76C392.926 94.412 392.968 94.094 392.968 93.806V92.024ZM394.192 94.418C394.516 95.21 395.038 95.876 395.758 96.416C396.49 96.956 397.384 97.334 398.44 97.55C398.308 97.67 398.164 97.826 398.008 98.018C397.864 98.222 397.75 98.402 397.666 98.558C396.55 98.246 395.608 97.76 394.84 97.1C394.072 96.44 393.508 95.618 393.148 94.634L394.192 94.418ZM390.466 90.062L391.51 89.738C391.726 90.014 391.924 90.32 392.104 90.656C392.296 90.992 392.434 91.292 392.518 91.556L391.384 91.916C391.312 91.652 391.192 91.346 391.024 90.998C390.868 90.65 390.682 90.338 390.466 90.062ZM395.722 89.702L396.946 90.08C396.73 90.428 396.508 90.776 396.28 91.124C396.064 91.46 395.866 91.754 395.686 92.006L394.786 91.664C394.942 91.388 395.11 91.064 395.29 90.692C395.482 90.308 395.626 89.978 395.722 89.702ZM387.028 86.066H392.086V87.002H387.028V86.066ZM395.308 86.066H400.402V87.002H395.308V86.066ZM399.898 83.654H401.23V97.82C401.23 98.192 401.182 98.486 401.086 98.702C401.002 98.918 400.84 99.086 400.6 99.206C400.372 99.314 400.06 99.38 399.664 99.404C399.268 99.428 398.788 99.44 398.224 99.44C398.2 99.26 398.146 99.044 398.062 98.792C397.99 98.54 397.912 98.324 397.828 98.144C398.224 98.156 398.59 98.162 398.926 98.162C399.262 98.162 399.484 98.162 399.592 98.162C399.712 98.15 399.79 98.12 399.826 98.072C399.874 98.024 399.898 97.94 399.898 97.82V83.654ZM387.154 83.654H392.914V89.486H387.154V88.496H391.636V84.662H387.154V83.654ZM400.546 83.654V84.662H395.794V88.514H400.546V89.522H394.516V83.654H400.546ZM386.344 83.654H387.676V99.458H386.344V83.654ZM403.444 92.492H412.3V93.608H403.444V92.492ZM403.552 86.192H412.228V87.308H403.552V86.192ZM406.792 90.926L408.07 91.214C407.794 91.79 407.488 92.408 407.152 93.068C406.828 93.716 406.504 94.346 406.18 94.958C405.868 95.558 405.574 96.098 405.298 96.578L404.11 96.164C404.374 95.708 404.668 95.18 404.992 94.58C405.316 93.98 405.634 93.362 405.946 92.726C406.27 92.078 406.552 91.478 406.792 90.926ZM409.492 93.158L410.752 93.32C410.608 94.196 410.368 94.97 410.032 95.642C409.708 96.302 409.276 96.878 408.736 97.37C408.208 97.85 407.56 98.258 406.792 98.594C406.036 98.93 405.136 99.212 404.092 99.44C404.044 99.26 403.96 99.062 403.84 98.846C403.732 98.63 403.618 98.45 403.498 98.306C404.758 98.09 405.796 97.778 406.612 97.37C407.428 96.95 408.064 96.398 408.52 95.714C408.988 95.018 409.312 94.166 409.492 93.158ZM410.626 83.222L411.796 83.726C411.532 84.146 411.256 84.566 410.968 84.986C410.692 85.406 410.428 85.766 410.176 86.066L409.258 85.616C409.486 85.304 409.732 84.92 409.996 84.464C410.26 83.996 410.47 83.582 410.626 83.222ZM407.278 82.862H408.538V91.142H407.278V82.862ZM404.236 83.726L405.244 83.312C405.508 83.672 405.748 84.068 405.964 84.5C406.192 84.932 406.348 85.31 406.432 85.634L405.352 86.102C405.28 85.79 405.136 85.412 404.92 84.968C404.704 84.512 404.476 84.098 404.236 83.726ZM407.314 86.696L408.214 87.218C407.926 87.722 407.554 88.226 407.098 88.73C406.654 89.234 406.168 89.702 405.64 90.134C405.124 90.554 404.608 90.908 404.092 91.196C404.02 91.04 403.912 90.86 403.768 90.656C403.624 90.452 403.486 90.29 403.354 90.17C403.858 89.942 404.362 89.648 404.866 89.288C405.37 88.928 405.838 88.52 406.27 88.064C406.702 87.608 407.05 87.152 407.314 86.696ZM408.394 87.308C408.55 87.392 408.784 87.53 409.096 87.722C409.42 87.914 409.762 88.124 410.122 88.352C410.482 88.58 410.812 88.79 411.112 88.982C411.412 89.174 411.628 89.324 411.76 89.432L411.004 90.404C410.848 90.26 410.626 90.074 410.338 89.846C410.05 89.618 409.738 89.378 409.402 89.126C409.078 88.874 408.766 88.634 408.466 88.406C408.166 88.178 407.92 88.004 407.728 87.884L408.394 87.308ZM413.614 86.192H420.022V87.452H413.614V86.192ZM414.064 82.862L415.414 83.06C415.222 84.236 414.97 85.37 414.658 86.462C414.358 87.542 414.004 88.55 413.596 89.486C413.188 90.41 412.72 91.22 412.192 91.916C412.12 91.832 412.018 91.736 411.886 91.628C411.754 91.508 411.61 91.394 411.454 91.286C411.31 91.166 411.19 91.07 411.094 90.998C411.598 90.362 412.042 89.618 412.426 88.766C412.81 87.902 413.134 86.972 413.398 85.976C413.674 84.968 413.896 83.93 414.064 82.862ZM417.592 86.912L418.978 87.056C418.69 89.132 418.258 90.956 417.682 92.528C417.118 94.1 416.35 95.456 415.378 96.596C414.418 97.736 413.182 98.702 411.67 99.494C411.622 99.374 411.55 99.236 411.454 99.08C411.358 98.936 411.256 98.786 411.148 98.63C411.052 98.486 410.956 98.366 410.86 98.27C412.288 97.598 413.452 96.746 414.352 95.714C415.252 94.67 415.954 93.422 416.458 91.97C416.974 90.506 417.352 88.82 417.592 86.912ZM414.334 87.308C414.598 88.964 414.97 90.518 415.45 91.97C415.942 93.41 416.578 94.676 417.358 95.768C418.138 96.848 419.086 97.682 420.202 98.27C420.094 98.366 419.974 98.48 419.842 98.612C419.722 98.744 419.608 98.882 419.5 99.026C419.392 99.17 419.302 99.308 419.23 99.44C418.066 98.744 417.082 97.814 416.278 96.65C415.474 95.474 414.82 94.112 414.316 92.564C413.812 91.016 413.41 89.33 413.11 87.506L414.334 87.308ZM405.19 95.93L405.892 95.012C406.612 95.276 407.326 95.582 408.034 95.93C408.742 96.266 409.402 96.614 410.014 96.974C410.626 97.334 411.148 97.682 411.58 98.018L410.644 98.99C410.236 98.642 409.738 98.288 409.15 97.928C408.562 97.568 407.926 97.214 407.242 96.866C406.57 96.518 405.886 96.206 405.19 95.93ZM430.621 95.293C430.621 94.0449 430.551 93.043 430.41 92.252C427.932 93.3154 426.455 94.5195 426.455 95.5918C426.455 96.6465 427.844 97.2441 430.34 97.2441C431.746 97.2441 433.504 97.0508 435.385 96.6992L435.613 98.1055C433.943 98.4043 431.816 98.6152 430.322 98.6152C426.859 98.6152 424.803 97.5605 424.803 95.7324C424.803 94.0098 426.71 92.2871 429.971 90.916C429.54 90.1162 428.89 89.7734 427.967 89.7734C426.279 89.7734 424.961 90.8984 423.098 93.9395L421.744 93.1484C423.221 90.8193 424.249 89.0352 425.119 87.084H421.762V85.748H425.664C425.884 85.1768 426.104 84.5791 426.314 83.9375L427.949 84.2188C427.765 84.7461 427.571 85.2559 427.387 85.748H435.156V87.084H426.824C426.508 87.8047 426.165 88.499 425.805 89.1934C426.631 88.7363 427.527 88.5078 428.424 88.5078C429.883 88.5078 430.876 89.0703 431.482 90.3184C432.695 89.9053 434.04 89.5273 435.508 89.2109L435.736 90.5645C434.348 90.8809 433.064 91.25 431.939 91.6543C432.15 92.6123 432.256 93.8252 432.256 95.293H430.621ZM450.73 98.5098V97.332H439.41V95.8555H450.73V86.8906H439.41V85.4141H452.436V98.5098H450.73ZM137.348 120.246C132.602 120.246 131.758 119.631 131.758 116.133V107.133H133.41V112.213C136.943 111.65 139.668 110.991 143.219 109.857L143.641 111.316C140.195 112.441 136.97 113.224 133.41 113.795V116.186C133.41 118.471 133.867 118.734 137.699 118.734C139.809 118.734 142.305 118.629 144.133 118.488L144.186 120C142.252 120.158 139.404 120.246 137.348 120.246ZM143.939 109.875C142.691 109.875 141.672 108.873 141.672 107.625C141.672 106.377 142.691 105.357 143.939 105.357C145.188 105.357 146.207 106.377 146.207 107.625C146.207 108.873 145.188 109.875 143.939 109.875ZM143.939 108.68C144.52 108.68 144.994 108.205 144.994 107.625C144.994 107.045 144.52 106.57 143.939 106.57C143.359 106.57 142.885 107.045 142.885 107.625C142.885 108.205 143.359 108.68 143.939 108.68ZM148.773 114.445V112.828H161.852V114.445H148.773ZM168.197 119.227C170.825 119.077 172.873 117.908 173.436 116.291C172.803 116.757 171.924 117.047 170.957 117.047C168.83 117.047 167.441 115.711 167.441 113.654C167.441 111.58 168.918 110.244 171.133 110.244C171.933 110.244 172.609 110.429 173.189 110.789V109.33H164.77V107.994H173.189V105.902H174.859V107.994H179.605V109.33H174.859V112.916C175.105 113.461 175.211 114.041 175.211 114.744C175.211 118.172 172.627 120.475 168.443 120.686L168.197 119.227ZM171.221 115.711C172.416 115.711 173.418 115.025 173.418 113.654C173.418 112.389 172.574 111.58 171.273 111.58C169.955 111.58 169.111 112.371 169.111 113.654C169.111 114.885 169.938 115.711 171.221 115.711ZM188.641 120.668C185.354 120.668 183.473 119.613 183.473 117.697C183.473 116.098 184.896 115.131 187.27 115.131C189.52 115.131 190.68 115.975 190.68 117.627C190.68 118.128 190.583 118.664 190.363 119.262C192.868 118.919 194.107 117.794 194.107 115.904C194.107 113.9 192.684 112.969 189.625 112.969C187.955 112.969 186.531 113.303 185.336 114.023L183.051 115.377L182.383 114.129L191.822 108.662H183.35V107.238H194.705V108.662L189.221 111.773C189.678 111.729 190.1 111.703 190.469 111.703C193.861 111.703 195.795 113.18 195.795 115.816C195.795 118.945 193.229 120.668 188.641 120.668ZM185.055 117.68C185.055 118.77 186.303 119.385 188.465 119.385H188.746C189.045 118.673 189.168 118.189 189.168 117.785C189.168 116.871 188.5 116.396 187.146 116.396C185.811 116.396 185.055 116.871 185.055 117.68ZM206.113 120.246C202.211 120.246 199.645 118.857 199.645 116.748C199.645 115.588 200.4 114.234 201.982 112.582L203.406 113.32C202.053 114.691 201.35 115.799 201.35 116.59C201.35 117.891 203.248 118.77 206.113 118.77C207.871 118.77 210.244 118.453 211.686 118.014L212.02 119.49C210.596 119.93 208.047 120.246 206.113 120.246ZM200.488 108.979V107.484H211.562V108.979H200.488ZM222.83 120.527C218.664 120.527 216.484 119.227 216.484 116.766C216.484 115.078 217.469 113.654 219.613 112.371C219.051 110.402 218.655 108.53 218.4 106.588L220.088 106.359C220.325 108.144 220.668 109.849 221.16 111.562C222.865 110.78 225.098 110.033 227.875 109.312L228.279 110.789C221.266 112.635 218.189 114.428 218.189 116.643C218.189 118.225 219.754 119.033 222.918 119.033C224.43 119.033 226.117 118.84 228.49 118.453L228.701 119.93C226.627 120.299 224.588 120.527 222.83 120.527ZM232.287 120.035C233.825 116.3 234.739 113.681 235.486 110.332H232.041V108.891H235.803C235.97 108.012 236.146 107.08 236.312 106.061L237.93 106.254C237.771 107.186 237.613 108.056 237.455 108.891H239.02C242.764 108.891 243.168 109.365 243.168 113.654C243.168 117.943 242.166 120.158 240.145 120.158C239.301 120.158 237.596 119.754 236.295 119.279L236.682 117.873C237.789 118.295 239.16 118.629 239.705 118.629C240.883 118.629 241.533 116.924 241.533 113.461C241.533 110.684 241.287 110.332 239.178 110.332H237.156C236.365 113.812 235.39 116.713 233.799 120.545L232.287 120.035ZM246.051 117.855C245.734 115.816 245.049 113.232 244.258 111.053L245.787 110.578C246.578 112.811 247.281 115.43 247.633 117.592L246.051 117.855ZM244.205 110.051C243.625 108.82 243.08 107.924 242.412 106.992L243.52 106.342C244.258 107.291 244.785 108.275 245.365 109.488L244.205 110.051ZM246.525 109.137C245.963 107.889 245.436 106.975 244.785 106.061L245.875 105.445C246.613 106.43 247.141 107.414 247.686 108.609L246.525 109.137ZM259.076 120.439C255.086 120.439 252.502 118.154 252.502 114.621C252.502 112.143 253.803 110.095 255.895 108.979L248.688 109.154V107.678L262.82 107.344V108.803L260.693 108.855C256.932 108.961 254.26 111.193 254.26 114.463C254.26 117.188 256.105 118.893 259.094 118.893C259.691 118.893 260.676 118.84 261.256 118.734L261.449 120.246C260.781 120.369 259.779 120.439 259.076 120.439ZM261.133 115.324C260.605 114.182 260.043 113.18 259.287 112.072L260.465 111.404C261.238 112.529 261.801 113.531 262.346 114.744L261.133 115.324ZM263.699 114.357C263.207 113.197 262.662 112.178 261.906 111.088L263.102 110.455C263.84 111.58 264.402 112.6 264.912 113.812L263.699 114.357ZM274.246 120.51C270.168 120.51 267.602 119.297 267.602 117.311C267.584 116.186 268.428 115.078 269.887 114.428L270.994 115.342C269.887 115.869 269.324 116.502 269.359 117.188C269.395 118.383 271.135 119.068 274.123 119.068C275.793 119.068 277.709 118.857 279.221 118.488L279.467 119.93C277.885 120.299 276.004 120.51 274.246 120.51ZM266.793 113.338V111.984L274.334 111.773C274.141 111.018 273.991 110.235 273.877 109.436L266.969 109.629V108.24L273.684 108.064C273.613 107.396 273.552 106.711 273.508 106.008L275.16 105.902C275.195 106.632 275.257 107.344 275.336 108.012L279.906 107.906V109.277L275.529 109.4C275.652 110.191 275.819 110.974 276.021 111.738L280.082 111.633V113.004L276.391 113.092C276.751 114.261 277.19 115.421 277.727 116.643L276.057 117.029C275.503 115.729 275.046 114.445 274.686 113.127L266.793 113.338ZM288.01 120.51C285.426 120.51 283.984 119.473 283.984 117.609C283.984 115.729 285.408 114.727 288.01 114.727C288.897 114.727 289.75 114.841 290.611 115.096V112.793H283.844V111.404H290.611V109.33H283.668V107.924H290.611V106.096H292.176V107.924H296.957V109.33H292.176V111.404H296.781V112.793H292.176V115.711C293.608 116.405 295.129 117.504 296.922 119.086L295.885 120.141C294.452 118.901 293.239 117.987 292.158 117.328C291.938 119.473 290.585 120.51 288.01 120.51ZM285.619 117.574C285.619 118.576 286.428 119.104 287.975 119.104C289.803 119.104 290.611 118.365 290.611 116.73V116.572C289.715 116.238 288.88 116.08 288.01 116.08C286.41 116.08 285.619 116.572 285.619 117.574ZM303.197 119.227C305.825 119.077 307.873 117.908 308.436 116.291C307.803 116.757 306.924 117.047 305.957 117.047C303.83 117.047 302.441 115.711 302.441 113.654C302.441 111.58 303.918 110.244 306.133 110.244C306.933 110.244 307.609 110.429 308.189 110.789V109.33H299.77V107.994H308.189V105.902H309.859V107.994H314.605V109.33H309.859V112.916C310.105 113.461 310.211 114.041 310.211 114.744C310.211 118.172 307.627 120.475 303.443 120.686L303.197 119.227ZM306.221 115.711C307.416 115.711 308.418 115.025 308.418 113.654C308.418 112.389 307.574 111.58 306.273 111.58C304.955 111.58 304.111 112.371 304.111 113.654C304.111 114.885 304.938 115.711 306.221 115.711ZM319.404 121.107C317.699 121.107 316.574 119.982 316.574 118.295C316.574 116.607 317.699 115.465 319.404 115.465C321.092 115.465 322.217 116.607 322.217 118.295C322.217 119.982 321.092 121.107 319.404 121.107ZM319.404 119.824C320.318 119.824 320.916 119.209 320.916 118.295C320.916 117.381 320.318 116.766 319.404 116.766C318.49 116.766 317.857 117.381 317.857 118.295C317.857 119.209 318.49 119.824 319.404 119.824ZM338.635 120.51C336.051 120.51 334.609 119.473 334.609 117.609C334.609 115.729 336.033 114.727 338.635 114.727C339.522 114.727 340.375 114.841 341.236 115.096V112.793H334.469V111.404H341.236V109.33H334.293V107.924H341.236V106.096H342.801V107.924H347.582V109.33H342.801V111.404H347.406V112.793H342.801V115.711C344.233 116.405 345.754 117.504 347.547 119.086L346.51 120.141C345.077 118.901 343.864 117.987 342.783 117.328C342.563 119.473 341.21 120.51 338.635 120.51ZM336.244 117.574C336.244 118.576 337.053 119.104 338.6 119.104C340.428 119.104 341.236 118.365 341.236 116.73V116.572C340.34 116.238 339.505 116.08 338.635 116.08C337.035 116.08 336.244 116.572 336.244 117.574ZM350.922 120.404C351.994 116.985 352.864 113.373 353.523 109.699H350.658V108.258H353.752C353.866 107.528 353.972 106.808 354.068 106.078L355.703 106.148C355.615 106.852 355.519 107.555 355.422 108.258H362.436V109.699H355.193C354.552 113.408 353.664 117.161 352.557 120.703L350.922 120.404ZM361.258 120.334C358.252 120.334 356.301 119.244 356.301 117.521C356.301 116.607 356.898 115.799 358.199 114.867L359.447 115.711C358.48 116.326 358.023 116.871 358.023 117.363C358.023 118.242 359.307 118.857 361.258 118.857C362.295 118.857 363.42 118.752 364.615 118.523L364.809 120C363.578 120.246 362.436 120.334 361.258 120.334ZM356.916 111.914C359.535 111.633 362.049 111.492 364.58 111.492V112.934C362.084 112.934 359.605 113.057 357.004 113.355L356.916 111.914ZM370.926 120.984C369.871 119.613 368.729 118.418 367.322 117.398L368.447 116.256C369.836 117.328 371.102 118.594 372.174 120.018L370.926 120.984ZM139.879 139.293C139.879 138.045 139.809 137.043 139.668 136.252C137.189 137.315 135.713 138.52 135.713 139.592C135.713 140.646 137.102 141.244 139.598 141.244C141.004 141.244 142.762 141.051 144.643 140.699L144.871 142.105C143.201 142.404 141.074 142.615 139.58 142.615C136.117 142.615 134.061 141.561 134.061 139.732C134.061 138.01 135.968 136.287 139.229 134.916C138.798 134.116 138.147 133.773 137.225 133.773C135.537 133.773 134.219 134.898 132.355 137.939L131.002 137.148C132.479 134.819 133.507 133.035 134.377 131.084H131.02V129.748H134.922C135.142 129.177 135.361 128.579 135.572 127.938L137.207 128.219C137.022 128.746 136.829 129.256 136.645 129.748H144.414V131.084H136.082C135.766 131.805 135.423 132.499 135.062 133.193C135.889 132.736 136.785 132.508 137.682 132.508C139.141 132.508 140.134 133.07 140.74 134.318C141.953 133.905 143.298 133.527 144.766 133.211L144.994 134.564C143.605 134.881 142.322 135.25 141.197 135.654C141.408 136.612 141.514 137.825 141.514 139.293H139.879ZM149.793 140.857C155.673 140.286 159.865 136.516 160.27 131.576H153.256C152.096 133.299 150.531 134.863 148.65 136.182L147.578 135.039C150.127 133.211 152.271 130.574 153.238 128.008L154.891 128.307C154.68 128.913 154.425 129.511 154.135 130.1H161.992V130.785C161.992 136.973 157.193 141.701 150.268 142.352L149.793 140.857ZM167.424 140.893C173.945 140.717 176.178 138.924 176.178 133.896V128.729H177.936V133.861C177.936 139.873 175.035 142.281 167.6 142.439L167.424 140.893ZM166.545 136.463V128.729H168.303V136.463H166.545ZM185.16 140.682C191.119 140.049 193.141 137.816 193.193 131.91L194.74 131.963C194.688 138.643 192.121 141.49 185.424 142.158L185.16 140.682ZM184.668 137.201C184.299 135.549 183.877 133.967 183.402 132.613L184.896 132.227C185.336 133.51 185.758 135.074 186.145 136.885L184.668 137.201ZM188.518 136.92C188.184 135.232 187.762 133.562 187.252 132.139L188.746 131.77C189.221 133.264 189.678 134.951 190.012 136.604L188.518 136.92ZM200.418 140.857C206.298 140.286 210.49 136.516 210.895 131.576H203.881C202.721 133.299 201.156 134.863 199.275 136.182L198.203 135.039C200.752 133.211 202.896 130.574 203.863 128.008L205.516 128.307C205.305 128.913 205.05 129.511 204.76 130.1H212.617V130.785C212.617 136.973 207.818 141.701 200.893 142.352L200.418 140.857ZM218.822 141.227C221.45 141.077 223.498 139.908 224.061 138.291C223.428 138.757 222.549 139.047 221.582 139.047C219.455 139.047 218.066 137.711 218.066 135.654C218.066 133.58 219.543 132.244 221.758 132.244C222.558 132.244 223.234 132.429 223.814 132.789V131.33H215.395V129.994H223.814V127.902H225.484V129.994H230.23V131.33H225.484V134.916C225.73 135.461 225.836 136.041 225.836 136.744C225.836 140.172 223.252 142.475 219.068 142.686L218.822 141.227ZM221.846 137.711C223.041 137.711 224.043 137.025 224.043 135.654C224.043 134.389 223.199 133.58 221.898 133.58C220.58 133.58 219.736 134.371 219.736 135.654C219.736 136.885 220.562 137.711 221.846 137.711ZM239.266 142.668C235.979 142.668 234.098 141.613 234.098 139.697C234.098 138.098 235.521 137.131 237.895 137.131C240.145 137.131 241.305 137.975 241.305 139.627C241.305 140.128 241.208 140.664 240.988 141.262C243.493 140.919 244.732 139.794 244.732 137.904C244.732 135.9 243.309 134.969 240.25 134.969C238.58 134.969 237.156 135.303 235.961 136.023L233.676 137.377L233.008 136.129L242.447 130.662H233.975V129.238H245.33V130.662L239.846 133.773C240.303 133.729 240.725 133.703 241.094 133.703C244.486 133.703 246.42 135.18 246.42 137.816C246.42 140.945 243.854 142.668 239.266 142.668ZM235.68 139.68C235.68 140.77 236.928 141.385 239.09 141.385H239.371C239.67 140.673 239.793 140.189 239.793 139.785C239.793 138.871 239.125 138.396 237.771 138.396C236.436 138.396 235.68 138.871 235.68 139.68ZM256.58 142.527C252.414 142.527 250.234 141.227 250.234 138.766C250.234 137.078 251.219 135.654 253.363 134.371C252.801 132.402 252.405 130.53 252.15 128.588L253.838 128.359C254.075 130.144 254.418 131.849 254.91 133.562C256.615 132.78 258.848 132.033 261.625 131.312L262.029 132.789C255.016 134.635 251.939 136.428 251.939 138.643C251.939 140.225 253.504 141.033 256.668 141.033C258.18 141.033 259.867 140.84 262.24 140.453L262.451 141.93C260.377 142.299 258.338 142.527 256.58 142.527ZM274.342 131.398V135.034H280.282V131.398H274.342ZM273.028 130.21H281.668V136.204H273.028V130.21ZM279.886 126.844L281.254 127.258C281.026 127.774 280.774 128.308 280.498 128.86C280.234 129.4 279.988 129.862 279.76 130.246L278.608 129.868C278.752 129.592 278.908 129.28 279.076 128.932C279.244 128.572 279.394 128.212 279.526 127.852C279.67 127.48 279.79 127.144 279.886 126.844ZM273.424 127.348L274.612 126.952C274.912 127.396 275.188 127.888 275.44 128.428C275.704 128.968 275.896 129.442 276.016 129.85L274.774 130.318C274.666 129.91 274.486 129.43 274.234 128.878C273.982 128.314 273.712 127.804 273.424 127.348ZM277.924 135.916H279.202V141.55C279.202 141.778 279.226 141.928 279.274 142C279.334 142.06 279.454 142.09 279.634 142.09C279.694 142.09 279.802 142.09 279.958 142.09C280.114 142.09 280.276 142.09 280.444 142.09C280.612 142.09 280.732 142.09 280.804 142.09C280.936 142.09 281.038 142.03 281.11 141.91C281.182 141.778 281.236 141.514 281.272 141.118C281.308 140.71 281.332 140.104 281.344 139.3C281.44 139.372 281.554 139.444 281.686 139.516C281.83 139.588 281.974 139.654 282.118 139.714C282.262 139.762 282.394 139.804 282.514 139.84C282.478 140.764 282.406 141.478 282.298 141.982C282.202 142.486 282.046 142.834 281.83 143.026C281.626 143.218 281.332 143.314 280.948 143.314C280.888 143.314 280.786 143.314 280.642 143.314C280.51 143.314 280.36 143.314 280.192 143.314C280.036 143.314 279.886 143.314 279.742 143.314C279.61 143.314 279.514 143.314 279.454 143.314C279.034 143.314 278.716 143.26 278.5 143.152C278.284 143.044 278.134 142.864 278.05 142.612C277.966 142.36 277.924 142.012 277.924 141.568V135.916ZM274.972 135.952H276.322C276.262 136.78 276.166 137.572 276.034 138.328C275.902 139.072 275.704 139.768 275.44 140.416C275.176 141.052 274.81 141.634 274.342 142.162C273.886 142.69 273.298 143.152 272.578 143.548C272.53 143.428 272.452 143.302 272.344 143.17C272.248 143.038 272.14 142.906 272.02 142.774C271.912 142.654 271.804 142.558 271.696 142.486C272.548 142.054 273.202 141.508 273.658 140.848C274.114 140.188 274.432 139.444 274.612 138.616C274.792 137.788 274.912 136.9 274.972 135.952ZM266.548 132.424H271.624V133.504H266.548V132.424ZM266.656 127.51H271.606V128.59H266.656V127.51ZM266.548 134.89H271.624V135.952H266.548V134.89ZM265.684 129.922H272.236V131.038H265.684V129.922ZM267.178 137.356H271.732V142.594H267.178V141.496H270.526V138.472H267.178V137.356ZM266.512 137.356H267.7V143.422H266.512V137.356ZM285.196 127.978H290.344V138.724H285.196V137.464H289.084V129.22H285.196V127.978ZM285.196 132.658H289.642V133.882H285.196V132.658ZM292.81 127.654H298.876V128.914H292.81V127.654ZM292.81 132.028H298.876V133.252H292.81V132.028ZM292.684 136.438H298.84V137.662H292.684V136.438ZM284.44 127.978H285.718V140.416H284.44V127.978ZM298.372 127.654H299.704V141.658C299.704 142.078 299.644 142.402 299.524 142.63C299.416 142.87 299.218 143.044 298.93 143.152C298.63 143.26 298.228 143.326 297.724 143.35C297.22 143.386 296.578 143.404 295.798 143.404C295.786 143.284 295.75 143.14 295.69 142.972C295.642 142.816 295.582 142.654 295.51 142.486C295.45 142.33 295.384 142.192 295.312 142.072C295.708 142.084 296.08 142.09 296.428 142.09C296.788 142.102 297.1 142.102 297.364 142.09C297.64 142.09 297.826 142.09 297.922 142.09C298.09 142.09 298.204 142.06 298.264 142C298.336 141.928 298.372 141.814 298.372 141.658V127.654ZM292.018 127.654H293.332V134.08C293.332 134.836 293.29 135.64 293.206 136.492C293.122 137.332 292.954 138.178 292.702 139.03C292.462 139.87 292.096 140.68 291.604 141.46C291.112 142.24 290.458 142.942 289.642 143.566C289.582 143.47 289.492 143.362 289.372 143.242C289.252 143.122 289.126 143.002 288.994 142.882C288.862 142.774 288.748 142.69 288.652 142.63C289.42 142.054 290.026 141.418 290.47 140.722C290.914 140.014 291.25 139.282 291.478 138.526C291.706 137.77 291.85 137.014 291.91 136.258C291.982 135.502 292.018 134.77 292.018 134.062V127.654ZM302.037 142.035C303.575 138.3 304.489 135.681 305.236 132.332H301.791V130.891H305.553C305.72 130.012 305.896 129.08 306.062 128.061L307.68 128.254C307.521 129.186 307.363 130.056 307.205 130.891H308.77C312.514 130.891 312.918 131.365 312.918 135.654C312.918 139.943 311.916 142.158 309.895 142.158C309.051 142.158 307.346 141.754 306.045 141.279L306.432 139.873C307.539 140.295 308.91 140.629 309.455 140.629C310.633 140.629 311.283 138.924 311.283 135.461C311.283 132.684 311.037 132.332 308.928 132.332H306.906C306.115 135.812 305.14 138.713 303.549 142.545L302.037 142.035ZM315.801 139.855C315.484 137.816 314.799 135.232 314.008 133.053L315.537 132.578C316.328 134.811 317.031 137.43 317.383 139.592L315.801 139.855ZM313.955 132.051C313.375 130.82 312.83 129.924 312.162 128.992L313.27 128.342C314.008 129.291 314.535 130.275 315.115 131.488L313.955 132.051ZM316.275 131.137C315.713 129.889 315.186 128.975 314.535 128.061L315.625 127.445C316.363 128.43 316.891 129.414 317.436 130.609L316.275 131.137ZM319.675 128.374H334.111V129.562H319.675V128.374ZM320.485 131.038H333.409V132.154H320.485V131.038ZM319.009 133.792H334.741V134.962H319.009V133.792ZM326.155 126.88H327.523V134.71H326.155V126.88ZM326.101 134.188L327.253 134.746C326.785 135.25 326.239 135.748 325.615 136.24C324.991 136.72 324.319 137.17 323.599 137.59C322.891 138.01 322.165 138.394 321.421 138.742C320.677 139.078 319.957 139.36 319.261 139.588C319.201 139.48 319.117 139.36 319.009 139.228C318.901 139.084 318.793 138.946 318.685 138.814C318.577 138.682 318.475 138.568 318.379 138.472C319.075 138.28 319.789 138.034 320.521 137.734C321.253 137.422 321.961 137.08 322.645 136.708C323.341 136.324 323.983 135.922 324.571 135.502C325.171 135.07 325.681 134.632 326.101 134.188ZM328.063 134.368C328.423 135.64 328.921 136.798 329.557 137.842C330.205 138.886 331.003 139.78 331.951 140.524C332.911 141.256 334.027 141.814 335.299 142.198C335.203 142.282 335.095 142.396 334.975 142.54C334.867 142.684 334.759 142.828 334.651 142.972C334.555 143.116 334.471 143.254 334.399 143.386C333.079 142.93 331.927 142.294 330.943 141.478C329.971 140.65 329.143 139.66 328.459 138.508C327.787 137.356 327.247 136.06 326.839 134.62L328.063 134.368ZM333.193 135.574L334.255 136.402C333.835 136.738 333.373 137.08 332.869 137.428C332.377 137.776 331.879 138.112 331.375 138.436C330.883 138.748 330.421 139.024 329.989 139.264L329.143 138.508C329.575 138.256 330.037 137.962 330.529 137.626C331.021 137.29 331.501 136.942 331.969 136.582C332.437 136.222 332.845 135.886 333.193 135.574ZM320.395 142.18C321.079 142.036 321.877 141.856 322.789 141.64C323.701 141.412 324.667 141.172 325.687 140.92C326.719 140.668 327.745 140.416 328.765 140.164L328.909 141.37C327.961 141.622 327.001 141.868 326.029 142.108C325.057 142.36 324.127 142.594 323.239 142.81C322.351 143.038 321.547 143.248 320.827 143.44L320.395 142.18ZM322.933 137.536L323.905 136.564L324.265 136.672V142.108H322.933V137.536ZM344.173 133.288H345.631V141.676C345.631 142.108 345.565 142.438 345.433 142.666C345.313 142.894 345.091 143.068 344.767 143.188C344.443 143.296 344.011 143.362 343.471 143.386C342.943 143.41 342.277 143.422 341.473 143.422C341.449 143.218 341.389 142.978 341.293 142.702C341.197 142.438 341.095 142.204 340.987 142C341.395 142.012 341.785 142.024 342.157 142.036C342.541 142.048 342.871 142.048 343.147 142.036C343.435 142.036 343.633 142.036 343.741 142.036C343.909 142.024 344.023 141.994 344.083 141.946C344.143 141.898 344.173 141.802 344.173 141.658V133.288ZM340.087 135.682L341.473 136.06C341.185 136.792 340.837 137.512 340.429 138.22C340.033 138.928 339.601 139.588 339.133 140.2C338.677 140.812 338.215 141.346 337.747 141.802C337.663 141.718 337.543 141.628 337.387 141.532C337.231 141.424 337.069 141.322 336.901 141.226C336.745 141.118 336.613 141.04 336.505 140.992C337.237 140.356 337.915 139.57 338.539 138.634C339.175 137.686 339.691 136.702 340.087 135.682ZM348.187 136.24L349.429 135.718C349.873 136.27 350.305 136.876 350.725 137.536C351.157 138.196 351.547 138.844 351.895 139.48C352.243 140.116 352.507 140.692 352.687 141.208L351.337 141.82C351.181 141.316 350.935 140.74 350.599 140.092C350.263 139.444 349.885 138.784 349.465 138.112C349.045 137.428 348.619 136.804 348.187 136.24ZM338.557 128.212H351.229V129.544H338.557V128.212ZM336.955 132.586H352.813V133.918H336.955V132.586ZM363.086 142.404C358.797 142.404 356.055 140.822 356.055 138.291C356.055 136.779 357.092 135.303 358.832 134.178L360.168 134.969C358.639 136.006 357.795 137.166 357.795 138.238C357.795 139.891 359.729 140.875 363.051 140.875C364.721 140.875 366.602 140.646 368.254 140.225L368.482 141.736C366.742 142.158 364.773 142.404 363.086 142.404ZM355.492 132.139V130.75L363.209 130.539C363.104 129.827 363.024 129.089 362.98 128.324L364.615 128.236C364.668 129.027 364.738 129.783 364.844 130.504L369.133 130.398V131.805L365.09 131.893C365.494 133.923 366.145 135.812 367.129 137.852L365.477 138.309C364.51 136.217 363.833 134.16 363.42 131.945L355.492 132.139ZM384.672 142C383.336 142 382.738 141.297 382.738 139.768V133.404C382.738 132.016 382.334 131.365 381.525 131.365C380.664 131.365 379.504 132.156 376.656 134.828V142.791H375.057V136.234C374.178 137.122 373.167 138.168 371.963 139.381L371.066 138.062C372.64 136.524 373.949 135.259 375.057 134.23V132.455H371.189V131.031H375.057V128.465H376.656V132.771C379.319 130.416 380.488 129.836 381.736 129.836C383.477 129.836 384.373 130.943 384.373 133V139.029C384.373 140.154 384.531 140.453 385.006 140.453C385.463 140.453 386.201 140.172 387.062 139.627L387.537 141.051C386.518 141.684 385.568 142 384.672 142ZM393.76 142.51C391.176 142.51 389.734 141.473 389.734 139.609C389.734 137.729 391.158 136.727 393.76 136.727C394.647 136.727 395.5 136.841 396.361 137.096V134.793H389.594V133.404H396.361V131.33H389.418V129.924H396.361V128.096H397.926V129.924H402.707V131.33H397.926V133.404H402.531V134.793H397.926V137.711C399.358 138.405 400.879 139.504 402.672 141.086L401.635 142.141C400.202 140.901 398.989 139.987 397.908 139.328C397.688 141.473 396.335 142.51 393.76 142.51ZM391.369 139.574C391.369 140.576 392.178 141.104 393.725 141.104C395.553 141.104 396.361 140.365 396.361 138.73V138.572C395.465 138.238 394.63 138.08 393.76 138.08C392.16 138.08 391.369 138.572 391.369 139.574ZM408.947 141.227C411.575 141.077 413.623 139.908 414.186 138.291C413.553 138.757 412.674 139.047 411.707 139.047C409.58 139.047 408.191 137.711 408.191 135.654C408.191 133.58 409.668 132.244 411.883 132.244C412.683 132.244 413.359 132.429 413.939 132.789V131.33H405.52V129.994H413.939V127.902H415.609V129.994H420.355V131.33H415.609V134.916C415.855 135.461 415.961 136.041 415.961 136.744C415.961 140.172 413.377 142.475 409.193 142.686L408.947 141.227ZM411.971 137.711C413.166 137.711 414.168 137.025 414.168 135.654C414.168 134.389 413.324 133.58 412.023 133.58C410.705 133.58 409.861 134.371 409.861 135.654C409.861 136.885 410.688 137.711 411.971 137.711ZM425.154 143.107C423.449 143.107 422.324 141.982 422.324 140.295C422.324 138.607 423.449 137.465 425.154 137.465C426.842 137.465 427.967 138.607 427.967 140.295C427.967 141.982 426.842 143.107 425.154 143.107ZM425.154 141.824C426.068 141.824 426.666 141.209 426.666 140.295C426.666 139.381 426.068 138.766 425.154 138.766C424.24 138.766 423.607 139.381 423.607 140.295C423.607 141.209 424.24 141.824 425.154 141.824Z" fill="#605070"/>
<path d="M381 110V108C381 107.47 381.211 106.961 381.586 106.586C381.961 106.211 382.47 106 383 106H385M381 118V120C381 120.53 381.211 121.039 381.586 121.414C381.961 121.789 382.47 122 383 122H385M393 106H395C395.53 106 396.039 106.211 396.414 106.586C396.789 106.961 397 107.47 397 108V110" stroke="#605070" stroke-width="2" stroke-linecap="round" stroke-linejoin="round"/>
<path d="M395.667 120.674L392.333 117.341M385 114.008C385 114.533 385.103 115.053 385.304 115.539C385.506 116.024 385.8 116.465 386.172 116.836C386.543 117.208 386.984 117.502 387.469 117.703C387.955 117.904 388.475 118.008 389 118.008C389.525 118.008 390.045 117.904 390.531 117.703C391.016 117.502 391.457 117.208 391.828 116.836C392.2 116.465 392.495 116.024 392.696 115.539C392.897 115.053 393 114.533 393 114.008C393 112.947 392.579 111.93 391.828 111.179C391.078 110.429 390.061 110.008 389 110.008C387.939 110.008 386.922 110.429 386.172 111.179C385.421 111.93 385 112.947 385 114.008Z" stroke="#605070" stroke-width="2" stroke-linecap="round" stroke-linejoin="round"/>
<path d="M435.692 68.1538C435.692 66.7944 436.794 65.6923 438.154 65.6923H445.538C446.898 65.6923 448 66.7944 448 68.1538V75.5385C448 76.8979 446.898 78 445.538 78H438.154C436.794 78 435.692 76.8979 435.692 75.5385V68.1538Z" fill="#605070"/>
<path d="M444.308 65.6923V64.4615C444.308 63.1021 443.206 62 441.846 62H434.462C433.102 62 432 63.1021 432 64.4615V71.8462C432 73.2056 433.102 74.3077 434.462 74.3077H435.692M438.154 78H445.538C446.898 78 448 76.8979 448 75.5385V68.1538C448 66.7944 446.898 65.6923 445.538 65.6923H438.154C436.794 65.6923 435.692 66.7944 435.692 68.1538V75.5385C435.692 76.8979 436.794 78 438.154 78Z" stroke="#605070" stroke-width="1.45455" stroke-miterlimit="16" stroke-linecap="round"/>
<path d="M437.817 74.8425C437.817 75.0997 437.919 75.3464 438.101 75.5282C438.283 75.7101 438.529 75.8122 438.786 75.8122C439.756 75.8122 439.756 73.8728 440.241 71.4486C440.726 69.0244 440.726 67.085 441.696 67.085C441.953 67.085 442.199 67.1871 442.381 67.369C442.563 67.5508 442.665 67.7975 442.665 68.0547M438.544 70.7213H442.18M442.908 72.9031L444.362 74.3577M445.817 75.8122L444.362 74.3577M442.908 75.8122L444.362 74.3577M445.817 72.9031L444.362 74.3577" stroke="white" stroke-width="1.09091" stroke-linecap="round" stroke-linejoin="round"/>
</svg>
