<svg width="480" height="220" viewBox="0 0 480 220" fill="none" xmlns="http://www.w3.org/2000/svg">
<mask id="path-1-inside-1_641_272" fill="white">
<path fill-rule="evenodd" clip-rule="evenodd" d="M32 0C14.3269 0 0 14.3269 0 32V123C0 140.673 14.3269 155 32 155H43.6706L34.3576 192.904C33.1631 197.765 39.0614 201.17 42.6741 197.705L87.2003 155H448C465.673 155 480 140.673 480 123V32C480 14.3269 465.673 0 448 0H32Z"/>
</mask>
<path fill-rule="evenodd" clip-rule="evenodd" d="M32 0C14.3269 0 0 14.3269 0 32V123C0 140.673 14.3269 155 32 155H43.6706L34.3576 192.904C33.1631 197.765 39.0614 201.17 42.6741 197.705L87.2003 155H448C465.673 155 480 140.673 480 123V32C480 14.3269 465.673 0 448 0H32Z" fill="#F6EEFF"/>
<path d="M43.6706 155L49.4973 156.432L51.3233 149H43.6706V155ZM34.3576 192.904L40.1843 194.335L40.1843 194.335L34.3576 192.904ZM42.6741 197.705L38.521 193.375L38.521 193.375L42.6741 197.705ZM87.2003 155V149H84.788L83.0471 150.67L87.2003 155ZM6 32C6 17.6406 17.6406 6 32 6V-6C11.0132 -6 -6 11.0132 -6 32H6ZM6 123V32H-6V123H6ZM32 149C17.6406 149 6 137.359 6 123H-6C-6 143.987 11.0132 161 32 161V149ZM43.6706 149H32V161H43.6706V149ZM40.1843 194.335L49.4973 156.432L37.8439 153.568L28.5309 191.472L40.1843 194.335ZM38.521 193.375C38.6057 193.294 38.8393 193.152 39.1547 193.124C39.4178 193.101 39.6029 193.167 39.7132 193.231C39.8234 193.294 39.9736 193.421 40.085 193.661C40.2186 193.948 40.2123 194.221 40.1843 194.335L28.5309 191.472C25.9031 202.167 38.8793 209.659 46.8273 202.036L38.521 193.375ZM83.0471 150.67L38.521 193.375L46.8273 202.036L91.3535 159.33L83.0471 150.67ZM448 149H87.2003V161H448V149ZM474 123C474 137.359 462.359 149 448 149V161C468.987 161 486 143.987 486 123H474ZM474 32V123H486V32H474ZM448 6C462.359 6 474 17.6406 474 32H486C486 11.0132 468.987 -6 448 -6V6ZM32 6H448V-6H32V6Z" fill="#605070" mask="url(#path-1-inside-1_641_272)"/>
<rect x="30" y="30" width="80" height="80" rx="15" fill="#605070"/>
<path d="M49.5459 59.7898V54.6761C49.5459 53.3199 50.0847 52.0192 51.0436 51.0602C52.0026 50.1013 53.3033 49.5625 54.6595 49.5625H59.7732M49.5459 80.2443V85.358C49.5459 86.7142 50.0847 88.0148 51.0436 88.9738C52.0026 89.9328 53.3033 90.4716 54.6595 90.4716H59.7732M80.2277 49.5625H85.3413C86.6976 49.5625 87.9982 50.1013 88.9572 51.0602C89.9162 52.0192 90.455 53.3199 90.455 54.6761V59.7898" stroke="white" stroke-width="3.6" stroke-linecap="round" stroke-linejoin="round"/>
<path d="M87.0452 87.0696L78.5225 78.5469M59.7725 70.0242C59.7725 71.3672 60.037 72.6971 60.551 73.938C61.0649 75.1788 61.8183 76.3062 62.768 77.2559C63.7176 78.2056 64.8451 78.959 66.0859 79.4729C67.3268 79.9869 68.6567 80.2514 69.9997 80.2514C71.3428 80.2514 72.6727 79.9869 73.9135 79.4729C75.1544 78.959 76.2818 78.2056 77.2315 77.2559C78.1812 76.3062 78.9345 75.1788 79.4485 73.938C79.9625 72.6971 80.227 71.3672 80.227 70.0242C80.227 67.3117 79.1495 64.7104 77.2315 62.7924C75.3135 60.8744 72.7122 59.7969 69.9997 59.7969C67.2873 59.7969 64.6859 60.8744 62.768 62.7924C60.85 64.7104 59.7725 67.3117 59.7725 70.0242Z" stroke="white" stroke-width="3.6" stroke-linecap="round" stroke-linejoin="round"/>
<path d="M135.156 32.9375V50H131.441V32.9375H135.156ZM139.48 32.9375H142.609L145.703 44.6797L148.785 32.9375H151.727L147.004 50H144.391L139.48 32.9375ZM137.875 32.9375H141.004L141.543 45.0664V50H137.875V32.9375ZM150.391 32.9375H153.52V50H149.863V45.0664L150.391 32.9375ZM162.613 36.2539L159.191 50H155.219L160.527 32.9375H163L162.613 36.2539ZM165.309 50L161.875 36.2539L161.43 32.9375H163.949L169.281 50H165.309ZM165.438 43.6367V46.6484H157.879V43.6367H165.438ZM182.289 40.9531V48.043C182.039 48.3008 181.668 48.6016 181.176 48.9453C180.691 49.2891 180.066 49.5898 179.301 49.8477C178.543 50.1055 177.633 50.2344 176.57 50.2344C175.609 50.2344 174.738 50.0859 173.957 49.7891C173.184 49.4922 172.52 49.043 171.965 48.4414C171.418 47.832 170.996 47.0703 170.699 46.1562C170.41 45.2422 170.266 44.1562 170.266 42.8984V40.0391C170.266 38.7969 170.41 37.7148 170.699 36.793C170.988 35.8711 171.402 35.1055 171.941 34.4961C172.48 33.8867 173.121 33.4336 173.863 33.1367C174.605 32.8398 175.441 32.6914 176.371 32.6914C177.691 32.6914 178.777 32.9141 179.629 33.3594C180.48 33.8047 181.121 34.4531 181.551 35.3047C181.98 36.1562 182.223 37.1992 182.277 38.4336H178.703C178.656 37.7461 178.547 37.2031 178.375 36.8047C178.211 36.4062 177.973 36.1211 177.66 35.9492C177.355 35.7773 176.961 35.6914 176.477 35.6914C176.07 35.6914 175.711 35.7695 175.398 35.9258C175.094 36.0742 174.836 36.3203 174.625 36.6641C174.422 37 174.27 37.4453 174.168 38C174.066 38.5469 174.016 39.2188 174.016 40.0156V42.8984C174.016 43.6953 174.066 44.3711 174.168 44.9258C174.277 45.4727 174.441 45.918 174.66 46.2617C174.887 46.5977 175.176 46.8438 175.527 47C175.887 47.1484 176.312 47.2227 176.805 47.2227C177.164 47.2227 177.453 47.1836 177.672 47.1055C177.898 47.0273 178.082 46.9375 178.223 46.8359C178.371 46.7344 178.488 46.6641 178.574 46.625V43.6602H176.336V40.9531H182.289ZM194.547 46.9883V50H187.105V46.9883H194.547ZM188.336 32.9375V50H184.609V32.9375H188.336ZM193.562 39.7812V42.6875H187.105V39.7812H193.562ZM194.547 32.9375V35.9609H187.105V32.9375H194.547ZM211.82 46.9883V50H204.379V46.9883H211.82ZM205.609 32.9375V50H201.883V32.9375H205.609ZM210.836 39.7812V42.6875H204.379V39.7812H210.836ZM211.82 32.9375V35.9609H204.379V32.9375H211.82ZM216.977 32.9375L219.168 38.6094L221.277 32.9375H225.449L221.477 41.3867L225.531 50H221.254L219.074 44.2109L216.883 50H212.641L216.742 41.3516L212.734 32.9375H216.977ZM232.996 44.1055H229.539V41.082H232.996C233.441 41.082 233.801 40.9805 234.074 40.7773C234.348 40.5664 234.547 40.2812 234.672 39.9219C234.797 39.5547 234.859 39.1406 234.859 38.6797C234.859 38.1953 234.797 37.7461 234.672 37.332C234.547 36.918 234.348 36.5859 234.074 36.3359C233.801 36.0859 233.441 35.9609 232.996 35.9609H230.828V50H227.102V32.9375H232.996C234.16 32.9375 235.16 33.1836 235.996 33.6758C236.84 34.168 237.488 34.8438 237.941 35.7031C238.395 36.5625 238.621 37.5469 238.621 38.6562C238.621 39.7578 238.395 40.7148 237.941 41.5273C237.488 42.3398 236.84 42.9727 235.996 43.4258C235.16 43.8789 234.16 44.1055 232.996 44.1055ZM250.469 46.9883V50H243.332V46.9883H250.469ZM244.562 32.9375V50H240.836V32.9375H244.562ZM258.871 36.2539L255.449 50H251.477L256.785 32.9375H259.258L258.871 36.2539ZM261.566 50L258.133 36.2539L257.688 32.9375H260.207L265.539 50H261.566ZM261.695 43.6367V46.6484H254.137V43.6367H261.695ZM279.098 32.9375V50H275.453L270.625 39.3828V50H266.992V32.9375H270.637L275.477 43.6133V32.9375H279.098ZM288.168 36.2539L284.746 50H280.773L286.082 32.9375H288.555L288.168 36.2539ZM290.863 50L287.43 36.2539L286.984 32.9375H289.504L294.836 50H290.863ZM290.992 43.6367V46.6484H283.434V43.6367H290.992ZM302.008 32.9375V50H298.293V32.9375H302.008ZM306.191 32.9375V35.9609H294.203V32.9375H306.191ZM311.945 32.9375V50H308.23V32.9375H311.945ZM326.863 40.168V42.8867C326.863 44.0977 326.715 45.1641 326.418 46.0859C326.121 47 325.695 47.7656 325.141 48.3828C324.594 49 323.938 49.4648 323.172 49.7773C322.414 50.082 321.574 50.2344 320.652 50.2344C319.723 50.2344 318.875 50.082 318.109 49.7773C317.344 49.4648 316.684 49 316.129 48.3828C315.574 47.7656 315.145 47 314.84 46.0859C314.543 45.1641 314.395 44.0977 314.395 42.8867V40.168C314.395 38.9414 314.543 37.8633 314.84 36.9336C315.145 35.9961 315.57 35.2188 316.117 34.6016C316.672 33.9766 317.328 33.5039 318.086 33.1836C318.852 32.8633 319.699 32.7031 320.629 32.7031C321.559 32.7031 322.402 32.8633 323.16 33.1836C323.926 33.5039 324.582 33.9766 325.129 34.6016C325.684 35.2188 326.109 35.9961 326.406 36.9336C326.711 37.8633 326.863 38.9414 326.863 40.168ZM323.125 42.8867V40.1445C323.125 39.3555 323.07 38.6836 322.961 38.1289C322.859 37.5742 322.703 37.1211 322.492 36.7695C322.281 36.418 322.02 36.1602 321.707 35.9961C321.402 35.832 321.043 35.75 320.629 35.75C320.207 35.75 319.84 35.832 319.527 35.9961C319.215 36.1602 318.953 36.418 318.742 36.7695C318.539 37.1211 318.387 37.5742 318.285 38.1289C318.191 38.6836 318.145 39.3555 318.145 40.1445V42.8867C318.145 43.6523 318.195 44.3086 318.297 44.8555C318.398 45.4023 318.555 45.8477 318.766 46.1914C318.977 46.5352 319.238 46.7891 319.551 46.9531C319.863 47.1172 320.23 47.1992 320.652 47.1992C321.059 47.1992 321.414 47.1172 321.719 46.9531C322.031 46.7891 322.289 46.5352 322.492 46.1914C322.703 45.8477 322.859 45.4023 322.961 44.8555C323.07 44.3086 323.125 43.6523 323.125 42.8867ZM341.254 32.9375V50H337.609L332.781 39.3828V50H329.148V32.9375H332.793L337.633 43.6133V32.9375H341.254Z" fill="#605070"/>
<path d="M143.623 61.7441V77.5293H141.953V61.7441H143.623ZM135.203 62.9219C137.541 62.9219 139.264 65.0664 139.264 68.4414C139.264 71.834 137.541 73.9785 135.203 73.9785C132.83 73.9785 131.125 71.834 131.125 68.4414C131.125 65.0664 132.83 62.9219 135.203 62.9219ZM135.203 64.416C133.744 64.416 132.742 65.9629 132.742 68.4414C132.742 70.9375 133.744 72.4844 135.203 72.4844C136.645 72.4844 137.646 70.9375 137.646 68.4414C137.646 65.9629 136.645 64.416 135.203 64.416ZM154.398 63.2559V73.6094H147.016V63.2559H154.398ZM148.668 64.5742V72.2559H152.781V64.5742H148.668ZM159.18 61.7441V77.5293H157.51V61.7441H159.18ZM167.494 66.3848C167.494 69.0215 169.217 71.7461 171.643 72.7832L170.729 74.084C168.874 73.2666 167.397 71.5352 166.668 69.4258C165.938 71.6758 164.453 73.5918 162.625 74.4883L161.658 73.1699C164.031 72.0625 165.789 69.0918 165.807 66.3848V64.7148H162.203V63.3262H171.08V64.7148H167.494V66.3848ZM174.736 61.7441V77.4941H173.066V61.7441H174.736ZM186.812 62.4648C189.186 62.4648 190.908 63.7832 190.908 65.7344C190.908 67.668 189.186 69.0039 186.812 68.9863C184.439 69.0039 182.752 67.668 182.752 65.7344C182.752 63.7832 184.439 62.4648 186.812 62.4648ZM186.812 63.8184C185.389 63.8184 184.352 64.5742 184.369 65.7344C184.352 66.877 185.389 67.6328 186.812 67.6152C188.271 67.6328 189.309 66.877 189.309 65.7344C189.309 64.5742 188.271 63.8184 186.812 63.8184ZM194.74 61.7617V77.4941H193.088V61.7617H194.74ZM181.627 70.2168C184.527 70.2168 188.553 70.1465 191.998 69.6367L192.121 70.8848C190.688 71.1572 189.194 71.3242 187.744 71.4297V77.002H186.074V71.5176C184.545 71.5879 183.104 71.5967 181.855 71.6055L181.627 70.2168ZM210.754 61.7441V77.4941H209.154V61.7441H210.754ZM207.555 62.043V76.7207H205.955V69.127H204.18C204.039 72.2031 202.721 74.1191 200.77 74.1016C198.713 74.1191 197.377 71.957 197.377 68.5469C197.377 65.1367 198.713 62.9922 200.77 63.0098C202.686 62.9922 203.986 64.8115 204.18 67.7734H205.955V62.043H207.555ZM200.77 64.5742C199.627 64.5742 198.924 66.0332 198.924 68.5469C198.924 71.0605 199.627 72.5195 200.77 72.5195C201.93 72.5195 202.65 71.0605 202.65 68.5469C202.65 66.0332 201.93 64.5742 200.77 64.5742ZM225.115 63.3086V73.5391H217.75V63.3086H225.115ZM219.385 64.627V72.1855H223.463V64.627H219.385ZM229.422 61.7441V67.9141H231.953V69.3203H229.422V77.4941H227.752V61.7441H229.422ZM247.105 70.6914V72.0801H240.672V77.4941H239.037V72.0801H232.691V70.6914H247.105ZM239.863 62.3418C243.186 62.3418 245.471 63.6953 245.471 65.8398C245.471 67.9668 243.186 69.3027 239.863 69.3027C236.523 69.3027 234.256 67.9668 234.256 65.8398C234.256 63.6953 236.523 62.3418 239.863 62.3418ZM239.863 63.6777C237.525 63.6953 235.961 64.5039 235.979 65.8398C235.961 67.1582 237.525 67.9668 239.863 67.9668C242.201 67.9668 243.766 67.1582 243.766 65.8398C243.766 64.5039 242.201 63.6953 239.863 63.6777ZM256.264 63.9766C256.264 66.543 259.006 68.9688 262.029 69.5137L261.256 70.9023C258.742 70.3574 256.422 68.7051 255.402 66.4902C254.365 68.6875 252.054 70.3398 249.531 70.9023L248.793 69.5137C251.781 68.9512 254.506 66.543 254.506 63.9766V62.7812H256.264V63.9766ZM262.68 74.0312V75.4199H248.266V74.0312H262.68ZM278.219 68.9688V70.252H263.805V68.9688H278.219ZM276.443 71.3594V74.8223H267.197V76.123H276.936V77.3008H265.527V73.7148H274.791V72.5547H265.51V71.3594H276.443ZM276.408 62.1484V65.5586H267.303V66.7539H276.672V67.9316H265.65V64.4512H274.738V63.3262H265.615V62.1484H276.408ZM290.945 61.9199C294.496 61.9199 296.57 62.8867 296.57 64.627C296.57 66.2529 294.804 67.2021 291.736 67.334V68.4414H298.135V69.7773H283.773V68.4414H290.102V67.334C287.069 67.1846 285.32 66.2441 285.32 64.627C285.32 62.8867 287.395 61.9199 290.945 61.9199ZM290.945 63.168C288.432 63.1855 287.043 63.6953 287.061 64.627C287.043 65.6113 288.432 66.1035 290.945 66.1035C293.459 66.1035 294.848 65.6113 294.848 64.627C294.848 63.6953 293.459 63.1855 290.945 63.168ZM296.324 70.9551V74.6465H287.148V76.0527H296.764V77.3359H285.514V73.4512H294.672V72.2207H285.496V70.9551H296.324ZM312.408 61.7441V77.5293H310.738V61.7441H312.408ZM307.592 63.168V68.916H301.932V72.3613C304.48 72.3525 306.713 72.2383 309.35 71.7988L309.508 73.1699C306.713 73.6445 304.34 73.75 301.562 73.75H300.227V67.5801H305.887V64.5215H300.209V63.168H307.592ZM327.631 63.2559V64.8027C327.631 66.7539 327.631 68.9336 327.033 72.1504L325.346 71.9746C325.961 68.9336 325.961 66.7012 325.961 64.8027V64.6094H316.398V63.2559H327.631ZM329.248 73.9785V75.3672H314.887V73.9785H320.354V68.4238H322.006V73.9785H329.248ZM368.377 62.0078C371.928 62.0078 374.002 62.957 374.002 64.7148C374.002 66.4727 371.928 67.4395 368.377 67.4395C364.826 67.4395 362.752 66.4727 362.752 64.7148C362.752 62.957 364.826 62.0078 368.377 62.0078ZM368.377 63.2383C365.863 63.2383 364.475 63.7832 364.492 64.7148C364.475 65.6816 365.863 66.1914 368.377 66.1914C370.891 66.1914 372.279 65.6816 372.279 64.7148C372.279 63.7832 370.891 63.2383 368.377 63.2383ZM375.566 68.4062V69.7422H361.205V68.4062H375.566ZM373.756 70.9551V74.6465H364.58V76.0527H374.195V77.3359H362.945V73.4336H372.104V72.2031H362.928V70.9551H373.756ZM393.742 62.4473V63.6953C393.742 64.917 393.742 66.2969 393.391 68.0723H395.5V69.4258H381.174V68.0723H391.721C391.853 67.4219 391.94 66.833 392.002 66.2793L382.773 66.666L382.562 65.3652L392.072 65.1016C392.09 64.6357 392.09 64.2051 392.09 63.7832H382.967V62.4473H393.742ZM393.848 70.7441V74.5586H384.514V75.9824H394.41V77.3008H382.844V73.3105H392.195V72.0273H382.809V70.7441H393.848ZM409.773 61.7617V71.377H408.104V61.7617H409.773ZM409.773 72.1855V77.4941H408.104V73.5566H399.104V72.1855H409.773ZM404.746 62.6758V67.1758H399.174V69.1973C401.925 69.1885 403.955 69.0918 406.346 68.7402L406.557 70.0938C403.99 70.498 401.828 70.5684 398.857 70.5684H397.539V65.875H403.094V64.0293H397.504V62.6758H404.746ZM424.539 61.7441V68.125H427.07V69.5137H424.539V77.4941H422.887V61.7441H424.539ZM421.516 64.2051V65.5762H412.182V64.2051H416.066V61.9551H417.736V64.2051H421.516ZM416.91 66.7363C419.16 66.7363 420.812 68.248 420.83 70.3926C420.812 72.5547 419.16 74.0488 416.91 74.0664C414.643 74.0488 412.99 72.5547 412.99 70.3926C412.99 68.248 414.643 66.7363 416.91 66.7363ZM416.91 68.1074C415.574 68.1074 414.572 69.0391 414.59 70.3926C414.572 71.7637 415.574 72.6777 416.91 72.6602C418.246 72.6777 419.23 71.7637 419.23 70.3926C419.23 69.0391 418.246 68.1074 416.91 68.1074ZM138.613 85.0801V86.416H142.041V83.7617H143.711V95.2402H142.041V91.1621H138.613V92.5332H131.301V85.0801H138.613ZM132.953 86.4336V91.2148H136.979V86.4336H132.953ZM144.062 97.8066V99.1602H133.428V94.1855H135.115V97.8066H144.062ZM138.613 89.791H142.041V87.7871H138.613V89.791ZM163.662 83.7441V91.8477H161.992V87.8047H158.67V86.4512H161.992V83.7441H163.662ZM163.662 92.5859V96.5059H155.031V97.9648H164.207V99.3008H153.396V95.2402H162.01V93.9043H153.361V92.5859H163.662ZM156.068 85.625C156.068 87.6289 157.51 89.4922 159.883 90.248L159.004 91.5488C157.272 90.9512 155.963 89.7646 155.277 88.2617C154.583 89.9492 153.229 91.2764 151.375 91.918L150.479 90.582C152.939 89.791 154.398 87.8398 154.416 85.625V84.2539H156.068V85.625ZM179.219 83.7441V93.043H177.549V90.7051H174.121V91.9883H166.809V84.9219H174.121V86.2227H177.549V83.7441H179.219ZM168.461 86.2578V90.6523H172.486V86.2578H168.461ZM173.945 93.4824C177.25 93.4824 179.271 94.5723 179.271 96.4883C179.271 98.3867 177.25 99.4766 173.945 99.459C170.641 99.4766 168.602 98.3867 168.619 96.4883C168.602 94.5723 170.641 93.4824 173.945 93.4824ZM173.945 94.7656C171.643 94.7832 170.271 95.3809 170.271 96.4883C170.271 97.543 171.643 98.1758 173.945 98.1758C176.248 98.1758 177.619 97.543 177.619 96.4883C177.619 95.3809 176.248 94.7832 173.945 94.7656ZM174.121 89.3516H177.549V87.5586H174.121V89.3516ZM188.816 84.0078C192.367 84.0078 194.441 84.957 194.441 86.7148C194.441 88.4727 192.367 89.4395 188.816 89.4395C185.266 89.4395 183.191 88.4727 183.191 86.7148C183.191 84.957 185.266 84.0078 188.816 84.0078ZM188.816 85.2383C186.303 85.2383 184.914 85.7832 184.932 86.7148C184.914 87.6816 186.303 88.1914 188.816 88.1914C191.33 88.1914 192.719 87.6816 192.719 86.7148C192.719 85.7832 191.33 85.2383 188.816 85.2383ZM196.006 90.4062V91.7422H181.645V90.4062H196.006ZM194.195 92.9551V96.6465H185.02V98.0527H194.635V99.3359H183.385V95.4336H192.543V94.2031H183.367V92.9551H194.195ZM205.129 83.9902V85.3613H212.424V83.9902H214.094V89.2109H209.559V90.582H215.957V91.918H201.596V90.582H207.924V89.2109H203.477V83.9902H205.129ZM205.129 87.9453H212.424V86.5918H205.129V87.9453ZM214.146 93.0605V96.7344H204.971V98.0527H214.586V99.3359H203.336V95.5391H212.494V94.3086H203.318V93.0605H214.146ZM229.615 85.1328C229.598 87.2246 232.164 89.1934 235.258 89.5977L234.607 90.9688C232.032 90.5557 229.765 89.2197 228.754 87.3652C227.717 89.2285 225.458 90.5557 222.9 90.9688L222.232 89.5977C225.326 89.1934 227.857 87.2422 227.875 85.1328V84.2715H229.615V85.1328ZM235.908 92.5156V93.8867H229.51V99.4941H227.875V93.8867H221.547V92.5156H235.908ZM246.965 94.1504C246.965 95.5039 247.633 96.9365 249.057 97.7891C250.507 96.8662 251.219 95.3545 251.219 94.1504V93.3945H252.854V94.1504C252.854 95.7852 253.926 97.3672 255.982 98.0352L255.156 99.2656C253.601 98.7295 252.546 97.6836 251.992 96.3828C251.491 97.6572 250.551 98.8086 249.109 99.4062C247.598 98.835 246.64 97.7188 246.156 96.4355C245.585 97.6748 244.548 98.7207 243.062 99.2656L242.219 98.0352C244.24 97.3145 245.33 95.6797 245.348 94.1504V93.3945H246.965V94.1504ZM254.559 83.7617V92.7266H252.889V83.7617H254.559ZM246.016 84.623C248.424 84.623 250.199 86.1523 250.199 88.3496C250.199 90.5293 248.424 92.041 246.016 92.041C243.607 92.041 241.814 90.5293 241.814 88.3496C241.814 86.1523 243.607 84.623 246.016 84.623ZM246.016 86.0469C244.521 86.0293 243.449 86.9609 243.449 88.3496C243.449 89.7207 244.521 90.6523 246.016 90.6523C247.492 90.6523 248.564 89.7207 248.564 88.3496C248.564 86.9609 247.492 86.0293 246.016 86.0469ZM269.799 85.2559V86.8027C269.799 88.7539 269.799 90.9336 269.201 94.1504L267.514 93.9746C268.129 90.9336 268.129 88.7012 268.129 86.8027V86.6094H258.566V85.2559H269.799ZM271.416 95.9785V97.3672H257.055V95.9785H262.521V90.4238H264.174V95.9785H271.416ZM275.441 96.7871L274.035 101.639H272.541L273.473 96.7871H275.441ZM315.15 84.0078C318.701 84.0078 320.775 84.957 320.775 86.7148C320.775 88.4727 318.701 89.4395 315.15 89.4395C311.6 89.4395 309.525 88.4727 309.525 86.7148C309.525 84.957 311.6 84.0078 315.15 84.0078ZM315.15 85.2383C312.637 85.2383 311.248 85.7832 311.266 86.7148C311.248 87.6816 312.637 88.1914 315.15 88.1914C317.664 88.1914 319.053 87.6816 319.053 86.7148C319.053 85.7832 317.664 85.2383 315.15 85.2383ZM322.34 90.4062V91.7422H307.979V90.4062H322.34ZM320.529 92.9551V96.6465H311.354V98.0527H320.969V99.3359H309.719V95.4336H318.877V94.2031H309.701V92.9551H320.529ZM340.516 84.4473V85.6953C340.516 86.917 340.516 88.2969 340.164 90.0723H342.273V91.4258H327.947V90.0723H338.494C338.626 89.4219 338.714 88.833 338.775 88.2793L329.547 88.666L329.336 87.3652L338.846 87.1016C338.863 86.6357 338.863 86.2051 338.863 85.7832H329.74V84.4473H340.516ZM340.621 92.7441V96.5586H331.287V97.9824H341.184V99.3008H329.617V95.3105H338.969V94.0273H329.582V92.7441H340.621ZM356.547 83.7617V93.377H354.877V83.7617H356.547ZM356.547 94.1855V99.4941H354.877V95.5566H345.877V94.1855H356.547ZM351.52 84.6758V89.1758H345.947V91.1973C348.698 91.1885 350.729 91.0918 353.119 90.7402L353.33 92.0938C350.764 92.498 348.602 92.5684 345.631 92.5684H344.312V87.875H349.867V86.0293H344.277V84.6758H351.52ZM371.312 83.7441V90.125H373.844V91.5137H371.312V99.4941H369.66V83.7441H371.312ZM368.289 86.2051V87.5762H358.955V86.2051H362.84V83.9551H364.51V86.2051H368.289ZM363.684 88.7363C365.934 88.7363 367.586 90.248 367.604 92.3926C367.586 94.5547 365.934 96.0488 363.684 96.0664C361.416 96.0488 359.764 94.5547 359.764 92.3926C359.764 90.248 361.416 88.7363 363.684 88.7363ZM363.684 90.1074C362.348 90.1074 361.346 91.0391 361.363 92.3926C361.346 93.7637 362.348 94.6777 363.684 94.6602C365.02 94.6777 366.004 93.7637 366.004 92.3926C366.004 91.0391 365.02 90.1074 363.684 90.1074ZM382.633 85.0801V86.416H386.061V83.7617H387.73V95.2402H386.061V91.1621H382.633V92.5332H375.32V85.0801H382.633ZM376.973 86.4336V91.2148H380.998V86.4336H376.973ZM388.082 97.8066V99.1602H377.447V94.1855H379.135V97.8066H388.082ZM382.633 89.791H386.061V87.7871H382.633V89.791ZM401.582 84.7109C401.582 88.543 399.736 91.3379 395.447 92.9902L394.674 91.7598C396.713 91.0127 398.102 90.002 398.945 88.7539L394.902 89.1934L394.656 87.8223L399.596 87.5059C399.745 87.0576 399.851 86.583 399.912 86.082H395.377V84.7109H401.582ZM407.98 83.7617V92.498H406.398V88.8594H404.5V92.3574H402.918V84.043H404.5V87.5059H406.398V83.7617H407.98ZM399.139 93.1484V94.8184H406.346V93.1484H407.98V99.3008H397.469V93.1484H399.139ZM399.139 97.9648H406.346V96.1543H399.139V97.9648ZM423.256 83.7441V99.5293H421.586V91.3379H418.334V89.9844H421.586V83.7441H423.256ZM415.697 88.8066C415.697 91.3027 417.297 93.8516 419.723 94.9238L418.791 96.207C416.989 95.4072 415.601 93.7637 414.906 91.7773C414.212 93.8779 412.832 95.6357 411.021 96.4707L410.107 95.1875C412.498 94.0977 414.045 91.4082 414.045 88.8066V87.7695H410.547V86.4336H414.062V84.0605H415.732V86.4336H419.143V87.7695H415.697V88.8066ZM142.955 105.762V110.824H145.24V112.213H142.955V117.539H141.285V105.762H142.955ZM139.984 107.59V108.943H130.598V107.59H134.465V105.744H136.135V107.59H139.984ZM135.291 109.699C137.559 109.699 139.105 110.877 139.105 112.67C139.105 114.463 137.559 115.623 135.291 115.623C133.006 115.623 131.459 114.463 131.459 112.67C131.459 110.877 133.006 109.699 135.291 109.699ZM135.291 110.982C133.955 110.982 133.059 111.633 133.076 112.67C133.059 113.689 133.955 114.322 135.291 114.322C136.627 114.322 137.523 113.689 137.541 112.67C137.523 111.633 136.627 110.982 135.291 110.982ZM143.623 119.807V121.16H132.971V116.607H134.641V119.807H143.623ZM163.574 105.744V121.529H161.904V105.744H163.574ZM155.154 106.922C157.492 106.922 159.215 109.066 159.215 112.441C159.215 115.834 157.492 117.979 155.154 117.979C152.781 117.979 151.076 115.834 151.076 112.441C151.076 109.066 152.781 106.922 155.154 106.922ZM155.154 108.416C153.695 108.416 152.693 109.963 152.693 112.441C152.693 114.938 153.695 116.484 155.154 116.484C156.596 116.484 157.598 114.938 157.598 112.441C157.598 109.963 156.596 108.416 155.154 108.416ZM174.35 107.256V117.609H166.967V107.256H174.35ZM168.619 108.574V116.256H172.732V108.574H168.619ZM179.131 105.744V121.529H177.461V105.744H179.131ZM187.445 110.385C187.445 113.021 189.168 115.746 191.594 116.783L190.68 118.084C188.825 117.267 187.349 115.535 186.619 113.426C185.89 115.676 184.404 117.592 182.576 118.488L181.609 117.17C183.982 116.062 185.74 113.092 185.758 110.385V108.715H182.154V107.326H191.031V108.715H187.445V110.385ZM194.688 105.744V121.494H193.018V105.744H194.688ZM211.598 112.969V114.252H197.184V112.969H211.598ZM209.822 115.359V118.822H200.576V120.123H210.314V121.301H198.906V117.715H208.17V116.555H198.889V115.359H209.822ZM209.787 106.148V109.559H200.682V110.754H210.051V111.932H199.029V108.451H208.117V107.326H198.994V106.148H209.787ZM231.514 113.777V115.131H217.152V113.777H223.498V112.072H219.033V106.113H220.686V107.818H227.98V106.113H229.65V112.072H225.15V113.777H231.514ZM229.756 116.537V121.494H228.068V117.873H218.752V116.537H229.756ZM220.686 110.736H227.98V109.066H220.686V110.736ZM238.176 109.752C238.158 112.547 239.775 115.395 242.131 116.537L241.094 117.873C239.38 116.985 238.053 115.219 237.367 113.109C236.655 115.359 235.275 117.24 233.482 118.172L232.445 116.818C234.871 115.658 236.506 112.635 236.506 109.752V107.062H238.176V109.752ZM244.979 105.744V112.02H247.51V113.443H244.979V121.494H243.309V105.744H244.979ZM260.641 105.691V109.383H262.943V110.754H260.641V114.357H258.971V105.691H260.641ZM260.641 115.096V118.752H252.133V120.07H261.186V121.336H250.498V117.574H258.988V116.344H250.463V115.096H260.641ZM257.67 107.08V108.398H248.283V107.08H252.15V105.604H253.82V107.08H257.67ZM252.977 108.996C255.279 108.996 256.791 109.98 256.791 111.58C256.791 113.18 255.279 114.146 252.977 114.146C250.656 114.146 249.145 113.18 249.145 111.58C249.145 109.98 250.656 108.996 252.977 108.996ZM252.977 110.191C251.623 110.191 250.744 110.736 250.762 111.58C250.744 112.424 251.623 112.934 252.977 112.934C254.33 112.934 255.209 112.424 255.227 111.58C255.209 110.736 254.33 110.191 252.977 110.191ZM276.285 107.133C276.268 109.225 278.834 111.193 281.928 111.598L281.277 112.969C278.702 112.556 276.435 111.22 275.424 109.365C274.387 111.229 272.128 112.556 269.57 112.969L268.902 111.598C271.996 111.193 274.527 109.242 274.545 107.133V106.271H276.285V107.133ZM282.578 114.516V115.887H276.18V121.494H274.545V115.887H268.217V114.516H282.578ZM293.635 116.15C293.635 117.504 294.303 118.937 295.727 119.789C297.177 118.866 297.889 117.354 297.889 116.15V115.395H299.523V116.15C299.523 117.785 300.596 119.367 302.652 120.035L301.826 121.266C300.271 120.729 299.216 119.684 298.662 118.383C298.161 119.657 297.221 120.809 295.779 121.406C294.268 120.835 293.31 119.719 292.826 118.436C292.255 119.675 291.218 120.721 289.732 121.266L288.889 120.035C290.91 119.314 292 117.68 292.018 116.15V115.395H293.635V116.15ZM301.229 105.762V114.727H299.559V105.762H301.229ZM292.686 106.623C295.094 106.623 296.869 108.152 296.869 110.35C296.869 112.529 295.094 114.041 292.686 114.041C290.277 114.041 288.484 112.529 288.484 110.35C288.484 108.152 290.277 106.623 292.686 106.623ZM292.686 108.047C291.191 108.029 290.119 108.961 290.119 110.35C290.119 111.721 291.191 112.652 292.686 112.652C294.162 112.652 295.234 111.721 295.234 110.35C295.234 108.961 294.162 108.029 292.686 108.047ZM307.152 115.184V116.854H314.553V115.184H316.223V121.301H305.5V115.184H307.152ZM307.152 119.965H314.553V118.154H307.152V119.965ZM318.086 112.811V114.199H303.725V112.811H318.086ZM311.758 106.588C311.758 108.398 314.271 110.156 317.295 110.525L316.697 111.844C314.14 111.483 311.916 110.279 310.914 108.609C309.886 110.288 307.653 111.483 305.131 111.844L304.498 110.525C307.557 110.139 310.053 108.451 310.053 106.588V105.92H311.758V106.588ZM332.359 105.744V121.494H330.689V105.744H332.359ZM321.9 107.273V116.045C324.194 116.027 326.611 115.843 329.143 115.324L329.371 116.73C326.576 117.293 324.045 117.486 321.566 117.486H320.248V107.273H321.9ZM347.107 105.744V111.844H349.639V113.215H347.107V121.529H345.438V105.744H347.107ZM342.871 107.256V108.609H337.176V116.221C339.821 116.212 341.808 116.098 344.049 115.693L344.26 117.1C341.799 117.539 339.707 117.627 336.771 117.609H335.506V107.256H342.871Z" fill="#605070"/>
<path d="M338 66V64C338 63.4696 338.211 62.9609 338.586 62.5858C338.961 62.2107 339.47 62 340 62H342M338 74V76C338 76.5304 338.211 77.0391 338.586 77.4142C338.961 77.7893 339.47 78 340 78H342M350 62H352C352.53 62 353.039 62.2107 353.414 62.5858C353.789 62.9609 354 63.4696 354 64V66" stroke="#605070" stroke-width="2" stroke-linecap="round" stroke-linejoin="round"/>
<path d="M352.667 76.6745L349.333 73.3411M342 70.0078C342 70.5331 342.103 71.0532 342.304 71.5385C342.506 72.0239 342.8 72.4648 343.172 72.8362C343.543 73.2077 343.984 73.5023 344.469 73.7033C344.955 73.9044 345.475 74.0078 346 74.0078C346.525 74.0078 347.045 73.9044 347.531 73.7033C348.016 73.5023 348.457 73.2077 348.828 72.8362C349.2 72.4648 349.495 72.0239 349.696 71.5385C349.897 71.0532 350 70.5331 350 70.0078C350 68.9469 349.579 67.9295 348.828 67.1794C348.078 66.4292 347.061 66.0078 346 66.0078C344.939 66.0078 343.922 66.4292 343.172 67.1794C342.421 67.9295 342 68.9469 342 70.0078Z" stroke="#605070" stroke-width="2" stroke-linecap="round" stroke-linejoin="round"/>
<path d="M295.308 87.6923V86.4615C295.308 85.1021 294.206 84 292.846 84H285.462C284.102 84 283 85.1021 283 86.4615V93.8462C283 95.2056 284.102 96.3077 285.462 96.3077H286.692M289.154 100H296.538C297.898 100 299 98.8979 299 97.5385V90.1538C299 88.7944 297.898 87.6923 296.538 87.6923H289.154C287.794 87.6923 286.692 88.7944 286.692 90.1538V97.5385C286.692 98.8979 287.794 100 289.154 100Z" stroke="#605070" stroke-width="2" stroke-miterlimit="16" stroke-linecap="round"/>
</svg>
