<svg width="480" height="220" viewBox="0 0 480 220" fill="none" xmlns="http://www.w3.org/2000/svg">
<mask id="path-1-inside-1_639_384" fill="white">
<path fill-rule="evenodd" clip-rule="evenodd" d="M32 0C14.3269 0 0 14.3269 0 32V123C0 140.673 14.3269 155 32 155H43.6706L34.3576 192.904C33.1631 197.765 39.0614 201.17 42.6741 197.705L87.2003 155H448C465.673 155 480 140.673 480 123V32C480 14.3269 465.673 0 448 0H32Z"/>
</mask>
<path fill-rule="evenodd" clip-rule="evenodd" d="M32 0C14.3269 0 0 14.3269 0 32V123C0 140.673 14.3269 155 32 155H43.6706L34.3576 192.904C33.1631 197.765 39.0614 201.17 42.6741 197.705L87.2003 155H448C465.673 155 480 140.673 480 123V32C480 14.3269 465.673 0 448 0H32Z" fill="#F6EEFF"/>
<path d="M43.6706 155L49.4973 156.432L51.3233 149H43.6706V155ZM34.3576 192.904L40.1843 194.335L40.1843 194.335L34.3576 192.904ZM42.6741 197.705L38.521 193.375L38.521 193.375L42.6741 197.705ZM87.2003 155V149H84.788L83.0471 150.67L87.2003 155ZM6 32C6 17.6406 17.6406 6 32 6V-6C11.0132 -6 -6 11.0132 -6 32H6ZM6 123V32H-6V123H6ZM32 149C17.6406 149 6 137.359 6 123H-6C-6 143.987 11.0132 161 32 161V149ZM43.6706 149H32V161H43.6706V149ZM40.1843 194.335L49.4973 156.432L37.8439 153.568L28.5309 191.472L40.1843 194.335ZM38.521 193.375C38.6057 193.294 38.8393 193.152 39.1547 193.124C39.4178 193.101 39.6029 193.167 39.7132 193.231C39.8234 193.294 39.9736 193.421 40.085 193.661C40.2186 193.948 40.2123 194.221 40.1843 194.335L28.5309 191.472C25.9031 202.167 38.8793 209.659 46.8273 202.036L38.521 193.375ZM83.0471 150.67L38.521 193.375L46.8273 202.036L91.3535 159.33L83.0471 150.67ZM448 149H87.2003V161H448V149ZM474 123C474 137.359 462.359 149 448 149V161C468.987 161 486 143.987 486 123H474ZM474 32V123H486V32H474ZM448 6C462.359 6 474 17.6406 474 32H486C486 11.0132 468.987 -6 448 -6V6ZM32 6H448V-6H32V6Z" fill="#605070" mask="url(#path-1-inside-1_639_384)"/>
<rect x="30" y="30" width="80" height="80" rx="15" fill="#605070"/>
<path d="M49.5459 59.7898V54.6761C49.5459 53.3199 50.0847 52.0192 51.0436 51.0602C52.0026 50.1013 53.3033 49.5625 54.6595 49.5625H59.7732M49.5459 80.2443V85.358C49.5459 86.7142 50.0847 88.0148 51.0436 88.9738C52.0026 89.9328 53.3033 90.4716 54.6595 90.4716H59.7732M80.2277 49.5625H85.3413C86.6976 49.5625 87.9982 50.1013 88.9572 51.0602C89.9162 52.0192 90.455 53.3199 90.455 54.6761V59.7898" stroke="white" stroke-width="3.6" stroke-linecap="round" stroke-linejoin="round"/>
<path d="M87.0452 87.0696L78.5225 78.5469M59.7725 70.0242C59.7725 71.3672 60.037 72.6971 60.551 73.938C61.0649 75.1788 61.8183 76.3062 62.768 77.2559C63.7176 78.2056 64.8451 78.959 66.0859 79.4729C67.3268 79.9869 68.6567 80.2514 69.9997 80.2514C71.3428 80.2514 72.6727 79.9869 73.9135 79.4729C75.1544 78.959 76.2818 78.2056 77.2315 77.2559C78.1812 76.3062 78.9345 75.1788 79.4485 73.938C79.9625 72.6971 80.227 71.3672 80.227 70.0242C80.227 67.3117 79.1495 64.7104 77.2315 62.7924C75.3135 60.8744 72.7122 59.7969 69.9997 59.7969C67.2873 59.7969 64.6859 60.8744 62.768 62.7924C60.85 64.7104 59.7725 67.3117 59.7725 70.0242Z" stroke="white" stroke-width="3.6" stroke-linecap="round" stroke-linejoin="round"/>
<path d="M135.156 32.9375V50H131.441V32.9375H135.156ZM139.48 32.9375H142.609L145.703 44.6797L148.785 32.9375H151.727L147.004 50H144.391L139.48 32.9375ZM137.875 32.9375H141.004L141.543 45.0664V50H137.875V32.9375ZM150.391 32.9375H153.52V50H149.863V45.0664L150.391 32.9375ZM162.613 36.2539L159.191 50H155.219L160.527 32.9375H163L162.613 36.2539ZM165.309 50L161.875 36.2539L161.43 32.9375H163.949L169.281 50H165.309ZM165.438 43.6367V46.6484H157.879V43.6367H165.438ZM182.289 40.9531V48.043C182.039 48.3008 181.668 48.6016 181.176 48.9453C180.691 49.2891 180.066 49.5898 179.301 49.8477C178.543 50.1055 177.633 50.2344 176.57 50.2344C175.609 50.2344 174.738 50.0859 173.957 49.7891C173.184 49.4922 172.52 49.043 171.965 48.4414C171.418 47.832 170.996 47.0703 170.699 46.1562C170.41 45.2422 170.266 44.1562 170.266 42.8984V40.0391C170.266 38.7969 170.41 37.7148 170.699 36.793C170.988 35.8711 171.402 35.1055 171.941 34.4961C172.48 33.8867 173.121 33.4336 173.863 33.1367C174.605 32.8398 175.441 32.6914 176.371 32.6914C177.691 32.6914 178.777 32.9141 179.629 33.3594C180.48 33.8047 181.121 34.4531 181.551 35.3047C181.98 36.1562 182.223 37.1992 182.277 38.4336H178.703C178.656 37.7461 178.547 37.2031 178.375 36.8047C178.211 36.4062 177.973 36.1211 177.66 35.9492C177.355 35.7773 176.961 35.6914 176.477 35.6914C176.07 35.6914 175.711 35.7695 175.398 35.9258C175.094 36.0742 174.836 36.3203 174.625 36.6641C174.422 37 174.27 37.4453 174.168 38C174.066 38.5469 174.016 39.2188 174.016 40.0156V42.8984C174.016 43.6953 174.066 44.3711 174.168 44.9258C174.277 45.4727 174.441 45.918 174.66 46.2617C174.887 46.5977 175.176 46.8438 175.527 47C175.887 47.1484 176.312 47.2227 176.805 47.2227C177.164 47.2227 177.453 47.1836 177.672 47.1055C177.898 47.0273 178.082 46.9375 178.223 46.8359C178.371 46.7344 178.488 46.6641 178.574 46.625V43.6602H176.336V40.9531H182.289ZM194.547 46.9883V50H187.105V46.9883H194.547ZM188.336 32.9375V50H184.609V32.9375H188.336ZM193.562 39.7812V42.6875H187.105V39.7812H193.562ZM194.547 32.9375V35.9609H187.105V32.9375H194.547ZM211.82 46.9883V50H204.379V46.9883H211.82ZM205.609 32.9375V50H201.883V32.9375H205.609ZM210.836 39.7812V42.6875H204.379V39.7812H210.836ZM211.82 32.9375V35.9609H204.379V32.9375H211.82ZM216.977 32.9375L219.168 38.6094L221.277 32.9375H225.449L221.477 41.3867L225.531 50H221.254L219.074 44.2109L216.883 50H212.641L216.742 41.3516L212.734 32.9375H216.977ZM232.996 44.1055H229.539V41.082H232.996C233.441 41.082 233.801 40.9805 234.074 40.7773C234.348 40.5664 234.547 40.2812 234.672 39.9219C234.797 39.5547 234.859 39.1406 234.859 38.6797C234.859 38.1953 234.797 37.7461 234.672 37.332C234.547 36.918 234.348 36.5859 234.074 36.3359C233.801 36.0859 233.441 35.9609 232.996 35.9609H230.828V50H227.102V32.9375H232.996C234.16 32.9375 235.16 33.1836 235.996 33.6758C236.84 34.168 237.488 34.8438 237.941 35.7031C238.395 36.5625 238.621 37.5469 238.621 38.6562C238.621 39.7578 238.395 40.7148 237.941 41.5273C237.488 42.3398 236.84 42.9727 235.996 43.4258C235.16 43.8789 234.16 44.1055 232.996 44.1055ZM250.469 46.9883V50H243.332V46.9883H250.469ZM244.562 32.9375V50H240.836V32.9375H244.562ZM258.871 36.2539L255.449 50H251.477L256.785 32.9375H259.258L258.871 36.2539ZM261.566 50L258.133 36.2539L257.688 32.9375H260.207L265.539 50H261.566ZM261.695 43.6367V46.6484H254.137V43.6367H261.695ZM279.098 32.9375V50H275.453L270.625 39.3828V50H266.992V32.9375H270.637L275.477 43.6133V32.9375H279.098ZM288.168 36.2539L284.746 50H280.773L286.082 32.9375H288.555L288.168 36.2539ZM290.863 50L287.43 36.2539L286.984 32.9375H289.504L294.836 50H290.863ZM290.992 43.6367V46.6484H283.434V43.6367H290.992ZM302.008 32.9375V50H298.293V32.9375H302.008ZM306.191 32.9375V35.9609H294.203V32.9375H306.191ZM311.945 32.9375V50H308.23V32.9375H311.945ZM326.863 40.168V42.8867C326.863 44.0977 326.715 45.1641 326.418 46.0859C326.121 47 325.695 47.7656 325.141 48.3828C324.594 49 323.938 49.4648 323.172 49.7773C322.414 50.082 321.574 50.2344 320.652 50.2344C319.723 50.2344 318.875 50.082 318.109 49.7773C317.344 49.4648 316.684 49 316.129 48.3828C315.574 47.7656 315.145 47 314.84 46.0859C314.543 45.1641 314.395 44.0977 314.395 42.8867V40.168C314.395 38.9414 314.543 37.8633 314.84 36.9336C315.145 35.9961 315.57 35.2188 316.117 34.6016C316.672 33.9766 317.328 33.5039 318.086 33.1836C318.852 32.8633 319.699 32.7031 320.629 32.7031C321.559 32.7031 322.402 32.8633 323.16 33.1836C323.926 33.5039 324.582 33.9766 325.129 34.6016C325.684 35.2188 326.109 35.9961 326.406 36.9336C326.711 37.8633 326.863 38.9414 326.863 40.168ZM323.125 42.8867V40.1445C323.125 39.3555 323.07 38.6836 322.961 38.1289C322.859 37.5742 322.703 37.1211 322.492 36.7695C322.281 36.418 322.02 36.1602 321.707 35.9961C321.402 35.832 321.043 35.75 320.629 35.75C320.207 35.75 319.84 35.832 319.527 35.9961C319.215 36.1602 318.953 36.418 318.742 36.7695C318.539 37.1211 318.387 37.5742 318.285 38.1289C318.191 38.6836 318.145 39.3555 318.145 40.1445V42.8867C318.145 43.6523 318.195 44.3086 318.297 44.8555C318.398 45.4023 318.555 45.8477 318.766 46.1914C318.977 46.5352 319.238 46.7891 319.551 46.9531C319.863 47.1172 320.23 47.1992 320.652 47.1992C321.059 47.1992 321.414 47.1172 321.719 46.9531C322.031 46.7891 322.289 46.5352 322.492 46.1914C322.703 45.8477 322.859 45.4023 322.961 44.8555C323.07 44.3086 323.125 43.6523 323.125 42.8867ZM341.254 32.9375V50H337.609L332.781 39.3828V50H329.148V32.9375H332.793L337.633 43.6133V32.9375H341.254Z" fill="#605070"/>
<path d="M131.301 76V63.2734H133.234V68.793H139.562V63.2734H141.496V76H139.562V70.4453H133.234V76H131.301ZM147.982 76.1934C145.275 76.1934 143.518 74.2246 143.518 71.2715C143.518 68.3008 145.275 66.332 147.982 66.332C150.672 66.332 152.43 68.3008 152.43 71.2715C152.43 74.2246 150.672 76.1934 147.982 76.1934ZM147.982 74.6289C149.705 74.6289 150.531 73.0996 150.531 71.2715C150.531 69.4434 149.705 67.8789 147.982 67.8789C146.225 67.8789 145.398 69.4434 145.398 71.2715C145.398 73.0996 146.225 74.6289 147.982 74.6289ZM162.133 66.4551L158.67 76H156.648L153.186 66.4551H155.207L157.615 73.7852H157.703L160.111 66.4551H162.133ZM167.441 76.1934C164.629 76.1934 162.906 74.2598 162.906 71.2891C162.906 68.3535 164.664 66.332 167.318 66.332C169.498 66.332 171.555 67.6855 171.555 71.1309V71.7988H164.77C164.822 73.6094 165.886 74.6465 167.459 74.6465C168.531 74.6465 169.217 74.1895 169.533 73.6094H171.432C171.01 75.1562 169.533 76.1934 167.441 76.1934ZM164.787 70.3926H169.709C169.709 68.9336 168.777 67.8789 167.336 67.8789C165.833 67.8789 164.857 69.0391 164.787 70.3926ZM173.418 76V66.4551H175.229V67.9668H175.334C175.686 66.9473 176.635 66.3145 177.76 66.3145C177.988 66.3145 178.357 66.332 178.551 66.3496V68.1426C178.393 68.1074 177.953 68.0371 177.566 68.0371C176.266 68.0371 175.299 68.9336 175.299 70.1816V76H173.418ZM188.395 76.1934C185.688 76.1934 183.93 74.2246 183.93 71.2715C183.93 68.3008 185.688 66.332 188.395 66.332C191.084 66.332 192.842 68.3008 192.842 71.2715C192.842 74.2246 191.084 76.1934 188.395 76.1934ZM188.395 74.6289C190.117 74.6289 190.943 73.0996 190.943 71.2715C190.943 69.4434 190.117 67.8789 188.395 67.8789C186.637 67.8789 185.811 69.4434 185.811 71.2715C185.811 73.0996 186.637 74.6289 188.395 74.6289ZM202.545 66.4551L199.082 76H197.061L193.598 66.4551H195.619L198.027 73.7852H198.115L200.523 66.4551H202.545ZM207.854 76.1934C205.041 76.1934 203.318 74.2598 203.318 71.2891C203.318 68.3535 205.076 66.332 207.73 66.332C209.91 66.332 211.967 67.6855 211.967 71.1309V71.7988H205.182C205.234 73.6094 206.298 74.6465 207.871 74.6465C208.943 74.6465 209.629 74.1895 209.945 73.6094H211.844C211.422 75.1562 209.945 76.1934 207.854 76.1934ZM205.199 70.3926H210.121C210.121 68.9336 209.189 67.8789 207.748 67.8789C206.245 67.8789 205.27 69.0391 205.199 70.3926ZM213.83 76V66.4551H215.641V67.9668H215.746C216.098 66.9473 217.047 66.3145 218.172 66.3145C218.4 66.3145 218.77 66.332 218.963 66.3496V68.1426C218.805 68.1074 218.365 68.0371 217.979 68.0371C216.678 68.0371 215.711 68.9336 215.711 70.1816V76H213.83ZM229.229 66.4551V67.9492H227.277V73.1875C227.277 74.2598 227.822 74.4531 228.42 74.4707C228.684 74.4707 229.105 74.4355 229.369 74.418V76.0527C229.105 76.0879 228.701 76.123 228.191 76.123C226.715 76.123 225.396 75.3145 225.414 73.5742V67.9492H224.008V66.4551H225.414V64.1699H227.277V66.4551H229.229ZM233.148 70.3398V76H231.268V63.2734H233.113V68.0195H233.236C233.693 66.9824 234.572 66.332 236.066 66.332C238.035 66.332 239.336 67.5449 239.336 69.9355V76H237.455V70.1641C237.455 68.7578 236.699 67.9492 235.434 67.9492C234.115 67.9492 233.148 68.8105 233.148 70.3398ZM245.717 76.1934C242.904 76.1934 241.182 74.2598 241.182 71.2891C241.182 68.3535 242.939 66.332 245.594 66.332C247.773 66.332 249.83 67.6855 249.83 71.1309V71.7988H243.045C243.098 73.6094 244.161 74.6465 245.734 74.6465C246.807 74.6465 247.492 74.1895 247.809 73.6094H249.707C249.285 75.1562 247.809 76.1934 245.717 76.1934ZM243.062 70.3926H247.984C247.984 68.9336 247.053 67.8789 245.611 67.8789C244.108 67.8789 243.133 69.0391 243.062 70.3926ZM256.088 76V66.4551H257.969V76H256.088ZM257.037 64.9785C256.387 64.9785 255.842 64.4863 255.842 63.8711C255.842 63.2559 256.387 62.7637 257.037 62.7637C257.67 62.7637 258.215 63.2559 258.215 63.8711C258.215 64.4863 257.67 64.9785 257.037 64.9785ZM260.254 76V66.4551H262.064V68.0195H262.17C262.574 66.9473 263.506 66.332 264.771 66.332C266.037 66.332 266.934 66.9648 267.338 68.0195H267.443C267.9 66.9824 268.92 66.332 270.309 66.332C272.031 66.332 273.262 67.4219 273.262 69.6016V76H271.381V69.7773C271.381 68.4941 270.572 67.9492 269.588 67.9492C268.375 67.9492 267.689 68.7754 267.689 69.918V76H265.826V69.6719C265.826 68.6348 265.105 67.9492 264.086 67.9492C263.031 67.9492 262.135 68.8281 262.135 70.1113V76H260.254ZM275.09 73.3105C275.09 71.1309 276.936 70.5684 278.658 70.4453C279.291 70.4014 280.724 70.3223 281.172 70.3047L281.154 69.5488C281.154 68.4766 280.504 67.8438 279.221 67.8438C278.113 67.8438 277.445 68.3535 277.252 69.0566H275.389C275.564 67.4746 277.041 66.332 279.291 66.332C280.803 66.332 283.035 66.8945 283.035 69.6543V76H281.207V74.6992H281.137C280.768 75.4199 279.889 76.2109 278.307 76.2109C276.496 76.2109 275.09 75.1738 275.09 73.3105ZM276.918 73.3281C276.918 74.2422 277.674 74.7168 278.729 74.7168C280.258 74.7168 281.172 73.6973 281.172 72.5547V71.6758L278.922 71.834C277.691 71.9219 276.918 72.3789 276.918 73.3281ZM289.311 79.7793C286.902 79.7793 285.32 78.707 285.145 76.9316H287.061C287.236 77.8281 288.08 78.2676 289.328 78.2676C290.822 78.2676 291.771 77.6348 291.771 76.1406V74.2598H291.648C291.314 74.875 290.629 75.8594 288.871 75.8594C286.621 75.8594 284.881 74.1719 284.881 71.1309C284.881 68.0898 286.586 66.332 288.889 66.332C290.664 66.332 291.314 67.4043 291.666 68.002H291.789V66.4551H293.617V76.2109C293.617 78.6543 291.771 79.7793 289.311 79.7793ZM289.293 74.3125C290.893 74.3125 291.789 73.1348 291.789 71.166C291.789 69.2324 290.91 67.9316 289.293 67.9316C287.623 67.9316 286.797 69.3379 286.797 71.166C286.797 73.0293 287.658 74.3125 289.293 74.3125ZM300.016 76.1934C297.203 76.1934 295.48 74.2598 295.48 71.2891C295.48 68.3535 297.238 66.332 299.893 66.332C302.072 66.332 304.129 67.6855 304.129 71.1309V71.7988H297.344C297.396 73.6094 298.46 74.6465 300.033 74.6465C301.105 74.6465 301.791 74.1895 302.107 73.6094H304.006C303.584 75.1562 302.107 76.1934 300.016 76.1934ZM297.361 70.3926H302.283C302.283 68.9336 301.352 67.8789 299.91 67.8789C298.407 67.8789 297.432 69.0391 297.361 70.3926ZM309.947 73.3105C309.947 71.1309 311.793 70.5684 313.516 70.4453C314.148 70.4014 315.581 70.3223 316.029 70.3047L316.012 69.5488C316.012 68.4766 315.361 67.8438 314.078 67.8438C312.971 67.8438 312.303 68.3535 312.109 69.0566H310.246C310.422 67.4746 311.898 66.332 314.148 66.332C315.66 66.332 317.893 66.8945 317.893 69.6543V76H316.064V74.6992H315.994C315.625 75.4199 314.746 76.2109 313.164 76.2109C311.354 76.2109 309.947 75.1738 309.947 73.3105ZM311.775 73.3281C311.775 74.2422 312.531 74.7168 313.586 74.7168C315.115 74.7168 316.029 73.6973 316.029 72.5547V71.6758L313.779 71.834C312.549 71.9219 311.775 72.3789 311.775 73.3281ZM322.041 70.3398V76H320.16V66.4551H321.971V68.0195H322.076C322.533 67 323.465 66.332 324.889 66.332C326.857 66.332 328.141 67.5625 328.141 69.9355V76H326.277V70.1641C326.277 68.7754 325.521 67.9492 324.256 67.9492C322.973 67.9492 322.041 68.8105 322.041 70.3398ZM333.994 76.1934C331.691 76.1934 330.004 74.3301 330.004 71.2539C330.004 68.1426 331.709 66.332 334.012 66.332C335.787 66.332 336.438 67.4043 336.771 68.002H336.859V63.2734H338.74V76H336.912V74.5059H336.771C336.42 75.1387 335.734 76.1934 333.994 76.1934ZM334.416 74.5938C336.016 74.5938 336.912 73.2227 336.912 71.2188C336.912 69.2324 336.033 67.9316 334.416 67.9316C332.746 67.9316 331.92 69.3379 331.92 71.2188C331.92 73.1348 332.781 74.5938 334.416 74.5938ZM349.621 76.1934C346.844 76.1934 345.156 74.1367 345.156 71.2715C345.156 68.3535 346.896 66.332 349.586 66.332C351.766 66.332 353.348 67.6152 353.541 69.5488H351.713C351.52 68.6523 350.799 67.8965 349.621 67.8965C348.074 67.8965 347.037 69.1797 347.037 71.2188C347.037 73.3105 348.057 74.5938 349.621 74.5938C350.676 74.5938 351.484 74.0137 351.713 72.9766H353.541C353.33 74.8223 351.871 76.1934 349.621 76.1934ZM357.197 63.2734V76H355.316V63.2734H357.197ZM359.482 76V66.4551H361.363V76H359.482ZM360.432 64.9785C359.781 64.9785 359.236 64.4863 359.236 63.8711C359.236 63.2559 359.781 62.7637 360.432 62.7637C361.064 62.7637 361.609 63.2559 361.609 63.8711C361.609 64.4863 361.064 64.9785 360.432 64.9785ZM367.691 76.1934C364.914 76.1934 363.227 74.1367 363.227 71.2715C363.227 68.3535 364.967 66.332 367.656 66.332C369.836 66.332 371.418 67.6152 371.611 69.5488H369.783C369.59 68.6523 368.869 67.8965 367.691 67.8965C366.145 67.8965 365.107 69.1797 365.107 71.2188C365.107 73.3105 366.127 74.5938 367.691 74.5938C368.746 74.5938 369.555 74.0137 369.783 72.9766H371.611C371.4 74.8223 369.941 76.1934 367.691 76.1934ZM373.387 76V63.2734H375.268V70.4805H375.426L379.205 66.4551H381.455L377.605 70.5508L381.719 76H379.416L376.182 71.7109L375.268 72.6074V76H373.387ZM135.607 88.4551V89.9492H133.656V95.1875C133.656 96.2598 134.201 96.4531 134.799 96.4707C135.062 96.4707 135.484 96.4355 135.748 96.418V98.0527C135.484 98.0879 135.08 98.123 134.57 98.123C133.094 98.123 131.775 97.3145 131.793 95.5742V89.9492H130.387V88.4551H131.793V86.1699H133.656V88.4551H135.607ZM141.373 98.1934C138.666 98.1934 136.908 96.2246 136.908 93.2715C136.908 90.3008 138.666 88.332 141.373 88.332C144.062 88.332 145.82 90.3008 145.82 93.2715C145.82 96.2246 144.062 98.1934 141.373 98.1934ZM141.373 96.6289C143.096 96.6289 143.922 95.0996 143.922 93.2715C143.922 91.4434 143.096 89.8789 141.373 89.8789C139.615 89.8789 138.789 91.4434 138.789 93.2715C138.789 95.0996 139.615 96.6289 141.373 96.6289ZM156.068 101.779C153.66 101.779 152.078 100.707 151.902 98.9316H153.818C153.994 99.8281 154.838 100.268 156.086 100.268C157.58 100.268 158.529 99.6348 158.529 98.1406V96.2598H158.406C158.072 96.875 157.387 97.8594 155.629 97.8594C153.379 97.8594 151.639 96.1719 151.639 93.1309C151.639 90.0898 153.344 88.332 155.646 88.332C157.422 88.332 158.072 89.4043 158.424 90.002H158.547V88.4551H160.375V98.2109C160.375 100.654 158.529 101.779 156.068 101.779ZM156.051 96.3125C157.65 96.3125 158.547 95.1348 158.547 93.166C158.547 91.2324 157.668 89.9316 156.051 89.9316C154.381 89.9316 153.555 91.3379 153.555 93.166C153.555 95.0293 154.416 96.3125 156.051 96.3125ZM166.773 98.1934C163.961 98.1934 162.238 96.2598 162.238 93.2891C162.238 90.3535 163.996 88.332 166.65 88.332C168.83 88.332 170.887 89.6855 170.887 93.1309V93.7988H164.102C164.154 95.6094 165.218 96.6465 166.791 96.6465C167.863 96.6465 168.549 96.1895 168.865 95.6094H170.764C170.342 97.1562 168.865 98.1934 166.773 98.1934ZM164.119 92.3926H169.041C169.041 90.9336 168.109 89.8789 166.668 89.8789C165.165 89.8789 164.189 91.0391 164.119 92.3926ZM177.215 88.4551V89.9492H175.264V95.1875C175.264 96.2598 175.809 96.4531 176.406 96.4707C176.67 96.4707 177.092 96.4355 177.355 96.418V98.0527C177.092 98.0879 176.688 98.123 176.178 98.123C174.701 98.123 173.383 97.3145 173.4 95.5742V89.9492H171.994V88.4551H173.4V86.1699H175.264V88.4551H177.215ZM182.998 95.3105C182.998 93.1309 184.844 92.5684 186.566 92.4453C187.199 92.4014 188.632 92.3223 189.08 92.3047L189.062 91.5488C189.062 90.4766 188.412 89.8438 187.129 89.8438C186.021 89.8438 185.354 90.3535 185.16 91.0566H183.297C183.473 89.4746 184.949 88.332 187.199 88.332C188.711 88.332 190.943 88.8945 190.943 91.6543V98H189.115V96.6992H189.045C188.676 97.4199 187.797 98.2109 186.215 98.2109C184.404 98.2109 182.998 97.1738 182.998 95.3105ZM184.826 95.3281C184.826 96.2422 185.582 96.7168 186.637 96.7168C188.166 96.7168 189.08 95.6973 189.08 94.5547V93.6758L186.83 93.834C185.6 93.9219 184.826 94.3789 184.826 95.3281ZM195.092 92.3398V98H193.211V88.4551H195.021V90.0195H195.127C195.584 89 196.516 88.332 197.939 88.332C199.908 88.332 201.191 89.5625 201.191 91.9355V98H199.328V92.1641C199.328 90.7754 198.572 89.9492 197.307 89.9492C196.023 89.9492 195.092 90.8105 195.092 92.3398ZM211.984 98.1934C209.172 98.1934 207.449 96.2598 207.449 93.2891C207.449 90.3535 209.207 88.332 211.861 88.332C214.041 88.332 216.098 89.6855 216.098 93.1309V93.7988H209.312C209.365 95.6094 210.429 96.6465 212.002 96.6465C213.074 96.6465 213.76 96.1895 214.076 95.6094H215.975C215.553 97.1562 214.076 98.1934 211.984 98.1934ZM209.33 92.3926H214.252C214.252 90.9336 213.32 89.8789 211.879 89.8789C210.376 89.8789 209.4 91.0391 209.33 92.3926ZM219.227 88.4551L221.318 92.1641L223.428 88.4551H225.484L222.514 93.2188L225.502 98H223.463L221.318 94.4316L219.191 98H217.135L220.088 93.2188L217.152 88.4551H219.227ZM227.189 101.586V88.4551H229.018V90.002H229.176C229.51 89.4043 230.16 88.332 231.918 88.332C234.221 88.332 235.926 90.1426 235.926 93.2539C235.926 96.3301 234.256 98.1934 231.936 98.1934C230.195 98.1934 229.51 97.1387 229.176 96.5059H229.07V101.586H227.189ZM229.035 93.2188C229.035 95.2227 229.914 96.5938 231.514 96.5938C233.166 96.5938 234.027 95.1348 234.027 93.2188C234.027 91.3379 233.184 89.9316 231.514 89.9316C229.896 89.9316 229.035 91.2324 229.035 93.2188ZM239.67 85.2734V98H237.789V85.2734H239.67ZM241.516 95.3105C241.516 93.1309 243.361 92.5684 245.084 92.4453C245.717 92.4014 247.149 92.3223 247.598 92.3047L247.58 91.5488C247.58 90.4766 246.93 89.8438 245.646 89.8438C244.539 89.8438 243.871 90.3535 243.678 91.0566H241.814C241.99 89.4746 243.467 88.332 245.717 88.332C247.229 88.332 249.461 88.8945 249.461 91.6543V98H247.633V96.6992H247.562C247.193 97.4199 246.314 98.2109 244.732 98.2109C242.922 98.2109 241.516 97.1738 241.516 95.3105ZM243.344 95.3281C243.344 96.2422 244.1 96.7168 245.154 96.7168C246.684 96.7168 247.598 95.6973 247.598 94.5547V93.6758L245.348 93.834C244.117 93.9219 243.344 94.3789 243.344 95.3281ZM253.609 92.3398V98H251.729V88.4551H253.539V90.0195H253.645C254.102 89 255.033 88.332 256.457 88.332C258.426 88.332 259.709 89.5625 259.709 91.9355V98H257.846V92.1641C257.846 90.7754 257.09 89.9492 255.824 89.9492C254.541 89.9492 253.609 90.8105 253.609 92.3398ZM261.555 95.3105C261.555 93.1309 263.4 92.5684 265.123 92.4453C265.756 92.4014 267.188 92.3223 267.637 92.3047L267.619 91.5488C267.619 90.4766 266.969 89.8438 265.686 89.8438C264.578 89.8438 263.91 90.3535 263.717 91.0566H261.854C262.029 89.4746 263.506 88.332 265.756 88.332C267.268 88.332 269.5 88.8945 269.5 91.6543V98H267.672V96.6992H267.602C267.232 97.4199 266.354 98.2109 264.771 98.2109C262.961 98.2109 261.555 97.1738 261.555 95.3105ZM263.383 95.3281C263.383 96.2422 264.139 96.7168 265.193 96.7168C266.723 96.7168 267.637 95.6973 267.637 94.5547V93.6758L265.387 93.834C264.156 93.9219 263.383 94.3789 263.383 95.3281ZM276.232 88.4551V89.9492H274.281V95.1875C274.281 96.2598 274.826 96.4531 275.424 96.4707C275.688 96.4707 276.109 96.4355 276.373 96.418V98.0527C276.109 98.0879 275.705 98.123 275.195 98.123C273.719 98.123 272.4 97.3145 272.418 95.5742V89.9492H271.012V88.4551H272.418V86.1699H274.281V88.4551H276.232ZM278.061 98V88.4551H279.941V98H278.061ZM279.01 86.9785C278.359 86.9785 277.814 86.4863 277.814 85.8711C277.814 85.2559 278.359 84.7637 279.01 84.7637C279.643 84.7637 280.188 85.2559 280.188 85.8711C280.188 86.4863 279.643 86.9785 279.01 86.9785ZM286.27 98.1934C283.562 98.1934 281.805 96.2246 281.805 93.2715C281.805 90.3008 283.562 88.332 286.27 88.332C288.959 88.332 290.717 90.3008 290.717 93.2715C290.717 96.2246 288.959 98.1934 286.27 98.1934ZM286.27 96.6289C287.992 96.6289 288.818 95.0996 288.818 93.2715C288.818 91.4434 287.992 89.8789 286.27 89.8789C284.512 89.8789 283.686 91.4434 283.686 93.2715C283.686 95.0996 284.512 96.6289 286.27 96.6289ZM294.443 92.3398V98H292.562V88.4551H294.373V90.0195H294.479C294.936 89 295.867 88.332 297.291 88.332C299.26 88.332 300.543 89.5625 300.543 91.9355V98H298.68V92.1641C298.68 90.7754 297.924 89.9492 296.658 89.9492C295.375 89.9492 294.443 90.8105 294.443 92.3398ZM305.096 96.7871L303.689 101.639H302.195L303.127 96.7871H305.096ZM315.871 98.1934C313.164 98.1934 311.406 96.2246 311.406 93.2715C311.406 90.3008 313.164 88.332 315.871 88.332C318.561 88.332 320.318 90.3008 320.318 93.2715C320.318 96.2246 318.561 98.1934 315.871 98.1934ZM315.871 96.6289C317.594 96.6289 318.42 95.0996 318.42 93.2715C318.42 91.4434 317.594 89.8789 315.871 89.8789C314.113 89.8789 313.287 91.4434 313.287 93.2715C313.287 95.0996 314.113 96.6289 315.871 96.6289ZM322.164 98V88.4551H323.975V89.9668H324.08C324.432 88.9473 325.381 88.3145 326.506 88.3145C326.734 88.3145 327.104 88.332 327.297 88.3496V90.1426C327.139 90.1074 326.699 90.0371 326.312 90.0371C325.012 90.0371 324.045 90.9336 324.045 92.1816V98H322.164ZM337.141 98.1934C334.363 98.1934 332.676 96.1367 332.676 93.2715C332.676 90.3535 334.416 88.332 337.105 88.332C339.285 88.332 340.867 89.6152 341.061 91.5488H339.232C339.039 90.6523 338.318 89.8965 337.141 89.8965C335.594 89.8965 334.557 91.1797 334.557 93.2188C334.557 95.3105 335.576 96.5938 337.141 96.5938C338.195 96.5938 339.004 96.0137 339.232 94.9766H341.061C340.85 96.8223 339.391 98.1934 337.141 98.1934ZM344.717 85.2734V98H342.836V85.2734H344.717ZM347.002 98V88.4551H348.883V98H347.002ZM347.951 86.9785C347.301 86.9785 346.756 86.4863 346.756 85.8711C346.756 85.2559 347.301 84.7637 347.951 84.7637C348.584 84.7637 349.129 85.2559 349.129 85.8711C349.129 86.4863 348.584 86.9785 347.951 86.9785ZM355.211 98.1934C352.434 98.1934 350.746 96.1367 350.746 93.2715C350.746 90.3535 352.486 88.332 355.176 88.332C357.355 88.332 358.938 89.6152 359.131 91.5488H357.303C357.109 90.6523 356.389 89.8965 355.211 89.8965C353.664 89.8965 352.627 91.1797 352.627 93.2188C352.627 95.3105 353.646 96.5938 355.211 96.5938C356.266 96.5938 357.074 96.0137 357.303 94.9766H359.131C358.92 96.8223 357.461 98.1934 355.211 98.1934ZM360.906 98V85.2734H362.787V92.4805H362.945L366.725 88.4551H368.975L365.125 92.5508L369.238 98H366.936L363.701 93.7109L362.787 94.6074V98H360.906ZM135.607 110.455V111.949H133.656V117.188C133.656 118.26 134.201 118.453 134.799 118.471C135.062 118.471 135.484 118.436 135.748 118.418V120.053C135.484 120.088 135.08 120.123 134.57 120.123C133.094 120.123 131.775 119.314 131.793 117.574V111.949H130.387V110.455H131.793V108.17H133.656V110.455H135.607ZM141.373 120.193C138.666 120.193 136.908 118.225 136.908 115.271C136.908 112.301 138.666 110.332 141.373 110.332C144.062 110.332 145.82 112.301 145.82 115.271C145.82 118.225 144.062 120.193 141.373 120.193ZM141.373 118.629C143.096 118.629 143.922 117.1 143.922 115.271C143.922 113.443 143.096 111.879 141.373 111.879C139.615 111.879 138.789 113.443 138.789 115.271C138.789 117.1 139.615 118.629 141.373 118.629ZM156.104 120.193C153.326 120.193 151.639 118.137 151.639 115.271C151.639 112.354 153.379 110.332 156.068 110.332C158.248 110.332 159.83 111.615 160.023 113.549H158.195C158.002 112.652 157.281 111.896 156.104 111.896C154.557 111.896 153.52 113.18 153.52 115.219C153.52 117.311 154.539 118.594 156.104 118.594C157.158 118.594 157.967 118.014 158.195 116.977H160.023C159.812 118.822 158.354 120.193 156.104 120.193ZM165.842 120.193C163.135 120.193 161.377 118.225 161.377 115.271C161.377 112.301 163.135 110.332 165.842 110.332C168.531 110.332 170.289 112.301 170.289 115.271C170.289 118.225 168.531 120.193 165.842 120.193ZM165.842 118.629C167.564 118.629 168.391 117.1 168.391 115.271C168.391 113.443 167.564 111.879 165.842 111.879C164.084 111.879 163.258 113.443 163.258 115.271C163.258 117.1 164.084 118.629 165.842 118.629ZM172.135 123.586V110.455H173.963V112.002H174.121C174.455 111.404 175.105 110.332 176.863 110.332C179.166 110.332 180.871 112.143 180.871 115.254C180.871 118.33 179.201 120.193 176.881 120.193C175.141 120.193 174.455 119.139 174.121 118.506H174.016V123.586H172.135ZM173.98 115.219C173.98 117.223 174.859 118.594 176.459 118.594C178.111 118.594 178.973 117.135 178.973 115.219C178.973 113.338 178.129 111.932 176.459 111.932C174.842 111.932 173.98 113.232 173.98 115.219ZM183.561 123.586C183.174 123.586 182.805 123.568 182.559 123.533V121.969C182.77 121.986 183.139 122.004 183.402 122.004C183.982 122.004 184.475 121.951 184.914 120.756L185.143 120.123L181.645 110.455H183.648L186.057 117.855H186.162L188.57 110.455H190.592L186.654 121.266C186.109 122.777 185.125 123.586 183.561 123.586ZM200.98 110.455V111.949H199.029V117.188C199.029 118.26 199.574 118.453 200.172 118.471C200.436 118.471 200.857 118.436 201.121 118.418V120.053C200.857 120.088 200.453 120.123 199.943 120.123C198.467 120.123 197.148 119.314 197.166 117.574V111.949H195.76V110.455H197.166V108.17H199.029V110.455H200.98ZM204.9 114.34V120H203.02V107.273H204.865V112.02H204.988C205.445 110.982 206.324 110.332 207.818 110.332C209.787 110.332 211.088 111.545 211.088 113.936V120H209.207V114.164C209.207 112.758 208.451 111.949 207.186 111.949C205.867 111.949 204.9 112.811 204.9 114.34ZM217.469 120.193C214.656 120.193 212.934 118.26 212.934 115.289C212.934 112.354 214.691 110.332 217.346 110.332C219.525 110.332 221.582 111.686 221.582 115.131V115.799H214.797C214.85 117.609 215.913 118.646 217.486 118.646C218.559 118.646 219.244 118.189 219.561 117.609H221.459C221.037 119.156 219.561 120.193 217.469 120.193ZM214.814 114.393H219.736C219.736 112.934 218.805 111.879 217.363 111.879C215.86 111.879 214.885 113.039 214.814 114.393ZM231.883 120.193C229.105 120.193 227.418 118.137 227.418 115.271C227.418 112.354 229.158 110.332 231.848 110.332C234.027 110.332 235.609 111.615 235.803 113.549H233.975C233.781 112.652 233.061 111.896 231.883 111.896C230.336 111.896 229.299 113.18 229.299 115.219C229.299 117.311 230.318 118.594 231.883 118.594C232.938 118.594 233.746 118.014 233.975 116.977H235.803C235.592 118.822 234.133 120.193 231.883 120.193ZM237.139 117.311C237.139 115.131 238.984 114.568 240.707 114.445C241.34 114.401 242.772 114.322 243.221 114.305L243.203 113.549C243.203 112.477 242.553 111.844 241.27 111.844C240.162 111.844 239.494 112.354 239.301 113.057H237.438C237.613 111.475 239.09 110.332 241.34 110.332C242.852 110.332 245.084 110.895 245.084 113.654V120H243.256V118.699H243.186C242.816 119.42 241.938 120.211 240.355 120.211C238.545 120.211 237.139 119.174 237.139 117.311ZM238.967 117.328C238.967 118.242 239.723 118.717 240.777 118.717C242.307 118.717 243.221 117.697 243.221 116.555V115.676L240.971 115.834C239.74 115.922 238.967 116.379 238.967 117.328ZM247.352 123.586V110.455H249.18V112.002H249.338C249.672 111.404 250.322 110.332 252.08 110.332C254.383 110.332 256.088 112.143 256.088 115.254C256.088 118.33 254.418 120.193 252.098 120.193C250.357 120.193 249.672 119.139 249.338 118.506H249.232V123.586H247.352ZM249.197 115.219C249.197 117.223 250.076 118.594 251.676 118.594C253.328 118.594 254.189 117.135 254.189 115.219C254.189 113.338 253.346 111.932 251.676 111.932C250.059 111.932 249.197 113.232 249.197 115.219ZM262.416 110.455V111.949H260.465V117.188C260.465 118.26 261.01 118.453 261.607 118.471C261.871 118.471 262.293 118.436 262.557 118.418V120.053C262.293 120.088 261.889 120.123 261.379 120.123C259.902 120.123 258.584 119.314 258.602 117.574V111.949H257.195V110.455H258.602V108.17H260.465V110.455H262.416ZM270.309 116.027V110.455H272.172V120H270.344V118.348H270.238C269.799 119.367 268.814 120.123 267.391 120.123C265.545 120.123 264.244 118.893 264.244 116.52V110.455H266.125V116.291C266.125 117.592 266.916 118.418 268.059 118.418C269.096 118.418 270.309 117.662 270.309 116.027ZM274.457 120V110.455H276.268V111.967H276.373C276.725 110.947 277.674 110.314 278.799 110.314C279.027 110.314 279.396 110.332 279.59 110.35V112.143C279.432 112.107 278.992 112.037 278.605 112.037C277.305 112.037 276.338 112.934 276.338 114.182V120H274.457ZM284.793 120.193C281.98 120.193 280.258 118.26 280.258 115.289C280.258 112.354 282.016 110.332 284.67 110.332C286.85 110.332 288.906 111.686 288.906 115.131V115.799H282.121C282.174 117.609 283.237 118.646 284.811 118.646C285.883 118.646 286.568 118.189 286.885 117.609H288.783C288.361 119.156 286.885 120.193 284.793 120.193ZM282.139 114.393H287.061C287.061 112.934 286.129 111.879 284.688 111.879C283.185 111.879 282.209 113.039 282.139 114.393ZM294.338 120.193C292.035 120.193 290.348 118.33 290.348 115.254C290.348 112.143 292.053 110.332 294.355 110.332C296.131 110.332 296.781 111.404 297.115 112.002H297.203V107.273H299.084V120H297.256V118.506H297.115C296.764 119.139 296.078 120.193 294.338 120.193ZM294.76 118.594C296.359 118.594 297.256 117.223 297.256 115.219C297.256 113.232 296.377 111.932 294.76 111.932C293.09 111.932 292.264 113.338 292.264 115.219C292.264 117.135 293.125 118.594 294.76 118.594ZM305.922 120V110.455H307.803V120H305.922ZM306.871 108.979C306.221 108.979 305.676 108.486 305.676 107.871C305.676 107.256 306.221 106.764 306.871 106.764C307.504 106.764 308.049 107.256 308.049 107.871C308.049 108.486 307.504 108.979 306.871 108.979ZM310.088 120V110.455H311.898V112.02H312.004C312.408 110.947 313.34 110.332 314.605 110.332C315.871 110.332 316.768 110.965 317.172 112.02H317.277C317.734 110.982 318.754 110.332 320.143 110.332C321.865 110.332 323.096 111.422 323.096 113.602V120H321.215V113.777C321.215 112.494 320.406 111.949 319.422 111.949C318.209 111.949 317.523 112.775 317.523 113.918V120H315.66V113.672C315.66 112.635 314.939 111.949 313.92 111.949C312.865 111.949 311.969 112.828 311.969 114.111V120H310.088ZM324.924 117.311C324.924 115.131 326.77 114.568 328.492 114.445C329.125 114.401 330.558 114.322 331.006 114.305L330.988 113.549C330.988 112.477 330.338 111.844 329.055 111.844C327.947 111.844 327.279 112.354 327.086 113.057H325.223C325.398 111.475 326.875 110.332 329.125 110.332C330.637 110.332 332.869 110.895 332.869 113.654V120H331.041V118.699H330.971C330.602 119.42 329.723 120.211 328.141 120.211C326.33 120.211 324.924 119.174 324.924 117.311ZM326.752 117.328C326.752 118.242 327.508 118.717 328.562 118.717C330.092 118.717 331.006 117.697 331.006 116.555V115.676L328.756 115.834C327.525 115.922 326.752 116.379 326.752 117.328ZM339.145 123.779C336.736 123.779 335.154 122.707 334.979 120.932H336.895C337.07 121.828 337.914 122.268 339.162 122.268C340.656 122.268 341.605 121.635 341.605 120.141V118.26H341.482C341.148 118.875 340.463 119.859 338.705 119.859C336.455 119.859 334.715 118.172 334.715 115.131C334.715 112.09 336.42 110.332 338.723 110.332C340.498 110.332 341.148 111.404 341.5 112.002H341.623V110.455H343.451V120.211C343.451 122.654 341.605 123.779 339.145 123.779ZM339.127 118.312C340.727 118.312 341.623 117.135 341.623 115.166C341.623 113.232 340.744 111.932 339.127 111.932C337.457 111.932 336.631 113.338 336.631 115.166C336.631 117.029 337.492 118.312 339.127 118.312ZM349.85 120.193C347.037 120.193 345.314 118.26 345.314 115.289C345.314 112.354 347.072 110.332 349.727 110.332C351.906 110.332 353.963 111.686 353.963 115.131V115.799H347.178C347.23 117.609 348.294 118.646 349.867 118.646C350.939 118.646 351.625 118.189 351.941 117.609H353.84C353.418 119.156 351.941 120.193 349.85 120.193ZM347.195 114.393H352.117C352.117 112.934 351.186 111.879 349.744 111.879C348.241 111.879 347.266 113.039 347.195 114.393ZM357.057 120.123C356.371 120.123 355.791 119.561 355.809 118.875C355.791 118.189 356.371 117.627 357.057 117.627C357.725 117.627 358.305 118.189 358.305 118.875C358.305 119.561 357.725 120.123 357.057 120.123Z" fill="#605070"/>
<path d="M393 66.0078V64.0078C393 63.4774 393.211 62.9687 393.586 62.5936C393.961 62.2185 394.47 62.0078 395 62.0078H397M393 74.0078V76.0078C393 76.5382 393.211 77.047 393.586 77.422C393.961 77.7971 394.47 78.0078 395 78.0078H397M405 62.0078H407C407.53 62.0078 408.039 62.2185 408.414 62.5936C408.789 62.9687 409 63.4774 409 64.0078V66.0078" stroke="#605070" stroke-width="2" stroke-linecap="round" stroke-linejoin="round"/>
<path d="M407.667 76.6823L404.333 73.349M397 70.0156C397 70.5409 397.103 71.0611 397.304 71.5464C397.506 72.0317 397.8 72.4726 398.172 72.8441C398.543 73.2155 398.984 73.5101 399.469 73.7111C399.955 73.9122 400.475 74.0156 401 74.0156C401.525 74.0156 402.045 73.9122 402.531 73.7111C403.016 73.5101 403.457 73.2155 403.828 72.8441C404.2 72.4726 404.495 72.0317 404.696 71.5464C404.897 71.0611 405 70.5409 405 70.0156C405 68.9548 404.579 67.9373 403.828 67.1872C403.078 66.4371 402.061 66.0156 401 66.0156C399.939 66.0156 398.922 66.4371 398.172 67.1872C397.421 67.9373 397 68.9548 397 70.0156Z" stroke="#605070" stroke-width="2" stroke-linecap="round" stroke-linejoin="round"/>
<path d="M389.308 87.6923V86.4615C389.308 85.1021 388.206 84 386.846 84H379.462C378.102 84 377 85.1021 377 86.4615V93.8462C377 95.2056 378.102 96.3077 379.462 96.3077H380.692M383.154 100H390.538C391.898 100 393 98.8979 393 97.5385V90.1538C393 88.7944 391.898 87.6923 390.538 87.6923H383.154C381.794 87.6923 380.692 88.7944 380.692 90.1538V97.5385C380.692 98.8979 381.794 100 383.154 100Z" stroke="#605070" stroke-width="2" stroke-miterlimit="16" stroke-linecap="round"/>
</svg>
