<svg width="16" height="16" viewBox="0 0 16 16" fill="none" xmlns="http://www.w3.org/2000/svg">
<path fill-rule="evenodd" clip-rule="evenodd" d="M2.38965 7.89077C2.38965 5.38496 2.72104 4.11936 3.4202 3.4202C4.11936 2.72104 5.38496 2.38965 7.89077 2.38965C10.3966 2.38965 11.6622 2.72104 12.3613 3.4202C13.0605 4.11936 13.3919 5.38496 13.3919 7.89077C13.3919 10.3966 13.0605 11.6622 12.3613 12.3613C11.6622 13.0605 10.3966 13.3919 7.89077 13.3919C5.38496 13.3919 4.11936 13.0605 3.4202 12.3613C2.72104 11.6622 2.38965 10.3966 2.38965 7.89077ZM7.89077 0.889648C5.39568 0.889648 3.53572 1.18337 2.35954 2.35954C1.18337 3.53572 0.889648 5.39568 0.889648 7.89077C0.889648 10.3859 1.18337 12.2458 2.35954 13.422C3.53572 14.5982 5.39568 14.8919 7.89077 14.8919C10.3859 14.8919 12.2458 14.5982 13.422 13.422C14.5982 12.2458 14.8919 10.3859 14.8919 7.89077C14.8919 5.39568 14.5982 3.53572 13.422 2.35954C12.2458 1.18337 10.3859 0.889648 7.89077 0.889648ZM7.87515 4.01585C7.46857 4.0148 7.06546 4.10145 6.69701 4.27106C6.32843 4.44073 6.00214 4.68999 5.74674 5.00315C5.48495 5.32415 5.53295 5.79659 5.85395 6.05838C6.17494 6.32017 6.64739 6.27217 6.90917 5.95117C7.01544 5.82088 7.15652 5.71083 7.32423 5.63363C7.49206 5.55638 7.67951 5.51535 7.87128 5.51584C8.06305 5.51634 8.2502 5.55833 8.41747 5.63641C8.58462 5.71443 8.72494 5.82512 8.83033 5.95585C8.9355 6.0863 9.00346 6.23348 9.03328 6.38488C9.06306 6.53608 9.05488 6.69156 9.00867 6.84051C8.96236 6.98973 8.87797 7.13185 8.75746 7.25382C8.63832 7.37441 8.48724 7.47173 8.31381 7.53456C7.9456 7.65754 7.61951 7.89074 7.39071 8.21002C7.15878 8.53366 7.04179 8.92587 7.06623 9.32673C7.09143 9.74018 7.44703 10.0549 7.86048 10.0297C8.27392 10.0045 8.58865 9.6489 8.56345 9.23546C8.56051 9.18729 8.57372 9.13433 8.60997 9.08375C8.64701 9.03206 8.70821 8.98372 8.79147 8.95649L8.80966 8.95027C9.19221 8.81418 9.54033 8.59569 9.82452 8.30805C10.1089 8.02018 10.3216 7.67062 10.4413 7.28503C10.561 6.89917 10.5831 6.49131 10.505 6.09498C10.427 5.69885 10.2519 5.32927 9.9981 5.01441C9.74448 4.69982 9.41957 4.4488 9.05191 4.27719C8.68437 4.10563 8.28173 4.0169 7.87515 4.01585ZM8.56484 11.01C8.56484 10.5958 8.22905 10.26 7.81484 10.26C7.40062 10.26 7.06484 10.5958 7.06484 11.01V11.017C7.06484 11.4312 7.40062 11.767 7.81484 11.767C8.22905 11.767 8.56484 11.4312 8.56484 11.017V11.01Z" fill="#292929"/>
</svg>
