<svg width="66" height="28" viewBox="0 0 66 28" fill="none" xmlns="http://www.w3.org/2000/svg">
<g clip-path="url(#clip0_1470_1352)">
<path d="M56 1H52.5C50.0147 1 48 3.01472 48 5.5V11H56V1Z" fill="#CED1D6"/>
<path d="M56.3333 1V11.1111M65 11.1111H47.6667M65 6.77778C65 5.24542 64.3913 3.77582 63.3077 2.69227C62.2242 1.60873 60.7546 1 59.2222 1H53.4444C51.9121 1 50.4425 1.60873 49.3589 2.69227C48.2754 3.77582 47.6667 5.24542 47.6667 6.77778V21.2222C47.6667 22.7546 48.2754 24.2242 49.3589 25.3077C50.4425 26.3913 51.9121 27 53.4444 27H59.2222C60.7546 27 62.2242 26.3913 63.3077 25.3077C64.3913 24.2242 65 22.7546 65 21.2222V6.77778Z" stroke="#AAACAF" stroke-width="1.5" stroke-linecap="round" stroke-linejoin="round"/>
<path d="M26.963 6.77778C26.963 5.24542 26.3542 3.77582 25.2707 2.69227C24.1871 1.60873 22.7175 1 21.1852 1H6.74073C5.20837 1 3.73877 1.60873 2.65522 2.69227C1.57168 3.77582 0.962949 5.24542 0.962949 6.77778V21.2222C0.962949 22.7546 1.57168 24.2242 2.65522 25.3077C3.73877 26.3913 5.20837 27 6.74073 27H21.1852C22.7175 27 24.1871 26.3913 25.2707 25.3077C26.3542 24.2242 26.963 22.7546 26.963 21.2222V6.77778Z" stroke="#AAACAF" stroke-width="1.5" stroke-linecap="round" stroke-linejoin="round"/>
<path d="M9.71429 11.4286C9.37523 11.4286 9.04379 11.328 8.76188 11.1397C8.47997 10.9513 8.26024 10.6836 8.13049 10.3703C8.00074 10.0571 7.96679 9.71238 8.03294 9.37985C8.09909 9.04731 8.26236 8.74185 8.5021 8.5021C8.74185 8.26236 9.04731 8.09909 9.37985 8.03294C9.71238 7.96679 10.0571 8.00074 10.3703 8.13049C10.6836 8.26024 10.9513 8.47997 11.1397 8.76188C11.328 9.04379 11.4286 9.37523 11.4286 9.71429V18.2857C11.4286 18.6248 11.328 18.9562 11.1397 19.2381C10.9513 19.52 10.6836 19.7398 10.3703 19.8695C10.0571 19.9993 9.71238 20.0332 9.37985 19.9671C9.04731 19.9009 8.74185 19.7376 8.5021 19.4979C8.26236 19.2581 8.09909 18.9527 8.03294 18.6202C7.96679 18.2876 8.00074 17.9429 8.13049 17.6297C8.26024 17.3164 8.47997 17.0487 8.76188 16.8603C9.04379 16.672 9.37523 16.5714 9.71429 16.5714H18.2857C18.6248 16.5714 18.9562 16.672 19.2381 16.8603C19.52 17.0487 19.7398 17.3164 19.8695 17.6297C19.9993 17.9429 20.0332 18.2876 19.9671 18.6202C19.9009 18.9527 19.7376 19.2581 19.4979 19.4979C19.2581 19.7376 18.9527 19.9009 18.6202 19.9671C18.2876 20.0332 17.9429 19.9993 17.6297 19.8695C17.3164 19.7398 17.0487 19.52 16.8603 19.2381C16.672 18.9562 16.5714 18.6248 16.5714 18.2857V9.71429C16.5714 9.37523 16.672 9.04379 16.8603 8.76188C17.0487 8.47997 17.3164 8.26024 17.6297 8.13049C17.9429 8.00074 18.2876 7.96679 18.6202 8.03294C18.9527 8.09909 19.2581 8.26236 19.4979 8.5021C19.7376 8.74185 19.9009 9.04731 19.9671 9.37985C20.0332 9.71238 19.9993 10.0571 19.8695 10.3703C19.7398 10.6836 19.52 10.9513 19.2381 11.1397C18.9562 11.328 18.6248 11.4286 18.2857 11.4286H9.71429Z" stroke="#AAACAF" stroke-width="1.5" stroke-linecap="round" stroke-linejoin="round"/>
<path d="M37.0745 10.1484V17.8521M33.2227 14.0003H37.0745H40.9264" stroke="#AAACAF" stroke-width="1.5" stroke-linecap="round" stroke-linejoin="round"/>
</g>
<defs>
<clipPath id="clip0_1470_1352">
<rect width="66" height="28" fill="white" transform="matrix(-1 0 0 1 66 0)"/>
</clipPath>
</defs>
</svg>
