<svg width="30" height="30" viewBox="0 0 30 30" fill="none" xmlns="http://www.w3.org/2000/svg">
<path d="M18.6975 5V9.25202C18.6975 9.53395 18.8085 9.80433 19.0061 10.0037C19.2036 10.203 19.4716 10.315 19.751 10.315H23.9649M18.6975 5H11.1077C10.5489 5 10.013 5.22399 9.61784 5.62269C9.22271 6.0214 9.00073 6.56216 9.00073 7.12601V10.0037M18.6975 5L23.9649 10.315M23.9649 10.315L24.0007 21.874C24.0007 22.4378 23.7788 22.9786 23.3836 23.3773C22.9885 23.776 22.4526 24 21.8938 24H20.0007" stroke="#292929" stroke-width="1.5" stroke-linecap="round" stroke-linejoin="round"/>
<path d="M7.00073 18C7.00073 18.7879 7.15593 19.5681 7.45746 20.2961C7.75898 21.0241 8.20094 21.6855 8.75809 22.2426C9.31524 22.7998 9.97668 23.2418 10.7046 23.5433C11.4326 23.8448 12.2128 24 13.0007 24C13.7887 24 14.5689 23.8448 15.2968 23.5433C16.0248 23.2418 16.6862 22.7998 17.2434 22.2426C17.8005 21.6855 18.2425 21.0241 18.544 20.2961C18.8455 19.5681 19.0007 18.7879 19.0007 18M7.00073 18C7.00073 16.4087 7.63287 14.8826 8.75809 13.7574C9.88331 12.6321 11.4094 12 13.0007 12C14.592 12 16.1182 12.6321 17.2434 13.7574C18.3686 14.8826 19.0007 16.4087 19.0007 18M7.00073 18H19.0007M12.6675 12C11.5444 13.7997 10.949 15.8786 10.949 18C10.949 20.1214 11.5444 22.2003 12.6675 24M13.3341 12C14.4572 13.7997 15.0526 15.8786 15.0526 18C15.0526 20.1214 14.4572 22.2003 13.3341 24" stroke="#292929" stroke-width="1.5" stroke-linejoin="round"/>
</svg>
