<svg width="24" height="24" viewBox="0 0 24 24" fill="none" xmlns="http://www.w3.org/2000/svg">
<path d="M3 20.5V6.6875C3 5.84212 3.35558 5.03137 3.98851 4.4336C4.62145 3.83582 5.47989 3.5 6.375 3.5H17.625C18.5201 3.5 19.3786 3.83582 20.0115 4.4336C20.6444 5.03137 21 5.84212 21 6.6875V13.0625C21 13.9079 20.6444 14.7186 20.0115 15.3164C19.3786 15.9142 18.5201 16.25 17.625 16.25H7.5L3 20.5Z" stroke="white" stroke-width="1.5" stroke-linecap="round" stroke-linejoin="round"/>
<path d="M15.5 10.5L15.6924 9.64585C15.8556 8.9214 16.4214 8.3556 17.1459 8.1924L18 8L17.1459 7.8076C16.4214 7.6444 15.8556 7.07865 15.6924 6.35415L15.5 5.5L15.3076 6.35415C15.1444 7.07865 14.5786 7.6444 13.8541 7.8076L13 8L13.8541 8.1924C14.5786 8.3556 15.1444 8.92135 15.3076 9.64585L15.5 10.5Z" fill="white"/>
<path d="M9.5 14.5L9.84633 12.9625C10.1401 11.6585 11.1585 10.6401 12.4625 10.3463L14 10L12.4625 9.65368C11.1585 9.35992 10.1401 8.34157 9.84633 7.03747L9.5 5.5L9.15367 7.03747C8.85991 8.34157 7.84153 9.35992 6.53744 9.65368L5 10L6.53744 10.3463C7.84153 10.6401 8.85991 11.6584 9.15367 12.9625L9.5 14.5Z" fill="white"/>
</svg>
