<svg width="32" height="32" viewBox="0 0 32 32" fill="none" xmlns="http://www.w3.org/2000/svg">
<g clip-path="url(#clip0_553_213)">
<path d="M17.6696 17.3513L22.3317 19.8109M17.5015 23.3183L21.0624 22.217L26.289 12.31C26.4505 12.0039 26.5501 11.669 26.5822 11.3244C26.6143 10.9797 26.5781 10.6322 26.4759 10.3015C26.3736 9.97088 26.2072 9.6636 25.9862 9.39725C25.7652 9.1309 25.4939 8.91069 25.1878 8.74919C24.8816 8.58769 24.5467 8.48807 24.2021 8.45601C23.8575 8.42395 23.5099 8.46008 23.1793 8.56234C22.8486 8.6646 22.5413 8.83099 22.275 9.052C22.0086 9.27301 21.7884 9.54432 21.6269 9.85044L16.4003 19.7574L17.5015 23.3183Z" stroke="white" stroke-width="1.5" stroke-linecap="round" stroke-linejoin="round"/>
<path d="M9.5032 13.9995C11 17 9.54247 18.4902 7.04396 19.4938C4.54546 20.4974 4.25892 24.2177 7.04301 26.0321C9.8271 27.8466 12.9849 27.0836 15.2124 24.4872" stroke="white" stroke-width="2" stroke-linecap="round"/>
</g>
<defs>
<clipPath id="clip0_553_213">
<rect width="24" height="24" fill="white" transform="translate(4 4)"/>
</clipPath>
</defs>
</svg>
