<svg width="32" height="32" viewBox="0 0 32 32" fill="none" xmlns="http://www.w3.org/2000/svg">
<path d="M12.7059 12.7059H20.2353M12.7059 16.4706H18.3529M13.6471 21.1765H10.8235C10.0747 21.1765 9.35651 20.879 8.82699 20.3495C8.29748 19.82 8 19.1018 8 18.3529V10.8235C8 10.0747 8.29748 9.35651 8.82699 8.82699C9.35651 8.29748 10.0747 8 10.8235 8H22.1176C22.8665 8 23.5847 8.29748 24.1142 8.82699C24.6437 9.35651 24.9412 10.0747 24.9412 10.8235V18.3529C24.9412 19.1018 24.6437 19.82 24.1142 20.3495C23.5847 20.879 22.8665 21.1765 22.1176 21.1765H19.2941L16.4706 24L13.6471 21.1765Z" stroke="white" stroke-width="1.5" stroke-linecap="round" stroke-linejoin="round"/>
</svg>
