<svg width="30" height="30" viewBox="0 0 30 30" fill="none" xmlns="http://www.w3.org/2000/svg">
<path d="M17.2231 17.2853C17.3194 17.7128 17.9286 17.7128 18.0249 17.2853C18.365 15.7758 19.5438 14.5969 21.0534 14.2568C21.4809 14.1606 21.4809 13.5514 21.0534 13.4551C19.5438 13.115 18.365 11.9362 18.0249 10.4266C17.9286 9.99908 17.3194 9.99908 17.2231 10.4266C16.8831 11.9362 15.7042 13.115 14.1947 13.4551C13.7671 13.5514 13.7671 14.1605 14.1947 14.2568C15.7042 14.5969 16.8831 15.7757 17.2231 17.2853Z" fill="#292929"/>
<path d="M13.3596 11.2325C13.4173 11.4891 13.7829 11.4891 13.8406 11.2325C14.0447 10.3268 14.752 9.61949 15.6577 9.41546C15.9142 9.35768 15.9142 8.99217 15.6577 8.93439C14.752 8.73036 14.0447 8.02307 13.8406 7.11731C13.7829 6.8608 13.4173 6.8608 13.3596 7.11731C13.1555 8.02307 12.4482 8.73036 11.5425 8.93439C11.286 8.99217 11.286 9.35768 11.5425 9.41546C12.4482 9.61949 13.1555 10.3268 13.3596 11.2325Z" fill="#292929"/>
<path d="M11.428 12.1749L11.0368 12.5961C10.3709 13.3132 10.393 14.4253 11.087 15.1155L16.3743 20.3746C17.0881 21.0847 18.2455 21.0847 18.9594 20.3746L23.0001 16.3554" stroke="#292929" stroke-width="1.5" stroke-linecap="round"/>
<path d="M11.4444 15.4713L7 19.892V23.075L13.0444 23.075L16.0666 20.0689" stroke="#292929" stroke-width="1.5" stroke-linejoin="round"/>
</svg>
