<svg width="30" height="30" viewBox="0 0 30 30" fill="none" xmlns="http://www.w3.org/2000/svg">
<path d="M18.2955 22.7977C18.4096 23.3044 19.1316 23.3044 19.2458 22.7977C19.6488 21.0087 21.046 19.6114 22.8351 19.2084C23.3417 19.0943 23.3417 18.3723 22.8351 18.2581C21.046 17.8551 19.6488 16.458 19.2458 14.6688C19.1316 14.1621 18.4096 14.1621 18.2955 14.6688C17.8925 16.458 16.4953 17.8551 14.7062 18.2581C14.1995 18.3723 14.1995 19.0943 14.7062 19.2084C16.4953 19.6114 17.8925 21.0085 18.2955 22.7977Z" fill="#292929"/>
<path d="M13.6441 15.8767C13.7012 16.1301 14.0622 16.1301 14.1192 15.8767C14.3207 14.9822 15.0193 14.2836 15.9139 14.0821C16.1672 14.025 16.1672 13.664 15.9139 13.607C15.0193 13.4055 14.3207 12.7069 14.1192 11.8123C14.0622 11.559 13.7012 11.559 13.6441 11.8123C13.4426 12.7069 12.744 13.4055 11.8494 13.607C11.5961 13.664 11.5961 14.025 11.8494 14.0821C12.744 14.2836 13.4426 14.9822 13.6441 15.8767Z" fill="#292929"/>
<path d="M8.95947 6.82227L6.85947 6.82227" stroke="#292929" stroke-width="1.5" stroke-linecap="round"/>
<path d="M22.6094 6.82227L20.5094 6.82227" stroke="#292929" stroke-width="1.5" stroke-linecap="round"/>
<path d="M17.8096 6.82227L16.0096 6.82227" stroke="#292929" stroke-width="1.5" stroke-linecap="round"/>
<path d="M13.3096 6.82227L11.5096 6.82227" stroke="#292929" stroke-width="1.5" stroke-linecap="round"/>
<path d="M8.95947 22.5723L6.85947 22.5723" stroke="#292929" stroke-width="1.5" stroke-linecap="round"/>
<path d="M13.1594 22.5723L11.3594 22.5723" stroke="#292929" stroke-width="1.5" stroke-linecap="round"/>
<path d="M6.78516 8.99805L6.78516 6.89805" stroke="#292929" stroke-width="1.5" stroke-linecap="round"/>
<path d="M6.78516 22.498L6.78516 20.398" stroke="#292929" stroke-width="1.5" stroke-linecap="round"/>
<path d="M6.78516 17.8479L6.78516 16.0479" stroke="#292929" stroke-width="1.5" stroke-linecap="round"/>
<path d="M6.78516 13.3479L6.78516 11.5479" stroke="#292929" stroke-width="1.5" stroke-linecap="round"/>
<path d="M22.6851 8.99805L22.6851 6.89805" stroke="#292929" stroke-width="1.5" stroke-linecap="round"/>
<path d="M22.6851 13.3479L22.6851 11.5479" stroke="#292929" stroke-width="1.5" stroke-linecap="round"/>
</svg>
