<svg width="32" height="32" viewBox="0 0 32 32" fill="none" xmlns="http://www.w3.org/2000/svg">
<path d="M12 9.00049C12 8.73527 11.8946 8.48092 11.7071 8.29338C11.5196 8.10585 11.2652 8.00049 11 8.00049H9C8.73478 8.00049 8.48043 8.10585 8.29289 8.29338C8.10536 8.48092 8 8.73527 8 9.00049V23.0005C8 23.2657 8.10536 23.5201 8.29289 23.7076C8.48043 23.8951 8.73478 24.0005 9 24.0005H11C11.2652 24.0005 11.5196 23.8951 11.7071 23.7076C11.8946 23.5201 12 23.2657 12 23.0005M12 9.00049V23.0005M12 9.00049C12 8.73527 12.1054 8.48092 12.2929 8.29338C12.4804 8.10585 12.7348 8.00049 13 8.00049H15C15.2652 8.00049 15.5196 8.10585 15.7071 8.29338C15.8946 8.48092 16 8.73527 16 9.00049V23.0005C16 23.2657 15.8946 23.5201 15.7071 23.7076C15.5196 23.8951 15.2652 24.0005 15 24.0005H13C12.7348 24.0005 12.4804 23.8951 12.2929 23.7076C12.1054 23.5201 12 23.2657 12 23.0005M8 12.0005H12M12 20.0005H16M17 13.0005L21 12.0005M19 20.0005L22.923 19.0205M16.8031 8.56053L18.9871 8.03053C19.5491 7.89553 20.1201 8.22053 20.2691 8.76253L23.9641 22.1805C24.0293 22.4262 24.0004 22.6873 23.8831 22.9128C23.7659 23.1383 23.5686 23.3119 23.3301 23.3995L23.1971 23.4405L21.0131 23.9705C20.4511 24.1055 19.8801 23.7805 19.7311 23.2385L16.0361 9.82053C15.9709 9.57488 15.9998 9.31374 16.117 9.08826C16.2343 8.86278 16.4315 8.68921 16.6701 8.60153L16.8031 8.56053Z" stroke="white" stroke-width="1.5" stroke-linecap="round" stroke-linejoin="round"/>
</svg>
