<svg width="1537" height="372" viewBox="0 0 1537 372" fill="none" xmlns="http://www.w3.org/2000/svg">
    <path
        d="M20.9141 76.4062H69.6641L135.172 236.672H137.914L203.422 76.4062H252.172V297H214.086V145.266H211.953L150.711 296.391H122.375L61.1328 144.656H59.3047V297H20.9141V76.4062ZM373.783 300.352C325.49 300.352 294.564 266.074 294.564 215.039C294.564 163.547 325.49 129.422 373.783 129.422C422.228 129.422 453.154 163.547 453.002 215.039C453.154 266.074 422.228 300.352 373.783 300.352ZM333.869 214.734C333.869 245.051 347.123 269.273 374.088 269.273C400.595 269.273 413.849 245.051 413.697 214.734C413.849 184.418 400.595 160.043 374.088 160.195C347.123 160.043 333.869 184.418 333.869 214.734ZM565.777 300.352C517.484 300.352 486.558 266.074 486.558 215.039C486.558 163.547 517.484 129.422 565.777 129.422C614.222 129.422 645.148 163.547 644.995 215.039C645.148 266.074 614.222 300.352 565.777 300.352ZM525.863 214.734C525.863 245.051 539.116 269.273 566.081 269.273C592.589 269.273 605.843 245.051 605.691 214.734C605.843 184.418 592.589 160.043 566.081 160.195C539.116 160.043 525.863 184.418 525.863 214.734ZM724.559 200.109V297H685.559V131.555H722.731V159.586H724.864C732.329 141.152 749.239 129.422 773.919 129.422C808.196 129.422 830.743 151.969 830.591 191.578V297H791.895V197.672C791.895 175.43 779.86 162.176 759.599 162.328C739.032 162.176 724.559 176.039 724.559 200.109ZM917.163 76.4062V297H878.163V76.4062H917.163ZM964.734 297V131.555H1003.73V297H964.734ZM961.992 86.7656C961.992 75.1875 972.199 65.7422 984.539 65.7422C996.879 65.7422 1007.09 75.1875 1007.09 86.7656C1007.09 98.4961 996.879 107.941 984.539 108.094C972.199 107.941 961.992 98.4961 961.992 86.7656ZM1123.52 362.508C1079.64 362.508 1051.76 343.008 1049.17 311.93H1087.87C1090.61 326.402 1104.17 333.105 1124.13 333.258C1147.44 333.105 1162.52 323.051 1162.52 298.828V267.141H1160.69C1154.6 279.328 1141.34 294.562 1112.85 294.562C1074.61 294.562 1044.6 266.836 1044.6 212.906C1044.6 158.52 1074.77 129.422 1113.16 129.422C1142.26 129.422 1154.6 146.941 1160.69 158.672H1162.52V131.555H1200.91V299.742C1200.91 342.094 1168.15 362.508 1123.52 362.508ZM1084.21 213.516C1084.21 243.984 1097.92 264.094 1123.52 264.094C1148.65 264.094 1162.82 245.203 1162.82 213.516C1162.82 181.98 1148.81 161.262 1123.52 161.109C1097.62 161.262 1084.21 183.352 1084.21 213.516ZM1287.48 200.109V297H1248.48V76.4062H1286.57V159.586H1288.7C1296.16 140.848 1312.31 129.422 1337.75 129.422C1372.03 129.422 1394.73 151.664 1394.73 191.578V297H1356.03V197.672C1355.88 175.125 1343.85 162.176 1323.43 162.328C1302.41 162.176 1287.48 176.039 1287.48 200.109ZM1524.57 131.555V161.414H1491.97V247.336C1491.97 263.18 1499.89 266.379 1509.64 266.531C1514.21 266.684 1521.83 266.227 1526.7 265.922V297.609C1522.13 298.371 1514.66 299.285 1504.76 299.133C1475.51 299.285 1452.97 284.812 1453.27 253.734V161.414H1429.5V131.555H1453.27V91.9453H1491.97V131.555H1524.57Z"
        fill="#402060" />
</svg>