<svg width="450" height="450" viewBox="0 0 450 450" fill="none" xmlns="http://www.w3.org/2000/svg">
<path d="M129.359 197.418C130.399 202.035 136.978 202.035 138.018 197.418C141.691 181.115 154.422 168.383 170.725 164.71C175.343 163.67 175.343 157.091 170.725 156.051C154.422 152.379 141.691 139.647 138.018 123.344C136.978 118.727 130.399 118.727 129.359 123.344C125.686 139.647 112.954 152.379 96.6511 156.051C92.034 157.091 92.034 163.67 96.6511 164.71C112.954 168.383 125.686 181.114 129.359 197.418Z" fill="#292929"/>
<path d="M208.312 330.119H257.812" stroke="#292929" stroke-width="22.5" stroke-linecap="round"/>
<path d="M208.312 217.619H356.812" stroke="#292929" stroke-width="22.5" stroke-linecap="round"/>
<path d="M208.312 161.369H320.812" stroke="#292929" stroke-width="22.5" stroke-linecap="round"/>
<path d="M208.312 273.869H293.812" stroke="#292929" stroke-width="22.5" stroke-linecap="round"/>
</svg>
