<svg width="450" height="450" viewBox="0 0 450 450" fill="none" xmlns="http://www.w3.org/2000/svg">
<path d="M105 311.155C105 329.795 120.11 344.905 138.75 344.905L311.25 344.905C329.889 344.905 345 329.795 345 311.155" stroke="#292929" stroke-width="22.5" stroke-linecap="round" stroke-linejoin="round"/>
<path d="M226.454 247.613C225.583 247.154 224.541 247.154 223.669 247.612L174.803 273.277C172.607 274.43 170.042 272.565 170.462 270.121L179.795 215.769C179.962 214.797 179.639 213.805 178.932 213.117L139.356 174.633C137.576 172.902 138.556 169.882 141.013 169.526L195.629 161.619C196.604 161.478 197.447 160.866 197.883 159.983L222.316 110.526C223.414 108.304 226.584 108.304 227.682 110.526L252.115 159.983C252.551 160.866 253.394 161.478 254.369 161.619L308.985 169.526C311.442 169.882 312.422 172.902 310.642 174.633L271.066 213.117C270.359 213.805 270.036 214.797 270.203 215.769L279.535 270.114C279.955 272.56 277.387 274.424 275.191 273.269L226.454 247.613Z" stroke="#292929" stroke-width="22.5" stroke-linecap="round" stroke-linejoin="round"/>
</svg>
