<svg width="450" height="450" viewBox="0 0 450 450" fill="none" xmlns="http://www.w3.org/2000/svg">
<path d="M105 225C105 240.759 108.104 256.363 114.134 270.922C120.165 285.481 129.004 298.71 140.147 309.853C151.29 320.996 164.519 329.835 179.078 335.866C193.637 341.896 209.241 345 225 345C240.759 345 256.363 341.896 270.922 335.866C285.481 329.835 298.71 320.996 309.853 309.853C320.996 298.71 329.835 285.481 335.866 270.922C341.896 256.363 345 240.759 345 225M105 225C105 193.174 117.643 162.652 140.147 140.147C162.652 117.643 193.174 105 225 105C256.826 105 287.348 117.643 309.853 140.147C332.357 162.652 345 193.174 345 225M105 225H345M218.335 105C195.873 140.995 183.965 182.572 183.965 225C183.965 267.428 195.873 309.005 218.335 345M231.667 105C254.129 140.995 266.037 182.572 266.037 225C266.037 267.428 254.129 309.005 231.667 345" stroke="#292929" stroke-width="22.5" stroke-linejoin="round"/>
</svg>
