<svg width="450" height="450" viewBox="0 0 450 450" fill="none" xmlns="http://www.w3.org/2000/svg">
<path d="M270.133 90.8779V150.908C270.133 154.889 271.7 158.706 274.489 161.52C277.278 164.335 281.061 165.916 285.006 165.916H344.498M270.133 90.8779H162.979C155.09 90.8779 147.524 94.0402 141.946 99.6692C136.367 105.298 133.234 112.933 133.234 120.893V161.52M270.133 90.8779L344.498 165.916M344.498 165.916L345.004 329.106C345.004 337.067 341.87 344.701 336.291 350.33C330.713 355.959 323.147 359.121 315.258 359.121H288.532" stroke="#292929" stroke-width="22.5" stroke-linecap="round" stroke-linejoin="round"/>
<path d="M104.996 274.413C104.996 285.537 107.188 296.552 111.445 306.829C115.701 317.106 121.941 326.445 129.807 334.311C137.673 342.176 147.011 348.416 157.288 352.673C167.565 356.93 178.581 359.121 189.705 359.121C200.829 359.121 211.844 356.93 222.121 352.673C232.398 348.416 241.736 342.176 249.602 334.311C257.468 326.445 263.708 317.106 267.965 306.829C272.222 296.552 274.413 285.537 274.413 274.413M104.996 274.413C104.996 251.946 113.921 230.401 129.807 214.515C145.693 198.629 167.239 189.704 189.705 189.704C212.171 189.704 233.716 198.629 249.602 214.515C265.488 230.401 274.413 251.946 274.413 274.413M104.996 274.413H274.413M185 189.704C169.144 215.113 160.738 244.462 160.738 274.413C160.738 304.363 169.144 333.712 185 359.121M194.411 189.704C210.267 215.113 218.673 244.462 218.673 274.413C218.673 304.363 210.267 333.712 194.411 359.121" stroke="#292929" stroke-width="22.5" stroke-linejoin="round"/>
</svg>
