<svg width="450" height="450" viewBox="0 0 450 450" fill="none" xmlns="http://www.w3.org/2000/svg">
<path d="M215.7 212.907C216.757 217.6 223.443 217.6 224.5 212.907C228.232 196.34 241.171 183.401 257.739 179.668C262.431 178.612 262.431 171.925 257.739 170.868C241.171 167.136 228.232 154.198 224.5 137.63C223.443 132.937 216.757 132.937 215.7 137.63C211.968 154.198 199.029 167.136 182.461 170.868C177.769 171.925 177.769 178.611 182.461 179.668C199.029 183.401 211.968 196.339 215.7 212.907Z" fill="#292929"/>
<path d="M143.903 179.073C144.506 181.75 148.321 181.75 148.924 179.073C151.054 169.619 158.437 162.236 167.891 160.106C170.568 159.503 170.568 155.688 167.891 155.085C158.437 152.955 151.054 145.573 148.924 136.118C148.321 133.441 144.506 133.441 143.903 136.118C141.773 145.573 134.39 152.955 124.936 155.085C122.259 155.688 122.259 159.503 124.936 160.106C134.39 162.236 141.773 169.619 143.903 179.073Z" fill="#292929"/>
<path d="M261.042 101.613C278.443 101.613 292.55 115.677 292.55 133.025V216.788C292.55 234.136 278.443 248.2 261.042 248.2H138.51L92.996 290.081V133.025C92.996 115.677 107.103 101.613 124.505 101.613H261.042Z" stroke="#292929" stroke-width="22.5" stroke-linecap="round" stroke-linejoin="round"/>
<path d="M292.802 175.388H325.495C342.897 175.388 357.004 189.451 357.004 206.799V348.387L311.49 306.505H209.583C192.182 306.505 178.075 292.442 178.075 275.094V258.993" stroke="#292929" stroke-width="22.5" stroke-linecap="round" stroke-linejoin="round"/>
</svg>
