<svg width="450" height="450" viewBox="0 0 450 450" fill="none" xmlns="http://www.w3.org/2000/svg">
<path d="M323.999 175.706C297.599 219.706 264.599 241.706 224.999 241.706C185.399 241.706 152.399 219.706 125.999 175.706C152.399 131.706 185.399 109.706 224.999 109.706C264.599 109.706 297.599 131.706 323.999 175.706Z" stroke="#292929" stroke-width="22.5" stroke-linecap="round" stroke-linejoin="round"/>
<path d="M262.124 175.706C262.124 196.21 245.503 212.831 224.999 212.831C204.496 212.831 187.874 196.21 187.874 175.706C187.874 155.202 204.496 138.581 224.999 138.581C245.503 138.581 262.124 155.202 262.124 175.706Z" stroke="#292929" stroke-width="22.5" stroke-linecap="round" stroke-linejoin="round"/>
<path d="M93 303.169C93 323.673 109.621 340.294 130.125 340.294L319.875 340.294C340.379 340.294 357 323.673 357 303.169" stroke="#292929" stroke-width="22.5" stroke-linecap="round" stroke-linejoin="round"/>
</svg>
