<svg width="450" height="450" viewBox="0 0 450 450" fill="none" xmlns="http://www.w3.org/2000/svg">
<path d="M278.343 239.28C279.787 245.693 288.925 245.693 290.37 239.28C295.47 216.638 313.153 198.954 335.796 193.853C342.209 192.409 342.209 183.271 335.796 181.826C313.153 176.726 295.47 159.043 290.37 136.399C288.925 129.987 279.787 129.987 278.343 136.399C273.242 159.043 255.559 176.726 232.915 181.826C226.503 183.271 226.503 192.409 232.915 193.853C255.559 198.954 273.242 216.636 278.343 239.28Z" fill="#292929"/>
<path d="M220.391 148.488C221.258 152.336 226.741 152.336 227.608 148.488C230.668 134.903 241.278 124.293 254.864 121.232C258.711 120.365 258.711 114.883 254.864 114.016C241.278 110.956 230.668 100.346 227.608 86.7598C226.741 82.9121 221.258 82.9121 220.391 86.7598C217.331 100.346 206.721 110.956 193.135 114.016C189.287 114.883 189.287 120.365 193.135 121.232C206.721 124.293 217.331 134.902 220.391 148.488Z" fill="#292929"/>
<path d="M191.418 162.625L185.551 168.942C175.562 179.698 175.894 196.38 186.303 206.733L265.613 285.62C276.321 296.271 293.682 296.271 304.389 285.62L365.001 225.332" stroke="#292929" stroke-width="22.5" stroke-linecap="round"/>
<path d="M191.666 212.07L124.999 278.381V326.125L215.665 326.125L260.999 281.034" stroke="#292929" stroke-width="22.5" stroke-linejoin="round"/>
</svg>
