<svg width="450" height="450" viewBox="0 0 450 450" fill="none" xmlns="http://www.w3.org/2000/svg">
<path d="M192.656 148.077C193.488 151.77 198.75 151.77 199.582 148.077C202.52 135.037 212.704 124.853 225.744 121.915C229.438 121.083 229.438 115.821 225.744 114.989C212.704 112.051 202.52 101.868 199.582 88.8266C198.75 85.1333 193.488 85.1333 192.656 88.8266C189.718 101.868 179.534 112.051 166.493 114.989C162.8 115.821 162.8 121.083 166.493 121.915C179.534 124.853 189.718 135.036 192.656 148.077Z" fill="#292929"/>
<path d="M295.347 211.327C296.733 217.483 305.505 217.483 306.891 211.327C311.787 189.594 328.76 172.62 350.495 167.724C356.65 166.337 356.65 157.566 350.495 156.18C328.76 151.284 311.787 134.311 306.891 112.576C305.505 106.421 296.733 106.421 295.347 112.576C290.451 134.311 273.478 151.284 251.743 156.18C245.588 157.566 245.588 166.337 251.743 167.724C273.478 172.62 290.451 189.592 295.347 211.327Z" fill="#292929"/>
<path d="M354.231 269.943L169.224 269.943L354.231 269.943Z" fill="#292929"/>
<path d="M169.224 323.943L314.231 323.943L169.224 323.943Z" fill="#292929"/>
<path d="M228.109 215.943L169.224 215.943L228.109 215.943Z" fill="#292929"/>
<path d="M354.231 269.943L169.224 269.943M169.224 323.943L314.231 323.943M228.109 215.943L169.224 215.943" stroke="#292929" stroke-width="22.5" stroke-linecap="round" stroke-linejoin="round"/>
<path d="M126.889 269.5L114.889 269.5L126.889 269.5Z" fill="#292929"/>
<path d="M114.889 323.5L126.889 323.5L114.889 323.5Z" fill="#292929"/>
<path d="M126.889 215.5L114.889 215.5L126.889 215.5Z" fill="#292929"/>
<path d="M126.889 269.5L114.889 269.5M114.889 323.5L126.889 323.5M126.889 215.5L114.889 215.5" stroke="#292929" stroke-width="22.5" stroke-linecap="round" stroke-linejoin="round"/>
</svg>
