<svg width="450" height="450" viewBox="0 0 450 450" fill="none" xmlns="http://www.w3.org/2000/svg">
<path d="M176.825 224.981C176.825 237.765 181.906 250.026 190.949 259.067C199.992 268.107 212.258 273.186 225.047 273.186C237.836 273.186 250.101 268.107 259.145 259.067C268.188 250.026 273.269 237.765 273.269 224.981C273.269 212.196 268.188 199.935 259.145 190.894C250.101 181.854 237.836 176.775 225.047 176.775C212.258 176.775 199.992 181.854 190.949 190.894C181.906 199.935 176.825 212.196 176.825 224.981Z" stroke="#292929" stroke-width="22.5" stroke-linecap="round" stroke-linejoin="round"/>
<path d="M353.25 225C353.25 154.169 295.831 96.75 225 96.75C154.169 96.75 96.75 154.169 96.75 225C96.75 295.831 154.169 353.25 225 353.25" stroke="#292929" stroke-width="22.5" stroke-linecap="round"/>
<path d="M312.752 225.002C312.752 176.539 273.465 137.252 225.002 137.252C176.539 137.252 137.252 176.539 137.252 225.002C137.252 273.465 176.539 312.752 225.002 312.752" stroke="#292929" stroke-width="22.5" stroke-linecap="round"/>
<path d="M257.786 262.125L295.876 300.215" stroke="#292929" stroke-width="22.5" stroke-linecap="round"/>
<path d="M299.252 302.626L329.627 333.001" stroke="#292929" stroke-width="45" stroke-linecap="round"/>
</svg>
