<svg width="450" height="450" viewBox="0 0 450 450" fill="none" xmlns="http://www.w3.org/2000/svg">
<path d="M182.656 168.077C183.488 171.77 188.75 171.77 189.582 168.077C192.52 155.037 202.704 144.853 215.744 141.915C219.438 141.083 219.438 135.821 215.744 134.989C202.704 132.051 192.52 121.868 189.582 108.827C188.75 105.133 183.488 105.133 182.656 108.827C179.718 121.868 169.534 132.051 156.493 134.989C152.8 135.821 152.8 141.083 156.493 141.915C169.534 144.853 179.718 155.036 182.656 168.077Z" fill="#292929"/>
<path d="M285.347 231.327C286.733 237.483 295.505 237.483 296.891 231.327C301.787 209.594 318.76 192.62 340.495 187.724C346.65 186.337 346.65 177.566 340.495 176.18C318.76 171.284 301.787 154.311 296.891 132.576C295.505 126.421 286.733 126.421 285.347 132.576C280.451 154.311 263.478 171.284 241.743 176.18C235.588 177.566 235.588 186.337 241.743 187.724C263.478 192.62 280.451 209.592 285.347 231.327Z" fill="#292929"/>
<path d="M344.231 289.943L159.224 289.943Z" fill="#292929"/>
<path d="M159.224 343.943L304.231 343.943Z" fill="#292929"/>
<path d="M218.109 235.943L159.224 235.943Z" fill="#292929"/>
<path d="M344.231 289.943L159.224 289.943M159.224 343.943L304.231 343.943M218.109 235.943L159.224 235.943" stroke="#292929" stroke-width="22.5" stroke-linecap="round" stroke-linejoin="round"/>
<path d="M116.889 289.5L104.889 289.5Z" fill="#292929"/>
<path d="M104.889 343.5L116.889 343.5Z" fill="#292929"/>
<path d="M116.889 235.5L104.889 235.5Z" fill="#292929"/>
<path d="M116.889 289.5L104.889 289.5M104.889 343.5L116.889 343.5M116.889 235.5L104.889 235.5" stroke="#292929" stroke-width="22.5" stroke-linecap="round" stroke-linejoin="round"/>
</svg>
