<svg width="16" height="16" viewBox="0 0 16 16" fill="none" xmlns="http://www.w3.org/2000/svg">
<path d="M3 14V12.3248C3 11.4362 3.35119 10.584 3.97631 9.95568C4.60143 9.32735 5.44928 8.97436 6.33333 8.97436H9.66667C10.5507 8.97436 11.3986 9.32735 12.0237 9.95568C12.6488 10.584 13 11.4362 13 12.3248V14M4.66667 5.35043C4.66667 6.23902 5.01786 7.09121 5.64298 7.71954C6.2681 8.34786 7.11594 8.70085 8 8.70085C8.88406 8.70085 9.7319 8.34786 10.357 7.71954C10.9821 7.09121 11.3333 6.23902 11.3333 5.35043C11.3333 4.46184 10.9821 3.60964 10.357 2.98132C9.7319 2.35299 8.88406 2 8 2C7.11594 2 6.2681 2.35299 5.64298 2.98132C5.01786 3.60964 4.66667 4.46184 4.66667 5.35043Z" stroke="#292929" stroke-width="1.5" stroke-linecap="round" stroke-linejoin="round"/>
</svg>
