<svg xmlns="http://www.w3.org/2000/svg" width="16" height="16" viewBox="0 0 16 16" fill="none">
<path fill-rule="evenodd" clip-rule="evenodd" d="M2.5 8.00107C2.5 5.49528 2.83139 4.2297 3.53054 3.53054C4.2297 2.83139 5.49528 2.5 8.00107 2.5C10.5069 2.5 11.7724 2.83139 12.4716 3.53054C13.1707 4.2297 13.5021 5.49528 13.5021 8.00107C13.5021 10.5069 13.1707 11.7724 12.4716 12.4716C11.7724 13.1707 10.5069 13.5021 8.00107 13.5021C5.49528 13.5021 4.2297 13.1707 3.53054 12.4716C2.83139 11.7724 2.5 10.5069 2.5 8.00107ZM8.00107 1C5.506 1 3.64605 1.29372 2.46988 2.46988C1.29372 3.64605 1 5.506 1 8.00107C1 10.4961 1.29372 12.3561 2.46988 13.5322C3.64605 14.7084 5.506 15.0021 8.00107 15.0021C10.4961 15.0021 12.3561 14.7084 13.5322 13.5322C14.7084 12.3561 15.0021 10.4961 15.0021 8.00107C15.0021 5.506 14.7084 3.64605 13.5322 2.46988C12.3561 1.29372 10.4961 1 8.00107 1ZM7.25201 5.87939C7.25138 5.89197 7.25107 5.90464 7.25107 5.91738C7.25107 6.33159 7.58685 6.66738 8.00107 6.66738H8.00801C8.42222 6.66738 8.75801 6.33159 8.75801 5.91738C8.75801 5.89792 8.75727 5.87864 8.75582 5.85956C8.77321 5.79478 8.78249 5.72666 8.78249 5.65638C8.78249 5.22484 8.43266 4.875 8.00111 4.875C7.56956 4.875 7.21973 5.22484 7.21973 5.65638C7.21973 5.73387 7.23101 5.80872 7.25201 5.87939ZM8.75107 8.00107C8.75107 7.58685 8.41528 7.25107 8.00107 7.25107C7.58685 7.25107 7.25107 7.58685 7.25107 8.00107V10.7793C7.25107 11.1935 7.58685 11.5293 8.00107 11.5293C8.41528 11.5293 8.75107 11.1935 8.75107 10.7793V8.00107Z" fill="#292929"/>
</svg>