<svg xmlns="http://www.w3.org/2000/svg" width="30" height="30" viewBox="0 0 30 30" fill="none">
  <path d="M16.9375 21.8421H23.5M20.2188 18.6842V25M6 23.9474V21.8421C6 20.7254 6.46094 19.6544 7.28141 18.8648C8.10188 18.0752 9.21468 17.6316 10.375 17.6316H14.75M8.1875 9.21053C8.1875 10.3272 8.64844 11.3982 9.46891 12.1878C10.2894 12.9774 11.4022 13.4211 12.5625 13.4211C13.7228 13.4211 14.8356 12.9774 15.6561 12.1878C16.4766 11.3982 16.9375 10.3272 16.9375 9.21053C16.9375 8.09383 16.4766 7.02286 15.6561 6.23323C14.8356 5.44361 13.7228 5 12.5625 5C11.4022 5 10.2894 5.44361 9.46891 6.23323C8.64844 7.02286 8.1875 8.09383 8.1875 9.21053Z" stroke="#292929" stroke-width="1.5" stroke-linecap="round" stroke-linejoin="round"/>
</svg>