<svg width="30" height="30" viewBox="0 0 30 30" fill="none" xmlns="http://www.w3.org/2000/svg">
<path d="M7 20.7437C7 21.9863 8.00736 22.9937 9.25 22.9937L20.75 22.9937C21.9926 22.9937 23 21.9863 23 20.7437" stroke="#292929" stroke-width="1.5" stroke-linecap="round" stroke-linejoin="round"/>
<path d="M15.097 16.5075C15.0389 16.4769 14.9695 16.4769 14.9113 16.5074L11.6536 18.2184C11.5072 18.2953 11.3362 18.171 11.3642 18.008L11.9864 14.3846C11.9976 14.3198 11.976 14.2536 11.9289 14.2078L9.29044 11.6422C9.17178 11.5268 9.23713 11.3254 9.40094 11.3017L13.042 10.7746C13.107 10.7652 13.1632 10.7244 13.1923 10.6655L14.8211 7.36839C14.8943 7.22021 15.1057 7.22021 15.1789 7.36839L16.8077 10.6655C16.8368 10.7244 16.893 10.7652 16.958 10.7746L20.5991 11.3017C20.7629 11.3254 20.8282 11.5268 20.7096 11.6422L18.0711 14.2078C18.024 14.2536 18.0024 14.3198 18.0136 14.3846L18.6357 18.0076C18.6637 18.1706 18.4925 18.2949 18.3462 18.2179L15.097 16.5075Z" stroke="#292929" stroke-width="1.5" stroke-linecap="round" stroke-linejoin="round"/>
</svg>
