<svg width="30" height="30" viewBox="0 0 30 30" fill="none" xmlns="http://www.w3.org/2000/svg">
<path d="M17.3333 16.1364H19.6667C20.1282 16.1364 20.5793 16.2643 20.963 16.5041C21.3467 16.7438 21.6458 17.0846 21.8224 17.4832C21.999 17.8819 22.0452 18.3206 21.9552 18.7438C21.8651 19.1671 21.6429 19.5558 21.3166 19.861C20.9903 20.1661 20.5745 20.3739 20.1219 20.4581C19.6693 20.5423 19.2001 20.4991 18.7737 20.3339C18.3474 20.1688 17.983 19.8891 17.7266 19.5303C17.4702 19.1715 17.3333 18.7497 17.3333 18.3182V12.8636C17.3333 11.7063 17.825 10.5964 18.7002 9.77808C19.5753 8.95974 20.7623 8.5 22 8.5M8 16.1364H10.3333C10.7948 16.1364 11.2459 16.2643 11.6297 16.5041C12.0134 16.7438 12.3124 17.0846 12.4891 17.4832C12.6657 17.8819 12.7119 18.3206 12.6218 18.7438C12.5318 19.1671 12.3096 19.5558 11.9832 19.861C11.6569 20.1661 11.2412 20.3739 10.7885 20.4581C10.3359 20.5423 9.86677 20.4991 9.44041 20.3339C9.01404 20.1688 8.64963 19.8891 8.39324 19.5303C8.13685 19.1715 8 18.7497 8 18.3182V12.8636C8 11.7063 8.49166 10.5964 9.36683 9.77808C10.242 8.95974 11.429 8.5 12.6667 8.5" stroke="#292929" stroke-width="1.5" stroke-linecap="round" stroke-linejoin="round"/>
<circle cx="10.5" cy="18" r="2.5" fill="#292929"/>
<circle cx="19.5" cy="18" r="2.5" fill="#292929"/>
</svg>
