<svg width="30" height="31" viewBox="0 0 30 31" fill="none" xmlns="http://www.w3.org/2000/svg">
<rect y="0.71875" width="30" height="30" rx="4" fill="#3B82F6"/>
<path d="M21.5552 11.5556C20.8229 10.4596 19.8311 9.56148 18.6681 8.94118C17.505 8.32087 16.2067 7.99757 14.8885 8.00001C13.5727 7.99921 12.277 8.32333 11.1165 8.94359C9.95596 9.56385 8.96656 10.4611 8.23611 11.5556M14.4443 8C13.7515 9.10987 13.2059 10.3051 12.8212 11.5556M15.3333 8C16.0267 9.10978 16.5729 10.305 16.9582 11.5556M21.5552 20.4444C20.8229 21.5404 19.8311 22.4385 18.6681 23.0588C17.505 23.6791 16.2067 24.0024 14.8885 24C13.5727 24.0008 12.277 23.6767 11.1165 23.0564C9.95596 22.4362 8.96656 21.5389 8.23611 20.4444M14.4443 24C13.7515 22.8901 13.2059 21.6949 12.8212 20.4444M15.3333 24C16.0267 22.8902 16.5729 21.695 16.9582 20.4444M6 14.2222L6.88889 17.7778L8.22222 14.2222L9.55555 17.7778L10.4444 14.2222M19.3333 14.2222L20.2222 17.7778L21.5555 14.2222L22.8889 17.7778L23.7778 14.2222M12.6667 14.2222L13.5555 17.7778L14.8889 14.2222L16.2222 17.7778L17.1111 14.2222" stroke="white" stroke-width="1.5" stroke-linecap="round" stroke-linejoin="round"/>
</svg>
