<svg width="30" height="30" viewBox="0 0 30 30" fill="none" xmlns="http://www.w3.org/2000/svg">
<path d="M12 16L12.3848 14.2917C12.7112 12.8428 13.8428 11.7112 15.2917 11.3848L17 11L15.2917 10.6152C13.8428 10.2888 12.7112 9.1573 12.3848 7.7083L12 6L11.6152 7.7083C11.2888 9.1573 10.1572 10.2888 8.70827 10.6152L7 11L8.70827 11.3848C10.1572 11.7112 11.2888 12.8427 11.6152 14.2917L12 16Z" fill="#292929"/>
<path d="M19 12L19.3078 10.6334C19.569 9.47424 20.4742 8.56896 21.6334 8.30784L23 8L21.6334 7.69216C20.4742 7.43104 19.569 6.52584 19.3078 5.36664L19 4L18.6922 5.36664C18.431 6.52584 17.5258 7.43104 16.3666 7.69216L15 8L16.3666 8.30784C17.5258 8.56896 18.431 9.47416 18.6922 10.6334L19 12Z" fill="#292929"/>
<path d="M10 19H18" stroke="#292929" stroke-width="1.5" stroke-linecap="round" stroke-linejoin="round"/>
<path d="M20.6667 16C21.2855 16 21.879 16.2529 22.3166 16.7029C22.7542 17.153 23 17.7635 23 18.4V19.6C23 20.2365 22.7542 20.847 22.3166 21.2971C21.879 21.7471 21.2855 22 20.6667 22H15L11 24V22H9.33333C8.7145 22 8.121 21.7471 7.68342 21.2971C7.24583 20.847 7 20.2365 7 19.6V18.4C7 17.7635 7.24583 17.153 7.68342 16.7029C8.121 16.2529 8.7145 16 9.33333 16H20.6667Z" stroke="#292929" stroke-width="1.5" stroke-linecap="round" stroke-linejoin="round"/>
</svg>
