<svg width="30" height="30" viewBox="0 0 30 30" fill="none" xmlns="http://www.w3.org/2000/svg">
<path d="M11.4444 12.1176H18.5556M11.4444 15.4118H16.7778M12.3333 19.5294H9.66667C8.95942 19.5294 8.28115 19.2691 7.78105 18.8058C7.28095 18.3425 7 17.7141 7 17.0588V10.4706C7 9.81535 7.28095 9.18694 7.78105 8.72362C8.28115 8.26029 8.95942 8 9.66667 8H20.3333C21.0406 8 21.7189 8.26029 22.219 8.72362C22.719 9.18694 23 9.81535 23 10.4706V17.0588C23 17.7141 22.719 18.3425 22.219 18.8058C21.7189 19.2691 21.0406 19.5294 20.3333 19.5294H17.6667L15 22L12.3333 19.5294Z" stroke="#292929" stroke-width="1.5" stroke-linecap="round" stroke-linejoin="round"/>
</svg>
