<svg width="30" height="30" viewBox="0 0 30 30" fill="none" xmlns="http://www.w3.org/2000/svg">
<path d="M8 12V10.25C8 9.78587 8.18437 9.34075 8.51256 9.01256C8.84075 8.68437 9.28587 8.5 9.75 8.5H11.5M8 19V20.75C8 21.2141 8.18437 21.6592 8.51256 21.9874C8.84075 22.3156 9.28587 22.5 9.75 22.5H11.5M18.5 8.5H20.25C20.7141 8.5 21.1592 8.68437 21.4874 9.01256C21.8156 9.34075 22 9.78587 22 10.25V12" stroke="#292929" stroke-width="1.5" stroke-linecap="round" stroke-linejoin="round"/>
<path d="M20.8333 21.3333L17.9167 18.4167M11.5 15.5C11.5 15.9596 11.5905 16.4148 11.7664 16.8394C11.9423 17.264 12.2001 17.6499 12.5251 17.9749C12.8501 18.2999 13.236 18.5577 13.6606 18.7336C14.0852 18.9095 14.5404 19 15 19C15.4596 19 15.9148 18.9095 16.3394 18.7336C16.764 18.5577 17.1499 18.2999 17.4749 17.9749C17.7999 17.6499 18.0577 17.264 18.2336 16.8394C18.4095 16.4148 18.5 15.9596 18.5 15.5C18.5 14.5717 18.1313 13.6815 17.4749 13.0251C16.8185 12.3687 15.9283 12 15 12C14.0717 12 13.1815 12.3687 12.5251 13.0251C11.8687 13.6815 11.5 14.5717 11.5 15.5Z" stroke="#292929" stroke-width="1.5" stroke-linecap="round" stroke-linejoin="round"/>
</svg>
