<svg width="30" height="30" viewBox="0 0 30 30" fill="none" xmlns="http://www.w3.org/2000/svg">
<rect width="30" height="30" rx="4" fill="#B45309"/>
<path d="M8 15H17M22 15H17M17 8H9.75C9.28587 8 8.84075 8.18437 8.51256 8.51256C8.18437 8.84075 8 9.28587 8 9.75V20.25C8 20.7141 8.18437 21.1592 8.51256 21.4874C8.84075 21.8156 9.28587 22 9.75 22H17M17 8H20.25C20.7141 8 21.1592 8.18437 21.4874 8.51256C21.8156 8.84075 22 9.28587 22 9.75V20.25C22 20.7141 21.8156 21.1592 21.4874 21.4874C21.1592 21.8156 20.7141 22 20.25 22H17M17 8V15M17 22V15" stroke="white" stroke-width="1.5" stroke-linecap="round" stroke-linejoin="round"/>
</svg>
