<svg xmlns="http://www.w3.org/2000/svg" width="22" height="22" viewBox="0 0 22 22" fill="none">
  <path d="M10.1111 18.9999H7V15.8685L15.1667 7.64853C15.5792 7.23328 16.1388 7 16.7222 7C17.3057 7 17.8652 7.23328 18.2778 7.64853C18.6903 8.06378 18.9221 8.62698 18.9221 9.21423C18.9221 9.80148 18.6903 10.3647 18.2778 10.7799L10.1111 18.9999ZM10.1111 18.9999L21 19V15.8686H13.2222L10.1111 18.9999ZM14.3889 8.43153L17.5 11.5629M8.16667 14.6943L11.2778 17.8257" stroke="#303030" stroke-width="1.5" stroke-linecap="round" stroke-linejoin="round"/>
  <path d="M12.75 16H21V19H10L12.75 16Z" fill="#303030"/>
  <path d="M9.5 6L9.6924 5.14585C9.8556 4.4214 10.4214 3.8556 11.1459 3.6924L12 3.5L11.1459 3.3076C10.4214 3.1444 9.8556 2.57865 9.6924 1.85415L9.5 1L9.3076 1.85415C9.1444 2.57865 8.57862 3.1444 7.85414 3.3076L7 3.5L7.85414 3.6924C8.57862 3.8556 9.1444 4.42135 9.3076 5.14585L9.5 6Z" fill="#303030"/>
  <path d="M4.5 13L4.84633 11.4625C5.14009 10.1585 6.15847 9.14008 7.46253 8.84632L9 8.5L7.46253 8.15368C6.15847 7.85992 5.14009 6.84157 4.84633 5.53747L4.5 4L4.15367 5.53747C3.85991 6.84157 2.84153 7.85992 1.53744 8.15368L0 8.5L1.53744 8.84632C2.84153 9.14008 3.85991 10.1584 4.15367 11.4625L4.5 13Z" fill="#303030"/>
</svg>