<svg width="16" height="16" viewBox="0 0 16 16" fill="none" xmlns="http://www.w3.org/2000/svg">
<path d="M10.3333 5.33073V3.9974C10.3333 3.64377 10.1929 3.30464 9.94281 3.05459C9.69276 2.80454 9.35362 2.66406 9 2.66406H4.33333C3.97971 2.66406 3.64057 2.80454 3.39052 3.05459C3.14048 3.30464 3 3.64377 3 3.9974V11.9974C3 12.351 3.14048 12.6902 3.39052 12.9402C3.64057 13.1903 3.97971 13.3307 4.33333 13.3307H9C9.35362 13.3307 9.69276 13.1903 9.94281 12.9402C10.1929 12.6902 10.3333 12.351 10.3333 11.9974V10.6641M7 7.9974H15M15 7.9974L13 5.9974M15 7.9974L13 9.9974" stroke="#292929" stroke-width="1.5" stroke-linecap="round" stroke-linejoin="round"/>
</svg>
