<svg width="16" height="16" viewBox="0 0 16 16" fill="none" xmlns="http://www.w3.org/2000/svg">
<path fill-rule="evenodd" clip-rule="evenodd" d="M6.765 2.42359C6.59996 2.35523 6.41835 2.33734 6.24314 2.37219C6.06794 2.40705 5.907 2.49307 5.78068 2.61939C5.65436 2.74571 5.56834 2.90665 5.53348 3.08185C5.49863 3.25706 5.51652 3.43867 5.58488 3.60371C5.65325 3.76876 5.76901 3.90982 5.91755 4.00907C6.06608 4.10832 6.24071 4.16129 6.41935 4.16129H7.32258V3.25806C7.32258 3.07942 7.26961 2.9048 7.17036 2.75626C7.07111 2.60773 6.93005 2.49196 6.765 2.42359ZM8 1.64548C7.79467 1.44422 7.55174 1.28301 7.28348 1.17189C6.87087 1.00098 6.41685 0.956261 5.97883 1.04339C5.54081 1.13052 5.13846 1.34558 4.82266 1.66137C4.50687 1.97717 4.29181 2.37952 4.20468 2.81754C4.11755 3.25556 4.16227 3.70958 4.33317 4.12219C4.3386 4.13528 4.34414 4.14832 4.3498 4.16129H3.25806C2.65919 4.16129 2.08484 4.39919 1.66137 4.82266C1.2379 5.24613 1 5.82048 1 6.41935C1 7.0107 1.23196 7.57813 1.64548 8C1.44422 8.20533 1.28301 8.44825 1.17189 8.71652C1.00098 9.12913 0.956261 9.58315 1.04339 10.0212C1.13052 10.4592 1.34558 10.8615 1.66137 11.1773C1.97717 11.4931 2.37952 11.7082 2.81754 11.7953C3.25556 11.8824 3.70958 11.8377 4.12219 11.6668C4.13528 11.6614 4.14832 11.6559 4.16129 11.6502V12.7419C4.16129 13.3408 4.39919 13.9152 4.82266 14.3386C5.24613 14.7621 5.82048 15 6.41935 15C7.0107 15 7.57813 14.768 8 14.3545C8.20533 14.5558 8.44825 14.717 8.71652 14.8281C9.12913 14.999 9.58315 15.0437 10.0212 14.9566C10.4592 14.8695 10.8615 14.6544 11.1773 14.3386C11.4931 14.0228 11.7082 13.6205 11.7953 13.1825C11.8824 12.7444 11.8377 12.2904 11.6668 11.8778C11.6614 11.8647 11.6559 11.8517 11.6502 11.8387H12.7419C13.3408 11.8387 13.9152 11.6008 14.3386 11.1773C14.7621 10.7539 15 10.1795 15 9.58064C15 8.9893 14.768 8.42187 14.3545 8C14.5558 7.79467 14.717 7.55175 14.8281 7.28348C14.999 6.87087 15.0437 6.41685 14.9566 5.97883C14.8695 5.54081 14.6544 5.13846 14.3386 4.82266C14.0228 4.50687 13.6205 4.29181 13.1825 4.20468C12.7444 4.11755 12.2904 4.16227 11.8778 4.33317C11.8647 4.3386 11.8517 4.34414 11.8387 4.3498V3.25806C11.8387 2.65919 11.6008 2.08484 11.1773 1.66137C10.7539 1.2379 10.1795 1 9.58064 1C8.9893 1 8.42187 1.23196 8 1.64548ZM10.4839 3.25806C10.4839 3.01851 10.3887 2.78878 10.2193 2.61939C10.0499 2.45 9.82019 2.35484 9.58064 2.35484C9.34109 2.35484 9.11135 2.45 8.94197 2.61939C8.77258 2.78878 8.67742 3.01851 8.67742 3.25806V7.32258H10.4839V3.25806ZM11.8387 7.32258V6.41935C11.8387 6.24071 11.8917 6.06608 11.9909 5.91755C12.0902 5.76901 12.2312 5.65324 12.3963 5.58488C12.5613 5.51652 12.7429 5.49863 12.9181 5.53348C13.0934 5.56834 13.2543 5.65436 13.3806 5.78068C13.5069 5.907 13.593 6.06794 13.6278 6.24314C13.6627 6.41835 13.6448 6.59996 13.5764 6.765C13.508 6.93005 13.3923 7.07111 13.2437 7.17036C13.0952 7.26961 12.9206 7.32258 12.7419 7.32258H11.8387ZM8.67742 8.67742V10.4839H12.7419C12.9815 10.4839 13.2112 10.3887 13.3806 10.2193C13.55 10.0499 13.6452 9.82019 13.6452 9.58064C13.6452 9.34109 13.55 9.11136 13.3806 8.94197C13.2112 8.77258 12.9815 8.67742 12.7419 8.67742H8.67742ZM9.58064 11.8387H8.67742V12.7419C8.67742 12.9206 8.73039 13.0952 8.82964 13.2437C8.92889 13.3923 9.06995 13.508 9.23499 13.5764C9.40004 13.6448 9.58165 13.6627 9.75686 13.6278C9.93206 13.593 10.093 13.5069 10.2193 13.3806C10.3456 13.2543 10.4317 13.0934 10.4665 12.9181C10.5014 12.7429 10.4835 12.5613 10.4151 12.3963C10.3468 12.2312 10.231 12.0902 10.0824 11.9909C9.93391 11.8917 9.75928 11.8387 9.58064 11.8387ZM7.32258 12.7419V8.67742H5.51613V12.7419C5.51613 12.9815 5.61129 13.2112 5.78068 13.3806C5.95007 13.55 6.17981 13.6452 6.41935 13.6452C6.65891 13.6452 6.88864 13.55 7.05803 13.3806C7.22742 13.2112 7.32258 12.9815 7.32258 12.7419ZM4.16129 9.58064V8.67742H3.25807C3.07942 8.67742 2.9048 8.73039 2.75626 8.82964C2.60773 8.92889 2.49196 9.06995 2.42359 9.23499C2.35523 9.40004 2.33734 9.58165 2.37219 9.75686C2.40705 9.93206 2.49307 10.093 2.61939 10.2193C2.74571 10.3456 2.90665 10.4317 3.08185 10.4665C3.25706 10.5014 3.43867 10.4835 3.60371 10.4151C3.76876 10.3468 3.90982 10.231 4.00907 10.0824C4.10832 9.93391 4.16129 9.75928 4.16129 9.58064ZM3.25807 7.32258H7.32258V5.51613H3.25806C3.01851 5.51613 2.78878 5.61129 2.61939 5.78068C2.45 5.95007 2.35484 6.1798 2.35484 6.41935C2.35484 6.65891 2.45 6.88864 2.61939 7.05803C2.78877 7.22742 3.01851 7.32258 3.25807 7.32258Z" fill="#292929"/>
</svg>
