<svg width="30" height="30" viewBox="0 0 30 30" fill="none" xmlns="http://www.w3.org/2000/svg">
<path d="M8 8.83333C8 8.61232 8.0878 8.40036 8.24408 8.24408C8.40036 8.0878 8.61232 8 8.83333 8H12.1667C12.3877 8 12.5996 8.0878 12.7559 8.24408C12.9122 8.40036 13 8.61232 13 8.83333V12.1667C13 12.3877 12.9122 12.5996 12.7559 12.7559C12.5996 12.9122 12.3877 13 12.1667 13H8.83333C8.61232 13 8.40036 12.9122 8.24408 12.7559C8.0878 12.5996 8 12.3877 8 12.1667V8.83333Z" stroke="#292929" stroke-width="1.5" stroke-linecap="round" stroke-linejoin="round"/>
<path d="M17 8.83333C17 8.61232 17.0878 8.40036 17.2441 8.24408C17.4004 8.0878 17.6123 8 17.8333 8H21.1667C21.3877 8 21.5996 8.0878 21.7559 8.24408C21.9122 8.40036 22 8.61232 22 8.83333V12.1667C22 12.3877 21.9122 12.5996 21.7559 12.7559C21.5996 12.9122 21.3877 13 21.1667 13H17.8333C17.6123 13 17.4004 12.9122 17.2441 12.7559C17.0878 12.5996 17 12.3877 17 12.1667V8.83333Z" stroke="#292929" stroke-width="1.5" stroke-linecap="round" stroke-linejoin="round"/>
<path d="M8 17.8333C8 17.6123 8.0878 17.4004 8.24408 17.2441C8.40036 17.0878 8.61232 17 8.83333 17H12.1667C12.3877 17 12.5996 17.0878 12.7559 17.2441C12.9122 17.4004 13 17.6123 13 17.8333V21.1667C13 21.3877 12.9122 21.5996 12.7559 21.7559C12.5996 21.9122 12.3877 22 12.1667 22H8.83333C8.61232 22 8.40036 21.9122 8.24408 21.7559C8.0878 21.5996 8 21.3877 8 21.1667V17.8333Z" stroke="#292929" stroke-width="1.5" stroke-linecap="round" stroke-linejoin="round"/>
<path d="M17 17.8333C17 17.6123 17.0878 17.4004 17.2441 17.2441C17.4004 17.0878 17.6123 17 17.8333 17H21.1667C21.3877 17 21.5996 17.0878 21.7559 17.2441C21.9122 17.4004 22 17.6123 22 17.8333V21.1667C22 21.3877 21.9122 21.5996 21.7559 21.7559C21.5996 21.9122 21.3877 22 21.1667 22H17.8333C17.6123 22 17.4004 21.9122 17.2441 21.7559C17.0878 21.5996 17 21.3877 17 21.1667V17.8333Z" stroke="#292929" stroke-width="1.5" stroke-linecap="round" stroke-linejoin="round"/>
</svg>
