<svg width="30" height="30" viewBox="0 0 30 30" fill="none" xmlns="http://www.w3.org/2000/svg">
<path d="M18.3669 18.3669L22 22M8 14.0474C8 14.8415 8.15642 15.6279 8.46033 16.3616C8.76424 17.0953 9.20969 17.762 9.77124 18.3235C10.3328 18.8851 10.9994 19.3305 11.7332 19.6344C12.4669 19.9383 13.2532 20.0948 14.0474 20.0948C14.8415 20.0948 15.6279 19.9383 16.3616 19.6344C17.0953 19.3305 17.762 18.8851 18.3235 18.3235C18.8851 17.762 19.3305 17.0953 19.6344 16.3616C19.9383 15.6279 20.0948 14.8415 20.0948 14.0474C20.0948 13.2532 19.9383 12.4669 19.6344 11.7332C19.3305 10.9994 18.8851 10.3328 18.3235 9.77124C17.762 9.20969 17.0953 8.76424 16.3616 8.46033C15.6279 8.15642 14.8415 8 14.0474 8C13.2532 8 12.4669 8.15642 11.7332 8.46033C10.9994 8.76424 10.3328 9.20969 9.77124 9.77124C9.20969 10.3328 8.76424 10.9994 8.46033 11.7332C8.15642 12.4669 8 13.2532 8 14.0474Z" stroke="#292929" stroke-width="1.5" stroke-linecap="round" stroke-linejoin="round"/>
</svg>
