<svg xmlns="http://www.w3.org/2000/svg" width="14" height="14" viewBox="0 0 14 14" fill="none">
  <path d="M10.5822 5C11.0792 5 11.3388 5.57517 11.0389 5.94675L10.9946 5.99575L7.49458 9.49575C7.39414 9.59619 7.2605 9.65652 7.11873 9.66543C6.97697 9.67435 6.83682 9.63123 6.72458 9.54417L6.66975 9.49575L3.16975 5.99575L3.12133 5.94092L3.08983 5.896L3.05833 5.84L3.04842 5.819L3.03267 5.77992L3.014 5.71692L3.00817 5.686L3.00233 5.651L3 5.61775V5.54892L3.00292 5.51508L3.00817 5.48008L3.014 5.44975L3.03267 5.38675L3.04842 5.34767L3.08925 5.27067L3.12717 5.21817L3.16975 5.17092L3.22458 5.1225L3.2695 5.091L3.3255 5.0595L3.3465 5.04958L3.38558 5.03383L3.44858 5.01517L3.4795 5.00933L3.5145 5.0035L3.54775 5.00117L10.5822 5Z" fill="#515354"/>
</svg>