<svg width="16" height="16" viewBox="0 0 16 16" fill="none" xmlns="http://www.w3.org/2000/svg">
<path d="M11.8889 11.8889H13.4444C13.857 11.8889 14.2527 11.725 14.5444 11.4333C14.8361 11.1416 15 10.7459 15 10.3333V7.22222C15 6.80966 14.8361 6.414 14.5444 6.12228C14.2527 5.83056 13.857 5.66667 13.4444 5.66667H2.55556C2.143 5.66667 1.74733 5.83056 1.45561 6.12228C1.16389 6.414 1 6.80966 1 7.22222V10.3333C1 10.7459 1.16389 11.1416 1.45561 11.4333C1.74733 11.725 2.143 11.8889 2.55556 11.8889H4.11111M11.8889 5.66667V2.55556C11.8889 2.143 11.725 1.74733 11.4333 1.45561C11.1416 1.16389 10.7459 1 10.3333 1H5.66667C5.25411 1 4.85845 1.16389 4.56672 1.45561C4.275 1.74733 4.11111 2.143 4.11111 2.55556V5.66667M4.11111 10.3333C4.11111 9.92077 4.275 9.52511 4.56672 9.23339C4.85845 8.94167 5.25411 8.77778 5.66667 8.77778H10.3333C10.7459 8.77778 11.1416 8.94167 11.4333 9.23339C11.725 9.52511 11.8889 9.92077 11.8889 10.3333V13.4444C11.8889 13.857 11.725 14.2527 11.4333 14.5444C11.1416 14.8361 10.7459 15 10.3333 15H5.66667C5.25411 15 4.85845 14.8361 4.56672 14.5444C4.275 14.2527 4.11111 13.857 4.11111 13.4444V10.3333Z" stroke="#292929" stroke-width="1.5" stroke-linecap="round" stroke-linejoin="round"/>
</svg>
