<svg width="16" height="16" viewBox="0 0 16 16" fill="none" xmlns="http://www.w3.org/2000/svg">
<path d="M1 6H8H15M5 10H4M8 10H11M1 4.57143C1 3.88944 1.24583 3.23539 1.68342 2.75315C2.121 2.27092 2.7145 2 3.33333 2H12.6667C13.2855 2 13.879 2.27092 14.3166 2.75315C14.7542 3.23539 15 3.88944 15 4.57143V11.4286C15 12.1106 14.7542 12.7646 14.3166 13.2468C13.879 13.7291 13.2855 14 12.6667 14H3.33333C2.7145 14 2.121 13.7291 1.68342 13.2468C1.24583 12.7646 1 12.1106 1 11.4286V4.57143Z" stroke="black" stroke-width="1.5" stroke-linecap="round" stroke-linejoin="round"/>
</svg>
