<svg width="145" height="80" viewBox="0 0 145 80" fill="none" xmlns="http://www.w3.org/2000/svg">
<path d="M20.1629 0H145L124.837 80H0L20.1629 0Z" fill="white" fill-opacity="0.2"/>
<path d="M32.4193 16.8753C32.7042 15.7714 33.6999 15 34.84 15H56.7729C58.4072 15 59.602 16.5423 59.1936 18.1247L47.5807 63.1247C47.2958 64.2286 46.3001 65 45.16 65H23.2271C21.5928 65 20.398 63.4577 20.8064 61.8753L32.4193 16.8753Z" fill="url(#paint0_linear_6237_2211)"/>
<path d="M36.8199 47.5L36.724 47.3458C35.2531 44.9829 31.3455 39.9689 31.3062 39.9185L31.25 39.8465L32.581 38.6063L36.7953 41.3814C39.4489 38.1341 41.9244 35.904 43.5391 34.6014C45.3053 33.1768 46.4552 32.5211 46.4667 32.5147L46.4928 32.5H48.75L48.535 32.6806C42.987 37.3407 36.9738 47.2452 36.9137 47.3447L36.8199 47.5Z" fill="#157994"/>
<path d="M64.9193 16.8753C65.2042 15.7714 66.1999 15 67.34 15H89.2729C90.9072 15 92.102 16.5423 91.6936 18.1247L80.0807 63.1247C79.7958 64.2286 78.8001 65 77.66 65H55.7271C54.0928 65 52.898 63.4577 53.3064 61.8753L64.9193 16.8753Z" fill="url(#paint1_linear_6237_2211)"/>
<path d="M97.4193 16.8753C97.7042 15.7714 98.6999 15 99.84 15H121.773C123.407 15 124.602 16.5423 124.194 18.1247L112.581 63.1247C112.296 64.2286 111.3 65 110.16 65H88.2271C86.5928 65 85.398 63.4577 85.8064 61.8753L97.4193 16.8753Z" fill="url(#paint2_linear_6237_2211)"/>
<defs>
<linearGradient id="paint0_linear_6237_2211" x1="40" y1="15" x2="40" y2="65" gradientUnits="userSpaceOnUse">
<stop stop-color="#DDDD00"/>
<stop offset="0.5" stop-color="#FFFF00"/>
<stop offset="1" stop-color="#DDDD00"/>
</linearGradient>
<linearGradient id="paint1_linear_6237_2211" x1="72.5" y1="15" x2="72.5" y2="65" gradientUnits="userSpaceOnUse">
<stop stop-color="#0C5062"/>
<stop offset="0.5" stop-color="#116176"/>
<stop offset="1" stop-color="#0C5062"/>
</linearGradient>
<linearGradient id="paint2_linear_6237_2211" x1="105" y1="15" x2="105" y2="65" gradientUnits="userSpaceOnUse">
<stop stop-color="#0C5062"/>
<stop offset="0.5" stop-color="#116176"/>
<stop offset="1" stop-color="#0C5062"/>
</linearGradient>
</defs>
</svg>
